G04 #@! TF.GenerationSoftware,KiCad,Pcbnew,5.1.5-52549c5~84~ubuntu18.04.1*
G04 #@! TF.CreationDate,2020-01-13T21:42:59-08:00*
G04 #@! TF.ProjectId,somos_wristband_1.0,736f6d6f-735f-4777-9269-737462616e64,rev?*
G04 #@! TF.SameCoordinates,Original*
G04 #@! TF.FileFunction,Legend,Bot*
G04 #@! TF.FilePolarity,Positive*
%FSLAX46Y46*%
G04 Gerber Fmt 4.6, Leading zero omitted, Abs format (unit mm)*
G04 Created by KiCad (PCBNEW 5.1.5-52549c5~84~ubuntu18.04.1) date 2020-01-13 21:42:59*
%MOMM*%
%LPD*%
G04 APERTURE LIST*
%ADD10C,0.100000*%
G04 APERTURE END LIST*
D10*
X152717190Y-128940690D02*
X152883857Y-128702595D01*
X153002904Y-128940690D02*
X153002904Y-128440690D01*
X152812428Y-128440690D01*
X152764809Y-128464500D01*
X152741000Y-128488309D01*
X152717190Y-128535928D01*
X152717190Y-128607357D01*
X152741000Y-128654976D01*
X152764809Y-128678785D01*
X152812428Y-128702595D01*
X153002904Y-128702595D01*
X152217190Y-128940690D02*
X152383857Y-128702595D01*
X152502904Y-128940690D02*
X152502904Y-128440690D01*
X152312428Y-128440690D01*
X152264809Y-128464500D01*
X152241000Y-128488309D01*
X152217190Y-128535928D01*
X152217190Y-128607357D01*
X152241000Y-128654976D01*
X152264809Y-128678785D01*
X152312428Y-128702595D01*
X152502904Y-128702595D01*
X151360047Y-128940690D02*
X151645761Y-128940690D01*
X151502904Y-128940690D02*
X151502904Y-128440690D01*
X151550523Y-128512119D01*
X151598142Y-128559738D01*
X151645761Y-128583547D01*
X150788619Y-128416880D02*
X151217190Y-129059738D01*
X150360047Y-128940690D02*
X150645761Y-128940690D01*
X150502904Y-128940690D02*
X150502904Y-128440690D01*
X150550523Y-128512119D01*
X150598142Y-128559738D01*
X150645761Y-128583547D01*
X150193380Y-128440690D02*
X149883857Y-128440690D01*
X150050523Y-128631166D01*
X149979095Y-128631166D01*
X149931476Y-128654976D01*
X149907666Y-128678785D01*
X149883857Y-128726404D01*
X149883857Y-128845452D01*
X149907666Y-128893071D01*
X149931476Y-128916880D01*
X149979095Y-128940690D01*
X150121952Y-128940690D01*
X150169571Y-128916880D01*
X150193380Y-128893071D01*
X149312428Y-128416880D02*
X149741000Y-129059738D01*
X149169571Y-128488309D02*
X149145761Y-128464500D01*
X149098142Y-128440690D01*
X148979095Y-128440690D01*
X148931476Y-128464500D01*
X148907666Y-128488309D01*
X148883857Y-128535928D01*
X148883857Y-128583547D01*
X148907666Y-128654976D01*
X149193380Y-128940690D01*
X148883857Y-128940690D01*
X148574333Y-128440690D02*
X148526714Y-128440690D01*
X148479095Y-128464500D01*
X148455285Y-128488309D01*
X148431476Y-128535928D01*
X148407666Y-128631166D01*
X148407666Y-128750214D01*
X148431476Y-128845452D01*
X148455285Y-128893071D01*
X148479095Y-128916880D01*
X148526714Y-128940690D01*
X148574333Y-128940690D01*
X148621952Y-128916880D01*
X148645761Y-128893071D01*
X148669571Y-128845452D01*
X148693380Y-128750214D01*
X148693380Y-128631166D01*
X148669571Y-128535928D01*
X148645761Y-128488309D01*
X148621952Y-128464500D01*
X148574333Y-128440690D01*
X148217190Y-128488309D02*
X148193380Y-128464500D01*
X148145761Y-128440690D01*
X148026714Y-128440690D01*
X147979095Y-128464500D01*
X147955285Y-128488309D01*
X147931476Y-128535928D01*
X147931476Y-128583547D01*
X147955285Y-128654976D01*
X148241000Y-128940690D01*
X147931476Y-128940690D01*
X147621952Y-128440690D02*
X147574333Y-128440690D01*
X147526714Y-128464500D01*
X147502904Y-128488309D01*
X147479095Y-128535928D01*
X147455285Y-128631166D01*
X147455285Y-128750214D01*
X147479095Y-128845452D01*
X147502904Y-128893071D01*
X147526714Y-128916880D01*
X147574333Y-128940690D01*
X147621952Y-128940690D01*
X147669571Y-128916880D01*
X147693380Y-128893071D01*
X147717190Y-128845452D01*
X147741000Y-128750214D01*
X147741000Y-128631166D01*
X147717190Y-128535928D01*
X147693380Y-128488309D01*
X147669571Y-128464500D01*
X147621952Y-128440690D01*
M02*
