G04 #@! TF.GenerationSoftware,KiCad,Pcbnew,5.1.5-52549c5~84~ubuntu18.04.1*
G04 #@! TF.CreationDate,2020-01-13T21:42:59-08:00*
G04 #@! TF.ProjectId,somos_wristband_1.0,736f6d6f-735f-4777-9269-737462616e64,rev?*
G04 #@! TF.SameCoordinates,Original*
G04 #@! TF.FileFunction,Copper,L4,Bot*
G04 #@! TF.FilePolarity,Positive*
%FSLAX46Y46*%
G04 Gerber Fmt 4.6, Leading zero omitted, Abs format (unit mm)*
G04 Created by KiCad (PCBNEW 5.1.5-52549c5~84~ubuntu18.04.1) date 2020-01-13 21:42:59*
%MOMM*%
%LPD*%
G04 APERTURE LIST*
%ADD10C,2.000000*%
%ADD11C,4.000000*%
%ADD12C,1.400000*%
%ADD13O,1.700000X1.700000*%
%ADD14R,1.700000X1.700000*%
%ADD15C,0.600000*%
%ADD16C,0.250000*%
%ADD17C,0.200000*%
%ADD18C,0.254000*%
G04 APERTURE END LIST*
D10*
X146190000Y-116095000D03*
X153810000Y-116095000D03*
X153810000Y-119905000D03*
X146190000Y-119905000D03*
X150000000Y-114190000D03*
X150000000Y-121810000D03*
D11*
X150000000Y-118000000D03*
D12*
X142240000Y-105220000D03*
X142240000Y-107760000D03*
X142240000Y-110300000D03*
X142240000Y-112840000D03*
X142240000Y-115380000D03*
X142240000Y-117920000D03*
X142240000Y-120460000D03*
X142240000Y-123000000D03*
D10*
X146190000Y-81095000D03*
X153810000Y-81095000D03*
X153810000Y-84905000D03*
X146190000Y-84905000D03*
X150000000Y-79190000D03*
X150000000Y-86810000D03*
D11*
X150000000Y-83000000D03*
D10*
X146190000Y-98595000D03*
X153810000Y-98595000D03*
X153810000Y-102405000D03*
X146190000Y-102405000D03*
X150000000Y-96690000D03*
X150000000Y-104310000D03*
D11*
X150000000Y-100500000D03*
D13*
X147460000Y-126540000D03*
X147460000Y-124000000D03*
X150000000Y-126540000D03*
X150000000Y-124000000D03*
X152540000Y-126540000D03*
D14*
X152540000Y-124000000D03*
D12*
X142240000Y-83220000D03*
X142240000Y-85760000D03*
X142240000Y-88300000D03*
X142240000Y-90840000D03*
X142240000Y-93380000D03*
X142240000Y-95920000D03*
X142240000Y-98460000D03*
X142240000Y-101000000D03*
X157480000Y-100780000D03*
X157480000Y-98240000D03*
X157480000Y-95700000D03*
X157480000Y-93160000D03*
X157480000Y-90620000D03*
X157480000Y-88080000D03*
X157480000Y-85540000D03*
X157480000Y-83000000D03*
X157480000Y-122780000D03*
X157480000Y-120240000D03*
X157480000Y-117700000D03*
X157480000Y-115160000D03*
X157480000Y-112620000D03*
X157480000Y-110080000D03*
X157480000Y-107540000D03*
X157480000Y-105000000D03*
D15*
X154800000Y-112800000D03*
X148698159Y-115000000D03*
X152350000Y-114000000D03*
X144970500Y-112014000D03*
X154000000Y-113000000D03*
X150000000Y-109000000D03*
X148000000Y-107000000D03*
X150000000Y-109000000D03*
X152000000Y-107000000D03*
X152000000Y-111000000D03*
X148000000Y-111000000D03*
D16*
X148095000Y-116095000D02*
X150000000Y-118000000D01*
X146190000Y-116095000D02*
X148095000Y-116095000D01*
X148095000Y-119905000D02*
X150000000Y-118000000D01*
X146190000Y-119905000D02*
X148095000Y-119905000D01*
X150000000Y-121810000D02*
X150000000Y-118000000D01*
X150000000Y-114190000D02*
X150000000Y-118000000D01*
X151905000Y-116095000D02*
X150000000Y-118000000D01*
X153810000Y-116095000D02*
X151905000Y-116095000D01*
X151905000Y-119905000D02*
X150000000Y-118000000D01*
X153810000Y-119905000D02*
X151905000Y-119905000D01*
D17*
X150000000Y-79190000D02*
X150000000Y-83000000D01*
X150000000Y-85395787D02*
X150000000Y-83000000D01*
X150000000Y-86810000D02*
X150000000Y-85395787D01*
X148095000Y-81095000D02*
X150000000Y-83000000D01*
X146190000Y-81095000D02*
X148095000Y-81095000D01*
X151905000Y-81095000D02*
X150000000Y-83000000D01*
X153810000Y-81095000D02*
X151905000Y-81095000D01*
X151905000Y-84905000D02*
X150000000Y-83000000D01*
X153810000Y-84905000D02*
X151905000Y-84905000D01*
X148095000Y-84905000D02*
X150000000Y-83000000D01*
X146190000Y-84905000D02*
X148095000Y-84905000D01*
X150000000Y-96190000D02*
X150000000Y-100000000D01*
X150000000Y-103810000D02*
X150000000Y-100000000D01*
X148095000Y-98595000D02*
X150000000Y-100500000D01*
X146190000Y-98595000D02*
X148095000Y-98595000D01*
X151905000Y-98595000D02*
X150000000Y-100500000D01*
X153810000Y-98595000D02*
X151905000Y-98595000D01*
X151905000Y-102405000D02*
X150000000Y-100500000D01*
X153810000Y-102405000D02*
X151905000Y-102405000D01*
X148095000Y-102405000D02*
X150000000Y-100500000D01*
X146190000Y-102405000D02*
X148095000Y-102405000D01*
D18*
G36*
X156935170Y-76868550D02*
G01*
X156665958Y-76815000D01*
X156334042Y-76815000D01*
X156008504Y-76879754D01*
X155701853Y-77006772D01*
X155425875Y-77191175D01*
X155191175Y-77425875D01*
X155006772Y-77701853D01*
X154879754Y-78008504D01*
X154815000Y-78334042D01*
X154815000Y-78665958D01*
X154879754Y-78991496D01*
X155006772Y-79298147D01*
X155191175Y-79574125D01*
X155425875Y-79808825D01*
X155701853Y-79993228D01*
X156008504Y-80120246D01*
X156334042Y-80185000D01*
X156665958Y-80185000D01*
X156991496Y-80120246D01*
X157298147Y-79993228D01*
X157574125Y-79808825D01*
X157808825Y-79574125D01*
X157993228Y-79298147D01*
X158120246Y-78991496D01*
X158185000Y-78665958D01*
X158185000Y-78334042D01*
X158131450Y-78064831D01*
X158340001Y-78273382D01*
X158340001Y-81972026D01*
X158331013Y-81963038D01*
X158112359Y-81816939D01*
X157869405Y-81716304D01*
X157611486Y-81665000D01*
X157348514Y-81665000D01*
X157090595Y-81716304D01*
X156847641Y-81816939D01*
X156628987Y-81963038D01*
X156443038Y-82148987D01*
X156296939Y-82367641D01*
X156196304Y-82610595D01*
X156145000Y-82868514D01*
X156145000Y-83131486D01*
X156196304Y-83389405D01*
X156296939Y-83632359D01*
X156443038Y-83851013D01*
X156628987Y-84036962D01*
X156847641Y-84183061D01*
X157057530Y-84270000D01*
X156847641Y-84356939D01*
X156628987Y-84503038D01*
X156443038Y-84688987D01*
X156296939Y-84907641D01*
X156196304Y-85150595D01*
X156145000Y-85408514D01*
X156145000Y-85671486D01*
X156196304Y-85929405D01*
X156296939Y-86172359D01*
X156443038Y-86391013D01*
X156628987Y-86576962D01*
X156847641Y-86723061D01*
X157057530Y-86810000D01*
X156847641Y-86896939D01*
X156628987Y-87043038D01*
X156443038Y-87228987D01*
X156296939Y-87447641D01*
X156196304Y-87690595D01*
X156145000Y-87948514D01*
X156145000Y-88211486D01*
X156196304Y-88469405D01*
X156296939Y-88712359D01*
X156443038Y-88931013D01*
X156628987Y-89116962D01*
X156847641Y-89263061D01*
X157057530Y-89350000D01*
X156847641Y-89436939D01*
X156628987Y-89583038D01*
X156443038Y-89768987D01*
X156296939Y-89987641D01*
X156196304Y-90230595D01*
X156145000Y-90488514D01*
X156145000Y-90751486D01*
X156196304Y-91009405D01*
X156296939Y-91252359D01*
X156443038Y-91471013D01*
X156628987Y-91656962D01*
X156847641Y-91803061D01*
X157057530Y-91890000D01*
X156847641Y-91976939D01*
X156628987Y-92123038D01*
X156443038Y-92308987D01*
X156296939Y-92527641D01*
X156196304Y-92770595D01*
X156145000Y-93028514D01*
X156145000Y-93291486D01*
X156196304Y-93549405D01*
X156296939Y-93792359D01*
X156443038Y-94011013D01*
X156628987Y-94196962D01*
X156847641Y-94343061D01*
X157057530Y-94430000D01*
X156847641Y-94516939D01*
X156628987Y-94663038D01*
X156443038Y-94848987D01*
X156296939Y-95067641D01*
X156196304Y-95310595D01*
X156145000Y-95568514D01*
X156145000Y-95831486D01*
X156196304Y-96089405D01*
X156296939Y-96332359D01*
X156443038Y-96551013D01*
X156628987Y-96736962D01*
X156847641Y-96883061D01*
X157057530Y-96970000D01*
X156847641Y-97056939D01*
X156628987Y-97203038D01*
X156443038Y-97388987D01*
X156296939Y-97607641D01*
X156196304Y-97850595D01*
X156145000Y-98108514D01*
X156145000Y-98371486D01*
X156196304Y-98629405D01*
X156296939Y-98872359D01*
X156443038Y-99091013D01*
X156628987Y-99276962D01*
X156847641Y-99423061D01*
X157057530Y-99510000D01*
X156847641Y-99596939D01*
X156628987Y-99743038D01*
X156443038Y-99928987D01*
X156296939Y-100147641D01*
X156196304Y-100390595D01*
X156145000Y-100648514D01*
X156145000Y-100911486D01*
X156196304Y-101169405D01*
X156296939Y-101412359D01*
X156443038Y-101631013D01*
X156628987Y-101816962D01*
X156847641Y-101963061D01*
X157090595Y-102063696D01*
X157348514Y-102115000D01*
X157611486Y-102115000D01*
X157869405Y-102063696D01*
X158112359Y-101963061D01*
X158331013Y-101816962D01*
X158340001Y-101807974D01*
X158340000Y-103972025D01*
X158331013Y-103963038D01*
X158112359Y-103816939D01*
X157869405Y-103716304D01*
X157611486Y-103665000D01*
X157348514Y-103665000D01*
X157090595Y-103716304D01*
X156847641Y-103816939D01*
X156628987Y-103963038D01*
X156443038Y-104148987D01*
X156296939Y-104367641D01*
X156196304Y-104610595D01*
X156145000Y-104868514D01*
X156145000Y-105131486D01*
X156196304Y-105389405D01*
X156296939Y-105632359D01*
X156443038Y-105851013D01*
X156628987Y-106036962D01*
X156847641Y-106183061D01*
X157057530Y-106270000D01*
X156847641Y-106356939D01*
X156628987Y-106503038D01*
X156443038Y-106688987D01*
X156296939Y-106907641D01*
X156196304Y-107150595D01*
X156145000Y-107408514D01*
X156145000Y-107671486D01*
X156196304Y-107929405D01*
X156296939Y-108172359D01*
X156443038Y-108391013D01*
X156628987Y-108576962D01*
X156847641Y-108723061D01*
X157057530Y-108810000D01*
X156847641Y-108896939D01*
X156628987Y-109043038D01*
X156443038Y-109228987D01*
X156296939Y-109447641D01*
X156196304Y-109690595D01*
X156145000Y-109948514D01*
X156145000Y-110211486D01*
X156196304Y-110469405D01*
X156296939Y-110712359D01*
X156443038Y-110931013D01*
X156628987Y-111116962D01*
X156847641Y-111263061D01*
X157057530Y-111350000D01*
X156847641Y-111436939D01*
X156628987Y-111583038D01*
X156443038Y-111768987D01*
X156296939Y-111987641D01*
X156196304Y-112230595D01*
X156145000Y-112488514D01*
X156145000Y-112751486D01*
X156196304Y-113009405D01*
X156296939Y-113252359D01*
X156443038Y-113471013D01*
X156628987Y-113656962D01*
X156847641Y-113803061D01*
X157057530Y-113890000D01*
X156847641Y-113976939D01*
X156628987Y-114123038D01*
X156443038Y-114308987D01*
X156296939Y-114527641D01*
X156196304Y-114770595D01*
X156145000Y-115028514D01*
X156145000Y-115291486D01*
X156196304Y-115549405D01*
X156296939Y-115792359D01*
X156443038Y-116011013D01*
X156628987Y-116196962D01*
X156847641Y-116343061D01*
X157057530Y-116430000D01*
X156847641Y-116516939D01*
X156628987Y-116663038D01*
X156443038Y-116848987D01*
X156296939Y-117067641D01*
X156196304Y-117310595D01*
X156145000Y-117568514D01*
X156145000Y-117831486D01*
X156196304Y-118089405D01*
X156296939Y-118332359D01*
X156443038Y-118551013D01*
X156628987Y-118736962D01*
X156847641Y-118883061D01*
X157057530Y-118970000D01*
X156847641Y-119056939D01*
X156628987Y-119203038D01*
X156443038Y-119388987D01*
X156296939Y-119607641D01*
X156196304Y-119850595D01*
X156145000Y-120108514D01*
X156145000Y-120371486D01*
X156196304Y-120629405D01*
X156296939Y-120872359D01*
X156443038Y-121091013D01*
X156628987Y-121276962D01*
X156847641Y-121423061D01*
X157057530Y-121510000D01*
X156847641Y-121596939D01*
X156628987Y-121743038D01*
X156443038Y-121928987D01*
X156296939Y-122147641D01*
X156196304Y-122390595D01*
X156145000Y-122648514D01*
X156145000Y-122911486D01*
X156196304Y-123169405D01*
X156296939Y-123412359D01*
X156443038Y-123631013D01*
X156628987Y-123816962D01*
X156847641Y-123963061D01*
X157090595Y-124063696D01*
X157348514Y-124115000D01*
X157611486Y-124115000D01*
X157869405Y-124063696D01*
X158112359Y-123963061D01*
X158331013Y-123816962D01*
X158340000Y-123807975D01*
X158340000Y-127726619D01*
X158131450Y-127935169D01*
X158185000Y-127665958D01*
X158185000Y-127334042D01*
X158120246Y-127008504D01*
X157993228Y-126701853D01*
X157808825Y-126425875D01*
X157574125Y-126191175D01*
X157298147Y-126006772D01*
X156991496Y-125879754D01*
X156665958Y-125815000D01*
X156334042Y-125815000D01*
X156008504Y-125879754D01*
X155701853Y-126006772D01*
X155425875Y-126191175D01*
X155191175Y-126425875D01*
X155006772Y-126701853D01*
X154879754Y-127008504D01*
X154815000Y-127334042D01*
X154815000Y-127665958D01*
X154879754Y-127991496D01*
X155006772Y-128298147D01*
X155191175Y-128574125D01*
X155425875Y-128808825D01*
X155701853Y-128993228D01*
X156008504Y-129120246D01*
X156334042Y-129185000D01*
X156665958Y-129185000D01*
X156935170Y-129131450D01*
X156726620Y-129340000D01*
X143273381Y-129340000D01*
X143064831Y-129131450D01*
X143334042Y-129185000D01*
X143665958Y-129185000D01*
X143991496Y-129120246D01*
X144298147Y-128993228D01*
X144574125Y-128808825D01*
X144808825Y-128574125D01*
X144993228Y-128298147D01*
X145120246Y-127991496D01*
X145185000Y-127665958D01*
X145185000Y-127334042D01*
X145120246Y-127008504D01*
X145074015Y-126896891D01*
X146018519Y-126896891D01*
X146115843Y-127171252D01*
X146264822Y-127421355D01*
X146459731Y-127637588D01*
X146693080Y-127811641D01*
X146955901Y-127936825D01*
X147103110Y-127981476D01*
X147333000Y-127860155D01*
X147333000Y-126667000D01*
X146139186Y-126667000D01*
X146018519Y-126896891D01*
X145074015Y-126896891D01*
X144993228Y-126701853D01*
X144808825Y-126425875D01*
X144574125Y-126191175D01*
X144298147Y-126006772D01*
X143991496Y-125879754D01*
X143665958Y-125815000D01*
X143334042Y-125815000D01*
X143008504Y-125879754D01*
X142701853Y-126006772D01*
X142425875Y-126191175D01*
X142191175Y-126425875D01*
X142006772Y-126701853D01*
X141879754Y-127008504D01*
X141815000Y-127334042D01*
X141815000Y-127665958D01*
X141868550Y-127935170D01*
X141660000Y-127726620D01*
X141660000Y-124204749D01*
X141850595Y-124283696D01*
X142108514Y-124335000D01*
X142371486Y-124335000D01*
X142629405Y-124283696D01*
X142872359Y-124183061D01*
X143091013Y-124036962D01*
X143274235Y-123853740D01*
X145975000Y-123853740D01*
X145975000Y-124146260D01*
X146032068Y-124433158D01*
X146144010Y-124703411D01*
X146306525Y-124946632D01*
X146513368Y-125153475D01*
X146689406Y-125271100D01*
X146459731Y-125442412D01*
X146264822Y-125658645D01*
X146115843Y-125908748D01*
X146018519Y-126183109D01*
X146139186Y-126413000D01*
X147333000Y-126413000D01*
X147333000Y-126393000D01*
X147587000Y-126393000D01*
X147587000Y-126413000D01*
X147607000Y-126413000D01*
X147607000Y-126667000D01*
X147587000Y-126667000D01*
X147587000Y-127860155D01*
X147816890Y-127981476D01*
X147964099Y-127936825D01*
X148226920Y-127811641D01*
X148460269Y-127637588D01*
X148655178Y-127421355D01*
X148724805Y-127304466D01*
X148846525Y-127486632D01*
X149053368Y-127693475D01*
X149296589Y-127855990D01*
X149566842Y-127967932D01*
X149853740Y-128025000D01*
X150146260Y-128025000D01*
X150433158Y-127967932D01*
X150703411Y-127855990D01*
X150946632Y-127693475D01*
X151153475Y-127486632D01*
X151270000Y-127312240D01*
X151386525Y-127486632D01*
X151593368Y-127693475D01*
X151836589Y-127855990D01*
X152106842Y-127967932D01*
X152393740Y-128025000D01*
X152686260Y-128025000D01*
X152973158Y-127967932D01*
X153243411Y-127855990D01*
X153486632Y-127693475D01*
X153693475Y-127486632D01*
X153855990Y-127243411D01*
X153967932Y-126973158D01*
X154025000Y-126686260D01*
X154025000Y-126393740D01*
X153967932Y-126106842D01*
X153855990Y-125836589D01*
X153693475Y-125593368D01*
X153561620Y-125461513D01*
X153634180Y-125439502D01*
X153744494Y-125380537D01*
X153841185Y-125301185D01*
X153920537Y-125204494D01*
X153979502Y-125094180D01*
X154015812Y-124974482D01*
X154028072Y-124850000D01*
X154028072Y-123150000D01*
X154015812Y-123025518D01*
X153979502Y-122905820D01*
X153920537Y-122795506D01*
X153841185Y-122698815D01*
X153744494Y-122619463D01*
X153634180Y-122560498D01*
X153514482Y-122524188D01*
X153390000Y-122511928D01*
X151690000Y-122511928D01*
X151565518Y-122524188D01*
X151454366Y-122557905D01*
X151540704Y-122380429D01*
X151622384Y-122068892D01*
X151641718Y-121747405D01*
X151597961Y-121428325D01*
X151492795Y-121123912D01*
X151448165Y-121040413D01*
X152854192Y-121040413D01*
X152949956Y-121304814D01*
X153239571Y-121445704D01*
X153551108Y-121527384D01*
X153872595Y-121546718D01*
X154191675Y-121502961D01*
X154496088Y-121397795D01*
X154670044Y-121304814D01*
X154765808Y-121040413D01*
X153810000Y-120084605D01*
X152854192Y-121040413D01*
X151448165Y-121040413D01*
X151399814Y-120949956D01*
X151135413Y-120854192D01*
X150179605Y-121810000D01*
X150193748Y-121824143D01*
X150014143Y-122003748D01*
X150000000Y-121989605D01*
X149311963Y-122677642D01*
X149296589Y-122684010D01*
X149053368Y-122846525D01*
X148846525Y-123053368D01*
X148730000Y-123227760D01*
X148613475Y-123053368D01*
X148406632Y-122846525D01*
X148163411Y-122684010D01*
X147893158Y-122572068D01*
X147606260Y-122515000D01*
X147313740Y-122515000D01*
X147026842Y-122572068D01*
X146756589Y-122684010D01*
X146513368Y-122846525D01*
X146306525Y-123053368D01*
X146144010Y-123296589D01*
X146032068Y-123566842D01*
X145975000Y-123853740D01*
X143274235Y-123853740D01*
X143276962Y-123851013D01*
X143423061Y-123632359D01*
X143523696Y-123389405D01*
X143575000Y-123131486D01*
X143575000Y-122868514D01*
X143523696Y-122610595D01*
X143423061Y-122367641D01*
X143276962Y-122148987D01*
X143091013Y-121963038D01*
X142955655Y-121872595D01*
X148358282Y-121872595D01*
X148402039Y-122191675D01*
X148507205Y-122496088D01*
X148600186Y-122670044D01*
X148864587Y-122765808D01*
X149820395Y-121810000D01*
X148864587Y-120854192D01*
X148600186Y-120949956D01*
X148459296Y-121239571D01*
X148377616Y-121551108D01*
X148358282Y-121872595D01*
X142955655Y-121872595D01*
X142872359Y-121816939D01*
X142662470Y-121730000D01*
X142872359Y-121643061D01*
X143091013Y-121496962D01*
X143276962Y-121311013D01*
X143423061Y-121092359D01*
X143444577Y-121040413D01*
X145234192Y-121040413D01*
X145329956Y-121304814D01*
X145619571Y-121445704D01*
X145931108Y-121527384D01*
X146252595Y-121546718D01*
X146571675Y-121502961D01*
X146876088Y-121397795D01*
X147050044Y-121304814D01*
X147145808Y-121040413D01*
X146190000Y-120084605D01*
X145234192Y-121040413D01*
X143444577Y-121040413D01*
X143523696Y-120849405D01*
X143575000Y-120591486D01*
X143575000Y-120328514D01*
X143523696Y-120070595D01*
X143481032Y-119967595D01*
X144548282Y-119967595D01*
X144592039Y-120286675D01*
X144697205Y-120591088D01*
X144790186Y-120765044D01*
X145054587Y-120860808D01*
X146010395Y-119905000D01*
X145054587Y-118949192D01*
X144790186Y-119044956D01*
X144649296Y-119334571D01*
X144567616Y-119646108D01*
X144548282Y-119967595D01*
X143481032Y-119967595D01*
X143423061Y-119827641D01*
X143276962Y-119608987D01*
X143091013Y-119423038D01*
X142872359Y-119276939D01*
X142662470Y-119190000D01*
X142872359Y-119103061D01*
X143091013Y-118956962D01*
X143276962Y-118771013D01*
X143277914Y-118769587D01*
X145234192Y-118769587D01*
X146190000Y-119725395D01*
X147145808Y-118769587D01*
X147050044Y-118505186D01*
X146760429Y-118364296D01*
X146448892Y-118282616D01*
X146127405Y-118263282D01*
X145808325Y-118307039D01*
X145503912Y-118412205D01*
X145329956Y-118505186D01*
X145234192Y-118769587D01*
X143277914Y-118769587D01*
X143423061Y-118552359D01*
X143523696Y-118309405D01*
X143575000Y-118051486D01*
X143575000Y-117788514D01*
X143523696Y-117530595D01*
X143423061Y-117287641D01*
X143384823Y-117230413D01*
X145234192Y-117230413D01*
X145329956Y-117494814D01*
X145619571Y-117635704D01*
X145931108Y-117717384D01*
X146252595Y-117736718D01*
X146571675Y-117692961D01*
X146876088Y-117587795D01*
X147050044Y-117494814D01*
X147145808Y-117230413D01*
X146190000Y-116274605D01*
X145234192Y-117230413D01*
X143384823Y-117230413D01*
X143276962Y-117068987D01*
X143091013Y-116883038D01*
X142872359Y-116736939D01*
X142662470Y-116650000D01*
X142872359Y-116563061D01*
X143091013Y-116416962D01*
X143276962Y-116231013D01*
X143326018Y-116157595D01*
X144548282Y-116157595D01*
X144592039Y-116476675D01*
X144697205Y-116781088D01*
X144790186Y-116955044D01*
X145054587Y-117050808D01*
X146010395Y-116095000D01*
X146369605Y-116095000D01*
X147325413Y-117050808D01*
X147568860Y-116962633D01*
X147545062Y-117008105D01*
X147398725Y-117506098D01*
X147352352Y-118023071D01*
X147407727Y-118539159D01*
X147562721Y-119034526D01*
X147563130Y-119035291D01*
X147325413Y-118949192D01*
X146369605Y-119905000D01*
X147325413Y-120860808D01*
X147589814Y-120765044D01*
X147730704Y-120475429D01*
X147812384Y-120163892D01*
X147831411Y-119847499D01*
X148332106Y-119847499D01*
X148548228Y-120214258D01*
X149008105Y-120454938D01*
X149112623Y-120485651D01*
X149044192Y-120674587D01*
X150000000Y-121630395D01*
X150955808Y-120674587D01*
X150886619Y-120483557D01*
X151034526Y-120437279D01*
X151451772Y-120214258D01*
X151667894Y-119847499D01*
X150000000Y-118179605D01*
X148332106Y-119847499D01*
X147831411Y-119847499D01*
X147831718Y-119842405D01*
X147787961Y-119523325D01*
X147722121Y-119332744D01*
X147785742Y-119451772D01*
X148152501Y-119667894D01*
X149820395Y-118000000D01*
X150179605Y-118000000D01*
X151847499Y-119667894D01*
X152214258Y-119451772D01*
X152262972Y-119358693D01*
X152187616Y-119646108D01*
X152168282Y-119967595D01*
X152212039Y-120286675D01*
X152317205Y-120591088D01*
X152410186Y-120765044D01*
X152674587Y-120860808D01*
X153630395Y-119905000D01*
X153989605Y-119905000D01*
X154945413Y-120860808D01*
X155209814Y-120765044D01*
X155350704Y-120475429D01*
X155432384Y-120163892D01*
X155451718Y-119842405D01*
X155407961Y-119523325D01*
X155302795Y-119218912D01*
X155209814Y-119044956D01*
X154945413Y-118949192D01*
X153989605Y-119905000D01*
X153630395Y-119905000D01*
X152674587Y-118949192D01*
X152431140Y-119037367D01*
X152454938Y-118991895D01*
X152520263Y-118769587D01*
X152854192Y-118769587D01*
X153810000Y-119725395D01*
X154765808Y-118769587D01*
X154670044Y-118505186D01*
X154380429Y-118364296D01*
X154068892Y-118282616D01*
X153747405Y-118263282D01*
X153428325Y-118307039D01*
X153123912Y-118412205D01*
X152949956Y-118505186D01*
X152854192Y-118769587D01*
X152520263Y-118769587D01*
X152601275Y-118493902D01*
X152647648Y-117976929D01*
X152592273Y-117460841D01*
X152520176Y-117230413D01*
X152854192Y-117230413D01*
X152949956Y-117494814D01*
X153239571Y-117635704D01*
X153551108Y-117717384D01*
X153872595Y-117736718D01*
X154191675Y-117692961D01*
X154496088Y-117587795D01*
X154670044Y-117494814D01*
X154765808Y-117230413D01*
X153810000Y-116274605D01*
X152854192Y-117230413D01*
X152520176Y-117230413D01*
X152437279Y-116965474D01*
X152436870Y-116964709D01*
X152674587Y-117050808D01*
X153630395Y-116095000D01*
X153989605Y-116095000D01*
X154945413Y-117050808D01*
X155209814Y-116955044D01*
X155350704Y-116665429D01*
X155432384Y-116353892D01*
X155451718Y-116032405D01*
X155407961Y-115713325D01*
X155302795Y-115408912D01*
X155209814Y-115234956D01*
X154945413Y-115139192D01*
X153989605Y-116095000D01*
X153630395Y-116095000D01*
X152674587Y-115139192D01*
X152410186Y-115234956D01*
X152269296Y-115524571D01*
X152187616Y-115836108D01*
X152168282Y-116157595D01*
X152212039Y-116476675D01*
X152277879Y-116667256D01*
X152214258Y-116548228D01*
X151847499Y-116332106D01*
X150179605Y-118000000D01*
X149820395Y-118000000D01*
X148152501Y-116332106D01*
X147785742Y-116548228D01*
X147737028Y-116641307D01*
X147812384Y-116353892D01*
X147831718Y-116032405D01*
X147787961Y-115713325D01*
X147682795Y-115408912D01*
X147589814Y-115234956D01*
X147325413Y-115139192D01*
X146369605Y-116095000D01*
X146010395Y-116095000D01*
X145054587Y-115139192D01*
X144790186Y-115234956D01*
X144649296Y-115524571D01*
X144567616Y-115836108D01*
X144548282Y-116157595D01*
X143326018Y-116157595D01*
X143423061Y-116012359D01*
X143523696Y-115769405D01*
X143575000Y-115511486D01*
X143575000Y-115248514D01*
X143523696Y-114990595D01*
X143510853Y-114959587D01*
X145234192Y-114959587D01*
X146190000Y-115915395D01*
X147145808Y-114959587D01*
X147127092Y-114907911D01*
X147763159Y-114907911D01*
X147763159Y-115092089D01*
X147799091Y-115272729D01*
X147869573Y-115442889D01*
X147971897Y-115596028D01*
X148102131Y-115726262D01*
X148255270Y-115828586D01*
X148425430Y-115899068D01*
X148475571Y-115909042D01*
X148332106Y-116152501D01*
X150000000Y-117820395D01*
X151667894Y-116152501D01*
X151451772Y-115785742D01*
X150991895Y-115545062D01*
X150887377Y-115514349D01*
X150955808Y-115325413D01*
X150000000Y-114369605D01*
X149985858Y-114383748D01*
X149806253Y-114204143D01*
X149820395Y-114190000D01*
X150179605Y-114190000D01*
X151135413Y-115145808D01*
X151399814Y-115050044D01*
X151540704Y-114760429D01*
X151595060Y-114553108D01*
X151623738Y-114596028D01*
X151753972Y-114726262D01*
X151907111Y-114828586D01*
X152077271Y-114899068D01*
X152257911Y-114935000D01*
X152442089Y-114935000D01*
X152622729Y-114899068D01*
X152792889Y-114828586D01*
X152936361Y-114732721D01*
X152854192Y-114959587D01*
X153810000Y-115915395D01*
X154765808Y-114959587D01*
X154670044Y-114695186D01*
X154380429Y-114554296D01*
X154068892Y-114472616D01*
X153747405Y-114453282D01*
X153428325Y-114497039D01*
X153123912Y-114602205D01*
X153008277Y-114664013D01*
X153076262Y-114596028D01*
X153178586Y-114442889D01*
X153249068Y-114272729D01*
X153285000Y-114092089D01*
X153285000Y-113907911D01*
X153249068Y-113727271D01*
X153178586Y-113557111D01*
X153076262Y-113403972D01*
X152946028Y-113273738D01*
X152792889Y-113171414D01*
X152622729Y-113100932D01*
X152442089Y-113065000D01*
X152257911Y-113065000D01*
X152077271Y-113100932D01*
X151907111Y-113171414D01*
X151753972Y-113273738D01*
X151623738Y-113403972D01*
X151521414Y-113557111D01*
X151515831Y-113570591D01*
X151492795Y-113503912D01*
X151399814Y-113329956D01*
X151135413Y-113234192D01*
X150179605Y-114190000D01*
X149820395Y-114190000D01*
X148864587Y-113234192D01*
X148600186Y-113329956D01*
X148459296Y-113619571D01*
X148377616Y-113931108D01*
X148365921Y-114125581D01*
X148255270Y-114171414D01*
X148102131Y-114273738D01*
X147971897Y-114403972D01*
X147869573Y-114557111D01*
X147799091Y-114727271D01*
X147763159Y-114907911D01*
X147127092Y-114907911D01*
X147050044Y-114695186D01*
X146760429Y-114554296D01*
X146448892Y-114472616D01*
X146127405Y-114453282D01*
X145808325Y-114497039D01*
X145503912Y-114602205D01*
X145329956Y-114695186D01*
X145234192Y-114959587D01*
X143510853Y-114959587D01*
X143423061Y-114747641D01*
X143276962Y-114528987D01*
X143091013Y-114343038D01*
X142872359Y-114196939D01*
X142662470Y-114110000D01*
X142872359Y-114023061D01*
X143091013Y-113876962D01*
X143276962Y-113691013D01*
X143423061Y-113472359D01*
X143523696Y-113229405D01*
X143558469Y-113054587D01*
X149044192Y-113054587D01*
X150000000Y-114010395D01*
X150955808Y-113054587D01*
X150860044Y-112790186D01*
X150690919Y-112707911D01*
X153865000Y-112707911D01*
X153865000Y-112892089D01*
X153900932Y-113072729D01*
X153971414Y-113242889D01*
X154073738Y-113396028D01*
X154203972Y-113526262D01*
X154357111Y-113628586D01*
X154527271Y-113699068D01*
X154707911Y-113735000D01*
X154892089Y-113735000D01*
X155072729Y-113699068D01*
X155242889Y-113628586D01*
X155396028Y-113526262D01*
X155526262Y-113396028D01*
X155628586Y-113242889D01*
X155699068Y-113072729D01*
X155735000Y-112892089D01*
X155735000Y-112707911D01*
X155699068Y-112527271D01*
X155628586Y-112357111D01*
X155526262Y-112203972D01*
X155396028Y-112073738D01*
X155242889Y-111971414D01*
X155072729Y-111900932D01*
X154892089Y-111865000D01*
X154707911Y-111865000D01*
X154527271Y-111900932D01*
X154357111Y-111971414D01*
X154203972Y-112073738D01*
X154073738Y-112203972D01*
X153971414Y-112357111D01*
X153900932Y-112527271D01*
X153865000Y-112707911D01*
X150690919Y-112707911D01*
X150570429Y-112649296D01*
X150258892Y-112567616D01*
X149937405Y-112548282D01*
X149618325Y-112592039D01*
X149313912Y-112697205D01*
X149139956Y-112790186D01*
X149044192Y-113054587D01*
X143558469Y-113054587D01*
X143575000Y-112971486D01*
X143575000Y-112708514D01*
X143523696Y-112450595D01*
X143423061Y-112207641D01*
X143276962Y-111988987D01*
X143209886Y-111921911D01*
X144035500Y-111921911D01*
X144035500Y-112106089D01*
X144071432Y-112286729D01*
X144141914Y-112456889D01*
X144244238Y-112610028D01*
X144374472Y-112740262D01*
X144527611Y-112842586D01*
X144697771Y-112913068D01*
X144878411Y-112949000D01*
X145062589Y-112949000D01*
X145243229Y-112913068D01*
X145413389Y-112842586D01*
X145566528Y-112740262D01*
X145696762Y-112610028D01*
X145799086Y-112456889D01*
X145869568Y-112286729D01*
X145905500Y-112106089D01*
X145905500Y-111921911D01*
X145869568Y-111741271D01*
X145799086Y-111571111D01*
X145696762Y-111417972D01*
X145566528Y-111287738D01*
X145413389Y-111185414D01*
X145243229Y-111114932D01*
X145062589Y-111079000D01*
X144878411Y-111079000D01*
X144697771Y-111114932D01*
X144527611Y-111185414D01*
X144374472Y-111287738D01*
X144244238Y-111417972D01*
X144141914Y-111571111D01*
X144071432Y-111741271D01*
X144035500Y-111921911D01*
X143209886Y-111921911D01*
X143091013Y-111803038D01*
X142872359Y-111656939D01*
X142662470Y-111570000D01*
X142872359Y-111483061D01*
X143091013Y-111336962D01*
X143276962Y-111151013D01*
X143423061Y-110932359D01*
X143523696Y-110689405D01*
X143575000Y-110431486D01*
X143575000Y-110168514D01*
X143523696Y-109910595D01*
X143423061Y-109667641D01*
X143276962Y-109448987D01*
X143091013Y-109263038D01*
X142872359Y-109116939D01*
X142662470Y-109030000D01*
X142872359Y-108943061D01*
X143091013Y-108796962D01*
X143276962Y-108611013D01*
X143423061Y-108392359D01*
X143523696Y-108149405D01*
X143575000Y-107891486D01*
X143575000Y-107628514D01*
X143523696Y-107370595D01*
X143423061Y-107127641D01*
X143276962Y-106908987D01*
X143091013Y-106723038D01*
X142872359Y-106576939D01*
X142662470Y-106490000D01*
X142872359Y-106403061D01*
X143091013Y-106256962D01*
X143276962Y-106071013D01*
X143423061Y-105852359D01*
X143523696Y-105609405D01*
X143575000Y-105351486D01*
X143575000Y-105088514D01*
X143523696Y-104830595D01*
X143423061Y-104587641D01*
X143276962Y-104368987D01*
X143091013Y-104183038D01*
X142872359Y-104036939D01*
X142629405Y-103936304D01*
X142371486Y-103885000D01*
X142108514Y-103885000D01*
X141850595Y-103936304D01*
X141660000Y-104015251D01*
X141660000Y-102204749D01*
X141850595Y-102283696D01*
X142108514Y-102335000D01*
X142371486Y-102335000D01*
X142629405Y-102283696D01*
X142872359Y-102183061D01*
X143091013Y-102036962D01*
X143276962Y-101851013D01*
X143423061Y-101632359D01*
X143523696Y-101389405D01*
X143575000Y-101131486D01*
X143575000Y-100868514D01*
X143523696Y-100610595D01*
X143423061Y-100367641D01*
X143276962Y-100148987D01*
X143091013Y-99963038D01*
X142872359Y-99816939D01*
X142662470Y-99730000D01*
X142872359Y-99643061D01*
X143091013Y-99496962D01*
X143276962Y-99311013D01*
X143423061Y-99092359D01*
X143523696Y-98849405D01*
X143575000Y-98591486D01*
X143575000Y-98433967D01*
X144555000Y-98433967D01*
X144555000Y-98756033D01*
X144617832Y-99071912D01*
X144741082Y-99369463D01*
X144920013Y-99637252D01*
X145147748Y-99864987D01*
X145415537Y-100043918D01*
X145713088Y-100167168D01*
X146028967Y-100230000D01*
X146351033Y-100230000D01*
X146666912Y-100167168D01*
X146964463Y-100043918D01*
X147232252Y-99864987D01*
X147459987Y-99637252D01*
X147579094Y-99458996D01*
X147466261Y-99731399D01*
X147365000Y-100240475D01*
X147365000Y-100759525D01*
X147466261Y-101268601D01*
X147579094Y-101541004D01*
X147459987Y-101362748D01*
X147232252Y-101135013D01*
X146964463Y-100956082D01*
X146666912Y-100832832D01*
X146351033Y-100770000D01*
X146028967Y-100770000D01*
X145713088Y-100832832D01*
X145415537Y-100956082D01*
X145147748Y-101135013D01*
X144920013Y-101362748D01*
X144741082Y-101630537D01*
X144617832Y-101928088D01*
X144555000Y-102243967D01*
X144555000Y-102566033D01*
X144617832Y-102881912D01*
X144741082Y-103179463D01*
X144920013Y-103447252D01*
X145147748Y-103674987D01*
X145415537Y-103853918D01*
X145713088Y-103977168D01*
X146028967Y-104040000D01*
X146351033Y-104040000D01*
X146666912Y-103977168D01*
X146964463Y-103853918D01*
X147232252Y-103674987D01*
X147459987Y-103447252D01*
X147638918Y-103179463D01*
X147655264Y-103140000D01*
X148058895Y-103140000D01*
X148095000Y-103143556D01*
X148131105Y-103140000D01*
X148239085Y-103129365D01*
X148377633Y-103087337D01*
X148505320Y-103019087D01*
X148617238Y-102927238D01*
X148640258Y-102899188D01*
X148723373Y-102816073D01*
X148751859Y-102835107D01*
X149068266Y-102966167D01*
X148957748Y-103040013D01*
X148730013Y-103267748D01*
X148551082Y-103535537D01*
X148427832Y-103833088D01*
X148365000Y-104148967D01*
X148365000Y-104471033D01*
X148427832Y-104786912D01*
X148551082Y-105084463D01*
X148730013Y-105352252D01*
X148957748Y-105579987D01*
X149225537Y-105758918D01*
X149523088Y-105882168D01*
X149838967Y-105945000D01*
X150161033Y-105945000D01*
X150476912Y-105882168D01*
X150774463Y-105758918D01*
X151042252Y-105579987D01*
X151269987Y-105352252D01*
X151448918Y-105084463D01*
X151572168Y-104786912D01*
X151635000Y-104471033D01*
X151635000Y-104148967D01*
X151572168Y-103833088D01*
X151448918Y-103535537D01*
X151269987Y-103267748D01*
X151042252Y-103040013D01*
X150931734Y-102966167D01*
X151248141Y-102835107D01*
X151276627Y-102816074D01*
X151359746Y-102899193D01*
X151382762Y-102927238D01*
X151494680Y-103019087D01*
X151622367Y-103087337D01*
X151760915Y-103129365D01*
X151905000Y-103143556D01*
X151941105Y-103140000D01*
X152344736Y-103140000D01*
X152361082Y-103179463D01*
X152540013Y-103447252D01*
X152767748Y-103674987D01*
X153035537Y-103853918D01*
X153333088Y-103977168D01*
X153648967Y-104040000D01*
X153971033Y-104040000D01*
X154286912Y-103977168D01*
X154584463Y-103853918D01*
X154852252Y-103674987D01*
X155079987Y-103447252D01*
X155258918Y-103179463D01*
X155382168Y-102881912D01*
X155445000Y-102566033D01*
X155445000Y-102243967D01*
X155382168Y-101928088D01*
X155258918Y-101630537D01*
X155079987Y-101362748D01*
X154852252Y-101135013D01*
X154584463Y-100956082D01*
X154286912Y-100832832D01*
X153971033Y-100770000D01*
X153648967Y-100770000D01*
X153333088Y-100832832D01*
X153035537Y-100956082D01*
X152767748Y-101135013D01*
X152540013Y-101362748D01*
X152420906Y-101541004D01*
X152533739Y-101268601D01*
X152635000Y-100759525D01*
X152635000Y-100240475D01*
X152533739Y-99731399D01*
X152420906Y-99458996D01*
X152540013Y-99637252D01*
X152767748Y-99864987D01*
X153035537Y-100043918D01*
X153333088Y-100167168D01*
X153648967Y-100230000D01*
X153971033Y-100230000D01*
X154286912Y-100167168D01*
X154584463Y-100043918D01*
X154852252Y-99864987D01*
X155079987Y-99637252D01*
X155258918Y-99369463D01*
X155382168Y-99071912D01*
X155445000Y-98756033D01*
X155445000Y-98433967D01*
X155382168Y-98118088D01*
X155258918Y-97820537D01*
X155079987Y-97552748D01*
X154852252Y-97325013D01*
X154584463Y-97146082D01*
X154286912Y-97022832D01*
X153971033Y-96960000D01*
X153648967Y-96960000D01*
X153333088Y-97022832D01*
X153035537Y-97146082D01*
X152767748Y-97325013D01*
X152540013Y-97552748D01*
X152361082Y-97820537D01*
X152344736Y-97860000D01*
X151941105Y-97860000D01*
X151905000Y-97856444D01*
X151868895Y-97860000D01*
X151760915Y-97870635D01*
X151622367Y-97912663D01*
X151494680Y-97980913D01*
X151382762Y-98072762D01*
X151359746Y-98100807D01*
X151276627Y-98183926D01*
X151248141Y-98164893D01*
X150931734Y-98033833D01*
X151042252Y-97959987D01*
X151269987Y-97732252D01*
X151448918Y-97464463D01*
X151572168Y-97166912D01*
X151635000Y-96851033D01*
X151635000Y-96528967D01*
X151572168Y-96213088D01*
X151448918Y-95915537D01*
X151269987Y-95647748D01*
X151042252Y-95420013D01*
X150774463Y-95241082D01*
X150476912Y-95117832D01*
X150161033Y-95055000D01*
X149838967Y-95055000D01*
X149523088Y-95117832D01*
X149225537Y-95241082D01*
X148957748Y-95420013D01*
X148730013Y-95647748D01*
X148551082Y-95915537D01*
X148427832Y-96213088D01*
X148365000Y-96528967D01*
X148365000Y-96851033D01*
X148427832Y-97166912D01*
X148551082Y-97464463D01*
X148730013Y-97732252D01*
X148957748Y-97959987D01*
X149068266Y-98033833D01*
X148751859Y-98164893D01*
X148723373Y-98183927D01*
X148640258Y-98100812D01*
X148617238Y-98072762D01*
X148505320Y-97980913D01*
X148377633Y-97912663D01*
X148239085Y-97870635D01*
X148131105Y-97860000D01*
X148095000Y-97856444D01*
X148058895Y-97860000D01*
X147655264Y-97860000D01*
X147638918Y-97820537D01*
X147459987Y-97552748D01*
X147232252Y-97325013D01*
X146964463Y-97146082D01*
X146666912Y-97022832D01*
X146351033Y-96960000D01*
X146028967Y-96960000D01*
X145713088Y-97022832D01*
X145415537Y-97146082D01*
X145147748Y-97325013D01*
X144920013Y-97552748D01*
X144741082Y-97820537D01*
X144617832Y-98118088D01*
X144555000Y-98433967D01*
X143575000Y-98433967D01*
X143575000Y-98328514D01*
X143523696Y-98070595D01*
X143423061Y-97827641D01*
X143276962Y-97608987D01*
X143091013Y-97423038D01*
X142872359Y-97276939D01*
X142662470Y-97190000D01*
X142872359Y-97103061D01*
X143091013Y-96956962D01*
X143276962Y-96771013D01*
X143423061Y-96552359D01*
X143523696Y-96309405D01*
X143575000Y-96051486D01*
X143575000Y-95788514D01*
X143523696Y-95530595D01*
X143423061Y-95287641D01*
X143276962Y-95068987D01*
X143091013Y-94883038D01*
X142872359Y-94736939D01*
X142662470Y-94650000D01*
X142872359Y-94563061D01*
X143091013Y-94416962D01*
X143276962Y-94231013D01*
X143423061Y-94012359D01*
X143523696Y-93769405D01*
X143575000Y-93511486D01*
X143575000Y-93248514D01*
X143523696Y-92990595D01*
X143423061Y-92747641D01*
X143276962Y-92528987D01*
X143091013Y-92343038D01*
X142872359Y-92196939D01*
X142662470Y-92110000D01*
X142872359Y-92023061D01*
X143091013Y-91876962D01*
X143276962Y-91691013D01*
X143423061Y-91472359D01*
X143523696Y-91229405D01*
X143575000Y-90971486D01*
X143575000Y-90708514D01*
X143523696Y-90450595D01*
X143423061Y-90207641D01*
X143276962Y-89988987D01*
X143091013Y-89803038D01*
X142872359Y-89656939D01*
X142662470Y-89570000D01*
X142872359Y-89483061D01*
X143091013Y-89336962D01*
X143276962Y-89151013D01*
X143423061Y-88932359D01*
X143523696Y-88689405D01*
X143575000Y-88431486D01*
X143575000Y-88168514D01*
X143523696Y-87910595D01*
X143423061Y-87667641D01*
X143276962Y-87448987D01*
X143091013Y-87263038D01*
X142872359Y-87116939D01*
X142662470Y-87030000D01*
X142872359Y-86943061D01*
X143091013Y-86796962D01*
X143276962Y-86611013D01*
X143423061Y-86392359D01*
X143523696Y-86149405D01*
X143575000Y-85891486D01*
X143575000Y-85628514D01*
X143523696Y-85370595D01*
X143423061Y-85127641D01*
X143276962Y-84908987D01*
X143091013Y-84723038D01*
X142872359Y-84576939D01*
X142662470Y-84490000D01*
X142872359Y-84403061D01*
X143091013Y-84256962D01*
X143276962Y-84071013D01*
X143423061Y-83852359D01*
X143523696Y-83609405D01*
X143575000Y-83351486D01*
X143575000Y-83088514D01*
X143523696Y-82830595D01*
X143423061Y-82587641D01*
X143276962Y-82368987D01*
X143091013Y-82183038D01*
X142872359Y-82036939D01*
X142629405Y-81936304D01*
X142371486Y-81885000D01*
X142108514Y-81885000D01*
X141850595Y-81936304D01*
X141660000Y-82015251D01*
X141660000Y-80933967D01*
X144555000Y-80933967D01*
X144555000Y-81256033D01*
X144617832Y-81571912D01*
X144741082Y-81869463D01*
X144920013Y-82137252D01*
X145147748Y-82364987D01*
X145415537Y-82543918D01*
X145713088Y-82667168D01*
X146028967Y-82730000D01*
X146351033Y-82730000D01*
X146666912Y-82667168D01*
X146964463Y-82543918D01*
X147232252Y-82364987D01*
X147459987Y-82137252D01*
X147579094Y-81958996D01*
X147466261Y-82231399D01*
X147365000Y-82740475D01*
X147365000Y-83259525D01*
X147466261Y-83768601D01*
X147579094Y-84041004D01*
X147459987Y-83862748D01*
X147232252Y-83635013D01*
X146964463Y-83456082D01*
X146666912Y-83332832D01*
X146351033Y-83270000D01*
X146028967Y-83270000D01*
X145713088Y-83332832D01*
X145415537Y-83456082D01*
X145147748Y-83635013D01*
X144920013Y-83862748D01*
X144741082Y-84130537D01*
X144617832Y-84428088D01*
X144555000Y-84743967D01*
X144555000Y-85066033D01*
X144617832Y-85381912D01*
X144741082Y-85679463D01*
X144920013Y-85947252D01*
X145147748Y-86174987D01*
X145415537Y-86353918D01*
X145713088Y-86477168D01*
X146028967Y-86540000D01*
X146351033Y-86540000D01*
X146666912Y-86477168D01*
X146964463Y-86353918D01*
X147232252Y-86174987D01*
X147459987Y-85947252D01*
X147638918Y-85679463D01*
X147655264Y-85640000D01*
X148058895Y-85640000D01*
X148095000Y-85643556D01*
X148131105Y-85640000D01*
X148239085Y-85629365D01*
X148377633Y-85587337D01*
X148505320Y-85519087D01*
X148617238Y-85427238D01*
X148640258Y-85399188D01*
X148723373Y-85316073D01*
X148751859Y-85335107D01*
X149068266Y-85466167D01*
X148957748Y-85540013D01*
X148730013Y-85767748D01*
X148551082Y-86035537D01*
X148427832Y-86333088D01*
X148365000Y-86648967D01*
X148365000Y-86971033D01*
X148427832Y-87286912D01*
X148551082Y-87584463D01*
X148730013Y-87852252D01*
X148957748Y-88079987D01*
X149225537Y-88258918D01*
X149523088Y-88382168D01*
X149838967Y-88445000D01*
X150161033Y-88445000D01*
X150476912Y-88382168D01*
X150774463Y-88258918D01*
X151042252Y-88079987D01*
X151269987Y-87852252D01*
X151448918Y-87584463D01*
X151572168Y-87286912D01*
X151635000Y-86971033D01*
X151635000Y-86648967D01*
X151572168Y-86333088D01*
X151448918Y-86035537D01*
X151269987Y-85767748D01*
X151042252Y-85540013D01*
X150931734Y-85466167D01*
X151248141Y-85335107D01*
X151276627Y-85316074D01*
X151359746Y-85399193D01*
X151382762Y-85427238D01*
X151494680Y-85519087D01*
X151622367Y-85587337D01*
X151758110Y-85628514D01*
X151760915Y-85629365D01*
X151905000Y-85643556D01*
X151941105Y-85640000D01*
X152344736Y-85640000D01*
X152361082Y-85679463D01*
X152540013Y-85947252D01*
X152767748Y-86174987D01*
X153035537Y-86353918D01*
X153333088Y-86477168D01*
X153648967Y-86540000D01*
X153971033Y-86540000D01*
X154286912Y-86477168D01*
X154584463Y-86353918D01*
X154852252Y-86174987D01*
X155079987Y-85947252D01*
X155258918Y-85679463D01*
X155382168Y-85381912D01*
X155445000Y-85066033D01*
X155445000Y-84743967D01*
X155382168Y-84428088D01*
X155258918Y-84130537D01*
X155079987Y-83862748D01*
X154852252Y-83635013D01*
X154584463Y-83456082D01*
X154286912Y-83332832D01*
X153971033Y-83270000D01*
X153648967Y-83270000D01*
X153333088Y-83332832D01*
X153035537Y-83456082D01*
X152767748Y-83635013D01*
X152540013Y-83862748D01*
X152420906Y-84041004D01*
X152533739Y-83768601D01*
X152635000Y-83259525D01*
X152635000Y-82740475D01*
X152533739Y-82231399D01*
X152420906Y-81958996D01*
X152540013Y-82137252D01*
X152767748Y-82364987D01*
X153035537Y-82543918D01*
X153333088Y-82667168D01*
X153648967Y-82730000D01*
X153971033Y-82730000D01*
X154286912Y-82667168D01*
X154584463Y-82543918D01*
X154852252Y-82364987D01*
X155079987Y-82137252D01*
X155258918Y-81869463D01*
X155382168Y-81571912D01*
X155445000Y-81256033D01*
X155445000Y-80933967D01*
X155382168Y-80618088D01*
X155258918Y-80320537D01*
X155079987Y-80052748D01*
X154852252Y-79825013D01*
X154584463Y-79646082D01*
X154286912Y-79522832D01*
X153971033Y-79460000D01*
X153648967Y-79460000D01*
X153333088Y-79522832D01*
X153035537Y-79646082D01*
X152767748Y-79825013D01*
X152540013Y-80052748D01*
X152361082Y-80320537D01*
X152344736Y-80360000D01*
X151941105Y-80360000D01*
X151905000Y-80356444D01*
X151868895Y-80360000D01*
X151760915Y-80370635D01*
X151622367Y-80412663D01*
X151494680Y-80480913D01*
X151382762Y-80572762D01*
X151359746Y-80600807D01*
X151276627Y-80683926D01*
X151248141Y-80664893D01*
X150931734Y-80533833D01*
X151042252Y-80459987D01*
X151269987Y-80232252D01*
X151448918Y-79964463D01*
X151572168Y-79666912D01*
X151635000Y-79351033D01*
X151635000Y-79028967D01*
X151572168Y-78713088D01*
X151448918Y-78415537D01*
X151269987Y-78147748D01*
X151042252Y-77920013D01*
X150774463Y-77741082D01*
X150476912Y-77617832D01*
X150161033Y-77555000D01*
X149838967Y-77555000D01*
X149523088Y-77617832D01*
X149225537Y-77741082D01*
X148957748Y-77920013D01*
X148730013Y-78147748D01*
X148551082Y-78415537D01*
X148427832Y-78713088D01*
X148365000Y-79028967D01*
X148365000Y-79351033D01*
X148427832Y-79666912D01*
X148551082Y-79964463D01*
X148730013Y-80232252D01*
X148957748Y-80459987D01*
X149068266Y-80533833D01*
X148751859Y-80664893D01*
X148723373Y-80683927D01*
X148640258Y-80600812D01*
X148617238Y-80572762D01*
X148505320Y-80480913D01*
X148377633Y-80412663D01*
X148239085Y-80370635D01*
X148131105Y-80360000D01*
X148095000Y-80356444D01*
X148058895Y-80360000D01*
X147655264Y-80360000D01*
X147638918Y-80320537D01*
X147459987Y-80052748D01*
X147232252Y-79825013D01*
X146964463Y-79646082D01*
X146666912Y-79522832D01*
X146351033Y-79460000D01*
X146028967Y-79460000D01*
X145713088Y-79522832D01*
X145415537Y-79646082D01*
X145147748Y-79825013D01*
X144920013Y-80052748D01*
X144741082Y-80320537D01*
X144617832Y-80618088D01*
X144555000Y-80933967D01*
X141660000Y-80933967D01*
X141660000Y-78273380D01*
X141868550Y-78064830D01*
X141815000Y-78334042D01*
X141815000Y-78665958D01*
X141879754Y-78991496D01*
X142006772Y-79298147D01*
X142191175Y-79574125D01*
X142425875Y-79808825D01*
X142701853Y-79993228D01*
X143008504Y-80120246D01*
X143334042Y-80185000D01*
X143665958Y-80185000D01*
X143991496Y-80120246D01*
X144298147Y-79993228D01*
X144574125Y-79808825D01*
X144808825Y-79574125D01*
X144993228Y-79298147D01*
X145120246Y-78991496D01*
X145185000Y-78665958D01*
X145185000Y-78334042D01*
X145120246Y-78008504D01*
X144993228Y-77701853D01*
X144808825Y-77425875D01*
X144574125Y-77191175D01*
X144298147Y-77006772D01*
X143991496Y-76879754D01*
X143665958Y-76815000D01*
X143334042Y-76815000D01*
X143064831Y-76868550D01*
X143273381Y-76660000D01*
X156726620Y-76660000D01*
X156935170Y-76868550D01*
G37*
X156935170Y-76868550D02*
X156665958Y-76815000D01*
X156334042Y-76815000D01*
X156008504Y-76879754D01*
X155701853Y-77006772D01*
X155425875Y-77191175D01*
X155191175Y-77425875D01*
X155006772Y-77701853D01*
X154879754Y-78008504D01*
X154815000Y-78334042D01*
X154815000Y-78665958D01*
X154879754Y-78991496D01*
X155006772Y-79298147D01*
X155191175Y-79574125D01*
X155425875Y-79808825D01*
X155701853Y-79993228D01*
X156008504Y-80120246D01*
X156334042Y-80185000D01*
X156665958Y-80185000D01*
X156991496Y-80120246D01*
X157298147Y-79993228D01*
X157574125Y-79808825D01*
X157808825Y-79574125D01*
X157993228Y-79298147D01*
X158120246Y-78991496D01*
X158185000Y-78665958D01*
X158185000Y-78334042D01*
X158131450Y-78064831D01*
X158340001Y-78273382D01*
X158340001Y-81972026D01*
X158331013Y-81963038D01*
X158112359Y-81816939D01*
X157869405Y-81716304D01*
X157611486Y-81665000D01*
X157348514Y-81665000D01*
X157090595Y-81716304D01*
X156847641Y-81816939D01*
X156628987Y-81963038D01*
X156443038Y-82148987D01*
X156296939Y-82367641D01*
X156196304Y-82610595D01*
X156145000Y-82868514D01*
X156145000Y-83131486D01*
X156196304Y-83389405D01*
X156296939Y-83632359D01*
X156443038Y-83851013D01*
X156628987Y-84036962D01*
X156847641Y-84183061D01*
X157057530Y-84270000D01*
X156847641Y-84356939D01*
X156628987Y-84503038D01*
X156443038Y-84688987D01*
X156296939Y-84907641D01*
X156196304Y-85150595D01*
X156145000Y-85408514D01*
X156145000Y-85671486D01*
X156196304Y-85929405D01*
X156296939Y-86172359D01*
X156443038Y-86391013D01*
X156628987Y-86576962D01*
X156847641Y-86723061D01*
X157057530Y-86810000D01*
X156847641Y-86896939D01*
X156628987Y-87043038D01*
X156443038Y-87228987D01*
X156296939Y-87447641D01*
X156196304Y-87690595D01*
X156145000Y-87948514D01*
X156145000Y-88211486D01*
X156196304Y-88469405D01*
X156296939Y-88712359D01*
X156443038Y-88931013D01*
X156628987Y-89116962D01*
X156847641Y-89263061D01*
X157057530Y-89350000D01*
X156847641Y-89436939D01*
X156628987Y-89583038D01*
X156443038Y-89768987D01*
X156296939Y-89987641D01*
X156196304Y-90230595D01*
X156145000Y-90488514D01*
X156145000Y-90751486D01*
X156196304Y-91009405D01*
X156296939Y-91252359D01*
X156443038Y-91471013D01*
X156628987Y-91656962D01*
X156847641Y-91803061D01*
X157057530Y-91890000D01*
X156847641Y-91976939D01*
X156628987Y-92123038D01*
X156443038Y-92308987D01*
X156296939Y-92527641D01*
X156196304Y-92770595D01*
X156145000Y-93028514D01*
X156145000Y-93291486D01*
X156196304Y-93549405D01*
X156296939Y-93792359D01*
X156443038Y-94011013D01*
X156628987Y-94196962D01*
X156847641Y-94343061D01*
X157057530Y-94430000D01*
X156847641Y-94516939D01*
X156628987Y-94663038D01*
X156443038Y-94848987D01*
X156296939Y-95067641D01*
X156196304Y-95310595D01*
X156145000Y-95568514D01*
X156145000Y-95831486D01*
X156196304Y-96089405D01*
X156296939Y-96332359D01*
X156443038Y-96551013D01*
X156628987Y-96736962D01*
X156847641Y-96883061D01*
X157057530Y-96970000D01*
X156847641Y-97056939D01*
X156628987Y-97203038D01*
X156443038Y-97388987D01*
X156296939Y-97607641D01*
X156196304Y-97850595D01*
X156145000Y-98108514D01*
X156145000Y-98371486D01*
X156196304Y-98629405D01*
X156296939Y-98872359D01*
X156443038Y-99091013D01*
X156628987Y-99276962D01*
X156847641Y-99423061D01*
X157057530Y-99510000D01*
X156847641Y-99596939D01*
X156628987Y-99743038D01*
X156443038Y-99928987D01*
X156296939Y-100147641D01*
X156196304Y-100390595D01*
X156145000Y-100648514D01*
X156145000Y-100911486D01*
X156196304Y-101169405D01*
X156296939Y-101412359D01*
X156443038Y-101631013D01*
X156628987Y-101816962D01*
X156847641Y-101963061D01*
X157090595Y-102063696D01*
X157348514Y-102115000D01*
X157611486Y-102115000D01*
X157869405Y-102063696D01*
X158112359Y-101963061D01*
X158331013Y-101816962D01*
X158340001Y-101807974D01*
X158340000Y-103972025D01*
X158331013Y-103963038D01*
X158112359Y-103816939D01*
X157869405Y-103716304D01*
X157611486Y-103665000D01*
X157348514Y-103665000D01*
X157090595Y-103716304D01*
X156847641Y-103816939D01*
X156628987Y-103963038D01*
X156443038Y-104148987D01*
X156296939Y-104367641D01*
X156196304Y-104610595D01*
X156145000Y-104868514D01*
X156145000Y-105131486D01*
X156196304Y-105389405D01*
X156296939Y-105632359D01*
X156443038Y-105851013D01*
X156628987Y-106036962D01*
X156847641Y-106183061D01*
X157057530Y-106270000D01*
X156847641Y-106356939D01*
X156628987Y-106503038D01*
X156443038Y-106688987D01*
X156296939Y-106907641D01*
X156196304Y-107150595D01*
X156145000Y-107408514D01*
X156145000Y-107671486D01*
X156196304Y-107929405D01*
X156296939Y-108172359D01*
X156443038Y-108391013D01*
X156628987Y-108576962D01*
X156847641Y-108723061D01*
X157057530Y-108810000D01*
X156847641Y-108896939D01*
X156628987Y-109043038D01*
X156443038Y-109228987D01*
X156296939Y-109447641D01*
X156196304Y-109690595D01*
X156145000Y-109948514D01*
X156145000Y-110211486D01*
X156196304Y-110469405D01*
X156296939Y-110712359D01*
X156443038Y-110931013D01*
X156628987Y-111116962D01*
X156847641Y-111263061D01*
X157057530Y-111350000D01*
X156847641Y-111436939D01*
X156628987Y-111583038D01*
X156443038Y-111768987D01*
X156296939Y-111987641D01*
X156196304Y-112230595D01*
X156145000Y-112488514D01*
X156145000Y-112751486D01*
X156196304Y-113009405D01*
X156296939Y-113252359D01*
X156443038Y-113471013D01*
X156628987Y-113656962D01*
X156847641Y-113803061D01*
X157057530Y-113890000D01*
X156847641Y-113976939D01*
X156628987Y-114123038D01*
X156443038Y-114308987D01*
X156296939Y-114527641D01*
X156196304Y-114770595D01*
X156145000Y-115028514D01*
X156145000Y-115291486D01*
X156196304Y-115549405D01*
X156296939Y-115792359D01*
X156443038Y-116011013D01*
X156628987Y-116196962D01*
X156847641Y-116343061D01*
X157057530Y-116430000D01*
X156847641Y-116516939D01*
X156628987Y-116663038D01*
X156443038Y-116848987D01*
X156296939Y-117067641D01*
X156196304Y-117310595D01*
X156145000Y-117568514D01*
X156145000Y-117831486D01*
X156196304Y-118089405D01*
X156296939Y-118332359D01*
X156443038Y-118551013D01*
X156628987Y-118736962D01*
X156847641Y-118883061D01*
X157057530Y-118970000D01*
X156847641Y-119056939D01*
X156628987Y-119203038D01*
X156443038Y-119388987D01*
X156296939Y-119607641D01*
X156196304Y-119850595D01*
X156145000Y-120108514D01*
X156145000Y-120371486D01*
X156196304Y-120629405D01*
X156296939Y-120872359D01*
X156443038Y-121091013D01*
X156628987Y-121276962D01*
X156847641Y-121423061D01*
X157057530Y-121510000D01*
X156847641Y-121596939D01*
X156628987Y-121743038D01*
X156443038Y-121928987D01*
X156296939Y-122147641D01*
X156196304Y-122390595D01*
X156145000Y-122648514D01*
X156145000Y-122911486D01*
X156196304Y-123169405D01*
X156296939Y-123412359D01*
X156443038Y-123631013D01*
X156628987Y-123816962D01*
X156847641Y-123963061D01*
X157090595Y-124063696D01*
X157348514Y-124115000D01*
X157611486Y-124115000D01*
X157869405Y-124063696D01*
X158112359Y-123963061D01*
X158331013Y-123816962D01*
X158340000Y-123807975D01*
X158340000Y-127726619D01*
X158131450Y-127935169D01*
X158185000Y-127665958D01*
X158185000Y-127334042D01*
X158120246Y-127008504D01*
X157993228Y-126701853D01*
X157808825Y-126425875D01*
X157574125Y-126191175D01*
X157298147Y-126006772D01*
X156991496Y-125879754D01*
X156665958Y-125815000D01*
X156334042Y-125815000D01*
X156008504Y-125879754D01*
X155701853Y-126006772D01*
X155425875Y-126191175D01*
X155191175Y-126425875D01*
X155006772Y-126701853D01*
X154879754Y-127008504D01*
X154815000Y-127334042D01*
X154815000Y-127665958D01*
X154879754Y-127991496D01*
X155006772Y-128298147D01*
X155191175Y-128574125D01*
X155425875Y-128808825D01*
X155701853Y-128993228D01*
X156008504Y-129120246D01*
X156334042Y-129185000D01*
X156665958Y-129185000D01*
X156935170Y-129131450D01*
X156726620Y-129340000D01*
X143273381Y-129340000D01*
X143064831Y-129131450D01*
X143334042Y-129185000D01*
X143665958Y-129185000D01*
X143991496Y-129120246D01*
X144298147Y-128993228D01*
X144574125Y-128808825D01*
X144808825Y-128574125D01*
X144993228Y-128298147D01*
X145120246Y-127991496D01*
X145185000Y-127665958D01*
X145185000Y-127334042D01*
X145120246Y-127008504D01*
X145074015Y-126896891D01*
X146018519Y-126896891D01*
X146115843Y-127171252D01*
X146264822Y-127421355D01*
X146459731Y-127637588D01*
X146693080Y-127811641D01*
X146955901Y-127936825D01*
X147103110Y-127981476D01*
X147333000Y-127860155D01*
X147333000Y-126667000D01*
X146139186Y-126667000D01*
X146018519Y-126896891D01*
X145074015Y-126896891D01*
X144993228Y-126701853D01*
X144808825Y-126425875D01*
X144574125Y-126191175D01*
X144298147Y-126006772D01*
X143991496Y-125879754D01*
X143665958Y-125815000D01*
X143334042Y-125815000D01*
X143008504Y-125879754D01*
X142701853Y-126006772D01*
X142425875Y-126191175D01*
X142191175Y-126425875D01*
X142006772Y-126701853D01*
X141879754Y-127008504D01*
X141815000Y-127334042D01*
X141815000Y-127665958D01*
X141868550Y-127935170D01*
X141660000Y-127726620D01*
X141660000Y-124204749D01*
X141850595Y-124283696D01*
X142108514Y-124335000D01*
X142371486Y-124335000D01*
X142629405Y-124283696D01*
X142872359Y-124183061D01*
X143091013Y-124036962D01*
X143274235Y-123853740D01*
X145975000Y-123853740D01*
X145975000Y-124146260D01*
X146032068Y-124433158D01*
X146144010Y-124703411D01*
X146306525Y-124946632D01*
X146513368Y-125153475D01*
X146689406Y-125271100D01*
X146459731Y-125442412D01*
X146264822Y-125658645D01*
X146115843Y-125908748D01*
X146018519Y-126183109D01*
X146139186Y-126413000D01*
X147333000Y-126413000D01*
X147333000Y-126393000D01*
X147587000Y-126393000D01*
X147587000Y-126413000D01*
X147607000Y-126413000D01*
X147607000Y-126667000D01*
X147587000Y-126667000D01*
X147587000Y-127860155D01*
X147816890Y-127981476D01*
X147964099Y-127936825D01*
X148226920Y-127811641D01*
X148460269Y-127637588D01*
X148655178Y-127421355D01*
X148724805Y-127304466D01*
X148846525Y-127486632D01*
X149053368Y-127693475D01*
X149296589Y-127855990D01*
X149566842Y-127967932D01*
X149853740Y-128025000D01*
X150146260Y-128025000D01*
X150433158Y-127967932D01*
X150703411Y-127855990D01*
X150946632Y-127693475D01*
X151153475Y-127486632D01*
X151270000Y-127312240D01*
X151386525Y-127486632D01*
X151593368Y-127693475D01*
X151836589Y-127855990D01*
X152106842Y-127967932D01*
X152393740Y-128025000D01*
X152686260Y-128025000D01*
X152973158Y-127967932D01*
X153243411Y-127855990D01*
X153486632Y-127693475D01*
X153693475Y-127486632D01*
X153855990Y-127243411D01*
X153967932Y-126973158D01*
X154025000Y-126686260D01*
X154025000Y-126393740D01*
X153967932Y-126106842D01*
X153855990Y-125836589D01*
X153693475Y-125593368D01*
X153561620Y-125461513D01*
X153634180Y-125439502D01*
X153744494Y-125380537D01*
X153841185Y-125301185D01*
X153920537Y-125204494D01*
X153979502Y-125094180D01*
X154015812Y-124974482D01*
X154028072Y-124850000D01*
X154028072Y-123150000D01*
X154015812Y-123025518D01*
X153979502Y-122905820D01*
X153920537Y-122795506D01*
X153841185Y-122698815D01*
X153744494Y-122619463D01*
X153634180Y-122560498D01*
X153514482Y-122524188D01*
X153390000Y-122511928D01*
X151690000Y-122511928D01*
X151565518Y-122524188D01*
X151454366Y-122557905D01*
X151540704Y-122380429D01*
X151622384Y-122068892D01*
X151641718Y-121747405D01*
X151597961Y-121428325D01*
X151492795Y-121123912D01*
X151448165Y-121040413D01*
X152854192Y-121040413D01*
X152949956Y-121304814D01*
X153239571Y-121445704D01*
X153551108Y-121527384D01*
X153872595Y-121546718D01*
X154191675Y-121502961D01*
X154496088Y-121397795D01*
X154670044Y-121304814D01*
X154765808Y-121040413D01*
X153810000Y-120084605D01*
X152854192Y-121040413D01*
X151448165Y-121040413D01*
X151399814Y-120949956D01*
X151135413Y-120854192D01*
X150179605Y-121810000D01*
X150193748Y-121824143D01*
X150014143Y-122003748D01*
X150000000Y-121989605D01*
X149311963Y-122677642D01*
X149296589Y-122684010D01*
X149053368Y-122846525D01*
X148846525Y-123053368D01*
X148730000Y-123227760D01*
X148613475Y-123053368D01*
X148406632Y-122846525D01*
X148163411Y-122684010D01*
X147893158Y-122572068D01*
X147606260Y-122515000D01*
X147313740Y-122515000D01*
X147026842Y-122572068D01*
X146756589Y-122684010D01*
X146513368Y-122846525D01*
X146306525Y-123053368D01*
X146144010Y-123296589D01*
X146032068Y-123566842D01*
X145975000Y-123853740D01*
X143274235Y-123853740D01*
X143276962Y-123851013D01*
X143423061Y-123632359D01*
X143523696Y-123389405D01*
X143575000Y-123131486D01*
X143575000Y-122868514D01*
X143523696Y-122610595D01*
X143423061Y-122367641D01*
X143276962Y-122148987D01*
X143091013Y-121963038D01*
X142955655Y-121872595D01*
X148358282Y-121872595D01*
X148402039Y-122191675D01*
X148507205Y-122496088D01*
X148600186Y-122670044D01*
X148864587Y-122765808D01*
X149820395Y-121810000D01*
X148864587Y-120854192D01*
X148600186Y-120949956D01*
X148459296Y-121239571D01*
X148377616Y-121551108D01*
X148358282Y-121872595D01*
X142955655Y-121872595D01*
X142872359Y-121816939D01*
X142662470Y-121730000D01*
X142872359Y-121643061D01*
X143091013Y-121496962D01*
X143276962Y-121311013D01*
X143423061Y-121092359D01*
X143444577Y-121040413D01*
X145234192Y-121040413D01*
X145329956Y-121304814D01*
X145619571Y-121445704D01*
X145931108Y-121527384D01*
X146252595Y-121546718D01*
X146571675Y-121502961D01*
X146876088Y-121397795D01*
X147050044Y-121304814D01*
X147145808Y-121040413D01*
X146190000Y-120084605D01*
X145234192Y-121040413D01*
X143444577Y-121040413D01*
X143523696Y-120849405D01*
X143575000Y-120591486D01*
X143575000Y-120328514D01*
X143523696Y-120070595D01*
X143481032Y-119967595D01*
X144548282Y-119967595D01*
X144592039Y-120286675D01*
X144697205Y-120591088D01*
X144790186Y-120765044D01*
X145054587Y-120860808D01*
X146010395Y-119905000D01*
X145054587Y-118949192D01*
X144790186Y-119044956D01*
X144649296Y-119334571D01*
X144567616Y-119646108D01*
X144548282Y-119967595D01*
X143481032Y-119967595D01*
X143423061Y-119827641D01*
X143276962Y-119608987D01*
X143091013Y-119423038D01*
X142872359Y-119276939D01*
X142662470Y-119190000D01*
X142872359Y-119103061D01*
X143091013Y-118956962D01*
X143276962Y-118771013D01*
X143277914Y-118769587D01*
X145234192Y-118769587D01*
X146190000Y-119725395D01*
X147145808Y-118769587D01*
X147050044Y-118505186D01*
X146760429Y-118364296D01*
X146448892Y-118282616D01*
X146127405Y-118263282D01*
X145808325Y-118307039D01*
X145503912Y-118412205D01*
X145329956Y-118505186D01*
X145234192Y-118769587D01*
X143277914Y-118769587D01*
X143423061Y-118552359D01*
X143523696Y-118309405D01*
X143575000Y-118051486D01*
X143575000Y-117788514D01*
X143523696Y-117530595D01*
X143423061Y-117287641D01*
X143384823Y-117230413D01*
X145234192Y-117230413D01*
X145329956Y-117494814D01*
X145619571Y-117635704D01*
X145931108Y-117717384D01*
X146252595Y-117736718D01*
X146571675Y-117692961D01*
X146876088Y-117587795D01*
X147050044Y-117494814D01*
X147145808Y-117230413D01*
X146190000Y-116274605D01*
X145234192Y-117230413D01*
X143384823Y-117230413D01*
X143276962Y-117068987D01*
X143091013Y-116883038D01*
X142872359Y-116736939D01*
X142662470Y-116650000D01*
X142872359Y-116563061D01*
X143091013Y-116416962D01*
X143276962Y-116231013D01*
X143326018Y-116157595D01*
X144548282Y-116157595D01*
X144592039Y-116476675D01*
X144697205Y-116781088D01*
X144790186Y-116955044D01*
X145054587Y-117050808D01*
X146010395Y-116095000D01*
X146369605Y-116095000D01*
X147325413Y-117050808D01*
X147568860Y-116962633D01*
X147545062Y-117008105D01*
X147398725Y-117506098D01*
X147352352Y-118023071D01*
X147407727Y-118539159D01*
X147562721Y-119034526D01*
X147563130Y-119035291D01*
X147325413Y-118949192D01*
X146369605Y-119905000D01*
X147325413Y-120860808D01*
X147589814Y-120765044D01*
X147730704Y-120475429D01*
X147812384Y-120163892D01*
X147831411Y-119847499D01*
X148332106Y-119847499D01*
X148548228Y-120214258D01*
X149008105Y-120454938D01*
X149112623Y-120485651D01*
X149044192Y-120674587D01*
X150000000Y-121630395D01*
X150955808Y-120674587D01*
X150886619Y-120483557D01*
X151034526Y-120437279D01*
X151451772Y-120214258D01*
X151667894Y-119847499D01*
X150000000Y-118179605D01*
X148332106Y-119847499D01*
X147831411Y-119847499D01*
X147831718Y-119842405D01*
X147787961Y-119523325D01*
X147722121Y-119332744D01*
X147785742Y-119451772D01*
X148152501Y-119667894D01*
X149820395Y-118000000D01*
X150179605Y-118000000D01*
X151847499Y-119667894D01*
X152214258Y-119451772D01*
X152262972Y-119358693D01*
X152187616Y-119646108D01*
X152168282Y-119967595D01*
X152212039Y-120286675D01*
X152317205Y-120591088D01*
X152410186Y-120765044D01*
X152674587Y-120860808D01*
X153630395Y-119905000D01*
X153989605Y-119905000D01*
X154945413Y-120860808D01*
X155209814Y-120765044D01*
X155350704Y-120475429D01*
X155432384Y-120163892D01*
X155451718Y-119842405D01*
X155407961Y-119523325D01*
X155302795Y-119218912D01*
X155209814Y-119044956D01*
X154945413Y-118949192D01*
X153989605Y-119905000D01*
X153630395Y-119905000D01*
X152674587Y-118949192D01*
X152431140Y-119037367D01*
X152454938Y-118991895D01*
X152520263Y-118769587D01*
X152854192Y-118769587D01*
X153810000Y-119725395D01*
X154765808Y-118769587D01*
X154670044Y-118505186D01*
X154380429Y-118364296D01*
X154068892Y-118282616D01*
X153747405Y-118263282D01*
X153428325Y-118307039D01*
X153123912Y-118412205D01*
X152949956Y-118505186D01*
X152854192Y-118769587D01*
X152520263Y-118769587D01*
X152601275Y-118493902D01*
X152647648Y-117976929D01*
X152592273Y-117460841D01*
X152520176Y-117230413D01*
X152854192Y-117230413D01*
X152949956Y-117494814D01*
X153239571Y-117635704D01*
X153551108Y-117717384D01*
X153872595Y-117736718D01*
X154191675Y-117692961D01*
X154496088Y-117587795D01*
X154670044Y-117494814D01*
X154765808Y-117230413D01*
X153810000Y-116274605D01*
X152854192Y-117230413D01*
X152520176Y-117230413D01*
X152437279Y-116965474D01*
X152436870Y-116964709D01*
X152674587Y-117050808D01*
X153630395Y-116095000D01*
X153989605Y-116095000D01*
X154945413Y-117050808D01*
X155209814Y-116955044D01*
X155350704Y-116665429D01*
X155432384Y-116353892D01*
X155451718Y-116032405D01*
X155407961Y-115713325D01*
X155302795Y-115408912D01*
X155209814Y-115234956D01*
X154945413Y-115139192D01*
X153989605Y-116095000D01*
X153630395Y-116095000D01*
X152674587Y-115139192D01*
X152410186Y-115234956D01*
X152269296Y-115524571D01*
X152187616Y-115836108D01*
X152168282Y-116157595D01*
X152212039Y-116476675D01*
X152277879Y-116667256D01*
X152214258Y-116548228D01*
X151847499Y-116332106D01*
X150179605Y-118000000D01*
X149820395Y-118000000D01*
X148152501Y-116332106D01*
X147785742Y-116548228D01*
X147737028Y-116641307D01*
X147812384Y-116353892D01*
X147831718Y-116032405D01*
X147787961Y-115713325D01*
X147682795Y-115408912D01*
X147589814Y-115234956D01*
X147325413Y-115139192D01*
X146369605Y-116095000D01*
X146010395Y-116095000D01*
X145054587Y-115139192D01*
X144790186Y-115234956D01*
X144649296Y-115524571D01*
X144567616Y-115836108D01*
X144548282Y-116157595D01*
X143326018Y-116157595D01*
X143423061Y-116012359D01*
X143523696Y-115769405D01*
X143575000Y-115511486D01*
X143575000Y-115248514D01*
X143523696Y-114990595D01*
X143510853Y-114959587D01*
X145234192Y-114959587D01*
X146190000Y-115915395D01*
X147145808Y-114959587D01*
X147127092Y-114907911D01*
X147763159Y-114907911D01*
X147763159Y-115092089D01*
X147799091Y-115272729D01*
X147869573Y-115442889D01*
X147971897Y-115596028D01*
X148102131Y-115726262D01*
X148255270Y-115828586D01*
X148425430Y-115899068D01*
X148475571Y-115909042D01*
X148332106Y-116152501D01*
X150000000Y-117820395D01*
X151667894Y-116152501D01*
X151451772Y-115785742D01*
X150991895Y-115545062D01*
X150887377Y-115514349D01*
X150955808Y-115325413D01*
X150000000Y-114369605D01*
X149985858Y-114383748D01*
X149806253Y-114204143D01*
X149820395Y-114190000D01*
X150179605Y-114190000D01*
X151135413Y-115145808D01*
X151399814Y-115050044D01*
X151540704Y-114760429D01*
X151595060Y-114553108D01*
X151623738Y-114596028D01*
X151753972Y-114726262D01*
X151907111Y-114828586D01*
X152077271Y-114899068D01*
X152257911Y-114935000D01*
X152442089Y-114935000D01*
X152622729Y-114899068D01*
X152792889Y-114828586D01*
X152936361Y-114732721D01*
X152854192Y-114959587D01*
X153810000Y-115915395D01*
X154765808Y-114959587D01*
X154670044Y-114695186D01*
X154380429Y-114554296D01*
X154068892Y-114472616D01*
X153747405Y-114453282D01*
X153428325Y-114497039D01*
X153123912Y-114602205D01*
X153008277Y-114664013D01*
X153076262Y-114596028D01*
X153178586Y-114442889D01*
X153249068Y-114272729D01*
X153285000Y-114092089D01*
X153285000Y-113907911D01*
X153249068Y-113727271D01*
X153178586Y-113557111D01*
X153076262Y-113403972D01*
X152946028Y-113273738D01*
X152792889Y-113171414D01*
X152622729Y-113100932D01*
X152442089Y-113065000D01*
X152257911Y-113065000D01*
X152077271Y-113100932D01*
X151907111Y-113171414D01*
X151753972Y-113273738D01*
X151623738Y-113403972D01*
X151521414Y-113557111D01*
X151515831Y-113570591D01*
X151492795Y-113503912D01*
X151399814Y-113329956D01*
X151135413Y-113234192D01*
X150179605Y-114190000D01*
X149820395Y-114190000D01*
X148864587Y-113234192D01*
X148600186Y-113329956D01*
X148459296Y-113619571D01*
X148377616Y-113931108D01*
X148365921Y-114125581D01*
X148255270Y-114171414D01*
X148102131Y-114273738D01*
X147971897Y-114403972D01*
X147869573Y-114557111D01*
X147799091Y-114727271D01*
X147763159Y-114907911D01*
X147127092Y-114907911D01*
X147050044Y-114695186D01*
X146760429Y-114554296D01*
X146448892Y-114472616D01*
X146127405Y-114453282D01*
X145808325Y-114497039D01*
X145503912Y-114602205D01*
X145329956Y-114695186D01*
X145234192Y-114959587D01*
X143510853Y-114959587D01*
X143423061Y-114747641D01*
X143276962Y-114528987D01*
X143091013Y-114343038D01*
X142872359Y-114196939D01*
X142662470Y-114110000D01*
X142872359Y-114023061D01*
X143091013Y-113876962D01*
X143276962Y-113691013D01*
X143423061Y-113472359D01*
X143523696Y-113229405D01*
X143558469Y-113054587D01*
X149044192Y-113054587D01*
X150000000Y-114010395D01*
X150955808Y-113054587D01*
X150860044Y-112790186D01*
X150690919Y-112707911D01*
X153865000Y-112707911D01*
X153865000Y-112892089D01*
X153900932Y-113072729D01*
X153971414Y-113242889D01*
X154073738Y-113396028D01*
X154203972Y-113526262D01*
X154357111Y-113628586D01*
X154527271Y-113699068D01*
X154707911Y-113735000D01*
X154892089Y-113735000D01*
X155072729Y-113699068D01*
X155242889Y-113628586D01*
X155396028Y-113526262D01*
X155526262Y-113396028D01*
X155628586Y-113242889D01*
X155699068Y-113072729D01*
X155735000Y-112892089D01*
X155735000Y-112707911D01*
X155699068Y-112527271D01*
X155628586Y-112357111D01*
X155526262Y-112203972D01*
X155396028Y-112073738D01*
X155242889Y-111971414D01*
X155072729Y-111900932D01*
X154892089Y-111865000D01*
X154707911Y-111865000D01*
X154527271Y-111900932D01*
X154357111Y-111971414D01*
X154203972Y-112073738D01*
X154073738Y-112203972D01*
X153971414Y-112357111D01*
X153900932Y-112527271D01*
X153865000Y-112707911D01*
X150690919Y-112707911D01*
X150570429Y-112649296D01*
X150258892Y-112567616D01*
X149937405Y-112548282D01*
X149618325Y-112592039D01*
X149313912Y-112697205D01*
X149139956Y-112790186D01*
X149044192Y-113054587D01*
X143558469Y-113054587D01*
X143575000Y-112971486D01*
X143575000Y-112708514D01*
X143523696Y-112450595D01*
X143423061Y-112207641D01*
X143276962Y-111988987D01*
X143209886Y-111921911D01*
X144035500Y-111921911D01*
X144035500Y-112106089D01*
X144071432Y-112286729D01*
X144141914Y-112456889D01*
X144244238Y-112610028D01*
X144374472Y-112740262D01*
X144527611Y-112842586D01*
X144697771Y-112913068D01*
X144878411Y-112949000D01*
X145062589Y-112949000D01*
X145243229Y-112913068D01*
X145413389Y-112842586D01*
X145566528Y-112740262D01*
X145696762Y-112610028D01*
X145799086Y-112456889D01*
X145869568Y-112286729D01*
X145905500Y-112106089D01*
X145905500Y-111921911D01*
X145869568Y-111741271D01*
X145799086Y-111571111D01*
X145696762Y-111417972D01*
X145566528Y-111287738D01*
X145413389Y-111185414D01*
X145243229Y-111114932D01*
X145062589Y-111079000D01*
X144878411Y-111079000D01*
X144697771Y-111114932D01*
X144527611Y-111185414D01*
X144374472Y-111287738D01*
X144244238Y-111417972D01*
X144141914Y-111571111D01*
X144071432Y-111741271D01*
X144035500Y-111921911D01*
X143209886Y-111921911D01*
X143091013Y-111803038D01*
X142872359Y-111656939D01*
X142662470Y-111570000D01*
X142872359Y-111483061D01*
X143091013Y-111336962D01*
X143276962Y-111151013D01*
X143423061Y-110932359D01*
X143523696Y-110689405D01*
X143575000Y-110431486D01*
X143575000Y-110168514D01*
X143523696Y-109910595D01*
X143423061Y-109667641D01*
X143276962Y-109448987D01*
X143091013Y-109263038D01*
X142872359Y-109116939D01*
X142662470Y-109030000D01*
X142872359Y-108943061D01*
X143091013Y-108796962D01*
X143276962Y-108611013D01*
X143423061Y-108392359D01*
X143523696Y-108149405D01*
X143575000Y-107891486D01*
X143575000Y-107628514D01*
X143523696Y-107370595D01*
X143423061Y-107127641D01*
X143276962Y-106908987D01*
X143091013Y-106723038D01*
X142872359Y-106576939D01*
X142662470Y-106490000D01*
X142872359Y-106403061D01*
X143091013Y-106256962D01*
X143276962Y-106071013D01*
X143423061Y-105852359D01*
X143523696Y-105609405D01*
X143575000Y-105351486D01*
X143575000Y-105088514D01*
X143523696Y-104830595D01*
X143423061Y-104587641D01*
X143276962Y-104368987D01*
X143091013Y-104183038D01*
X142872359Y-104036939D01*
X142629405Y-103936304D01*
X142371486Y-103885000D01*
X142108514Y-103885000D01*
X141850595Y-103936304D01*
X141660000Y-104015251D01*
X141660000Y-102204749D01*
X141850595Y-102283696D01*
X142108514Y-102335000D01*
X142371486Y-102335000D01*
X142629405Y-102283696D01*
X142872359Y-102183061D01*
X143091013Y-102036962D01*
X143276962Y-101851013D01*
X143423061Y-101632359D01*
X143523696Y-101389405D01*
X143575000Y-101131486D01*
X143575000Y-100868514D01*
X143523696Y-100610595D01*
X143423061Y-100367641D01*
X143276962Y-100148987D01*
X143091013Y-99963038D01*
X142872359Y-99816939D01*
X142662470Y-99730000D01*
X142872359Y-99643061D01*
X143091013Y-99496962D01*
X143276962Y-99311013D01*
X143423061Y-99092359D01*
X143523696Y-98849405D01*
X143575000Y-98591486D01*
X143575000Y-98433967D01*
X144555000Y-98433967D01*
X144555000Y-98756033D01*
X144617832Y-99071912D01*
X144741082Y-99369463D01*
X144920013Y-99637252D01*
X145147748Y-99864987D01*
X145415537Y-100043918D01*
X145713088Y-100167168D01*
X146028967Y-100230000D01*
X146351033Y-100230000D01*
X146666912Y-100167168D01*
X146964463Y-100043918D01*
X147232252Y-99864987D01*
X147459987Y-99637252D01*
X147579094Y-99458996D01*
X147466261Y-99731399D01*
X147365000Y-100240475D01*
X147365000Y-100759525D01*
X147466261Y-101268601D01*
X147579094Y-101541004D01*
X147459987Y-101362748D01*
X147232252Y-101135013D01*
X146964463Y-100956082D01*
X146666912Y-100832832D01*
X146351033Y-100770000D01*
X146028967Y-100770000D01*
X145713088Y-100832832D01*
X145415537Y-100956082D01*
X145147748Y-101135013D01*
X144920013Y-101362748D01*
X144741082Y-101630537D01*
X144617832Y-101928088D01*
X144555000Y-102243967D01*
X144555000Y-102566033D01*
X144617832Y-102881912D01*
X144741082Y-103179463D01*
X144920013Y-103447252D01*
X145147748Y-103674987D01*
X145415537Y-103853918D01*
X145713088Y-103977168D01*
X146028967Y-104040000D01*
X146351033Y-104040000D01*
X146666912Y-103977168D01*
X146964463Y-103853918D01*
X147232252Y-103674987D01*
X147459987Y-103447252D01*
X147638918Y-103179463D01*
X147655264Y-103140000D01*
X148058895Y-103140000D01*
X148095000Y-103143556D01*
X148131105Y-103140000D01*
X148239085Y-103129365D01*
X148377633Y-103087337D01*
X148505320Y-103019087D01*
X148617238Y-102927238D01*
X148640258Y-102899188D01*
X148723373Y-102816073D01*
X148751859Y-102835107D01*
X149068266Y-102966167D01*
X148957748Y-103040013D01*
X148730013Y-103267748D01*
X148551082Y-103535537D01*
X148427832Y-103833088D01*
X148365000Y-104148967D01*
X148365000Y-104471033D01*
X148427832Y-104786912D01*
X148551082Y-105084463D01*
X148730013Y-105352252D01*
X148957748Y-105579987D01*
X149225537Y-105758918D01*
X149523088Y-105882168D01*
X149838967Y-105945000D01*
X150161033Y-105945000D01*
X150476912Y-105882168D01*
X150774463Y-105758918D01*
X151042252Y-105579987D01*
X151269987Y-105352252D01*
X151448918Y-105084463D01*
X151572168Y-104786912D01*
X151635000Y-104471033D01*
X151635000Y-104148967D01*
X151572168Y-103833088D01*
X151448918Y-103535537D01*
X151269987Y-103267748D01*
X151042252Y-103040013D01*
X150931734Y-102966167D01*
X151248141Y-102835107D01*
X151276627Y-102816074D01*
X151359746Y-102899193D01*
X151382762Y-102927238D01*
X151494680Y-103019087D01*
X151622367Y-103087337D01*
X151760915Y-103129365D01*
X151905000Y-103143556D01*
X151941105Y-103140000D01*
X152344736Y-103140000D01*
X152361082Y-103179463D01*
X152540013Y-103447252D01*
X152767748Y-103674987D01*
X153035537Y-103853918D01*
X153333088Y-103977168D01*
X153648967Y-104040000D01*
X153971033Y-104040000D01*
X154286912Y-103977168D01*
X154584463Y-103853918D01*
X154852252Y-103674987D01*
X155079987Y-103447252D01*
X155258918Y-103179463D01*
X155382168Y-102881912D01*
X155445000Y-102566033D01*
X155445000Y-102243967D01*
X155382168Y-101928088D01*
X155258918Y-101630537D01*
X155079987Y-101362748D01*
X154852252Y-101135013D01*
X154584463Y-100956082D01*
X154286912Y-100832832D01*
X153971033Y-100770000D01*
X153648967Y-100770000D01*
X153333088Y-100832832D01*
X153035537Y-100956082D01*
X152767748Y-101135013D01*
X152540013Y-101362748D01*
X152420906Y-101541004D01*
X152533739Y-101268601D01*
X152635000Y-100759525D01*
X152635000Y-100240475D01*
X152533739Y-99731399D01*
X152420906Y-99458996D01*
X152540013Y-99637252D01*
X152767748Y-99864987D01*
X153035537Y-100043918D01*
X153333088Y-100167168D01*
X153648967Y-100230000D01*
X153971033Y-100230000D01*
X154286912Y-100167168D01*
X154584463Y-100043918D01*
X154852252Y-99864987D01*
X155079987Y-99637252D01*
X155258918Y-99369463D01*
X155382168Y-99071912D01*
X155445000Y-98756033D01*
X155445000Y-98433967D01*
X155382168Y-98118088D01*
X155258918Y-97820537D01*
X155079987Y-97552748D01*
X154852252Y-97325013D01*
X154584463Y-97146082D01*
X154286912Y-97022832D01*
X153971033Y-96960000D01*
X153648967Y-96960000D01*
X153333088Y-97022832D01*
X153035537Y-97146082D01*
X152767748Y-97325013D01*
X152540013Y-97552748D01*
X152361082Y-97820537D01*
X152344736Y-97860000D01*
X151941105Y-97860000D01*
X151905000Y-97856444D01*
X151868895Y-97860000D01*
X151760915Y-97870635D01*
X151622367Y-97912663D01*
X151494680Y-97980913D01*
X151382762Y-98072762D01*
X151359746Y-98100807D01*
X151276627Y-98183926D01*
X151248141Y-98164893D01*
X150931734Y-98033833D01*
X151042252Y-97959987D01*
X151269987Y-97732252D01*
X151448918Y-97464463D01*
X151572168Y-97166912D01*
X151635000Y-96851033D01*
X151635000Y-96528967D01*
X151572168Y-96213088D01*
X151448918Y-95915537D01*
X151269987Y-95647748D01*
X151042252Y-95420013D01*
X150774463Y-95241082D01*
X150476912Y-95117832D01*
X150161033Y-95055000D01*
X149838967Y-95055000D01*
X149523088Y-95117832D01*
X149225537Y-95241082D01*
X148957748Y-95420013D01*
X148730013Y-95647748D01*
X148551082Y-95915537D01*
X148427832Y-96213088D01*
X148365000Y-96528967D01*
X148365000Y-96851033D01*
X148427832Y-97166912D01*
X148551082Y-97464463D01*
X148730013Y-97732252D01*
X148957748Y-97959987D01*
X149068266Y-98033833D01*
X148751859Y-98164893D01*
X148723373Y-98183927D01*
X148640258Y-98100812D01*
X148617238Y-98072762D01*
X148505320Y-97980913D01*
X148377633Y-97912663D01*
X148239085Y-97870635D01*
X148131105Y-97860000D01*
X148095000Y-97856444D01*
X148058895Y-97860000D01*
X147655264Y-97860000D01*
X147638918Y-97820537D01*
X147459987Y-97552748D01*
X147232252Y-97325013D01*
X146964463Y-97146082D01*
X146666912Y-97022832D01*
X146351033Y-96960000D01*
X146028967Y-96960000D01*
X145713088Y-97022832D01*
X145415537Y-97146082D01*
X145147748Y-97325013D01*
X144920013Y-97552748D01*
X144741082Y-97820537D01*
X144617832Y-98118088D01*
X144555000Y-98433967D01*
X143575000Y-98433967D01*
X143575000Y-98328514D01*
X143523696Y-98070595D01*
X143423061Y-97827641D01*
X143276962Y-97608987D01*
X143091013Y-97423038D01*
X142872359Y-97276939D01*
X142662470Y-97190000D01*
X142872359Y-97103061D01*
X143091013Y-96956962D01*
X143276962Y-96771013D01*
X143423061Y-96552359D01*
X143523696Y-96309405D01*
X143575000Y-96051486D01*
X143575000Y-95788514D01*
X143523696Y-95530595D01*
X143423061Y-95287641D01*
X143276962Y-95068987D01*
X143091013Y-94883038D01*
X142872359Y-94736939D01*
X142662470Y-94650000D01*
X142872359Y-94563061D01*
X143091013Y-94416962D01*
X143276962Y-94231013D01*
X143423061Y-94012359D01*
X143523696Y-93769405D01*
X143575000Y-93511486D01*
X143575000Y-93248514D01*
X143523696Y-92990595D01*
X143423061Y-92747641D01*
X143276962Y-92528987D01*
X143091013Y-92343038D01*
X142872359Y-92196939D01*
X142662470Y-92110000D01*
X142872359Y-92023061D01*
X143091013Y-91876962D01*
X143276962Y-91691013D01*
X143423061Y-91472359D01*
X143523696Y-91229405D01*
X143575000Y-90971486D01*
X143575000Y-90708514D01*
X143523696Y-90450595D01*
X143423061Y-90207641D01*
X143276962Y-89988987D01*
X143091013Y-89803038D01*
X142872359Y-89656939D01*
X142662470Y-89570000D01*
X142872359Y-89483061D01*
X143091013Y-89336962D01*
X143276962Y-89151013D01*
X143423061Y-88932359D01*
X143523696Y-88689405D01*
X143575000Y-88431486D01*
X143575000Y-88168514D01*
X143523696Y-87910595D01*
X143423061Y-87667641D01*
X143276962Y-87448987D01*
X143091013Y-87263038D01*
X142872359Y-87116939D01*
X142662470Y-87030000D01*
X142872359Y-86943061D01*
X143091013Y-86796962D01*
X143276962Y-86611013D01*
X143423061Y-86392359D01*
X143523696Y-86149405D01*
X143575000Y-85891486D01*
X143575000Y-85628514D01*
X143523696Y-85370595D01*
X143423061Y-85127641D01*
X143276962Y-84908987D01*
X143091013Y-84723038D01*
X142872359Y-84576939D01*
X142662470Y-84490000D01*
X142872359Y-84403061D01*
X143091013Y-84256962D01*
X143276962Y-84071013D01*
X143423061Y-83852359D01*
X143523696Y-83609405D01*
X143575000Y-83351486D01*
X143575000Y-83088514D01*
X143523696Y-82830595D01*
X143423061Y-82587641D01*
X143276962Y-82368987D01*
X143091013Y-82183038D01*
X142872359Y-82036939D01*
X142629405Y-81936304D01*
X142371486Y-81885000D01*
X142108514Y-81885000D01*
X141850595Y-81936304D01*
X141660000Y-82015251D01*
X141660000Y-80933967D01*
X144555000Y-80933967D01*
X144555000Y-81256033D01*
X144617832Y-81571912D01*
X144741082Y-81869463D01*
X144920013Y-82137252D01*
X145147748Y-82364987D01*
X145415537Y-82543918D01*
X145713088Y-82667168D01*
X146028967Y-82730000D01*
X146351033Y-82730000D01*
X146666912Y-82667168D01*
X146964463Y-82543918D01*
X147232252Y-82364987D01*
X147459987Y-82137252D01*
X147579094Y-81958996D01*
X147466261Y-82231399D01*
X147365000Y-82740475D01*
X147365000Y-83259525D01*
X147466261Y-83768601D01*
X147579094Y-84041004D01*
X147459987Y-83862748D01*
X147232252Y-83635013D01*
X146964463Y-83456082D01*
X146666912Y-83332832D01*
X146351033Y-83270000D01*
X146028967Y-83270000D01*
X145713088Y-83332832D01*
X145415537Y-83456082D01*
X145147748Y-83635013D01*
X144920013Y-83862748D01*
X144741082Y-84130537D01*
X144617832Y-84428088D01*
X144555000Y-84743967D01*
X144555000Y-85066033D01*
X144617832Y-85381912D01*
X144741082Y-85679463D01*
X144920013Y-85947252D01*
X145147748Y-86174987D01*
X145415537Y-86353918D01*
X145713088Y-86477168D01*
X146028967Y-86540000D01*
X146351033Y-86540000D01*
X146666912Y-86477168D01*
X146964463Y-86353918D01*
X147232252Y-86174987D01*
X147459987Y-85947252D01*
X147638918Y-85679463D01*
X147655264Y-85640000D01*
X148058895Y-85640000D01*
X148095000Y-85643556D01*
X148131105Y-85640000D01*
X148239085Y-85629365D01*
X148377633Y-85587337D01*
X148505320Y-85519087D01*
X148617238Y-85427238D01*
X148640258Y-85399188D01*
X148723373Y-85316073D01*
X148751859Y-85335107D01*
X149068266Y-85466167D01*
X148957748Y-85540013D01*
X148730013Y-85767748D01*
X148551082Y-86035537D01*
X148427832Y-86333088D01*
X148365000Y-86648967D01*
X148365000Y-86971033D01*
X148427832Y-87286912D01*
X148551082Y-87584463D01*
X148730013Y-87852252D01*
X148957748Y-88079987D01*
X149225537Y-88258918D01*
X149523088Y-88382168D01*
X149838967Y-88445000D01*
X150161033Y-88445000D01*
X150476912Y-88382168D01*
X150774463Y-88258918D01*
X151042252Y-88079987D01*
X151269987Y-87852252D01*
X151448918Y-87584463D01*
X151572168Y-87286912D01*
X151635000Y-86971033D01*
X151635000Y-86648967D01*
X151572168Y-86333088D01*
X151448918Y-86035537D01*
X151269987Y-85767748D01*
X151042252Y-85540013D01*
X150931734Y-85466167D01*
X151248141Y-85335107D01*
X151276627Y-85316074D01*
X151359746Y-85399193D01*
X151382762Y-85427238D01*
X151494680Y-85519087D01*
X151622367Y-85587337D01*
X151758110Y-85628514D01*
X151760915Y-85629365D01*
X151905000Y-85643556D01*
X151941105Y-85640000D01*
X152344736Y-85640000D01*
X152361082Y-85679463D01*
X152540013Y-85947252D01*
X152767748Y-86174987D01*
X153035537Y-86353918D01*
X153333088Y-86477168D01*
X153648967Y-86540000D01*
X153971033Y-86540000D01*
X154286912Y-86477168D01*
X154584463Y-86353918D01*
X154852252Y-86174987D01*
X155079987Y-85947252D01*
X155258918Y-85679463D01*
X155382168Y-85381912D01*
X155445000Y-85066033D01*
X155445000Y-84743967D01*
X155382168Y-84428088D01*
X155258918Y-84130537D01*
X155079987Y-83862748D01*
X154852252Y-83635013D01*
X154584463Y-83456082D01*
X154286912Y-83332832D01*
X153971033Y-83270000D01*
X153648967Y-83270000D01*
X153333088Y-83332832D01*
X153035537Y-83456082D01*
X152767748Y-83635013D01*
X152540013Y-83862748D01*
X152420906Y-84041004D01*
X152533739Y-83768601D01*
X152635000Y-83259525D01*
X152635000Y-82740475D01*
X152533739Y-82231399D01*
X152420906Y-81958996D01*
X152540013Y-82137252D01*
X152767748Y-82364987D01*
X153035537Y-82543918D01*
X153333088Y-82667168D01*
X153648967Y-82730000D01*
X153971033Y-82730000D01*
X154286912Y-82667168D01*
X154584463Y-82543918D01*
X154852252Y-82364987D01*
X155079987Y-82137252D01*
X155258918Y-81869463D01*
X155382168Y-81571912D01*
X155445000Y-81256033D01*
X155445000Y-80933967D01*
X155382168Y-80618088D01*
X155258918Y-80320537D01*
X155079987Y-80052748D01*
X154852252Y-79825013D01*
X154584463Y-79646082D01*
X154286912Y-79522832D01*
X153971033Y-79460000D01*
X153648967Y-79460000D01*
X153333088Y-79522832D01*
X153035537Y-79646082D01*
X152767748Y-79825013D01*
X152540013Y-80052748D01*
X152361082Y-80320537D01*
X152344736Y-80360000D01*
X151941105Y-80360000D01*
X151905000Y-80356444D01*
X151868895Y-80360000D01*
X151760915Y-80370635D01*
X151622367Y-80412663D01*
X151494680Y-80480913D01*
X151382762Y-80572762D01*
X151359746Y-80600807D01*
X151276627Y-80683926D01*
X151248141Y-80664893D01*
X150931734Y-80533833D01*
X151042252Y-80459987D01*
X151269987Y-80232252D01*
X151448918Y-79964463D01*
X151572168Y-79666912D01*
X151635000Y-79351033D01*
X151635000Y-79028967D01*
X151572168Y-78713088D01*
X151448918Y-78415537D01*
X151269987Y-78147748D01*
X151042252Y-77920013D01*
X150774463Y-77741082D01*
X150476912Y-77617832D01*
X150161033Y-77555000D01*
X149838967Y-77555000D01*
X149523088Y-77617832D01*
X149225537Y-77741082D01*
X148957748Y-77920013D01*
X148730013Y-78147748D01*
X148551082Y-78415537D01*
X148427832Y-78713088D01*
X148365000Y-79028967D01*
X148365000Y-79351033D01*
X148427832Y-79666912D01*
X148551082Y-79964463D01*
X148730013Y-80232252D01*
X148957748Y-80459987D01*
X149068266Y-80533833D01*
X148751859Y-80664893D01*
X148723373Y-80683927D01*
X148640258Y-80600812D01*
X148617238Y-80572762D01*
X148505320Y-80480913D01*
X148377633Y-80412663D01*
X148239085Y-80370635D01*
X148131105Y-80360000D01*
X148095000Y-80356444D01*
X148058895Y-80360000D01*
X147655264Y-80360000D01*
X147638918Y-80320537D01*
X147459987Y-80052748D01*
X147232252Y-79825013D01*
X146964463Y-79646082D01*
X146666912Y-79522832D01*
X146351033Y-79460000D01*
X146028967Y-79460000D01*
X145713088Y-79522832D01*
X145415537Y-79646082D01*
X145147748Y-79825013D01*
X144920013Y-80052748D01*
X144741082Y-80320537D01*
X144617832Y-80618088D01*
X144555000Y-80933967D01*
X141660000Y-80933967D01*
X141660000Y-78273380D01*
X141868550Y-78064830D01*
X141815000Y-78334042D01*
X141815000Y-78665958D01*
X141879754Y-78991496D01*
X142006772Y-79298147D01*
X142191175Y-79574125D01*
X142425875Y-79808825D01*
X142701853Y-79993228D01*
X143008504Y-80120246D01*
X143334042Y-80185000D01*
X143665958Y-80185000D01*
X143991496Y-80120246D01*
X144298147Y-79993228D01*
X144574125Y-79808825D01*
X144808825Y-79574125D01*
X144993228Y-79298147D01*
X145120246Y-78991496D01*
X145185000Y-78665958D01*
X145185000Y-78334042D01*
X145120246Y-78008504D01*
X144993228Y-77701853D01*
X144808825Y-77425875D01*
X144574125Y-77191175D01*
X144298147Y-77006772D01*
X143991496Y-76879754D01*
X143665958Y-76815000D01*
X143334042Y-76815000D01*
X143064831Y-76868550D01*
X143273381Y-76660000D01*
X156726620Y-76660000D01*
X156935170Y-76868550D01*
M02*
