G04 #@! TF.GenerationSoftware,KiCad,Pcbnew,5.1.5-52549c5~84~ubuntu18.04.1*
G04 #@! TF.CreationDate,2020-01-13T21:42:59-08:00*
G04 #@! TF.ProjectId,somos_wristband_1.0,736f6d6f-735f-4777-9269-737462616e64,rev?*
G04 #@! TF.SameCoordinates,Original*
G04 #@! TF.FileFunction,Copper,L3,Inr*
G04 #@! TF.FilePolarity,Positive*
%FSLAX46Y46*%
G04 Gerber Fmt 4.6, Leading zero omitted, Abs format (unit mm)*
G04 Created by KiCad (PCBNEW 5.1.5-52549c5~84~ubuntu18.04.1) date 2020-01-13 21:42:59*
%MOMM*%
%LPD*%
G04 APERTURE LIST*
%ADD10C,4.000000*%
%ADD11C,1.400000*%
%ADD12O,1.700000X1.700000*%
%ADD13R,1.700000X1.700000*%
%ADD14C,0.600000*%
%ADD15C,0.254000*%
G04 APERTURE END LIST*
D10*
X150000000Y-118000000D03*
D11*
X142240000Y-105220000D03*
X142240000Y-107760000D03*
X142240000Y-110300000D03*
X142240000Y-112840000D03*
X142240000Y-115380000D03*
X142240000Y-117920000D03*
X142240000Y-120460000D03*
X142240000Y-123000000D03*
D10*
X150000000Y-83000000D03*
X150000000Y-100500000D03*
D12*
X147460000Y-126540000D03*
X147460000Y-124000000D03*
X150000000Y-126540000D03*
X150000000Y-124000000D03*
X152540000Y-126540000D03*
D13*
X152540000Y-124000000D03*
D11*
X142240000Y-83220000D03*
X142240000Y-85760000D03*
X142240000Y-88300000D03*
X142240000Y-90840000D03*
X142240000Y-93380000D03*
X142240000Y-95920000D03*
X142240000Y-98460000D03*
X142240000Y-101000000D03*
X157480000Y-100780000D03*
X157480000Y-98240000D03*
X157480000Y-95700000D03*
X157480000Y-93160000D03*
X157480000Y-90620000D03*
X157480000Y-88080000D03*
X157480000Y-85540000D03*
X157480000Y-83000000D03*
X157480000Y-122780000D03*
X157480000Y-120240000D03*
X157480000Y-117700000D03*
X157480000Y-115160000D03*
X157480000Y-112620000D03*
X157480000Y-110080000D03*
X157480000Y-107540000D03*
X157480000Y-105000000D03*
D14*
X154800000Y-112800000D03*
X148698159Y-115000000D03*
X152350000Y-114000000D03*
X144970500Y-112014000D03*
X154000000Y-113000000D03*
X150000000Y-109000000D03*
X148000000Y-107000000D03*
X150000000Y-109000000D03*
X152000000Y-107000000D03*
X152000000Y-111000000D03*
X148000000Y-111000000D03*
D15*
G36*
X156935170Y-76868550D02*
G01*
X156665958Y-76815000D01*
X156334042Y-76815000D01*
X156008504Y-76879754D01*
X155701853Y-77006772D01*
X155425875Y-77191175D01*
X155191175Y-77425875D01*
X155006772Y-77701853D01*
X154879754Y-78008504D01*
X154815000Y-78334042D01*
X154815000Y-78665958D01*
X154879754Y-78991496D01*
X155006772Y-79298147D01*
X155191175Y-79574125D01*
X155425875Y-79808825D01*
X155701853Y-79993228D01*
X156008504Y-80120246D01*
X156334042Y-80185000D01*
X156665958Y-80185000D01*
X156991496Y-80120246D01*
X157298147Y-79993228D01*
X157574125Y-79808825D01*
X157808825Y-79574125D01*
X157993228Y-79298147D01*
X158120246Y-78991496D01*
X158185000Y-78665958D01*
X158185000Y-78334042D01*
X158131450Y-78064831D01*
X158340001Y-78273382D01*
X158340001Y-81972026D01*
X158331013Y-81963038D01*
X158112359Y-81816939D01*
X157869405Y-81716304D01*
X157611486Y-81665000D01*
X157348514Y-81665000D01*
X157090595Y-81716304D01*
X156847641Y-81816939D01*
X156628987Y-81963038D01*
X156443038Y-82148987D01*
X156296939Y-82367641D01*
X156196304Y-82610595D01*
X156145000Y-82868514D01*
X156145000Y-83131486D01*
X156196304Y-83389405D01*
X156296939Y-83632359D01*
X156443038Y-83851013D01*
X156628987Y-84036962D01*
X156847641Y-84183061D01*
X157057530Y-84270000D01*
X156847641Y-84356939D01*
X156628987Y-84503038D01*
X156443038Y-84688987D01*
X156296939Y-84907641D01*
X156196304Y-85150595D01*
X156145000Y-85408514D01*
X156145000Y-85671486D01*
X156196304Y-85929405D01*
X156296939Y-86172359D01*
X156443038Y-86391013D01*
X156628987Y-86576962D01*
X156847641Y-86723061D01*
X157057530Y-86810000D01*
X156847641Y-86896939D01*
X156628987Y-87043038D01*
X156443038Y-87228987D01*
X156296939Y-87447641D01*
X156196304Y-87690595D01*
X156145000Y-87948514D01*
X156145000Y-88211486D01*
X156196304Y-88469405D01*
X156296939Y-88712359D01*
X156443038Y-88931013D01*
X156628987Y-89116962D01*
X156847641Y-89263061D01*
X157057530Y-89350000D01*
X156847641Y-89436939D01*
X156628987Y-89583038D01*
X156443038Y-89768987D01*
X156296939Y-89987641D01*
X156196304Y-90230595D01*
X156145000Y-90488514D01*
X156145000Y-90751486D01*
X156196304Y-91009405D01*
X156296939Y-91252359D01*
X156443038Y-91471013D01*
X156628987Y-91656962D01*
X156847641Y-91803061D01*
X157057530Y-91890000D01*
X156847641Y-91976939D01*
X156628987Y-92123038D01*
X156443038Y-92308987D01*
X156296939Y-92527641D01*
X156196304Y-92770595D01*
X156145000Y-93028514D01*
X156145000Y-93291486D01*
X156196304Y-93549405D01*
X156296939Y-93792359D01*
X156443038Y-94011013D01*
X156628987Y-94196962D01*
X156847641Y-94343061D01*
X157057530Y-94430000D01*
X156847641Y-94516939D01*
X156628987Y-94663038D01*
X156443038Y-94848987D01*
X156296939Y-95067641D01*
X156196304Y-95310595D01*
X156145000Y-95568514D01*
X156145000Y-95831486D01*
X156196304Y-96089405D01*
X156296939Y-96332359D01*
X156443038Y-96551013D01*
X156628987Y-96736962D01*
X156847641Y-96883061D01*
X157057530Y-96970000D01*
X156847641Y-97056939D01*
X156628987Y-97203038D01*
X156443038Y-97388987D01*
X156296939Y-97607641D01*
X156196304Y-97850595D01*
X156145000Y-98108514D01*
X156145000Y-98371486D01*
X156196304Y-98629405D01*
X156296939Y-98872359D01*
X156443038Y-99091013D01*
X156628987Y-99276962D01*
X156847641Y-99423061D01*
X157057530Y-99510000D01*
X156847641Y-99596939D01*
X156628987Y-99743038D01*
X156443038Y-99928987D01*
X156296939Y-100147641D01*
X156196304Y-100390595D01*
X156145000Y-100648514D01*
X156145000Y-100911486D01*
X156196304Y-101169405D01*
X156296939Y-101412359D01*
X156443038Y-101631013D01*
X156628987Y-101816962D01*
X156847641Y-101963061D01*
X157090595Y-102063696D01*
X157348514Y-102115000D01*
X157611486Y-102115000D01*
X157869405Y-102063696D01*
X158112359Y-101963061D01*
X158331013Y-101816962D01*
X158340001Y-101807974D01*
X158340000Y-103972025D01*
X158331013Y-103963038D01*
X158112359Y-103816939D01*
X157869405Y-103716304D01*
X157611486Y-103665000D01*
X157348514Y-103665000D01*
X157090595Y-103716304D01*
X156847641Y-103816939D01*
X156628987Y-103963038D01*
X156443038Y-104148987D01*
X156296939Y-104367641D01*
X156196304Y-104610595D01*
X156145000Y-104868514D01*
X156145000Y-105131486D01*
X156196304Y-105389405D01*
X156296939Y-105632359D01*
X156443038Y-105851013D01*
X156628987Y-106036962D01*
X156847641Y-106183061D01*
X157057530Y-106270000D01*
X156847641Y-106356939D01*
X156628987Y-106503038D01*
X156443038Y-106688987D01*
X156296939Y-106907641D01*
X156196304Y-107150595D01*
X156145000Y-107408514D01*
X156145000Y-107671486D01*
X156196304Y-107929405D01*
X156296939Y-108172359D01*
X156443038Y-108391013D01*
X156628987Y-108576962D01*
X156847641Y-108723061D01*
X157057530Y-108810000D01*
X156847641Y-108896939D01*
X156628987Y-109043038D01*
X156443038Y-109228987D01*
X156296939Y-109447641D01*
X156196304Y-109690595D01*
X156145000Y-109948514D01*
X156145000Y-110211486D01*
X156196304Y-110469405D01*
X156296939Y-110712359D01*
X156443038Y-110931013D01*
X156628987Y-111116962D01*
X156847641Y-111263061D01*
X157057530Y-111350000D01*
X156847641Y-111436939D01*
X156628987Y-111583038D01*
X156443038Y-111768987D01*
X156296939Y-111987641D01*
X156196304Y-112230595D01*
X156145000Y-112488514D01*
X156145000Y-112751486D01*
X156196304Y-113009405D01*
X156296939Y-113252359D01*
X156443038Y-113471013D01*
X156628987Y-113656962D01*
X156847641Y-113803061D01*
X157057530Y-113890000D01*
X156847641Y-113976939D01*
X156628987Y-114123038D01*
X156443038Y-114308987D01*
X156296939Y-114527641D01*
X156196304Y-114770595D01*
X156145000Y-115028514D01*
X156145000Y-115291486D01*
X156196304Y-115549405D01*
X156296939Y-115792359D01*
X156443038Y-116011013D01*
X156628987Y-116196962D01*
X156847641Y-116343061D01*
X157057530Y-116430000D01*
X156847641Y-116516939D01*
X156628987Y-116663038D01*
X156443038Y-116848987D01*
X156296939Y-117067641D01*
X156196304Y-117310595D01*
X156145000Y-117568514D01*
X156145000Y-117831486D01*
X156196304Y-118089405D01*
X156296939Y-118332359D01*
X156443038Y-118551013D01*
X156628987Y-118736962D01*
X156847641Y-118883061D01*
X157057530Y-118970000D01*
X156847641Y-119056939D01*
X156628987Y-119203038D01*
X156443038Y-119388987D01*
X156296939Y-119607641D01*
X156196304Y-119850595D01*
X156145000Y-120108514D01*
X156145000Y-120371486D01*
X156196304Y-120629405D01*
X156296939Y-120872359D01*
X156443038Y-121091013D01*
X156628987Y-121276962D01*
X156847641Y-121423061D01*
X157057530Y-121510000D01*
X156847641Y-121596939D01*
X156628987Y-121743038D01*
X156443038Y-121928987D01*
X156296939Y-122147641D01*
X156196304Y-122390595D01*
X156145000Y-122648514D01*
X156145000Y-122911486D01*
X156196304Y-123169405D01*
X156296939Y-123412359D01*
X156443038Y-123631013D01*
X156628987Y-123816962D01*
X156847641Y-123963061D01*
X157090595Y-124063696D01*
X157348514Y-124115000D01*
X157611486Y-124115000D01*
X157869405Y-124063696D01*
X158112359Y-123963061D01*
X158331013Y-123816962D01*
X158340000Y-123807975D01*
X158340000Y-127726619D01*
X158131450Y-127935169D01*
X158185000Y-127665958D01*
X158185000Y-127334042D01*
X158120246Y-127008504D01*
X157993228Y-126701853D01*
X157808825Y-126425875D01*
X157574125Y-126191175D01*
X157298147Y-126006772D01*
X156991496Y-125879754D01*
X156665958Y-125815000D01*
X156334042Y-125815000D01*
X156008504Y-125879754D01*
X155701853Y-126006772D01*
X155425875Y-126191175D01*
X155191175Y-126425875D01*
X155006772Y-126701853D01*
X154879754Y-127008504D01*
X154815000Y-127334042D01*
X154815000Y-127665958D01*
X154879754Y-127991496D01*
X155006772Y-128298147D01*
X155191175Y-128574125D01*
X155425875Y-128808825D01*
X155701853Y-128993228D01*
X156008504Y-129120246D01*
X156334042Y-129185000D01*
X156665958Y-129185000D01*
X156935170Y-129131450D01*
X156726620Y-129340000D01*
X143273381Y-129340000D01*
X143064831Y-129131450D01*
X143334042Y-129185000D01*
X143665958Y-129185000D01*
X143991496Y-129120246D01*
X144298147Y-128993228D01*
X144574125Y-128808825D01*
X144808825Y-128574125D01*
X144993228Y-128298147D01*
X145120246Y-127991496D01*
X145185000Y-127665958D01*
X145185000Y-127334042D01*
X145120246Y-127008504D01*
X144993228Y-126701853D01*
X144808825Y-126425875D01*
X144574125Y-126191175D01*
X144298147Y-126006772D01*
X143991496Y-125879754D01*
X143665958Y-125815000D01*
X143334042Y-125815000D01*
X143008504Y-125879754D01*
X142701853Y-126006772D01*
X142425875Y-126191175D01*
X142191175Y-126425875D01*
X142006772Y-126701853D01*
X141879754Y-127008504D01*
X141815000Y-127334042D01*
X141815000Y-127665958D01*
X141868550Y-127935170D01*
X141660000Y-127726620D01*
X141660000Y-124204749D01*
X141850595Y-124283696D01*
X142108514Y-124335000D01*
X142371486Y-124335000D01*
X142629405Y-124283696D01*
X142872359Y-124183061D01*
X143091013Y-124036962D01*
X143274235Y-123853740D01*
X145975000Y-123853740D01*
X145975000Y-124146260D01*
X146032068Y-124433158D01*
X146144010Y-124703411D01*
X146306525Y-124946632D01*
X146513368Y-125153475D01*
X146687760Y-125270000D01*
X146513368Y-125386525D01*
X146306525Y-125593368D01*
X146144010Y-125836589D01*
X146032068Y-126106842D01*
X145975000Y-126393740D01*
X145975000Y-126686260D01*
X146032068Y-126973158D01*
X146144010Y-127243411D01*
X146306525Y-127486632D01*
X146513368Y-127693475D01*
X146756589Y-127855990D01*
X147026842Y-127967932D01*
X147313740Y-128025000D01*
X147606260Y-128025000D01*
X147893158Y-127967932D01*
X148163411Y-127855990D01*
X148406632Y-127693475D01*
X148613475Y-127486632D01*
X148730000Y-127312240D01*
X148846525Y-127486632D01*
X149053368Y-127693475D01*
X149296589Y-127855990D01*
X149566842Y-127967932D01*
X149853740Y-128025000D01*
X150146260Y-128025000D01*
X150433158Y-127967932D01*
X150703411Y-127855990D01*
X150946632Y-127693475D01*
X151153475Y-127486632D01*
X151270000Y-127312240D01*
X151386525Y-127486632D01*
X151593368Y-127693475D01*
X151836589Y-127855990D01*
X152106842Y-127967932D01*
X152393740Y-128025000D01*
X152686260Y-128025000D01*
X152973158Y-127967932D01*
X153243411Y-127855990D01*
X153486632Y-127693475D01*
X153693475Y-127486632D01*
X153855990Y-127243411D01*
X153967932Y-126973158D01*
X154025000Y-126686260D01*
X154025000Y-126393740D01*
X153967932Y-126106842D01*
X153855990Y-125836589D01*
X153693475Y-125593368D01*
X153561620Y-125461513D01*
X153634180Y-125439502D01*
X153744494Y-125380537D01*
X153841185Y-125301185D01*
X153920537Y-125204494D01*
X153979502Y-125094180D01*
X154015812Y-124974482D01*
X154028072Y-124850000D01*
X154025000Y-124285750D01*
X153866250Y-124127000D01*
X152667000Y-124127000D01*
X152667000Y-124147000D01*
X152413000Y-124147000D01*
X152413000Y-124127000D01*
X152393000Y-124127000D01*
X152393000Y-123873000D01*
X152413000Y-123873000D01*
X152413000Y-122673750D01*
X152667000Y-122673750D01*
X152667000Y-123873000D01*
X153866250Y-123873000D01*
X154025000Y-123714250D01*
X154028072Y-123150000D01*
X154015812Y-123025518D01*
X153979502Y-122905820D01*
X153920537Y-122795506D01*
X153841185Y-122698815D01*
X153744494Y-122619463D01*
X153634180Y-122560498D01*
X153514482Y-122524188D01*
X153390000Y-122511928D01*
X152825750Y-122515000D01*
X152667000Y-122673750D01*
X152413000Y-122673750D01*
X152254250Y-122515000D01*
X151690000Y-122511928D01*
X151565518Y-122524188D01*
X151445820Y-122560498D01*
X151335506Y-122619463D01*
X151238815Y-122698815D01*
X151159463Y-122795506D01*
X151100498Y-122905820D01*
X151078487Y-122978380D01*
X150946632Y-122846525D01*
X150703411Y-122684010D01*
X150433158Y-122572068D01*
X150146260Y-122515000D01*
X149853740Y-122515000D01*
X149566842Y-122572068D01*
X149296589Y-122684010D01*
X149053368Y-122846525D01*
X148846525Y-123053368D01*
X148730000Y-123227760D01*
X148613475Y-123053368D01*
X148406632Y-122846525D01*
X148163411Y-122684010D01*
X147893158Y-122572068D01*
X147606260Y-122515000D01*
X147313740Y-122515000D01*
X147026842Y-122572068D01*
X146756589Y-122684010D01*
X146513368Y-122846525D01*
X146306525Y-123053368D01*
X146144010Y-123296589D01*
X146032068Y-123566842D01*
X145975000Y-123853740D01*
X143274235Y-123853740D01*
X143276962Y-123851013D01*
X143423061Y-123632359D01*
X143523696Y-123389405D01*
X143575000Y-123131486D01*
X143575000Y-122868514D01*
X143523696Y-122610595D01*
X143423061Y-122367641D01*
X143276962Y-122148987D01*
X143091013Y-121963038D01*
X142872359Y-121816939D01*
X142662470Y-121730000D01*
X142872359Y-121643061D01*
X143091013Y-121496962D01*
X143276962Y-121311013D01*
X143423061Y-121092359D01*
X143523696Y-120849405D01*
X143575000Y-120591486D01*
X143575000Y-120328514D01*
X143523696Y-120070595D01*
X143423061Y-119827641D01*
X143276962Y-119608987D01*
X143091013Y-119423038D01*
X142872359Y-119276939D01*
X142662470Y-119190000D01*
X142872359Y-119103061D01*
X143091013Y-118956962D01*
X143276962Y-118771013D01*
X143423061Y-118552359D01*
X143523696Y-118309405D01*
X143575000Y-118051486D01*
X143575000Y-117788514D01*
X143565445Y-117740475D01*
X147365000Y-117740475D01*
X147365000Y-118259525D01*
X147466261Y-118768601D01*
X147664893Y-119248141D01*
X147953262Y-119679715D01*
X148320285Y-120046738D01*
X148751859Y-120335107D01*
X149231399Y-120533739D01*
X149740475Y-120635000D01*
X150259525Y-120635000D01*
X150768601Y-120533739D01*
X151248141Y-120335107D01*
X151679715Y-120046738D01*
X152046738Y-119679715D01*
X152335107Y-119248141D01*
X152533739Y-118768601D01*
X152635000Y-118259525D01*
X152635000Y-117740475D01*
X152533739Y-117231399D01*
X152335107Y-116751859D01*
X152046738Y-116320285D01*
X151679715Y-115953262D01*
X151248141Y-115664893D01*
X150768601Y-115466261D01*
X150259525Y-115365000D01*
X149740475Y-115365000D01*
X149231399Y-115466261D01*
X148751859Y-115664893D01*
X148320285Y-115953262D01*
X147953262Y-116320285D01*
X147664893Y-116751859D01*
X147466261Y-117231399D01*
X147365000Y-117740475D01*
X143565445Y-117740475D01*
X143523696Y-117530595D01*
X143423061Y-117287641D01*
X143276962Y-117068987D01*
X143091013Y-116883038D01*
X142872359Y-116736939D01*
X142662470Y-116650000D01*
X142872359Y-116563061D01*
X143091013Y-116416962D01*
X143276962Y-116231013D01*
X143423061Y-116012359D01*
X143523696Y-115769405D01*
X143575000Y-115511486D01*
X143575000Y-115248514D01*
X143523696Y-114990595D01*
X143423061Y-114747641D01*
X143276962Y-114528987D01*
X143091013Y-114343038D01*
X142872359Y-114196939D01*
X142662470Y-114110000D01*
X142872359Y-114023061D01*
X143091013Y-113876962D01*
X143276962Y-113691013D01*
X143423061Y-113472359D01*
X143523696Y-113229405D01*
X143575000Y-112971486D01*
X143575000Y-112907911D01*
X153065000Y-112907911D01*
X153065000Y-113092089D01*
X153100932Y-113272729D01*
X153171414Y-113442889D01*
X153273738Y-113596028D01*
X153403972Y-113726262D01*
X153557111Y-113828586D01*
X153727271Y-113899068D01*
X153907911Y-113935000D01*
X154092089Y-113935000D01*
X154272729Y-113899068D01*
X154442889Y-113828586D01*
X154596028Y-113726262D01*
X154726262Y-113596028D01*
X154828586Y-113442889D01*
X154899068Y-113272729D01*
X154935000Y-113092089D01*
X154935000Y-112907911D01*
X154899068Y-112727271D01*
X154828586Y-112557111D01*
X154726262Y-112403972D01*
X154596028Y-112273738D01*
X154442889Y-112171414D01*
X154272729Y-112100932D01*
X154092089Y-112065000D01*
X153907911Y-112065000D01*
X153727271Y-112100932D01*
X153557111Y-112171414D01*
X153403972Y-112273738D01*
X153273738Y-112403972D01*
X153171414Y-112557111D01*
X153100932Y-112727271D01*
X153065000Y-112907911D01*
X143575000Y-112907911D01*
X143575000Y-112708514D01*
X143523696Y-112450595D01*
X143423061Y-112207641D01*
X143276962Y-111988987D01*
X143091013Y-111803038D01*
X142872359Y-111656939D01*
X142662470Y-111570000D01*
X142872359Y-111483061D01*
X143091013Y-111336962D01*
X143276962Y-111151013D01*
X143423061Y-110932359D01*
X143433187Y-110907911D01*
X147065000Y-110907911D01*
X147065000Y-111092089D01*
X147100932Y-111272729D01*
X147171414Y-111442889D01*
X147273738Y-111596028D01*
X147403972Y-111726262D01*
X147557111Y-111828586D01*
X147727271Y-111899068D01*
X147907911Y-111935000D01*
X148092089Y-111935000D01*
X148272729Y-111899068D01*
X148442889Y-111828586D01*
X148596028Y-111726262D01*
X148726262Y-111596028D01*
X148828586Y-111442889D01*
X148899068Y-111272729D01*
X148935000Y-111092089D01*
X148935000Y-110907911D01*
X151065000Y-110907911D01*
X151065000Y-111092089D01*
X151100932Y-111272729D01*
X151171414Y-111442889D01*
X151273738Y-111596028D01*
X151403972Y-111726262D01*
X151557111Y-111828586D01*
X151727271Y-111899068D01*
X151907911Y-111935000D01*
X152092089Y-111935000D01*
X152272729Y-111899068D01*
X152442889Y-111828586D01*
X152596028Y-111726262D01*
X152726262Y-111596028D01*
X152828586Y-111442889D01*
X152899068Y-111272729D01*
X152935000Y-111092089D01*
X152935000Y-110907911D01*
X152899068Y-110727271D01*
X152828586Y-110557111D01*
X152726262Y-110403972D01*
X152596028Y-110273738D01*
X152442889Y-110171414D01*
X152272729Y-110100932D01*
X152092089Y-110065000D01*
X151907911Y-110065000D01*
X151727271Y-110100932D01*
X151557111Y-110171414D01*
X151403972Y-110273738D01*
X151273738Y-110403972D01*
X151171414Y-110557111D01*
X151100932Y-110727271D01*
X151065000Y-110907911D01*
X148935000Y-110907911D01*
X148899068Y-110727271D01*
X148828586Y-110557111D01*
X148726262Y-110403972D01*
X148596028Y-110273738D01*
X148442889Y-110171414D01*
X148272729Y-110100932D01*
X148092089Y-110065000D01*
X147907911Y-110065000D01*
X147727271Y-110100932D01*
X147557111Y-110171414D01*
X147403972Y-110273738D01*
X147273738Y-110403972D01*
X147171414Y-110557111D01*
X147100932Y-110727271D01*
X147065000Y-110907911D01*
X143433187Y-110907911D01*
X143523696Y-110689405D01*
X143575000Y-110431486D01*
X143575000Y-110168514D01*
X143523696Y-109910595D01*
X143423061Y-109667641D01*
X143276962Y-109448987D01*
X143091013Y-109263038D01*
X142872359Y-109116939D01*
X142662470Y-109030000D01*
X142872359Y-108943061D01*
X142924965Y-108907911D01*
X149065000Y-108907911D01*
X149065000Y-109092089D01*
X149100932Y-109272729D01*
X149171414Y-109442889D01*
X149273738Y-109596028D01*
X149403972Y-109726262D01*
X149557111Y-109828586D01*
X149727271Y-109899068D01*
X149907911Y-109935000D01*
X150092089Y-109935000D01*
X150272729Y-109899068D01*
X150442889Y-109828586D01*
X150596028Y-109726262D01*
X150726262Y-109596028D01*
X150828586Y-109442889D01*
X150899068Y-109272729D01*
X150935000Y-109092089D01*
X150935000Y-108907911D01*
X150899068Y-108727271D01*
X150828586Y-108557111D01*
X150726262Y-108403972D01*
X150596028Y-108273738D01*
X150442889Y-108171414D01*
X150272729Y-108100932D01*
X150092089Y-108065000D01*
X149907911Y-108065000D01*
X149727271Y-108100932D01*
X149557111Y-108171414D01*
X149403972Y-108273738D01*
X149273738Y-108403972D01*
X149171414Y-108557111D01*
X149100932Y-108727271D01*
X149065000Y-108907911D01*
X142924965Y-108907911D01*
X143091013Y-108796962D01*
X143276962Y-108611013D01*
X143423061Y-108392359D01*
X143523696Y-108149405D01*
X143575000Y-107891486D01*
X143575000Y-107628514D01*
X143523696Y-107370595D01*
X143423061Y-107127641D01*
X143276962Y-106908987D01*
X143275886Y-106907911D01*
X147065000Y-106907911D01*
X147065000Y-107092089D01*
X147100932Y-107272729D01*
X147171414Y-107442889D01*
X147273738Y-107596028D01*
X147403972Y-107726262D01*
X147557111Y-107828586D01*
X147727271Y-107899068D01*
X147907911Y-107935000D01*
X148092089Y-107935000D01*
X148272729Y-107899068D01*
X148442889Y-107828586D01*
X148596028Y-107726262D01*
X148726262Y-107596028D01*
X148828586Y-107442889D01*
X148899068Y-107272729D01*
X148935000Y-107092089D01*
X148935000Y-106907911D01*
X151065000Y-106907911D01*
X151065000Y-107092089D01*
X151100932Y-107272729D01*
X151171414Y-107442889D01*
X151273738Y-107596028D01*
X151403972Y-107726262D01*
X151557111Y-107828586D01*
X151727271Y-107899068D01*
X151907911Y-107935000D01*
X152092089Y-107935000D01*
X152272729Y-107899068D01*
X152442889Y-107828586D01*
X152596028Y-107726262D01*
X152726262Y-107596028D01*
X152828586Y-107442889D01*
X152899068Y-107272729D01*
X152935000Y-107092089D01*
X152935000Y-106907911D01*
X152899068Y-106727271D01*
X152828586Y-106557111D01*
X152726262Y-106403972D01*
X152596028Y-106273738D01*
X152442889Y-106171414D01*
X152272729Y-106100932D01*
X152092089Y-106065000D01*
X151907911Y-106065000D01*
X151727271Y-106100932D01*
X151557111Y-106171414D01*
X151403972Y-106273738D01*
X151273738Y-106403972D01*
X151171414Y-106557111D01*
X151100932Y-106727271D01*
X151065000Y-106907911D01*
X148935000Y-106907911D01*
X148899068Y-106727271D01*
X148828586Y-106557111D01*
X148726262Y-106403972D01*
X148596028Y-106273738D01*
X148442889Y-106171414D01*
X148272729Y-106100932D01*
X148092089Y-106065000D01*
X147907911Y-106065000D01*
X147727271Y-106100932D01*
X147557111Y-106171414D01*
X147403972Y-106273738D01*
X147273738Y-106403972D01*
X147171414Y-106557111D01*
X147100932Y-106727271D01*
X147065000Y-106907911D01*
X143275886Y-106907911D01*
X143091013Y-106723038D01*
X142872359Y-106576939D01*
X142662470Y-106490000D01*
X142872359Y-106403061D01*
X143091013Y-106256962D01*
X143276962Y-106071013D01*
X143423061Y-105852359D01*
X143523696Y-105609405D01*
X143575000Y-105351486D01*
X143575000Y-105088514D01*
X143523696Y-104830595D01*
X143423061Y-104587641D01*
X143276962Y-104368987D01*
X143091013Y-104183038D01*
X142872359Y-104036939D01*
X142629405Y-103936304D01*
X142371486Y-103885000D01*
X142108514Y-103885000D01*
X141850595Y-103936304D01*
X141660000Y-104015251D01*
X141660000Y-102204749D01*
X141850595Y-102283696D01*
X142108514Y-102335000D01*
X142371486Y-102335000D01*
X142629405Y-102283696D01*
X142872359Y-102183061D01*
X143091013Y-102036962D01*
X143276962Y-101851013D01*
X143423061Y-101632359D01*
X143523696Y-101389405D01*
X143575000Y-101131486D01*
X143575000Y-100868514D01*
X143523696Y-100610595D01*
X143423061Y-100367641D01*
X143338092Y-100240475D01*
X147365000Y-100240475D01*
X147365000Y-100759525D01*
X147466261Y-101268601D01*
X147664893Y-101748141D01*
X147953262Y-102179715D01*
X148320285Y-102546738D01*
X148751859Y-102835107D01*
X149231399Y-103033739D01*
X149740475Y-103135000D01*
X150259525Y-103135000D01*
X150768601Y-103033739D01*
X151248141Y-102835107D01*
X151679715Y-102546738D01*
X152046738Y-102179715D01*
X152335107Y-101748141D01*
X152533739Y-101268601D01*
X152635000Y-100759525D01*
X152635000Y-100240475D01*
X152533739Y-99731399D01*
X152335107Y-99251859D01*
X152046738Y-98820285D01*
X151679715Y-98453262D01*
X151248141Y-98164893D01*
X150768601Y-97966261D01*
X150259525Y-97865000D01*
X149740475Y-97865000D01*
X149231399Y-97966261D01*
X148751859Y-98164893D01*
X148320285Y-98453262D01*
X147953262Y-98820285D01*
X147664893Y-99251859D01*
X147466261Y-99731399D01*
X147365000Y-100240475D01*
X143338092Y-100240475D01*
X143276962Y-100148987D01*
X143091013Y-99963038D01*
X142872359Y-99816939D01*
X142662470Y-99730000D01*
X142872359Y-99643061D01*
X143091013Y-99496962D01*
X143276962Y-99311013D01*
X143423061Y-99092359D01*
X143523696Y-98849405D01*
X143575000Y-98591486D01*
X143575000Y-98328514D01*
X143523696Y-98070595D01*
X143423061Y-97827641D01*
X143276962Y-97608987D01*
X143091013Y-97423038D01*
X142872359Y-97276939D01*
X142662470Y-97190000D01*
X142872359Y-97103061D01*
X143091013Y-96956962D01*
X143276962Y-96771013D01*
X143423061Y-96552359D01*
X143523696Y-96309405D01*
X143575000Y-96051486D01*
X143575000Y-95788514D01*
X143523696Y-95530595D01*
X143423061Y-95287641D01*
X143276962Y-95068987D01*
X143091013Y-94883038D01*
X142872359Y-94736939D01*
X142662470Y-94650000D01*
X142872359Y-94563061D01*
X143091013Y-94416962D01*
X143276962Y-94231013D01*
X143423061Y-94012359D01*
X143523696Y-93769405D01*
X143575000Y-93511486D01*
X143575000Y-93248514D01*
X143523696Y-92990595D01*
X143423061Y-92747641D01*
X143276962Y-92528987D01*
X143091013Y-92343038D01*
X142872359Y-92196939D01*
X142662470Y-92110000D01*
X142872359Y-92023061D01*
X143091013Y-91876962D01*
X143276962Y-91691013D01*
X143423061Y-91472359D01*
X143523696Y-91229405D01*
X143575000Y-90971486D01*
X143575000Y-90708514D01*
X143523696Y-90450595D01*
X143423061Y-90207641D01*
X143276962Y-89988987D01*
X143091013Y-89803038D01*
X142872359Y-89656939D01*
X142662470Y-89570000D01*
X142872359Y-89483061D01*
X143091013Y-89336962D01*
X143276962Y-89151013D01*
X143423061Y-88932359D01*
X143523696Y-88689405D01*
X143575000Y-88431486D01*
X143575000Y-88168514D01*
X143523696Y-87910595D01*
X143423061Y-87667641D01*
X143276962Y-87448987D01*
X143091013Y-87263038D01*
X142872359Y-87116939D01*
X142662470Y-87030000D01*
X142872359Y-86943061D01*
X143091013Y-86796962D01*
X143276962Y-86611013D01*
X143423061Y-86392359D01*
X143523696Y-86149405D01*
X143575000Y-85891486D01*
X143575000Y-85628514D01*
X143523696Y-85370595D01*
X143423061Y-85127641D01*
X143276962Y-84908987D01*
X143091013Y-84723038D01*
X142872359Y-84576939D01*
X142662470Y-84490000D01*
X142872359Y-84403061D01*
X143091013Y-84256962D01*
X143276962Y-84071013D01*
X143423061Y-83852359D01*
X143523696Y-83609405D01*
X143575000Y-83351486D01*
X143575000Y-83088514D01*
X143523696Y-82830595D01*
X143486368Y-82740475D01*
X147365000Y-82740475D01*
X147365000Y-83259525D01*
X147466261Y-83768601D01*
X147664893Y-84248141D01*
X147953262Y-84679715D01*
X148320285Y-85046738D01*
X148751859Y-85335107D01*
X149231399Y-85533739D01*
X149740475Y-85635000D01*
X150259525Y-85635000D01*
X150768601Y-85533739D01*
X151248141Y-85335107D01*
X151679715Y-85046738D01*
X152046738Y-84679715D01*
X152335107Y-84248141D01*
X152533739Y-83768601D01*
X152635000Y-83259525D01*
X152635000Y-82740475D01*
X152533739Y-82231399D01*
X152335107Y-81751859D01*
X152046738Y-81320285D01*
X151679715Y-80953262D01*
X151248141Y-80664893D01*
X150768601Y-80466261D01*
X150259525Y-80365000D01*
X149740475Y-80365000D01*
X149231399Y-80466261D01*
X148751859Y-80664893D01*
X148320285Y-80953262D01*
X147953262Y-81320285D01*
X147664893Y-81751859D01*
X147466261Y-82231399D01*
X147365000Y-82740475D01*
X143486368Y-82740475D01*
X143423061Y-82587641D01*
X143276962Y-82368987D01*
X143091013Y-82183038D01*
X142872359Y-82036939D01*
X142629405Y-81936304D01*
X142371486Y-81885000D01*
X142108514Y-81885000D01*
X141850595Y-81936304D01*
X141660000Y-82015251D01*
X141660000Y-78273380D01*
X141868550Y-78064830D01*
X141815000Y-78334042D01*
X141815000Y-78665958D01*
X141879754Y-78991496D01*
X142006772Y-79298147D01*
X142191175Y-79574125D01*
X142425875Y-79808825D01*
X142701853Y-79993228D01*
X143008504Y-80120246D01*
X143334042Y-80185000D01*
X143665958Y-80185000D01*
X143991496Y-80120246D01*
X144298147Y-79993228D01*
X144574125Y-79808825D01*
X144808825Y-79574125D01*
X144993228Y-79298147D01*
X145120246Y-78991496D01*
X145185000Y-78665958D01*
X145185000Y-78334042D01*
X145120246Y-78008504D01*
X144993228Y-77701853D01*
X144808825Y-77425875D01*
X144574125Y-77191175D01*
X144298147Y-77006772D01*
X143991496Y-76879754D01*
X143665958Y-76815000D01*
X143334042Y-76815000D01*
X143064831Y-76868550D01*
X143273381Y-76660000D01*
X156726620Y-76660000D01*
X156935170Y-76868550D01*
G37*
X156935170Y-76868550D02*
X156665958Y-76815000D01*
X156334042Y-76815000D01*
X156008504Y-76879754D01*
X155701853Y-77006772D01*
X155425875Y-77191175D01*
X155191175Y-77425875D01*
X155006772Y-77701853D01*
X154879754Y-78008504D01*
X154815000Y-78334042D01*
X154815000Y-78665958D01*
X154879754Y-78991496D01*
X155006772Y-79298147D01*
X155191175Y-79574125D01*
X155425875Y-79808825D01*
X155701853Y-79993228D01*
X156008504Y-80120246D01*
X156334042Y-80185000D01*
X156665958Y-80185000D01*
X156991496Y-80120246D01*
X157298147Y-79993228D01*
X157574125Y-79808825D01*
X157808825Y-79574125D01*
X157993228Y-79298147D01*
X158120246Y-78991496D01*
X158185000Y-78665958D01*
X158185000Y-78334042D01*
X158131450Y-78064831D01*
X158340001Y-78273382D01*
X158340001Y-81972026D01*
X158331013Y-81963038D01*
X158112359Y-81816939D01*
X157869405Y-81716304D01*
X157611486Y-81665000D01*
X157348514Y-81665000D01*
X157090595Y-81716304D01*
X156847641Y-81816939D01*
X156628987Y-81963038D01*
X156443038Y-82148987D01*
X156296939Y-82367641D01*
X156196304Y-82610595D01*
X156145000Y-82868514D01*
X156145000Y-83131486D01*
X156196304Y-83389405D01*
X156296939Y-83632359D01*
X156443038Y-83851013D01*
X156628987Y-84036962D01*
X156847641Y-84183061D01*
X157057530Y-84270000D01*
X156847641Y-84356939D01*
X156628987Y-84503038D01*
X156443038Y-84688987D01*
X156296939Y-84907641D01*
X156196304Y-85150595D01*
X156145000Y-85408514D01*
X156145000Y-85671486D01*
X156196304Y-85929405D01*
X156296939Y-86172359D01*
X156443038Y-86391013D01*
X156628987Y-86576962D01*
X156847641Y-86723061D01*
X157057530Y-86810000D01*
X156847641Y-86896939D01*
X156628987Y-87043038D01*
X156443038Y-87228987D01*
X156296939Y-87447641D01*
X156196304Y-87690595D01*
X156145000Y-87948514D01*
X156145000Y-88211486D01*
X156196304Y-88469405D01*
X156296939Y-88712359D01*
X156443038Y-88931013D01*
X156628987Y-89116962D01*
X156847641Y-89263061D01*
X157057530Y-89350000D01*
X156847641Y-89436939D01*
X156628987Y-89583038D01*
X156443038Y-89768987D01*
X156296939Y-89987641D01*
X156196304Y-90230595D01*
X156145000Y-90488514D01*
X156145000Y-90751486D01*
X156196304Y-91009405D01*
X156296939Y-91252359D01*
X156443038Y-91471013D01*
X156628987Y-91656962D01*
X156847641Y-91803061D01*
X157057530Y-91890000D01*
X156847641Y-91976939D01*
X156628987Y-92123038D01*
X156443038Y-92308987D01*
X156296939Y-92527641D01*
X156196304Y-92770595D01*
X156145000Y-93028514D01*
X156145000Y-93291486D01*
X156196304Y-93549405D01*
X156296939Y-93792359D01*
X156443038Y-94011013D01*
X156628987Y-94196962D01*
X156847641Y-94343061D01*
X157057530Y-94430000D01*
X156847641Y-94516939D01*
X156628987Y-94663038D01*
X156443038Y-94848987D01*
X156296939Y-95067641D01*
X156196304Y-95310595D01*
X156145000Y-95568514D01*
X156145000Y-95831486D01*
X156196304Y-96089405D01*
X156296939Y-96332359D01*
X156443038Y-96551013D01*
X156628987Y-96736962D01*
X156847641Y-96883061D01*
X157057530Y-96970000D01*
X156847641Y-97056939D01*
X156628987Y-97203038D01*
X156443038Y-97388987D01*
X156296939Y-97607641D01*
X156196304Y-97850595D01*
X156145000Y-98108514D01*
X156145000Y-98371486D01*
X156196304Y-98629405D01*
X156296939Y-98872359D01*
X156443038Y-99091013D01*
X156628987Y-99276962D01*
X156847641Y-99423061D01*
X157057530Y-99510000D01*
X156847641Y-99596939D01*
X156628987Y-99743038D01*
X156443038Y-99928987D01*
X156296939Y-100147641D01*
X156196304Y-100390595D01*
X156145000Y-100648514D01*
X156145000Y-100911486D01*
X156196304Y-101169405D01*
X156296939Y-101412359D01*
X156443038Y-101631013D01*
X156628987Y-101816962D01*
X156847641Y-101963061D01*
X157090595Y-102063696D01*
X157348514Y-102115000D01*
X157611486Y-102115000D01*
X157869405Y-102063696D01*
X158112359Y-101963061D01*
X158331013Y-101816962D01*
X158340001Y-101807974D01*
X158340000Y-103972025D01*
X158331013Y-103963038D01*
X158112359Y-103816939D01*
X157869405Y-103716304D01*
X157611486Y-103665000D01*
X157348514Y-103665000D01*
X157090595Y-103716304D01*
X156847641Y-103816939D01*
X156628987Y-103963038D01*
X156443038Y-104148987D01*
X156296939Y-104367641D01*
X156196304Y-104610595D01*
X156145000Y-104868514D01*
X156145000Y-105131486D01*
X156196304Y-105389405D01*
X156296939Y-105632359D01*
X156443038Y-105851013D01*
X156628987Y-106036962D01*
X156847641Y-106183061D01*
X157057530Y-106270000D01*
X156847641Y-106356939D01*
X156628987Y-106503038D01*
X156443038Y-106688987D01*
X156296939Y-106907641D01*
X156196304Y-107150595D01*
X156145000Y-107408514D01*
X156145000Y-107671486D01*
X156196304Y-107929405D01*
X156296939Y-108172359D01*
X156443038Y-108391013D01*
X156628987Y-108576962D01*
X156847641Y-108723061D01*
X157057530Y-108810000D01*
X156847641Y-108896939D01*
X156628987Y-109043038D01*
X156443038Y-109228987D01*
X156296939Y-109447641D01*
X156196304Y-109690595D01*
X156145000Y-109948514D01*
X156145000Y-110211486D01*
X156196304Y-110469405D01*
X156296939Y-110712359D01*
X156443038Y-110931013D01*
X156628987Y-111116962D01*
X156847641Y-111263061D01*
X157057530Y-111350000D01*
X156847641Y-111436939D01*
X156628987Y-111583038D01*
X156443038Y-111768987D01*
X156296939Y-111987641D01*
X156196304Y-112230595D01*
X156145000Y-112488514D01*
X156145000Y-112751486D01*
X156196304Y-113009405D01*
X156296939Y-113252359D01*
X156443038Y-113471013D01*
X156628987Y-113656962D01*
X156847641Y-113803061D01*
X157057530Y-113890000D01*
X156847641Y-113976939D01*
X156628987Y-114123038D01*
X156443038Y-114308987D01*
X156296939Y-114527641D01*
X156196304Y-114770595D01*
X156145000Y-115028514D01*
X156145000Y-115291486D01*
X156196304Y-115549405D01*
X156296939Y-115792359D01*
X156443038Y-116011013D01*
X156628987Y-116196962D01*
X156847641Y-116343061D01*
X157057530Y-116430000D01*
X156847641Y-116516939D01*
X156628987Y-116663038D01*
X156443038Y-116848987D01*
X156296939Y-117067641D01*
X156196304Y-117310595D01*
X156145000Y-117568514D01*
X156145000Y-117831486D01*
X156196304Y-118089405D01*
X156296939Y-118332359D01*
X156443038Y-118551013D01*
X156628987Y-118736962D01*
X156847641Y-118883061D01*
X157057530Y-118970000D01*
X156847641Y-119056939D01*
X156628987Y-119203038D01*
X156443038Y-119388987D01*
X156296939Y-119607641D01*
X156196304Y-119850595D01*
X156145000Y-120108514D01*
X156145000Y-120371486D01*
X156196304Y-120629405D01*
X156296939Y-120872359D01*
X156443038Y-121091013D01*
X156628987Y-121276962D01*
X156847641Y-121423061D01*
X157057530Y-121510000D01*
X156847641Y-121596939D01*
X156628987Y-121743038D01*
X156443038Y-121928987D01*
X156296939Y-122147641D01*
X156196304Y-122390595D01*
X156145000Y-122648514D01*
X156145000Y-122911486D01*
X156196304Y-123169405D01*
X156296939Y-123412359D01*
X156443038Y-123631013D01*
X156628987Y-123816962D01*
X156847641Y-123963061D01*
X157090595Y-124063696D01*
X157348514Y-124115000D01*
X157611486Y-124115000D01*
X157869405Y-124063696D01*
X158112359Y-123963061D01*
X158331013Y-123816962D01*
X158340000Y-123807975D01*
X158340000Y-127726619D01*
X158131450Y-127935169D01*
X158185000Y-127665958D01*
X158185000Y-127334042D01*
X158120246Y-127008504D01*
X157993228Y-126701853D01*
X157808825Y-126425875D01*
X157574125Y-126191175D01*
X157298147Y-126006772D01*
X156991496Y-125879754D01*
X156665958Y-125815000D01*
X156334042Y-125815000D01*
X156008504Y-125879754D01*
X155701853Y-126006772D01*
X155425875Y-126191175D01*
X155191175Y-126425875D01*
X155006772Y-126701853D01*
X154879754Y-127008504D01*
X154815000Y-127334042D01*
X154815000Y-127665958D01*
X154879754Y-127991496D01*
X155006772Y-128298147D01*
X155191175Y-128574125D01*
X155425875Y-128808825D01*
X155701853Y-128993228D01*
X156008504Y-129120246D01*
X156334042Y-129185000D01*
X156665958Y-129185000D01*
X156935170Y-129131450D01*
X156726620Y-129340000D01*
X143273381Y-129340000D01*
X143064831Y-129131450D01*
X143334042Y-129185000D01*
X143665958Y-129185000D01*
X143991496Y-129120246D01*
X144298147Y-128993228D01*
X144574125Y-128808825D01*
X144808825Y-128574125D01*
X144993228Y-128298147D01*
X145120246Y-127991496D01*
X145185000Y-127665958D01*
X145185000Y-127334042D01*
X145120246Y-127008504D01*
X144993228Y-126701853D01*
X144808825Y-126425875D01*
X144574125Y-126191175D01*
X144298147Y-126006772D01*
X143991496Y-125879754D01*
X143665958Y-125815000D01*
X143334042Y-125815000D01*
X143008504Y-125879754D01*
X142701853Y-126006772D01*
X142425875Y-126191175D01*
X142191175Y-126425875D01*
X142006772Y-126701853D01*
X141879754Y-127008504D01*
X141815000Y-127334042D01*
X141815000Y-127665958D01*
X141868550Y-127935170D01*
X141660000Y-127726620D01*
X141660000Y-124204749D01*
X141850595Y-124283696D01*
X142108514Y-124335000D01*
X142371486Y-124335000D01*
X142629405Y-124283696D01*
X142872359Y-124183061D01*
X143091013Y-124036962D01*
X143274235Y-123853740D01*
X145975000Y-123853740D01*
X145975000Y-124146260D01*
X146032068Y-124433158D01*
X146144010Y-124703411D01*
X146306525Y-124946632D01*
X146513368Y-125153475D01*
X146687760Y-125270000D01*
X146513368Y-125386525D01*
X146306525Y-125593368D01*
X146144010Y-125836589D01*
X146032068Y-126106842D01*
X145975000Y-126393740D01*
X145975000Y-126686260D01*
X146032068Y-126973158D01*
X146144010Y-127243411D01*
X146306525Y-127486632D01*
X146513368Y-127693475D01*
X146756589Y-127855990D01*
X147026842Y-127967932D01*
X147313740Y-128025000D01*
X147606260Y-128025000D01*
X147893158Y-127967932D01*
X148163411Y-127855990D01*
X148406632Y-127693475D01*
X148613475Y-127486632D01*
X148730000Y-127312240D01*
X148846525Y-127486632D01*
X149053368Y-127693475D01*
X149296589Y-127855990D01*
X149566842Y-127967932D01*
X149853740Y-128025000D01*
X150146260Y-128025000D01*
X150433158Y-127967932D01*
X150703411Y-127855990D01*
X150946632Y-127693475D01*
X151153475Y-127486632D01*
X151270000Y-127312240D01*
X151386525Y-127486632D01*
X151593368Y-127693475D01*
X151836589Y-127855990D01*
X152106842Y-127967932D01*
X152393740Y-128025000D01*
X152686260Y-128025000D01*
X152973158Y-127967932D01*
X153243411Y-127855990D01*
X153486632Y-127693475D01*
X153693475Y-127486632D01*
X153855990Y-127243411D01*
X153967932Y-126973158D01*
X154025000Y-126686260D01*
X154025000Y-126393740D01*
X153967932Y-126106842D01*
X153855990Y-125836589D01*
X153693475Y-125593368D01*
X153561620Y-125461513D01*
X153634180Y-125439502D01*
X153744494Y-125380537D01*
X153841185Y-125301185D01*
X153920537Y-125204494D01*
X153979502Y-125094180D01*
X154015812Y-124974482D01*
X154028072Y-124850000D01*
X154025000Y-124285750D01*
X153866250Y-124127000D01*
X152667000Y-124127000D01*
X152667000Y-124147000D01*
X152413000Y-124147000D01*
X152413000Y-124127000D01*
X152393000Y-124127000D01*
X152393000Y-123873000D01*
X152413000Y-123873000D01*
X152413000Y-122673750D01*
X152667000Y-122673750D01*
X152667000Y-123873000D01*
X153866250Y-123873000D01*
X154025000Y-123714250D01*
X154028072Y-123150000D01*
X154015812Y-123025518D01*
X153979502Y-122905820D01*
X153920537Y-122795506D01*
X153841185Y-122698815D01*
X153744494Y-122619463D01*
X153634180Y-122560498D01*
X153514482Y-122524188D01*
X153390000Y-122511928D01*
X152825750Y-122515000D01*
X152667000Y-122673750D01*
X152413000Y-122673750D01*
X152254250Y-122515000D01*
X151690000Y-122511928D01*
X151565518Y-122524188D01*
X151445820Y-122560498D01*
X151335506Y-122619463D01*
X151238815Y-122698815D01*
X151159463Y-122795506D01*
X151100498Y-122905820D01*
X151078487Y-122978380D01*
X150946632Y-122846525D01*
X150703411Y-122684010D01*
X150433158Y-122572068D01*
X150146260Y-122515000D01*
X149853740Y-122515000D01*
X149566842Y-122572068D01*
X149296589Y-122684010D01*
X149053368Y-122846525D01*
X148846525Y-123053368D01*
X148730000Y-123227760D01*
X148613475Y-123053368D01*
X148406632Y-122846525D01*
X148163411Y-122684010D01*
X147893158Y-122572068D01*
X147606260Y-122515000D01*
X147313740Y-122515000D01*
X147026842Y-122572068D01*
X146756589Y-122684010D01*
X146513368Y-122846525D01*
X146306525Y-123053368D01*
X146144010Y-123296589D01*
X146032068Y-123566842D01*
X145975000Y-123853740D01*
X143274235Y-123853740D01*
X143276962Y-123851013D01*
X143423061Y-123632359D01*
X143523696Y-123389405D01*
X143575000Y-123131486D01*
X143575000Y-122868514D01*
X143523696Y-122610595D01*
X143423061Y-122367641D01*
X143276962Y-122148987D01*
X143091013Y-121963038D01*
X142872359Y-121816939D01*
X142662470Y-121730000D01*
X142872359Y-121643061D01*
X143091013Y-121496962D01*
X143276962Y-121311013D01*
X143423061Y-121092359D01*
X143523696Y-120849405D01*
X143575000Y-120591486D01*
X143575000Y-120328514D01*
X143523696Y-120070595D01*
X143423061Y-119827641D01*
X143276962Y-119608987D01*
X143091013Y-119423038D01*
X142872359Y-119276939D01*
X142662470Y-119190000D01*
X142872359Y-119103061D01*
X143091013Y-118956962D01*
X143276962Y-118771013D01*
X143423061Y-118552359D01*
X143523696Y-118309405D01*
X143575000Y-118051486D01*
X143575000Y-117788514D01*
X143565445Y-117740475D01*
X147365000Y-117740475D01*
X147365000Y-118259525D01*
X147466261Y-118768601D01*
X147664893Y-119248141D01*
X147953262Y-119679715D01*
X148320285Y-120046738D01*
X148751859Y-120335107D01*
X149231399Y-120533739D01*
X149740475Y-120635000D01*
X150259525Y-120635000D01*
X150768601Y-120533739D01*
X151248141Y-120335107D01*
X151679715Y-120046738D01*
X152046738Y-119679715D01*
X152335107Y-119248141D01*
X152533739Y-118768601D01*
X152635000Y-118259525D01*
X152635000Y-117740475D01*
X152533739Y-117231399D01*
X152335107Y-116751859D01*
X152046738Y-116320285D01*
X151679715Y-115953262D01*
X151248141Y-115664893D01*
X150768601Y-115466261D01*
X150259525Y-115365000D01*
X149740475Y-115365000D01*
X149231399Y-115466261D01*
X148751859Y-115664893D01*
X148320285Y-115953262D01*
X147953262Y-116320285D01*
X147664893Y-116751859D01*
X147466261Y-117231399D01*
X147365000Y-117740475D01*
X143565445Y-117740475D01*
X143523696Y-117530595D01*
X143423061Y-117287641D01*
X143276962Y-117068987D01*
X143091013Y-116883038D01*
X142872359Y-116736939D01*
X142662470Y-116650000D01*
X142872359Y-116563061D01*
X143091013Y-116416962D01*
X143276962Y-116231013D01*
X143423061Y-116012359D01*
X143523696Y-115769405D01*
X143575000Y-115511486D01*
X143575000Y-115248514D01*
X143523696Y-114990595D01*
X143423061Y-114747641D01*
X143276962Y-114528987D01*
X143091013Y-114343038D01*
X142872359Y-114196939D01*
X142662470Y-114110000D01*
X142872359Y-114023061D01*
X143091013Y-113876962D01*
X143276962Y-113691013D01*
X143423061Y-113472359D01*
X143523696Y-113229405D01*
X143575000Y-112971486D01*
X143575000Y-112907911D01*
X153065000Y-112907911D01*
X153065000Y-113092089D01*
X153100932Y-113272729D01*
X153171414Y-113442889D01*
X153273738Y-113596028D01*
X153403972Y-113726262D01*
X153557111Y-113828586D01*
X153727271Y-113899068D01*
X153907911Y-113935000D01*
X154092089Y-113935000D01*
X154272729Y-113899068D01*
X154442889Y-113828586D01*
X154596028Y-113726262D01*
X154726262Y-113596028D01*
X154828586Y-113442889D01*
X154899068Y-113272729D01*
X154935000Y-113092089D01*
X154935000Y-112907911D01*
X154899068Y-112727271D01*
X154828586Y-112557111D01*
X154726262Y-112403972D01*
X154596028Y-112273738D01*
X154442889Y-112171414D01*
X154272729Y-112100932D01*
X154092089Y-112065000D01*
X153907911Y-112065000D01*
X153727271Y-112100932D01*
X153557111Y-112171414D01*
X153403972Y-112273738D01*
X153273738Y-112403972D01*
X153171414Y-112557111D01*
X153100932Y-112727271D01*
X153065000Y-112907911D01*
X143575000Y-112907911D01*
X143575000Y-112708514D01*
X143523696Y-112450595D01*
X143423061Y-112207641D01*
X143276962Y-111988987D01*
X143091013Y-111803038D01*
X142872359Y-111656939D01*
X142662470Y-111570000D01*
X142872359Y-111483061D01*
X143091013Y-111336962D01*
X143276962Y-111151013D01*
X143423061Y-110932359D01*
X143433187Y-110907911D01*
X147065000Y-110907911D01*
X147065000Y-111092089D01*
X147100932Y-111272729D01*
X147171414Y-111442889D01*
X147273738Y-111596028D01*
X147403972Y-111726262D01*
X147557111Y-111828586D01*
X147727271Y-111899068D01*
X147907911Y-111935000D01*
X148092089Y-111935000D01*
X148272729Y-111899068D01*
X148442889Y-111828586D01*
X148596028Y-111726262D01*
X148726262Y-111596028D01*
X148828586Y-111442889D01*
X148899068Y-111272729D01*
X148935000Y-111092089D01*
X148935000Y-110907911D01*
X151065000Y-110907911D01*
X151065000Y-111092089D01*
X151100932Y-111272729D01*
X151171414Y-111442889D01*
X151273738Y-111596028D01*
X151403972Y-111726262D01*
X151557111Y-111828586D01*
X151727271Y-111899068D01*
X151907911Y-111935000D01*
X152092089Y-111935000D01*
X152272729Y-111899068D01*
X152442889Y-111828586D01*
X152596028Y-111726262D01*
X152726262Y-111596028D01*
X152828586Y-111442889D01*
X152899068Y-111272729D01*
X152935000Y-111092089D01*
X152935000Y-110907911D01*
X152899068Y-110727271D01*
X152828586Y-110557111D01*
X152726262Y-110403972D01*
X152596028Y-110273738D01*
X152442889Y-110171414D01*
X152272729Y-110100932D01*
X152092089Y-110065000D01*
X151907911Y-110065000D01*
X151727271Y-110100932D01*
X151557111Y-110171414D01*
X151403972Y-110273738D01*
X151273738Y-110403972D01*
X151171414Y-110557111D01*
X151100932Y-110727271D01*
X151065000Y-110907911D01*
X148935000Y-110907911D01*
X148899068Y-110727271D01*
X148828586Y-110557111D01*
X148726262Y-110403972D01*
X148596028Y-110273738D01*
X148442889Y-110171414D01*
X148272729Y-110100932D01*
X148092089Y-110065000D01*
X147907911Y-110065000D01*
X147727271Y-110100932D01*
X147557111Y-110171414D01*
X147403972Y-110273738D01*
X147273738Y-110403972D01*
X147171414Y-110557111D01*
X147100932Y-110727271D01*
X147065000Y-110907911D01*
X143433187Y-110907911D01*
X143523696Y-110689405D01*
X143575000Y-110431486D01*
X143575000Y-110168514D01*
X143523696Y-109910595D01*
X143423061Y-109667641D01*
X143276962Y-109448987D01*
X143091013Y-109263038D01*
X142872359Y-109116939D01*
X142662470Y-109030000D01*
X142872359Y-108943061D01*
X142924965Y-108907911D01*
X149065000Y-108907911D01*
X149065000Y-109092089D01*
X149100932Y-109272729D01*
X149171414Y-109442889D01*
X149273738Y-109596028D01*
X149403972Y-109726262D01*
X149557111Y-109828586D01*
X149727271Y-109899068D01*
X149907911Y-109935000D01*
X150092089Y-109935000D01*
X150272729Y-109899068D01*
X150442889Y-109828586D01*
X150596028Y-109726262D01*
X150726262Y-109596028D01*
X150828586Y-109442889D01*
X150899068Y-109272729D01*
X150935000Y-109092089D01*
X150935000Y-108907911D01*
X150899068Y-108727271D01*
X150828586Y-108557111D01*
X150726262Y-108403972D01*
X150596028Y-108273738D01*
X150442889Y-108171414D01*
X150272729Y-108100932D01*
X150092089Y-108065000D01*
X149907911Y-108065000D01*
X149727271Y-108100932D01*
X149557111Y-108171414D01*
X149403972Y-108273738D01*
X149273738Y-108403972D01*
X149171414Y-108557111D01*
X149100932Y-108727271D01*
X149065000Y-108907911D01*
X142924965Y-108907911D01*
X143091013Y-108796962D01*
X143276962Y-108611013D01*
X143423061Y-108392359D01*
X143523696Y-108149405D01*
X143575000Y-107891486D01*
X143575000Y-107628514D01*
X143523696Y-107370595D01*
X143423061Y-107127641D01*
X143276962Y-106908987D01*
X143275886Y-106907911D01*
X147065000Y-106907911D01*
X147065000Y-107092089D01*
X147100932Y-107272729D01*
X147171414Y-107442889D01*
X147273738Y-107596028D01*
X147403972Y-107726262D01*
X147557111Y-107828586D01*
X147727271Y-107899068D01*
X147907911Y-107935000D01*
X148092089Y-107935000D01*
X148272729Y-107899068D01*
X148442889Y-107828586D01*
X148596028Y-107726262D01*
X148726262Y-107596028D01*
X148828586Y-107442889D01*
X148899068Y-107272729D01*
X148935000Y-107092089D01*
X148935000Y-106907911D01*
X151065000Y-106907911D01*
X151065000Y-107092089D01*
X151100932Y-107272729D01*
X151171414Y-107442889D01*
X151273738Y-107596028D01*
X151403972Y-107726262D01*
X151557111Y-107828586D01*
X151727271Y-107899068D01*
X151907911Y-107935000D01*
X152092089Y-107935000D01*
X152272729Y-107899068D01*
X152442889Y-107828586D01*
X152596028Y-107726262D01*
X152726262Y-107596028D01*
X152828586Y-107442889D01*
X152899068Y-107272729D01*
X152935000Y-107092089D01*
X152935000Y-106907911D01*
X152899068Y-106727271D01*
X152828586Y-106557111D01*
X152726262Y-106403972D01*
X152596028Y-106273738D01*
X152442889Y-106171414D01*
X152272729Y-106100932D01*
X152092089Y-106065000D01*
X151907911Y-106065000D01*
X151727271Y-106100932D01*
X151557111Y-106171414D01*
X151403972Y-106273738D01*
X151273738Y-106403972D01*
X151171414Y-106557111D01*
X151100932Y-106727271D01*
X151065000Y-106907911D01*
X148935000Y-106907911D01*
X148899068Y-106727271D01*
X148828586Y-106557111D01*
X148726262Y-106403972D01*
X148596028Y-106273738D01*
X148442889Y-106171414D01*
X148272729Y-106100932D01*
X148092089Y-106065000D01*
X147907911Y-106065000D01*
X147727271Y-106100932D01*
X147557111Y-106171414D01*
X147403972Y-106273738D01*
X147273738Y-106403972D01*
X147171414Y-106557111D01*
X147100932Y-106727271D01*
X147065000Y-106907911D01*
X143275886Y-106907911D01*
X143091013Y-106723038D01*
X142872359Y-106576939D01*
X142662470Y-106490000D01*
X142872359Y-106403061D01*
X143091013Y-106256962D01*
X143276962Y-106071013D01*
X143423061Y-105852359D01*
X143523696Y-105609405D01*
X143575000Y-105351486D01*
X143575000Y-105088514D01*
X143523696Y-104830595D01*
X143423061Y-104587641D01*
X143276962Y-104368987D01*
X143091013Y-104183038D01*
X142872359Y-104036939D01*
X142629405Y-103936304D01*
X142371486Y-103885000D01*
X142108514Y-103885000D01*
X141850595Y-103936304D01*
X141660000Y-104015251D01*
X141660000Y-102204749D01*
X141850595Y-102283696D01*
X142108514Y-102335000D01*
X142371486Y-102335000D01*
X142629405Y-102283696D01*
X142872359Y-102183061D01*
X143091013Y-102036962D01*
X143276962Y-101851013D01*
X143423061Y-101632359D01*
X143523696Y-101389405D01*
X143575000Y-101131486D01*
X143575000Y-100868514D01*
X143523696Y-100610595D01*
X143423061Y-100367641D01*
X143338092Y-100240475D01*
X147365000Y-100240475D01*
X147365000Y-100759525D01*
X147466261Y-101268601D01*
X147664893Y-101748141D01*
X147953262Y-102179715D01*
X148320285Y-102546738D01*
X148751859Y-102835107D01*
X149231399Y-103033739D01*
X149740475Y-103135000D01*
X150259525Y-103135000D01*
X150768601Y-103033739D01*
X151248141Y-102835107D01*
X151679715Y-102546738D01*
X152046738Y-102179715D01*
X152335107Y-101748141D01*
X152533739Y-101268601D01*
X152635000Y-100759525D01*
X152635000Y-100240475D01*
X152533739Y-99731399D01*
X152335107Y-99251859D01*
X152046738Y-98820285D01*
X151679715Y-98453262D01*
X151248141Y-98164893D01*
X150768601Y-97966261D01*
X150259525Y-97865000D01*
X149740475Y-97865000D01*
X149231399Y-97966261D01*
X148751859Y-98164893D01*
X148320285Y-98453262D01*
X147953262Y-98820285D01*
X147664893Y-99251859D01*
X147466261Y-99731399D01*
X147365000Y-100240475D01*
X143338092Y-100240475D01*
X143276962Y-100148987D01*
X143091013Y-99963038D01*
X142872359Y-99816939D01*
X142662470Y-99730000D01*
X142872359Y-99643061D01*
X143091013Y-99496962D01*
X143276962Y-99311013D01*
X143423061Y-99092359D01*
X143523696Y-98849405D01*
X143575000Y-98591486D01*
X143575000Y-98328514D01*
X143523696Y-98070595D01*
X143423061Y-97827641D01*
X143276962Y-97608987D01*
X143091013Y-97423038D01*
X142872359Y-97276939D01*
X142662470Y-97190000D01*
X142872359Y-97103061D01*
X143091013Y-96956962D01*
X143276962Y-96771013D01*
X143423061Y-96552359D01*
X143523696Y-96309405D01*
X143575000Y-96051486D01*
X143575000Y-95788514D01*
X143523696Y-95530595D01*
X143423061Y-95287641D01*
X143276962Y-95068987D01*
X143091013Y-94883038D01*
X142872359Y-94736939D01*
X142662470Y-94650000D01*
X142872359Y-94563061D01*
X143091013Y-94416962D01*
X143276962Y-94231013D01*
X143423061Y-94012359D01*
X143523696Y-93769405D01*
X143575000Y-93511486D01*
X143575000Y-93248514D01*
X143523696Y-92990595D01*
X143423061Y-92747641D01*
X143276962Y-92528987D01*
X143091013Y-92343038D01*
X142872359Y-92196939D01*
X142662470Y-92110000D01*
X142872359Y-92023061D01*
X143091013Y-91876962D01*
X143276962Y-91691013D01*
X143423061Y-91472359D01*
X143523696Y-91229405D01*
X143575000Y-90971486D01*
X143575000Y-90708514D01*
X143523696Y-90450595D01*
X143423061Y-90207641D01*
X143276962Y-89988987D01*
X143091013Y-89803038D01*
X142872359Y-89656939D01*
X142662470Y-89570000D01*
X142872359Y-89483061D01*
X143091013Y-89336962D01*
X143276962Y-89151013D01*
X143423061Y-88932359D01*
X143523696Y-88689405D01*
X143575000Y-88431486D01*
X143575000Y-88168514D01*
X143523696Y-87910595D01*
X143423061Y-87667641D01*
X143276962Y-87448987D01*
X143091013Y-87263038D01*
X142872359Y-87116939D01*
X142662470Y-87030000D01*
X142872359Y-86943061D01*
X143091013Y-86796962D01*
X143276962Y-86611013D01*
X143423061Y-86392359D01*
X143523696Y-86149405D01*
X143575000Y-85891486D01*
X143575000Y-85628514D01*
X143523696Y-85370595D01*
X143423061Y-85127641D01*
X143276962Y-84908987D01*
X143091013Y-84723038D01*
X142872359Y-84576939D01*
X142662470Y-84490000D01*
X142872359Y-84403061D01*
X143091013Y-84256962D01*
X143276962Y-84071013D01*
X143423061Y-83852359D01*
X143523696Y-83609405D01*
X143575000Y-83351486D01*
X143575000Y-83088514D01*
X143523696Y-82830595D01*
X143486368Y-82740475D01*
X147365000Y-82740475D01*
X147365000Y-83259525D01*
X147466261Y-83768601D01*
X147664893Y-84248141D01*
X147953262Y-84679715D01*
X148320285Y-85046738D01*
X148751859Y-85335107D01*
X149231399Y-85533739D01*
X149740475Y-85635000D01*
X150259525Y-85635000D01*
X150768601Y-85533739D01*
X151248141Y-85335107D01*
X151679715Y-85046738D01*
X152046738Y-84679715D01*
X152335107Y-84248141D01*
X152533739Y-83768601D01*
X152635000Y-83259525D01*
X152635000Y-82740475D01*
X152533739Y-82231399D01*
X152335107Y-81751859D01*
X152046738Y-81320285D01*
X151679715Y-80953262D01*
X151248141Y-80664893D01*
X150768601Y-80466261D01*
X150259525Y-80365000D01*
X149740475Y-80365000D01*
X149231399Y-80466261D01*
X148751859Y-80664893D01*
X148320285Y-80953262D01*
X147953262Y-81320285D01*
X147664893Y-81751859D01*
X147466261Y-82231399D01*
X147365000Y-82740475D01*
X143486368Y-82740475D01*
X143423061Y-82587641D01*
X143276962Y-82368987D01*
X143091013Y-82183038D01*
X142872359Y-82036939D01*
X142629405Y-81936304D01*
X142371486Y-81885000D01*
X142108514Y-81885000D01*
X141850595Y-81936304D01*
X141660000Y-82015251D01*
X141660000Y-78273380D01*
X141868550Y-78064830D01*
X141815000Y-78334042D01*
X141815000Y-78665958D01*
X141879754Y-78991496D01*
X142006772Y-79298147D01*
X142191175Y-79574125D01*
X142425875Y-79808825D01*
X142701853Y-79993228D01*
X143008504Y-80120246D01*
X143334042Y-80185000D01*
X143665958Y-80185000D01*
X143991496Y-80120246D01*
X144298147Y-79993228D01*
X144574125Y-79808825D01*
X144808825Y-79574125D01*
X144993228Y-79298147D01*
X145120246Y-78991496D01*
X145185000Y-78665958D01*
X145185000Y-78334042D01*
X145120246Y-78008504D01*
X144993228Y-77701853D01*
X144808825Y-77425875D01*
X144574125Y-77191175D01*
X144298147Y-77006772D01*
X143991496Y-76879754D01*
X143665958Y-76815000D01*
X143334042Y-76815000D01*
X143064831Y-76868550D01*
X143273381Y-76660000D01*
X156726620Y-76660000D01*
X156935170Y-76868550D01*
M02*
