G04 #@! TF.GenerationSoftware,KiCad,Pcbnew,5.1.5-52549c5~84~ubuntu18.04.1*
G04 #@! TF.CreationDate,2020-01-13T21:42:59-08:00*
G04 #@! TF.ProjectId,somos_wristband_1.0,736f6d6f-735f-4777-9269-737462616e64,rev?*
G04 #@! TF.SameCoordinates,Original*
G04 #@! TF.FileFunction,Legend,Top*
G04 #@! TF.FilePolarity,Positive*
%FSLAX46Y46*%
G04 Gerber Fmt 4.6, Leading zero omitted, Abs format (unit mm)*
G04 Created by KiCad (PCBNEW 5.1.5-52549c5~84~ubuntu18.04.1) date 2020-01-13 21:42:59*
%MOMM*%
%LPD*%
G04 APERTURE LIST*
%ADD10C,0.050000*%
%ADD11C,0.120000*%
%ADD12C,0.100000*%
%ADD13C,0.300000*%
%ADD14C,0.150000*%
G04 APERTURE END LIST*
D10*
X157099047Y-121550380D02*
X157051428Y-121574190D01*
X156956190Y-121574190D01*
X156908571Y-121550380D01*
X156884761Y-121502761D01*
X156884761Y-121312285D01*
X156908571Y-121264666D01*
X156956190Y-121240857D01*
X157051428Y-121240857D01*
X157099047Y-121264666D01*
X157122857Y-121312285D01*
X157122857Y-121359904D01*
X156884761Y-121407523D01*
X157599047Y-121574190D02*
X157313333Y-121574190D01*
X157456190Y-121574190D02*
X157456190Y-121074190D01*
X157408571Y-121145619D01*
X157360952Y-121193238D01*
X157313333Y-121217047D01*
X158051428Y-121074190D02*
X157813333Y-121074190D01*
X157789523Y-121312285D01*
X157813333Y-121288476D01*
X157860952Y-121264666D01*
X157980000Y-121264666D01*
X158027619Y-121288476D01*
X158051428Y-121312285D01*
X158075238Y-121359904D01*
X158075238Y-121478952D01*
X158051428Y-121526571D01*
X158027619Y-121550380D01*
X157980000Y-121574190D01*
X157860952Y-121574190D01*
X157813333Y-121550380D01*
X157789523Y-121526571D01*
X157099047Y-116470380D02*
X157051428Y-116494190D01*
X156956190Y-116494190D01*
X156908571Y-116470380D01*
X156884761Y-116422761D01*
X156884761Y-116232285D01*
X156908571Y-116184666D01*
X156956190Y-116160857D01*
X157051428Y-116160857D01*
X157099047Y-116184666D01*
X157122857Y-116232285D01*
X157122857Y-116279904D01*
X156884761Y-116327523D01*
X157599047Y-116494190D02*
X157313333Y-116494190D01*
X157456190Y-116494190D02*
X157456190Y-115994190D01*
X157408571Y-116065619D01*
X157360952Y-116113238D01*
X157313333Y-116137047D01*
X158027619Y-116160857D02*
X158027619Y-116494190D01*
X157908571Y-115970380D02*
X157789523Y-116327523D01*
X158099047Y-116327523D01*
X157099047Y-111644380D02*
X157051428Y-111668190D01*
X156956190Y-111668190D01*
X156908571Y-111644380D01*
X156884761Y-111596761D01*
X156884761Y-111406285D01*
X156908571Y-111358666D01*
X156956190Y-111334857D01*
X157051428Y-111334857D01*
X157099047Y-111358666D01*
X157122857Y-111406285D01*
X157122857Y-111453904D01*
X156884761Y-111501523D01*
X157599047Y-111668190D02*
X157313333Y-111668190D01*
X157456190Y-111668190D02*
X157456190Y-111168190D01*
X157408571Y-111239619D01*
X157360952Y-111287238D01*
X157313333Y-111311047D01*
X157765714Y-111168190D02*
X158075238Y-111168190D01*
X157908571Y-111358666D01*
X157980000Y-111358666D01*
X158027619Y-111382476D01*
X158051428Y-111406285D01*
X158075238Y-111453904D01*
X158075238Y-111572952D01*
X158051428Y-111620571D01*
X158027619Y-111644380D01*
X157980000Y-111668190D01*
X157837142Y-111668190D01*
X157789523Y-111644380D01*
X157765714Y-111620571D01*
X157099047Y-106310380D02*
X157051428Y-106334190D01*
X156956190Y-106334190D01*
X156908571Y-106310380D01*
X156884761Y-106262761D01*
X156884761Y-106072285D01*
X156908571Y-106024666D01*
X156956190Y-106000857D01*
X157051428Y-106000857D01*
X157099047Y-106024666D01*
X157122857Y-106072285D01*
X157122857Y-106119904D01*
X156884761Y-106167523D01*
X157599047Y-106334190D02*
X157313333Y-106334190D01*
X157456190Y-106334190D02*
X157456190Y-105834190D01*
X157408571Y-105905619D01*
X157360952Y-105953238D01*
X157313333Y-105977047D01*
X157789523Y-105881809D02*
X157813333Y-105858000D01*
X157860952Y-105834190D01*
X157980000Y-105834190D01*
X158027619Y-105858000D01*
X158051428Y-105881809D01*
X158075238Y-105929428D01*
X158075238Y-105977047D01*
X158051428Y-106048476D01*
X157765714Y-106334190D01*
X158075238Y-106334190D01*
X157099047Y-99706380D02*
X157051428Y-99730190D01*
X156956190Y-99730190D01*
X156908571Y-99706380D01*
X156884761Y-99658761D01*
X156884761Y-99468285D01*
X156908571Y-99420666D01*
X156956190Y-99396857D01*
X157051428Y-99396857D01*
X157099047Y-99420666D01*
X157122857Y-99468285D01*
X157122857Y-99515904D01*
X156884761Y-99563523D01*
X157599047Y-99730190D02*
X157313333Y-99730190D01*
X157456190Y-99730190D02*
X157456190Y-99230190D01*
X157408571Y-99301619D01*
X157360952Y-99349238D01*
X157313333Y-99373047D01*
X158075238Y-99730190D02*
X157789523Y-99730190D01*
X157932380Y-99730190D02*
X157932380Y-99230190D01*
X157884761Y-99301619D01*
X157837142Y-99349238D01*
X157789523Y-99373047D01*
X157099047Y-94626380D02*
X157051428Y-94650190D01*
X156956190Y-94650190D01*
X156908571Y-94626380D01*
X156884761Y-94578761D01*
X156884761Y-94388285D01*
X156908571Y-94340666D01*
X156956190Y-94316857D01*
X157051428Y-94316857D01*
X157099047Y-94340666D01*
X157122857Y-94388285D01*
X157122857Y-94435904D01*
X156884761Y-94483523D01*
X157599047Y-94650190D02*
X157313333Y-94650190D01*
X157456190Y-94650190D02*
X157456190Y-94150190D01*
X157408571Y-94221619D01*
X157360952Y-94269238D01*
X157313333Y-94293047D01*
X157908571Y-94150190D02*
X157956190Y-94150190D01*
X158003809Y-94174000D01*
X158027619Y-94197809D01*
X158051428Y-94245428D01*
X158075238Y-94340666D01*
X158075238Y-94459714D01*
X158051428Y-94554952D01*
X158027619Y-94602571D01*
X158003809Y-94626380D01*
X157956190Y-94650190D01*
X157908571Y-94650190D01*
X157860952Y-94626380D01*
X157837142Y-94602571D01*
X157813333Y-94554952D01*
X157789523Y-94459714D01*
X157789523Y-94340666D01*
X157813333Y-94245428D01*
X157837142Y-94197809D01*
X157860952Y-94174000D01*
X157908571Y-94150190D01*
X157337142Y-89546380D02*
X157289523Y-89570190D01*
X157194285Y-89570190D01*
X157146666Y-89546380D01*
X157122857Y-89498761D01*
X157122857Y-89308285D01*
X157146666Y-89260666D01*
X157194285Y-89236857D01*
X157289523Y-89236857D01*
X157337142Y-89260666D01*
X157360952Y-89308285D01*
X157360952Y-89355904D01*
X157122857Y-89403523D01*
X157599047Y-89570190D02*
X157694285Y-89570190D01*
X157741904Y-89546380D01*
X157765714Y-89522571D01*
X157813333Y-89451142D01*
X157837142Y-89355904D01*
X157837142Y-89165428D01*
X157813333Y-89117809D01*
X157789523Y-89094000D01*
X157741904Y-89070190D01*
X157646666Y-89070190D01*
X157599047Y-89094000D01*
X157575238Y-89117809D01*
X157551428Y-89165428D01*
X157551428Y-89284476D01*
X157575238Y-89332095D01*
X157599047Y-89355904D01*
X157646666Y-89379714D01*
X157741904Y-89379714D01*
X157789523Y-89355904D01*
X157813333Y-89332095D01*
X157837142Y-89284476D01*
X157337142Y-84466380D02*
X157289523Y-84490190D01*
X157194285Y-84490190D01*
X157146666Y-84466380D01*
X157122857Y-84418761D01*
X157122857Y-84228285D01*
X157146666Y-84180666D01*
X157194285Y-84156857D01*
X157289523Y-84156857D01*
X157337142Y-84180666D01*
X157360952Y-84228285D01*
X157360952Y-84275904D01*
X157122857Y-84323523D01*
X157646666Y-84204476D02*
X157599047Y-84180666D01*
X157575238Y-84156857D01*
X157551428Y-84109238D01*
X157551428Y-84085428D01*
X157575238Y-84037809D01*
X157599047Y-84014000D01*
X157646666Y-83990190D01*
X157741904Y-83990190D01*
X157789523Y-84014000D01*
X157813333Y-84037809D01*
X157837142Y-84085428D01*
X157837142Y-84109238D01*
X157813333Y-84156857D01*
X157789523Y-84180666D01*
X157741904Y-84204476D01*
X157646666Y-84204476D01*
X157599047Y-84228285D01*
X157575238Y-84252095D01*
X157551428Y-84299714D01*
X157551428Y-84394952D01*
X157575238Y-84442571D01*
X157599047Y-84466380D01*
X157646666Y-84490190D01*
X157741904Y-84490190D01*
X157789523Y-84466380D01*
X157813333Y-84442571D01*
X157837142Y-84394952D01*
X157837142Y-84299714D01*
X157813333Y-84252095D01*
X157789523Y-84228285D01*
X157741904Y-84204476D01*
X142097142Y-84530380D02*
X142049523Y-84554190D01*
X141954285Y-84554190D01*
X141906666Y-84530380D01*
X141882857Y-84482761D01*
X141882857Y-84292285D01*
X141906666Y-84244666D01*
X141954285Y-84220857D01*
X142049523Y-84220857D01*
X142097142Y-84244666D01*
X142120952Y-84292285D01*
X142120952Y-84339904D01*
X141882857Y-84387523D01*
X142287619Y-84054190D02*
X142620952Y-84054190D01*
X142406666Y-84554190D01*
X142097142Y-89800380D02*
X142049523Y-89824190D01*
X141954285Y-89824190D01*
X141906666Y-89800380D01*
X141882857Y-89752761D01*
X141882857Y-89562285D01*
X141906666Y-89514666D01*
X141954285Y-89490857D01*
X142049523Y-89490857D01*
X142097142Y-89514666D01*
X142120952Y-89562285D01*
X142120952Y-89609904D01*
X141882857Y-89657523D01*
X142549523Y-89324190D02*
X142454285Y-89324190D01*
X142406666Y-89348000D01*
X142382857Y-89371809D01*
X142335238Y-89443238D01*
X142311428Y-89538476D01*
X142311428Y-89728952D01*
X142335238Y-89776571D01*
X142359047Y-89800380D01*
X142406666Y-89824190D01*
X142501904Y-89824190D01*
X142549523Y-89800380D01*
X142573333Y-89776571D01*
X142597142Y-89728952D01*
X142597142Y-89609904D01*
X142573333Y-89562285D01*
X142549523Y-89538476D01*
X142501904Y-89514666D01*
X142406666Y-89514666D01*
X142359047Y-89538476D01*
X142335238Y-89562285D01*
X142311428Y-89609904D01*
X142097142Y-94880380D02*
X142049523Y-94904190D01*
X141954285Y-94904190D01*
X141906666Y-94880380D01*
X141882857Y-94832761D01*
X141882857Y-94642285D01*
X141906666Y-94594666D01*
X141954285Y-94570857D01*
X142049523Y-94570857D01*
X142097142Y-94594666D01*
X142120952Y-94642285D01*
X142120952Y-94689904D01*
X141882857Y-94737523D01*
X142573333Y-94404190D02*
X142335238Y-94404190D01*
X142311428Y-94642285D01*
X142335238Y-94618476D01*
X142382857Y-94594666D01*
X142501904Y-94594666D01*
X142549523Y-94618476D01*
X142573333Y-94642285D01*
X142597142Y-94689904D01*
X142597142Y-94808952D01*
X142573333Y-94856571D01*
X142549523Y-94880380D01*
X142501904Y-94904190D01*
X142382857Y-94904190D01*
X142335238Y-94880380D01*
X142311428Y-94856571D01*
X142097142Y-99960380D02*
X142049523Y-99984190D01*
X141954285Y-99984190D01*
X141906666Y-99960380D01*
X141882857Y-99912761D01*
X141882857Y-99722285D01*
X141906666Y-99674666D01*
X141954285Y-99650857D01*
X142049523Y-99650857D01*
X142097142Y-99674666D01*
X142120952Y-99722285D01*
X142120952Y-99769904D01*
X141882857Y-99817523D01*
X142549523Y-99650857D02*
X142549523Y-99984190D01*
X142430476Y-99460380D02*
X142311428Y-99817523D01*
X142620952Y-99817523D01*
X142097142Y-106564380D02*
X142049523Y-106588190D01*
X141954285Y-106588190D01*
X141906666Y-106564380D01*
X141882857Y-106516761D01*
X141882857Y-106326285D01*
X141906666Y-106278666D01*
X141954285Y-106254857D01*
X142049523Y-106254857D01*
X142097142Y-106278666D01*
X142120952Y-106326285D01*
X142120952Y-106373904D01*
X141882857Y-106421523D01*
X142287619Y-106088190D02*
X142597142Y-106088190D01*
X142430476Y-106278666D01*
X142501904Y-106278666D01*
X142549523Y-106302476D01*
X142573333Y-106326285D01*
X142597142Y-106373904D01*
X142597142Y-106492952D01*
X142573333Y-106540571D01*
X142549523Y-106564380D01*
X142501904Y-106588190D01*
X142359047Y-106588190D01*
X142311428Y-106564380D01*
X142287619Y-106540571D01*
X142097142Y-111644380D02*
X142049523Y-111668190D01*
X141954285Y-111668190D01*
X141906666Y-111644380D01*
X141882857Y-111596761D01*
X141882857Y-111406285D01*
X141906666Y-111358666D01*
X141954285Y-111334857D01*
X142049523Y-111334857D01*
X142097142Y-111358666D01*
X142120952Y-111406285D01*
X142120952Y-111453904D01*
X141882857Y-111501523D01*
X142311428Y-111215809D02*
X142335238Y-111192000D01*
X142382857Y-111168190D01*
X142501904Y-111168190D01*
X142549523Y-111192000D01*
X142573333Y-111215809D01*
X142597142Y-111263428D01*
X142597142Y-111311047D01*
X142573333Y-111382476D01*
X142287619Y-111668190D01*
X142597142Y-111668190D01*
X142097142Y-116724380D02*
X142049523Y-116748190D01*
X141954285Y-116748190D01*
X141906666Y-116724380D01*
X141882857Y-116676761D01*
X141882857Y-116486285D01*
X141906666Y-116438666D01*
X141954285Y-116414857D01*
X142049523Y-116414857D01*
X142097142Y-116438666D01*
X142120952Y-116486285D01*
X142120952Y-116533904D01*
X141882857Y-116581523D01*
X142597142Y-116748190D02*
X142311428Y-116748190D01*
X142454285Y-116748190D02*
X142454285Y-116248190D01*
X142406666Y-116319619D01*
X142359047Y-116367238D01*
X142311428Y-116391047D01*
X142097142Y-121868380D02*
X142049523Y-121892190D01*
X141954285Y-121892190D01*
X141906666Y-121868380D01*
X141882857Y-121820761D01*
X141882857Y-121630285D01*
X141906666Y-121582666D01*
X141954285Y-121558857D01*
X142049523Y-121558857D01*
X142097142Y-121582666D01*
X142120952Y-121630285D01*
X142120952Y-121677904D01*
X141882857Y-121725523D01*
X142430476Y-121392190D02*
X142478095Y-121392190D01*
X142525714Y-121416000D01*
X142549523Y-121439809D01*
X142573333Y-121487428D01*
X142597142Y-121582666D01*
X142597142Y-121701714D01*
X142573333Y-121796952D01*
X142549523Y-121844571D01*
X142525714Y-121868380D01*
X142478095Y-121892190D01*
X142430476Y-121892190D01*
X142382857Y-121868380D01*
X142359047Y-121844571D01*
X142335238Y-121796952D01*
X142311428Y-121701714D01*
X142311428Y-121582666D01*
X142335238Y-121487428D01*
X142359047Y-121439809D01*
X142382857Y-121416000D01*
X142430476Y-121392190D01*
X145416666Y-124178571D02*
X145392857Y-124202380D01*
X145321428Y-124226190D01*
X145273809Y-124226190D01*
X145202380Y-124202380D01*
X145154761Y-124154761D01*
X145130952Y-124107142D01*
X145107142Y-124011904D01*
X145107142Y-123940476D01*
X145130952Y-123845238D01*
X145154761Y-123797619D01*
X145202380Y-123750000D01*
X145273809Y-123726190D01*
X145321428Y-123726190D01*
X145392857Y-123750000D01*
X145416666Y-123773809D01*
X145607142Y-124202380D02*
X145678571Y-124226190D01*
X145797619Y-124226190D01*
X145845238Y-124202380D01*
X145869047Y-124178571D01*
X145892857Y-124130952D01*
X145892857Y-124083333D01*
X145869047Y-124035714D01*
X145845238Y-124011904D01*
X145797619Y-123988095D01*
X145702380Y-123964285D01*
X145654761Y-123940476D01*
X145630952Y-123916666D01*
X145607142Y-123869047D01*
X145607142Y-123821428D01*
X145630952Y-123773809D01*
X145654761Y-123750000D01*
X145702380Y-123726190D01*
X145821428Y-123726190D01*
X145892857Y-123750000D01*
X149702380Y-128678571D02*
X149678571Y-128702380D01*
X149607142Y-128726190D01*
X149559523Y-128726190D01*
X149488095Y-128702380D01*
X149440476Y-128654761D01*
X149416666Y-128607142D01*
X149392857Y-128511904D01*
X149392857Y-128440476D01*
X149416666Y-128345238D01*
X149440476Y-128297619D01*
X149488095Y-128250000D01*
X149559523Y-128226190D01*
X149607142Y-128226190D01*
X149678571Y-128250000D01*
X149702380Y-128273809D01*
X150154761Y-128726190D02*
X149916666Y-128726190D01*
X149916666Y-128226190D01*
X150321428Y-128726190D02*
X150321428Y-128226190D01*
X150607142Y-128726190D02*
X150392857Y-128440476D01*
X150607142Y-128226190D02*
X150321428Y-128511904D01*
X149214285Y-122726190D02*
X149214285Y-122226190D01*
X149380952Y-122583333D01*
X149547619Y-122226190D01*
X149547619Y-122726190D01*
X149880952Y-122226190D02*
X149976190Y-122226190D01*
X150023809Y-122250000D01*
X150071428Y-122297619D01*
X150095238Y-122392857D01*
X150095238Y-122559523D01*
X150071428Y-122654761D01*
X150023809Y-122702380D01*
X149976190Y-122726190D01*
X149880952Y-122726190D01*
X149833333Y-122702380D01*
X149785714Y-122654761D01*
X149761904Y-122559523D01*
X149761904Y-122392857D01*
X149785714Y-122297619D01*
X149833333Y-122250000D01*
X149880952Y-122226190D01*
X150285714Y-122702380D02*
X150357142Y-122726190D01*
X150476190Y-122726190D01*
X150523809Y-122702380D01*
X150547619Y-122678571D01*
X150571428Y-122630952D01*
X150571428Y-122583333D01*
X150547619Y-122535714D01*
X150523809Y-122511904D01*
X150476190Y-122488095D01*
X150380952Y-122464285D01*
X150333333Y-122440476D01*
X150309523Y-122416666D01*
X150285714Y-122369047D01*
X150285714Y-122321428D01*
X150309523Y-122273809D01*
X150333333Y-122250000D01*
X150380952Y-122226190D01*
X150500000Y-122226190D01*
X150571428Y-122250000D01*
X150785714Y-122726190D02*
X150785714Y-122226190D01*
X153714285Y-126726190D02*
X153714285Y-126226190D01*
X153880952Y-126583333D01*
X154047619Y-126226190D01*
X154047619Y-126726190D01*
X154285714Y-126726190D02*
X154285714Y-126226190D01*
X154500000Y-126702380D02*
X154571428Y-126726190D01*
X154690476Y-126726190D01*
X154738095Y-126702380D01*
X154761904Y-126678571D01*
X154785714Y-126630952D01*
X154785714Y-126583333D01*
X154761904Y-126535714D01*
X154738095Y-126511904D01*
X154690476Y-126488095D01*
X154595238Y-126464285D01*
X154547619Y-126440476D01*
X154523809Y-126416666D01*
X154500000Y-126369047D01*
X154500000Y-126321428D01*
X154523809Y-126273809D01*
X154547619Y-126250000D01*
X154595238Y-126226190D01*
X154714285Y-126226190D01*
X154785714Y-126250000D01*
X155095238Y-126226190D02*
X155190476Y-126226190D01*
X155238095Y-126250000D01*
X155285714Y-126297619D01*
X155309523Y-126392857D01*
X155309523Y-126559523D01*
X155285714Y-126654761D01*
X155238095Y-126702380D01*
X155190476Y-126726190D01*
X155095238Y-126726190D01*
X155047619Y-126702380D01*
X155000000Y-126654761D01*
X154976190Y-126559523D01*
X154976190Y-126392857D01*
X155000000Y-126297619D01*
X155047619Y-126250000D01*
X155095238Y-126226190D01*
X145119047Y-126250000D02*
X145071428Y-126226190D01*
X145000000Y-126226190D01*
X144928571Y-126250000D01*
X144880952Y-126297619D01*
X144857142Y-126345238D01*
X144833333Y-126440476D01*
X144833333Y-126511904D01*
X144857142Y-126607142D01*
X144880952Y-126654761D01*
X144928571Y-126702380D01*
X145000000Y-126726190D01*
X145047619Y-126726190D01*
X145119047Y-126702380D01*
X145142857Y-126678571D01*
X145142857Y-126511904D01*
X145047619Y-126511904D01*
X145357142Y-126726190D02*
X145357142Y-126226190D01*
X145642857Y-126726190D01*
X145642857Y-126226190D01*
X145880952Y-126726190D02*
X145880952Y-126226190D01*
X146000000Y-126226190D01*
X146071428Y-126250000D01*
X146119047Y-126297619D01*
X146142857Y-126345238D01*
X146166666Y-126440476D01*
X146166666Y-126511904D01*
X146142857Y-126607142D01*
X146119047Y-126654761D01*
X146071428Y-126702380D01*
X146000000Y-126726190D01*
X145880952Y-126726190D01*
X154333333Y-123726190D02*
X154500000Y-124226190D01*
X154666666Y-123726190D01*
X154833333Y-124226190D02*
X154833333Y-123726190D01*
X154952380Y-123726190D01*
X155023809Y-123750000D01*
X155071428Y-123797619D01*
X155095238Y-123845238D01*
X155119047Y-123940476D01*
X155119047Y-124011904D01*
X155095238Y-124107142D01*
X155071428Y-124154761D01*
X155023809Y-124202380D01*
X154952380Y-124226190D01*
X154833333Y-124226190D01*
X155333333Y-124226190D02*
X155333333Y-123726190D01*
X155452380Y-123726190D01*
X155523809Y-123750000D01*
X155571428Y-123797619D01*
X155595238Y-123845238D01*
X155619047Y-123940476D01*
X155619047Y-124011904D01*
X155595238Y-124107142D01*
X155571428Y-124154761D01*
X155523809Y-124202380D01*
X155452380Y-124226190D01*
X155333333Y-124226190D01*
D11*
X149987000Y-94392500D02*
X148487000Y-91892500D01*
X151487000Y-91892500D02*
X149987000Y-94392500D01*
X148487000Y-91892500D02*
X151487000Y-91892500D01*
X154105034Y-86892500D02*
G75*
G03X154105034Y-86892500I-1118034J0D01*
G01*
X148105034Y-86892500D02*
G75*
G03X148105034Y-86892500I-1118034J0D01*
G01*
X151257000Y-86042500D02*
X151487000Y-87892500D01*
X148717000Y-86042500D02*
X148487000Y-87892500D01*
D12*
G36*
X151987000Y-93892500D02*
G01*
X147987000Y-93892500D01*
X149987000Y-90596449D01*
X151987000Y-93892500D01*
G37*
X151987000Y-93892500D02*
X147987000Y-93892500D01*
X149987000Y-90596449D01*
X151987000Y-93892500D01*
D11*
X151987000Y-93892500D02*
X149987000Y-90596449D01*
X147987000Y-93892500D02*
X151987000Y-93892500D01*
X149987000Y-90596449D02*
X147987000Y-93892500D01*
D13*
X149987000Y-94392500D02*
X149987000Y-96392500D01*
X148487000Y-91892500D02*
X144987000Y-90392500D01*
X151487000Y-91892500D02*
X154487000Y-90392500D01*
D11*
X146487000Y-94892500D02*
X146487000Y-96162500D01*
X145217000Y-94892500D02*
X146487000Y-94892500D01*
X147987000Y-93892500D02*
X146487000Y-94892500D01*
X153487000Y-94892500D02*
X154757000Y-94892500D01*
X153487000Y-94892500D02*
X153487000Y-96162500D01*
X151987000Y-93892500D02*
X153487000Y-94892500D01*
X149987000Y-87312500D02*
X151257000Y-86042500D01*
X148717000Y-86042500D02*
X149987000Y-87312500D01*
X149987000Y-87312500D02*
X148717000Y-86042500D01*
X149987000Y-88582500D02*
X149987000Y-87312500D01*
X149987000Y-90596449D02*
X149987000Y-88582500D01*
D14*
X146360555Y-105000000D02*
G75*
G03X146360555Y-105000000I-360555J0D01*
G01*
D11*
X153810000Y-122730000D02*
X153810000Y-124000000D01*
X152540000Y-122730000D02*
X153810000Y-122730000D01*
X147080000Y-125042929D02*
X147080000Y-125497071D01*
X147840000Y-125042929D02*
X147840000Y-125497071D01*
X147080000Y-127582929D02*
X147080000Y-127980000D01*
X147840000Y-127582929D02*
X147840000Y-127980000D01*
X147080000Y-136640000D02*
X147080000Y-130640000D01*
X147840000Y-136640000D02*
X147080000Y-136640000D01*
X147840000Y-130640000D02*
X147840000Y-136640000D01*
X148730000Y-127980000D02*
X148730000Y-130640000D01*
X149620000Y-125042929D02*
X149620000Y-125497071D01*
X150380000Y-125042929D02*
X150380000Y-125497071D01*
X149620000Y-127582929D02*
X149620000Y-127980000D01*
X150380000Y-127582929D02*
X150380000Y-127980000D01*
X149620000Y-136640000D02*
X149620000Y-130640000D01*
X150380000Y-136640000D02*
X149620000Y-136640000D01*
X150380000Y-130640000D02*
X150380000Y-136640000D01*
X151270000Y-127980000D02*
X151270000Y-130640000D01*
X152160000Y-125110000D02*
X152160000Y-125497071D01*
X152920000Y-125110000D02*
X152920000Y-125497071D01*
X152160000Y-127582929D02*
X152160000Y-127980000D01*
X152920000Y-127582929D02*
X152920000Y-127980000D01*
X152260000Y-130640000D02*
X152260000Y-136640000D01*
X152380000Y-130640000D02*
X152380000Y-136640000D01*
X152500000Y-130640000D02*
X152500000Y-136640000D01*
X152620000Y-130640000D02*
X152620000Y-136640000D01*
X152740000Y-130640000D02*
X152740000Y-136640000D01*
X152860000Y-130640000D02*
X152860000Y-136640000D01*
X152160000Y-136640000D02*
X152160000Y-130640000D01*
X152920000Y-136640000D02*
X152160000Y-136640000D01*
X152920000Y-130640000D02*
X152920000Y-136640000D01*
X153870000Y-130640000D02*
X153870000Y-127980000D01*
X146130000Y-130640000D02*
X153870000Y-130640000D01*
X146130000Y-127980000D02*
X146130000Y-130640000D01*
X153870000Y-127980000D02*
X146130000Y-127980000D01*
D14*
X154415571Y-87702023D02*
X154701285Y-87797261D01*
X155177476Y-87797261D01*
X155367952Y-87702023D01*
X155463190Y-87606785D01*
X155558428Y-87416309D01*
X155558428Y-87225833D01*
X155463190Y-87035357D01*
X155367952Y-86940119D01*
X155177476Y-86844880D01*
X154796523Y-86749642D01*
X154606047Y-86654404D01*
X154510809Y-86559166D01*
X154415571Y-86368690D01*
X154415571Y-86178214D01*
X154510809Y-85987738D01*
X154606047Y-85892500D01*
X154796523Y-85797261D01*
X155272714Y-85797261D01*
X155558428Y-85892500D01*
X144415571Y-87702023D02*
X144701285Y-87797261D01*
X145177476Y-87797261D01*
X145367952Y-87702023D01*
X145463190Y-87606785D01*
X145558428Y-87416309D01*
X145558428Y-87225833D01*
X145463190Y-87035357D01*
X145367952Y-86940119D01*
X145177476Y-86844880D01*
X144796523Y-86749642D01*
X144606047Y-86654404D01*
X144510809Y-86559166D01*
X144415571Y-86368690D01*
X144415571Y-86178214D01*
X144510809Y-85987738D01*
X144606047Y-85892500D01*
X144796523Y-85797261D01*
X145272714Y-85797261D01*
X145558428Y-85892500D01*
D10*
X152873809Y-116026190D02*
X152588095Y-116026190D01*
X152730952Y-116026190D02*
X152730952Y-115526190D01*
X152683333Y-115597619D01*
X152635714Y-115645238D01*
X152588095Y-115669047D01*
X153183333Y-115526190D02*
X153230952Y-115526190D01*
X153278571Y-115550000D01*
X153302380Y-115573809D01*
X153326190Y-115621428D01*
X153350000Y-115716666D01*
X153350000Y-115835714D01*
X153326190Y-115930952D01*
X153302380Y-115978571D01*
X153278571Y-116002380D01*
X153230952Y-116026190D01*
X153183333Y-116026190D01*
X153135714Y-116002380D01*
X153111904Y-115978571D01*
X153088095Y-115930952D01*
X153064285Y-115835714D01*
X153064285Y-115716666D01*
X153088095Y-115621428D01*
X153111904Y-115573809D01*
X153135714Y-115550000D01*
X153183333Y-115526190D01*
X153945238Y-115692857D02*
X153945238Y-116026190D01*
X153945238Y-115740476D02*
X153969047Y-115716666D01*
X154016666Y-115692857D01*
X154088095Y-115692857D01*
X154135714Y-115716666D01*
X154159523Y-115764285D01*
X154159523Y-116026190D01*
X154564285Y-115764285D02*
X154397619Y-115764285D01*
X154397619Y-116026190D02*
X154397619Y-115526190D01*
X154635714Y-115526190D01*
X149595238Y-115226190D02*
X149595238Y-114726190D01*
X149761904Y-115083333D01*
X149928571Y-114726190D01*
X149928571Y-115226190D01*
X150428571Y-115226190D02*
X150142857Y-115226190D01*
X150285714Y-115226190D02*
X150285714Y-114726190D01*
X150238095Y-114797619D01*
X150190476Y-114845238D01*
X150142857Y-114869047D01*
X148690476Y-105826190D02*
X148523809Y-105588095D01*
X148404761Y-105826190D02*
X148404761Y-105326190D01*
X148595238Y-105326190D01*
X148642857Y-105350000D01*
X148666666Y-105373809D01*
X148690476Y-105421428D01*
X148690476Y-105492857D01*
X148666666Y-105540476D01*
X148642857Y-105564285D01*
X148595238Y-105588095D01*
X148404761Y-105588095D01*
X148904761Y-105826190D02*
X148904761Y-105326190D01*
X148904761Y-105564285D02*
X149190476Y-105564285D01*
X149190476Y-105826190D02*
X149190476Y-105326190D01*
X149428571Y-105826190D02*
X149428571Y-105326190D01*
X149547619Y-105326190D01*
X149619047Y-105350000D01*
X149666666Y-105397619D01*
X149690476Y-105445238D01*
X149714285Y-105540476D01*
X149714285Y-105611904D01*
X149690476Y-105707142D01*
X149666666Y-105754761D01*
X149619047Y-105802380D01*
X149547619Y-105826190D01*
X149428571Y-105826190D01*
X149904761Y-105373809D02*
X149928571Y-105350000D01*
X149976190Y-105326190D01*
X150095238Y-105326190D01*
X150142857Y-105350000D01*
X150166666Y-105373809D01*
X150190476Y-105421428D01*
X150190476Y-105469047D01*
X150166666Y-105540476D01*
X149880952Y-105826190D01*
X150190476Y-105826190D01*
X150380952Y-105373809D02*
X150404761Y-105350000D01*
X150452380Y-105326190D01*
X150571428Y-105326190D01*
X150619047Y-105350000D01*
X150642857Y-105373809D01*
X150666666Y-105421428D01*
X150666666Y-105469047D01*
X150642857Y-105540476D01*
X150357142Y-105826190D01*
X150666666Y-105826190D01*
X151142857Y-105826190D02*
X150857142Y-105826190D01*
X151000000Y-105826190D02*
X151000000Y-105326190D01*
X150952380Y-105397619D01*
X150904761Y-105445238D01*
X150857142Y-105469047D01*
X151571428Y-105326190D02*
X151476190Y-105326190D01*
X151428571Y-105350000D01*
X151404761Y-105373809D01*
X151357142Y-105445238D01*
X151333333Y-105540476D01*
X151333333Y-105730952D01*
X151357142Y-105778571D01*
X151380952Y-105802380D01*
X151428571Y-105826190D01*
X151523809Y-105826190D01*
X151571428Y-105802380D01*
X151595238Y-105778571D01*
X151619047Y-105730952D01*
X151619047Y-105611904D01*
X151595238Y-105564285D01*
X151571428Y-105540476D01*
X151523809Y-105516666D01*
X151428571Y-105516666D01*
X151380952Y-105540476D01*
X151357142Y-105564285D01*
X151333333Y-105611904D01*
X149435714Y-114426190D02*
X149150000Y-114426190D01*
X149292857Y-114426190D02*
X149292857Y-113926190D01*
X149245238Y-113997619D01*
X149197619Y-114045238D01*
X149150000Y-114069047D01*
X149745238Y-113926190D02*
X149792857Y-113926190D01*
X149840476Y-113950000D01*
X149864285Y-113973809D01*
X149888095Y-114021428D01*
X149911904Y-114116666D01*
X149911904Y-114235714D01*
X149888095Y-114330952D01*
X149864285Y-114378571D01*
X149840476Y-114402380D01*
X149792857Y-114426190D01*
X149745238Y-114426190D01*
X149697619Y-114402380D01*
X149673809Y-114378571D01*
X149650000Y-114330952D01*
X149626190Y-114235714D01*
X149626190Y-114116666D01*
X149650000Y-114021428D01*
X149673809Y-113973809D01*
X149697619Y-113950000D01*
X149745238Y-113926190D01*
X150221428Y-113926190D02*
X150269047Y-113926190D01*
X150316666Y-113950000D01*
X150340476Y-113973809D01*
X150364285Y-114021428D01*
X150388095Y-114116666D01*
X150388095Y-114235714D01*
X150364285Y-114330952D01*
X150340476Y-114378571D01*
X150316666Y-114402380D01*
X150269047Y-114426190D01*
X150221428Y-114426190D01*
X150173809Y-114402380D01*
X150150000Y-114378571D01*
X150126190Y-114330952D01*
X150102380Y-114235714D01*
X150102380Y-114116666D01*
X150126190Y-114021428D01*
X150150000Y-113973809D01*
X150173809Y-113950000D01*
X150221428Y-113926190D01*
X150983333Y-114092857D02*
X150983333Y-114426190D01*
X150983333Y-114140476D02*
X151007142Y-114116666D01*
X151054761Y-114092857D01*
X151126190Y-114092857D01*
X151173809Y-114116666D01*
X151197619Y-114164285D01*
X151197619Y-114426190D01*
X151602380Y-114164285D02*
X151435714Y-114164285D01*
X151435714Y-114426190D02*
X151435714Y-113926190D01*
X151673809Y-113926190D01*
X156026190Y-115364285D02*
X156026190Y-115650000D01*
X156026190Y-115507142D02*
X155526190Y-115507142D01*
X155597619Y-115554761D01*
X155645238Y-115602380D01*
X155669047Y-115650000D01*
X155526190Y-115054761D02*
X155526190Y-115007142D01*
X155550000Y-114959523D01*
X155573809Y-114935714D01*
X155621428Y-114911904D01*
X155716666Y-114888095D01*
X155835714Y-114888095D01*
X155930952Y-114911904D01*
X155978571Y-114935714D01*
X156002380Y-114959523D01*
X156026190Y-115007142D01*
X156026190Y-115054761D01*
X156002380Y-115102380D01*
X155978571Y-115126190D01*
X155930952Y-115150000D01*
X155835714Y-115173809D01*
X155716666Y-115173809D01*
X155621428Y-115150000D01*
X155573809Y-115126190D01*
X155550000Y-115102380D01*
X155526190Y-115054761D01*
X155526190Y-114578571D02*
X155526190Y-114530952D01*
X155550000Y-114483333D01*
X155573809Y-114459523D01*
X155621428Y-114435714D01*
X155716666Y-114411904D01*
X155835714Y-114411904D01*
X155930952Y-114435714D01*
X155978571Y-114459523D01*
X156002380Y-114483333D01*
X156026190Y-114530952D01*
X156026190Y-114578571D01*
X156002380Y-114626190D01*
X155978571Y-114650000D01*
X155930952Y-114673809D01*
X155835714Y-114697619D01*
X155716666Y-114697619D01*
X155621428Y-114673809D01*
X155573809Y-114650000D01*
X155550000Y-114626190D01*
X155526190Y-114578571D01*
X155692857Y-113816666D02*
X156026190Y-113816666D01*
X155740476Y-113816666D02*
X155716666Y-113792857D01*
X155692857Y-113745238D01*
X155692857Y-113673809D01*
X155716666Y-113626190D01*
X155764285Y-113602380D01*
X156026190Y-113602380D01*
X155764285Y-113197619D02*
X155764285Y-113364285D01*
X156026190Y-113364285D02*
X155526190Y-113364285D01*
X155526190Y-113126190D01*
D14*
X154262380Y-129988333D02*
X154976666Y-129988333D01*
X155119523Y-130035952D01*
X155214761Y-130131190D01*
X155262380Y-130274047D01*
X155262380Y-130369285D01*
X155262380Y-128988333D02*
X155262380Y-129559761D01*
X155262380Y-129274047D02*
X154262380Y-129274047D01*
X154405238Y-129369285D01*
X154500476Y-129464523D01*
X154548095Y-129559761D01*
M02*
