G04 #@! TF.GenerationSoftware,KiCad,Pcbnew,5.1.5-52549c5~86~ubuntu18.04.1*
G04 #@! TF.CreationDate,2020-04-28T10:32:59-07:00*
G04 #@! TF.ProjectId,SHIELD_MIMAS_TFT_BT_POWERSUPPLY,53484945-4c44-45f4-9d49-4d41535f5446,rev?*
G04 #@! TF.SameCoordinates,Original*
G04 #@! TF.FileFunction,Other,Fab,Bot*
%FSLAX46Y46*%
G04 Gerber Fmt 4.6, Leading zero omitted, Abs format (unit mm)*
G04 Created by KiCad (PCBNEW 5.1.5-52549c5~86~ubuntu18.04.1) date 2020-04-28 10:32:59*
%MOMM*%
%LPD*%
G04 APERTURE LIST*
%ADD10C,0.100000*%
%ADD11C,0.125000*%
%ADD12C,0.150000*%
G04 APERTURE END LIST*
D10*
X160700000Y-92800000D02*
X161700000Y-93800000D01*
X160700000Y-89800000D02*
X160700000Y-92800000D01*
X164700000Y-89800000D02*
X160700000Y-89800000D01*
X164700000Y-93800000D02*
X164700000Y-89800000D01*
X161700000Y-93800000D02*
X164700000Y-93800000D01*
X161500000Y-77500000D02*
X160500000Y-78500000D01*
X164500000Y-77500000D02*
X161500000Y-77500000D01*
X164500000Y-81500000D02*
X164500000Y-77500000D01*
X160500000Y-81500000D02*
X164500000Y-81500000D01*
X160500000Y-78500000D02*
X160500000Y-81500000D01*
X156900000Y-72060000D02*
X156900000Y-71850000D01*
X156500000Y-72060000D02*
X156500000Y-71850000D01*
X156500000Y-72060000D02*
X156900000Y-72060000D01*
X156900000Y-71850000D02*
X156700000Y-71650000D01*
X156700000Y-71650000D02*
X156500000Y-71850000D01*
X154300000Y-65950000D02*
X154300000Y-71500000D01*
X154300000Y-71500000D02*
X161700000Y-71500000D01*
X154300000Y-65950000D02*
X161700000Y-65950000D01*
X155000000Y-67250000D02*
X161000000Y-67250000D01*
X161700000Y-65950000D02*
X161700000Y-71500000D01*
X153302255Y-87198851D02*
G75*
G02X158500000Y-87200000I2597745J-5101149D01*
G01*
X158497745Y-91601149D02*
G75*
G02X153300000Y-91600000I-2597745J5101149D01*
G01*
X158500000Y-91600000D02*
X158500000Y-87200000D01*
X153300000Y-87200000D02*
X153300000Y-91600000D01*
X145000000Y-73292893D02*
X145500000Y-74000000D01*
X144500000Y-74000000D02*
X145000000Y-73292893D01*
X149950000Y-75600000D02*
X149950000Y-68000000D01*
X142050000Y-75600000D02*
X142050000Y-68000000D01*
X142050000Y-68000000D02*
X149950000Y-68000000D01*
X149150000Y-75600000D02*
X149950000Y-75600000D01*
X149150000Y-74000000D02*
X149150000Y-75600000D01*
X142850000Y-74000000D02*
X149150000Y-74000000D01*
X142850000Y-75600000D02*
X142850000Y-74000000D01*
X142050000Y-75600000D02*
X142850000Y-75600000D01*
X157100000Y-102450000D02*
X157100000Y-100450000D01*
X155900000Y-102450000D02*
X157100000Y-102450000D01*
X155900000Y-100450000D02*
X155900000Y-102450000D01*
X157100000Y-100450000D02*
X155900000Y-100450000D01*
X162300000Y-98050000D02*
X159100000Y-98050000D01*
X162300000Y-100550000D02*
X162300000Y-98050000D01*
X159100000Y-100550000D02*
X162300000Y-100550000D01*
X159100000Y-98050000D02*
X159100000Y-100550000D01*
X146787500Y-122600000D02*
X148787500Y-122600000D01*
X146787500Y-121400000D02*
X146787500Y-122600000D01*
X148787500Y-121400000D02*
X146787500Y-121400000D01*
X148787500Y-122600000D02*
X148787500Y-121400000D01*
X167120000Y-95600000D02*
X167120000Y-97000000D01*
X164080000Y-97000000D02*
X167120000Y-97000000D01*
X164650000Y-95600000D02*
X164080000Y-96150000D01*
X164080000Y-96150000D02*
X164080000Y-97000000D01*
X164650000Y-95600000D02*
X167100000Y-95600000D01*
X163500000Y-74600000D02*
X161500000Y-74600000D01*
X163500000Y-75800000D02*
X163500000Y-74600000D01*
X161500000Y-75800000D02*
X163500000Y-75800000D01*
X161500000Y-74600000D02*
X161500000Y-75800000D01*
X158000000Y-82800000D02*
X158000000Y-80800000D01*
X156800000Y-82800000D02*
X158000000Y-82800000D01*
X156800000Y-80800000D02*
X156800000Y-82800000D01*
X158000000Y-80800000D02*
X156800000Y-80800000D01*
X163100000Y-88300000D02*
X163100000Y-86300000D01*
X161900000Y-88300000D02*
X163100000Y-88300000D01*
X161900000Y-86300000D02*
X161900000Y-88300000D01*
X163100000Y-86300000D02*
X161900000Y-86300000D01*
X161700000Y-102200000D02*
X159700000Y-102200000D01*
X161700000Y-103400000D02*
X161700000Y-102200000D01*
X159700000Y-103400000D02*
X161700000Y-103400000D01*
X159700000Y-102200000D02*
X159700000Y-103400000D01*
X155300000Y-74500000D02*
X155300000Y-76500000D01*
X156500000Y-74500000D02*
X155300000Y-74500000D01*
X156500000Y-76500000D02*
X156500000Y-74500000D01*
X155300000Y-76500000D02*
X156500000Y-76500000D01*
X166462500Y-78200000D02*
X168462500Y-78200000D01*
X166462500Y-77000000D02*
X166462500Y-78200000D01*
X168462500Y-77000000D02*
X166462500Y-77000000D01*
X168462500Y-78200000D02*
X168462500Y-77000000D01*
X164950000Y-99200000D02*
X164950000Y-101200000D01*
X166150000Y-99200000D02*
X164950000Y-99200000D01*
X166150000Y-101200000D02*
X166150000Y-99200000D01*
X164950000Y-101200000D02*
X166150000Y-101200000D01*
X163400000Y-84900000D02*
X165400000Y-84900000D01*
X163400000Y-83700000D02*
X163400000Y-84900000D01*
X165400000Y-83700000D02*
X163400000Y-83700000D01*
X165400000Y-84900000D02*
X165400000Y-83700000D01*
X161300000Y-83700000D02*
X159300000Y-83700000D01*
X161300000Y-84900000D02*
X161300000Y-83700000D01*
X159300000Y-84900000D02*
X161300000Y-84900000D01*
X159300000Y-83700000D02*
X159300000Y-84900000D01*
X169600000Y-90600000D02*
X169600000Y-88600000D01*
X168400000Y-90600000D02*
X169600000Y-90600000D01*
X168400000Y-88600000D02*
X168400000Y-90600000D01*
X169600000Y-88600000D02*
X168400000Y-88600000D01*
X170600000Y-82400000D02*
X170600000Y-80400000D01*
X169400000Y-82400000D02*
X170600000Y-82400000D01*
X169400000Y-80400000D02*
X169400000Y-82400000D01*
X170600000Y-80400000D02*
X169400000Y-80400000D01*
X158600000Y-79000000D02*
X158600000Y-77000000D01*
X157400000Y-79000000D02*
X158600000Y-79000000D01*
X157400000Y-77000000D02*
X157400000Y-79000000D01*
X158600000Y-77000000D02*
X157400000Y-77000000D01*
X158000000Y-73500000D02*
X158000000Y-75500000D01*
X159200000Y-73500000D02*
X158000000Y-73500000D01*
X159200000Y-75500000D02*
X159200000Y-73500000D01*
X158000000Y-75500000D02*
X159200000Y-75500000D01*
X160900000Y-96500000D02*
X162900000Y-96500000D01*
X160900000Y-95300000D02*
X160900000Y-96500000D01*
X162900000Y-95300000D02*
X160900000Y-95300000D01*
X162900000Y-96500000D02*
X162900000Y-95300000D01*
X157400000Y-96500000D02*
X159400000Y-96500000D01*
X157400000Y-95300000D02*
X157400000Y-96500000D01*
X159400000Y-95300000D02*
X157400000Y-95300000D01*
X159400000Y-96500000D02*
X159400000Y-95300000D01*
X166400000Y-90800000D02*
X166400000Y-92800000D01*
X167600000Y-90800000D02*
X166400000Y-90800000D01*
X167600000Y-92800000D02*
X167600000Y-90800000D01*
X166400000Y-92800000D02*
X167600000Y-92800000D01*
X166100000Y-86900000D02*
X166100000Y-88900000D01*
X167300000Y-86900000D02*
X166100000Y-86900000D01*
X167300000Y-88900000D02*
X167300000Y-86900000D01*
X166100000Y-88900000D02*
X167300000Y-88900000D01*
X170000000Y-73500000D02*
X168000000Y-73500000D01*
X170000000Y-74700000D02*
X170000000Y-73500000D01*
X168000000Y-74700000D02*
X170000000Y-74700000D01*
X168000000Y-73500000D02*
X168000000Y-74700000D01*
D11*
X165773809Y-90526190D02*
X165488095Y-90526190D01*
X165630952Y-91026190D02*
X165630952Y-90526190D01*
X165321428Y-91026190D02*
X165321428Y-90526190D01*
X165130952Y-90526190D01*
X165083333Y-90550000D01*
X165059523Y-90573809D01*
X165035714Y-90621428D01*
X165035714Y-90692857D01*
X165059523Y-90740476D01*
X165083333Y-90764285D01*
X165130952Y-90788095D01*
X165321428Y-90788095D01*
X164845238Y-91002380D02*
X164773809Y-91026190D01*
X164654761Y-91026190D01*
X164607142Y-91002380D01*
X164583333Y-90978571D01*
X164559523Y-90930952D01*
X164559523Y-90883333D01*
X164583333Y-90835714D01*
X164607142Y-90811904D01*
X164654761Y-90788095D01*
X164750000Y-90764285D01*
X164797619Y-90740476D01*
X164821428Y-90716666D01*
X164845238Y-90669047D01*
X164845238Y-90621428D01*
X164821428Y-90573809D01*
X164797619Y-90550000D01*
X164750000Y-90526190D01*
X164630952Y-90526190D01*
X164559523Y-90550000D01*
X164130952Y-90526190D02*
X164226190Y-90526190D01*
X164273809Y-90550000D01*
X164297619Y-90573809D01*
X164345238Y-90645238D01*
X164369047Y-90740476D01*
X164369047Y-90930952D01*
X164345238Y-90978571D01*
X164321428Y-91002380D01*
X164273809Y-91026190D01*
X164178571Y-91026190D01*
X164130952Y-91002380D01*
X164107142Y-90978571D01*
X164083333Y-90930952D01*
X164083333Y-90811904D01*
X164107142Y-90764285D01*
X164130952Y-90740476D01*
X164178571Y-90716666D01*
X164273809Y-90716666D01*
X164321428Y-90740476D01*
X164345238Y-90764285D01*
X164369047Y-90811904D01*
X163607142Y-91026190D02*
X163892857Y-91026190D01*
X163750000Y-91026190D02*
X163750000Y-90526190D01*
X163797619Y-90597619D01*
X163845238Y-90645238D01*
X163892857Y-90669047D01*
X163297619Y-90526190D02*
X163250000Y-90526190D01*
X163202380Y-90550000D01*
X163178571Y-90573809D01*
X163154761Y-90621428D01*
X163130952Y-90716666D01*
X163130952Y-90835714D01*
X163154761Y-90930952D01*
X163178571Y-90978571D01*
X163202380Y-91002380D01*
X163250000Y-91026190D01*
X163297619Y-91026190D01*
X163345238Y-91002380D01*
X163369047Y-90978571D01*
X163392857Y-90930952D01*
X163416666Y-90835714D01*
X163416666Y-90716666D01*
X163392857Y-90621428D01*
X163369047Y-90573809D01*
X163345238Y-90550000D01*
X163297619Y-90526190D01*
X162892857Y-91026190D02*
X162797619Y-91026190D01*
X162750000Y-91002380D01*
X162726190Y-90978571D01*
X162678571Y-90907142D01*
X162654761Y-90811904D01*
X162654761Y-90621428D01*
X162678571Y-90573809D01*
X162702380Y-90550000D01*
X162750000Y-90526190D01*
X162845238Y-90526190D01*
X162892857Y-90550000D01*
X162916666Y-90573809D01*
X162940476Y-90621428D01*
X162940476Y-90740476D01*
X162916666Y-90788095D01*
X162892857Y-90811904D01*
X162845238Y-90835714D01*
X162750000Y-90835714D01*
X162702380Y-90811904D01*
X162678571Y-90788095D01*
X162654761Y-90740476D01*
X162345238Y-90526190D02*
X162297619Y-90526190D01*
X162250000Y-90550000D01*
X162226190Y-90573809D01*
X162202380Y-90621428D01*
X162178571Y-90716666D01*
X162178571Y-90835714D01*
X162202380Y-90930952D01*
X162226190Y-90978571D01*
X162250000Y-91002380D01*
X162297619Y-91026190D01*
X162345238Y-91026190D01*
X162392857Y-91002380D01*
X162416666Y-90978571D01*
X162440476Y-90930952D01*
X162464285Y-90835714D01*
X162464285Y-90716666D01*
X162440476Y-90621428D01*
X162416666Y-90573809D01*
X162392857Y-90550000D01*
X162345238Y-90526190D01*
X161678571Y-91026190D02*
X161845238Y-90788095D01*
X161964285Y-91026190D02*
X161964285Y-90526190D01*
X161773809Y-90526190D01*
X161726190Y-90550000D01*
X161702380Y-90573809D01*
X161678571Y-90621428D01*
X161678571Y-90692857D01*
X161702380Y-90740476D01*
X161726190Y-90764285D01*
X161773809Y-90788095D01*
X161964285Y-90788095D01*
X161488095Y-91002380D02*
X161416666Y-91026190D01*
X161297619Y-91026190D01*
X161250000Y-91002380D01*
X161226190Y-90978571D01*
X161202380Y-90930952D01*
X161202380Y-90883333D01*
X161226190Y-90835714D01*
X161250000Y-90811904D01*
X161297619Y-90788095D01*
X161392857Y-90764285D01*
X161440476Y-90740476D01*
X161464285Y-90716666D01*
X161488095Y-90669047D01*
X161488095Y-90621428D01*
X161464285Y-90573809D01*
X161440476Y-90550000D01*
X161392857Y-90526190D01*
X161273809Y-90526190D01*
X161202380Y-90550000D01*
X161011904Y-90883333D02*
X160773809Y-90883333D01*
X161059523Y-91026190D02*
X160892857Y-90526190D01*
X160726190Y-91026190D01*
X160273809Y-91026190D02*
X160440476Y-90788095D01*
X160559523Y-91026190D02*
X160559523Y-90526190D01*
X160369047Y-90526190D01*
X160321428Y-90550000D01*
X160297619Y-90573809D01*
X160273809Y-90621428D01*
X160273809Y-90692857D01*
X160297619Y-90740476D01*
X160321428Y-90764285D01*
X160369047Y-90788095D01*
X160559523Y-90788095D01*
D12*
X163461904Y-91252380D02*
X163461904Y-92061904D01*
X163414285Y-92157142D01*
X163366666Y-92204761D01*
X163271428Y-92252380D01*
X163080952Y-92252380D01*
X162985714Y-92204761D01*
X162938095Y-92157142D01*
X162890476Y-92061904D01*
X162890476Y-91252380D01*
X161890476Y-92252380D02*
X162461904Y-92252380D01*
X162176190Y-92252380D02*
X162176190Y-91252380D01*
X162271428Y-91395238D01*
X162366666Y-91490476D01*
X162461904Y-91538095D01*
D11*
X162626190Y-77642857D02*
X162126190Y-77642857D01*
X162483333Y-77809523D01*
X162126190Y-77976190D01*
X162626190Y-77976190D01*
X162578571Y-78500000D02*
X162602380Y-78476190D01*
X162626190Y-78404761D01*
X162626190Y-78357142D01*
X162602380Y-78285714D01*
X162554761Y-78238095D01*
X162507142Y-78214285D01*
X162411904Y-78190476D01*
X162340476Y-78190476D01*
X162245238Y-78214285D01*
X162197619Y-78238095D01*
X162150000Y-78285714D01*
X162126190Y-78357142D01*
X162126190Y-78404761D01*
X162150000Y-78476190D01*
X162173809Y-78500000D01*
X162626190Y-78714285D02*
X162126190Y-78714285D01*
X162126190Y-78904761D01*
X162150000Y-78952380D01*
X162173809Y-78976190D01*
X162221428Y-79000000D01*
X162292857Y-79000000D01*
X162340476Y-78976190D01*
X162364285Y-78952380D01*
X162388095Y-78904761D01*
X162388095Y-78714285D01*
X162126190Y-79166666D02*
X162126190Y-79500000D01*
X162626190Y-79285714D01*
X162126190Y-79642857D02*
X162126190Y-79952380D01*
X162316666Y-79785714D01*
X162316666Y-79857142D01*
X162340476Y-79904761D01*
X162364285Y-79928571D01*
X162411904Y-79952380D01*
X162530952Y-79952380D01*
X162578571Y-79928571D01*
X162602380Y-79904761D01*
X162626190Y-79857142D01*
X162626190Y-79714285D01*
X162602380Y-79666666D01*
X162578571Y-79642857D01*
X162340476Y-80238095D02*
X162316666Y-80190476D01*
X162292857Y-80166666D01*
X162245238Y-80142857D01*
X162221428Y-80142857D01*
X162173809Y-80166666D01*
X162150000Y-80190476D01*
X162126190Y-80238095D01*
X162126190Y-80333333D01*
X162150000Y-80380952D01*
X162173809Y-80404761D01*
X162221428Y-80428571D01*
X162245238Y-80428571D01*
X162292857Y-80404761D01*
X162316666Y-80380952D01*
X162340476Y-80333333D01*
X162340476Y-80238095D01*
X162364285Y-80190476D01*
X162388095Y-80166666D01*
X162435714Y-80142857D01*
X162530952Y-80142857D01*
X162578571Y-80166666D01*
X162602380Y-80190476D01*
X162626190Y-80238095D01*
X162626190Y-80333333D01*
X162602380Y-80380952D01*
X162578571Y-80404761D01*
X162530952Y-80428571D01*
X162435714Y-80428571D01*
X162388095Y-80404761D01*
X162364285Y-80380952D01*
X162340476Y-80333333D01*
X162126190Y-80595238D02*
X162126190Y-80928571D01*
X162626190Y-80714285D01*
X162626190Y-81380952D02*
X162626190Y-81095238D01*
X162626190Y-81238095D02*
X162126190Y-81238095D01*
X162197619Y-81190476D01*
X162245238Y-81142857D01*
X162269047Y-81095238D01*
D12*
X161952380Y-78738095D02*
X162761904Y-78738095D01*
X162857142Y-78785714D01*
X162904761Y-78833333D01*
X162952380Y-78928571D01*
X162952380Y-79119047D01*
X162904761Y-79214285D01*
X162857142Y-79261904D01*
X162761904Y-79309523D01*
X161952380Y-79309523D01*
X162047619Y-79738095D02*
X162000000Y-79785714D01*
X161952380Y-79880952D01*
X161952380Y-80119047D01*
X162000000Y-80214285D01*
X162047619Y-80261904D01*
X162142857Y-80309523D01*
X162238095Y-80309523D01*
X162380952Y-80261904D01*
X162952380Y-79690476D01*
X162952380Y-80309523D01*
X161261904Y-65152380D02*
X161261904Y-64152380D01*
X160928571Y-64866666D01*
X160595238Y-64152380D01*
X160595238Y-65152380D01*
X160119047Y-65152380D02*
X160119047Y-64485714D01*
X160119047Y-64152380D02*
X160166666Y-64200000D01*
X160119047Y-64247619D01*
X160071428Y-64200000D01*
X160119047Y-64152380D01*
X160119047Y-64247619D01*
X159214285Y-65104761D02*
X159309523Y-65152380D01*
X159500000Y-65152380D01*
X159595238Y-65104761D01*
X159642857Y-65057142D01*
X159690476Y-64961904D01*
X159690476Y-64676190D01*
X159642857Y-64580952D01*
X159595238Y-64533333D01*
X159500000Y-64485714D01*
X159309523Y-64485714D01*
X159214285Y-64533333D01*
X158785714Y-65152380D02*
X158785714Y-64485714D01*
X158785714Y-64676190D02*
X158738095Y-64580952D01*
X158690476Y-64533333D01*
X158595238Y-64485714D01*
X158500000Y-64485714D01*
X158023809Y-65152380D02*
X158119047Y-65104761D01*
X158166666Y-65057142D01*
X158214285Y-64961904D01*
X158214285Y-64676190D01*
X158166666Y-64580952D01*
X158119047Y-64533333D01*
X158023809Y-64485714D01*
X157880952Y-64485714D01*
X157785714Y-64533333D01*
X157738095Y-64580952D01*
X157690476Y-64676190D01*
X157690476Y-64961904D01*
X157738095Y-65057142D01*
X157785714Y-65104761D01*
X157880952Y-65152380D01*
X158023809Y-65152380D01*
X157261904Y-64152380D02*
X157261904Y-64961904D01*
X157214285Y-65057142D01*
X157166666Y-65104761D01*
X157071428Y-65152380D01*
X156880952Y-65152380D01*
X156785714Y-65104761D01*
X156738095Y-65057142D01*
X156690476Y-64961904D01*
X156690476Y-64152380D01*
X156261904Y-65104761D02*
X156119047Y-65152380D01*
X155880952Y-65152380D01*
X155785714Y-65104761D01*
X155738095Y-65057142D01*
X155690476Y-64961904D01*
X155690476Y-64866666D01*
X155738095Y-64771428D01*
X155785714Y-64723809D01*
X155880952Y-64676190D01*
X156071428Y-64628571D01*
X156166666Y-64580952D01*
X156214285Y-64533333D01*
X156261904Y-64438095D01*
X156261904Y-64342857D01*
X156214285Y-64247619D01*
X156166666Y-64200000D01*
X156071428Y-64152380D01*
X155833333Y-64152380D01*
X155690476Y-64200000D01*
X154928571Y-64628571D02*
X154785714Y-64676190D01*
X154738095Y-64723809D01*
X154690476Y-64819047D01*
X154690476Y-64961904D01*
X154738095Y-65057142D01*
X154785714Y-65104761D01*
X154880952Y-65152380D01*
X155261904Y-65152380D01*
X155261904Y-64152380D01*
X154928571Y-64152380D01*
X154833333Y-64200000D01*
X154785714Y-64247619D01*
X154738095Y-64342857D01*
X154738095Y-64438095D01*
X154785714Y-64533333D01*
X154833333Y-64580952D01*
X154928571Y-64628571D01*
X155261904Y-64628571D01*
X158690476Y-69557142D02*
X158738095Y-69604761D01*
X158880952Y-69652380D01*
X158976190Y-69652380D01*
X159119047Y-69604761D01*
X159214285Y-69509523D01*
X159261904Y-69414285D01*
X159309523Y-69223809D01*
X159309523Y-69080952D01*
X159261904Y-68890476D01*
X159214285Y-68795238D01*
X159119047Y-68700000D01*
X158976190Y-68652380D01*
X158880952Y-68652380D01*
X158738095Y-68700000D01*
X158690476Y-68747619D01*
X158261904Y-69652380D02*
X158261904Y-68652380D01*
X157690476Y-69652380D01*
X157690476Y-68652380D01*
X156785714Y-68985714D02*
X156785714Y-69652380D01*
X157023809Y-68604761D02*
X157261904Y-69319047D01*
X156642857Y-69319047D01*
X159352380Y-87900000D02*
X159352380Y-87709523D01*
X159400000Y-87614285D01*
X159447619Y-87566666D01*
X159590476Y-87471428D01*
X159780952Y-87423809D01*
X160161904Y-87423809D01*
X160257142Y-87471428D01*
X160304761Y-87519047D01*
X160352380Y-87614285D01*
X160352380Y-87804761D01*
X160304761Y-87900000D01*
X160257142Y-87947619D01*
X160161904Y-87995238D01*
X159923809Y-87995238D01*
X159828571Y-87947619D01*
X159780952Y-87900000D01*
X159733333Y-87804761D01*
X159733333Y-87614285D01*
X159780952Y-87519047D01*
X159828571Y-87471428D01*
X159923809Y-87423809D01*
X160257142Y-88423809D02*
X160304761Y-88471428D01*
X160352380Y-88423809D01*
X160304761Y-88376190D01*
X160257142Y-88423809D01*
X160352380Y-88423809D01*
X159780952Y-89042857D02*
X159733333Y-88947619D01*
X159685714Y-88900000D01*
X159590476Y-88852380D01*
X159542857Y-88852380D01*
X159447619Y-88900000D01*
X159400000Y-88947619D01*
X159352380Y-89042857D01*
X159352380Y-89233333D01*
X159400000Y-89328571D01*
X159447619Y-89376190D01*
X159542857Y-89423809D01*
X159590476Y-89423809D01*
X159685714Y-89376190D01*
X159733333Y-89328571D01*
X159780952Y-89233333D01*
X159780952Y-89042857D01*
X159828571Y-88947619D01*
X159876190Y-88900000D01*
X159971428Y-88852380D01*
X160161904Y-88852380D01*
X160257142Y-88900000D01*
X160304761Y-88947619D01*
X160352380Y-89042857D01*
X160352380Y-89233333D01*
X160304761Y-89328571D01*
X160257142Y-89376190D01*
X160161904Y-89423809D01*
X159971428Y-89423809D01*
X159876190Y-89376190D01*
X159828571Y-89328571D01*
X159780952Y-89233333D01*
X159685714Y-90280952D02*
X160352380Y-90280952D01*
X159685714Y-89852380D02*
X160209523Y-89852380D01*
X160304761Y-89900000D01*
X160352380Y-89995238D01*
X160352380Y-90138095D01*
X160304761Y-90233333D01*
X160257142Y-90280952D01*
X160352380Y-90757142D02*
X159352380Y-90757142D01*
X159828571Y-90757142D02*
X159828571Y-91328571D01*
X160352380Y-91328571D02*
X159352380Y-91328571D01*
X156352380Y-89233333D02*
X156352380Y-88757142D01*
X155352380Y-88757142D01*
X156352380Y-90090476D02*
X156352380Y-89519047D01*
X156352380Y-89804761D02*
X155352380Y-89804761D01*
X155495238Y-89709523D01*
X155590476Y-89614285D01*
X155638095Y-89519047D01*
X149214285Y-66052380D02*
X149214285Y-66766666D01*
X149261904Y-66909523D01*
X149357142Y-67004761D01*
X149500000Y-67052380D01*
X149595238Y-67052380D01*
X148785714Y-67004761D02*
X148642857Y-67052380D01*
X148404761Y-67052380D01*
X148309523Y-67004761D01*
X148261904Y-66957142D01*
X148214285Y-66861904D01*
X148214285Y-66766666D01*
X148261904Y-66671428D01*
X148309523Y-66623809D01*
X148404761Y-66576190D01*
X148595238Y-66528571D01*
X148690476Y-66480952D01*
X148738095Y-66433333D01*
X148785714Y-66338095D01*
X148785714Y-66242857D01*
X148738095Y-66147619D01*
X148690476Y-66100000D01*
X148595238Y-66052380D01*
X148357142Y-66052380D01*
X148214285Y-66100000D01*
X147928571Y-66052380D02*
X147357142Y-66052380D01*
X147642857Y-67052380D02*
X147642857Y-66052380D01*
X146309523Y-66147619D02*
X146261904Y-66100000D01*
X146166666Y-66052380D01*
X145928571Y-66052380D01*
X145833333Y-66100000D01*
X145785714Y-66147619D01*
X145738095Y-66242857D01*
X145738095Y-66338095D01*
X145785714Y-66480952D01*
X146357142Y-67052380D01*
X145738095Y-67052380D01*
X145309523Y-66671428D02*
X144547619Y-66671428D01*
X144071428Y-67052380D02*
X144071428Y-66052380D01*
X143690476Y-66052380D01*
X143595238Y-66100000D01*
X143547619Y-66147619D01*
X143500000Y-66242857D01*
X143500000Y-66385714D01*
X143547619Y-66480952D01*
X143595238Y-66528571D01*
X143690476Y-66576190D01*
X144071428Y-66576190D01*
X143071428Y-67052380D02*
X143071428Y-66052380D01*
X143071428Y-66528571D02*
X142500000Y-66528571D01*
X142500000Y-67052380D02*
X142500000Y-66052380D01*
X146404761Y-70828571D02*
X146261904Y-70876190D01*
X146214285Y-70923809D01*
X146166666Y-71019047D01*
X146166666Y-71161904D01*
X146214285Y-71257142D01*
X146261904Y-71304761D01*
X146357142Y-71352380D01*
X146738095Y-71352380D01*
X146738095Y-70352380D01*
X146404761Y-70352380D01*
X146309523Y-70400000D01*
X146261904Y-70447619D01*
X146214285Y-70542857D01*
X146214285Y-70638095D01*
X146261904Y-70733333D01*
X146309523Y-70780952D01*
X146404761Y-70828571D01*
X146738095Y-70828571D01*
X145214285Y-71352380D02*
X145785714Y-71352380D01*
X145500000Y-71352380D02*
X145500000Y-70352380D01*
X145595238Y-70495238D01*
X145690476Y-70590476D01*
X145785714Y-70638095D01*
D10*
X158180952Y-101364285D02*
X158180952Y-101135714D01*
X158180952Y-101250000D02*
X157780952Y-101250000D01*
X157838095Y-101211904D01*
X157876190Y-101173809D01*
X157895238Y-101135714D01*
X158180952Y-101535714D02*
X157780952Y-101535714D01*
X158180952Y-101764285D02*
X157952380Y-101592857D01*
X157780952Y-101764285D02*
X158009523Y-101535714D01*
D12*
X138857142Y-120952380D02*
X138857142Y-119952380D01*
X138857142Y-120428571D02*
X138285714Y-120428571D01*
X138285714Y-120952380D02*
X138285714Y-119952380D01*
X137238095Y-120857142D02*
X137285714Y-120904761D01*
X137428571Y-120952380D01*
X137523809Y-120952380D01*
X137666666Y-120904761D01*
X137761904Y-120809523D01*
X137809523Y-120714285D01*
X137857142Y-120523809D01*
X137857142Y-120380952D01*
X137809523Y-120190476D01*
X137761904Y-120095238D01*
X137666666Y-120000000D01*
X137523809Y-119952380D01*
X137428571Y-119952380D01*
X137285714Y-120000000D01*
X137238095Y-120047619D01*
X136809523Y-120571428D02*
X136047619Y-120571428D01*
X135380952Y-119952380D02*
X135285714Y-119952380D01*
X135190476Y-120000000D01*
X135142857Y-120047619D01*
X135095238Y-120142857D01*
X135047619Y-120333333D01*
X135047619Y-120571428D01*
X135095238Y-120761904D01*
X135142857Y-120857142D01*
X135190476Y-120904761D01*
X135285714Y-120952380D01*
X135380952Y-120952380D01*
X135476190Y-120904761D01*
X135523809Y-120857142D01*
X135571428Y-120761904D01*
X135619047Y-120571428D01*
X135619047Y-120333333D01*
X135571428Y-120142857D01*
X135523809Y-120047619D01*
X135476190Y-120000000D01*
X135380952Y-119952380D01*
X134142857Y-119952380D02*
X134619047Y-119952380D01*
X134666666Y-120428571D01*
X134619047Y-120380952D01*
X134523809Y-120333333D01*
X134285714Y-120333333D01*
X134190476Y-120380952D01*
X134142857Y-120428571D01*
X134095238Y-120523809D01*
X134095238Y-120761904D01*
X134142857Y-120857142D01*
X134190476Y-120904761D01*
X134285714Y-120952380D01*
X134523809Y-120952380D01*
X134619047Y-120904761D01*
X134666666Y-120857142D01*
X162147619Y-100052380D02*
X162719047Y-100052380D01*
X162433333Y-100052380D02*
X162433333Y-99052380D01*
X162528571Y-99195238D01*
X162623809Y-99290476D01*
X162719047Y-99338095D01*
X161528571Y-99052380D02*
X161433333Y-99052380D01*
X161338095Y-99100000D01*
X161290476Y-99147619D01*
X161242857Y-99242857D01*
X161195238Y-99433333D01*
X161195238Y-99671428D01*
X161242857Y-99861904D01*
X161290476Y-99957142D01*
X161338095Y-100004761D01*
X161433333Y-100052380D01*
X161528571Y-100052380D01*
X161623809Y-100004761D01*
X161671428Y-99957142D01*
X161719047Y-99861904D01*
X161766666Y-99671428D01*
X161766666Y-99433333D01*
X161719047Y-99242857D01*
X161671428Y-99147619D01*
X161623809Y-99100000D01*
X161528571Y-99052380D01*
X160576190Y-99052380D02*
X160480952Y-99052380D01*
X160385714Y-99100000D01*
X160338095Y-99147619D01*
X160290476Y-99242857D01*
X160242857Y-99433333D01*
X160242857Y-99671428D01*
X160290476Y-99861904D01*
X160338095Y-99957142D01*
X160385714Y-100004761D01*
X160480952Y-100052380D01*
X160576190Y-100052380D01*
X160671428Y-100004761D01*
X160719047Y-99957142D01*
X160766666Y-99861904D01*
X160814285Y-99671428D01*
X160814285Y-99433333D01*
X160766666Y-99242857D01*
X160719047Y-99147619D01*
X160671428Y-99100000D01*
X160576190Y-99052380D01*
X159385714Y-99385714D02*
X159385714Y-100052380D01*
X159814285Y-99385714D02*
X159814285Y-99909523D01*
X159766666Y-100004761D01*
X159671428Y-100052380D01*
X159528571Y-100052380D01*
X159433333Y-100004761D01*
X159385714Y-99957142D01*
X158576190Y-99528571D02*
X158909523Y-99528571D01*
X158909523Y-100052380D02*
X158909523Y-99052380D01*
X158433333Y-99052380D01*
X163571428Y-74002380D02*
X164142857Y-74002380D01*
X163857142Y-74002380D02*
X163857142Y-73002380D01*
X163952380Y-73145238D01*
X164047619Y-73240476D01*
X164142857Y-73288095D01*
X162952380Y-73002380D02*
X162857142Y-73002380D01*
X162761904Y-73050000D01*
X162714285Y-73097619D01*
X162666666Y-73192857D01*
X162619047Y-73383333D01*
X162619047Y-73621428D01*
X162666666Y-73811904D01*
X162714285Y-73907142D01*
X162761904Y-73954761D01*
X162857142Y-74002380D01*
X162952380Y-74002380D01*
X163047619Y-73954761D01*
X163095238Y-73907142D01*
X163142857Y-73811904D01*
X163190476Y-73621428D01*
X163190476Y-73383333D01*
X163142857Y-73192857D01*
X163095238Y-73097619D01*
X163047619Y-73050000D01*
X162952380Y-73002380D01*
X161761904Y-73335714D02*
X161761904Y-74002380D01*
X162190476Y-73335714D02*
X162190476Y-73859523D01*
X162142857Y-73954761D01*
X162047619Y-74002380D01*
X161904761Y-74002380D01*
X161809523Y-73954761D01*
X161761904Y-73907142D01*
X160952380Y-73478571D02*
X161285714Y-73478571D01*
X161285714Y-74002380D02*
X161285714Y-73002380D01*
X160809523Y-73002380D01*
X156452380Y-80528571D02*
X156452380Y-79957142D01*
X156452380Y-80242857D02*
X155452380Y-80242857D01*
X155595238Y-80147619D01*
X155690476Y-80052380D01*
X155738095Y-79957142D01*
X155452380Y-81147619D02*
X155452380Y-81242857D01*
X155500000Y-81338095D01*
X155547619Y-81385714D01*
X155642857Y-81433333D01*
X155833333Y-81480952D01*
X156071428Y-81480952D01*
X156261904Y-81433333D01*
X156357142Y-81385714D01*
X156404761Y-81338095D01*
X156452380Y-81242857D01*
X156452380Y-81147619D01*
X156404761Y-81052380D01*
X156357142Y-81004761D01*
X156261904Y-80957142D01*
X156071428Y-80909523D01*
X155833333Y-80909523D01*
X155642857Y-80957142D01*
X155547619Y-81004761D01*
X155500000Y-81052380D01*
X155452380Y-81147619D01*
X155785714Y-82338095D02*
X156452380Y-82338095D01*
X155785714Y-81909523D02*
X156309523Y-81909523D01*
X156404761Y-81957142D01*
X156452380Y-82052380D01*
X156452380Y-82195238D01*
X156404761Y-82290476D01*
X156357142Y-82338095D01*
X155928571Y-83147619D02*
X155928571Y-82814285D01*
X156452380Y-82814285D02*
X155452380Y-82814285D01*
X155452380Y-83290476D01*
D11*
X161926190Y-86378571D02*
X161926190Y-86426190D01*
X161950000Y-86473809D01*
X161973809Y-86497619D01*
X162021428Y-86521428D01*
X162116666Y-86545238D01*
X162235714Y-86545238D01*
X162330952Y-86521428D01*
X162378571Y-86497619D01*
X162402380Y-86473809D01*
X162426190Y-86426190D01*
X162426190Y-86378571D01*
X162402380Y-86330952D01*
X162378571Y-86307142D01*
X162330952Y-86283333D01*
X162235714Y-86259523D01*
X162116666Y-86259523D01*
X162021428Y-86283333D01*
X161973809Y-86307142D01*
X161950000Y-86330952D01*
X161926190Y-86378571D01*
X162378571Y-86759523D02*
X162402380Y-86783333D01*
X162426190Y-86759523D01*
X162402380Y-86735714D01*
X162378571Y-86759523D01*
X162426190Y-86759523D01*
X162426190Y-87259523D02*
X162426190Y-86973809D01*
X162426190Y-87116666D02*
X161926190Y-87116666D01*
X161997619Y-87069047D01*
X162045238Y-87021428D01*
X162069047Y-86973809D01*
X162092857Y-87688095D02*
X162426190Y-87688095D01*
X162092857Y-87473809D02*
X162354761Y-87473809D01*
X162402380Y-87497619D01*
X162426190Y-87545238D01*
X162426190Y-87616666D01*
X162402380Y-87664285D01*
X162378571Y-87688095D01*
X162164285Y-88092857D02*
X162164285Y-87926190D01*
X162426190Y-87926190D02*
X161926190Y-87926190D01*
X161926190Y-88164285D01*
D12*
X162580952Y-103347619D02*
X162533333Y-103300000D01*
X162438095Y-103252380D01*
X162200000Y-103252380D01*
X162104761Y-103300000D01*
X162057142Y-103347619D01*
X162009523Y-103442857D01*
X162009523Y-103538095D01*
X162057142Y-103680952D01*
X162628571Y-104252380D01*
X162009523Y-104252380D01*
X161580952Y-104157142D02*
X161533333Y-104204761D01*
X161580952Y-104252380D01*
X161628571Y-104204761D01*
X161580952Y-104157142D01*
X161580952Y-104252380D01*
X161152380Y-103347619D02*
X161104761Y-103300000D01*
X161009523Y-103252380D01*
X160771428Y-103252380D01*
X160676190Y-103300000D01*
X160628571Y-103347619D01*
X160580952Y-103442857D01*
X160580952Y-103538095D01*
X160628571Y-103680952D01*
X161200000Y-104252380D01*
X160580952Y-104252380D01*
X159723809Y-103585714D02*
X159723809Y-104252380D01*
X160152380Y-103585714D02*
X160152380Y-104109523D01*
X160104761Y-104204761D01*
X160009523Y-104252380D01*
X159866666Y-104252380D01*
X159771428Y-104204761D01*
X159723809Y-104157142D01*
X158914285Y-103728571D02*
X159247619Y-103728571D01*
X159247619Y-104252380D02*
X159247619Y-103252380D01*
X158771428Y-103252380D01*
X154702380Y-74428571D02*
X154702380Y-73857142D01*
X154702380Y-74142857D02*
X153702380Y-74142857D01*
X153845238Y-74047619D01*
X153940476Y-73952380D01*
X153988095Y-73857142D01*
X153702380Y-75047619D02*
X153702380Y-75142857D01*
X153750000Y-75238095D01*
X153797619Y-75285714D01*
X153892857Y-75333333D01*
X154083333Y-75380952D01*
X154321428Y-75380952D01*
X154511904Y-75333333D01*
X154607142Y-75285714D01*
X154654761Y-75238095D01*
X154702380Y-75142857D01*
X154702380Y-75047619D01*
X154654761Y-74952380D01*
X154607142Y-74904761D01*
X154511904Y-74857142D01*
X154321428Y-74809523D01*
X154083333Y-74809523D01*
X153892857Y-74857142D01*
X153797619Y-74904761D01*
X153750000Y-74952380D01*
X153702380Y-75047619D01*
X154035714Y-76238095D02*
X154702380Y-76238095D01*
X154035714Y-75809523D02*
X154559523Y-75809523D01*
X154654761Y-75857142D01*
X154702380Y-75952380D01*
X154702380Y-76095238D01*
X154654761Y-76190476D01*
X154607142Y-76238095D01*
X154178571Y-77047619D02*
X154178571Y-76714285D01*
X154702380Y-76714285D02*
X153702380Y-76714285D01*
X153702380Y-77190476D01*
D10*
X169876190Y-77580952D02*
X170104761Y-77580952D01*
X169990476Y-77580952D02*
X169990476Y-77180952D01*
X170028571Y-77238095D01*
X170066666Y-77276190D01*
X170104761Y-77295238D01*
X169514285Y-77180952D02*
X169704761Y-77180952D01*
X169723809Y-77371428D01*
X169704761Y-77352380D01*
X169666666Y-77333333D01*
X169571428Y-77333333D01*
X169533333Y-77352380D01*
X169514285Y-77371428D01*
X169495238Y-77409523D01*
X169495238Y-77504761D01*
X169514285Y-77542857D01*
X169533333Y-77561904D01*
X169571428Y-77580952D01*
X169666666Y-77580952D01*
X169704761Y-77561904D01*
X169723809Y-77542857D01*
X169323809Y-77580952D02*
X169323809Y-77180952D01*
X169095238Y-77580952D02*
X169266666Y-77352380D01*
X169095238Y-77180952D02*
X169323809Y-77409523D01*
X167180952Y-99914285D02*
X167180952Y-99685714D01*
X167180952Y-99800000D02*
X166780952Y-99800000D01*
X166838095Y-99761904D01*
X166876190Y-99723809D01*
X166895238Y-99685714D01*
X167180952Y-100085714D02*
X166780952Y-100085714D01*
X167180952Y-100314285D02*
X166952380Y-100142857D01*
X166780952Y-100314285D02*
X167009523Y-100085714D01*
X164666666Y-83180952D02*
X164895238Y-83180952D01*
X164780952Y-83180952D02*
X164780952Y-82780952D01*
X164819047Y-82838095D01*
X164857142Y-82876190D01*
X164895238Y-82895238D01*
X164419047Y-82780952D02*
X164380952Y-82780952D01*
X164342857Y-82800000D01*
X164323809Y-82819047D01*
X164304761Y-82857142D01*
X164285714Y-82933333D01*
X164285714Y-83028571D01*
X164304761Y-83104761D01*
X164323809Y-83142857D01*
X164342857Y-83161904D01*
X164380952Y-83180952D01*
X164419047Y-83180952D01*
X164457142Y-83161904D01*
X164476190Y-83142857D01*
X164495238Y-83104761D01*
X164514285Y-83028571D01*
X164514285Y-82933333D01*
X164495238Y-82857142D01*
X164476190Y-82819047D01*
X164457142Y-82800000D01*
X164419047Y-82780952D01*
X164038095Y-82780952D02*
X164000000Y-82780952D01*
X163961904Y-82800000D01*
X163942857Y-82819047D01*
X163923809Y-82857142D01*
X163904761Y-82933333D01*
X163904761Y-83028571D01*
X163923809Y-83104761D01*
X163942857Y-83142857D01*
X163961904Y-83161904D01*
X164000000Y-83180952D01*
X164038095Y-83180952D01*
X164076190Y-83161904D01*
X164095238Y-83142857D01*
X164114285Y-83104761D01*
X164133333Y-83028571D01*
X164133333Y-82933333D01*
X164114285Y-82857142D01*
X164095238Y-82819047D01*
X164076190Y-82800000D01*
X164038095Y-82780952D01*
X163733333Y-83180952D02*
X163733333Y-82780952D01*
X163504761Y-83180952D02*
X163676190Y-82952380D01*
X163504761Y-82780952D02*
X163733333Y-83009523D01*
X160671428Y-82980952D02*
X160900000Y-82980952D01*
X160785714Y-82980952D02*
X160785714Y-82580952D01*
X160823809Y-82638095D01*
X160861904Y-82676190D01*
X160900000Y-82695238D01*
X160500000Y-82942857D02*
X160480952Y-82961904D01*
X160500000Y-82980952D01*
X160519047Y-82961904D01*
X160500000Y-82942857D01*
X160500000Y-82980952D01*
X160233333Y-82580952D02*
X160195238Y-82580952D01*
X160157142Y-82600000D01*
X160138095Y-82619047D01*
X160119047Y-82657142D01*
X160100000Y-82733333D01*
X160100000Y-82828571D01*
X160119047Y-82904761D01*
X160138095Y-82942857D01*
X160157142Y-82961904D01*
X160195238Y-82980952D01*
X160233333Y-82980952D01*
X160271428Y-82961904D01*
X160290476Y-82942857D01*
X160309523Y-82904761D01*
X160328571Y-82828571D01*
X160328571Y-82733333D01*
X160309523Y-82657142D01*
X160290476Y-82619047D01*
X160271428Y-82600000D01*
X160233333Y-82580952D01*
X159928571Y-82980952D02*
X159928571Y-82580952D01*
X159700000Y-82980952D02*
X159871428Y-82752380D01*
X159700000Y-82580952D02*
X159928571Y-82809523D01*
X170319047Y-88904761D02*
X170300000Y-88923809D01*
X170280952Y-88961904D01*
X170280952Y-89057142D01*
X170300000Y-89095238D01*
X170319047Y-89114285D01*
X170357142Y-89133333D01*
X170395238Y-89133333D01*
X170452380Y-89114285D01*
X170680952Y-88885714D01*
X170680952Y-89133333D01*
X170280952Y-89380952D02*
X170280952Y-89419047D01*
X170300000Y-89457142D01*
X170319047Y-89476190D01*
X170357142Y-89495238D01*
X170433333Y-89514285D01*
X170528571Y-89514285D01*
X170604761Y-89495238D01*
X170642857Y-89476190D01*
X170661904Y-89457142D01*
X170680952Y-89419047D01*
X170680952Y-89380952D01*
X170661904Y-89342857D01*
X170642857Y-89323809D01*
X170604761Y-89304761D01*
X170528571Y-89285714D01*
X170433333Y-89285714D01*
X170357142Y-89304761D01*
X170319047Y-89323809D01*
X170300000Y-89342857D01*
X170280952Y-89380952D01*
X170280952Y-89761904D02*
X170280952Y-89800000D01*
X170300000Y-89838095D01*
X170319047Y-89857142D01*
X170357142Y-89876190D01*
X170433333Y-89895238D01*
X170528571Y-89895238D01*
X170604761Y-89876190D01*
X170642857Y-89857142D01*
X170661904Y-89838095D01*
X170680952Y-89800000D01*
X170680952Y-89761904D01*
X170661904Y-89723809D01*
X170642857Y-89704761D01*
X170604761Y-89685714D01*
X170528571Y-89666666D01*
X170433333Y-89666666D01*
X170357142Y-89685714D01*
X170319047Y-89704761D01*
X170300000Y-89723809D01*
X170280952Y-89761904D01*
X170680952Y-90066666D02*
X170280952Y-90066666D01*
X170680952Y-90295238D02*
X170452380Y-90123809D01*
X170280952Y-90295238D02*
X170509523Y-90066666D01*
X171680952Y-81314285D02*
X171680952Y-81085714D01*
X171680952Y-81200000D02*
X171280952Y-81200000D01*
X171338095Y-81161904D01*
X171376190Y-81123809D01*
X171395238Y-81085714D01*
X171680952Y-81485714D02*
X171280952Y-81485714D01*
X171680952Y-81714285D02*
X171452380Y-81542857D01*
X171280952Y-81714285D02*
X171509523Y-81485714D01*
X157180952Y-77533333D02*
X157180952Y-77304761D01*
X157180952Y-77419047D02*
X156780952Y-77419047D01*
X156838095Y-77380952D01*
X156876190Y-77342857D01*
X156895238Y-77304761D01*
X156780952Y-77780952D02*
X156780952Y-77819047D01*
X156800000Y-77857142D01*
X156819047Y-77876190D01*
X156857142Y-77895238D01*
X156933333Y-77914285D01*
X157028571Y-77914285D01*
X157104761Y-77895238D01*
X157142857Y-77876190D01*
X157161904Y-77857142D01*
X157180952Y-77819047D01*
X157180952Y-77780952D01*
X157161904Y-77742857D01*
X157142857Y-77723809D01*
X157104761Y-77704761D01*
X157028571Y-77685714D01*
X156933333Y-77685714D01*
X156857142Y-77704761D01*
X156819047Y-77723809D01*
X156800000Y-77742857D01*
X156780952Y-77780952D01*
X156780952Y-78161904D02*
X156780952Y-78200000D01*
X156800000Y-78238095D01*
X156819047Y-78257142D01*
X156857142Y-78276190D01*
X156933333Y-78295238D01*
X157028571Y-78295238D01*
X157104761Y-78276190D01*
X157142857Y-78257142D01*
X157161904Y-78238095D01*
X157180952Y-78200000D01*
X157180952Y-78161904D01*
X157161904Y-78123809D01*
X157142857Y-78104761D01*
X157104761Y-78085714D01*
X157028571Y-78066666D01*
X156933333Y-78066666D01*
X156857142Y-78085714D01*
X156819047Y-78104761D01*
X156800000Y-78123809D01*
X156780952Y-78161904D01*
X157180952Y-78466666D02*
X156780952Y-78466666D01*
X157180952Y-78695238D02*
X156952380Y-78523809D01*
X156780952Y-78695238D02*
X157009523Y-78466666D01*
X157419047Y-73804761D02*
X157400000Y-73823809D01*
X157380952Y-73861904D01*
X157380952Y-73957142D01*
X157400000Y-73995238D01*
X157419047Y-74014285D01*
X157457142Y-74033333D01*
X157495238Y-74033333D01*
X157552380Y-74014285D01*
X157780952Y-73785714D01*
X157780952Y-74033333D01*
X157380952Y-74166666D02*
X157380952Y-74433333D01*
X157780952Y-74261904D01*
X157380952Y-74661904D02*
X157380952Y-74700000D01*
X157400000Y-74738095D01*
X157419047Y-74757142D01*
X157457142Y-74776190D01*
X157533333Y-74795238D01*
X157628571Y-74795238D01*
X157704761Y-74776190D01*
X157742857Y-74757142D01*
X157761904Y-74738095D01*
X157780952Y-74700000D01*
X157780952Y-74661904D01*
X157761904Y-74623809D01*
X157742857Y-74604761D01*
X157704761Y-74585714D01*
X157628571Y-74566666D01*
X157533333Y-74566666D01*
X157457142Y-74585714D01*
X157419047Y-74604761D01*
X157400000Y-74623809D01*
X157380952Y-74661904D01*
X157780952Y-74966666D02*
X157380952Y-74966666D01*
X157780952Y-75195238D02*
X157552380Y-75023809D01*
X157380952Y-75195238D02*
X157609523Y-74966666D01*
X162595238Y-97219047D02*
X162576190Y-97200000D01*
X162538095Y-97180952D01*
X162442857Y-97180952D01*
X162404761Y-97200000D01*
X162385714Y-97219047D01*
X162366666Y-97257142D01*
X162366666Y-97295238D01*
X162385714Y-97352380D01*
X162614285Y-97580952D01*
X162366666Y-97580952D01*
X162119047Y-97180952D02*
X162080952Y-97180952D01*
X162042857Y-97200000D01*
X162023809Y-97219047D01*
X162004761Y-97257142D01*
X161985714Y-97333333D01*
X161985714Y-97428571D01*
X162004761Y-97504761D01*
X162023809Y-97542857D01*
X162042857Y-97561904D01*
X162080952Y-97580952D01*
X162119047Y-97580952D01*
X162157142Y-97561904D01*
X162176190Y-97542857D01*
X162195238Y-97504761D01*
X162214285Y-97428571D01*
X162214285Y-97333333D01*
X162195238Y-97257142D01*
X162176190Y-97219047D01*
X162157142Y-97200000D01*
X162119047Y-97180952D01*
X161738095Y-97180952D02*
X161700000Y-97180952D01*
X161661904Y-97200000D01*
X161642857Y-97219047D01*
X161623809Y-97257142D01*
X161604761Y-97333333D01*
X161604761Y-97428571D01*
X161623809Y-97504761D01*
X161642857Y-97542857D01*
X161661904Y-97561904D01*
X161700000Y-97580952D01*
X161738095Y-97580952D01*
X161776190Y-97561904D01*
X161795238Y-97542857D01*
X161814285Y-97504761D01*
X161833333Y-97428571D01*
X161833333Y-97333333D01*
X161814285Y-97257142D01*
X161795238Y-97219047D01*
X161776190Y-97200000D01*
X161738095Y-97180952D01*
X161433333Y-97580952D02*
X161433333Y-97180952D01*
X161204761Y-97580952D02*
X161376190Y-97352380D01*
X161204761Y-97180952D02*
X161433333Y-97409523D01*
X158990476Y-97580952D02*
X159219047Y-97580952D01*
X159104761Y-97580952D02*
X159104761Y-97180952D01*
X159142857Y-97238095D01*
X159180952Y-97276190D01*
X159219047Y-97295238D01*
X158819047Y-97542857D02*
X158800000Y-97561904D01*
X158819047Y-97580952D01*
X158838095Y-97561904D01*
X158819047Y-97542857D01*
X158819047Y-97580952D01*
X158571428Y-97352380D02*
X158609523Y-97333333D01*
X158628571Y-97314285D01*
X158647619Y-97276190D01*
X158647619Y-97257142D01*
X158628571Y-97219047D01*
X158609523Y-97200000D01*
X158571428Y-97180952D01*
X158495238Y-97180952D01*
X158457142Y-97200000D01*
X158438095Y-97219047D01*
X158419047Y-97257142D01*
X158419047Y-97276190D01*
X158438095Y-97314285D01*
X158457142Y-97333333D01*
X158495238Y-97352380D01*
X158571428Y-97352380D01*
X158609523Y-97371428D01*
X158628571Y-97390476D01*
X158647619Y-97428571D01*
X158647619Y-97504761D01*
X158628571Y-97542857D01*
X158609523Y-97561904D01*
X158571428Y-97580952D01*
X158495238Y-97580952D01*
X158457142Y-97561904D01*
X158438095Y-97542857D01*
X158419047Y-97504761D01*
X158419047Y-97428571D01*
X158438095Y-97390476D01*
X158457142Y-97371428D01*
X158495238Y-97352380D01*
X158285714Y-97180952D02*
X158019047Y-97180952D01*
X158190476Y-97580952D01*
X157866666Y-97580952D02*
X157866666Y-97180952D01*
X157733333Y-97466666D01*
X157600000Y-97180952D01*
X157600000Y-97580952D01*
X167980952Y-91285714D02*
X167980952Y-91533333D01*
X168133333Y-91400000D01*
X168133333Y-91457142D01*
X168152380Y-91495238D01*
X168171428Y-91514285D01*
X168209523Y-91533333D01*
X168304761Y-91533333D01*
X168342857Y-91514285D01*
X168361904Y-91495238D01*
X168380952Y-91457142D01*
X168380952Y-91342857D01*
X168361904Y-91304761D01*
X168342857Y-91285714D01*
X168114285Y-91876190D02*
X168380952Y-91876190D01*
X167961904Y-91780952D02*
X168247619Y-91685714D01*
X168247619Y-91933333D01*
X167980952Y-92161904D02*
X167980952Y-92200000D01*
X168000000Y-92238095D01*
X168019047Y-92257142D01*
X168057142Y-92276190D01*
X168133333Y-92295238D01*
X168228571Y-92295238D01*
X168304761Y-92276190D01*
X168342857Y-92257142D01*
X168361904Y-92238095D01*
X168380952Y-92200000D01*
X168380952Y-92161904D01*
X168361904Y-92123809D01*
X168342857Y-92104761D01*
X168304761Y-92085714D01*
X168228571Y-92066666D01*
X168133333Y-92066666D01*
X168057142Y-92085714D01*
X168019047Y-92104761D01*
X168000000Y-92123809D01*
X167980952Y-92161904D01*
X168380952Y-92466666D02*
X167980952Y-92466666D01*
X168380952Y-92695238D02*
X168152380Y-92523809D01*
X167980952Y-92695238D02*
X168209523Y-92466666D01*
X168380952Y-86009523D02*
X168380952Y-85780952D01*
X168380952Y-85895238D02*
X167980952Y-85895238D01*
X168038095Y-85857142D01*
X168076190Y-85819047D01*
X168095238Y-85780952D01*
X168342857Y-86180952D02*
X168361904Y-86200000D01*
X168380952Y-86180952D01*
X168361904Y-86161904D01*
X168342857Y-86180952D01*
X168380952Y-86180952D01*
X168152380Y-86428571D02*
X168133333Y-86390476D01*
X168114285Y-86371428D01*
X168076190Y-86352380D01*
X168057142Y-86352380D01*
X168019047Y-86371428D01*
X168000000Y-86390476D01*
X167980952Y-86428571D01*
X167980952Y-86504761D01*
X168000000Y-86542857D01*
X168019047Y-86561904D01*
X168057142Y-86580952D01*
X168076190Y-86580952D01*
X168114285Y-86561904D01*
X168133333Y-86542857D01*
X168152380Y-86504761D01*
X168152380Y-86428571D01*
X168171428Y-86390476D01*
X168190476Y-86371428D01*
X168228571Y-86352380D01*
X168304761Y-86352380D01*
X168342857Y-86371428D01*
X168361904Y-86390476D01*
X168380952Y-86428571D01*
X168380952Y-86504761D01*
X168361904Y-86542857D01*
X168342857Y-86561904D01*
X168304761Y-86580952D01*
X168228571Y-86580952D01*
X168190476Y-86561904D01*
X168171428Y-86542857D01*
X168152380Y-86504761D01*
X167980952Y-86714285D02*
X167980952Y-86980952D01*
X168380952Y-86809523D01*
X168380952Y-87133333D02*
X167980952Y-87133333D01*
X168266666Y-87266666D01*
X167980952Y-87400000D01*
X168380952Y-87400000D01*
X169085714Y-72780952D02*
X169314285Y-72780952D01*
X169200000Y-72780952D02*
X169200000Y-72380952D01*
X169238095Y-72438095D01*
X169276190Y-72476190D01*
X169314285Y-72495238D01*
X168914285Y-72780952D02*
X168914285Y-72380952D01*
X168685714Y-72780952D02*
X168857142Y-72552380D01*
X168685714Y-72380952D02*
X168914285Y-72609523D01*
M02*
