G04 #@! TF.GenerationSoftware,KiCad,Pcbnew,5.1.5-52549c5~86~ubuntu18.04.1*
G04 #@! TF.CreationDate,2020-04-28T10:32:59-07:00*
G04 #@! TF.ProjectId,SHIELD_MIMAS_TFT_BT_POWERSUPPLY,53484945-4c44-45f4-9d49-4d41535f5446,rev?*
G04 #@! TF.SameCoordinates,Original*
G04 #@! TF.FileFunction,Other,Fab,Top*
%FSLAX46Y46*%
G04 Gerber Fmt 4.6, Leading zero omitted, Abs format (unit mm)*
G04 Created by KiCad (PCBNEW 5.1.5-52549c5~86~ubuntu18.04.1) date 2020-04-28 10:32:59*
%MOMM*%
%LPD*%
G04 APERTURE LIST*
%ADD10C,0.150000*%
%ADD11C,0.100000*%
%ADD12C,0.075000*%
G04 APERTURE END LIST*
D10*
X118885000Y-132020000D02*
X118885000Y-67980000D01*
X180115000Y-133020000D02*
X119885000Y-133020000D01*
X181115000Y-67980000D02*
X181115000Y-132020000D01*
X119885000Y-66980000D02*
X180115000Y-66980000D01*
X180115000Y-133020000D02*
X181115000Y-132020000D01*
X180115000Y-66980000D02*
X181115000Y-67980000D01*
X118885000Y-67980000D02*
X119885000Y-66980000D01*
X118885000Y-132020000D02*
X119885000Y-133020000D01*
D11*
X151235000Y-127330000D02*
X151870000Y-127965000D01*
X146790000Y-127330000D02*
X151235000Y-127330000D01*
X146790000Y-129870000D02*
X146790000Y-127330000D01*
X151870000Y-129870000D02*
X146790000Y-129870000D01*
X151870000Y-127965000D02*
X151870000Y-129870000D01*
X159200000Y-127007107D02*
X159700000Y-126300000D01*
X158700000Y-126300000D02*
X159200000Y-127007107D01*
X172150000Y-124700000D02*
X172150000Y-132300000D01*
X156250000Y-124700000D02*
X156250000Y-132300000D01*
X156250000Y-132300000D02*
X172150000Y-132300000D01*
X171350000Y-124700000D02*
X172150000Y-124700000D01*
X171350000Y-126300000D02*
X171350000Y-124700000D01*
X157050000Y-126300000D02*
X171350000Y-126300000D01*
X157050000Y-124700000D02*
X157050000Y-126300000D01*
X156250000Y-124700000D02*
X157050000Y-124700000D01*
X166435000Y-116530000D02*
X167070000Y-117165000D01*
X159450000Y-116530000D02*
X166435000Y-116530000D01*
X159450000Y-119070000D02*
X159450000Y-116530000D01*
X167070000Y-119070000D02*
X159450000Y-119070000D01*
X167070000Y-117165000D02*
X167070000Y-119070000D01*
X149600000Y-111800000D02*
X150400000Y-111800000D01*
X149600000Y-110200000D02*
X149600000Y-111800000D01*
X150100000Y-110200000D02*
X149600000Y-110200000D01*
X150400000Y-110500000D02*
X150100000Y-110200000D01*
X150400000Y-111800000D02*
X150400000Y-110500000D01*
X154600000Y-111800000D02*
X155400000Y-111800000D01*
X154600000Y-110200000D02*
X154600000Y-111800000D01*
X155100000Y-110200000D02*
X154600000Y-110200000D01*
X155400000Y-110500000D02*
X155100000Y-110200000D01*
X155400000Y-111800000D02*
X155400000Y-110500000D01*
X159600000Y-111800000D02*
X160400000Y-111800000D01*
X159600000Y-110200000D02*
X159600000Y-111800000D01*
X160100000Y-110200000D02*
X159600000Y-110200000D01*
X160400000Y-110500000D02*
X160100000Y-110200000D01*
X160400000Y-111800000D02*
X160400000Y-110500000D01*
X164600000Y-111800000D02*
X165400000Y-111800000D01*
X164600000Y-110200000D02*
X164600000Y-111800000D01*
X165100000Y-110200000D02*
X164600000Y-110200000D01*
X165400000Y-110500000D02*
X165100000Y-110200000D01*
X165400000Y-111800000D02*
X165400000Y-110500000D01*
X169600000Y-111800000D02*
X170400000Y-111800000D01*
X169600000Y-110200000D02*
X169600000Y-111800000D01*
X170100000Y-110200000D02*
X169600000Y-110200000D01*
X170400000Y-110500000D02*
X170100000Y-110200000D01*
X170400000Y-111800000D02*
X170400000Y-110500000D01*
D10*
X145242380Y-139818333D02*
X145242380Y-139246904D01*
X146242380Y-139532619D02*
X145242380Y-139532619D01*
X145718571Y-138913571D02*
X145718571Y-138580238D01*
X146242380Y-138437380D02*
X146242380Y-138913571D01*
X145242380Y-138913571D01*
X145242380Y-138437380D01*
X146242380Y-137437380D02*
X145766190Y-137770714D01*
X146242380Y-138008809D02*
X145242380Y-138008809D01*
X145242380Y-137627857D01*
X145290000Y-137532619D01*
X145337619Y-137485000D01*
X145432857Y-137437380D01*
X145575714Y-137437380D01*
X145670952Y-137485000D01*
X145718571Y-137532619D01*
X145766190Y-137627857D01*
X145766190Y-138008809D01*
X146242380Y-137008809D02*
X145242380Y-137008809D01*
X145956666Y-136675476D01*
X145242380Y-136342142D01*
X146242380Y-136342142D01*
X146337619Y-136104047D02*
X146337619Y-135342142D01*
X145242380Y-134913571D02*
X145242380Y-134723095D01*
X145290000Y-134627857D01*
X145385238Y-134532619D01*
X145575714Y-134485000D01*
X145909047Y-134485000D01*
X146099523Y-134532619D01*
X146194761Y-134627857D01*
X146242380Y-134723095D01*
X146242380Y-134913571D01*
X146194761Y-135008809D01*
X146099523Y-135104047D01*
X145909047Y-135151666D01*
X145575714Y-135151666D01*
X145385238Y-135104047D01*
X145290000Y-135008809D01*
X145242380Y-134913571D01*
X145242380Y-134056428D02*
X146051904Y-134056428D01*
X146147142Y-134008809D01*
X146194761Y-133961190D01*
X146242380Y-133865952D01*
X146242380Y-133675476D01*
X146194761Y-133580238D01*
X146147142Y-133532619D01*
X146051904Y-133485000D01*
X145242380Y-133485000D01*
X145242380Y-133151666D02*
X145242380Y-132580238D01*
X146242380Y-132865952D02*
X145242380Y-132865952D01*
X146242380Y-132246904D02*
X145242380Y-132246904D01*
X145242380Y-131865952D01*
X145290000Y-131770714D01*
X145337619Y-131723095D01*
X145432857Y-131675476D01*
X145575714Y-131675476D01*
X145670952Y-131723095D01*
X145718571Y-131770714D01*
X145766190Y-131865952D01*
X145766190Y-132246904D01*
X145242380Y-131246904D02*
X146051904Y-131246904D01*
X146147142Y-131199285D01*
X146194761Y-131151666D01*
X146242380Y-131056428D01*
X146242380Y-130865952D01*
X146194761Y-130770714D01*
X146147142Y-130723095D01*
X146051904Y-130675476D01*
X145242380Y-130675476D01*
X145242380Y-130342142D02*
X145242380Y-129770714D01*
X146242380Y-130056428D02*
X145242380Y-130056428D01*
X146337619Y-129675476D02*
X146337619Y-128913571D01*
X146242380Y-128151666D02*
X146242380Y-128723095D01*
X146242380Y-128437380D02*
X145242380Y-128437380D01*
X145385238Y-128532619D01*
X145480476Y-128627857D01*
X145528095Y-128723095D01*
X145242380Y-127818333D02*
X146242380Y-127151666D01*
X145242380Y-127151666D02*
X146242380Y-127818333D01*
X145337619Y-126818333D02*
X145290000Y-126770714D01*
X145242380Y-126675476D01*
X145242380Y-126437380D01*
X145290000Y-126342142D01*
X145337619Y-126294523D01*
X145432857Y-126246904D01*
X145528095Y-126246904D01*
X145670952Y-126294523D01*
X146242380Y-126865952D01*
X146242380Y-126246904D01*
X146853809Y-130822380D02*
X146377619Y-130822380D01*
X146330000Y-131298571D01*
X146377619Y-131250952D01*
X146472857Y-131203333D01*
X146710952Y-131203333D01*
X146806190Y-131250952D01*
X146853809Y-131298571D01*
X146901428Y-131393809D01*
X146901428Y-131631904D01*
X146853809Y-131727142D01*
X146806190Y-131774761D01*
X146710952Y-131822380D01*
X146472857Y-131822380D01*
X146377619Y-131774761D01*
X146330000Y-131727142D01*
X147187142Y-130822380D02*
X147520476Y-131822380D01*
X147853809Y-130822380D01*
X150234761Y-130870000D02*
X150139523Y-130822380D01*
X149996666Y-130822380D01*
X149853809Y-130870000D01*
X149758571Y-130965238D01*
X149710952Y-131060476D01*
X149663333Y-131250952D01*
X149663333Y-131393809D01*
X149710952Y-131584285D01*
X149758571Y-131679523D01*
X149853809Y-131774761D01*
X149996666Y-131822380D01*
X150091904Y-131822380D01*
X150234761Y-131774761D01*
X150282380Y-131727142D01*
X150282380Y-131393809D01*
X150091904Y-131393809D01*
X150710952Y-131822380D02*
X150710952Y-130822380D01*
X151282380Y-131822380D01*
X151282380Y-130822380D01*
X151758571Y-131822380D02*
X151758571Y-130822380D01*
X151996666Y-130822380D01*
X152139523Y-130870000D01*
X152234761Y-130965238D01*
X152282380Y-131060476D01*
X152330000Y-131250952D01*
X152330000Y-131393809D01*
X152282380Y-131584285D01*
X152234761Y-131679523D01*
X152139523Y-131774761D01*
X151996666Y-131822380D01*
X151758571Y-131822380D01*
X140616666Y-94816666D02*
X140616666Y-94416666D01*
X141316666Y-94616666D02*
X140616666Y-94616666D01*
X140950000Y-93950000D02*
X140950000Y-94183333D01*
X141316666Y-94183333D02*
X140616666Y-94183333D01*
X140616666Y-93850000D01*
X140616666Y-93683333D02*
X140616666Y-93283333D01*
X141316666Y-93483333D02*
X140616666Y-93483333D01*
X141383333Y-93216666D02*
X141383333Y-92683333D01*
X141316666Y-92150000D02*
X141316666Y-92550000D01*
X141316666Y-92350000D02*
X140616666Y-92350000D01*
X140716666Y-92416666D01*
X140783333Y-92483333D01*
X140816666Y-92550000D01*
X140683333Y-91883333D02*
X140650000Y-91850000D01*
X140616666Y-91783333D01*
X140616666Y-91616666D01*
X140650000Y-91550000D01*
X140683333Y-91516666D01*
X140750000Y-91483333D01*
X140816666Y-91483333D01*
X140916666Y-91516666D01*
X141316666Y-91916666D01*
X141316666Y-91483333D01*
X140916666Y-91083333D02*
X140883333Y-91150000D01*
X140850000Y-91183333D01*
X140783333Y-91216666D01*
X140750000Y-91216666D01*
X140683333Y-91183333D01*
X140650000Y-91150000D01*
X140616666Y-91083333D01*
X140616666Y-90950000D01*
X140650000Y-90883333D01*
X140683333Y-90850000D01*
X140750000Y-90816666D01*
X140783333Y-90816666D01*
X140850000Y-90850000D01*
X140883333Y-90883333D01*
X140916666Y-90950000D01*
X140916666Y-91083333D01*
X140950000Y-91150000D01*
X140983333Y-91183333D01*
X141050000Y-91216666D01*
X141183333Y-91216666D01*
X141250000Y-91183333D01*
X141283333Y-91150000D01*
X141316666Y-91083333D01*
X141316666Y-90950000D01*
X141283333Y-90883333D01*
X141250000Y-90850000D01*
X141183333Y-90816666D01*
X141050000Y-90816666D01*
X140983333Y-90850000D01*
X140950000Y-90883333D01*
X140916666Y-90950000D01*
X141316666Y-90583333D02*
X140850000Y-90216666D01*
X140850000Y-90583333D02*
X141316666Y-90216666D01*
X141316666Y-89583333D02*
X141316666Y-89983333D01*
X141316666Y-89783333D02*
X140616666Y-89783333D01*
X140716666Y-89850000D01*
X140783333Y-89916666D01*
X140816666Y-89983333D01*
X140616666Y-88983333D02*
X140616666Y-89116666D01*
X140650000Y-89183333D01*
X140683333Y-89216666D01*
X140783333Y-89283333D01*
X140916666Y-89316666D01*
X141183333Y-89316666D01*
X141250000Y-89283333D01*
X141283333Y-89250000D01*
X141316666Y-89183333D01*
X141316666Y-89050000D01*
X141283333Y-88983333D01*
X141250000Y-88950000D01*
X141183333Y-88916666D01*
X141016666Y-88916666D01*
X140950000Y-88950000D01*
X140916666Y-88983333D01*
X140883333Y-89050000D01*
X140883333Y-89183333D01*
X140916666Y-89250000D01*
X140950000Y-89283333D01*
X141016666Y-89316666D01*
X140616666Y-88483333D02*
X140616666Y-88416666D01*
X140650000Y-88350000D01*
X140683333Y-88316666D01*
X140750000Y-88283333D01*
X140883333Y-88250000D01*
X141050000Y-88250000D01*
X141183333Y-88283333D01*
X141250000Y-88316666D01*
X141283333Y-88350000D01*
X141316666Y-88416666D01*
X141316666Y-88483333D01*
X141283333Y-88550000D01*
X141250000Y-88583333D01*
X141183333Y-88616666D01*
X141050000Y-88650000D01*
X140883333Y-88650000D01*
X140750000Y-88616666D01*
X140683333Y-88583333D01*
X140650000Y-88550000D01*
X140616666Y-88483333D01*
X157414285Y-138557142D02*
X157366666Y-138604761D01*
X157223809Y-138652380D01*
X157128571Y-138652380D01*
X156985714Y-138604761D01*
X156890476Y-138509523D01*
X156842857Y-138414285D01*
X156795238Y-138223809D01*
X156795238Y-138080952D01*
X156842857Y-137890476D01*
X156890476Y-137795238D01*
X156985714Y-137700000D01*
X157128571Y-137652380D01*
X157223809Y-137652380D01*
X157366666Y-137700000D01*
X157414285Y-137747619D01*
X157985714Y-138652380D02*
X157890476Y-138604761D01*
X157842857Y-138557142D01*
X157795238Y-138461904D01*
X157795238Y-138176190D01*
X157842857Y-138080952D01*
X157890476Y-138033333D01*
X157985714Y-137985714D01*
X158128571Y-137985714D01*
X158223809Y-138033333D01*
X158271428Y-138080952D01*
X158319047Y-138176190D01*
X158319047Y-138461904D01*
X158271428Y-138557142D01*
X158223809Y-138604761D01*
X158128571Y-138652380D01*
X157985714Y-138652380D01*
X158747619Y-137985714D02*
X158747619Y-138652380D01*
X158747619Y-138080952D02*
X158795238Y-138033333D01*
X158890476Y-137985714D01*
X159033333Y-137985714D01*
X159128571Y-138033333D01*
X159176190Y-138128571D01*
X159176190Y-138652380D01*
X159652380Y-137985714D02*
X159652380Y-138652380D01*
X159652380Y-138080952D02*
X159700000Y-138033333D01*
X159795238Y-137985714D01*
X159938095Y-137985714D01*
X160033333Y-138033333D01*
X160080952Y-138128571D01*
X160080952Y-138652380D01*
X160319047Y-138747619D02*
X161080952Y-138747619D01*
X161509523Y-137652380D02*
X161604761Y-137652380D01*
X161700000Y-137700000D01*
X161747619Y-137747619D01*
X161795238Y-137842857D01*
X161842857Y-138033333D01*
X161842857Y-138271428D01*
X161795238Y-138461904D01*
X161747619Y-138557142D01*
X161700000Y-138604761D01*
X161604761Y-138652380D01*
X161509523Y-138652380D01*
X161414285Y-138604761D01*
X161366666Y-138557142D01*
X161319047Y-138461904D01*
X161271428Y-138271428D01*
X161271428Y-138033333D01*
X161319047Y-137842857D01*
X161366666Y-137747619D01*
X161414285Y-137700000D01*
X161509523Y-137652380D01*
X162795238Y-138652380D02*
X162223809Y-138652380D01*
X162509523Y-138652380D02*
X162509523Y-137652380D01*
X162414285Y-137795238D01*
X162319047Y-137890476D01*
X162223809Y-137938095D01*
X163128571Y-138652380D02*
X163652380Y-137985714D01*
X163128571Y-137985714D02*
X163652380Y-138652380D01*
X164223809Y-137652380D02*
X164319047Y-137652380D01*
X164414285Y-137700000D01*
X164461904Y-137747619D01*
X164509523Y-137842857D01*
X164557142Y-138033333D01*
X164557142Y-138271428D01*
X164509523Y-138461904D01*
X164461904Y-138557142D01*
X164414285Y-138604761D01*
X164319047Y-138652380D01*
X164223809Y-138652380D01*
X164128571Y-138604761D01*
X164080952Y-138557142D01*
X164033333Y-138461904D01*
X163985714Y-138271428D01*
X163985714Y-138033333D01*
X164033333Y-137842857D01*
X164080952Y-137747619D01*
X164128571Y-137700000D01*
X164223809Y-137652380D01*
X165414285Y-137652380D02*
X165223809Y-137652380D01*
X165128571Y-137700000D01*
X165080952Y-137747619D01*
X164985714Y-137890476D01*
X164938095Y-138080952D01*
X164938095Y-138461904D01*
X164985714Y-138557142D01*
X165033333Y-138604761D01*
X165128571Y-138652380D01*
X165319047Y-138652380D01*
X165414285Y-138604761D01*
X165461904Y-138557142D01*
X165509523Y-138461904D01*
X165509523Y-138223809D01*
X165461904Y-138128571D01*
X165414285Y-138080952D01*
X165319047Y-138033333D01*
X165128571Y-138033333D01*
X165033333Y-138080952D01*
X164985714Y-138128571D01*
X164938095Y-138223809D01*
X165700000Y-138747619D02*
X166461904Y-138747619D01*
X167033333Y-138128571D02*
X166700000Y-138128571D01*
X166700000Y-138652380D02*
X166700000Y-137652380D01*
X167176190Y-137652380D01*
X167938095Y-138604761D02*
X167842857Y-138652380D01*
X167652380Y-138652380D01*
X167557142Y-138604761D01*
X167509523Y-138509523D01*
X167509523Y-138128571D01*
X167557142Y-138033333D01*
X167652380Y-137985714D01*
X167842857Y-137985714D01*
X167938095Y-138033333D01*
X167985714Y-138128571D01*
X167985714Y-138223809D01*
X167509523Y-138319047D01*
X168414285Y-138652380D02*
X168414285Y-137985714D01*
X168414285Y-138080952D02*
X168461904Y-138033333D01*
X168557142Y-137985714D01*
X168700000Y-137985714D01*
X168795238Y-138033333D01*
X168842857Y-138128571D01*
X168842857Y-138652380D01*
X168842857Y-138128571D02*
X168890476Y-138033333D01*
X168985714Y-137985714D01*
X169128571Y-137985714D01*
X169223809Y-138033333D01*
X169271428Y-138128571D01*
X169271428Y-138652380D01*
X170176190Y-138652380D02*
X170176190Y-138128571D01*
X170128571Y-138033333D01*
X170033333Y-137985714D01*
X169842857Y-137985714D01*
X169747619Y-138033333D01*
X170176190Y-138604761D02*
X170080952Y-138652380D01*
X169842857Y-138652380D01*
X169747619Y-138604761D01*
X169700000Y-138509523D01*
X169700000Y-138414285D01*
X169747619Y-138319047D01*
X169842857Y-138271428D01*
X170080952Y-138271428D01*
X170176190Y-138223809D01*
X170795238Y-138652380D02*
X170700000Y-138604761D01*
X170652380Y-138509523D01*
X170652380Y-137652380D01*
X171557142Y-138604761D02*
X171461904Y-138652380D01*
X171271428Y-138652380D01*
X171176190Y-138604761D01*
X171128571Y-138509523D01*
X171128571Y-138128571D01*
X171176190Y-138033333D01*
X171271428Y-137985714D01*
X171461904Y-137985714D01*
X171557142Y-138033333D01*
X171604761Y-138128571D01*
X171604761Y-138223809D01*
X171128571Y-138319047D01*
X160890476Y-129804761D02*
X161033333Y-129852380D01*
X161271428Y-129852380D01*
X161366666Y-129804761D01*
X161414285Y-129757142D01*
X161461904Y-129661904D01*
X161461904Y-129566666D01*
X161414285Y-129471428D01*
X161366666Y-129423809D01*
X161271428Y-129376190D01*
X161080952Y-129328571D01*
X160985714Y-129280952D01*
X160938095Y-129233333D01*
X160890476Y-129138095D01*
X160890476Y-129042857D01*
X160938095Y-128947619D01*
X160985714Y-128900000D01*
X161080952Y-128852380D01*
X161319047Y-128852380D01*
X161461904Y-128900000D01*
X161890476Y-129852380D02*
X161890476Y-128852380D01*
X162271428Y-128852380D01*
X162366666Y-128900000D01*
X162414285Y-128947619D01*
X162461904Y-129042857D01*
X162461904Y-129185714D01*
X162414285Y-129280952D01*
X162366666Y-129328571D01*
X162271428Y-129376190D01*
X161890476Y-129376190D01*
X162890476Y-129852380D02*
X162890476Y-128852380D01*
X164128571Y-129852380D02*
X164128571Y-128852380D01*
X164509523Y-128852380D01*
X164604761Y-128900000D01*
X164652380Y-128947619D01*
X164700000Y-129042857D01*
X164700000Y-129185714D01*
X164652380Y-129280952D01*
X164604761Y-129328571D01*
X164509523Y-129376190D01*
X164128571Y-129376190D01*
X165319047Y-128852380D02*
X165509523Y-128852380D01*
X165604761Y-128900000D01*
X165700000Y-128995238D01*
X165747619Y-129185714D01*
X165747619Y-129519047D01*
X165700000Y-129709523D01*
X165604761Y-129804761D01*
X165509523Y-129852380D01*
X165319047Y-129852380D01*
X165223809Y-129804761D01*
X165128571Y-129709523D01*
X165080952Y-129519047D01*
X165080952Y-129185714D01*
X165128571Y-128995238D01*
X165223809Y-128900000D01*
X165319047Y-128852380D01*
X166747619Y-129852380D02*
X166414285Y-129376190D01*
X166176190Y-129852380D02*
X166176190Y-128852380D01*
X166557142Y-128852380D01*
X166652380Y-128900000D01*
X166700000Y-128947619D01*
X166747619Y-129042857D01*
X166747619Y-129185714D01*
X166700000Y-129280952D01*
X166652380Y-129328571D01*
X166557142Y-129376190D01*
X166176190Y-129376190D01*
X167033333Y-128852380D02*
X167604761Y-128852380D01*
X167319047Y-129852380D02*
X167319047Y-128852380D01*
X160498095Y-117252380D02*
X160688571Y-117252380D01*
X160783809Y-117300000D01*
X160879047Y-117395238D01*
X160926666Y-117585714D01*
X160926666Y-117919047D01*
X160879047Y-118109523D01*
X160783809Y-118204761D01*
X160688571Y-118252380D01*
X160498095Y-118252380D01*
X160402857Y-118204761D01*
X160307619Y-118109523D01*
X160260000Y-117919047D01*
X160260000Y-117585714D01*
X160307619Y-117395238D01*
X160402857Y-117300000D01*
X160498095Y-117252380D01*
X161688571Y-117728571D02*
X161355238Y-117728571D01*
X161355238Y-118252380D02*
X161355238Y-117252380D01*
X161831428Y-117252380D01*
X162545714Y-117728571D02*
X162212380Y-117728571D01*
X162212380Y-118252380D02*
X162212380Y-117252380D01*
X162688571Y-117252380D01*
X164783809Y-117252380D02*
X164974285Y-117252380D01*
X165069523Y-117300000D01*
X165164761Y-117395238D01*
X165212380Y-117585714D01*
X165212380Y-117919047D01*
X165164761Y-118109523D01*
X165069523Y-118204761D01*
X164974285Y-118252380D01*
X164783809Y-118252380D01*
X164688571Y-118204761D01*
X164593333Y-118109523D01*
X164545714Y-117919047D01*
X164545714Y-117585714D01*
X164593333Y-117395238D01*
X164688571Y-117300000D01*
X164783809Y-117252380D01*
X165640952Y-118252380D02*
X165640952Y-117252380D01*
X166212380Y-118252380D01*
X166212380Y-117252380D01*
D12*
X148755714Y-111192857D02*
X148612857Y-111292857D01*
X148755714Y-111364285D02*
X148455714Y-111364285D01*
X148455714Y-111250000D01*
X148470000Y-111221428D01*
X148484285Y-111207142D01*
X148512857Y-111192857D01*
X148555714Y-111192857D01*
X148584285Y-111207142D01*
X148598571Y-111221428D01*
X148612857Y-111250000D01*
X148612857Y-111364285D01*
X148598571Y-111064285D02*
X148598571Y-110964285D01*
X148755714Y-110921428D02*
X148755714Y-111064285D01*
X148455714Y-111064285D01*
X148455714Y-110921428D01*
X148755714Y-110792857D02*
X148455714Y-110792857D01*
X148455714Y-110721428D01*
X148470000Y-110678571D01*
X148498571Y-110650000D01*
X148527142Y-110635714D01*
X148584285Y-110621428D01*
X148627142Y-110621428D01*
X148684285Y-110635714D01*
X148712857Y-110650000D01*
X148741428Y-110678571D01*
X148755714Y-110721428D01*
X148755714Y-110792857D01*
X153598571Y-111392857D02*
X153612857Y-111350000D01*
X153627142Y-111335714D01*
X153655714Y-111321428D01*
X153698571Y-111321428D01*
X153727142Y-111335714D01*
X153741428Y-111350000D01*
X153755714Y-111378571D01*
X153755714Y-111492857D01*
X153455714Y-111492857D01*
X153455714Y-111392857D01*
X153470000Y-111364285D01*
X153484285Y-111350000D01*
X153512857Y-111335714D01*
X153541428Y-111335714D01*
X153570000Y-111350000D01*
X153584285Y-111364285D01*
X153598571Y-111392857D01*
X153598571Y-111492857D01*
X153755714Y-111050000D02*
X153755714Y-111192857D01*
X153455714Y-111192857D01*
X153455714Y-110950000D02*
X153698571Y-110950000D01*
X153727142Y-110935714D01*
X153741428Y-110921428D01*
X153755714Y-110892857D01*
X153755714Y-110835714D01*
X153741428Y-110807142D01*
X153727142Y-110792857D01*
X153698571Y-110778571D01*
X153455714Y-110778571D01*
X153598571Y-110635714D02*
X153598571Y-110535714D01*
X153755714Y-110492857D02*
X153755714Y-110635714D01*
X153455714Y-110635714D01*
X153455714Y-110492857D01*
X158755714Y-111192857D02*
X158612857Y-111292857D01*
X158755714Y-111364285D02*
X158455714Y-111364285D01*
X158455714Y-111250000D01*
X158470000Y-111221428D01*
X158484285Y-111207142D01*
X158512857Y-111192857D01*
X158555714Y-111192857D01*
X158584285Y-111207142D01*
X158598571Y-111221428D01*
X158612857Y-111250000D01*
X158612857Y-111364285D01*
X158598571Y-111064285D02*
X158598571Y-110964285D01*
X158755714Y-110921428D02*
X158755714Y-111064285D01*
X158455714Y-111064285D01*
X158455714Y-110921428D01*
X158755714Y-110792857D02*
X158455714Y-110792857D01*
X158455714Y-110721428D01*
X158470000Y-110678571D01*
X158498571Y-110650000D01*
X158527142Y-110635714D01*
X158584285Y-110621428D01*
X158627142Y-110621428D01*
X158684285Y-110635714D01*
X158712857Y-110650000D01*
X158741428Y-110678571D01*
X158755714Y-110721428D01*
X158755714Y-110792857D01*
X163470000Y-111500000D02*
X163455714Y-111528571D01*
X163455714Y-111571428D01*
X163470000Y-111614285D01*
X163498571Y-111642857D01*
X163527142Y-111657142D01*
X163584285Y-111671428D01*
X163627142Y-111671428D01*
X163684285Y-111657142D01*
X163712857Y-111642857D01*
X163741428Y-111614285D01*
X163755714Y-111571428D01*
X163755714Y-111542857D01*
X163741428Y-111500000D01*
X163727142Y-111485714D01*
X163627142Y-111485714D01*
X163627142Y-111542857D01*
X163755714Y-111185714D02*
X163612857Y-111285714D01*
X163755714Y-111357142D02*
X163455714Y-111357142D01*
X163455714Y-111242857D01*
X163470000Y-111214285D01*
X163484285Y-111200000D01*
X163512857Y-111185714D01*
X163555714Y-111185714D01*
X163584285Y-111200000D01*
X163598571Y-111214285D01*
X163612857Y-111242857D01*
X163612857Y-111357142D01*
X163598571Y-111057142D02*
X163598571Y-110957142D01*
X163755714Y-110914285D02*
X163755714Y-111057142D01*
X163455714Y-111057142D01*
X163455714Y-110914285D01*
X163598571Y-110785714D02*
X163598571Y-110685714D01*
X163755714Y-110642857D02*
X163755714Y-110785714D01*
X163455714Y-110785714D01*
X163455714Y-110642857D01*
X163755714Y-110514285D02*
X163455714Y-110514285D01*
X163755714Y-110342857D01*
X163455714Y-110342857D01*
X168455714Y-111750000D02*
X168455714Y-111692857D01*
X168470000Y-111664285D01*
X168498571Y-111635714D01*
X168555714Y-111621428D01*
X168655714Y-111621428D01*
X168712857Y-111635714D01*
X168741428Y-111664285D01*
X168755714Y-111692857D01*
X168755714Y-111750000D01*
X168741428Y-111778571D01*
X168712857Y-111807142D01*
X168655714Y-111821428D01*
X168555714Y-111821428D01*
X168498571Y-111807142D01*
X168470000Y-111778571D01*
X168455714Y-111750000D01*
X168755714Y-111321428D02*
X168612857Y-111421428D01*
X168755714Y-111492857D02*
X168455714Y-111492857D01*
X168455714Y-111378571D01*
X168470000Y-111350000D01*
X168484285Y-111335714D01*
X168512857Y-111321428D01*
X168555714Y-111321428D01*
X168584285Y-111335714D01*
X168598571Y-111350000D01*
X168612857Y-111378571D01*
X168612857Y-111492857D01*
X168670000Y-111207142D02*
X168670000Y-111064285D01*
X168755714Y-111235714D02*
X168455714Y-111135714D01*
X168755714Y-111035714D01*
X168755714Y-110935714D02*
X168455714Y-110935714D01*
X168755714Y-110764285D01*
X168455714Y-110764285D01*
X168470000Y-110464285D02*
X168455714Y-110492857D01*
X168455714Y-110535714D01*
X168470000Y-110578571D01*
X168498571Y-110607142D01*
X168527142Y-110621428D01*
X168584285Y-110635714D01*
X168627142Y-110635714D01*
X168684285Y-110621428D01*
X168712857Y-110607142D01*
X168741428Y-110578571D01*
X168755714Y-110535714D01*
X168755714Y-110507142D01*
X168741428Y-110464285D01*
X168727142Y-110450000D01*
X168627142Y-110450000D01*
X168627142Y-110507142D01*
X168598571Y-110321428D02*
X168598571Y-110221428D01*
X168755714Y-110178571D02*
X168755714Y-110321428D01*
X168455714Y-110321428D01*
X168455714Y-110178571D01*
D10*
X130885714Y-116004761D02*
X131028571Y-116052380D01*
X131266666Y-116052380D01*
X131361904Y-116004761D01*
X131409523Y-115957142D01*
X131457142Y-115861904D01*
X131457142Y-115766666D01*
X131409523Y-115671428D01*
X131361904Y-115623809D01*
X131266666Y-115576190D01*
X131076190Y-115528571D01*
X130980952Y-115480952D01*
X130933333Y-115433333D01*
X130885714Y-115338095D01*
X130885714Y-115242857D01*
X130933333Y-115147619D01*
X130980952Y-115100000D01*
X131076190Y-115052380D01*
X131314285Y-115052380D01*
X131457142Y-115100000D01*
X132076190Y-115052380D02*
X132266666Y-115052380D01*
X132361904Y-115100000D01*
X132457142Y-115195238D01*
X132504761Y-115385714D01*
X132504761Y-115719047D01*
X132457142Y-115909523D01*
X132361904Y-116004761D01*
X132266666Y-116052380D01*
X132076190Y-116052380D01*
X131980952Y-116004761D01*
X131885714Y-115909523D01*
X131838095Y-115719047D01*
X131838095Y-115385714D01*
X131885714Y-115195238D01*
X131980952Y-115100000D01*
X132076190Y-115052380D01*
X132933333Y-116052380D02*
X132933333Y-115052380D01*
X133266666Y-115766666D01*
X133600000Y-115052380D01*
X133600000Y-116052380D01*
X134266666Y-115052380D02*
X134457142Y-115052380D01*
X134552380Y-115100000D01*
X134647619Y-115195238D01*
X134695238Y-115385714D01*
X134695238Y-115719047D01*
X134647619Y-115909523D01*
X134552380Y-116004761D01*
X134457142Y-116052380D01*
X134266666Y-116052380D01*
X134171428Y-116004761D01*
X134076190Y-115909523D01*
X134028571Y-115719047D01*
X134028571Y-115385714D01*
X134076190Y-115195238D01*
X134171428Y-115100000D01*
X134266666Y-115052380D01*
X135076190Y-116004761D02*
X135219047Y-116052380D01*
X135457142Y-116052380D01*
X135552380Y-116004761D01*
X135600000Y-115957142D01*
X135647619Y-115861904D01*
X135647619Y-115766666D01*
X135600000Y-115671428D01*
X135552380Y-115623809D01*
X135457142Y-115576190D01*
X135266666Y-115528571D01*
X135171428Y-115480952D01*
X135123809Y-115433333D01*
X135076190Y-115338095D01*
X135076190Y-115242857D01*
X135123809Y-115147619D01*
X135171428Y-115100000D01*
X135266666Y-115052380D01*
X135504761Y-115052380D01*
X135647619Y-115100000D01*
X135838095Y-116147619D02*
X136600000Y-116147619D01*
X137314285Y-116052380D02*
X136838095Y-116052380D01*
X136838095Y-115052380D01*
X137838095Y-115052380D02*
X138028571Y-115052380D01*
X138123809Y-115100000D01*
X138219047Y-115195238D01*
X138266666Y-115385714D01*
X138266666Y-115719047D01*
X138219047Y-115909523D01*
X138123809Y-116004761D01*
X138028571Y-116052380D01*
X137838095Y-116052380D01*
X137742857Y-116004761D01*
X137647619Y-115909523D01*
X137600000Y-115719047D01*
X137600000Y-115385714D01*
X137647619Y-115195238D01*
X137742857Y-115100000D01*
X137838095Y-115052380D01*
X139219047Y-115100000D02*
X139123809Y-115052380D01*
X138980952Y-115052380D01*
X138838095Y-115100000D01*
X138742857Y-115195238D01*
X138695238Y-115290476D01*
X138647619Y-115480952D01*
X138647619Y-115623809D01*
X138695238Y-115814285D01*
X138742857Y-115909523D01*
X138838095Y-116004761D01*
X138980952Y-116052380D01*
X139076190Y-116052380D01*
X139219047Y-116004761D01*
X139266666Y-115957142D01*
X139266666Y-115623809D01*
X139076190Y-115623809D01*
X139885714Y-115052380D02*
X140076190Y-115052380D01*
X140171428Y-115100000D01*
X140266666Y-115195238D01*
X140314285Y-115385714D01*
X140314285Y-115719047D01*
X140266666Y-115909523D01*
X140171428Y-116004761D01*
X140076190Y-116052380D01*
X139885714Y-116052380D01*
X139790476Y-116004761D01*
X139695238Y-115909523D01*
X139647619Y-115719047D01*
X139647619Y-115385714D01*
X139695238Y-115195238D01*
X139790476Y-115100000D01*
X139885714Y-115052380D01*
M02*
