G04 #@! TF.GenerationSoftware,KiCad,Pcbnew,5.1.5-52549c5~86~ubuntu18.04.1*
G04 #@! TF.CreationDate,2020-04-28T10:32:59-07:00*
G04 #@! TF.ProjectId,SHIELD_MIMAS_TFT_BT_POWERSUPPLY,53484945-4c44-45f4-9d49-4d41535f5446,rev?*
G04 #@! TF.SameCoordinates,Original*
G04 #@! TF.FileFunction,Soldermask,Top*
G04 #@! TF.FilePolarity,Negative*
%FSLAX46Y46*%
G04 Gerber Fmt 4.6, Leading zero omitted, Abs format (unit mm)*
G04 Created by KiCad (PCBNEW 5.1.5-52549c5~86~ubuntu18.04.1) date 2020-04-28 10:32:59*
%MOMM*%
%LPD*%
G04 APERTURE LIST*
%ADD10C,0.100000*%
G04 APERTURE END LIST*
D10*
G36*
X174412222Y-128454096D02*
G01*
X174456080Y-128467400D01*
X174496496Y-128489004D01*
X174531923Y-128518077D01*
X174560996Y-128553504D01*
X174582600Y-128593920D01*
X174595904Y-128637778D01*
X174601000Y-128689522D01*
X174601000Y-132210478D01*
X174595904Y-132262222D01*
X174582600Y-132306080D01*
X174560996Y-132346496D01*
X174531923Y-132381923D01*
X174496496Y-132410996D01*
X174456080Y-132432600D01*
X174412222Y-132445904D01*
X174360478Y-132451000D01*
X172939522Y-132451000D01*
X172887778Y-132445904D01*
X172843920Y-132432600D01*
X172803504Y-132410996D01*
X172768077Y-132381923D01*
X172739004Y-132346496D01*
X172717400Y-132306080D01*
X172704096Y-132262222D01*
X172699000Y-132210478D01*
X172699000Y-128689522D01*
X172704096Y-128637778D01*
X172717400Y-128593920D01*
X172739004Y-128553504D01*
X172768077Y-128518077D01*
X172803504Y-128489004D01*
X172843920Y-128467400D01*
X172887778Y-128454096D01*
X172939522Y-128449000D01*
X174360478Y-128449000D01*
X174412222Y-128454096D01*
G37*
G36*
X155512222Y-128454096D02*
G01*
X155556080Y-128467400D01*
X155596496Y-128489004D01*
X155631923Y-128518077D01*
X155660996Y-128553504D01*
X155682600Y-128593920D01*
X155695904Y-128637778D01*
X155701000Y-128689522D01*
X155701000Y-132210478D01*
X155695904Y-132262222D01*
X155682600Y-132306080D01*
X155660996Y-132346496D01*
X155631923Y-132381923D01*
X155596496Y-132410996D01*
X155556080Y-132432600D01*
X155512222Y-132445904D01*
X155460478Y-132451000D01*
X154039522Y-132451000D01*
X153987778Y-132445904D01*
X153943920Y-132432600D01*
X153903504Y-132410996D01*
X153868077Y-132381923D01*
X153839004Y-132346496D01*
X153817400Y-132306080D01*
X153804096Y-132262222D01*
X153799000Y-132210478D01*
X153799000Y-128689522D01*
X153804096Y-128637778D01*
X153817400Y-128593920D01*
X153839004Y-128553504D01*
X153868077Y-128518077D01*
X153903504Y-128489004D01*
X153943920Y-128467400D01*
X153987778Y-128454096D01*
X154039522Y-128449000D01*
X155460478Y-128449000D01*
X155512222Y-128454096D01*
G37*
G36*
X123345944Y-127847520D02*
G01*
X123477963Y-127873780D01*
X123741768Y-127983052D01*
X123844601Y-128025647D01*
X123851039Y-128028314D01*
X124186799Y-128252661D01*
X124472339Y-128538201D01*
X124696686Y-128873961D01*
X124851220Y-129247037D01*
X124930000Y-129643093D01*
X124930000Y-130046907D01*
X124851220Y-130442963D01*
X124696686Y-130816039D01*
X124472339Y-131151799D01*
X124186799Y-131437339D01*
X123851039Y-131661686D01*
X123477963Y-131816220D01*
X123345944Y-131842480D01*
X123081909Y-131895000D01*
X122678091Y-131895000D01*
X122414056Y-131842480D01*
X122282037Y-131816220D01*
X121908961Y-131661686D01*
X121573201Y-131437339D01*
X121287661Y-131151799D01*
X121063314Y-130816039D01*
X120908780Y-130442963D01*
X120830000Y-130046907D01*
X120830000Y-129643093D01*
X120908780Y-129247037D01*
X121063314Y-128873961D01*
X121287661Y-128538201D01*
X121573201Y-128252661D01*
X121908961Y-128028314D01*
X121915400Y-128025647D01*
X122018232Y-127983052D01*
X122282037Y-127873780D01*
X122414056Y-127847520D01*
X122678091Y-127795000D01*
X123081909Y-127795000D01*
X123345944Y-127847520D01*
G37*
G36*
X177585944Y-127847520D02*
G01*
X177717963Y-127873780D01*
X177981768Y-127983052D01*
X178084601Y-128025647D01*
X178091039Y-128028314D01*
X178426799Y-128252661D01*
X178712339Y-128538201D01*
X178936686Y-128873961D01*
X179091220Y-129247037D01*
X179170000Y-129643093D01*
X179170000Y-130046907D01*
X179091220Y-130442963D01*
X178936686Y-130816039D01*
X178712339Y-131151799D01*
X178426799Y-131437339D01*
X178091039Y-131661686D01*
X177717963Y-131816220D01*
X177585944Y-131842480D01*
X177321909Y-131895000D01*
X176918091Y-131895000D01*
X176654056Y-131842480D01*
X176522037Y-131816220D01*
X176148961Y-131661686D01*
X175813201Y-131437339D01*
X175527661Y-131151799D01*
X175303314Y-130816039D01*
X175148780Y-130442963D01*
X175070000Y-130046907D01*
X175070000Y-129643093D01*
X175148780Y-129247037D01*
X175303314Y-128873961D01*
X175527661Y-128538201D01*
X175813201Y-128252661D01*
X176148961Y-128028314D01*
X176155400Y-128025647D01*
X176258232Y-127983052D01*
X176522037Y-127873780D01*
X176654056Y-127847520D01*
X176918091Y-127795000D01*
X177321909Y-127795000D01*
X177585944Y-127847520D01*
G37*
G36*
X151501000Y-129501000D02*
G01*
X149699000Y-129501000D01*
X149699000Y-127699000D01*
X151501000Y-127699000D01*
X151501000Y-129501000D01*
G37*
G36*
X148173512Y-127703927D02*
G01*
X148322812Y-127733624D01*
X148486784Y-127801544D01*
X148634354Y-127900147D01*
X148759853Y-128025646D01*
X148858456Y-128173216D01*
X148926376Y-128337188D01*
X148961000Y-128511259D01*
X148961000Y-128688741D01*
X148926376Y-128862812D01*
X148858456Y-129026784D01*
X148759853Y-129174354D01*
X148634354Y-129299853D01*
X148486784Y-129398456D01*
X148322812Y-129466376D01*
X148173512Y-129496073D01*
X148148742Y-129501000D01*
X147971258Y-129501000D01*
X147946488Y-129496073D01*
X147797188Y-129466376D01*
X147633216Y-129398456D01*
X147485646Y-129299853D01*
X147360147Y-129174354D01*
X147261544Y-129026784D01*
X147193624Y-128862812D01*
X147159000Y-128688741D01*
X147159000Y-128511259D01*
X147193624Y-128337188D01*
X147261544Y-128173216D01*
X147360147Y-128025646D01*
X147485646Y-127900147D01*
X147633216Y-127801544D01*
X147797188Y-127733624D01*
X147946488Y-127703927D01*
X147971258Y-127699000D01*
X148148742Y-127699000D01*
X148173512Y-127703927D01*
G37*
G36*
X158419066Y-121355127D02*
G01*
X158472985Y-121371483D01*
X158522667Y-121398039D01*
X158566219Y-121433781D01*
X158601961Y-121477333D01*
X158628517Y-121527015D01*
X158644873Y-121580934D01*
X158651000Y-121643141D01*
X158651000Y-125656859D01*
X158644873Y-125719066D01*
X158628517Y-125772985D01*
X158601961Y-125822667D01*
X158566219Y-125866219D01*
X158522667Y-125901961D01*
X158472985Y-125928517D01*
X158419066Y-125944873D01*
X158356859Y-125951000D01*
X157543141Y-125951000D01*
X157480934Y-125944873D01*
X157427015Y-125928517D01*
X157377333Y-125901961D01*
X157333781Y-125866219D01*
X157298039Y-125822667D01*
X157271483Y-125772985D01*
X157255127Y-125719066D01*
X157249000Y-125656859D01*
X157249000Y-121643141D01*
X157255127Y-121580934D01*
X157271483Y-121527015D01*
X157298039Y-121477333D01*
X157333781Y-121433781D01*
X157377333Y-121398039D01*
X157427015Y-121371483D01*
X157480934Y-121355127D01*
X157543141Y-121349000D01*
X158356859Y-121349000D01*
X158419066Y-121355127D01*
G37*
G36*
X160919066Y-121355127D02*
G01*
X160972985Y-121371483D01*
X161022667Y-121398039D01*
X161066219Y-121433781D01*
X161101961Y-121477333D01*
X161128517Y-121527015D01*
X161144873Y-121580934D01*
X161151000Y-121643141D01*
X161151000Y-125656859D01*
X161144873Y-125719066D01*
X161128517Y-125772985D01*
X161101961Y-125822667D01*
X161066219Y-125866219D01*
X161022667Y-125901961D01*
X160972985Y-125928517D01*
X160919066Y-125944873D01*
X160856859Y-125951000D01*
X160043141Y-125951000D01*
X159980934Y-125944873D01*
X159927015Y-125928517D01*
X159877333Y-125901961D01*
X159833781Y-125866219D01*
X159798039Y-125822667D01*
X159771483Y-125772985D01*
X159755127Y-125719066D01*
X159749000Y-125656859D01*
X159749000Y-121643141D01*
X159755127Y-121580934D01*
X159771483Y-121527015D01*
X159798039Y-121477333D01*
X159833781Y-121433781D01*
X159877333Y-121398039D01*
X159927015Y-121371483D01*
X159980934Y-121355127D01*
X160043141Y-121349000D01*
X160856859Y-121349000D01*
X160919066Y-121355127D01*
G37*
G36*
X163419066Y-121355127D02*
G01*
X163472985Y-121371483D01*
X163522667Y-121398039D01*
X163566219Y-121433781D01*
X163601961Y-121477333D01*
X163628517Y-121527015D01*
X163644873Y-121580934D01*
X163651000Y-121643141D01*
X163651000Y-125656859D01*
X163644873Y-125719066D01*
X163628517Y-125772985D01*
X163601961Y-125822667D01*
X163566219Y-125866219D01*
X163522667Y-125901961D01*
X163472985Y-125928517D01*
X163419066Y-125944873D01*
X163356859Y-125951000D01*
X162543141Y-125951000D01*
X162480934Y-125944873D01*
X162427015Y-125928517D01*
X162377333Y-125901961D01*
X162333781Y-125866219D01*
X162298039Y-125822667D01*
X162271483Y-125772985D01*
X162255127Y-125719066D01*
X162249000Y-125656859D01*
X162249000Y-121643141D01*
X162255127Y-121580934D01*
X162271483Y-121527015D01*
X162298039Y-121477333D01*
X162333781Y-121433781D01*
X162377333Y-121398039D01*
X162427015Y-121371483D01*
X162480934Y-121355127D01*
X162543141Y-121349000D01*
X163356859Y-121349000D01*
X163419066Y-121355127D01*
G37*
G36*
X165919066Y-121355127D02*
G01*
X165972985Y-121371483D01*
X166022667Y-121398039D01*
X166066219Y-121433781D01*
X166101961Y-121477333D01*
X166128517Y-121527015D01*
X166144873Y-121580934D01*
X166151000Y-121643141D01*
X166151000Y-125656859D01*
X166144873Y-125719066D01*
X166128517Y-125772985D01*
X166101961Y-125822667D01*
X166066219Y-125866219D01*
X166022667Y-125901961D01*
X165972985Y-125928517D01*
X165919066Y-125944873D01*
X165856859Y-125951000D01*
X165043141Y-125951000D01*
X164980934Y-125944873D01*
X164927015Y-125928517D01*
X164877333Y-125901961D01*
X164833781Y-125866219D01*
X164798039Y-125822667D01*
X164771483Y-125772985D01*
X164755127Y-125719066D01*
X164749000Y-125656859D01*
X164749000Y-121643141D01*
X164755127Y-121580934D01*
X164771483Y-121527015D01*
X164798039Y-121477333D01*
X164833781Y-121433781D01*
X164877333Y-121398039D01*
X164927015Y-121371483D01*
X164980934Y-121355127D01*
X165043141Y-121349000D01*
X165856859Y-121349000D01*
X165919066Y-121355127D01*
G37*
G36*
X168419066Y-121355127D02*
G01*
X168472985Y-121371483D01*
X168522667Y-121398039D01*
X168566219Y-121433781D01*
X168601961Y-121477333D01*
X168628517Y-121527015D01*
X168644873Y-121580934D01*
X168651000Y-121643141D01*
X168651000Y-125656859D01*
X168644873Y-125719066D01*
X168628517Y-125772985D01*
X168601961Y-125822667D01*
X168566219Y-125866219D01*
X168522667Y-125901961D01*
X168472985Y-125928517D01*
X168419066Y-125944873D01*
X168356859Y-125951000D01*
X167543141Y-125951000D01*
X167480934Y-125944873D01*
X167427015Y-125928517D01*
X167377333Y-125901961D01*
X167333781Y-125866219D01*
X167298039Y-125822667D01*
X167271483Y-125772985D01*
X167255127Y-125719066D01*
X167249000Y-125656859D01*
X167249000Y-121643141D01*
X167255127Y-121580934D01*
X167271483Y-121527015D01*
X167298039Y-121477333D01*
X167333781Y-121433781D01*
X167377333Y-121398039D01*
X167427015Y-121371483D01*
X167480934Y-121355127D01*
X167543141Y-121349000D01*
X168356859Y-121349000D01*
X168419066Y-121355127D01*
G37*
G36*
X170919066Y-121355127D02*
G01*
X170972985Y-121371483D01*
X171022667Y-121398039D01*
X171066219Y-121433781D01*
X171101961Y-121477333D01*
X171128517Y-121527015D01*
X171144873Y-121580934D01*
X171151000Y-121643141D01*
X171151000Y-125656859D01*
X171144873Y-125719066D01*
X171128517Y-125772985D01*
X171101961Y-125822667D01*
X171066219Y-125866219D01*
X171022667Y-125901961D01*
X170972985Y-125928517D01*
X170919066Y-125944873D01*
X170856859Y-125951000D01*
X170043141Y-125951000D01*
X169980934Y-125944873D01*
X169927015Y-125928517D01*
X169877333Y-125901961D01*
X169833781Y-125866219D01*
X169798039Y-125822667D01*
X169771483Y-125772985D01*
X169755127Y-125719066D01*
X169749000Y-125656859D01*
X169749000Y-121643141D01*
X169755127Y-121580934D01*
X169771483Y-121527015D01*
X169798039Y-121477333D01*
X169833781Y-121433781D01*
X169877333Y-121398039D01*
X169927015Y-121371483D01*
X169980934Y-121355127D01*
X170043141Y-121349000D01*
X170856859Y-121349000D01*
X170919066Y-121355127D01*
G37*
G36*
X178617290Y-123155619D02*
G01*
X178681689Y-123168429D01*
X178863678Y-123243811D01*
X179027463Y-123353249D01*
X179166751Y-123492537D01*
X179276189Y-123656322D01*
X179351571Y-123838311D01*
X179390000Y-124031509D01*
X179390000Y-124228491D01*
X179351571Y-124421689D01*
X179276189Y-124603678D01*
X179166751Y-124767463D01*
X179027463Y-124906751D01*
X178863678Y-125016189D01*
X178681689Y-125091571D01*
X178617290Y-125104381D01*
X178488493Y-125130000D01*
X178291507Y-125130000D01*
X178162710Y-125104381D01*
X178098311Y-125091571D01*
X177916322Y-125016189D01*
X177752537Y-124906751D01*
X177613249Y-124767463D01*
X177503811Y-124603678D01*
X177428429Y-124421689D01*
X177390000Y-124228491D01*
X177390000Y-124031509D01*
X177428429Y-123838311D01*
X177503811Y-123656322D01*
X177613249Y-123492537D01*
X177752537Y-123353249D01*
X177916322Y-123243811D01*
X178098311Y-123168429D01*
X178162710Y-123155619D01*
X178291507Y-123130000D01*
X178488493Y-123130000D01*
X178617290Y-123155619D01*
G37*
G36*
X121837290Y-123155619D02*
G01*
X121901689Y-123168429D01*
X122083678Y-123243811D01*
X122247463Y-123353249D01*
X122386751Y-123492537D01*
X122496189Y-123656322D01*
X122571571Y-123838311D01*
X122610000Y-124031509D01*
X122610000Y-124228491D01*
X122571571Y-124421689D01*
X122496189Y-124603678D01*
X122386751Y-124767463D01*
X122247463Y-124906751D01*
X122083678Y-125016189D01*
X121901689Y-125091571D01*
X121837290Y-125104381D01*
X121708493Y-125130000D01*
X121511507Y-125130000D01*
X121382710Y-125104381D01*
X121318311Y-125091571D01*
X121136322Y-125016189D01*
X120972537Y-124906751D01*
X120833249Y-124767463D01*
X120723811Y-124603678D01*
X120648429Y-124421689D01*
X120610000Y-124228491D01*
X120610000Y-124031509D01*
X120648429Y-123838311D01*
X120723811Y-123656322D01*
X120833249Y-123492537D01*
X120972537Y-123353249D01*
X121136322Y-123243811D01*
X121318311Y-123168429D01*
X121382710Y-123155619D01*
X121511507Y-123130000D01*
X121708493Y-123130000D01*
X121837290Y-123155619D01*
G37*
G36*
X124377290Y-123155619D02*
G01*
X124441689Y-123168429D01*
X124623678Y-123243811D01*
X124787463Y-123353249D01*
X124926751Y-123492537D01*
X125036189Y-123656322D01*
X125111571Y-123838311D01*
X125150000Y-124031509D01*
X125150000Y-124228491D01*
X125111571Y-124421689D01*
X125036189Y-124603678D01*
X124926751Y-124767463D01*
X124787463Y-124906751D01*
X124623678Y-125016189D01*
X124441689Y-125091571D01*
X124377290Y-125104381D01*
X124248493Y-125130000D01*
X124051507Y-125130000D01*
X123922710Y-125104381D01*
X123858311Y-125091571D01*
X123676322Y-125016189D01*
X123512537Y-124906751D01*
X123373249Y-124767463D01*
X123263811Y-124603678D01*
X123188429Y-124421689D01*
X123150000Y-124228491D01*
X123150000Y-124031509D01*
X123188429Y-123838311D01*
X123263811Y-123656322D01*
X123373249Y-123492537D01*
X123512537Y-123353249D01*
X123676322Y-123243811D01*
X123858311Y-123168429D01*
X123922710Y-123155619D01*
X124051507Y-123130000D01*
X124248493Y-123130000D01*
X124377290Y-123155619D01*
G37*
G36*
X176077290Y-123155619D02*
G01*
X176141689Y-123168429D01*
X176323678Y-123243811D01*
X176487463Y-123353249D01*
X176626751Y-123492537D01*
X176736189Y-123656322D01*
X176811571Y-123838311D01*
X176850000Y-124031509D01*
X176850000Y-124228491D01*
X176811571Y-124421689D01*
X176736189Y-124603678D01*
X176626751Y-124767463D01*
X176487463Y-124906751D01*
X176323678Y-125016189D01*
X176141689Y-125091571D01*
X176077290Y-125104381D01*
X175948493Y-125130000D01*
X175751507Y-125130000D01*
X175622710Y-125104381D01*
X175558311Y-125091571D01*
X175376322Y-125016189D01*
X175212537Y-124906751D01*
X175073249Y-124767463D01*
X174963811Y-124603678D01*
X174888429Y-124421689D01*
X174850000Y-124228491D01*
X174850000Y-124031509D01*
X174888429Y-123838311D01*
X174963811Y-123656322D01*
X175073249Y-123492537D01*
X175212537Y-123353249D01*
X175376322Y-123243811D01*
X175558311Y-123168429D01*
X175622710Y-123155619D01*
X175751507Y-123130000D01*
X175948493Y-123130000D01*
X176077290Y-123155619D01*
G37*
G36*
X121837290Y-120615619D02*
G01*
X121901689Y-120628429D01*
X122083678Y-120703811D01*
X122247463Y-120813249D01*
X122386751Y-120952537D01*
X122496189Y-121116322D01*
X122571571Y-121298311D01*
X122571571Y-121298312D01*
X122610000Y-121491507D01*
X122610000Y-121688493D01*
X122584381Y-121817290D01*
X122571571Y-121881689D01*
X122496189Y-122063678D01*
X122386751Y-122227463D01*
X122247463Y-122366751D01*
X122083678Y-122476189D01*
X121901689Y-122551571D01*
X121837290Y-122564381D01*
X121708493Y-122590000D01*
X121511507Y-122590000D01*
X121382710Y-122564381D01*
X121318311Y-122551571D01*
X121136322Y-122476189D01*
X120972537Y-122366751D01*
X120833249Y-122227463D01*
X120723811Y-122063678D01*
X120648429Y-121881689D01*
X120635619Y-121817290D01*
X120610000Y-121688493D01*
X120610000Y-121491507D01*
X120648429Y-121298312D01*
X120648429Y-121298311D01*
X120723811Y-121116322D01*
X120833249Y-120952537D01*
X120972537Y-120813249D01*
X121136322Y-120703811D01*
X121318311Y-120628429D01*
X121382710Y-120615619D01*
X121511507Y-120590000D01*
X121708493Y-120590000D01*
X121837290Y-120615619D01*
G37*
G36*
X124377290Y-120615619D02*
G01*
X124441689Y-120628429D01*
X124623678Y-120703811D01*
X124787463Y-120813249D01*
X124926751Y-120952537D01*
X125036189Y-121116322D01*
X125111571Y-121298311D01*
X125111571Y-121298312D01*
X125150000Y-121491507D01*
X125150000Y-121688493D01*
X125124381Y-121817290D01*
X125111571Y-121881689D01*
X125036189Y-122063678D01*
X124926751Y-122227463D01*
X124787463Y-122366751D01*
X124623678Y-122476189D01*
X124441689Y-122551571D01*
X124377290Y-122564381D01*
X124248493Y-122590000D01*
X124051507Y-122590000D01*
X123922710Y-122564381D01*
X123858311Y-122551571D01*
X123676322Y-122476189D01*
X123512537Y-122366751D01*
X123373249Y-122227463D01*
X123263811Y-122063678D01*
X123188429Y-121881689D01*
X123175619Y-121817290D01*
X123150000Y-121688493D01*
X123150000Y-121491507D01*
X123188429Y-121298312D01*
X123188429Y-121298311D01*
X123263811Y-121116322D01*
X123373249Y-120952537D01*
X123512537Y-120813249D01*
X123676322Y-120703811D01*
X123858311Y-120628429D01*
X123922710Y-120615619D01*
X124051507Y-120590000D01*
X124248493Y-120590000D01*
X124377290Y-120615619D01*
G37*
G36*
X176077290Y-120615619D02*
G01*
X176141689Y-120628429D01*
X176323678Y-120703811D01*
X176487463Y-120813249D01*
X176626751Y-120952537D01*
X176736189Y-121116322D01*
X176811571Y-121298311D01*
X176811571Y-121298312D01*
X176850000Y-121491507D01*
X176850000Y-121688493D01*
X176824381Y-121817290D01*
X176811571Y-121881689D01*
X176736189Y-122063678D01*
X176626751Y-122227463D01*
X176487463Y-122366751D01*
X176323678Y-122476189D01*
X176141689Y-122551571D01*
X176077290Y-122564381D01*
X175948493Y-122590000D01*
X175751507Y-122590000D01*
X175622710Y-122564381D01*
X175558311Y-122551571D01*
X175376322Y-122476189D01*
X175212537Y-122366751D01*
X175073249Y-122227463D01*
X174963811Y-122063678D01*
X174888429Y-121881689D01*
X174875619Y-121817290D01*
X174850000Y-121688493D01*
X174850000Y-121491507D01*
X174888429Y-121298312D01*
X174888429Y-121298311D01*
X174963811Y-121116322D01*
X175073249Y-120952537D01*
X175212537Y-120813249D01*
X175376322Y-120703811D01*
X175558311Y-120628429D01*
X175622710Y-120615619D01*
X175751507Y-120590000D01*
X175948493Y-120590000D01*
X176077290Y-120615619D01*
G37*
G36*
X178617290Y-120615619D02*
G01*
X178681689Y-120628429D01*
X178863678Y-120703811D01*
X179027463Y-120813249D01*
X179166751Y-120952537D01*
X179276189Y-121116322D01*
X179351571Y-121298311D01*
X179351571Y-121298312D01*
X179390000Y-121491507D01*
X179390000Y-121688493D01*
X179364381Y-121817290D01*
X179351571Y-121881689D01*
X179276189Y-122063678D01*
X179166751Y-122227463D01*
X179027463Y-122366751D01*
X178863678Y-122476189D01*
X178681689Y-122551571D01*
X178617290Y-122564381D01*
X178488493Y-122590000D01*
X178291507Y-122590000D01*
X178162710Y-122564381D01*
X178098311Y-122551571D01*
X177916322Y-122476189D01*
X177752537Y-122366751D01*
X177613249Y-122227463D01*
X177503811Y-122063678D01*
X177428429Y-121881689D01*
X177415619Y-121817290D01*
X177390000Y-121688493D01*
X177390000Y-121491507D01*
X177428429Y-121298312D01*
X177428429Y-121298311D01*
X177503811Y-121116322D01*
X177613249Y-120952537D01*
X177752537Y-120813249D01*
X177916322Y-120703811D01*
X178098311Y-120628429D01*
X178162710Y-120615619D01*
X178291507Y-120590000D01*
X178488493Y-120590000D01*
X178617290Y-120615619D01*
G37*
G36*
X121837290Y-118075619D02*
G01*
X121901689Y-118088429D01*
X122083678Y-118163811D01*
X122247463Y-118273249D01*
X122386751Y-118412537D01*
X122496189Y-118576322D01*
X122571571Y-118758311D01*
X122610000Y-118951509D01*
X122610000Y-119148491D01*
X122571571Y-119341689D01*
X122496189Y-119523678D01*
X122386751Y-119687463D01*
X122247463Y-119826751D01*
X122083678Y-119936189D01*
X121901689Y-120011571D01*
X121837290Y-120024381D01*
X121708493Y-120050000D01*
X121511507Y-120050000D01*
X121382710Y-120024381D01*
X121318311Y-120011571D01*
X121136322Y-119936189D01*
X120972537Y-119826751D01*
X120833249Y-119687463D01*
X120723811Y-119523678D01*
X120648429Y-119341689D01*
X120610000Y-119148491D01*
X120610000Y-118951509D01*
X120648429Y-118758311D01*
X120723811Y-118576322D01*
X120833249Y-118412537D01*
X120972537Y-118273249D01*
X121136322Y-118163811D01*
X121318311Y-118088429D01*
X121382710Y-118075619D01*
X121511507Y-118050000D01*
X121708493Y-118050000D01*
X121837290Y-118075619D01*
G37*
G36*
X124377290Y-118075619D02*
G01*
X124441689Y-118088429D01*
X124623678Y-118163811D01*
X124787463Y-118273249D01*
X124926751Y-118412537D01*
X125036189Y-118576322D01*
X125111571Y-118758311D01*
X125150000Y-118951509D01*
X125150000Y-119148491D01*
X125111571Y-119341689D01*
X125036189Y-119523678D01*
X124926751Y-119687463D01*
X124787463Y-119826751D01*
X124623678Y-119936189D01*
X124441689Y-120011571D01*
X124377290Y-120024381D01*
X124248493Y-120050000D01*
X124051507Y-120050000D01*
X123922710Y-120024381D01*
X123858311Y-120011571D01*
X123676322Y-119936189D01*
X123512537Y-119826751D01*
X123373249Y-119687463D01*
X123263811Y-119523678D01*
X123188429Y-119341689D01*
X123150000Y-119148491D01*
X123150000Y-118951509D01*
X123188429Y-118758311D01*
X123263811Y-118576322D01*
X123373249Y-118412537D01*
X123512537Y-118273249D01*
X123676322Y-118163811D01*
X123858311Y-118088429D01*
X123922710Y-118075619D01*
X124051507Y-118050000D01*
X124248493Y-118050000D01*
X124377290Y-118075619D01*
G37*
G36*
X176077290Y-118075619D02*
G01*
X176141689Y-118088429D01*
X176323678Y-118163811D01*
X176487463Y-118273249D01*
X176626751Y-118412537D01*
X176736189Y-118576322D01*
X176811571Y-118758311D01*
X176850000Y-118951509D01*
X176850000Y-119148491D01*
X176811571Y-119341689D01*
X176736189Y-119523678D01*
X176626751Y-119687463D01*
X176487463Y-119826751D01*
X176323678Y-119936189D01*
X176141689Y-120011571D01*
X176077290Y-120024381D01*
X175948493Y-120050000D01*
X175751507Y-120050000D01*
X175622710Y-120024381D01*
X175558311Y-120011571D01*
X175376322Y-119936189D01*
X175212537Y-119826751D01*
X175073249Y-119687463D01*
X174963811Y-119523678D01*
X174888429Y-119341689D01*
X174850000Y-119148491D01*
X174850000Y-118951509D01*
X174888429Y-118758311D01*
X174963811Y-118576322D01*
X175073249Y-118412537D01*
X175212537Y-118273249D01*
X175376322Y-118163811D01*
X175558311Y-118088429D01*
X175622710Y-118075619D01*
X175751507Y-118050000D01*
X175948493Y-118050000D01*
X176077290Y-118075619D01*
G37*
G36*
X178617290Y-118075619D02*
G01*
X178681689Y-118088429D01*
X178863678Y-118163811D01*
X179027463Y-118273249D01*
X179166751Y-118412537D01*
X179276189Y-118576322D01*
X179351571Y-118758311D01*
X179390000Y-118951509D01*
X179390000Y-119148491D01*
X179351571Y-119341689D01*
X179276189Y-119523678D01*
X179166751Y-119687463D01*
X179027463Y-119826751D01*
X178863678Y-119936189D01*
X178681689Y-120011571D01*
X178617290Y-120024381D01*
X178488493Y-120050000D01*
X178291507Y-120050000D01*
X178162710Y-120024381D01*
X178098311Y-120011571D01*
X177916322Y-119936189D01*
X177752537Y-119826751D01*
X177613249Y-119687463D01*
X177503811Y-119523678D01*
X177428429Y-119341689D01*
X177390000Y-119148491D01*
X177390000Y-118951509D01*
X177428429Y-118758311D01*
X177503811Y-118576322D01*
X177613249Y-118412537D01*
X177752537Y-118273249D01*
X177916322Y-118163811D01*
X178098311Y-118088429D01*
X178162710Y-118075619D01*
X178291507Y-118050000D01*
X178488493Y-118050000D01*
X178617290Y-118075619D01*
G37*
G36*
X166701000Y-118701000D02*
G01*
X164899000Y-118701000D01*
X164899000Y-116899000D01*
X166701000Y-116899000D01*
X166701000Y-118701000D01*
G37*
G36*
X163373512Y-116903927D02*
G01*
X163522812Y-116933624D01*
X163686784Y-117001544D01*
X163834354Y-117100147D01*
X163959853Y-117225646D01*
X164058456Y-117373216D01*
X164126376Y-117537188D01*
X164161000Y-117711259D01*
X164161000Y-117888741D01*
X164126376Y-118062812D01*
X164058456Y-118226784D01*
X163959853Y-118374354D01*
X163834354Y-118499853D01*
X163686784Y-118598456D01*
X163522812Y-118666376D01*
X163373512Y-118696073D01*
X163348742Y-118701000D01*
X163171258Y-118701000D01*
X163146488Y-118696073D01*
X162997188Y-118666376D01*
X162833216Y-118598456D01*
X162685646Y-118499853D01*
X162560147Y-118374354D01*
X162461544Y-118226784D01*
X162393624Y-118062812D01*
X162359000Y-117888741D01*
X162359000Y-117711259D01*
X162393624Y-117537188D01*
X162461544Y-117373216D01*
X162560147Y-117225646D01*
X162685646Y-117100147D01*
X162833216Y-117001544D01*
X162997188Y-116933624D01*
X163146488Y-116903927D01*
X163171258Y-116899000D01*
X163348742Y-116899000D01*
X163373512Y-116903927D01*
G37*
G36*
X160833512Y-116903927D02*
G01*
X160982812Y-116933624D01*
X161146784Y-117001544D01*
X161294354Y-117100147D01*
X161419853Y-117225646D01*
X161518456Y-117373216D01*
X161586376Y-117537188D01*
X161621000Y-117711259D01*
X161621000Y-117888741D01*
X161586376Y-118062812D01*
X161518456Y-118226784D01*
X161419853Y-118374354D01*
X161294354Y-118499853D01*
X161146784Y-118598456D01*
X160982812Y-118666376D01*
X160833512Y-118696073D01*
X160808742Y-118701000D01*
X160631258Y-118701000D01*
X160606488Y-118696073D01*
X160457188Y-118666376D01*
X160293216Y-118598456D01*
X160145646Y-118499853D01*
X160020147Y-118374354D01*
X159921544Y-118226784D01*
X159853624Y-118062812D01*
X159819000Y-117888741D01*
X159819000Y-117711259D01*
X159853624Y-117537188D01*
X159921544Y-117373216D01*
X160020147Y-117225646D01*
X160145646Y-117100147D01*
X160293216Y-117001544D01*
X160457188Y-116933624D01*
X160606488Y-116903927D01*
X160631258Y-116899000D01*
X160808742Y-116899000D01*
X160833512Y-116903927D01*
G37*
G36*
X121837290Y-115535619D02*
G01*
X121901689Y-115548429D01*
X122083678Y-115623811D01*
X122247463Y-115733249D01*
X122386751Y-115872537D01*
X122496189Y-116036322D01*
X122571571Y-116218311D01*
X122610000Y-116411509D01*
X122610000Y-116608491D01*
X122571571Y-116801689D01*
X122496189Y-116983678D01*
X122386751Y-117147463D01*
X122247463Y-117286751D01*
X122083678Y-117396189D01*
X121901689Y-117471571D01*
X121837290Y-117484381D01*
X121708493Y-117510000D01*
X121511507Y-117510000D01*
X121382710Y-117484381D01*
X121318311Y-117471571D01*
X121136322Y-117396189D01*
X120972537Y-117286751D01*
X120833249Y-117147463D01*
X120723811Y-116983678D01*
X120648429Y-116801689D01*
X120610000Y-116608491D01*
X120610000Y-116411509D01*
X120648429Y-116218311D01*
X120723811Y-116036322D01*
X120833249Y-115872537D01*
X120972537Y-115733249D01*
X121136322Y-115623811D01*
X121318311Y-115548429D01*
X121382710Y-115535619D01*
X121511507Y-115510000D01*
X121708493Y-115510000D01*
X121837290Y-115535619D01*
G37*
G36*
X124377290Y-115535619D02*
G01*
X124441689Y-115548429D01*
X124623678Y-115623811D01*
X124787463Y-115733249D01*
X124926751Y-115872537D01*
X125036189Y-116036322D01*
X125111571Y-116218311D01*
X125150000Y-116411509D01*
X125150000Y-116608491D01*
X125111571Y-116801689D01*
X125036189Y-116983678D01*
X124926751Y-117147463D01*
X124787463Y-117286751D01*
X124623678Y-117396189D01*
X124441689Y-117471571D01*
X124377290Y-117484381D01*
X124248493Y-117510000D01*
X124051507Y-117510000D01*
X123922710Y-117484381D01*
X123858311Y-117471571D01*
X123676322Y-117396189D01*
X123512537Y-117286751D01*
X123373249Y-117147463D01*
X123263811Y-116983678D01*
X123188429Y-116801689D01*
X123150000Y-116608491D01*
X123150000Y-116411509D01*
X123188429Y-116218311D01*
X123263811Y-116036322D01*
X123373249Y-115872537D01*
X123512537Y-115733249D01*
X123676322Y-115623811D01*
X123858311Y-115548429D01*
X123922710Y-115535619D01*
X124051507Y-115510000D01*
X124248493Y-115510000D01*
X124377290Y-115535619D01*
G37*
G36*
X176077290Y-115535619D02*
G01*
X176141689Y-115548429D01*
X176323678Y-115623811D01*
X176487463Y-115733249D01*
X176626751Y-115872537D01*
X176736189Y-116036322D01*
X176811571Y-116218311D01*
X176850000Y-116411509D01*
X176850000Y-116608491D01*
X176811571Y-116801689D01*
X176736189Y-116983678D01*
X176626751Y-117147463D01*
X176487463Y-117286751D01*
X176323678Y-117396189D01*
X176141689Y-117471571D01*
X176077290Y-117484381D01*
X175948493Y-117510000D01*
X175751507Y-117510000D01*
X175622710Y-117484381D01*
X175558311Y-117471571D01*
X175376322Y-117396189D01*
X175212537Y-117286751D01*
X175073249Y-117147463D01*
X174963811Y-116983678D01*
X174888429Y-116801689D01*
X174850000Y-116608491D01*
X174850000Y-116411509D01*
X174888429Y-116218311D01*
X174963811Y-116036322D01*
X175073249Y-115872537D01*
X175212537Y-115733249D01*
X175376322Y-115623811D01*
X175558311Y-115548429D01*
X175622710Y-115535619D01*
X175751507Y-115510000D01*
X175948493Y-115510000D01*
X176077290Y-115535619D01*
G37*
G36*
X178617290Y-115535619D02*
G01*
X178681689Y-115548429D01*
X178863678Y-115623811D01*
X179027463Y-115733249D01*
X179166751Y-115872537D01*
X179276189Y-116036322D01*
X179351571Y-116218311D01*
X179390000Y-116411509D01*
X179390000Y-116608491D01*
X179351571Y-116801689D01*
X179276189Y-116983678D01*
X179166751Y-117147463D01*
X179027463Y-117286751D01*
X178863678Y-117396189D01*
X178681689Y-117471571D01*
X178617290Y-117484381D01*
X178488493Y-117510000D01*
X178291507Y-117510000D01*
X178162710Y-117484381D01*
X178098311Y-117471571D01*
X177916322Y-117396189D01*
X177752537Y-117286751D01*
X177613249Y-117147463D01*
X177503811Y-116983678D01*
X177428429Y-116801689D01*
X177390000Y-116608491D01*
X177390000Y-116411509D01*
X177428429Y-116218311D01*
X177503811Y-116036322D01*
X177613249Y-115872537D01*
X177752537Y-115733249D01*
X177916322Y-115623811D01*
X178098311Y-115548429D01*
X178162710Y-115535619D01*
X178291507Y-115510000D01*
X178488493Y-115510000D01*
X178617290Y-115535619D01*
G37*
G36*
X178617290Y-112995619D02*
G01*
X178681689Y-113008429D01*
X178863678Y-113083811D01*
X179027463Y-113193249D01*
X179166751Y-113332537D01*
X179276189Y-113496322D01*
X179351571Y-113678311D01*
X179390000Y-113871509D01*
X179390000Y-114068491D01*
X179351571Y-114261689D01*
X179276189Y-114443678D01*
X179166751Y-114607463D01*
X179027463Y-114746751D01*
X178863678Y-114856189D01*
X178681689Y-114931571D01*
X178617290Y-114944381D01*
X178488493Y-114970000D01*
X178291507Y-114970000D01*
X178162710Y-114944381D01*
X178098311Y-114931571D01*
X177916322Y-114856189D01*
X177752537Y-114746751D01*
X177613249Y-114607463D01*
X177503811Y-114443678D01*
X177428429Y-114261689D01*
X177390000Y-114068491D01*
X177390000Y-113871509D01*
X177428429Y-113678311D01*
X177503811Y-113496322D01*
X177613249Y-113332537D01*
X177752537Y-113193249D01*
X177916322Y-113083811D01*
X178098311Y-113008429D01*
X178162710Y-112995619D01*
X178291507Y-112970000D01*
X178488493Y-112970000D01*
X178617290Y-112995619D01*
G37*
G36*
X124377290Y-112995619D02*
G01*
X124441689Y-113008429D01*
X124623678Y-113083811D01*
X124787463Y-113193249D01*
X124926751Y-113332537D01*
X125036189Y-113496322D01*
X125111571Y-113678311D01*
X125150000Y-113871509D01*
X125150000Y-114068491D01*
X125111571Y-114261689D01*
X125036189Y-114443678D01*
X124926751Y-114607463D01*
X124787463Y-114746751D01*
X124623678Y-114856189D01*
X124441689Y-114931571D01*
X124377290Y-114944381D01*
X124248493Y-114970000D01*
X124051507Y-114970000D01*
X123922710Y-114944381D01*
X123858311Y-114931571D01*
X123676322Y-114856189D01*
X123512537Y-114746751D01*
X123373249Y-114607463D01*
X123263811Y-114443678D01*
X123188429Y-114261689D01*
X123150000Y-114068491D01*
X123150000Y-113871509D01*
X123188429Y-113678311D01*
X123263811Y-113496322D01*
X123373249Y-113332537D01*
X123512537Y-113193249D01*
X123676322Y-113083811D01*
X123858311Y-113008429D01*
X123922710Y-112995619D01*
X124051507Y-112970000D01*
X124248493Y-112970000D01*
X124377290Y-112995619D01*
G37*
G36*
X176077290Y-112995619D02*
G01*
X176141689Y-113008429D01*
X176323678Y-113083811D01*
X176487463Y-113193249D01*
X176626751Y-113332537D01*
X176736189Y-113496322D01*
X176811571Y-113678311D01*
X176850000Y-113871509D01*
X176850000Y-114068491D01*
X176811571Y-114261689D01*
X176736189Y-114443678D01*
X176626751Y-114607463D01*
X176487463Y-114746751D01*
X176323678Y-114856189D01*
X176141689Y-114931571D01*
X176077290Y-114944381D01*
X175948493Y-114970000D01*
X175751507Y-114970000D01*
X175622710Y-114944381D01*
X175558311Y-114931571D01*
X175376322Y-114856189D01*
X175212537Y-114746751D01*
X175073249Y-114607463D01*
X174963811Y-114443678D01*
X174888429Y-114261689D01*
X174850000Y-114068491D01*
X174850000Y-113871509D01*
X174888429Y-113678311D01*
X174963811Y-113496322D01*
X175073249Y-113332537D01*
X175212537Y-113193249D01*
X175376322Y-113083811D01*
X175558311Y-113008429D01*
X175622710Y-112995619D01*
X175751507Y-112970000D01*
X175948493Y-112970000D01*
X176077290Y-112995619D01*
G37*
G36*
X121837290Y-112995619D02*
G01*
X121901689Y-113008429D01*
X122083678Y-113083811D01*
X122247463Y-113193249D01*
X122386751Y-113332537D01*
X122496189Y-113496322D01*
X122571571Y-113678311D01*
X122610000Y-113871509D01*
X122610000Y-114068491D01*
X122571571Y-114261689D01*
X122496189Y-114443678D01*
X122386751Y-114607463D01*
X122247463Y-114746751D01*
X122083678Y-114856189D01*
X121901689Y-114931571D01*
X121837290Y-114944381D01*
X121708493Y-114970000D01*
X121511507Y-114970000D01*
X121382710Y-114944381D01*
X121318311Y-114931571D01*
X121136322Y-114856189D01*
X120972537Y-114746751D01*
X120833249Y-114607463D01*
X120723811Y-114443678D01*
X120648429Y-114261689D01*
X120610000Y-114068491D01*
X120610000Y-113871509D01*
X120648429Y-113678311D01*
X120723811Y-113496322D01*
X120833249Y-113332537D01*
X120972537Y-113193249D01*
X121136322Y-113083811D01*
X121318311Y-113008429D01*
X121382710Y-112995619D01*
X121511507Y-112970000D01*
X121708493Y-112970000D01*
X121837290Y-112995619D01*
G37*
G36*
X121837290Y-110455619D02*
G01*
X121901689Y-110468429D01*
X122083678Y-110543811D01*
X122247463Y-110653249D01*
X122386751Y-110792537D01*
X122496189Y-110956322D01*
X122571571Y-111138311D01*
X122610000Y-111331509D01*
X122610000Y-111528491D01*
X122571571Y-111721689D01*
X122496189Y-111903678D01*
X122386751Y-112067463D01*
X122247463Y-112206751D01*
X122083678Y-112316189D01*
X121901689Y-112391571D01*
X121837290Y-112404381D01*
X121708493Y-112430000D01*
X121511507Y-112430000D01*
X121382710Y-112404381D01*
X121318311Y-112391571D01*
X121136322Y-112316189D01*
X120972537Y-112206751D01*
X120833249Y-112067463D01*
X120723811Y-111903678D01*
X120648429Y-111721689D01*
X120610000Y-111528491D01*
X120610000Y-111331509D01*
X120648429Y-111138311D01*
X120723811Y-110956322D01*
X120833249Y-110792537D01*
X120972537Y-110653249D01*
X121136322Y-110543811D01*
X121318311Y-110468429D01*
X121382710Y-110455619D01*
X121511507Y-110430000D01*
X121708493Y-110430000D01*
X121837290Y-110455619D01*
G37*
G36*
X124377290Y-110455619D02*
G01*
X124441689Y-110468429D01*
X124623678Y-110543811D01*
X124787463Y-110653249D01*
X124926751Y-110792537D01*
X125036189Y-110956322D01*
X125111571Y-111138311D01*
X125150000Y-111331509D01*
X125150000Y-111528491D01*
X125111571Y-111721689D01*
X125036189Y-111903678D01*
X124926751Y-112067463D01*
X124787463Y-112206751D01*
X124623678Y-112316189D01*
X124441689Y-112391571D01*
X124377290Y-112404381D01*
X124248493Y-112430000D01*
X124051507Y-112430000D01*
X123922710Y-112404381D01*
X123858311Y-112391571D01*
X123676322Y-112316189D01*
X123512537Y-112206751D01*
X123373249Y-112067463D01*
X123263811Y-111903678D01*
X123188429Y-111721689D01*
X123150000Y-111528491D01*
X123150000Y-111331509D01*
X123188429Y-111138311D01*
X123263811Y-110956322D01*
X123373249Y-110792537D01*
X123512537Y-110653249D01*
X123676322Y-110543811D01*
X123858311Y-110468429D01*
X123922710Y-110455619D01*
X124051507Y-110430000D01*
X124248493Y-110430000D01*
X124377290Y-110455619D01*
G37*
G36*
X176077290Y-110455619D02*
G01*
X176141689Y-110468429D01*
X176323678Y-110543811D01*
X176487463Y-110653249D01*
X176626751Y-110792537D01*
X176736189Y-110956322D01*
X176811571Y-111138311D01*
X176850000Y-111331509D01*
X176850000Y-111528491D01*
X176811571Y-111721689D01*
X176736189Y-111903678D01*
X176626751Y-112067463D01*
X176487463Y-112206751D01*
X176323678Y-112316189D01*
X176141689Y-112391571D01*
X176077290Y-112404381D01*
X175948493Y-112430000D01*
X175751507Y-112430000D01*
X175622710Y-112404381D01*
X175558311Y-112391571D01*
X175376322Y-112316189D01*
X175212537Y-112206751D01*
X175073249Y-112067463D01*
X174963811Y-111903678D01*
X174888429Y-111721689D01*
X174850000Y-111528491D01*
X174850000Y-111331509D01*
X174888429Y-111138311D01*
X174963811Y-110956322D01*
X175073249Y-110792537D01*
X175212537Y-110653249D01*
X175376322Y-110543811D01*
X175558311Y-110468429D01*
X175622710Y-110455619D01*
X175751507Y-110430000D01*
X175948493Y-110430000D01*
X176077290Y-110455619D01*
G37*
G36*
X178617290Y-110455619D02*
G01*
X178681689Y-110468429D01*
X178863678Y-110543811D01*
X179027463Y-110653249D01*
X179166751Y-110792537D01*
X179276189Y-110956322D01*
X179351571Y-111138311D01*
X179390000Y-111331509D01*
X179390000Y-111528491D01*
X179351571Y-111721689D01*
X179276189Y-111903678D01*
X179166751Y-112067463D01*
X179027463Y-112206751D01*
X178863678Y-112316189D01*
X178681689Y-112391571D01*
X178617290Y-112404381D01*
X178488493Y-112430000D01*
X178291507Y-112430000D01*
X178162710Y-112404381D01*
X178098311Y-112391571D01*
X177916322Y-112316189D01*
X177752537Y-112206751D01*
X177613249Y-112067463D01*
X177503811Y-111903678D01*
X177428429Y-111721689D01*
X177390000Y-111528491D01*
X177390000Y-111331509D01*
X177428429Y-111138311D01*
X177503811Y-110956322D01*
X177613249Y-110792537D01*
X177752537Y-110653249D01*
X177916322Y-110543811D01*
X178098311Y-110468429D01*
X178162710Y-110455619D01*
X178291507Y-110430000D01*
X178488493Y-110430000D01*
X178617290Y-110455619D01*
G37*
G36*
X155334618Y-111215465D02*
G01*
X155367433Y-111225419D01*
X155397665Y-111241579D01*
X155424170Y-111263330D01*
X155445921Y-111289835D01*
X155462081Y-111320067D01*
X155472035Y-111352882D01*
X155476000Y-111393140D01*
X155476000Y-112231860D01*
X155472035Y-112272118D01*
X155462081Y-112304933D01*
X155445921Y-112335165D01*
X155424170Y-112361670D01*
X155397665Y-112383421D01*
X155367433Y-112399581D01*
X155334618Y-112409535D01*
X155294360Y-112413500D01*
X154705640Y-112413500D01*
X154665382Y-112409535D01*
X154632567Y-112399581D01*
X154602335Y-112383421D01*
X154575830Y-112361670D01*
X154554079Y-112335165D01*
X154537919Y-112304933D01*
X154527965Y-112272118D01*
X154524000Y-112231860D01*
X154524000Y-111393140D01*
X154527965Y-111352882D01*
X154537919Y-111320067D01*
X154554079Y-111289835D01*
X154575830Y-111263330D01*
X154602335Y-111241579D01*
X154632567Y-111225419D01*
X154665382Y-111215465D01*
X154705640Y-111211500D01*
X155294360Y-111211500D01*
X155334618Y-111215465D01*
G37*
G36*
X170334618Y-111215465D02*
G01*
X170367433Y-111225419D01*
X170397665Y-111241579D01*
X170424170Y-111263330D01*
X170445921Y-111289835D01*
X170462081Y-111320067D01*
X170472035Y-111352882D01*
X170476000Y-111393140D01*
X170476000Y-112231860D01*
X170472035Y-112272118D01*
X170462081Y-112304933D01*
X170445921Y-112335165D01*
X170424170Y-112361670D01*
X170397665Y-112383421D01*
X170367433Y-112399581D01*
X170334618Y-112409535D01*
X170294360Y-112413500D01*
X169705640Y-112413500D01*
X169665382Y-112409535D01*
X169632567Y-112399581D01*
X169602335Y-112383421D01*
X169575830Y-112361670D01*
X169554079Y-112335165D01*
X169537919Y-112304933D01*
X169527965Y-112272118D01*
X169524000Y-112231860D01*
X169524000Y-111393140D01*
X169527965Y-111352882D01*
X169537919Y-111320067D01*
X169554079Y-111289835D01*
X169575830Y-111263330D01*
X169602335Y-111241579D01*
X169632567Y-111225419D01*
X169665382Y-111215465D01*
X169705640Y-111211500D01*
X170294360Y-111211500D01*
X170334618Y-111215465D01*
G37*
G36*
X165334618Y-111215465D02*
G01*
X165367433Y-111225419D01*
X165397665Y-111241579D01*
X165424170Y-111263330D01*
X165445921Y-111289835D01*
X165462081Y-111320067D01*
X165472035Y-111352882D01*
X165476000Y-111393140D01*
X165476000Y-112231860D01*
X165472035Y-112272118D01*
X165462081Y-112304933D01*
X165445921Y-112335165D01*
X165424170Y-112361670D01*
X165397665Y-112383421D01*
X165367433Y-112399581D01*
X165334618Y-112409535D01*
X165294360Y-112413500D01*
X164705640Y-112413500D01*
X164665382Y-112409535D01*
X164632567Y-112399581D01*
X164602335Y-112383421D01*
X164575830Y-112361670D01*
X164554079Y-112335165D01*
X164537919Y-112304933D01*
X164527965Y-112272118D01*
X164524000Y-112231860D01*
X164524000Y-111393140D01*
X164527965Y-111352882D01*
X164537919Y-111320067D01*
X164554079Y-111289835D01*
X164575830Y-111263330D01*
X164602335Y-111241579D01*
X164632567Y-111225419D01*
X164665382Y-111215465D01*
X164705640Y-111211500D01*
X165294360Y-111211500D01*
X165334618Y-111215465D01*
G37*
G36*
X160334618Y-111215465D02*
G01*
X160367433Y-111225419D01*
X160397665Y-111241579D01*
X160424170Y-111263330D01*
X160445921Y-111289835D01*
X160462081Y-111320067D01*
X160472035Y-111352882D01*
X160476000Y-111393140D01*
X160476000Y-112231860D01*
X160472035Y-112272118D01*
X160462081Y-112304933D01*
X160445921Y-112335165D01*
X160424170Y-112361670D01*
X160397665Y-112383421D01*
X160367433Y-112399581D01*
X160334618Y-112409535D01*
X160294360Y-112413500D01*
X159705640Y-112413500D01*
X159665382Y-112409535D01*
X159632567Y-112399581D01*
X159602335Y-112383421D01*
X159575830Y-112361670D01*
X159554079Y-112335165D01*
X159537919Y-112304933D01*
X159527965Y-112272118D01*
X159524000Y-112231860D01*
X159524000Y-111393140D01*
X159527965Y-111352882D01*
X159537919Y-111320067D01*
X159554079Y-111289835D01*
X159575830Y-111263330D01*
X159602335Y-111241579D01*
X159632567Y-111225419D01*
X159665382Y-111215465D01*
X159705640Y-111211500D01*
X160294360Y-111211500D01*
X160334618Y-111215465D01*
G37*
G36*
X150334618Y-111215465D02*
G01*
X150367433Y-111225419D01*
X150397665Y-111241579D01*
X150424170Y-111263330D01*
X150445921Y-111289835D01*
X150462081Y-111320067D01*
X150472035Y-111352882D01*
X150476000Y-111393140D01*
X150476000Y-112231860D01*
X150472035Y-112272118D01*
X150462081Y-112304933D01*
X150445921Y-112335165D01*
X150424170Y-112361670D01*
X150397665Y-112383421D01*
X150367433Y-112399581D01*
X150334618Y-112409535D01*
X150294360Y-112413500D01*
X149705640Y-112413500D01*
X149665382Y-112409535D01*
X149632567Y-112399581D01*
X149602335Y-112383421D01*
X149575830Y-112361670D01*
X149554079Y-112335165D01*
X149537919Y-112304933D01*
X149527965Y-112272118D01*
X149524000Y-112231860D01*
X149524000Y-111393140D01*
X149527965Y-111352882D01*
X149537919Y-111320067D01*
X149554079Y-111289835D01*
X149575830Y-111263330D01*
X149602335Y-111241579D01*
X149632567Y-111225419D01*
X149665382Y-111215465D01*
X149705640Y-111211500D01*
X150294360Y-111211500D01*
X150334618Y-111215465D01*
G37*
G36*
X150334618Y-109590465D02*
G01*
X150367433Y-109600419D01*
X150397665Y-109616579D01*
X150424170Y-109638330D01*
X150445921Y-109664835D01*
X150462081Y-109695067D01*
X150472035Y-109727882D01*
X150476000Y-109768140D01*
X150476000Y-110606860D01*
X150472035Y-110647118D01*
X150462081Y-110679933D01*
X150445921Y-110710165D01*
X150424170Y-110736670D01*
X150397665Y-110758421D01*
X150367433Y-110774581D01*
X150334618Y-110784535D01*
X150294360Y-110788500D01*
X149705640Y-110788500D01*
X149665382Y-110784535D01*
X149632567Y-110774581D01*
X149602335Y-110758421D01*
X149575830Y-110736670D01*
X149554079Y-110710165D01*
X149537919Y-110679933D01*
X149527965Y-110647118D01*
X149524000Y-110606860D01*
X149524000Y-109768140D01*
X149527965Y-109727882D01*
X149537919Y-109695067D01*
X149554079Y-109664835D01*
X149575830Y-109638330D01*
X149602335Y-109616579D01*
X149632567Y-109600419D01*
X149665382Y-109590465D01*
X149705640Y-109586500D01*
X150294360Y-109586500D01*
X150334618Y-109590465D01*
G37*
G36*
X155334618Y-109590465D02*
G01*
X155367433Y-109600419D01*
X155397665Y-109616579D01*
X155424170Y-109638330D01*
X155445921Y-109664835D01*
X155462081Y-109695067D01*
X155472035Y-109727882D01*
X155476000Y-109768140D01*
X155476000Y-110606860D01*
X155472035Y-110647118D01*
X155462081Y-110679933D01*
X155445921Y-110710165D01*
X155424170Y-110736670D01*
X155397665Y-110758421D01*
X155367433Y-110774581D01*
X155334618Y-110784535D01*
X155294360Y-110788500D01*
X154705640Y-110788500D01*
X154665382Y-110784535D01*
X154632567Y-110774581D01*
X154602335Y-110758421D01*
X154575830Y-110736670D01*
X154554079Y-110710165D01*
X154537919Y-110679933D01*
X154527965Y-110647118D01*
X154524000Y-110606860D01*
X154524000Y-109768140D01*
X154527965Y-109727882D01*
X154537919Y-109695067D01*
X154554079Y-109664835D01*
X154575830Y-109638330D01*
X154602335Y-109616579D01*
X154632567Y-109600419D01*
X154665382Y-109590465D01*
X154705640Y-109586500D01*
X155294360Y-109586500D01*
X155334618Y-109590465D01*
G37*
G36*
X165334618Y-109590465D02*
G01*
X165367433Y-109600419D01*
X165397665Y-109616579D01*
X165424170Y-109638330D01*
X165445921Y-109664835D01*
X165462081Y-109695067D01*
X165472035Y-109727882D01*
X165476000Y-109768140D01*
X165476000Y-110606860D01*
X165472035Y-110647118D01*
X165462081Y-110679933D01*
X165445921Y-110710165D01*
X165424170Y-110736670D01*
X165397665Y-110758421D01*
X165367433Y-110774581D01*
X165334618Y-110784535D01*
X165294360Y-110788500D01*
X164705640Y-110788500D01*
X164665382Y-110784535D01*
X164632567Y-110774581D01*
X164602335Y-110758421D01*
X164575830Y-110736670D01*
X164554079Y-110710165D01*
X164537919Y-110679933D01*
X164527965Y-110647118D01*
X164524000Y-110606860D01*
X164524000Y-109768140D01*
X164527965Y-109727882D01*
X164537919Y-109695067D01*
X164554079Y-109664835D01*
X164575830Y-109638330D01*
X164602335Y-109616579D01*
X164632567Y-109600419D01*
X164665382Y-109590465D01*
X164705640Y-109586500D01*
X165294360Y-109586500D01*
X165334618Y-109590465D01*
G37*
G36*
X170334618Y-109590465D02*
G01*
X170367433Y-109600419D01*
X170397665Y-109616579D01*
X170424170Y-109638330D01*
X170445921Y-109664835D01*
X170462081Y-109695067D01*
X170472035Y-109727882D01*
X170476000Y-109768140D01*
X170476000Y-110606860D01*
X170472035Y-110647118D01*
X170462081Y-110679933D01*
X170445921Y-110710165D01*
X170424170Y-110736670D01*
X170397665Y-110758421D01*
X170367433Y-110774581D01*
X170334618Y-110784535D01*
X170294360Y-110788500D01*
X169705640Y-110788500D01*
X169665382Y-110784535D01*
X169632567Y-110774581D01*
X169602335Y-110758421D01*
X169575830Y-110736670D01*
X169554079Y-110710165D01*
X169537919Y-110679933D01*
X169527965Y-110647118D01*
X169524000Y-110606860D01*
X169524000Y-109768140D01*
X169527965Y-109727882D01*
X169537919Y-109695067D01*
X169554079Y-109664835D01*
X169575830Y-109638330D01*
X169602335Y-109616579D01*
X169632567Y-109600419D01*
X169665382Y-109590465D01*
X169705640Y-109586500D01*
X170294360Y-109586500D01*
X170334618Y-109590465D01*
G37*
G36*
X160334618Y-109590465D02*
G01*
X160367433Y-109600419D01*
X160397665Y-109616579D01*
X160424170Y-109638330D01*
X160445921Y-109664835D01*
X160462081Y-109695067D01*
X160472035Y-109727882D01*
X160476000Y-109768140D01*
X160476000Y-110606860D01*
X160472035Y-110647118D01*
X160462081Y-110679933D01*
X160445921Y-110710165D01*
X160424170Y-110736670D01*
X160397665Y-110758421D01*
X160367433Y-110774581D01*
X160334618Y-110784535D01*
X160294360Y-110788500D01*
X159705640Y-110788500D01*
X159665382Y-110784535D01*
X159632567Y-110774581D01*
X159602335Y-110758421D01*
X159575830Y-110736670D01*
X159554079Y-110710165D01*
X159537919Y-110679933D01*
X159527965Y-110647118D01*
X159524000Y-110606860D01*
X159524000Y-109768140D01*
X159527965Y-109727882D01*
X159537919Y-109695067D01*
X159554079Y-109664835D01*
X159575830Y-109638330D01*
X159602335Y-109616579D01*
X159632567Y-109600419D01*
X159665382Y-109590465D01*
X159705640Y-109586500D01*
X160294360Y-109586500D01*
X160334618Y-109590465D01*
G37*
G36*
X178617290Y-107915619D02*
G01*
X178681689Y-107928429D01*
X178863678Y-108003811D01*
X179027463Y-108113249D01*
X179166751Y-108252537D01*
X179276189Y-108416322D01*
X179351571Y-108598311D01*
X179390000Y-108791509D01*
X179390000Y-108988491D01*
X179351571Y-109181689D01*
X179276189Y-109363678D01*
X179166751Y-109527463D01*
X179027463Y-109666751D01*
X178863678Y-109776189D01*
X178681689Y-109851571D01*
X178617290Y-109864381D01*
X178488493Y-109890000D01*
X178291507Y-109890000D01*
X178162710Y-109864381D01*
X178098311Y-109851571D01*
X177916322Y-109776189D01*
X177752537Y-109666751D01*
X177613249Y-109527463D01*
X177503811Y-109363678D01*
X177428429Y-109181689D01*
X177390000Y-108988491D01*
X177390000Y-108791509D01*
X177428429Y-108598311D01*
X177503811Y-108416322D01*
X177613249Y-108252537D01*
X177752537Y-108113249D01*
X177916322Y-108003811D01*
X178098311Y-107928429D01*
X178162710Y-107915619D01*
X178291507Y-107890000D01*
X178488493Y-107890000D01*
X178617290Y-107915619D01*
G37*
G36*
X176077290Y-107915619D02*
G01*
X176141689Y-107928429D01*
X176323678Y-108003811D01*
X176487463Y-108113249D01*
X176626751Y-108252537D01*
X176736189Y-108416322D01*
X176811571Y-108598311D01*
X176850000Y-108791509D01*
X176850000Y-108988491D01*
X176811571Y-109181689D01*
X176736189Y-109363678D01*
X176626751Y-109527463D01*
X176487463Y-109666751D01*
X176323678Y-109776189D01*
X176141689Y-109851571D01*
X176077290Y-109864381D01*
X175948493Y-109890000D01*
X175751507Y-109890000D01*
X175622710Y-109864381D01*
X175558311Y-109851571D01*
X175376322Y-109776189D01*
X175212537Y-109666751D01*
X175073249Y-109527463D01*
X174963811Y-109363678D01*
X174888429Y-109181689D01*
X174850000Y-108988491D01*
X174850000Y-108791509D01*
X174888429Y-108598311D01*
X174963811Y-108416322D01*
X175073249Y-108252537D01*
X175212537Y-108113249D01*
X175376322Y-108003811D01*
X175558311Y-107928429D01*
X175622710Y-107915619D01*
X175751507Y-107890000D01*
X175948493Y-107890000D01*
X176077290Y-107915619D01*
G37*
G36*
X121837290Y-107915619D02*
G01*
X121901689Y-107928429D01*
X122083678Y-108003811D01*
X122247463Y-108113249D01*
X122386751Y-108252537D01*
X122496189Y-108416322D01*
X122571571Y-108598311D01*
X122610000Y-108791509D01*
X122610000Y-108988491D01*
X122571571Y-109181689D01*
X122496189Y-109363678D01*
X122386751Y-109527463D01*
X122247463Y-109666751D01*
X122083678Y-109776189D01*
X121901689Y-109851571D01*
X121837290Y-109864381D01*
X121708493Y-109890000D01*
X121511507Y-109890000D01*
X121382710Y-109864381D01*
X121318311Y-109851571D01*
X121136322Y-109776189D01*
X120972537Y-109666751D01*
X120833249Y-109527463D01*
X120723811Y-109363678D01*
X120648429Y-109181689D01*
X120610000Y-108988491D01*
X120610000Y-108791509D01*
X120648429Y-108598311D01*
X120723811Y-108416322D01*
X120833249Y-108252537D01*
X120972537Y-108113249D01*
X121136322Y-108003811D01*
X121318311Y-107928429D01*
X121382710Y-107915619D01*
X121511507Y-107890000D01*
X121708493Y-107890000D01*
X121837290Y-107915619D01*
G37*
G36*
X124377290Y-107915619D02*
G01*
X124441689Y-107928429D01*
X124623678Y-108003811D01*
X124787463Y-108113249D01*
X124926751Y-108252537D01*
X125036189Y-108416322D01*
X125111571Y-108598311D01*
X125150000Y-108791509D01*
X125150000Y-108988491D01*
X125111571Y-109181689D01*
X125036189Y-109363678D01*
X124926751Y-109527463D01*
X124787463Y-109666751D01*
X124623678Y-109776189D01*
X124441689Y-109851571D01*
X124377290Y-109864381D01*
X124248493Y-109890000D01*
X124051507Y-109890000D01*
X123922710Y-109864381D01*
X123858311Y-109851571D01*
X123676322Y-109776189D01*
X123512537Y-109666751D01*
X123373249Y-109527463D01*
X123263811Y-109363678D01*
X123188429Y-109181689D01*
X123150000Y-108988491D01*
X123150000Y-108791509D01*
X123188429Y-108598311D01*
X123263811Y-108416322D01*
X123373249Y-108252537D01*
X123512537Y-108113249D01*
X123676322Y-108003811D01*
X123858311Y-107928429D01*
X123922710Y-107915619D01*
X124051507Y-107890000D01*
X124248493Y-107890000D01*
X124377290Y-107915619D01*
G37*
G36*
X176077290Y-105375619D02*
G01*
X176141689Y-105388429D01*
X176323678Y-105463811D01*
X176487463Y-105573249D01*
X176626751Y-105712537D01*
X176736189Y-105876322D01*
X176811571Y-106058311D01*
X176850000Y-106251509D01*
X176850000Y-106448491D01*
X176811571Y-106641689D01*
X176736189Y-106823678D01*
X176626751Y-106987463D01*
X176487463Y-107126751D01*
X176323678Y-107236189D01*
X176141689Y-107311571D01*
X176077290Y-107324381D01*
X175948493Y-107350000D01*
X175751507Y-107350000D01*
X175622710Y-107324381D01*
X175558311Y-107311571D01*
X175376322Y-107236189D01*
X175212537Y-107126751D01*
X175073249Y-106987463D01*
X174963811Y-106823678D01*
X174888429Y-106641689D01*
X174850000Y-106448491D01*
X174850000Y-106251509D01*
X174888429Y-106058311D01*
X174963811Y-105876322D01*
X175073249Y-105712537D01*
X175212537Y-105573249D01*
X175376322Y-105463811D01*
X175558311Y-105388429D01*
X175622710Y-105375619D01*
X175751507Y-105350000D01*
X175948493Y-105350000D01*
X176077290Y-105375619D01*
G37*
G36*
X121837290Y-105375619D02*
G01*
X121901689Y-105388429D01*
X122083678Y-105463811D01*
X122247463Y-105573249D01*
X122386751Y-105712537D01*
X122496189Y-105876322D01*
X122571571Y-106058311D01*
X122610000Y-106251509D01*
X122610000Y-106448491D01*
X122571571Y-106641689D01*
X122496189Y-106823678D01*
X122386751Y-106987463D01*
X122247463Y-107126751D01*
X122083678Y-107236189D01*
X121901689Y-107311571D01*
X121837290Y-107324381D01*
X121708493Y-107350000D01*
X121511507Y-107350000D01*
X121382710Y-107324381D01*
X121318311Y-107311571D01*
X121136322Y-107236189D01*
X120972537Y-107126751D01*
X120833249Y-106987463D01*
X120723811Y-106823678D01*
X120648429Y-106641689D01*
X120610000Y-106448491D01*
X120610000Y-106251509D01*
X120648429Y-106058311D01*
X120723811Y-105876322D01*
X120833249Y-105712537D01*
X120972537Y-105573249D01*
X121136322Y-105463811D01*
X121318311Y-105388429D01*
X121382710Y-105375619D01*
X121511507Y-105350000D01*
X121708493Y-105350000D01*
X121837290Y-105375619D01*
G37*
G36*
X124377290Y-105375619D02*
G01*
X124441689Y-105388429D01*
X124623678Y-105463811D01*
X124787463Y-105573249D01*
X124926751Y-105712537D01*
X125036189Y-105876322D01*
X125111571Y-106058311D01*
X125150000Y-106251509D01*
X125150000Y-106448491D01*
X125111571Y-106641689D01*
X125036189Y-106823678D01*
X124926751Y-106987463D01*
X124787463Y-107126751D01*
X124623678Y-107236189D01*
X124441689Y-107311571D01*
X124377290Y-107324381D01*
X124248493Y-107350000D01*
X124051507Y-107350000D01*
X123922710Y-107324381D01*
X123858311Y-107311571D01*
X123676322Y-107236189D01*
X123512537Y-107126751D01*
X123373249Y-106987463D01*
X123263811Y-106823678D01*
X123188429Y-106641689D01*
X123150000Y-106448491D01*
X123150000Y-106251509D01*
X123188429Y-106058311D01*
X123263811Y-105876322D01*
X123373249Y-105712537D01*
X123512537Y-105573249D01*
X123676322Y-105463811D01*
X123858311Y-105388429D01*
X123922710Y-105375619D01*
X124051507Y-105350000D01*
X124248493Y-105350000D01*
X124377290Y-105375619D01*
G37*
G36*
X178617290Y-105375619D02*
G01*
X178681689Y-105388429D01*
X178863678Y-105463811D01*
X179027463Y-105573249D01*
X179166751Y-105712537D01*
X179276189Y-105876322D01*
X179351571Y-106058311D01*
X179390000Y-106251509D01*
X179390000Y-106448491D01*
X179351571Y-106641689D01*
X179276189Y-106823678D01*
X179166751Y-106987463D01*
X179027463Y-107126751D01*
X178863678Y-107236189D01*
X178681689Y-107311571D01*
X178617290Y-107324381D01*
X178488493Y-107350000D01*
X178291507Y-107350000D01*
X178162710Y-107324381D01*
X178098311Y-107311571D01*
X177916322Y-107236189D01*
X177752537Y-107126751D01*
X177613249Y-106987463D01*
X177503811Y-106823678D01*
X177428429Y-106641689D01*
X177390000Y-106448491D01*
X177390000Y-106251509D01*
X177428429Y-106058311D01*
X177503811Y-105876322D01*
X177613249Y-105712537D01*
X177752537Y-105573249D01*
X177916322Y-105463811D01*
X178098311Y-105388429D01*
X178162710Y-105375619D01*
X178291507Y-105350000D01*
X178488493Y-105350000D01*
X178617290Y-105375619D01*
G37*
G36*
X124377290Y-102835619D02*
G01*
X124441689Y-102848429D01*
X124623678Y-102923811D01*
X124787463Y-103033249D01*
X124926751Y-103172537D01*
X125036189Y-103336322D01*
X125111571Y-103518311D01*
X125150000Y-103711509D01*
X125150000Y-103908491D01*
X125111571Y-104101689D01*
X125036189Y-104283678D01*
X124926751Y-104447463D01*
X124787463Y-104586751D01*
X124623678Y-104696189D01*
X124441689Y-104771571D01*
X124377290Y-104784381D01*
X124248493Y-104810000D01*
X124051507Y-104810000D01*
X123922710Y-104784381D01*
X123858311Y-104771571D01*
X123676322Y-104696189D01*
X123512537Y-104586751D01*
X123373249Y-104447463D01*
X123263811Y-104283678D01*
X123188429Y-104101689D01*
X123150000Y-103908491D01*
X123150000Y-103711509D01*
X123188429Y-103518311D01*
X123263811Y-103336322D01*
X123373249Y-103172537D01*
X123512537Y-103033249D01*
X123676322Y-102923811D01*
X123858311Y-102848429D01*
X123922710Y-102835619D01*
X124051507Y-102810000D01*
X124248493Y-102810000D01*
X124377290Y-102835619D01*
G37*
G36*
X178617290Y-102835619D02*
G01*
X178681689Y-102848429D01*
X178863678Y-102923811D01*
X179027463Y-103033249D01*
X179166751Y-103172537D01*
X179276189Y-103336322D01*
X179351571Y-103518311D01*
X179390000Y-103711509D01*
X179390000Y-103908491D01*
X179351571Y-104101689D01*
X179276189Y-104283678D01*
X179166751Y-104447463D01*
X179027463Y-104586751D01*
X178863678Y-104696189D01*
X178681689Y-104771571D01*
X178617290Y-104784381D01*
X178488493Y-104810000D01*
X178291507Y-104810000D01*
X178162710Y-104784381D01*
X178098311Y-104771571D01*
X177916322Y-104696189D01*
X177752537Y-104586751D01*
X177613249Y-104447463D01*
X177503811Y-104283678D01*
X177428429Y-104101689D01*
X177390000Y-103908491D01*
X177390000Y-103711509D01*
X177428429Y-103518311D01*
X177503811Y-103336322D01*
X177613249Y-103172537D01*
X177752537Y-103033249D01*
X177916322Y-102923811D01*
X178098311Y-102848429D01*
X178162710Y-102835619D01*
X178291507Y-102810000D01*
X178488493Y-102810000D01*
X178617290Y-102835619D01*
G37*
G36*
X176077290Y-102835619D02*
G01*
X176141689Y-102848429D01*
X176323678Y-102923811D01*
X176487463Y-103033249D01*
X176626751Y-103172537D01*
X176736189Y-103336322D01*
X176811571Y-103518311D01*
X176850000Y-103711509D01*
X176850000Y-103908491D01*
X176811571Y-104101689D01*
X176736189Y-104283678D01*
X176626751Y-104447463D01*
X176487463Y-104586751D01*
X176323678Y-104696189D01*
X176141689Y-104771571D01*
X176077290Y-104784381D01*
X175948493Y-104810000D01*
X175751507Y-104810000D01*
X175622710Y-104784381D01*
X175558311Y-104771571D01*
X175376322Y-104696189D01*
X175212537Y-104586751D01*
X175073249Y-104447463D01*
X174963811Y-104283678D01*
X174888429Y-104101689D01*
X174850000Y-103908491D01*
X174850000Y-103711509D01*
X174888429Y-103518311D01*
X174963811Y-103336322D01*
X175073249Y-103172537D01*
X175212537Y-103033249D01*
X175376322Y-102923811D01*
X175558311Y-102848429D01*
X175622710Y-102835619D01*
X175751507Y-102810000D01*
X175948493Y-102810000D01*
X176077290Y-102835619D01*
G37*
G36*
X121837290Y-102835619D02*
G01*
X121901689Y-102848429D01*
X122083678Y-102923811D01*
X122247463Y-103033249D01*
X122386751Y-103172537D01*
X122496189Y-103336322D01*
X122571571Y-103518311D01*
X122610000Y-103711509D01*
X122610000Y-103908491D01*
X122571571Y-104101689D01*
X122496189Y-104283678D01*
X122386751Y-104447463D01*
X122247463Y-104586751D01*
X122083678Y-104696189D01*
X121901689Y-104771571D01*
X121837290Y-104784381D01*
X121708493Y-104810000D01*
X121511507Y-104810000D01*
X121382710Y-104784381D01*
X121318311Y-104771571D01*
X121136322Y-104696189D01*
X120972537Y-104586751D01*
X120833249Y-104447463D01*
X120723811Y-104283678D01*
X120648429Y-104101689D01*
X120610000Y-103908491D01*
X120610000Y-103711509D01*
X120648429Y-103518311D01*
X120723811Y-103336322D01*
X120833249Y-103172537D01*
X120972537Y-103033249D01*
X121136322Y-102923811D01*
X121318311Y-102848429D01*
X121382710Y-102835619D01*
X121511507Y-102810000D01*
X121708493Y-102810000D01*
X121837290Y-102835619D01*
G37*
G36*
X121837290Y-100295619D02*
G01*
X121901689Y-100308429D01*
X122083678Y-100383811D01*
X122247463Y-100493249D01*
X122386751Y-100632537D01*
X122496189Y-100796322D01*
X122571571Y-100978311D01*
X122610000Y-101171509D01*
X122610000Y-101368491D01*
X122571571Y-101561689D01*
X122496189Y-101743678D01*
X122386751Y-101907463D01*
X122247463Y-102046751D01*
X122083678Y-102156189D01*
X121901689Y-102231571D01*
X121837290Y-102244381D01*
X121708493Y-102270000D01*
X121511507Y-102270000D01*
X121382710Y-102244381D01*
X121318311Y-102231571D01*
X121136322Y-102156189D01*
X120972537Y-102046751D01*
X120833249Y-101907463D01*
X120723811Y-101743678D01*
X120648429Y-101561689D01*
X120610000Y-101368491D01*
X120610000Y-101171509D01*
X120648429Y-100978311D01*
X120723811Y-100796322D01*
X120833249Y-100632537D01*
X120972537Y-100493249D01*
X121136322Y-100383811D01*
X121318311Y-100308429D01*
X121382710Y-100295619D01*
X121511507Y-100270000D01*
X121708493Y-100270000D01*
X121837290Y-100295619D01*
G37*
G36*
X176077290Y-100295619D02*
G01*
X176141689Y-100308429D01*
X176323678Y-100383811D01*
X176487463Y-100493249D01*
X176626751Y-100632537D01*
X176736189Y-100796322D01*
X176811571Y-100978311D01*
X176850000Y-101171509D01*
X176850000Y-101368491D01*
X176811571Y-101561689D01*
X176736189Y-101743678D01*
X176626751Y-101907463D01*
X176487463Y-102046751D01*
X176323678Y-102156189D01*
X176141689Y-102231571D01*
X176077290Y-102244381D01*
X175948493Y-102270000D01*
X175751507Y-102270000D01*
X175622710Y-102244381D01*
X175558311Y-102231571D01*
X175376322Y-102156189D01*
X175212537Y-102046751D01*
X175073249Y-101907463D01*
X174963811Y-101743678D01*
X174888429Y-101561689D01*
X174850000Y-101368491D01*
X174850000Y-101171509D01*
X174888429Y-100978311D01*
X174963811Y-100796322D01*
X175073249Y-100632537D01*
X175212537Y-100493249D01*
X175376322Y-100383811D01*
X175558311Y-100308429D01*
X175622710Y-100295619D01*
X175751507Y-100270000D01*
X175948493Y-100270000D01*
X176077290Y-100295619D01*
G37*
G36*
X124377290Y-100295619D02*
G01*
X124441689Y-100308429D01*
X124623678Y-100383811D01*
X124787463Y-100493249D01*
X124926751Y-100632537D01*
X125036189Y-100796322D01*
X125111571Y-100978311D01*
X125150000Y-101171509D01*
X125150000Y-101368491D01*
X125111571Y-101561689D01*
X125036189Y-101743678D01*
X124926751Y-101907463D01*
X124787463Y-102046751D01*
X124623678Y-102156189D01*
X124441689Y-102231571D01*
X124377290Y-102244381D01*
X124248493Y-102270000D01*
X124051507Y-102270000D01*
X123922710Y-102244381D01*
X123858311Y-102231571D01*
X123676322Y-102156189D01*
X123512537Y-102046751D01*
X123373249Y-101907463D01*
X123263811Y-101743678D01*
X123188429Y-101561689D01*
X123150000Y-101368491D01*
X123150000Y-101171509D01*
X123188429Y-100978311D01*
X123263811Y-100796322D01*
X123373249Y-100632537D01*
X123512537Y-100493249D01*
X123676322Y-100383811D01*
X123858311Y-100308429D01*
X123922710Y-100295619D01*
X124051507Y-100270000D01*
X124248493Y-100270000D01*
X124377290Y-100295619D01*
G37*
G36*
X178617290Y-100295619D02*
G01*
X178681689Y-100308429D01*
X178863678Y-100383811D01*
X179027463Y-100493249D01*
X179166751Y-100632537D01*
X179276189Y-100796322D01*
X179351571Y-100978311D01*
X179390000Y-101171509D01*
X179390000Y-101368491D01*
X179351571Y-101561689D01*
X179276189Y-101743678D01*
X179166751Y-101907463D01*
X179027463Y-102046751D01*
X178863678Y-102156189D01*
X178681689Y-102231571D01*
X178617290Y-102244381D01*
X178488493Y-102270000D01*
X178291507Y-102270000D01*
X178162710Y-102244381D01*
X178098311Y-102231571D01*
X177916322Y-102156189D01*
X177752537Y-102046751D01*
X177613249Y-101907463D01*
X177503811Y-101743678D01*
X177428429Y-101561689D01*
X177390000Y-101368491D01*
X177390000Y-101171509D01*
X177428429Y-100978311D01*
X177503811Y-100796322D01*
X177613249Y-100632537D01*
X177752537Y-100493249D01*
X177916322Y-100383811D01*
X178098311Y-100308429D01*
X178162710Y-100295619D01*
X178291507Y-100270000D01*
X178488493Y-100270000D01*
X178617290Y-100295619D01*
G37*
G36*
X121837290Y-97755619D02*
G01*
X121901689Y-97768429D01*
X122083678Y-97843811D01*
X122247463Y-97953249D01*
X122386751Y-98092537D01*
X122496189Y-98256322D01*
X122571571Y-98438311D01*
X122610000Y-98631509D01*
X122610000Y-98828491D01*
X122571571Y-99021689D01*
X122496189Y-99203678D01*
X122386751Y-99367463D01*
X122247463Y-99506751D01*
X122083678Y-99616189D01*
X121901689Y-99691571D01*
X121837290Y-99704381D01*
X121708493Y-99730000D01*
X121511507Y-99730000D01*
X121382710Y-99704381D01*
X121318311Y-99691571D01*
X121136322Y-99616189D01*
X120972537Y-99506751D01*
X120833249Y-99367463D01*
X120723811Y-99203678D01*
X120648429Y-99021689D01*
X120610000Y-98828491D01*
X120610000Y-98631509D01*
X120648429Y-98438311D01*
X120723811Y-98256322D01*
X120833249Y-98092537D01*
X120972537Y-97953249D01*
X121136322Y-97843811D01*
X121318311Y-97768429D01*
X121382710Y-97755619D01*
X121511507Y-97730000D01*
X121708493Y-97730000D01*
X121837290Y-97755619D01*
G37*
G36*
X176077290Y-97755619D02*
G01*
X176141689Y-97768429D01*
X176323678Y-97843811D01*
X176487463Y-97953249D01*
X176626751Y-98092537D01*
X176736189Y-98256322D01*
X176811571Y-98438311D01*
X176850000Y-98631509D01*
X176850000Y-98828491D01*
X176811571Y-99021689D01*
X176736189Y-99203678D01*
X176626751Y-99367463D01*
X176487463Y-99506751D01*
X176323678Y-99616189D01*
X176141689Y-99691571D01*
X176077290Y-99704381D01*
X175948493Y-99730000D01*
X175751507Y-99730000D01*
X175622710Y-99704381D01*
X175558311Y-99691571D01*
X175376322Y-99616189D01*
X175212537Y-99506751D01*
X175073249Y-99367463D01*
X174963811Y-99203678D01*
X174888429Y-99021689D01*
X174850000Y-98828491D01*
X174850000Y-98631509D01*
X174888429Y-98438311D01*
X174963811Y-98256322D01*
X175073249Y-98092537D01*
X175212537Y-97953249D01*
X175376322Y-97843811D01*
X175558311Y-97768429D01*
X175622710Y-97755619D01*
X175751507Y-97730000D01*
X175948493Y-97730000D01*
X176077290Y-97755619D01*
G37*
G36*
X178617290Y-97755619D02*
G01*
X178681689Y-97768429D01*
X178863678Y-97843811D01*
X179027463Y-97953249D01*
X179166751Y-98092537D01*
X179276189Y-98256322D01*
X179351571Y-98438311D01*
X179390000Y-98631509D01*
X179390000Y-98828491D01*
X179351571Y-99021689D01*
X179276189Y-99203678D01*
X179166751Y-99367463D01*
X179027463Y-99506751D01*
X178863678Y-99616189D01*
X178681689Y-99691571D01*
X178617290Y-99704381D01*
X178488493Y-99730000D01*
X178291507Y-99730000D01*
X178162710Y-99704381D01*
X178098311Y-99691571D01*
X177916322Y-99616189D01*
X177752537Y-99506751D01*
X177613249Y-99367463D01*
X177503811Y-99203678D01*
X177428429Y-99021689D01*
X177390000Y-98828491D01*
X177390000Y-98631509D01*
X177428429Y-98438311D01*
X177503811Y-98256322D01*
X177613249Y-98092537D01*
X177752537Y-97953249D01*
X177916322Y-97843811D01*
X178098311Y-97768429D01*
X178162710Y-97755619D01*
X178291507Y-97730000D01*
X178488493Y-97730000D01*
X178617290Y-97755619D01*
G37*
G36*
X124377290Y-97755619D02*
G01*
X124441689Y-97768429D01*
X124623678Y-97843811D01*
X124787463Y-97953249D01*
X124926751Y-98092537D01*
X125036189Y-98256322D01*
X125111571Y-98438311D01*
X125150000Y-98631509D01*
X125150000Y-98828491D01*
X125111571Y-99021689D01*
X125036189Y-99203678D01*
X124926751Y-99367463D01*
X124787463Y-99506751D01*
X124623678Y-99616189D01*
X124441689Y-99691571D01*
X124377290Y-99704381D01*
X124248493Y-99730000D01*
X124051507Y-99730000D01*
X123922710Y-99704381D01*
X123858311Y-99691571D01*
X123676322Y-99616189D01*
X123512537Y-99506751D01*
X123373249Y-99367463D01*
X123263811Y-99203678D01*
X123188429Y-99021689D01*
X123150000Y-98828491D01*
X123150000Y-98631509D01*
X123188429Y-98438311D01*
X123263811Y-98256322D01*
X123373249Y-98092537D01*
X123512537Y-97953249D01*
X123676322Y-97843811D01*
X123858311Y-97768429D01*
X123922710Y-97755619D01*
X124051507Y-97730000D01*
X124248493Y-97730000D01*
X124377290Y-97755619D01*
G37*
G36*
X124377290Y-95215619D02*
G01*
X124441689Y-95228429D01*
X124623678Y-95303811D01*
X124787463Y-95413249D01*
X124926751Y-95552537D01*
X125036189Y-95716322D01*
X125111571Y-95898311D01*
X125150000Y-96091509D01*
X125150000Y-96288491D01*
X125111571Y-96481689D01*
X125036189Y-96663678D01*
X124926751Y-96827463D01*
X124787463Y-96966751D01*
X124623678Y-97076189D01*
X124441689Y-97151571D01*
X124377290Y-97164381D01*
X124248493Y-97190000D01*
X124051507Y-97190000D01*
X123922710Y-97164381D01*
X123858311Y-97151571D01*
X123676322Y-97076189D01*
X123512537Y-96966751D01*
X123373249Y-96827463D01*
X123263811Y-96663678D01*
X123188429Y-96481689D01*
X123150000Y-96288491D01*
X123150000Y-96091509D01*
X123188429Y-95898311D01*
X123263811Y-95716322D01*
X123373249Y-95552537D01*
X123512537Y-95413249D01*
X123676322Y-95303811D01*
X123858311Y-95228429D01*
X123922710Y-95215619D01*
X124051507Y-95190000D01*
X124248493Y-95190000D01*
X124377290Y-95215619D01*
G37*
G36*
X178617290Y-95215619D02*
G01*
X178681689Y-95228429D01*
X178863678Y-95303811D01*
X179027463Y-95413249D01*
X179166751Y-95552537D01*
X179276189Y-95716322D01*
X179351571Y-95898311D01*
X179390000Y-96091509D01*
X179390000Y-96288491D01*
X179351571Y-96481689D01*
X179276189Y-96663678D01*
X179166751Y-96827463D01*
X179027463Y-96966751D01*
X178863678Y-97076189D01*
X178681689Y-97151571D01*
X178617290Y-97164381D01*
X178488493Y-97190000D01*
X178291507Y-97190000D01*
X178162710Y-97164381D01*
X178098311Y-97151571D01*
X177916322Y-97076189D01*
X177752537Y-96966751D01*
X177613249Y-96827463D01*
X177503811Y-96663678D01*
X177428429Y-96481689D01*
X177390000Y-96288491D01*
X177390000Y-96091509D01*
X177428429Y-95898311D01*
X177503811Y-95716322D01*
X177613249Y-95552537D01*
X177752537Y-95413249D01*
X177916322Y-95303811D01*
X178098311Y-95228429D01*
X178162710Y-95215619D01*
X178291507Y-95190000D01*
X178488493Y-95190000D01*
X178617290Y-95215619D01*
G37*
G36*
X176077290Y-95215619D02*
G01*
X176141689Y-95228429D01*
X176323678Y-95303811D01*
X176487463Y-95413249D01*
X176626751Y-95552537D01*
X176736189Y-95716322D01*
X176811571Y-95898311D01*
X176850000Y-96091509D01*
X176850000Y-96288491D01*
X176811571Y-96481689D01*
X176736189Y-96663678D01*
X176626751Y-96827463D01*
X176487463Y-96966751D01*
X176323678Y-97076189D01*
X176141689Y-97151571D01*
X176077290Y-97164381D01*
X175948493Y-97190000D01*
X175751507Y-97190000D01*
X175622710Y-97164381D01*
X175558311Y-97151571D01*
X175376322Y-97076189D01*
X175212537Y-96966751D01*
X175073249Y-96827463D01*
X174963811Y-96663678D01*
X174888429Y-96481689D01*
X174850000Y-96288491D01*
X174850000Y-96091509D01*
X174888429Y-95898311D01*
X174963811Y-95716322D01*
X175073249Y-95552537D01*
X175212537Y-95413249D01*
X175376322Y-95303811D01*
X175558311Y-95228429D01*
X175622710Y-95215619D01*
X175751507Y-95190000D01*
X175948493Y-95190000D01*
X176077290Y-95215619D01*
G37*
G36*
X121837290Y-95215619D02*
G01*
X121901689Y-95228429D01*
X122083678Y-95303811D01*
X122247463Y-95413249D01*
X122386751Y-95552537D01*
X122496189Y-95716322D01*
X122571571Y-95898311D01*
X122610000Y-96091509D01*
X122610000Y-96288491D01*
X122571571Y-96481689D01*
X122496189Y-96663678D01*
X122386751Y-96827463D01*
X122247463Y-96966751D01*
X122083678Y-97076189D01*
X121901689Y-97151571D01*
X121837290Y-97164381D01*
X121708493Y-97190000D01*
X121511507Y-97190000D01*
X121382710Y-97164381D01*
X121318311Y-97151571D01*
X121136322Y-97076189D01*
X120972537Y-96966751D01*
X120833249Y-96827463D01*
X120723811Y-96663678D01*
X120648429Y-96481689D01*
X120610000Y-96288491D01*
X120610000Y-96091509D01*
X120648429Y-95898311D01*
X120723811Y-95716322D01*
X120833249Y-95552537D01*
X120972537Y-95413249D01*
X121136322Y-95303811D01*
X121318311Y-95228429D01*
X121382710Y-95215619D01*
X121511507Y-95190000D01*
X121708493Y-95190000D01*
X121837290Y-95215619D01*
G37*
G36*
X140151000Y-96951000D02*
G01*
X137049000Y-96951000D01*
X137049000Y-96449000D01*
X140151000Y-96449000D01*
X140151000Y-96951000D01*
G37*
G36*
X140151000Y-96151000D02*
G01*
X137049000Y-96151000D01*
X137049000Y-95649000D01*
X140151000Y-95649000D01*
X140151000Y-96151000D01*
G37*
G36*
X140151000Y-95351000D02*
G01*
X137049000Y-95351000D01*
X137049000Y-94849000D01*
X140151000Y-94849000D01*
X140151000Y-95351000D01*
G37*
G36*
X178617290Y-92675619D02*
G01*
X178681689Y-92688429D01*
X178863678Y-92763811D01*
X179027463Y-92873249D01*
X179166751Y-93012537D01*
X179276189Y-93176322D01*
X179351571Y-93358311D01*
X179390000Y-93551509D01*
X179390000Y-93748491D01*
X179351571Y-93941689D01*
X179276189Y-94123678D01*
X179166751Y-94287463D01*
X179027463Y-94426751D01*
X178863678Y-94536189D01*
X178681689Y-94611571D01*
X178617290Y-94624381D01*
X178488493Y-94650000D01*
X178291507Y-94650000D01*
X178162710Y-94624381D01*
X178098311Y-94611571D01*
X177916322Y-94536189D01*
X177752537Y-94426751D01*
X177613249Y-94287463D01*
X177503811Y-94123678D01*
X177428429Y-93941689D01*
X177390000Y-93748491D01*
X177390000Y-93551509D01*
X177428429Y-93358311D01*
X177503811Y-93176322D01*
X177613249Y-93012537D01*
X177752537Y-92873249D01*
X177916322Y-92763811D01*
X178098311Y-92688429D01*
X178162710Y-92675619D01*
X178291507Y-92650000D01*
X178488493Y-92650000D01*
X178617290Y-92675619D01*
G37*
G36*
X176077290Y-92675619D02*
G01*
X176141689Y-92688429D01*
X176323678Y-92763811D01*
X176487463Y-92873249D01*
X176626751Y-93012537D01*
X176736189Y-93176322D01*
X176811571Y-93358311D01*
X176850000Y-93551509D01*
X176850000Y-93748491D01*
X176811571Y-93941689D01*
X176736189Y-94123678D01*
X176626751Y-94287463D01*
X176487463Y-94426751D01*
X176323678Y-94536189D01*
X176141689Y-94611571D01*
X176077290Y-94624381D01*
X175948493Y-94650000D01*
X175751507Y-94650000D01*
X175622710Y-94624381D01*
X175558311Y-94611571D01*
X175376322Y-94536189D01*
X175212537Y-94426751D01*
X175073249Y-94287463D01*
X174963811Y-94123678D01*
X174888429Y-93941689D01*
X174850000Y-93748491D01*
X174850000Y-93551509D01*
X174888429Y-93358311D01*
X174963811Y-93176322D01*
X175073249Y-93012537D01*
X175212537Y-92873249D01*
X175376322Y-92763811D01*
X175558311Y-92688429D01*
X175622710Y-92675619D01*
X175751507Y-92650000D01*
X175948493Y-92650000D01*
X176077290Y-92675619D01*
G37*
G36*
X124377290Y-92675619D02*
G01*
X124441689Y-92688429D01*
X124623678Y-92763811D01*
X124787463Y-92873249D01*
X124926751Y-93012537D01*
X125036189Y-93176322D01*
X125111571Y-93358311D01*
X125150000Y-93551509D01*
X125150000Y-93748491D01*
X125111571Y-93941689D01*
X125036189Y-94123678D01*
X124926751Y-94287463D01*
X124787463Y-94426751D01*
X124623678Y-94536189D01*
X124441689Y-94611571D01*
X124377290Y-94624381D01*
X124248493Y-94650000D01*
X124051507Y-94650000D01*
X123922710Y-94624381D01*
X123858311Y-94611571D01*
X123676322Y-94536189D01*
X123512537Y-94426751D01*
X123373249Y-94287463D01*
X123263811Y-94123678D01*
X123188429Y-93941689D01*
X123150000Y-93748491D01*
X123150000Y-93551509D01*
X123188429Y-93358311D01*
X123263811Y-93176322D01*
X123373249Y-93012537D01*
X123512537Y-92873249D01*
X123676322Y-92763811D01*
X123858311Y-92688429D01*
X123922710Y-92675619D01*
X124051507Y-92650000D01*
X124248493Y-92650000D01*
X124377290Y-92675619D01*
G37*
G36*
X121837290Y-92675619D02*
G01*
X121901689Y-92688429D01*
X122083678Y-92763811D01*
X122247463Y-92873249D01*
X122386751Y-93012537D01*
X122496189Y-93176322D01*
X122571571Y-93358311D01*
X122610000Y-93551509D01*
X122610000Y-93748491D01*
X122571571Y-93941689D01*
X122496189Y-94123678D01*
X122386751Y-94287463D01*
X122247463Y-94426751D01*
X122083678Y-94536189D01*
X121901689Y-94611571D01*
X121837290Y-94624381D01*
X121708493Y-94650000D01*
X121511507Y-94650000D01*
X121382710Y-94624381D01*
X121318311Y-94611571D01*
X121136322Y-94536189D01*
X120972537Y-94426751D01*
X120833249Y-94287463D01*
X120723811Y-94123678D01*
X120648429Y-93941689D01*
X120610000Y-93748491D01*
X120610000Y-93551509D01*
X120648429Y-93358311D01*
X120723811Y-93176322D01*
X120833249Y-93012537D01*
X120972537Y-92873249D01*
X121136322Y-92763811D01*
X121318311Y-92688429D01*
X121382710Y-92675619D01*
X121511507Y-92650000D01*
X121708493Y-92650000D01*
X121837290Y-92675619D01*
G37*
G36*
X140151000Y-94551000D02*
G01*
X137049000Y-94551000D01*
X137049000Y-94049000D01*
X140151000Y-94049000D01*
X140151000Y-94551000D01*
G37*
G36*
X140151000Y-93751000D02*
G01*
X137049000Y-93751000D01*
X137049000Y-93249000D01*
X140151000Y-93249000D01*
X140151000Y-93751000D01*
G37*
G36*
X140151000Y-92951000D02*
G01*
X137049000Y-92951000D01*
X137049000Y-92449000D01*
X140151000Y-92449000D01*
X140151000Y-92951000D01*
G37*
G36*
X140151000Y-92151000D02*
G01*
X137049000Y-92151000D01*
X137049000Y-91649000D01*
X140151000Y-91649000D01*
X140151000Y-92151000D01*
G37*
G36*
X178617290Y-90135619D02*
G01*
X178681689Y-90148429D01*
X178863678Y-90223811D01*
X179027463Y-90333249D01*
X179166751Y-90472537D01*
X179276189Y-90636322D01*
X179351571Y-90818311D01*
X179390000Y-91011509D01*
X179390000Y-91208491D01*
X179351571Y-91401689D01*
X179276189Y-91583678D01*
X179166751Y-91747463D01*
X179027463Y-91886751D01*
X178863678Y-91996189D01*
X178681689Y-92071571D01*
X178617290Y-92084381D01*
X178488493Y-92110000D01*
X178291507Y-92110000D01*
X178162710Y-92084381D01*
X178098311Y-92071571D01*
X177916322Y-91996189D01*
X177752537Y-91886751D01*
X177613249Y-91747463D01*
X177503811Y-91583678D01*
X177428429Y-91401689D01*
X177390000Y-91208491D01*
X177390000Y-91011509D01*
X177428429Y-90818311D01*
X177503811Y-90636322D01*
X177613249Y-90472537D01*
X177752537Y-90333249D01*
X177916322Y-90223811D01*
X178098311Y-90148429D01*
X178162710Y-90135619D01*
X178291507Y-90110000D01*
X178488493Y-90110000D01*
X178617290Y-90135619D01*
G37*
G36*
X176077290Y-90135619D02*
G01*
X176141689Y-90148429D01*
X176323678Y-90223811D01*
X176487463Y-90333249D01*
X176626751Y-90472537D01*
X176736189Y-90636322D01*
X176811571Y-90818311D01*
X176850000Y-91011509D01*
X176850000Y-91208491D01*
X176811571Y-91401689D01*
X176736189Y-91583678D01*
X176626751Y-91747463D01*
X176487463Y-91886751D01*
X176323678Y-91996189D01*
X176141689Y-92071571D01*
X176077290Y-92084381D01*
X175948493Y-92110000D01*
X175751507Y-92110000D01*
X175622710Y-92084381D01*
X175558311Y-92071571D01*
X175376322Y-91996189D01*
X175212537Y-91886751D01*
X175073249Y-91747463D01*
X174963811Y-91583678D01*
X174888429Y-91401689D01*
X174850000Y-91208491D01*
X174850000Y-91011509D01*
X174888429Y-90818311D01*
X174963811Y-90636322D01*
X175073249Y-90472537D01*
X175212537Y-90333249D01*
X175376322Y-90223811D01*
X175558311Y-90148429D01*
X175622710Y-90135619D01*
X175751507Y-90110000D01*
X175948493Y-90110000D01*
X176077290Y-90135619D01*
G37*
G36*
X124377290Y-90135619D02*
G01*
X124441689Y-90148429D01*
X124623678Y-90223811D01*
X124787463Y-90333249D01*
X124926751Y-90472537D01*
X125036189Y-90636322D01*
X125111571Y-90818311D01*
X125150000Y-91011509D01*
X125150000Y-91208491D01*
X125111571Y-91401689D01*
X125036189Y-91583678D01*
X124926751Y-91747463D01*
X124787463Y-91886751D01*
X124623678Y-91996189D01*
X124441689Y-92071571D01*
X124377290Y-92084381D01*
X124248493Y-92110000D01*
X124051507Y-92110000D01*
X123922710Y-92084381D01*
X123858311Y-92071571D01*
X123676322Y-91996189D01*
X123512537Y-91886751D01*
X123373249Y-91747463D01*
X123263811Y-91583678D01*
X123188429Y-91401689D01*
X123150000Y-91208491D01*
X123150000Y-91011509D01*
X123188429Y-90818311D01*
X123263811Y-90636322D01*
X123373249Y-90472537D01*
X123512537Y-90333249D01*
X123676322Y-90223811D01*
X123858311Y-90148429D01*
X123922710Y-90135619D01*
X124051507Y-90110000D01*
X124248493Y-90110000D01*
X124377290Y-90135619D01*
G37*
G36*
X121837290Y-90135619D02*
G01*
X121901689Y-90148429D01*
X122083678Y-90223811D01*
X122247463Y-90333249D01*
X122386751Y-90472537D01*
X122496189Y-90636322D01*
X122571571Y-90818311D01*
X122610000Y-91011509D01*
X122610000Y-91208491D01*
X122571571Y-91401689D01*
X122496189Y-91583678D01*
X122386751Y-91747463D01*
X122247463Y-91886751D01*
X122083678Y-91996189D01*
X121901689Y-92071571D01*
X121837290Y-92084381D01*
X121708493Y-92110000D01*
X121511507Y-92110000D01*
X121382710Y-92084381D01*
X121318311Y-92071571D01*
X121136322Y-91996189D01*
X120972537Y-91886751D01*
X120833249Y-91747463D01*
X120723811Y-91583678D01*
X120648429Y-91401689D01*
X120610000Y-91208491D01*
X120610000Y-91011509D01*
X120648429Y-90818311D01*
X120723811Y-90636322D01*
X120833249Y-90472537D01*
X120972537Y-90333249D01*
X121136322Y-90223811D01*
X121318311Y-90148429D01*
X121382710Y-90135619D01*
X121511507Y-90110000D01*
X121708493Y-90110000D01*
X121837290Y-90135619D01*
G37*
G36*
X140151000Y-91351000D02*
G01*
X137049000Y-91351000D01*
X137049000Y-90849000D01*
X140151000Y-90849000D01*
X140151000Y-91351000D01*
G37*
G36*
X140151000Y-90551000D02*
G01*
X137049000Y-90551000D01*
X137049000Y-90049000D01*
X140151000Y-90049000D01*
X140151000Y-90551000D01*
G37*
G36*
X140151000Y-89751000D02*
G01*
X137049000Y-89751000D01*
X137049000Y-89249000D01*
X140151000Y-89249000D01*
X140151000Y-89751000D01*
G37*
G36*
X121837290Y-87595619D02*
G01*
X121901689Y-87608429D01*
X122083678Y-87683811D01*
X122247463Y-87793249D01*
X122386751Y-87932537D01*
X122496189Y-88096322D01*
X122571571Y-88278311D01*
X122610000Y-88471509D01*
X122610000Y-88668491D01*
X122571571Y-88861689D01*
X122496189Y-89043678D01*
X122386751Y-89207463D01*
X122247463Y-89346751D01*
X122083678Y-89456189D01*
X121901689Y-89531571D01*
X121837290Y-89544381D01*
X121708493Y-89570000D01*
X121511507Y-89570000D01*
X121382710Y-89544381D01*
X121318311Y-89531571D01*
X121136322Y-89456189D01*
X120972537Y-89346751D01*
X120833249Y-89207463D01*
X120723811Y-89043678D01*
X120648429Y-88861689D01*
X120610000Y-88668491D01*
X120610000Y-88471509D01*
X120648429Y-88278311D01*
X120723811Y-88096322D01*
X120833249Y-87932537D01*
X120972537Y-87793249D01*
X121136322Y-87683811D01*
X121318311Y-87608429D01*
X121382710Y-87595619D01*
X121511507Y-87570000D01*
X121708493Y-87570000D01*
X121837290Y-87595619D01*
G37*
G36*
X124377290Y-87595619D02*
G01*
X124441689Y-87608429D01*
X124623678Y-87683811D01*
X124787463Y-87793249D01*
X124926751Y-87932537D01*
X125036189Y-88096322D01*
X125111571Y-88278311D01*
X125150000Y-88471509D01*
X125150000Y-88668491D01*
X125111571Y-88861689D01*
X125036189Y-89043678D01*
X124926751Y-89207463D01*
X124787463Y-89346751D01*
X124623678Y-89456189D01*
X124441689Y-89531571D01*
X124377290Y-89544381D01*
X124248493Y-89570000D01*
X124051507Y-89570000D01*
X123922710Y-89544381D01*
X123858311Y-89531571D01*
X123676322Y-89456189D01*
X123512537Y-89346751D01*
X123373249Y-89207463D01*
X123263811Y-89043678D01*
X123188429Y-88861689D01*
X123150000Y-88668491D01*
X123150000Y-88471509D01*
X123188429Y-88278311D01*
X123263811Y-88096322D01*
X123373249Y-87932537D01*
X123512537Y-87793249D01*
X123676322Y-87683811D01*
X123858311Y-87608429D01*
X123922710Y-87595619D01*
X124051507Y-87570000D01*
X124248493Y-87570000D01*
X124377290Y-87595619D01*
G37*
G36*
X176077290Y-87595619D02*
G01*
X176141689Y-87608429D01*
X176323678Y-87683811D01*
X176487463Y-87793249D01*
X176626751Y-87932537D01*
X176736189Y-88096322D01*
X176811571Y-88278311D01*
X176850000Y-88471509D01*
X176850000Y-88668491D01*
X176811571Y-88861689D01*
X176736189Y-89043678D01*
X176626751Y-89207463D01*
X176487463Y-89346751D01*
X176323678Y-89456189D01*
X176141689Y-89531571D01*
X176077290Y-89544381D01*
X175948493Y-89570000D01*
X175751507Y-89570000D01*
X175622710Y-89544381D01*
X175558311Y-89531571D01*
X175376322Y-89456189D01*
X175212537Y-89346751D01*
X175073249Y-89207463D01*
X174963811Y-89043678D01*
X174888429Y-88861689D01*
X174850000Y-88668491D01*
X174850000Y-88471509D01*
X174888429Y-88278311D01*
X174963811Y-88096322D01*
X175073249Y-87932537D01*
X175212537Y-87793249D01*
X175376322Y-87683811D01*
X175558311Y-87608429D01*
X175622710Y-87595619D01*
X175751507Y-87570000D01*
X175948493Y-87570000D01*
X176077290Y-87595619D01*
G37*
G36*
X178617290Y-87595619D02*
G01*
X178681689Y-87608429D01*
X178863678Y-87683811D01*
X179027463Y-87793249D01*
X179166751Y-87932537D01*
X179276189Y-88096322D01*
X179351571Y-88278311D01*
X179390000Y-88471509D01*
X179390000Y-88668491D01*
X179351571Y-88861689D01*
X179276189Y-89043678D01*
X179166751Y-89207463D01*
X179027463Y-89346751D01*
X178863678Y-89456189D01*
X178681689Y-89531571D01*
X178617290Y-89544381D01*
X178488493Y-89570000D01*
X178291507Y-89570000D01*
X178162710Y-89544381D01*
X178098311Y-89531571D01*
X177916322Y-89456189D01*
X177752537Y-89346751D01*
X177613249Y-89207463D01*
X177503811Y-89043678D01*
X177428429Y-88861689D01*
X177390000Y-88668491D01*
X177390000Y-88471509D01*
X177428429Y-88278311D01*
X177503811Y-88096322D01*
X177613249Y-87932537D01*
X177752537Y-87793249D01*
X177916322Y-87683811D01*
X178098311Y-87608429D01*
X178162710Y-87595619D01*
X178291507Y-87570000D01*
X178488493Y-87570000D01*
X178617290Y-87595619D01*
G37*
G36*
X140151000Y-88951000D02*
G01*
X137049000Y-88951000D01*
X137049000Y-88449000D01*
X140151000Y-88449000D01*
X140151000Y-88951000D01*
G37*
G36*
X140151000Y-88151000D02*
G01*
X137049000Y-88151000D01*
X137049000Y-87649000D01*
X140151000Y-87649000D01*
X140151000Y-88151000D01*
G37*
G36*
X140151000Y-87351000D02*
G01*
X137049000Y-87351000D01*
X137049000Y-86849000D01*
X140151000Y-86849000D01*
X140151000Y-87351000D01*
G37*
G36*
X178617290Y-85055619D02*
G01*
X178681689Y-85068429D01*
X178863678Y-85143811D01*
X179027463Y-85253249D01*
X179166751Y-85392537D01*
X179276189Y-85556322D01*
X179351571Y-85738311D01*
X179390000Y-85931509D01*
X179390000Y-86128491D01*
X179351571Y-86321689D01*
X179276189Y-86503678D01*
X179166751Y-86667463D01*
X179027463Y-86806751D01*
X178863678Y-86916189D01*
X178681689Y-86991571D01*
X178617290Y-87004381D01*
X178488493Y-87030000D01*
X178291507Y-87030000D01*
X178162710Y-87004381D01*
X178098311Y-86991571D01*
X177916322Y-86916189D01*
X177752537Y-86806751D01*
X177613249Y-86667463D01*
X177503811Y-86503678D01*
X177428429Y-86321689D01*
X177390000Y-86128491D01*
X177390000Y-85931509D01*
X177428429Y-85738311D01*
X177503811Y-85556322D01*
X177613249Y-85392537D01*
X177752537Y-85253249D01*
X177916322Y-85143811D01*
X178098311Y-85068429D01*
X178162710Y-85055619D01*
X178291507Y-85030000D01*
X178488493Y-85030000D01*
X178617290Y-85055619D01*
G37*
G36*
X176077290Y-85055619D02*
G01*
X176141689Y-85068429D01*
X176323678Y-85143811D01*
X176487463Y-85253249D01*
X176626751Y-85392537D01*
X176736189Y-85556322D01*
X176811571Y-85738311D01*
X176850000Y-85931509D01*
X176850000Y-86128491D01*
X176811571Y-86321689D01*
X176736189Y-86503678D01*
X176626751Y-86667463D01*
X176487463Y-86806751D01*
X176323678Y-86916189D01*
X176141689Y-86991571D01*
X176077290Y-87004381D01*
X175948493Y-87030000D01*
X175751507Y-87030000D01*
X175622710Y-87004381D01*
X175558311Y-86991571D01*
X175376322Y-86916189D01*
X175212537Y-86806751D01*
X175073249Y-86667463D01*
X174963811Y-86503678D01*
X174888429Y-86321689D01*
X174850000Y-86128491D01*
X174850000Y-85931509D01*
X174888429Y-85738311D01*
X174963811Y-85556322D01*
X175073249Y-85392537D01*
X175212537Y-85253249D01*
X175376322Y-85143811D01*
X175558311Y-85068429D01*
X175622710Y-85055619D01*
X175751507Y-85030000D01*
X175948493Y-85030000D01*
X176077290Y-85055619D01*
G37*
G36*
X124377290Y-85055619D02*
G01*
X124441689Y-85068429D01*
X124623678Y-85143811D01*
X124787463Y-85253249D01*
X124926751Y-85392537D01*
X125036189Y-85556322D01*
X125111571Y-85738311D01*
X125150000Y-85931509D01*
X125150000Y-86128491D01*
X125111571Y-86321689D01*
X125036189Y-86503678D01*
X124926751Y-86667463D01*
X124787463Y-86806751D01*
X124623678Y-86916189D01*
X124441689Y-86991571D01*
X124377290Y-87004381D01*
X124248493Y-87030000D01*
X124051507Y-87030000D01*
X123922710Y-87004381D01*
X123858311Y-86991571D01*
X123676322Y-86916189D01*
X123512537Y-86806751D01*
X123373249Y-86667463D01*
X123263811Y-86503678D01*
X123188429Y-86321689D01*
X123150000Y-86128491D01*
X123150000Y-85931509D01*
X123188429Y-85738311D01*
X123263811Y-85556322D01*
X123373249Y-85392537D01*
X123512537Y-85253249D01*
X123676322Y-85143811D01*
X123858311Y-85068429D01*
X123922710Y-85055619D01*
X124051507Y-85030000D01*
X124248493Y-85030000D01*
X124377290Y-85055619D01*
G37*
G36*
X121837290Y-85055619D02*
G01*
X121901689Y-85068429D01*
X122083678Y-85143811D01*
X122247463Y-85253249D01*
X122386751Y-85392537D01*
X122496189Y-85556322D01*
X122571571Y-85738311D01*
X122610000Y-85931509D01*
X122610000Y-86128491D01*
X122571571Y-86321689D01*
X122496189Y-86503678D01*
X122386751Y-86667463D01*
X122247463Y-86806751D01*
X122083678Y-86916189D01*
X121901689Y-86991571D01*
X121837290Y-87004381D01*
X121708493Y-87030000D01*
X121511507Y-87030000D01*
X121382710Y-87004381D01*
X121318311Y-86991571D01*
X121136322Y-86916189D01*
X120972537Y-86806751D01*
X120833249Y-86667463D01*
X120723811Y-86503678D01*
X120648429Y-86321689D01*
X120610000Y-86128491D01*
X120610000Y-85931509D01*
X120648429Y-85738311D01*
X120723811Y-85556322D01*
X120833249Y-85392537D01*
X120972537Y-85253249D01*
X121136322Y-85143811D01*
X121318311Y-85068429D01*
X121382710Y-85055619D01*
X121511507Y-85030000D01*
X121708493Y-85030000D01*
X121837290Y-85055619D01*
G37*
G36*
X140151000Y-86551000D02*
G01*
X137049000Y-86551000D01*
X137049000Y-86049000D01*
X140151000Y-86049000D01*
X140151000Y-86551000D01*
G37*
G36*
X124377290Y-82515619D02*
G01*
X124441689Y-82528429D01*
X124623678Y-82603811D01*
X124787463Y-82713249D01*
X124926751Y-82852537D01*
X125036189Y-83016322D01*
X125111571Y-83198311D01*
X125150000Y-83391509D01*
X125150000Y-83588491D01*
X125111571Y-83781689D01*
X125036189Y-83963678D01*
X124926751Y-84127463D01*
X124787463Y-84266751D01*
X124623678Y-84376189D01*
X124441689Y-84451571D01*
X124377290Y-84464381D01*
X124248493Y-84490000D01*
X124051507Y-84490000D01*
X123922710Y-84464381D01*
X123858311Y-84451571D01*
X123676322Y-84376189D01*
X123512537Y-84266751D01*
X123373249Y-84127463D01*
X123263811Y-83963678D01*
X123188429Y-83781689D01*
X123150000Y-83588491D01*
X123150000Y-83391509D01*
X123188429Y-83198311D01*
X123263811Y-83016322D01*
X123373249Y-82852537D01*
X123512537Y-82713249D01*
X123676322Y-82603811D01*
X123858311Y-82528429D01*
X123922710Y-82515619D01*
X124051507Y-82490000D01*
X124248493Y-82490000D01*
X124377290Y-82515619D01*
G37*
G36*
X178617290Y-82515619D02*
G01*
X178681689Y-82528429D01*
X178863678Y-82603811D01*
X179027463Y-82713249D01*
X179166751Y-82852537D01*
X179276189Y-83016322D01*
X179351571Y-83198311D01*
X179390000Y-83391509D01*
X179390000Y-83588491D01*
X179351571Y-83781689D01*
X179276189Y-83963678D01*
X179166751Y-84127463D01*
X179027463Y-84266751D01*
X178863678Y-84376189D01*
X178681689Y-84451571D01*
X178617290Y-84464381D01*
X178488493Y-84490000D01*
X178291507Y-84490000D01*
X178162710Y-84464381D01*
X178098311Y-84451571D01*
X177916322Y-84376189D01*
X177752537Y-84266751D01*
X177613249Y-84127463D01*
X177503811Y-83963678D01*
X177428429Y-83781689D01*
X177390000Y-83588491D01*
X177390000Y-83391509D01*
X177428429Y-83198311D01*
X177503811Y-83016322D01*
X177613249Y-82852537D01*
X177752537Y-82713249D01*
X177916322Y-82603811D01*
X178098311Y-82528429D01*
X178162710Y-82515619D01*
X178291507Y-82490000D01*
X178488493Y-82490000D01*
X178617290Y-82515619D01*
G37*
G36*
X176077290Y-82515619D02*
G01*
X176141689Y-82528429D01*
X176323678Y-82603811D01*
X176487463Y-82713249D01*
X176626751Y-82852537D01*
X176736189Y-83016322D01*
X176811571Y-83198311D01*
X176850000Y-83391509D01*
X176850000Y-83588491D01*
X176811571Y-83781689D01*
X176736189Y-83963678D01*
X176626751Y-84127463D01*
X176487463Y-84266751D01*
X176323678Y-84376189D01*
X176141689Y-84451571D01*
X176077290Y-84464381D01*
X175948493Y-84490000D01*
X175751507Y-84490000D01*
X175622710Y-84464381D01*
X175558311Y-84451571D01*
X175376322Y-84376189D01*
X175212537Y-84266751D01*
X175073249Y-84127463D01*
X174963811Y-83963678D01*
X174888429Y-83781689D01*
X174850000Y-83588491D01*
X174850000Y-83391509D01*
X174888429Y-83198311D01*
X174963811Y-83016322D01*
X175073249Y-82852537D01*
X175212537Y-82713249D01*
X175376322Y-82603811D01*
X175558311Y-82528429D01*
X175622710Y-82515619D01*
X175751507Y-82490000D01*
X175948493Y-82490000D01*
X176077290Y-82515619D01*
G37*
G36*
X121837290Y-82515619D02*
G01*
X121901689Y-82528429D01*
X122083678Y-82603811D01*
X122247463Y-82713249D01*
X122386751Y-82852537D01*
X122496189Y-83016322D01*
X122571571Y-83198311D01*
X122610000Y-83391509D01*
X122610000Y-83588491D01*
X122571571Y-83781689D01*
X122496189Y-83963678D01*
X122386751Y-84127463D01*
X122247463Y-84266751D01*
X122083678Y-84376189D01*
X121901689Y-84451571D01*
X121837290Y-84464381D01*
X121708493Y-84490000D01*
X121511507Y-84490000D01*
X121382710Y-84464381D01*
X121318311Y-84451571D01*
X121136322Y-84376189D01*
X120972537Y-84266751D01*
X120833249Y-84127463D01*
X120723811Y-83963678D01*
X120648429Y-83781689D01*
X120610000Y-83588491D01*
X120610000Y-83391509D01*
X120648429Y-83198311D01*
X120723811Y-83016322D01*
X120833249Y-82852537D01*
X120972537Y-82713249D01*
X121136322Y-82603811D01*
X121318311Y-82528429D01*
X121382710Y-82515619D01*
X121511507Y-82490000D01*
X121708493Y-82490000D01*
X121837290Y-82515619D01*
G37*
G36*
X176077290Y-79975619D02*
G01*
X176141689Y-79988429D01*
X176323678Y-80063811D01*
X176487463Y-80173249D01*
X176626751Y-80312537D01*
X176736189Y-80476322D01*
X176811571Y-80658311D01*
X176850000Y-80851509D01*
X176850000Y-81048491D01*
X176811571Y-81241689D01*
X176736189Y-81423678D01*
X176626751Y-81587463D01*
X176487463Y-81726751D01*
X176323678Y-81836189D01*
X176141689Y-81911571D01*
X176077290Y-81924381D01*
X175948493Y-81950000D01*
X175751507Y-81950000D01*
X175622710Y-81924381D01*
X175558311Y-81911571D01*
X175376322Y-81836189D01*
X175212537Y-81726751D01*
X175073249Y-81587463D01*
X174963811Y-81423678D01*
X174888429Y-81241689D01*
X174850000Y-81048491D01*
X174850000Y-80851509D01*
X174888429Y-80658311D01*
X174963811Y-80476322D01*
X175073249Y-80312537D01*
X175212537Y-80173249D01*
X175376322Y-80063811D01*
X175558311Y-79988429D01*
X175622710Y-79975619D01*
X175751507Y-79950000D01*
X175948493Y-79950000D01*
X176077290Y-79975619D01*
G37*
G36*
X178617290Y-79975619D02*
G01*
X178681689Y-79988429D01*
X178863678Y-80063811D01*
X179027463Y-80173249D01*
X179166751Y-80312537D01*
X179276189Y-80476322D01*
X179351571Y-80658311D01*
X179390000Y-80851509D01*
X179390000Y-81048491D01*
X179351571Y-81241689D01*
X179276189Y-81423678D01*
X179166751Y-81587463D01*
X179027463Y-81726751D01*
X178863678Y-81836189D01*
X178681689Y-81911571D01*
X178617290Y-81924381D01*
X178488493Y-81950000D01*
X178291507Y-81950000D01*
X178162710Y-81924381D01*
X178098311Y-81911571D01*
X177916322Y-81836189D01*
X177752537Y-81726751D01*
X177613249Y-81587463D01*
X177503811Y-81423678D01*
X177428429Y-81241689D01*
X177390000Y-81048491D01*
X177390000Y-80851509D01*
X177428429Y-80658311D01*
X177503811Y-80476322D01*
X177613249Y-80312537D01*
X177752537Y-80173249D01*
X177916322Y-80063811D01*
X178098311Y-79988429D01*
X178162710Y-79975619D01*
X178291507Y-79950000D01*
X178488493Y-79950000D01*
X178617290Y-79975619D01*
G37*
G36*
X121837290Y-79975619D02*
G01*
X121901689Y-79988429D01*
X122083678Y-80063811D01*
X122247463Y-80173249D01*
X122386751Y-80312537D01*
X122496189Y-80476322D01*
X122571571Y-80658311D01*
X122610000Y-80851509D01*
X122610000Y-81048491D01*
X122571571Y-81241689D01*
X122496189Y-81423678D01*
X122386751Y-81587463D01*
X122247463Y-81726751D01*
X122083678Y-81836189D01*
X121901689Y-81911571D01*
X121837290Y-81924381D01*
X121708493Y-81950000D01*
X121511507Y-81950000D01*
X121382710Y-81924381D01*
X121318311Y-81911571D01*
X121136322Y-81836189D01*
X120972537Y-81726751D01*
X120833249Y-81587463D01*
X120723811Y-81423678D01*
X120648429Y-81241689D01*
X120610000Y-81048491D01*
X120610000Y-80851509D01*
X120648429Y-80658311D01*
X120723811Y-80476322D01*
X120833249Y-80312537D01*
X120972537Y-80173249D01*
X121136322Y-80063811D01*
X121318311Y-79988429D01*
X121382710Y-79975619D01*
X121511507Y-79950000D01*
X121708493Y-79950000D01*
X121837290Y-79975619D01*
G37*
G36*
X124377290Y-79975619D02*
G01*
X124441689Y-79988429D01*
X124623678Y-80063811D01*
X124787463Y-80173249D01*
X124926751Y-80312537D01*
X125036189Y-80476322D01*
X125111571Y-80658311D01*
X125150000Y-80851509D01*
X125150000Y-81048491D01*
X125111571Y-81241689D01*
X125036189Y-81423678D01*
X124926751Y-81587463D01*
X124787463Y-81726751D01*
X124623678Y-81836189D01*
X124441689Y-81911571D01*
X124377290Y-81924381D01*
X124248493Y-81950000D01*
X124051507Y-81950000D01*
X123922710Y-81924381D01*
X123858311Y-81911571D01*
X123676322Y-81836189D01*
X123512537Y-81726751D01*
X123373249Y-81587463D01*
X123263811Y-81423678D01*
X123188429Y-81241689D01*
X123150000Y-81048491D01*
X123150000Y-80851509D01*
X123188429Y-80658311D01*
X123263811Y-80476322D01*
X123373249Y-80312537D01*
X123512537Y-80173249D01*
X123676322Y-80063811D01*
X123858311Y-79988429D01*
X123922710Y-79975619D01*
X124051507Y-79950000D01*
X124248493Y-79950000D01*
X124377290Y-79975619D01*
G37*
G36*
X176077290Y-77435619D02*
G01*
X176141689Y-77448429D01*
X176323678Y-77523811D01*
X176487463Y-77633249D01*
X176626751Y-77772537D01*
X176736189Y-77936322D01*
X176811571Y-78118311D01*
X176850000Y-78311509D01*
X176850000Y-78508491D01*
X176811571Y-78701689D01*
X176736189Y-78883678D01*
X176626751Y-79047463D01*
X176487463Y-79186751D01*
X176323678Y-79296189D01*
X176141689Y-79371571D01*
X176077290Y-79384381D01*
X175948493Y-79410000D01*
X175751507Y-79410000D01*
X175622710Y-79384381D01*
X175558311Y-79371571D01*
X175376322Y-79296189D01*
X175212537Y-79186751D01*
X175073249Y-79047463D01*
X174963811Y-78883678D01*
X174888429Y-78701689D01*
X174850000Y-78508491D01*
X174850000Y-78311509D01*
X174888429Y-78118311D01*
X174963811Y-77936322D01*
X175073249Y-77772537D01*
X175212537Y-77633249D01*
X175376322Y-77523811D01*
X175558311Y-77448429D01*
X175622710Y-77435619D01*
X175751507Y-77410000D01*
X175948493Y-77410000D01*
X176077290Y-77435619D01*
G37*
G36*
X178617290Y-77435619D02*
G01*
X178681689Y-77448429D01*
X178863678Y-77523811D01*
X179027463Y-77633249D01*
X179166751Y-77772537D01*
X179276189Y-77936322D01*
X179351571Y-78118311D01*
X179390000Y-78311509D01*
X179390000Y-78508491D01*
X179351571Y-78701689D01*
X179276189Y-78883678D01*
X179166751Y-79047463D01*
X179027463Y-79186751D01*
X178863678Y-79296189D01*
X178681689Y-79371571D01*
X178617290Y-79384381D01*
X178488493Y-79410000D01*
X178291507Y-79410000D01*
X178162710Y-79384381D01*
X178098311Y-79371571D01*
X177916322Y-79296189D01*
X177752537Y-79186751D01*
X177613249Y-79047463D01*
X177503811Y-78883678D01*
X177428429Y-78701689D01*
X177390000Y-78508491D01*
X177390000Y-78311509D01*
X177428429Y-78118311D01*
X177503811Y-77936322D01*
X177613249Y-77772537D01*
X177752537Y-77633249D01*
X177916322Y-77523811D01*
X178098311Y-77448429D01*
X178162710Y-77435619D01*
X178291507Y-77410000D01*
X178488493Y-77410000D01*
X178617290Y-77435619D01*
G37*
G36*
X124377290Y-77435619D02*
G01*
X124441689Y-77448429D01*
X124623678Y-77523811D01*
X124787463Y-77633249D01*
X124926751Y-77772537D01*
X125036189Y-77936322D01*
X125111571Y-78118311D01*
X125150000Y-78311509D01*
X125150000Y-78508491D01*
X125111571Y-78701689D01*
X125036189Y-78883678D01*
X124926751Y-79047463D01*
X124787463Y-79186751D01*
X124623678Y-79296189D01*
X124441689Y-79371571D01*
X124377290Y-79384381D01*
X124248493Y-79410000D01*
X124051507Y-79410000D01*
X123922710Y-79384381D01*
X123858311Y-79371571D01*
X123676322Y-79296189D01*
X123512537Y-79186751D01*
X123373249Y-79047463D01*
X123263811Y-78883678D01*
X123188429Y-78701689D01*
X123150000Y-78508491D01*
X123150000Y-78311509D01*
X123188429Y-78118311D01*
X123263811Y-77936322D01*
X123373249Y-77772537D01*
X123512537Y-77633249D01*
X123676322Y-77523811D01*
X123858311Y-77448429D01*
X123922710Y-77435619D01*
X124051507Y-77410000D01*
X124248493Y-77410000D01*
X124377290Y-77435619D01*
G37*
G36*
X121837290Y-77435619D02*
G01*
X121901689Y-77448429D01*
X122083678Y-77523811D01*
X122247463Y-77633249D01*
X122386751Y-77772537D01*
X122496189Y-77936322D01*
X122571571Y-78118311D01*
X122610000Y-78311509D01*
X122610000Y-78508491D01*
X122571571Y-78701689D01*
X122496189Y-78883678D01*
X122386751Y-79047463D01*
X122247463Y-79186751D01*
X122083678Y-79296189D01*
X121901689Y-79371571D01*
X121837290Y-79384381D01*
X121708493Y-79410000D01*
X121511507Y-79410000D01*
X121382710Y-79384381D01*
X121318311Y-79371571D01*
X121136322Y-79296189D01*
X120972537Y-79186751D01*
X120833249Y-79047463D01*
X120723811Y-78883678D01*
X120648429Y-78701689D01*
X120610000Y-78508491D01*
X120610000Y-78311509D01*
X120648429Y-78118311D01*
X120723811Y-77936322D01*
X120833249Y-77772537D01*
X120972537Y-77633249D01*
X121136322Y-77523811D01*
X121318311Y-77448429D01*
X121382710Y-77435619D01*
X121511507Y-77410000D01*
X121708493Y-77410000D01*
X121837290Y-77435619D01*
G37*
G36*
X178617290Y-74895619D02*
G01*
X178681689Y-74908429D01*
X178863678Y-74983811D01*
X179027463Y-75093249D01*
X179166751Y-75232537D01*
X179276189Y-75396322D01*
X179351571Y-75578311D01*
X179390000Y-75771509D01*
X179390000Y-75968491D01*
X179351571Y-76161689D01*
X179276189Y-76343678D01*
X179166751Y-76507463D01*
X179027463Y-76646751D01*
X178863678Y-76756189D01*
X178681689Y-76831571D01*
X178617290Y-76844381D01*
X178488493Y-76870000D01*
X178291507Y-76870000D01*
X178162710Y-76844381D01*
X178098311Y-76831571D01*
X177916322Y-76756189D01*
X177752537Y-76646751D01*
X177613249Y-76507463D01*
X177503811Y-76343678D01*
X177428429Y-76161689D01*
X177390000Y-75968491D01*
X177390000Y-75771509D01*
X177428429Y-75578311D01*
X177503811Y-75396322D01*
X177613249Y-75232537D01*
X177752537Y-75093249D01*
X177916322Y-74983811D01*
X178098311Y-74908429D01*
X178162710Y-74895619D01*
X178291507Y-74870000D01*
X178488493Y-74870000D01*
X178617290Y-74895619D01*
G37*
G36*
X124377290Y-74895619D02*
G01*
X124441689Y-74908429D01*
X124623678Y-74983811D01*
X124787463Y-75093249D01*
X124926751Y-75232537D01*
X125036189Y-75396322D01*
X125111571Y-75578311D01*
X125150000Y-75771509D01*
X125150000Y-75968491D01*
X125111571Y-76161689D01*
X125036189Y-76343678D01*
X124926751Y-76507463D01*
X124787463Y-76646751D01*
X124623678Y-76756189D01*
X124441689Y-76831571D01*
X124377290Y-76844381D01*
X124248493Y-76870000D01*
X124051507Y-76870000D01*
X123922710Y-76844381D01*
X123858311Y-76831571D01*
X123676322Y-76756189D01*
X123512537Y-76646751D01*
X123373249Y-76507463D01*
X123263811Y-76343678D01*
X123188429Y-76161689D01*
X123150000Y-75968491D01*
X123150000Y-75771509D01*
X123188429Y-75578311D01*
X123263811Y-75396322D01*
X123373249Y-75232537D01*
X123512537Y-75093249D01*
X123676322Y-74983811D01*
X123858311Y-74908429D01*
X123922710Y-74895619D01*
X124051507Y-74870000D01*
X124248493Y-74870000D01*
X124377290Y-74895619D01*
G37*
G36*
X121837290Y-74895619D02*
G01*
X121901689Y-74908429D01*
X122083678Y-74983811D01*
X122247463Y-75093249D01*
X122386751Y-75232537D01*
X122496189Y-75396322D01*
X122571571Y-75578311D01*
X122610000Y-75771509D01*
X122610000Y-75968491D01*
X122571571Y-76161689D01*
X122496189Y-76343678D01*
X122386751Y-76507463D01*
X122247463Y-76646751D01*
X122083678Y-76756189D01*
X121901689Y-76831571D01*
X121837290Y-76844381D01*
X121708493Y-76870000D01*
X121511507Y-76870000D01*
X121382710Y-76844381D01*
X121318311Y-76831571D01*
X121136322Y-76756189D01*
X120972537Y-76646751D01*
X120833249Y-76507463D01*
X120723811Y-76343678D01*
X120648429Y-76161689D01*
X120610000Y-75968491D01*
X120610000Y-75771509D01*
X120648429Y-75578311D01*
X120723811Y-75396322D01*
X120833249Y-75232537D01*
X120972537Y-75093249D01*
X121136322Y-74983811D01*
X121318311Y-74908429D01*
X121382710Y-74895619D01*
X121511507Y-74870000D01*
X121708493Y-74870000D01*
X121837290Y-74895619D01*
G37*
G36*
X176077290Y-74895619D02*
G01*
X176141689Y-74908429D01*
X176323678Y-74983811D01*
X176487463Y-75093249D01*
X176626751Y-75232537D01*
X176736189Y-75396322D01*
X176811571Y-75578311D01*
X176850000Y-75771509D01*
X176850000Y-75968491D01*
X176811571Y-76161689D01*
X176736189Y-76343678D01*
X176626751Y-76507463D01*
X176487463Y-76646751D01*
X176323678Y-76756189D01*
X176141689Y-76831571D01*
X176077290Y-76844381D01*
X175948493Y-76870000D01*
X175751507Y-76870000D01*
X175622710Y-76844381D01*
X175558311Y-76831571D01*
X175376322Y-76756189D01*
X175212537Y-76646751D01*
X175073249Y-76507463D01*
X174963811Y-76343678D01*
X174888429Y-76161689D01*
X174850000Y-75968491D01*
X174850000Y-75771509D01*
X174888429Y-75578311D01*
X174963811Y-75396322D01*
X175073249Y-75232537D01*
X175212537Y-75093249D01*
X175376322Y-74983811D01*
X175558311Y-74908429D01*
X175622710Y-74895619D01*
X175751507Y-74870000D01*
X175948493Y-74870000D01*
X176077290Y-74895619D01*
G37*
G36*
X123345944Y-68792520D02*
G01*
X123477963Y-68818780D01*
X123851039Y-68973314D01*
X124186799Y-69197661D01*
X124472339Y-69483201D01*
X124696686Y-69818961D01*
X124812473Y-70098493D01*
X124851220Y-70192038D01*
X124930000Y-70588091D01*
X124930000Y-70991909D01*
X124915903Y-71062778D01*
X124851220Y-71387963D01*
X124696686Y-71761039D01*
X124472339Y-72096799D01*
X124186799Y-72382339D01*
X123851039Y-72606686D01*
X123477963Y-72761220D01*
X123345944Y-72787480D01*
X123081909Y-72840000D01*
X122678091Y-72840000D01*
X122414056Y-72787480D01*
X122282037Y-72761220D01*
X121908961Y-72606686D01*
X121573201Y-72382339D01*
X121287661Y-72096799D01*
X121063314Y-71761039D01*
X120908780Y-71387963D01*
X120844097Y-71062778D01*
X120830000Y-70991909D01*
X120830000Y-70588091D01*
X120908780Y-70192038D01*
X120947528Y-70098493D01*
X121063314Y-69818961D01*
X121287661Y-69483201D01*
X121573201Y-69197661D01*
X121908961Y-68973314D01*
X122282037Y-68818780D01*
X122414056Y-68792520D01*
X122678091Y-68740000D01*
X123081909Y-68740000D01*
X123345944Y-68792520D01*
G37*
G36*
X177585944Y-68792520D02*
G01*
X177717963Y-68818780D01*
X178091039Y-68973314D01*
X178426799Y-69197661D01*
X178712339Y-69483201D01*
X178936686Y-69818961D01*
X179052473Y-70098493D01*
X179091220Y-70192038D01*
X179170000Y-70588091D01*
X179170000Y-70991909D01*
X179155903Y-71062778D01*
X179091220Y-71387963D01*
X178936686Y-71761039D01*
X178712339Y-72096799D01*
X178426799Y-72382339D01*
X178091039Y-72606686D01*
X177717963Y-72761220D01*
X177585944Y-72787480D01*
X177321909Y-72840000D01*
X176918091Y-72840000D01*
X176654056Y-72787480D01*
X176522037Y-72761220D01*
X176148961Y-72606686D01*
X175813201Y-72382339D01*
X175527661Y-72096799D01*
X175303314Y-71761039D01*
X175148780Y-71387963D01*
X175084097Y-71062778D01*
X175070000Y-70991909D01*
X175070000Y-70588091D01*
X175148780Y-70192038D01*
X175187528Y-70098493D01*
X175303314Y-69818961D01*
X175527661Y-69483201D01*
X175813201Y-69197661D01*
X176148961Y-68973314D01*
X176522037Y-68818780D01*
X176654056Y-68792520D01*
X176918091Y-68740000D01*
X177321909Y-68740000D01*
X177585944Y-68792520D01*
G37*
G36*
X162137224Y-70510128D02*
G01*
X162269175Y-70550155D01*
X162390781Y-70615155D01*
X162497370Y-70702630D01*
X162584845Y-70809219D01*
X162649845Y-70930825D01*
X162689872Y-71062776D01*
X162703387Y-71200000D01*
X162689872Y-71337224D01*
X162649845Y-71469175D01*
X162584845Y-71590781D01*
X162497370Y-71697370D01*
X162390781Y-71784845D01*
X162269175Y-71849845D01*
X162137224Y-71889872D01*
X162034390Y-71900000D01*
X160965610Y-71900000D01*
X160862776Y-71889872D01*
X160730825Y-71849845D01*
X160609219Y-71784845D01*
X160502630Y-71697370D01*
X160415155Y-71590781D01*
X160350155Y-71469175D01*
X160310128Y-71337224D01*
X160296613Y-71200000D01*
X160310128Y-71062776D01*
X160350155Y-70930825D01*
X160415155Y-70809219D01*
X160502630Y-70702630D01*
X160609219Y-70615155D01*
X160730825Y-70550155D01*
X160862776Y-70510128D01*
X160965610Y-70500000D01*
X162034390Y-70500000D01*
X162137224Y-70510128D01*
G37*
G36*
X155137224Y-70510128D02*
G01*
X155269175Y-70550155D01*
X155390781Y-70615155D01*
X155497370Y-70702630D01*
X155584845Y-70809219D01*
X155649845Y-70930825D01*
X155689872Y-71062776D01*
X155703387Y-71200000D01*
X155689872Y-71337224D01*
X155649845Y-71469175D01*
X155584845Y-71590781D01*
X155497370Y-71697370D01*
X155390781Y-71784845D01*
X155269175Y-71849845D01*
X155137224Y-71889872D01*
X155034390Y-71900000D01*
X153965610Y-71900000D01*
X153862776Y-71889872D01*
X153730825Y-71849845D01*
X153609219Y-71784845D01*
X153502630Y-71697370D01*
X153415155Y-71590781D01*
X153350155Y-71469175D01*
X153310128Y-71337224D01*
X153296613Y-71200000D01*
X153310128Y-71062776D01*
X153350155Y-70930825D01*
X153415155Y-70809219D01*
X153502630Y-70702630D01*
X153609219Y-70615155D01*
X153730825Y-70550155D01*
X153862776Y-70510128D01*
X153965610Y-70500000D01*
X155034390Y-70500000D01*
X155137224Y-70510128D01*
G37*
G36*
X172617290Y-69025619D02*
G01*
X172681689Y-69038429D01*
X172863678Y-69113811D01*
X173027463Y-69223249D01*
X173166751Y-69362537D01*
X173276189Y-69526322D01*
X173306707Y-69600000D01*
X173351571Y-69708312D01*
X173373581Y-69818961D01*
X173390000Y-69901509D01*
X173390000Y-70098491D01*
X173351571Y-70291689D01*
X173276189Y-70473678D01*
X173166751Y-70637463D01*
X173027463Y-70776751D01*
X172863678Y-70886189D01*
X172681689Y-70961571D01*
X172617290Y-70974381D01*
X172488493Y-71000000D01*
X172291507Y-71000000D01*
X172162710Y-70974381D01*
X172098311Y-70961571D01*
X171916322Y-70886189D01*
X171752537Y-70776751D01*
X171613249Y-70637463D01*
X171503811Y-70473678D01*
X171428429Y-70291689D01*
X171390000Y-70098491D01*
X171390000Y-69901509D01*
X171406420Y-69818961D01*
X171428429Y-69708312D01*
X171473293Y-69600000D01*
X171503811Y-69526322D01*
X171613249Y-69362537D01*
X171752537Y-69223249D01*
X171916322Y-69113811D01*
X172098311Y-69038429D01*
X172162710Y-69025619D01*
X172291507Y-69000000D01*
X172488493Y-69000000D01*
X172617290Y-69025619D01*
G37*
G36*
X170077290Y-69025619D02*
G01*
X170141689Y-69038429D01*
X170323678Y-69113811D01*
X170487463Y-69223249D01*
X170626751Y-69362537D01*
X170736189Y-69526322D01*
X170766707Y-69600000D01*
X170811571Y-69708312D01*
X170833581Y-69818961D01*
X170850000Y-69901509D01*
X170850000Y-70098491D01*
X170811571Y-70291689D01*
X170736189Y-70473678D01*
X170626751Y-70637463D01*
X170487463Y-70776751D01*
X170323678Y-70886189D01*
X170141689Y-70961571D01*
X170077290Y-70974381D01*
X169948493Y-71000000D01*
X169751507Y-71000000D01*
X169622710Y-70974381D01*
X169558311Y-70961571D01*
X169376322Y-70886189D01*
X169212537Y-70776751D01*
X169073249Y-70637463D01*
X168963811Y-70473678D01*
X168888429Y-70291689D01*
X168850000Y-70098491D01*
X168850000Y-69901509D01*
X168866420Y-69818961D01*
X168888429Y-69708312D01*
X168933293Y-69600000D01*
X168963811Y-69526322D01*
X169073249Y-69362537D01*
X169212537Y-69223249D01*
X169376322Y-69113811D01*
X169558311Y-69038429D01*
X169622710Y-69025619D01*
X169751507Y-69000000D01*
X169948493Y-69000000D01*
X170077290Y-69025619D01*
G37*
G36*
X162460000Y-69600000D02*
G01*
X160060000Y-69600000D01*
X160060000Y-67200000D01*
X162460000Y-67200000D01*
X162460000Y-69600000D01*
G37*
G36*
X155940000Y-69600000D02*
G01*
X153540000Y-69600000D01*
X153540000Y-67200000D01*
X155940000Y-67200000D01*
X155940000Y-69600000D01*
G37*
M02*
