M48
; DRILL file {KiCad 5.1.5-52549c5~86~ubuntu18.04.1} date Tue 28 Apr 2020 10:33:05 AM PDT
; FORMAT={-:-/ absolute / inch / decimal}
; #@! TF.CreationDate,2020-04-28T10:33:05-07:00
; #@! TF.GenerationSoftware,Kicad,Pcbnew,5.1.5-52549c5~86~ubuntu18.04.1
; #@! TF.FileFunction,Plated,1,2,PTH
FMAT,2
INCH
T1C0.0079
T2C0.0118
T3C0.0157
T4C0.0295
T5C0.0315
T6C0.0354
T7C0.0394
T8C0.1260
%
G90
G05
T1
X6.3622Y-3.1299
X6.3976Y-3.0945
X6.3976Y-3.1654
X6.4331Y-3.1299
T2
X6.3661Y-3.5748
X6.3661Y-3.6535
X6.4055Y-3.6142
X6.4449Y-3.5748
X6.4449Y-3.6535
T3
X4.7402Y-5.0079
X5.126Y-2.8583
X5.1654Y-3.8425
X5.2854Y-4.6476
X5.3307Y-3.4094
X5.3425Y-4.2717
X5.4016Y-2.8583
X5.5039Y-4.9055
X5.7323Y-4.874
X5.7402Y-4.622
X5.748Y-4.7165
X5.7874Y-3.6457
X5.8031Y-3.2598
X5.9035Y-4.2362
X6.0787Y-3.1693
X6.1142Y-3.8268
X6.1476Y-4.0945
X6.1654Y-3.126
X6.2126Y-4.7638
X6.2598Y-3.2047
X6.2795Y-3.1112
X6.2835Y-3.7087
X6.3051Y-2.9606
X6.3228Y-3.8346
X6.3228Y-3.9843
X6.4449Y-3.9961
X6.4488Y-3.8425
X6.4488Y-3.8898
X6.4488Y-3.937
X6.4685Y-2.9606
X6.4724Y-4.5669
X6.4843Y-3.7283
X6.5039Y-3.6609
X6.5197Y-3.0945
X6.5236Y-3.6142
X6.5512Y-3.1417
X6.5748Y-3.874
X6.5827Y-3.2362
X6.5906Y-4.3937
X6.6156Y-2.9749
X6.6654Y-3.1102
X6.6772Y-4.5906
X6.6929Y-3.378
X6.7008Y-3.8346
X6.7323Y-3.9606
X6.7717Y-4.1811
X6.7795Y-4.6457
X6.8031Y-3.9449
T5
X6.1024Y-2.8031
X6.3386Y-2.8031
T6
X4.7878Y-2.987
X4.7878Y-3.087
X4.7878Y-3.187
X4.7878Y-3.287
X4.7878Y-3.387
X4.7878Y-3.487
X4.7878Y-3.587
X4.7878Y-3.687
X4.7878Y-3.787
X4.7878Y-3.887
X4.7878Y-3.987
X4.7878Y-4.087
X4.7878Y-4.187
X4.7878Y-4.287
X4.7878Y-4.387
X4.7878Y-4.487
X4.7878Y-4.587
X4.7878Y-4.687
X4.7878Y-4.787
X4.7878Y-4.887
X4.8878Y-2.987
X4.8878Y-3.087
X4.8878Y-3.187
X4.8878Y-3.287
X4.8878Y-3.387
X4.8878Y-3.487
X4.8878Y-3.587
X4.8878Y-3.687
X4.8878Y-3.787
X4.8878Y-3.887
X4.8878Y-3.987
X4.8878Y-4.087
X4.8878Y-4.187
X4.8878Y-4.287
X4.8878Y-4.387
X4.8878Y-4.487
X4.8878Y-4.587
X4.8878Y-4.687
X4.8878Y-4.787
X4.8878Y-4.887
X6.687Y-2.7559
X6.787Y-2.7559
X6.9232Y-2.987
X6.9232Y-3.087
X6.9232Y-3.187
X6.9232Y-3.287
X6.9232Y-3.387
X6.9232Y-3.487
X6.9232Y-3.587
X6.9232Y-3.687
X6.9232Y-3.787
X6.9232Y-3.887
X6.9232Y-3.987
X6.9232Y-4.087
X6.9232Y-4.187
X6.9232Y-4.287
X6.9232Y-4.387
X6.9232Y-4.487
X6.9232Y-4.587
X6.9232Y-4.687
X6.9232Y-4.787
X6.9232Y-4.887
X7.0232Y-2.987
X7.0232Y-3.087
X7.0232Y-3.187
X7.0232Y-3.287
X7.0232Y-3.387
X7.0232Y-3.487
X7.0232Y-3.587
X7.0232Y-3.687
X7.0232Y-3.787
X7.0232Y-3.887
X7.0232Y-3.987
X7.0232Y-4.087
X7.0232Y-4.187
X7.0232Y-4.287
X7.0232Y-4.387
X7.0232Y-4.487
X7.0232Y-4.587
X7.0232Y-4.687
X7.0232Y-4.787
X7.0232Y-4.887
T7
X6.3276Y-4.6378
X6.4276Y-4.6378
X6.5276Y-4.6378
X5.8291Y-5.063
X5.9291Y-5.063
T8
X4.8378Y-2.787
X4.8378Y-5.112
X6.9732Y-2.787
X6.9732Y-5.112
T4
G00X6.0921Y-2.7087
M15
G01X6.0921Y-2.6772
M16
G05
G00X6.3488Y-2.6772
M15
G01X6.3488Y-2.7087
M16
G05
T0
M30
