G04 #@! TF.GenerationSoftware,KiCad,Pcbnew,5.1.5-52549c5~86~ubuntu18.04.1*
G04 #@! TF.CreationDate,2020-04-28T10:32:59-07:00*
G04 #@! TF.ProjectId,SHIELD_MIMAS_TFT_BT_POWERSUPPLY,53484945-4c44-45f4-9d49-4d41535f5446,rev?*
G04 #@! TF.SameCoordinates,Original*
G04 #@! TF.FileFunction,Soldermask,Bot*
G04 #@! TF.FilePolarity,Negative*
%FSLAX46Y46*%
G04 Gerber Fmt 4.6, Leading zero omitted, Abs format (unit mm)*
G04 Created by KiCad (PCBNEW 5.1.5-52549c5~86~ubuntu18.04.1) date 2020-04-28 10:32:59*
%MOMM*%
%LPD*%
G04 APERTURE LIST*
%ADD10C,0.100000*%
G04 APERTURE END LIST*
D10*
G36*
X177585944Y-127847520D02*
G01*
X177717963Y-127873780D01*
X177981768Y-127983052D01*
X178084601Y-128025647D01*
X178091039Y-128028314D01*
X178426799Y-128252661D01*
X178712339Y-128538201D01*
X178936686Y-128873961D01*
X179091220Y-129247037D01*
X179170000Y-129643093D01*
X179170000Y-130046907D01*
X179091220Y-130442963D01*
X178936686Y-130816039D01*
X178712339Y-131151799D01*
X178426799Y-131437339D01*
X178091039Y-131661686D01*
X177717963Y-131816220D01*
X177585944Y-131842480D01*
X177321909Y-131895000D01*
X176918091Y-131895000D01*
X176654056Y-131842480D01*
X176522037Y-131816220D01*
X176148961Y-131661686D01*
X175813201Y-131437339D01*
X175527661Y-131151799D01*
X175303314Y-130816039D01*
X175148780Y-130442963D01*
X175070000Y-130046907D01*
X175070000Y-129643093D01*
X175148780Y-129247037D01*
X175303314Y-128873961D01*
X175527661Y-128538201D01*
X175813201Y-128252661D01*
X176148961Y-128028314D01*
X176155400Y-128025647D01*
X176258232Y-127983052D01*
X176522037Y-127873780D01*
X176654056Y-127847520D01*
X176918091Y-127795000D01*
X177321909Y-127795000D01*
X177585944Y-127847520D01*
G37*
G36*
X123345944Y-127847520D02*
G01*
X123477963Y-127873780D01*
X123741768Y-127983052D01*
X123844601Y-128025647D01*
X123851039Y-128028314D01*
X124186799Y-128252661D01*
X124472339Y-128538201D01*
X124696686Y-128873961D01*
X124851220Y-129247037D01*
X124930000Y-129643093D01*
X124930000Y-130046907D01*
X124851220Y-130442963D01*
X124696686Y-130816039D01*
X124472339Y-131151799D01*
X124186799Y-131437339D01*
X123851039Y-131661686D01*
X123477963Y-131816220D01*
X123345944Y-131842480D01*
X123081909Y-131895000D01*
X122678091Y-131895000D01*
X122414056Y-131842480D01*
X122282037Y-131816220D01*
X121908961Y-131661686D01*
X121573201Y-131437339D01*
X121287661Y-131151799D01*
X121063314Y-130816039D01*
X120908780Y-130442963D01*
X120830000Y-130046907D01*
X120830000Y-129643093D01*
X120908780Y-129247037D01*
X121063314Y-128873961D01*
X121287661Y-128538201D01*
X121573201Y-128252661D01*
X121908961Y-128028314D01*
X121915400Y-128025647D01*
X122018232Y-127983052D01*
X122282037Y-127873780D01*
X122414056Y-127847520D01*
X122678091Y-127795000D01*
X123081909Y-127795000D01*
X123345944Y-127847520D01*
G37*
G36*
X151501000Y-129501000D02*
G01*
X149699000Y-129501000D01*
X149699000Y-127699000D01*
X151501000Y-127699000D01*
X151501000Y-129501000D01*
G37*
G36*
X148173512Y-127703927D02*
G01*
X148322812Y-127733624D01*
X148486784Y-127801544D01*
X148634354Y-127900147D01*
X148759853Y-128025646D01*
X148858456Y-128173216D01*
X148926376Y-128337188D01*
X148961000Y-128511259D01*
X148961000Y-128688741D01*
X148926376Y-128862812D01*
X148858456Y-129026784D01*
X148759853Y-129174354D01*
X148634354Y-129299853D01*
X148486784Y-129398456D01*
X148322812Y-129466376D01*
X148173512Y-129496073D01*
X148148742Y-129501000D01*
X147971258Y-129501000D01*
X147946488Y-129496073D01*
X147797188Y-129466376D01*
X147633216Y-129398456D01*
X147485646Y-129299853D01*
X147360147Y-129174354D01*
X147261544Y-129026784D01*
X147193624Y-128862812D01*
X147159000Y-128688741D01*
X147159000Y-128511259D01*
X147193624Y-128337188D01*
X147261544Y-128173216D01*
X147360147Y-128025646D01*
X147485646Y-127900147D01*
X147633216Y-127801544D01*
X147797188Y-127733624D01*
X147946488Y-127703927D01*
X147971258Y-127699000D01*
X148148742Y-127699000D01*
X148173512Y-127703927D01*
G37*
G36*
X130551000Y-127051000D02*
G01*
X128449000Y-127051000D01*
X128449000Y-125949000D01*
X130551000Y-125949000D01*
X130551000Y-127051000D01*
G37*
G36*
X144551000Y-127051000D02*
G01*
X142449000Y-127051000D01*
X142449000Y-125949000D01*
X144551000Y-125949000D01*
X144551000Y-127051000D01*
G37*
G36*
X130551000Y-125551000D02*
G01*
X128449000Y-125551000D01*
X128449000Y-124449000D01*
X130551000Y-124449000D01*
X130551000Y-125551000D01*
G37*
G36*
X144551000Y-125551000D02*
G01*
X142449000Y-125551000D01*
X142449000Y-124449000D01*
X144551000Y-124449000D01*
X144551000Y-125551000D01*
G37*
G36*
X121837290Y-123155619D02*
G01*
X121901689Y-123168429D01*
X122083678Y-123243811D01*
X122247463Y-123353249D01*
X122386751Y-123492537D01*
X122496189Y-123656322D01*
X122571571Y-123838311D01*
X122610000Y-124031509D01*
X122610000Y-124228491D01*
X122571571Y-124421689D01*
X122496189Y-124603678D01*
X122386751Y-124767463D01*
X122247463Y-124906751D01*
X122083678Y-125016189D01*
X121901689Y-125091571D01*
X121837290Y-125104381D01*
X121708493Y-125130000D01*
X121511507Y-125130000D01*
X121382710Y-125104381D01*
X121318311Y-125091571D01*
X121136322Y-125016189D01*
X120972537Y-124906751D01*
X120833249Y-124767463D01*
X120723811Y-124603678D01*
X120648429Y-124421689D01*
X120610000Y-124228491D01*
X120610000Y-124031509D01*
X120648429Y-123838311D01*
X120723811Y-123656322D01*
X120833249Y-123492537D01*
X120972537Y-123353249D01*
X121136322Y-123243811D01*
X121318311Y-123168429D01*
X121382710Y-123155619D01*
X121511507Y-123130000D01*
X121708493Y-123130000D01*
X121837290Y-123155619D01*
G37*
G36*
X124377290Y-123155619D02*
G01*
X124441689Y-123168429D01*
X124623678Y-123243811D01*
X124787463Y-123353249D01*
X124926751Y-123492537D01*
X125036189Y-123656322D01*
X125111571Y-123838311D01*
X125150000Y-124031509D01*
X125150000Y-124228491D01*
X125111571Y-124421689D01*
X125036189Y-124603678D01*
X124926751Y-124767463D01*
X124787463Y-124906751D01*
X124623678Y-125016189D01*
X124441689Y-125091571D01*
X124377290Y-125104381D01*
X124248493Y-125130000D01*
X124051507Y-125130000D01*
X123922710Y-125104381D01*
X123858311Y-125091571D01*
X123676322Y-125016189D01*
X123512537Y-124906751D01*
X123373249Y-124767463D01*
X123263811Y-124603678D01*
X123188429Y-124421689D01*
X123150000Y-124228491D01*
X123150000Y-124031509D01*
X123188429Y-123838311D01*
X123263811Y-123656322D01*
X123373249Y-123492537D01*
X123512537Y-123353249D01*
X123676322Y-123243811D01*
X123858311Y-123168429D01*
X123922710Y-123155619D01*
X124051507Y-123130000D01*
X124248493Y-123130000D01*
X124377290Y-123155619D01*
G37*
G36*
X178617290Y-123155619D02*
G01*
X178681689Y-123168429D01*
X178863678Y-123243811D01*
X179027463Y-123353249D01*
X179166751Y-123492537D01*
X179276189Y-123656322D01*
X179351571Y-123838311D01*
X179390000Y-124031509D01*
X179390000Y-124228491D01*
X179351571Y-124421689D01*
X179276189Y-124603678D01*
X179166751Y-124767463D01*
X179027463Y-124906751D01*
X178863678Y-125016189D01*
X178681689Y-125091571D01*
X178617290Y-125104381D01*
X178488493Y-125130000D01*
X178291507Y-125130000D01*
X178162710Y-125104381D01*
X178098311Y-125091571D01*
X177916322Y-125016189D01*
X177752537Y-124906751D01*
X177613249Y-124767463D01*
X177503811Y-124603678D01*
X177428429Y-124421689D01*
X177390000Y-124228491D01*
X177390000Y-124031509D01*
X177428429Y-123838311D01*
X177503811Y-123656322D01*
X177613249Y-123492537D01*
X177752537Y-123353249D01*
X177916322Y-123243811D01*
X178098311Y-123168429D01*
X178162710Y-123155619D01*
X178291507Y-123130000D01*
X178488493Y-123130000D01*
X178617290Y-123155619D01*
G37*
G36*
X176077290Y-123155619D02*
G01*
X176141689Y-123168429D01*
X176323678Y-123243811D01*
X176487463Y-123353249D01*
X176626751Y-123492537D01*
X176736189Y-123656322D01*
X176811571Y-123838311D01*
X176850000Y-124031509D01*
X176850000Y-124228491D01*
X176811571Y-124421689D01*
X176736189Y-124603678D01*
X176626751Y-124767463D01*
X176487463Y-124906751D01*
X176323678Y-125016189D01*
X176141689Y-125091571D01*
X176077290Y-125104381D01*
X175948493Y-125130000D01*
X175751507Y-125130000D01*
X175622710Y-125104381D01*
X175558311Y-125091571D01*
X175376322Y-125016189D01*
X175212537Y-124906751D01*
X175073249Y-124767463D01*
X174963811Y-124603678D01*
X174888429Y-124421689D01*
X174850000Y-124228491D01*
X174850000Y-124031509D01*
X174888429Y-123838311D01*
X174963811Y-123656322D01*
X175073249Y-123492537D01*
X175212537Y-123353249D01*
X175376322Y-123243811D01*
X175558311Y-123168429D01*
X175622710Y-123155619D01*
X175751507Y-123130000D01*
X175948493Y-123130000D01*
X176077290Y-123155619D01*
G37*
G36*
X144551000Y-124051000D02*
G01*
X142449000Y-124051000D01*
X142449000Y-122949000D01*
X144551000Y-122949000D01*
X144551000Y-124051000D01*
G37*
G36*
X130551000Y-124051000D02*
G01*
X128449000Y-124051000D01*
X128449000Y-122949000D01*
X130551000Y-122949000D01*
X130551000Y-124051000D01*
G37*
G36*
X149096968Y-121253565D02*
G01*
X149135638Y-121265296D01*
X149171277Y-121284346D01*
X149202517Y-121309983D01*
X149228154Y-121341223D01*
X149247204Y-121376862D01*
X149258935Y-121415532D01*
X149263500Y-121461888D01*
X149263500Y-122538112D01*
X149258935Y-122584468D01*
X149247204Y-122623138D01*
X149228154Y-122658777D01*
X149202517Y-122690017D01*
X149171277Y-122715654D01*
X149135638Y-122734704D01*
X149096968Y-122746435D01*
X149050612Y-122751000D01*
X148399388Y-122751000D01*
X148353032Y-122746435D01*
X148314362Y-122734704D01*
X148278723Y-122715654D01*
X148247483Y-122690017D01*
X148221846Y-122658777D01*
X148202796Y-122623138D01*
X148191065Y-122584468D01*
X148186500Y-122538112D01*
X148186500Y-121461888D01*
X148191065Y-121415532D01*
X148202796Y-121376862D01*
X148221846Y-121341223D01*
X148247483Y-121309983D01*
X148278723Y-121284346D01*
X148314362Y-121265296D01*
X148353032Y-121253565D01*
X148399388Y-121249000D01*
X149050612Y-121249000D01*
X149096968Y-121253565D01*
G37*
G36*
X147221968Y-121253565D02*
G01*
X147260638Y-121265296D01*
X147296277Y-121284346D01*
X147327517Y-121309983D01*
X147353154Y-121341223D01*
X147372204Y-121376862D01*
X147383935Y-121415532D01*
X147388500Y-121461888D01*
X147388500Y-122538112D01*
X147383935Y-122584468D01*
X147372204Y-122623138D01*
X147353154Y-122658777D01*
X147327517Y-122690017D01*
X147296277Y-122715654D01*
X147260638Y-122734704D01*
X147221968Y-122746435D01*
X147175612Y-122751000D01*
X146524388Y-122751000D01*
X146478032Y-122746435D01*
X146439362Y-122734704D01*
X146403723Y-122715654D01*
X146372483Y-122690017D01*
X146346846Y-122658777D01*
X146327796Y-122623138D01*
X146316065Y-122584468D01*
X146311500Y-122538112D01*
X146311500Y-121461888D01*
X146316065Y-121415532D01*
X146327796Y-121376862D01*
X146346846Y-121341223D01*
X146372483Y-121309983D01*
X146403723Y-121284346D01*
X146439362Y-121265296D01*
X146478032Y-121253565D01*
X146524388Y-121249000D01*
X147175612Y-121249000D01*
X147221968Y-121253565D01*
G37*
G36*
X121837290Y-120615619D02*
G01*
X121901689Y-120628429D01*
X122083678Y-120703811D01*
X122247463Y-120813249D01*
X122386751Y-120952537D01*
X122496189Y-121116322D01*
X122569941Y-121294377D01*
X122571571Y-121298312D01*
X122594888Y-121415532D01*
X122610000Y-121491509D01*
X122610000Y-121688491D01*
X122571571Y-121881689D01*
X122496189Y-122063678D01*
X122386751Y-122227463D01*
X122247463Y-122366751D01*
X122083678Y-122476189D01*
X121901689Y-122551571D01*
X121837290Y-122564381D01*
X121708493Y-122590000D01*
X121511507Y-122590000D01*
X121382710Y-122564381D01*
X121318311Y-122551571D01*
X121136322Y-122476189D01*
X120972537Y-122366751D01*
X120833249Y-122227463D01*
X120723811Y-122063678D01*
X120648429Y-121881689D01*
X120610000Y-121688491D01*
X120610000Y-121491509D01*
X120625113Y-121415532D01*
X120648429Y-121298312D01*
X120650059Y-121294377D01*
X120723811Y-121116322D01*
X120833249Y-120952537D01*
X120972537Y-120813249D01*
X121136322Y-120703811D01*
X121318311Y-120628429D01*
X121382710Y-120615619D01*
X121511507Y-120590000D01*
X121708493Y-120590000D01*
X121837290Y-120615619D01*
G37*
G36*
X178617290Y-120615619D02*
G01*
X178681689Y-120628429D01*
X178863678Y-120703811D01*
X179027463Y-120813249D01*
X179166751Y-120952537D01*
X179276189Y-121116322D01*
X179349941Y-121294377D01*
X179351571Y-121298312D01*
X179374888Y-121415532D01*
X179390000Y-121491509D01*
X179390000Y-121688491D01*
X179351571Y-121881689D01*
X179276189Y-122063678D01*
X179166751Y-122227463D01*
X179027463Y-122366751D01*
X178863678Y-122476189D01*
X178681689Y-122551571D01*
X178617290Y-122564381D01*
X178488493Y-122590000D01*
X178291507Y-122590000D01*
X178162710Y-122564381D01*
X178098311Y-122551571D01*
X177916322Y-122476189D01*
X177752537Y-122366751D01*
X177613249Y-122227463D01*
X177503811Y-122063678D01*
X177428429Y-121881689D01*
X177390000Y-121688491D01*
X177390000Y-121491509D01*
X177405113Y-121415532D01*
X177428429Y-121298312D01*
X177430059Y-121294377D01*
X177503811Y-121116322D01*
X177613249Y-120952537D01*
X177752537Y-120813249D01*
X177916322Y-120703811D01*
X178098311Y-120628429D01*
X178162710Y-120615619D01*
X178291507Y-120590000D01*
X178488493Y-120590000D01*
X178617290Y-120615619D01*
G37*
G36*
X176077290Y-120615619D02*
G01*
X176141689Y-120628429D01*
X176323678Y-120703811D01*
X176487463Y-120813249D01*
X176626751Y-120952537D01*
X176736189Y-121116322D01*
X176809941Y-121294377D01*
X176811571Y-121298312D01*
X176834888Y-121415532D01*
X176850000Y-121491509D01*
X176850000Y-121688491D01*
X176811571Y-121881689D01*
X176736189Y-122063678D01*
X176626751Y-122227463D01*
X176487463Y-122366751D01*
X176323678Y-122476189D01*
X176141689Y-122551571D01*
X176077290Y-122564381D01*
X175948493Y-122590000D01*
X175751507Y-122590000D01*
X175622710Y-122564381D01*
X175558311Y-122551571D01*
X175376322Y-122476189D01*
X175212537Y-122366751D01*
X175073249Y-122227463D01*
X174963811Y-122063678D01*
X174888429Y-121881689D01*
X174850000Y-121688491D01*
X174850000Y-121491509D01*
X174865113Y-121415532D01*
X174888429Y-121298312D01*
X174890059Y-121294377D01*
X174963811Y-121116322D01*
X175073249Y-120952537D01*
X175212537Y-120813249D01*
X175376322Y-120703811D01*
X175558311Y-120628429D01*
X175622710Y-120615619D01*
X175751507Y-120590000D01*
X175948493Y-120590000D01*
X176077290Y-120615619D01*
G37*
G36*
X124377290Y-120615619D02*
G01*
X124441689Y-120628429D01*
X124623678Y-120703811D01*
X124787463Y-120813249D01*
X124926751Y-120952537D01*
X125036189Y-121116322D01*
X125109941Y-121294377D01*
X125111571Y-121298312D01*
X125134888Y-121415532D01*
X125150000Y-121491509D01*
X125150000Y-121688491D01*
X125111571Y-121881689D01*
X125036189Y-122063678D01*
X124926751Y-122227463D01*
X124787463Y-122366751D01*
X124623678Y-122476189D01*
X124441689Y-122551571D01*
X124377290Y-122564381D01*
X124248493Y-122590000D01*
X124051507Y-122590000D01*
X123922710Y-122564381D01*
X123858311Y-122551571D01*
X123676322Y-122476189D01*
X123512537Y-122366751D01*
X123373249Y-122227463D01*
X123263811Y-122063678D01*
X123188429Y-121881689D01*
X123150000Y-121688491D01*
X123150000Y-121491509D01*
X123165113Y-121415532D01*
X123188429Y-121298312D01*
X123190059Y-121294377D01*
X123263811Y-121116322D01*
X123373249Y-120952537D01*
X123512537Y-120813249D01*
X123676322Y-120703811D01*
X123858311Y-120628429D01*
X123922710Y-120615619D01*
X124051507Y-120590000D01*
X124248493Y-120590000D01*
X124377290Y-120615619D01*
G37*
G36*
X144551000Y-122551000D02*
G01*
X142449000Y-122551000D01*
X142449000Y-121449000D01*
X144551000Y-121449000D01*
X144551000Y-122551000D01*
G37*
G36*
X130551000Y-122551000D02*
G01*
X128449000Y-122551000D01*
X128449000Y-121449000D01*
X130551000Y-121449000D01*
X130551000Y-122551000D01*
G37*
G36*
X144551000Y-121051000D02*
G01*
X142449000Y-121051000D01*
X142449000Y-119949000D01*
X144551000Y-119949000D01*
X144551000Y-121051000D01*
G37*
G36*
X130551000Y-121051000D02*
G01*
X128449000Y-121051000D01*
X128449000Y-119949000D01*
X130551000Y-119949000D01*
X130551000Y-121051000D01*
G37*
G36*
X121837290Y-118075619D02*
G01*
X121901689Y-118088429D01*
X122083678Y-118163811D01*
X122247463Y-118273249D01*
X122386751Y-118412537D01*
X122496189Y-118576322D01*
X122571571Y-118758311D01*
X122610000Y-118951509D01*
X122610000Y-119148491D01*
X122571571Y-119341689D01*
X122496189Y-119523678D01*
X122386751Y-119687463D01*
X122247463Y-119826751D01*
X122083678Y-119936189D01*
X121901689Y-120011571D01*
X121837290Y-120024381D01*
X121708493Y-120050000D01*
X121511507Y-120050000D01*
X121382710Y-120024381D01*
X121318311Y-120011571D01*
X121136322Y-119936189D01*
X120972537Y-119826751D01*
X120833249Y-119687463D01*
X120723811Y-119523678D01*
X120648429Y-119341689D01*
X120610000Y-119148491D01*
X120610000Y-118951509D01*
X120648429Y-118758311D01*
X120723811Y-118576322D01*
X120833249Y-118412537D01*
X120972537Y-118273249D01*
X121136322Y-118163811D01*
X121318311Y-118088429D01*
X121382710Y-118075619D01*
X121511507Y-118050000D01*
X121708493Y-118050000D01*
X121837290Y-118075619D01*
G37*
G36*
X178617290Y-118075619D02*
G01*
X178681689Y-118088429D01*
X178863678Y-118163811D01*
X179027463Y-118273249D01*
X179166751Y-118412537D01*
X179276189Y-118576322D01*
X179351571Y-118758311D01*
X179390000Y-118951509D01*
X179390000Y-119148491D01*
X179351571Y-119341689D01*
X179276189Y-119523678D01*
X179166751Y-119687463D01*
X179027463Y-119826751D01*
X178863678Y-119936189D01*
X178681689Y-120011571D01*
X178617290Y-120024381D01*
X178488493Y-120050000D01*
X178291507Y-120050000D01*
X178162710Y-120024381D01*
X178098311Y-120011571D01*
X177916322Y-119936189D01*
X177752537Y-119826751D01*
X177613249Y-119687463D01*
X177503811Y-119523678D01*
X177428429Y-119341689D01*
X177390000Y-119148491D01*
X177390000Y-118951509D01*
X177428429Y-118758311D01*
X177503811Y-118576322D01*
X177613249Y-118412537D01*
X177752537Y-118273249D01*
X177916322Y-118163811D01*
X178098311Y-118088429D01*
X178162710Y-118075619D01*
X178291507Y-118050000D01*
X178488493Y-118050000D01*
X178617290Y-118075619D01*
G37*
G36*
X124377290Y-118075619D02*
G01*
X124441689Y-118088429D01*
X124623678Y-118163811D01*
X124787463Y-118273249D01*
X124926751Y-118412537D01*
X125036189Y-118576322D01*
X125111571Y-118758311D01*
X125150000Y-118951509D01*
X125150000Y-119148491D01*
X125111571Y-119341689D01*
X125036189Y-119523678D01*
X124926751Y-119687463D01*
X124787463Y-119826751D01*
X124623678Y-119936189D01*
X124441689Y-120011571D01*
X124377290Y-120024381D01*
X124248493Y-120050000D01*
X124051507Y-120050000D01*
X123922710Y-120024381D01*
X123858311Y-120011571D01*
X123676322Y-119936189D01*
X123512537Y-119826751D01*
X123373249Y-119687463D01*
X123263811Y-119523678D01*
X123188429Y-119341689D01*
X123150000Y-119148491D01*
X123150000Y-118951509D01*
X123188429Y-118758311D01*
X123263811Y-118576322D01*
X123373249Y-118412537D01*
X123512537Y-118273249D01*
X123676322Y-118163811D01*
X123858311Y-118088429D01*
X123922710Y-118075619D01*
X124051507Y-118050000D01*
X124248493Y-118050000D01*
X124377290Y-118075619D01*
G37*
G36*
X176077290Y-118075619D02*
G01*
X176141689Y-118088429D01*
X176323678Y-118163811D01*
X176487463Y-118273249D01*
X176626751Y-118412537D01*
X176736189Y-118576322D01*
X176811571Y-118758311D01*
X176850000Y-118951509D01*
X176850000Y-119148491D01*
X176811571Y-119341689D01*
X176736189Y-119523678D01*
X176626751Y-119687463D01*
X176487463Y-119826751D01*
X176323678Y-119936189D01*
X176141689Y-120011571D01*
X176077290Y-120024381D01*
X175948493Y-120050000D01*
X175751507Y-120050000D01*
X175622710Y-120024381D01*
X175558311Y-120011571D01*
X175376322Y-119936189D01*
X175212537Y-119826751D01*
X175073249Y-119687463D01*
X174963811Y-119523678D01*
X174888429Y-119341689D01*
X174850000Y-119148491D01*
X174850000Y-118951509D01*
X174888429Y-118758311D01*
X174963811Y-118576322D01*
X175073249Y-118412537D01*
X175212537Y-118273249D01*
X175376322Y-118163811D01*
X175558311Y-118088429D01*
X175622710Y-118075619D01*
X175751507Y-118050000D01*
X175948493Y-118050000D01*
X176077290Y-118075619D01*
G37*
G36*
X144551000Y-119551000D02*
G01*
X142449000Y-119551000D01*
X142449000Y-118449000D01*
X144551000Y-118449000D01*
X144551000Y-119551000D01*
G37*
G36*
X130551000Y-119551000D02*
G01*
X128449000Y-119551000D01*
X128449000Y-118449000D01*
X130551000Y-118449000D01*
X130551000Y-119551000D01*
G37*
G36*
X160833512Y-116903927D02*
G01*
X160982812Y-116933624D01*
X161146784Y-117001544D01*
X161294354Y-117100147D01*
X161419853Y-117225646D01*
X161518456Y-117373216D01*
X161586376Y-117537188D01*
X161621000Y-117711259D01*
X161621000Y-117888741D01*
X161586376Y-118062812D01*
X161518456Y-118226784D01*
X161419853Y-118374354D01*
X161294354Y-118499853D01*
X161146784Y-118598456D01*
X160982812Y-118666376D01*
X160833512Y-118696073D01*
X160808742Y-118701000D01*
X160631258Y-118701000D01*
X160606488Y-118696073D01*
X160457188Y-118666376D01*
X160293216Y-118598456D01*
X160145646Y-118499853D01*
X160020147Y-118374354D01*
X159921544Y-118226784D01*
X159853624Y-118062812D01*
X159819000Y-117888741D01*
X159819000Y-117711259D01*
X159853624Y-117537188D01*
X159921544Y-117373216D01*
X160020147Y-117225646D01*
X160145646Y-117100147D01*
X160293216Y-117001544D01*
X160457188Y-116933624D01*
X160606488Y-116903927D01*
X160631258Y-116899000D01*
X160808742Y-116899000D01*
X160833512Y-116903927D01*
G37*
G36*
X163373512Y-116903927D02*
G01*
X163522812Y-116933624D01*
X163686784Y-117001544D01*
X163834354Y-117100147D01*
X163959853Y-117225646D01*
X164058456Y-117373216D01*
X164126376Y-117537188D01*
X164161000Y-117711259D01*
X164161000Y-117888741D01*
X164126376Y-118062812D01*
X164058456Y-118226784D01*
X163959853Y-118374354D01*
X163834354Y-118499853D01*
X163686784Y-118598456D01*
X163522812Y-118666376D01*
X163373512Y-118696073D01*
X163348742Y-118701000D01*
X163171258Y-118701000D01*
X163146488Y-118696073D01*
X162997188Y-118666376D01*
X162833216Y-118598456D01*
X162685646Y-118499853D01*
X162560147Y-118374354D01*
X162461544Y-118226784D01*
X162393624Y-118062812D01*
X162359000Y-117888741D01*
X162359000Y-117711259D01*
X162393624Y-117537188D01*
X162461544Y-117373216D01*
X162560147Y-117225646D01*
X162685646Y-117100147D01*
X162833216Y-117001544D01*
X162997188Y-116933624D01*
X163146488Y-116903927D01*
X163171258Y-116899000D01*
X163348742Y-116899000D01*
X163373512Y-116903927D01*
G37*
G36*
X166701000Y-118701000D02*
G01*
X164899000Y-118701000D01*
X164899000Y-116899000D01*
X166701000Y-116899000D01*
X166701000Y-118701000D01*
G37*
G36*
X144551000Y-118051000D02*
G01*
X142449000Y-118051000D01*
X142449000Y-116949000D01*
X144551000Y-116949000D01*
X144551000Y-118051000D01*
G37*
G36*
X130551000Y-118051000D02*
G01*
X128449000Y-118051000D01*
X128449000Y-116949000D01*
X130551000Y-116949000D01*
X130551000Y-118051000D01*
G37*
G36*
X178617290Y-115535619D02*
G01*
X178681689Y-115548429D01*
X178863678Y-115623811D01*
X179027463Y-115733249D01*
X179166751Y-115872537D01*
X179276189Y-116036322D01*
X179351571Y-116218311D01*
X179390000Y-116411509D01*
X179390000Y-116608491D01*
X179351571Y-116801689D01*
X179276189Y-116983678D01*
X179166751Y-117147463D01*
X179027463Y-117286751D01*
X178863678Y-117396189D01*
X178681689Y-117471571D01*
X178617290Y-117484381D01*
X178488493Y-117510000D01*
X178291507Y-117510000D01*
X178162710Y-117484381D01*
X178098311Y-117471571D01*
X177916322Y-117396189D01*
X177752537Y-117286751D01*
X177613249Y-117147463D01*
X177503811Y-116983678D01*
X177428429Y-116801689D01*
X177390000Y-116608491D01*
X177390000Y-116411509D01*
X177428429Y-116218311D01*
X177503811Y-116036322D01*
X177613249Y-115872537D01*
X177752537Y-115733249D01*
X177916322Y-115623811D01*
X178098311Y-115548429D01*
X178162710Y-115535619D01*
X178291507Y-115510000D01*
X178488493Y-115510000D01*
X178617290Y-115535619D01*
G37*
G36*
X176077290Y-115535619D02*
G01*
X176141689Y-115548429D01*
X176323678Y-115623811D01*
X176487463Y-115733249D01*
X176626751Y-115872537D01*
X176736189Y-116036322D01*
X176811571Y-116218311D01*
X176850000Y-116411509D01*
X176850000Y-116608491D01*
X176811571Y-116801689D01*
X176736189Y-116983678D01*
X176626751Y-117147463D01*
X176487463Y-117286751D01*
X176323678Y-117396189D01*
X176141689Y-117471571D01*
X176077290Y-117484381D01*
X175948493Y-117510000D01*
X175751507Y-117510000D01*
X175622710Y-117484381D01*
X175558311Y-117471571D01*
X175376322Y-117396189D01*
X175212537Y-117286751D01*
X175073249Y-117147463D01*
X174963811Y-116983678D01*
X174888429Y-116801689D01*
X174850000Y-116608491D01*
X174850000Y-116411509D01*
X174888429Y-116218311D01*
X174963811Y-116036322D01*
X175073249Y-115872537D01*
X175212537Y-115733249D01*
X175376322Y-115623811D01*
X175558311Y-115548429D01*
X175622710Y-115535619D01*
X175751507Y-115510000D01*
X175948493Y-115510000D01*
X176077290Y-115535619D01*
G37*
G36*
X121837290Y-115535619D02*
G01*
X121901689Y-115548429D01*
X122083678Y-115623811D01*
X122247463Y-115733249D01*
X122386751Y-115872537D01*
X122496189Y-116036322D01*
X122571571Y-116218311D01*
X122610000Y-116411509D01*
X122610000Y-116608491D01*
X122571571Y-116801689D01*
X122496189Y-116983678D01*
X122386751Y-117147463D01*
X122247463Y-117286751D01*
X122083678Y-117396189D01*
X121901689Y-117471571D01*
X121837290Y-117484381D01*
X121708493Y-117510000D01*
X121511507Y-117510000D01*
X121382710Y-117484381D01*
X121318311Y-117471571D01*
X121136322Y-117396189D01*
X120972537Y-117286751D01*
X120833249Y-117147463D01*
X120723811Y-116983678D01*
X120648429Y-116801689D01*
X120610000Y-116608491D01*
X120610000Y-116411509D01*
X120648429Y-116218311D01*
X120723811Y-116036322D01*
X120833249Y-115872537D01*
X120972537Y-115733249D01*
X121136322Y-115623811D01*
X121318311Y-115548429D01*
X121382710Y-115535619D01*
X121511507Y-115510000D01*
X121708493Y-115510000D01*
X121837290Y-115535619D01*
G37*
G36*
X124377290Y-115535619D02*
G01*
X124441689Y-115548429D01*
X124623678Y-115623811D01*
X124787463Y-115733249D01*
X124926751Y-115872537D01*
X125036189Y-116036322D01*
X125111571Y-116218311D01*
X125150000Y-116411509D01*
X125150000Y-116608491D01*
X125111571Y-116801689D01*
X125036189Y-116983678D01*
X124926751Y-117147463D01*
X124787463Y-117286751D01*
X124623678Y-117396189D01*
X124441689Y-117471571D01*
X124377290Y-117484381D01*
X124248493Y-117510000D01*
X124051507Y-117510000D01*
X123922710Y-117484381D01*
X123858311Y-117471571D01*
X123676322Y-117396189D01*
X123512537Y-117286751D01*
X123373249Y-117147463D01*
X123263811Y-116983678D01*
X123188429Y-116801689D01*
X123150000Y-116608491D01*
X123150000Y-116411509D01*
X123188429Y-116218311D01*
X123263811Y-116036322D01*
X123373249Y-115872537D01*
X123512537Y-115733249D01*
X123676322Y-115623811D01*
X123858311Y-115548429D01*
X123922710Y-115535619D01*
X124051507Y-115510000D01*
X124248493Y-115510000D01*
X124377290Y-115535619D01*
G37*
G36*
X144551000Y-116551000D02*
G01*
X142449000Y-116551000D01*
X142449000Y-115449000D01*
X144551000Y-115449000D01*
X144551000Y-116551000D01*
G37*
G36*
X130551000Y-116551000D02*
G01*
X128449000Y-116551000D01*
X128449000Y-115449000D01*
X130551000Y-115449000D01*
X130551000Y-116551000D01*
G37*
G36*
X130551000Y-115051000D02*
G01*
X128449000Y-115051000D01*
X128449000Y-113949000D01*
X130551000Y-113949000D01*
X130551000Y-115051000D01*
G37*
G36*
X144551000Y-115051000D02*
G01*
X142449000Y-115051000D01*
X142449000Y-113949000D01*
X144551000Y-113949000D01*
X144551000Y-115051000D01*
G37*
G36*
X176077290Y-112995619D02*
G01*
X176141689Y-113008429D01*
X176323678Y-113083811D01*
X176487463Y-113193249D01*
X176626751Y-113332537D01*
X176736189Y-113496322D01*
X176811571Y-113678311D01*
X176850000Y-113871509D01*
X176850000Y-114068491D01*
X176811571Y-114261689D01*
X176736189Y-114443678D01*
X176626751Y-114607463D01*
X176487463Y-114746751D01*
X176323678Y-114856189D01*
X176141689Y-114931571D01*
X176077290Y-114944381D01*
X175948493Y-114970000D01*
X175751507Y-114970000D01*
X175622710Y-114944381D01*
X175558311Y-114931571D01*
X175376322Y-114856189D01*
X175212537Y-114746751D01*
X175073249Y-114607463D01*
X174963811Y-114443678D01*
X174888429Y-114261689D01*
X174850000Y-114068491D01*
X174850000Y-113871509D01*
X174888429Y-113678311D01*
X174963811Y-113496322D01*
X175073249Y-113332537D01*
X175212537Y-113193249D01*
X175376322Y-113083811D01*
X175558311Y-113008429D01*
X175622710Y-112995619D01*
X175751507Y-112970000D01*
X175948493Y-112970000D01*
X176077290Y-112995619D01*
G37*
G36*
X178617290Y-112995619D02*
G01*
X178681689Y-113008429D01*
X178863678Y-113083811D01*
X179027463Y-113193249D01*
X179166751Y-113332537D01*
X179276189Y-113496322D01*
X179351571Y-113678311D01*
X179390000Y-113871509D01*
X179390000Y-114068491D01*
X179351571Y-114261689D01*
X179276189Y-114443678D01*
X179166751Y-114607463D01*
X179027463Y-114746751D01*
X178863678Y-114856189D01*
X178681689Y-114931571D01*
X178617290Y-114944381D01*
X178488493Y-114970000D01*
X178291507Y-114970000D01*
X178162710Y-114944381D01*
X178098311Y-114931571D01*
X177916322Y-114856189D01*
X177752537Y-114746751D01*
X177613249Y-114607463D01*
X177503811Y-114443678D01*
X177428429Y-114261689D01*
X177390000Y-114068491D01*
X177390000Y-113871509D01*
X177428429Y-113678311D01*
X177503811Y-113496322D01*
X177613249Y-113332537D01*
X177752537Y-113193249D01*
X177916322Y-113083811D01*
X178098311Y-113008429D01*
X178162710Y-112995619D01*
X178291507Y-112970000D01*
X178488493Y-112970000D01*
X178617290Y-112995619D01*
G37*
G36*
X124377290Y-112995619D02*
G01*
X124441689Y-113008429D01*
X124623678Y-113083811D01*
X124787463Y-113193249D01*
X124926751Y-113332537D01*
X125036189Y-113496322D01*
X125111571Y-113678311D01*
X125150000Y-113871509D01*
X125150000Y-114068491D01*
X125111571Y-114261689D01*
X125036189Y-114443678D01*
X124926751Y-114607463D01*
X124787463Y-114746751D01*
X124623678Y-114856189D01*
X124441689Y-114931571D01*
X124377290Y-114944381D01*
X124248493Y-114970000D01*
X124051507Y-114970000D01*
X123922710Y-114944381D01*
X123858311Y-114931571D01*
X123676322Y-114856189D01*
X123512537Y-114746751D01*
X123373249Y-114607463D01*
X123263811Y-114443678D01*
X123188429Y-114261689D01*
X123150000Y-114068491D01*
X123150000Y-113871509D01*
X123188429Y-113678311D01*
X123263811Y-113496322D01*
X123373249Y-113332537D01*
X123512537Y-113193249D01*
X123676322Y-113083811D01*
X123858311Y-113008429D01*
X123922710Y-112995619D01*
X124051507Y-112970000D01*
X124248493Y-112970000D01*
X124377290Y-112995619D01*
G37*
G36*
X121837290Y-112995619D02*
G01*
X121901689Y-113008429D01*
X122083678Y-113083811D01*
X122247463Y-113193249D01*
X122386751Y-113332537D01*
X122496189Y-113496322D01*
X122571571Y-113678311D01*
X122610000Y-113871509D01*
X122610000Y-114068491D01*
X122571571Y-114261689D01*
X122496189Y-114443678D01*
X122386751Y-114607463D01*
X122247463Y-114746751D01*
X122083678Y-114856189D01*
X121901689Y-114931571D01*
X121837290Y-114944381D01*
X121708493Y-114970000D01*
X121511507Y-114970000D01*
X121382710Y-114944381D01*
X121318311Y-114931571D01*
X121136322Y-114856189D01*
X120972537Y-114746751D01*
X120833249Y-114607463D01*
X120723811Y-114443678D01*
X120648429Y-114261689D01*
X120610000Y-114068491D01*
X120610000Y-113871509D01*
X120648429Y-113678311D01*
X120723811Y-113496322D01*
X120833249Y-113332537D01*
X120972537Y-113193249D01*
X121136322Y-113083811D01*
X121318311Y-113008429D01*
X121382710Y-112995619D01*
X121511507Y-112970000D01*
X121708493Y-112970000D01*
X121837290Y-112995619D01*
G37*
G36*
X130551000Y-113551000D02*
G01*
X128449000Y-113551000D01*
X128449000Y-112449000D01*
X130551000Y-112449000D01*
X130551000Y-113551000D01*
G37*
G36*
X144551000Y-113551000D02*
G01*
X142449000Y-113551000D01*
X142449000Y-112449000D01*
X144551000Y-112449000D01*
X144551000Y-113551000D01*
G37*
G36*
X176077290Y-110455619D02*
G01*
X176141689Y-110468429D01*
X176323678Y-110543811D01*
X176487463Y-110653249D01*
X176626751Y-110792537D01*
X176736189Y-110956322D01*
X176811571Y-111138311D01*
X176850000Y-111331509D01*
X176850000Y-111528491D01*
X176811571Y-111721689D01*
X176736189Y-111903678D01*
X176626751Y-112067463D01*
X176487463Y-112206751D01*
X176323678Y-112316189D01*
X176141689Y-112391571D01*
X176077290Y-112404381D01*
X175948493Y-112430000D01*
X175751507Y-112430000D01*
X175622710Y-112404381D01*
X175558311Y-112391571D01*
X175376322Y-112316189D01*
X175212537Y-112206751D01*
X175073249Y-112067463D01*
X174963811Y-111903678D01*
X174888429Y-111721689D01*
X174850000Y-111528491D01*
X174850000Y-111331509D01*
X174888429Y-111138311D01*
X174963811Y-110956322D01*
X175073249Y-110792537D01*
X175212537Y-110653249D01*
X175376322Y-110543811D01*
X175558311Y-110468429D01*
X175622710Y-110455619D01*
X175751507Y-110430000D01*
X175948493Y-110430000D01*
X176077290Y-110455619D01*
G37*
G36*
X178617290Y-110455619D02*
G01*
X178681689Y-110468429D01*
X178863678Y-110543811D01*
X179027463Y-110653249D01*
X179166751Y-110792537D01*
X179276189Y-110956322D01*
X179351571Y-111138311D01*
X179390000Y-111331509D01*
X179390000Y-111528491D01*
X179351571Y-111721689D01*
X179276189Y-111903678D01*
X179166751Y-112067463D01*
X179027463Y-112206751D01*
X178863678Y-112316189D01*
X178681689Y-112391571D01*
X178617290Y-112404381D01*
X178488493Y-112430000D01*
X178291507Y-112430000D01*
X178162710Y-112404381D01*
X178098311Y-112391571D01*
X177916322Y-112316189D01*
X177752537Y-112206751D01*
X177613249Y-112067463D01*
X177503811Y-111903678D01*
X177428429Y-111721689D01*
X177390000Y-111528491D01*
X177390000Y-111331509D01*
X177428429Y-111138311D01*
X177503811Y-110956322D01*
X177613249Y-110792537D01*
X177752537Y-110653249D01*
X177916322Y-110543811D01*
X178098311Y-110468429D01*
X178162710Y-110455619D01*
X178291507Y-110430000D01*
X178488493Y-110430000D01*
X178617290Y-110455619D01*
G37*
G36*
X124377290Y-110455619D02*
G01*
X124441689Y-110468429D01*
X124623678Y-110543811D01*
X124787463Y-110653249D01*
X124926751Y-110792537D01*
X125036189Y-110956322D01*
X125111571Y-111138311D01*
X125150000Y-111331509D01*
X125150000Y-111528491D01*
X125111571Y-111721689D01*
X125036189Y-111903678D01*
X124926751Y-112067463D01*
X124787463Y-112206751D01*
X124623678Y-112316189D01*
X124441689Y-112391571D01*
X124377290Y-112404381D01*
X124248493Y-112430000D01*
X124051507Y-112430000D01*
X123922710Y-112404381D01*
X123858311Y-112391571D01*
X123676322Y-112316189D01*
X123512537Y-112206751D01*
X123373249Y-112067463D01*
X123263811Y-111903678D01*
X123188429Y-111721689D01*
X123150000Y-111528491D01*
X123150000Y-111331509D01*
X123188429Y-111138311D01*
X123263811Y-110956322D01*
X123373249Y-110792537D01*
X123512537Y-110653249D01*
X123676322Y-110543811D01*
X123858311Y-110468429D01*
X123922710Y-110455619D01*
X124051507Y-110430000D01*
X124248493Y-110430000D01*
X124377290Y-110455619D01*
G37*
G36*
X121837290Y-110455619D02*
G01*
X121901689Y-110468429D01*
X122083678Y-110543811D01*
X122247463Y-110653249D01*
X122386751Y-110792537D01*
X122496189Y-110956322D01*
X122571571Y-111138311D01*
X122610000Y-111331509D01*
X122610000Y-111528491D01*
X122571571Y-111721689D01*
X122496189Y-111903678D01*
X122386751Y-112067463D01*
X122247463Y-112206751D01*
X122083678Y-112316189D01*
X121901689Y-112391571D01*
X121837290Y-112404381D01*
X121708493Y-112430000D01*
X121511507Y-112430000D01*
X121382710Y-112404381D01*
X121318311Y-112391571D01*
X121136322Y-112316189D01*
X120972537Y-112206751D01*
X120833249Y-112067463D01*
X120723811Y-111903678D01*
X120648429Y-111721689D01*
X120610000Y-111528491D01*
X120610000Y-111331509D01*
X120648429Y-111138311D01*
X120723811Y-110956322D01*
X120833249Y-110792537D01*
X120972537Y-110653249D01*
X121136322Y-110543811D01*
X121318311Y-110468429D01*
X121382710Y-110455619D01*
X121511507Y-110430000D01*
X121708493Y-110430000D01*
X121837290Y-110455619D01*
G37*
G36*
X144551000Y-112051000D02*
G01*
X142449000Y-112051000D01*
X142449000Y-110949000D01*
X144551000Y-110949000D01*
X144551000Y-112051000D01*
G37*
G36*
X130551000Y-112051000D02*
G01*
X128449000Y-112051000D01*
X128449000Y-110949000D01*
X130551000Y-110949000D01*
X130551000Y-112051000D01*
G37*
G36*
X130551000Y-110551000D02*
G01*
X128449000Y-110551000D01*
X128449000Y-109449000D01*
X130551000Y-109449000D01*
X130551000Y-110551000D01*
G37*
G36*
X144551000Y-110551000D02*
G01*
X142449000Y-110551000D01*
X142449000Y-109449000D01*
X144551000Y-109449000D01*
X144551000Y-110551000D01*
G37*
G36*
X178617290Y-107915619D02*
G01*
X178681689Y-107928429D01*
X178863678Y-108003811D01*
X179027463Y-108113249D01*
X179166751Y-108252537D01*
X179276189Y-108416322D01*
X179351571Y-108598311D01*
X179351571Y-108598312D01*
X179390000Y-108791507D01*
X179390000Y-108988493D01*
X179364381Y-109117290D01*
X179351571Y-109181689D01*
X179276189Y-109363678D01*
X179166751Y-109527463D01*
X179027463Y-109666751D01*
X178863678Y-109776189D01*
X178681689Y-109851571D01*
X178617290Y-109864381D01*
X178488493Y-109890000D01*
X178291507Y-109890000D01*
X178162710Y-109864381D01*
X178098311Y-109851571D01*
X177916322Y-109776189D01*
X177752537Y-109666751D01*
X177613249Y-109527463D01*
X177503811Y-109363678D01*
X177428429Y-109181689D01*
X177415619Y-109117290D01*
X177390000Y-108988493D01*
X177390000Y-108791507D01*
X177428429Y-108598312D01*
X177428429Y-108598311D01*
X177503811Y-108416322D01*
X177613249Y-108252537D01*
X177752537Y-108113249D01*
X177916322Y-108003811D01*
X178098311Y-107928429D01*
X178162710Y-107915619D01*
X178291507Y-107890000D01*
X178488493Y-107890000D01*
X178617290Y-107915619D01*
G37*
G36*
X176077290Y-107915619D02*
G01*
X176141689Y-107928429D01*
X176323678Y-108003811D01*
X176487463Y-108113249D01*
X176626751Y-108252537D01*
X176736189Y-108416322D01*
X176811571Y-108598311D01*
X176811571Y-108598312D01*
X176850000Y-108791507D01*
X176850000Y-108988493D01*
X176824381Y-109117290D01*
X176811571Y-109181689D01*
X176736189Y-109363678D01*
X176626751Y-109527463D01*
X176487463Y-109666751D01*
X176323678Y-109776189D01*
X176141689Y-109851571D01*
X176077290Y-109864381D01*
X175948493Y-109890000D01*
X175751507Y-109890000D01*
X175622710Y-109864381D01*
X175558311Y-109851571D01*
X175376322Y-109776189D01*
X175212537Y-109666751D01*
X175073249Y-109527463D01*
X174963811Y-109363678D01*
X174888429Y-109181689D01*
X174875619Y-109117290D01*
X174850000Y-108988493D01*
X174850000Y-108791507D01*
X174888429Y-108598312D01*
X174888429Y-108598311D01*
X174963811Y-108416322D01*
X175073249Y-108252537D01*
X175212537Y-108113249D01*
X175376322Y-108003811D01*
X175558311Y-107928429D01*
X175622710Y-107915619D01*
X175751507Y-107890000D01*
X175948493Y-107890000D01*
X176077290Y-107915619D01*
G37*
G36*
X124377290Y-107915619D02*
G01*
X124441689Y-107928429D01*
X124623678Y-108003811D01*
X124787463Y-108113249D01*
X124926751Y-108252537D01*
X125036189Y-108416322D01*
X125111571Y-108598311D01*
X125111571Y-108598312D01*
X125150000Y-108791507D01*
X125150000Y-108988493D01*
X125124381Y-109117290D01*
X125111571Y-109181689D01*
X125036189Y-109363678D01*
X124926751Y-109527463D01*
X124787463Y-109666751D01*
X124623678Y-109776189D01*
X124441689Y-109851571D01*
X124377290Y-109864381D01*
X124248493Y-109890000D01*
X124051507Y-109890000D01*
X123922710Y-109864381D01*
X123858311Y-109851571D01*
X123676322Y-109776189D01*
X123512537Y-109666751D01*
X123373249Y-109527463D01*
X123263811Y-109363678D01*
X123188429Y-109181689D01*
X123175619Y-109117290D01*
X123150000Y-108988493D01*
X123150000Y-108791507D01*
X123188429Y-108598312D01*
X123188429Y-108598311D01*
X123263811Y-108416322D01*
X123373249Y-108252537D01*
X123512537Y-108113249D01*
X123676322Y-108003811D01*
X123858311Y-107928429D01*
X123922710Y-107915619D01*
X124051507Y-107890000D01*
X124248493Y-107890000D01*
X124377290Y-107915619D01*
G37*
G36*
X121837290Y-107915619D02*
G01*
X121901689Y-107928429D01*
X122083678Y-108003811D01*
X122247463Y-108113249D01*
X122386751Y-108252537D01*
X122496189Y-108416322D01*
X122571571Y-108598311D01*
X122571571Y-108598312D01*
X122610000Y-108791507D01*
X122610000Y-108988493D01*
X122584381Y-109117290D01*
X122571571Y-109181689D01*
X122496189Y-109363678D01*
X122386751Y-109527463D01*
X122247463Y-109666751D01*
X122083678Y-109776189D01*
X121901689Y-109851571D01*
X121837290Y-109864381D01*
X121708493Y-109890000D01*
X121511507Y-109890000D01*
X121382710Y-109864381D01*
X121318311Y-109851571D01*
X121136322Y-109776189D01*
X120972537Y-109666751D01*
X120833249Y-109527463D01*
X120723811Y-109363678D01*
X120648429Y-109181689D01*
X120635619Y-109117290D01*
X120610000Y-108988493D01*
X120610000Y-108791507D01*
X120648429Y-108598312D01*
X120648429Y-108598311D01*
X120723811Y-108416322D01*
X120833249Y-108252537D01*
X120972537Y-108113249D01*
X121136322Y-108003811D01*
X121318311Y-107928429D01*
X121382710Y-107915619D01*
X121511507Y-107890000D01*
X121708493Y-107890000D01*
X121837290Y-107915619D01*
G37*
G36*
X130551000Y-109051000D02*
G01*
X128449000Y-109051000D01*
X128449000Y-107949000D01*
X130551000Y-107949000D01*
X130551000Y-109051000D01*
G37*
G36*
X144551000Y-109051000D02*
G01*
X142449000Y-109051000D01*
X142449000Y-107949000D01*
X144551000Y-107949000D01*
X144551000Y-109051000D01*
G37*
G36*
X124377290Y-105375619D02*
G01*
X124441689Y-105388429D01*
X124623678Y-105463811D01*
X124787463Y-105573249D01*
X124926751Y-105712537D01*
X125036189Y-105876322D01*
X125111571Y-106058311D01*
X125150000Y-106251509D01*
X125150000Y-106448491D01*
X125111571Y-106641689D01*
X125036189Y-106823678D01*
X124926751Y-106987463D01*
X124787463Y-107126751D01*
X124623678Y-107236189D01*
X124441689Y-107311571D01*
X124377290Y-107324381D01*
X124248493Y-107350000D01*
X124051507Y-107350000D01*
X123922710Y-107324381D01*
X123858311Y-107311571D01*
X123676322Y-107236189D01*
X123512537Y-107126751D01*
X123373249Y-106987463D01*
X123263811Y-106823678D01*
X123188429Y-106641689D01*
X123150000Y-106448491D01*
X123150000Y-106251509D01*
X123188429Y-106058311D01*
X123263811Y-105876322D01*
X123373249Y-105712537D01*
X123512537Y-105573249D01*
X123676322Y-105463811D01*
X123858311Y-105388429D01*
X123922710Y-105375619D01*
X124051507Y-105350000D01*
X124248493Y-105350000D01*
X124377290Y-105375619D01*
G37*
G36*
X121837290Y-105375619D02*
G01*
X121901689Y-105388429D01*
X122083678Y-105463811D01*
X122247463Y-105573249D01*
X122386751Y-105712537D01*
X122496189Y-105876322D01*
X122571571Y-106058311D01*
X122610000Y-106251509D01*
X122610000Y-106448491D01*
X122571571Y-106641689D01*
X122496189Y-106823678D01*
X122386751Y-106987463D01*
X122247463Y-107126751D01*
X122083678Y-107236189D01*
X121901689Y-107311571D01*
X121837290Y-107324381D01*
X121708493Y-107350000D01*
X121511507Y-107350000D01*
X121382710Y-107324381D01*
X121318311Y-107311571D01*
X121136322Y-107236189D01*
X120972537Y-107126751D01*
X120833249Y-106987463D01*
X120723811Y-106823678D01*
X120648429Y-106641689D01*
X120610000Y-106448491D01*
X120610000Y-106251509D01*
X120648429Y-106058311D01*
X120723811Y-105876322D01*
X120833249Y-105712537D01*
X120972537Y-105573249D01*
X121136322Y-105463811D01*
X121318311Y-105388429D01*
X121382710Y-105375619D01*
X121511507Y-105350000D01*
X121708493Y-105350000D01*
X121837290Y-105375619D01*
G37*
G36*
X178617290Y-105375619D02*
G01*
X178681689Y-105388429D01*
X178863678Y-105463811D01*
X179027463Y-105573249D01*
X179166751Y-105712537D01*
X179276189Y-105876322D01*
X179351571Y-106058311D01*
X179390000Y-106251509D01*
X179390000Y-106448491D01*
X179351571Y-106641689D01*
X179276189Y-106823678D01*
X179166751Y-106987463D01*
X179027463Y-107126751D01*
X178863678Y-107236189D01*
X178681689Y-107311571D01*
X178617290Y-107324381D01*
X178488493Y-107350000D01*
X178291507Y-107350000D01*
X178162710Y-107324381D01*
X178098311Y-107311571D01*
X177916322Y-107236189D01*
X177752537Y-107126751D01*
X177613249Y-106987463D01*
X177503811Y-106823678D01*
X177428429Y-106641689D01*
X177390000Y-106448491D01*
X177390000Y-106251509D01*
X177428429Y-106058311D01*
X177503811Y-105876322D01*
X177613249Y-105712537D01*
X177752537Y-105573249D01*
X177916322Y-105463811D01*
X178098311Y-105388429D01*
X178162710Y-105375619D01*
X178291507Y-105350000D01*
X178488493Y-105350000D01*
X178617290Y-105375619D01*
G37*
G36*
X176077290Y-105375619D02*
G01*
X176141689Y-105388429D01*
X176323678Y-105463811D01*
X176487463Y-105573249D01*
X176626751Y-105712537D01*
X176736189Y-105876322D01*
X176811571Y-106058311D01*
X176850000Y-106251509D01*
X176850000Y-106448491D01*
X176811571Y-106641689D01*
X176736189Y-106823678D01*
X176626751Y-106987463D01*
X176487463Y-107126751D01*
X176323678Y-107236189D01*
X176141689Y-107311571D01*
X176077290Y-107324381D01*
X175948493Y-107350000D01*
X175751507Y-107350000D01*
X175622710Y-107324381D01*
X175558311Y-107311571D01*
X175376322Y-107236189D01*
X175212537Y-107126751D01*
X175073249Y-106987463D01*
X174963811Y-106823678D01*
X174888429Y-106641689D01*
X174850000Y-106448491D01*
X174850000Y-106251509D01*
X174888429Y-106058311D01*
X174963811Y-105876322D01*
X175073249Y-105712537D01*
X175212537Y-105573249D01*
X175376322Y-105463811D01*
X175558311Y-105388429D01*
X175622710Y-105375619D01*
X175751507Y-105350000D01*
X175948493Y-105350000D01*
X176077290Y-105375619D01*
G37*
G36*
X142301000Y-107051000D02*
G01*
X141199000Y-107051000D01*
X141199000Y-104949000D01*
X142301000Y-104949000D01*
X142301000Y-107051000D01*
G37*
G36*
X140801000Y-107051000D02*
G01*
X139699000Y-107051000D01*
X139699000Y-104949000D01*
X140801000Y-104949000D01*
X140801000Y-107051000D01*
G37*
G36*
X137801000Y-107051000D02*
G01*
X136699000Y-107051000D01*
X136699000Y-104949000D01*
X137801000Y-104949000D01*
X137801000Y-107051000D01*
G37*
G36*
X136301000Y-107051000D02*
G01*
X135199000Y-107051000D01*
X135199000Y-104949000D01*
X136301000Y-104949000D01*
X136301000Y-107051000D01*
G37*
G36*
X133301000Y-107051000D02*
G01*
X132199000Y-107051000D01*
X132199000Y-104949000D01*
X133301000Y-104949000D01*
X133301000Y-107051000D01*
G37*
G36*
X134801000Y-107051000D02*
G01*
X133699000Y-107051000D01*
X133699000Y-104949000D01*
X134801000Y-104949000D01*
X134801000Y-107051000D01*
G37*
G36*
X139301000Y-107051000D02*
G01*
X138199000Y-107051000D01*
X138199000Y-104949000D01*
X139301000Y-104949000D01*
X139301000Y-107051000D01*
G37*
G36*
X131801000Y-107051000D02*
G01*
X130699000Y-107051000D01*
X130699000Y-104949000D01*
X131801000Y-104949000D01*
X131801000Y-107051000D01*
G37*
G36*
X178608028Y-102833777D02*
G01*
X178681689Y-102848429D01*
X178863678Y-102923811D01*
X179027463Y-103033249D01*
X179166751Y-103172537D01*
X179276189Y-103336322D01*
X179351571Y-103518311D01*
X179390000Y-103711509D01*
X179390000Y-103908491D01*
X179351571Y-104101689D01*
X179276189Y-104283678D01*
X179166751Y-104447463D01*
X179027463Y-104586751D01*
X178863678Y-104696189D01*
X178681689Y-104771571D01*
X178617290Y-104784381D01*
X178488493Y-104810000D01*
X178291507Y-104810000D01*
X178162710Y-104784381D01*
X178098311Y-104771571D01*
X177916322Y-104696189D01*
X177752537Y-104586751D01*
X177613249Y-104447463D01*
X177503811Y-104283678D01*
X177428429Y-104101689D01*
X177390000Y-103908491D01*
X177390000Y-103711509D01*
X177428429Y-103518311D01*
X177503811Y-103336322D01*
X177613249Y-103172537D01*
X177752537Y-103033249D01*
X177916322Y-102923811D01*
X178098311Y-102848429D01*
X178171972Y-102833777D01*
X178291507Y-102810000D01*
X178488493Y-102810000D01*
X178608028Y-102833777D01*
G37*
G36*
X176068028Y-102833777D02*
G01*
X176141689Y-102848429D01*
X176323678Y-102923811D01*
X176487463Y-103033249D01*
X176626751Y-103172537D01*
X176736189Y-103336322D01*
X176811571Y-103518311D01*
X176850000Y-103711509D01*
X176850000Y-103908491D01*
X176811571Y-104101689D01*
X176736189Y-104283678D01*
X176626751Y-104447463D01*
X176487463Y-104586751D01*
X176323678Y-104696189D01*
X176141689Y-104771571D01*
X176077290Y-104784381D01*
X175948493Y-104810000D01*
X175751507Y-104810000D01*
X175622710Y-104784381D01*
X175558311Y-104771571D01*
X175376322Y-104696189D01*
X175212537Y-104586751D01*
X175073249Y-104447463D01*
X174963811Y-104283678D01*
X174888429Y-104101689D01*
X174850000Y-103908491D01*
X174850000Y-103711509D01*
X174888429Y-103518311D01*
X174963811Y-103336322D01*
X175073249Y-103172537D01*
X175212537Y-103033249D01*
X175376322Y-102923811D01*
X175558311Y-102848429D01*
X175631972Y-102833777D01*
X175751507Y-102810000D01*
X175948493Y-102810000D01*
X176068028Y-102833777D01*
G37*
G36*
X121828028Y-102833777D02*
G01*
X121901689Y-102848429D01*
X122083678Y-102923811D01*
X122247463Y-103033249D01*
X122386751Y-103172537D01*
X122496189Y-103336322D01*
X122571571Y-103518311D01*
X122610000Y-103711509D01*
X122610000Y-103908491D01*
X122571571Y-104101689D01*
X122496189Y-104283678D01*
X122386751Y-104447463D01*
X122247463Y-104586751D01*
X122083678Y-104696189D01*
X121901689Y-104771571D01*
X121837290Y-104784381D01*
X121708493Y-104810000D01*
X121511507Y-104810000D01*
X121382710Y-104784381D01*
X121318311Y-104771571D01*
X121136322Y-104696189D01*
X120972537Y-104586751D01*
X120833249Y-104447463D01*
X120723811Y-104283678D01*
X120648429Y-104101689D01*
X120610000Y-103908491D01*
X120610000Y-103711509D01*
X120648429Y-103518311D01*
X120723811Y-103336322D01*
X120833249Y-103172537D01*
X120972537Y-103033249D01*
X121136322Y-102923811D01*
X121318311Y-102848429D01*
X121391972Y-102833777D01*
X121511507Y-102810000D01*
X121708493Y-102810000D01*
X121828028Y-102833777D01*
G37*
G36*
X124368028Y-102833777D02*
G01*
X124441689Y-102848429D01*
X124623678Y-102923811D01*
X124787463Y-103033249D01*
X124926751Y-103172537D01*
X125036189Y-103336322D01*
X125111571Y-103518311D01*
X125150000Y-103711509D01*
X125150000Y-103908491D01*
X125111571Y-104101689D01*
X125036189Y-104283678D01*
X124926751Y-104447463D01*
X124787463Y-104586751D01*
X124623678Y-104696189D01*
X124441689Y-104771571D01*
X124377290Y-104784381D01*
X124248493Y-104810000D01*
X124051507Y-104810000D01*
X123922710Y-104784381D01*
X123858311Y-104771571D01*
X123676322Y-104696189D01*
X123512537Y-104586751D01*
X123373249Y-104447463D01*
X123263811Y-104283678D01*
X123188429Y-104101689D01*
X123150000Y-103908491D01*
X123150000Y-103711509D01*
X123188429Y-103518311D01*
X123263811Y-103336322D01*
X123373249Y-103172537D01*
X123512537Y-103033249D01*
X123676322Y-102923811D01*
X123858311Y-102848429D01*
X123931972Y-102833777D01*
X124051507Y-102810000D01*
X124248493Y-102810000D01*
X124368028Y-102833777D01*
G37*
G36*
X160134468Y-102053565D02*
G01*
X160173138Y-102065296D01*
X160208777Y-102084346D01*
X160240017Y-102109983D01*
X160265654Y-102141223D01*
X160284704Y-102176862D01*
X160296435Y-102215532D01*
X160301000Y-102261888D01*
X160301000Y-103338112D01*
X160296435Y-103384468D01*
X160284704Y-103423138D01*
X160265654Y-103458777D01*
X160240017Y-103490017D01*
X160208777Y-103515654D01*
X160173138Y-103534704D01*
X160134468Y-103546435D01*
X160088112Y-103551000D01*
X159436888Y-103551000D01*
X159390532Y-103546435D01*
X159351862Y-103534704D01*
X159316223Y-103515654D01*
X159284983Y-103490017D01*
X159259346Y-103458777D01*
X159240296Y-103423138D01*
X159228565Y-103384468D01*
X159224000Y-103338112D01*
X159224000Y-102261888D01*
X159228565Y-102215532D01*
X159240296Y-102176862D01*
X159259346Y-102141223D01*
X159284983Y-102109983D01*
X159316223Y-102084346D01*
X159351862Y-102065296D01*
X159390532Y-102053565D01*
X159436888Y-102049000D01*
X160088112Y-102049000D01*
X160134468Y-102053565D01*
G37*
G36*
X162009468Y-102053565D02*
G01*
X162048138Y-102065296D01*
X162083777Y-102084346D01*
X162115017Y-102109983D01*
X162140654Y-102141223D01*
X162159704Y-102176862D01*
X162171435Y-102215532D01*
X162176000Y-102261888D01*
X162176000Y-103338112D01*
X162171435Y-103384468D01*
X162159704Y-103423138D01*
X162140654Y-103458777D01*
X162115017Y-103490017D01*
X162083777Y-103515654D01*
X162048138Y-103534704D01*
X162009468Y-103546435D01*
X161963112Y-103551000D01*
X161311888Y-103551000D01*
X161265532Y-103546435D01*
X161226862Y-103534704D01*
X161191223Y-103515654D01*
X161159983Y-103490017D01*
X161134346Y-103458777D01*
X161115296Y-103423138D01*
X161103565Y-103384468D01*
X161099000Y-103338112D01*
X161099000Y-102261888D01*
X161103565Y-102215532D01*
X161115296Y-102176862D01*
X161134346Y-102141223D01*
X161159983Y-102109983D01*
X161191223Y-102084346D01*
X161226862Y-102065296D01*
X161265532Y-102053565D01*
X161311888Y-102049000D01*
X161963112Y-102049000D01*
X162009468Y-102053565D01*
G37*
G36*
X157084468Y-101853565D02*
G01*
X157123138Y-101865296D01*
X157158777Y-101884346D01*
X157190017Y-101909983D01*
X157215654Y-101941223D01*
X157234704Y-101976862D01*
X157246435Y-102015532D01*
X157251000Y-102061888D01*
X157251000Y-102713112D01*
X157246435Y-102759468D01*
X157234704Y-102798138D01*
X157215654Y-102833777D01*
X157190017Y-102865017D01*
X157158777Y-102890654D01*
X157123138Y-102909704D01*
X157084468Y-102921435D01*
X157038112Y-102926000D01*
X155961888Y-102926000D01*
X155915532Y-102921435D01*
X155876862Y-102909704D01*
X155841223Y-102890654D01*
X155809983Y-102865017D01*
X155784346Y-102833777D01*
X155765296Y-102798138D01*
X155753565Y-102759468D01*
X155749000Y-102713112D01*
X155749000Y-102061888D01*
X155753565Y-102015532D01*
X155765296Y-101976862D01*
X155784346Y-101941223D01*
X155809983Y-101909983D01*
X155841223Y-101884346D01*
X155876862Y-101865296D01*
X155915532Y-101853565D01*
X155961888Y-101849000D01*
X157038112Y-101849000D01*
X157084468Y-101853565D01*
G37*
G36*
X124377290Y-100295619D02*
G01*
X124441689Y-100308429D01*
X124623678Y-100383811D01*
X124787463Y-100493249D01*
X124926751Y-100632537D01*
X125036189Y-100796322D01*
X125111571Y-100978311D01*
X125150000Y-101171509D01*
X125150000Y-101368491D01*
X125111571Y-101561689D01*
X125036189Y-101743678D01*
X124926751Y-101907463D01*
X124787463Y-102046751D01*
X124623678Y-102156189D01*
X124441689Y-102231571D01*
X124377290Y-102244381D01*
X124248493Y-102270000D01*
X124051507Y-102270000D01*
X123922710Y-102244381D01*
X123858311Y-102231571D01*
X123676322Y-102156189D01*
X123512537Y-102046751D01*
X123373249Y-101907463D01*
X123263811Y-101743678D01*
X123188429Y-101561689D01*
X123150000Y-101368491D01*
X123150000Y-101171509D01*
X123188429Y-100978311D01*
X123263811Y-100796322D01*
X123373249Y-100632537D01*
X123512537Y-100493249D01*
X123676322Y-100383811D01*
X123858311Y-100308429D01*
X123922710Y-100295619D01*
X124051507Y-100270000D01*
X124248493Y-100270000D01*
X124377290Y-100295619D01*
G37*
G36*
X178617290Y-100295619D02*
G01*
X178681689Y-100308429D01*
X178863678Y-100383811D01*
X179027463Y-100493249D01*
X179166751Y-100632537D01*
X179276189Y-100796322D01*
X179351571Y-100978311D01*
X179390000Y-101171509D01*
X179390000Y-101368491D01*
X179351571Y-101561689D01*
X179276189Y-101743678D01*
X179166751Y-101907463D01*
X179027463Y-102046751D01*
X178863678Y-102156189D01*
X178681689Y-102231571D01*
X178617290Y-102244381D01*
X178488493Y-102270000D01*
X178291507Y-102270000D01*
X178162710Y-102244381D01*
X178098311Y-102231571D01*
X177916322Y-102156189D01*
X177752537Y-102046751D01*
X177613249Y-101907463D01*
X177503811Y-101743678D01*
X177428429Y-101561689D01*
X177390000Y-101368491D01*
X177390000Y-101171509D01*
X177428429Y-100978311D01*
X177503811Y-100796322D01*
X177613249Y-100632537D01*
X177752537Y-100493249D01*
X177916322Y-100383811D01*
X178098311Y-100308429D01*
X178162710Y-100295619D01*
X178291507Y-100270000D01*
X178488493Y-100270000D01*
X178617290Y-100295619D01*
G37*
G36*
X121837290Y-100295619D02*
G01*
X121901689Y-100308429D01*
X122083678Y-100383811D01*
X122247463Y-100493249D01*
X122386751Y-100632537D01*
X122496189Y-100796322D01*
X122571571Y-100978311D01*
X122610000Y-101171509D01*
X122610000Y-101368491D01*
X122571571Y-101561689D01*
X122496189Y-101743678D01*
X122386751Y-101907463D01*
X122247463Y-102046751D01*
X122083678Y-102156189D01*
X121901689Y-102231571D01*
X121837290Y-102244381D01*
X121708493Y-102270000D01*
X121511507Y-102270000D01*
X121382710Y-102244381D01*
X121318311Y-102231571D01*
X121136322Y-102156189D01*
X120972537Y-102046751D01*
X120833249Y-101907463D01*
X120723811Y-101743678D01*
X120648429Y-101561689D01*
X120610000Y-101368491D01*
X120610000Y-101171509D01*
X120648429Y-100978311D01*
X120723811Y-100796322D01*
X120833249Y-100632537D01*
X120972537Y-100493249D01*
X121136322Y-100383811D01*
X121318311Y-100308429D01*
X121382710Y-100295619D01*
X121511507Y-100270000D01*
X121708493Y-100270000D01*
X121837290Y-100295619D01*
G37*
G36*
X176077290Y-100295619D02*
G01*
X176141689Y-100308429D01*
X176323678Y-100383811D01*
X176487463Y-100493249D01*
X176626751Y-100632537D01*
X176736189Y-100796322D01*
X176811571Y-100978311D01*
X176850000Y-101171509D01*
X176850000Y-101368491D01*
X176811571Y-101561689D01*
X176736189Y-101743678D01*
X176626751Y-101907463D01*
X176487463Y-102046751D01*
X176323678Y-102156189D01*
X176141689Y-102231571D01*
X176077290Y-102244381D01*
X175948493Y-102270000D01*
X175751507Y-102270000D01*
X175622710Y-102244381D01*
X175558311Y-102231571D01*
X175376322Y-102156189D01*
X175212537Y-102046751D01*
X175073249Y-101907463D01*
X174963811Y-101743678D01*
X174888429Y-101561689D01*
X174850000Y-101368491D01*
X174850000Y-101171509D01*
X174888429Y-100978311D01*
X174963811Y-100796322D01*
X175073249Y-100632537D01*
X175212537Y-100493249D01*
X175376322Y-100383811D01*
X175558311Y-100308429D01*
X175622710Y-100295619D01*
X175751507Y-100270000D01*
X175948493Y-100270000D01*
X176077290Y-100295619D01*
G37*
G36*
X166134468Y-100603565D02*
G01*
X166173138Y-100615296D01*
X166208777Y-100634346D01*
X166240017Y-100659983D01*
X166265654Y-100691223D01*
X166284704Y-100726862D01*
X166296435Y-100765532D01*
X166301000Y-100811888D01*
X166301000Y-101463112D01*
X166296435Y-101509468D01*
X166284704Y-101548138D01*
X166265654Y-101583777D01*
X166240017Y-101615017D01*
X166208777Y-101640654D01*
X166173138Y-101659704D01*
X166134468Y-101671435D01*
X166088112Y-101676000D01*
X165011888Y-101676000D01*
X164965532Y-101671435D01*
X164926862Y-101659704D01*
X164891223Y-101640654D01*
X164859983Y-101615017D01*
X164834346Y-101583777D01*
X164815296Y-101548138D01*
X164803565Y-101509468D01*
X164799000Y-101463112D01*
X164799000Y-100811888D01*
X164803565Y-100765532D01*
X164815296Y-100726862D01*
X164834346Y-100691223D01*
X164859983Y-100659983D01*
X164891223Y-100634346D01*
X164926862Y-100615296D01*
X164965532Y-100603565D01*
X165011888Y-100599000D01*
X166088112Y-100599000D01*
X166134468Y-100603565D01*
G37*
G36*
X157084468Y-99978565D02*
G01*
X157123138Y-99990296D01*
X157158777Y-100009346D01*
X157190017Y-100034983D01*
X157215654Y-100066223D01*
X157234704Y-100101862D01*
X157246435Y-100140532D01*
X157251000Y-100186888D01*
X157251000Y-100838112D01*
X157246435Y-100884468D01*
X157234704Y-100923138D01*
X157215654Y-100958777D01*
X157190017Y-100990017D01*
X157158777Y-101015654D01*
X157123138Y-101034704D01*
X157084468Y-101046435D01*
X157038112Y-101051000D01*
X155961888Y-101051000D01*
X155915532Y-101046435D01*
X155876862Y-101034704D01*
X155841223Y-101015654D01*
X155809983Y-100990017D01*
X155784346Y-100958777D01*
X155765296Y-100923138D01*
X155753565Y-100884468D01*
X155749000Y-100838112D01*
X155749000Y-100186888D01*
X155753565Y-100140532D01*
X155765296Y-100101862D01*
X155784346Y-100066223D01*
X155809983Y-100034983D01*
X155841223Y-100009346D01*
X155876862Y-99990296D01*
X155915532Y-99978565D01*
X155961888Y-99974000D01*
X157038112Y-99974000D01*
X157084468Y-99978565D01*
G37*
G36*
X162618604Y-97928347D02*
G01*
X162655144Y-97939432D01*
X162688821Y-97957433D01*
X162718341Y-97981659D01*
X162742567Y-98011179D01*
X162760568Y-98044856D01*
X162771653Y-98081396D01*
X162776000Y-98125538D01*
X162776000Y-100474462D01*
X162771653Y-100518604D01*
X162760568Y-100555144D01*
X162742567Y-100588821D01*
X162718341Y-100618341D01*
X162688821Y-100642567D01*
X162655144Y-100660568D01*
X162618604Y-100671653D01*
X162574462Y-100676000D01*
X161625538Y-100676000D01*
X161581396Y-100671653D01*
X161544856Y-100660568D01*
X161511179Y-100642567D01*
X161481659Y-100618341D01*
X161457433Y-100588821D01*
X161439432Y-100555144D01*
X161428347Y-100518604D01*
X161424000Y-100474462D01*
X161424000Y-98125538D01*
X161428347Y-98081396D01*
X161439432Y-98044856D01*
X161457433Y-98011179D01*
X161481659Y-97981659D01*
X161511179Y-97957433D01*
X161544856Y-97939432D01*
X161581396Y-97928347D01*
X161625538Y-97924000D01*
X162574462Y-97924000D01*
X162618604Y-97928347D01*
G37*
G36*
X159818604Y-97928347D02*
G01*
X159855144Y-97939432D01*
X159888821Y-97957433D01*
X159918341Y-97981659D01*
X159942567Y-98011179D01*
X159960568Y-98044856D01*
X159971653Y-98081396D01*
X159976000Y-98125538D01*
X159976000Y-100474462D01*
X159971653Y-100518604D01*
X159960568Y-100555144D01*
X159942567Y-100588821D01*
X159918341Y-100618341D01*
X159888821Y-100642567D01*
X159855144Y-100660568D01*
X159818604Y-100671653D01*
X159774462Y-100676000D01*
X158825538Y-100676000D01*
X158781396Y-100671653D01*
X158744856Y-100660568D01*
X158711179Y-100642567D01*
X158681659Y-100618341D01*
X158657433Y-100588821D01*
X158639432Y-100555144D01*
X158628347Y-100518604D01*
X158624000Y-100474462D01*
X158624000Y-98125538D01*
X158628347Y-98081396D01*
X158639432Y-98044856D01*
X158657433Y-98011179D01*
X158681659Y-97981659D01*
X158711179Y-97957433D01*
X158744856Y-97939432D01*
X158781396Y-97928347D01*
X158825538Y-97924000D01*
X159774462Y-97924000D01*
X159818604Y-97928347D01*
G37*
G36*
X166134468Y-98728565D02*
G01*
X166173138Y-98740296D01*
X166208777Y-98759346D01*
X166240017Y-98784983D01*
X166265654Y-98816223D01*
X166284704Y-98851862D01*
X166296435Y-98890532D01*
X166301000Y-98936888D01*
X166301000Y-99588112D01*
X166296435Y-99634468D01*
X166284704Y-99673138D01*
X166265654Y-99708777D01*
X166240017Y-99740017D01*
X166208777Y-99765654D01*
X166173138Y-99784704D01*
X166134468Y-99796435D01*
X166088112Y-99801000D01*
X165011888Y-99801000D01*
X164965532Y-99796435D01*
X164926862Y-99784704D01*
X164891223Y-99765654D01*
X164859983Y-99740017D01*
X164834346Y-99708777D01*
X164815296Y-99673138D01*
X164803565Y-99634468D01*
X164799000Y-99588112D01*
X164799000Y-98936888D01*
X164803565Y-98890532D01*
X164815296Y-98851862D01*
X164834346Y-98816223D01*
X164859983Y-98784983D01*
X164891223Y-98759346D01*
X164926862Y-98740296D01*
X164965532Y-98728565D01*
X165011888Y-98724000D01*
X166088112Y-98724000D01*
X166134468Y-98728565D01*
G37*
G36*
X176077290Y-97755619D02*
G01*
X176141689Y-97768429D01*
X176323678Y-97843811D01*
X176487463Y-97953249D01*
X176626751Y-98092537D01*
X176736189Y-98256322D01*
X176811571Y-98438311D01*
X176811571Y-98438312D01*
X176850000Y-98631507D01*
X176850000Y-98828493D01*
X176828439Y-98936888D01*
X176811571Y-99021689D01*
X176736189Y-99203678D01*
X176626751Y-99367463D01*
X176487463Y-99506751D01*
X176323678Y-99616189D01*
X176141689Y-99691571D01*
X176077290Y-99704381D01*
X175948493Y-99730000D01*
X175751507Y-99730000D01*
X175622710Y-99704381D01*
X175558311Y-99691571D01*
X175376322Y-99616189D01*
X175212537Y-99506751D01*
X175073249Y-99367463D01*
X174963811Y-99203678D01*
X174888429Y-99021689D01*
X174871561Y-98936888D01*
X174850000Y-98828493D01*
X174850000Y-98631507D01*
X174888429Y-98438312D01*
X174888429Y-98438311D01*
X174963811Y-98256322D01*
X175073249Y-98092537D01*
X175212537Y-97953249D01*
X175376322Y-97843811D01*
X175558311Y-97768429D01*
X175622710Y-97755619D01*
X175751507Y-97730000D01*
X175948493Y-97730000D01*
X176077290Y-97755619D01*
G37*
G36*
X124377290Y-97755619D02*
G01*
X124441689Y-97768429D01*
X124623678Y-97843811D01*
X124787463Y-97953249D01*
X124926751Y-98092537D01*
X125036189Y-98256322D01*
X125111571Y-98438311D01*
X125111571Y-98438312D01*
X125150000Y-98631507D01*
X125150000Y-98828493D01*
X125128439Y-98936888D01*
X125111571Y-99021689D01*
X125036189Y-99203678D01*
X124926751Y-99367463D01*
X124787463Y-99506751D01*
X124623678Y-99616189D01*
X124441689Y-99691571D01*
X124377290Y-99704381D01*
X124248493Y-99730000D01*
X124051507Y-99730000D01*
X123922710Y-99704381D01*
X123858311Y-99691571D01*
X123676322Y-99616189D01*
X123512537Y-99506751D01*
X123373249Y-99367463D01*
X123263811Y-99203678D01*
X123188429Y-99021689D01*
X123171561Y-98936888D01*
X123150000Y-98828493D01*
X123150000Y-98631507D01*
X123188429Y-98438312D01*
X123188429Y-98438311D01*
X123263811Y-98256322D01*
X123373249Y-98092537D01*
X123512537Y-97953249D01*
X123676322Y-97843811D01*
X123858311Y-97768429D01*
X123922710Y-97755619D01*
X124051507Y-97730000D01*
X124248493Y-97730000D01*
X124377290Y-97755619D01*
G37*
G36*
X178617290Y-97755619D02*
G01*
X178681689Y-97768429D01*
X178863678Y-97843811D01*
X179027463Y-97953249D01*
X179166751Y-98092537D01*
X179276189Y-98256322D01*
X179351571Y-98438311D01*
X179351571Y-98438312D01*
X179390000Y-98631507D01*
X179390000Y-98828493D01*
X179368439Y-98936888D01*
X179351571Y-99021689D01*
X179276189Y-99203678D01*
X179166751Y-99367463D01*
X179027463Y-99506751D01*
X178863678Y-99616189D01*
X178681689Y-99691571D01*
X178617290Y-99704381D01*
X178488493Y-99730000D01*
X178291507Y-99730000D01*
X178162710Y-99704381D01*
X178098311Y-99691571D01*
X177916322Y-99616189D01*
X177752537Y-99506751D01*
X177613249Y-99367463D01*
X177503811Y-99203678D01*
X177428429Y-99021689D01*
X177411561Y-98936888D01*
X177390000Y-98828493D01*
X177390000Y-98631507D01*
X177428429Y-98438312D01*
X177428429Y-98438311D01*
X177503811Y-98256322D01*
X177613249Y-98092537D01*
X177752537Y-97953249D01*
X177916322Y-97843811D01*
X178098311Y-97768429D01*
X178162710Y-97755619D01*
X178291507Y-97730000D01*
X178488493Y-97730000D01*
X178617290Y-97755619D01*
G37*
G36*
X121837290Y-97755619D02*
G01*
X121901689Y-97768429D01*
X122083678Y-97843811D01*
X122247463Y-97953249D01*
X122386751Y-98092537D01*
X122496189Y-98256322D01*
X122571571Y-98438311D01*
X122571571Y-98438312D01*
X122610000Y-98631507D01*
X122610000Y-98828493D01*
X122588439Y-98936888D01*
X122571571Y-99021689D01*
X122496189Y-99203678D01*
X122386751Y-99367463D01*
X122247463Y-99506751D01*
X122083678Y-99616189D01*
X121901689Y-99691571D01*
X121837290Y-99704381D01*
X121708493Y-99730000D01*
X121511507Y-99730000D01*
X121382710Y-99704381D01*
X121318311Y-99691571D01*
X121136322Y-99616189D01*
X120972537Y-99506751D01*
X120833249Y-99367463D01*
X120723811Y-99203678D01*
X120648429Y-99021689D01*
X120631561Y-98936888D01*
X120610000Y-98828493D01*
X120610000Y-98631507D01*
X120648429Y-98438312D01*
X120648429Y-98438311D01*
X120723811Y-98256322D01*
X120833249Y-98092537D01*
X120972537Y-97953249D01*
X121136322Y-97843811D01*
X121318311Y-97768429D01*
X121382710Y-97755619D01*
X121511507Y-97730000D01*
X121708493Y-97730000D01*
X121837290Y-97755619D01*
G37*
G36*
X166051000Y-97801000D02*
G01*
X165149000Y-97801000D01*
X165149000Y-96799000D01*
X166051000Y-96799000D01*
X166051000Y-97801000D01*
G37*
G36*
X124348954Y-95209983D02*
G01*
X124441689Y-95228429D01*
X124623678Y-95303811D01*
X124787463Y-95413249D01*
X124926751Y-95552537D01*
X125036189Y-95716322D01*
X125111571Y-95898311D01*
X125150000Y-96091509D01*
X125150000Y-96288491D01*
X125111571Y-96481689D01*
X125036189Y-96663678D01*
X124926751Y-96827463D01*
X124787463Y-96966751D01*
X124623678Y-97076189D01*
X124441689Y-97151571D01*
X124377290Y-97164381D01*
X124248493Y-97190000D01*
X124051507Y-97190000D01*
X123922710Y-97164381D01*
X123858311Y-97151571D01*
X123676322Y-97076189D01*
X123512537Y-96966751D01*
X123373249Y-96827463D01*
X123263811Y-96663678D01*
X123188429Y-96481689D01*
X123150000Y-96288491D01*
X123150000Y-96091509D01*
X123188429Y-95898311D01*
X123263811Y-95716322D01*
X123373249Y-95552537D01*
X123512537Y-95413249D01*
X123676322Y-95303811D01*
X123858311Y-95228429D01*
X123951046Y-95209983D01*
X124051507Y-95190000D01*
X124248493Y-95190000D01*
X124348954Y-95209983D01*
G37*
G36*
X176048954Y-95209983D02*
G01*
X176141689Y-95228429D01*
X176323678Y-95303811D01*
X176487463Y-95413249D01*
X176626751Y-95552537D01*
X176736189Y-95716322D01*
X176811571Y-95898311D01*
X176850000Y-96091509D01*
X176850000Y-96288491D01*
X176811571Y-96481689D01*
X176736189Y-96663678D01*
X176626751Y-96827463D01*
X176487463Y-96966751D01*
X176323678Y-97076189D01*
X176141689Y-97151571D01*
X176077290Y-97164381D01*
X175948493Y-97190000D01*
X175751507Y-97190000D01*
X175622710Y-97164381D01*
X175558311Y-97151571D01*
X175376322Y-97076189D01*
X175212537Y-96966751D01*
X175073249Y-96827463D01*
X174963811Y-96663678D01*
X174888429Y-96481689D01*
X174850000Y-96288491D01*
X174850000Y-96091509D01*
X174888429Y-95898311D01*
X174963811Y-95716322D01*
X175073249Y-95552537D01*
X175212537Y-95413249D01*
X175376322Y-95303811D01*
X175558311Y-95228429D01*
X175651046Y-95209983D01*
X175751507Y-95190000D01*
X175948493Y-95190000D01*
X176048954Y-95209983D01*
G37*
G36*
X121808954Y-95209983D02*
G01*
X121901689Y-95228429D01*
X122083678Y-95303811D01*
X122247463Y-95413249D01*
X122386751Y-95552537D01*
X122496189Y-95716322D01*
X122571571Y-95898311D01*
X122610000Y-96091509D01*
X122610000Y-96288491D01*
X122571571Y-96481689D01*
X122496189Y-96663678D01*
X122386751Y-96827463D01*
X122247463Y-96966751D01*
X122083678Y-97076189D01*
X121901689Y-97151571D01*
X121837290Y-97164381D01*
X121708493Y-97190000D01*
X121511507Y-97190000D01*
X121382710Y-97164381D01*
X121318311Y-97151571D01*
X121136322Y-97076189D01*
X120972537Y-96966751D01*
X120833249Y-96827463D01*
X120723811Y-96663678D01*
X120648429Y-96481689D01*
X120610000Y-96288491D01*
X120610000Y-96091509D01*
X120648429Y-95898311D01*
X120723811Y-95716322D01*
X120833249Y-95552537D01*
X120972537Y-95413249D01*
X121136322Y-95303811D01*
X121318311Y-95228429D01*
X121411046Y-95209983D01*
X121511507Y-95190000D01*
X121708493Y-95190000D01*
X121808954Y-95209983D01*
G37*
G36*
X178588954Y-95209983D02*
G01*
X178681689Y-95228429D01*
X178863678Y-95303811D01*
X179027463Y-95413249D01*
X179166751Y-95552537D01*
X179276189Y-95716322D01*
X179351571Y-95898311D01*
X179390000Y-96091509D01*
X179390000Y-96288491D01*
X179351571Y-96481689D01*
X179276189Y-96663678D01*
X179166751Y-96827463D01*
X179027463Y-96966751D01*
X178863678Y-97076189D01*
X178681689Y-97151571D01*
X178617290Y-97164381D01*
X178488493Y-97190000D01*
X178291507Y-97190000D01*
X178162710Y-97164381D01*
X178098311Y-97151571D01*
X177916322Y-97076189D01*
X177752537Y-96966751D01*
X177613249Y-96827463D01*
X177503811Y-96663678D01*
X177428429Y-96481689D01*
X177390000Y-96288491D01*
X177390000Y-96091509D01*
X177428429Y-95898311D01*
X177503811Y-95716322D01*
X177613249Y-95552537D01*
X177752537Y-95413249D01*
X177916322Y-95303811D01*
X178098311Y-95228429D01*
X178191046Y-95209983D01*
X178291507Y-95190000D01*
X178488493Y-95190000D01*
X178588954Y-95209983D01*
G37*
G36*
X159709468Y-95153565D02*
G01*
X159748138Y-95165296D01*
X159783777Y-95184346D01*
X159815017Y-95209983D01*
X159840654Y-95241223D01*
X159859704Y-95276862D01*
X159871435Y-95315532D01*
X159876000Y-95361888D01*
X159876000Y-96438112D01*
X159871435Y-96484468D01*
X159859704Y-96523138D01*
X159840654Y-96558777D01*
X159815017Y-96590017D01*
X159783777Y-96615654D01*
X159748138Y-96634704D01*
X159709468Y-96646435D01*
X159663112Y-96651000D01*
X159011888Y-96651000D01*
X158965532Y-96646435D01*
X158926862Y-96634704D01*
X158891223Y-96615654D01*
X158859983Y-96590017D01*
X158834346Y-96558777D01*
X158815296Y-96523138D01*
X158803565Y-96484468D01*
X158799000Y-96438112D01*
X158799000Y-95361888D01*
X158803565Y-95315532D01*
X158815296Y-95276862D01*
X158834346Y-95241223D01*
X158859983Y-95209983D01*
X158891223Y-95184346D01*
X158926862Y-95165296D01*
X158965532Y-95153565D01*
X159011888Y-95149000D01*
X159663112Y-95149000D01*
X159709468Y-95153565D01*
G37*
G36*
X157834468Y-95153565D02*
G01*
X157873138Y-95165296D01*
X157908777Y-95184346D01*
X157940017Y-95209983D01*
X157965654Y-95241223D01*
X157984704Y-95276862D01*
X157996435Y-95315532D01*
X158001000Y-95361888D01*
X158001000Y-96438112D01*
X157996435Y-96484468D01*
X157984704Y-96523138D01*
X157965654Y-96558777D01*
X157940017Y-96590017D01*
X157908777Y-96615654D01*
X157873138Y-96634704D01*
X157834468Y-96646435D01*
X157788112Y-96651000D01*
X157136888Y-96651000D01*
X157090532Y-96646435D01*
X157051862Y-96634704D01*
X157016223Y-96615654D01*
X156984983Y-96590017D01*
X156959346Y-96558777D01*
X156940296Y-96523138D01*
X156928565Y-96484468D01*
X156924000Y-96438112D01*
X156924000Y-95361888D01*
X156928565Y-95315532D01*
X156940296Y-95276862D01*
X156959346Y-95241223D01*
X156984983Y-95209983D01*
X157016223Y-95184346D01*
X157051862Y-95165296D01*
X157090532Y-95153565D01*
X157136888Y-95149000D01*
X157788112Y-95149000D01*
X157834468Y-95153565D01*
G37*
G36*
X163209468Y-95153565D02*
G01*
X163248138Y-95165296D01*
X163283777Y-95184346D01*
X163315017Y-95209983D01*
X163340654Y-95241223D01*
X163359704Y-95276862D01*
X163371435Y-95315532D01*
X163376000Y-95361888D01*
X163376000Y-96438112D01*
X163371435Y-96484468D01*
X163359704Y-96523138D01*
X163340654Y-96558777D01*
X163315017Y-96590017D01*
X163283777Y-96615654D01*
X163248138Y-96634704D01*
X163209468Y-96646435D01*
X163163112Y-96651000D01*
X162511888Y-96651000D01*
X162465532Y-96646435D01*
X162426862Y-96634704D01*
X162391223Y-96615654D01*
X162359983Y-96590017D01*
X162334346Y-96558777D01*
X162315296Y-96523138D01*
X162303565Y-96484468D01*
X162299000Y-96438112D01*
X162299000Y-95361888D01*
X162303565Y-95315532D01*
X162315296Y-95276862D01*
X162334346Y-95241223D01*
X162359983Y-95209983D01*
X162391223Y-95184346D01*
X162426862Y-95165296D01*
X162465532Y-95153565D01*
X162511888Y-95149000D01*
X163163112Y-95149000D01*
X163209468Y-95153565D01*
G37*
G36*
X161334468Y-95153565D02*
G01*
X161373138Y-95165296D01*
X161408777Y-95184346D01*
X161440017Y-95209983D01*
X161465654Y-95241223D01*
X161484704Y-95276862D01*
X161496435Y-95315532D01*
X161501000Y-95361888D01*
X161501000Y-96438112D01*
X161496435Y-96484468D01*
X161484704Y-96523138D01*
X161465654Y-96558777D01*
X161440017Y-96590017D01*
X161408777Y-96615654D01*
X161373138Y-96634704D01*
X161334468Y-96646435D01*
X161288112Y-96651000D01*
X160636888Y-96651000D01*
X160590532Y-96646435D01*
X160551862Y-96634704D01*
X160516223Y-96615654D01*
X160484983Y-96590017D01*
X160459346Y-96558777D01*
X160440296Y-96523138D01*
X160428565Y-96484468D01*
X160424000Y-96438112D01*
X160424000Y-95361888D01*
X160428565Y-95315532D01*
X160440296Y-95276862D01*
X160459346Y-95241223D01*
X160484983Y-95209983D01*
X160516223Y-95184346D01*
X160551862Y-95165296D01*
X160590532Y-95153565D01*
X160636888Y-95149000D01*
X161288112Y-95149000D01*
X161334468Y-95153565D01*
G37*
G36*
X167001000Y-95801000D02*
G01*
X166099000Y-95801000D01*
X166099000Y-94799000D01*
X167001000Y-94799000D01*
X167001000Y-95801000D01*
G37*
G36*
X165101000Y-95801000D02*
G01*
X164199000Y-95801000D01*
X164199000Y-94799000D01*
X165101000Y-94799000D01*
X165101000Y-95801000D01*
G37*
G36*
X121837290Y-92675619D02*
G01*
X121901689Y-92688429D01*
X122083678Y-92763811D01*
X122247463Y-92873249D01*
X122386751Y-93012537D01*
X122496189Y-93176322D01*
X122571571Y-93358311D01*
X122610000Y-93551509D01*
X122610000Y-93748491D01*
X122571571Y-93941689D01*
X122496189Y-94123678D01*
X122386751Y-94287463D01*
X122247463Y-94426751D01*
X122083678Y-94536189D01*
X121901689Y-94611571D01*
X121837290Y-94624381D01*
X121708493Y-94650000D01*
X121511507Y-94650000D01*
X121382710Y-94624381D01*
X121318311Y-94611571D01*
X121136322Y-94536189D01*
X120972537Y-94426751D01*
X120833249Y-94287463D01*
X120723811Y-94123678D01*
X120648429Y-93941689D01*
X120610000Y-93748491D01*
X120610000Y-93551509D01*
X120648429Y-93358311D01*
X120723811Y-93176322D01*
X120833249Y-93012537D01*
X120972537Y-92873249D01*
X121136322Y-92763811D01*
X121318311Y-92688429D01*
X121382710Y-92675619D01*
X121511507Y-92650000D01*
X121708493Y-92650000D01*
X121837290Y-92675619D01*
G37*
G36*
X176077290Y-92675619D02*
G01*
X176141689Y-92688429D01*
X176323678Y-92763811D01*
X176487463Y-92873249D01*
X176626751Y-93012537D01*
X176736189Y-93176322D01*
X176811571Y-93358311D01*
X176850000Y-93551509D01*
X176850000Y-93748491D01*
X176811571Y-93941689D01*
X176736189Y-94123678D01*
X176626751Y-94287463D01*
X176487463Y-94426751D01*
X176323678Y-94536189D01*
X176141689Y-94611571D01*
X176077290Y-94624381D01*
X175948493Y-94650000D01*
X175751507Y-94650000D01*
X175622710Y-94624381D01*
X175558311Y-94611571D01*
X175376322Y-94536189D01*
X175212537Y-94426751D01*
X175073249Y-94287463D01*
X174963811Y-94123678D01*
X174888429Y-93941689D01*
X174850000Y-93748491D01*
X174850000Y-93551509D01*
X174888429Y-93358311D01*
X174963811Y-93176322D01*
X175073249Y-93012537D01*
X175212537Y-92873249D01*
X175376322Y-92763811D01*
X175558311Y-92688429D01*
X175622710Y-92675619D01*
X175751507Y-92650000D01*
X175948493Y-92650000D01*
X176077290Y-92675619D01*
G37*
G36*
X178617290Y-92675619D02*
G01*
X178681689Y-92688429D01*
X178863678Y-92763811D01*
X179027463Y-92873249D01*
X179166751Y-93012537D01*
X179276189Y-93176322D01*
X179351571Y-93358311D01*
X179390000Y-93551509D01*
X179390000Y-93748491D01*
X179351571Y-93941689D01*
X179276189Y-94123678D01*
X179166751Y-94287463D01*
X179027463Y-94426751D01*
X178863678Y-94536189D01*
X178681689Y-94611571D01*
X178617290Y-94624381D01*
X178488493Y-94650000D01*
X178291507Y-94650000D01*
X178162710Y-94624381D01*
X178098311Y-94611571D01*
X177916322Y-94536189D01*
X177752537Y-94426751D01*
X177613249Y-94287463D01*
X177503811Y-94123678D01*
X177428429Y-93941689D01*
X177390000Y-93748491D01*
X177390000Y-93551509D01*
X177428429Y-93358311D01*
X177503811Y-93176322D01*
X177613249Y-93012537D01*
X177752537Y-92873249D01*
X177916322Y-92763811D01*
X178098311Y-92688429D01*
X178162710Y-92675619D01*
X178291507Y-92650000D01*
X178488493Y-92650000D01*
X178617290Y-92675619D01*
G37*
G36*
X124377290Y-92675619D02*
G01*
X124441689Y-92688429D01*
X124623678Y-92763811D01*
X124787463Y-92873249D01*
X124926751Y-93012537D01*
X125036189Y-93176322D01*
X125111571Y-93358311D01*
X125150000Y-93551509D01*
X125150000Y-93748491D01*
X125111571Y-93941689D01*
X125036189Y-94123678D01*
X124926751Y-94287463D01*
X124787463Y-94426751D01*
X124623678Y-94536189D01*
X124441689Y-94611571D01*
X124377290Y-94624381D01*
X124248493Y-94650000D01*
X124051507Y-94650000D01*
X123922710Y-94624381D01*
X123858311Y-94611571D01*
X123676322Y-94536189D01*
X123512537Y-94426751D01*
X123373249Y-94287463D01*
X123263811Y-94123678D01*
X123188429Y-93941689D01*
X123150000Y-93748491D01*
X123150000Y-93551509D01*
X123188429Y-93358311D01*
X123263811Y-93176322D01*
X123373249Y-93012537D01*
X123512537Y-92873249D01*
X123676322Y-92763811D01*
X123858311Y-92688429D01*
X123922710Y-92675619D01*
X124051507Y-92650000D01*
X124248493Y-92650000D01*
X124377290Y-92675619D01*
G37*
G36*
X161924571Y-89326794D02*
G01*
X161936192Y-89330319D01*
X161946887Y-89336036D01*
X161959790Y-89346624D01*
X161970698Y-89357534D01*
X161991072Y-89371148D01*
X162013711Y-89380526D01*
X162037744Y-89385308D01*
X162062248Y-89385308D01*
X162086281Y-89380529D01*
X162108921Y-89371152D01*
X162129295Y-89357539D01*
X162140206Y-89346628D01*
X162153113Y-89336036D01*
X162163808Y-89330319D01*
X162175429Y-89326794D01*
X162193641Y-89325000D01*
X162556359Y-89325000D01*
X162574571Y-89326794D01*
X162586192Y-89330319D01*
X162596887Y-89336036D01*
X162609790Y-89346624D01*
X162620698Y-89357534D01*
X162641072Y-89371148D01*
X162663711Y-89380526D01*
X162687744Y-89385308D01*
X162712248Y-89385308D01*
X162736281Y-89380529D01*
X162758921Y-89371152D01*
X162779295Y-89357539D01*
X162790206Y-89346628D01*
X162803113Y-89336036D01*
X162813808Y-89330319D01*
X162825429Y-89326794D01*
X162843641Y-89325000D01*
X163206359Y-89325000D01*
X163224571Y-89326794D01*
X163236192Y-89330319D01*
X163246887Y-89336036D01*
X163259790Y-89346624D01*
X163270698Y-89357534D01*
X163291072Y-89371148D01*
X163313711Y-89380526D01*
X163337744Y-89385308D01*
X163362248Y-89385308D01*
X163386281Y-89380529D01*
X163408921Y-89371152D01*
X163429295Y-89357539D01*
X163440206Y-89346628D01*
X163453113Y-89336036D01*
X163463808Y-89330319D01*
X163475429Y-89326794D01*
X163493641Y-89325000D01*
X163856359Y-89325000D01*
X163874571Y-89326794D01*
X163886192Y-89330319D01*
X163896887Y-89336036D01*
X163906267Y-89343733D01*
X163913964Y-89353113D01*
X163919681Y-89363808D01*
X163923206Y-89375429D01*
X163925000Y-89393641D01*
X163925000Y-90225001D01*
X163927402Y-90249387D01*
X163934515Y-90272836D01*
X163946066Y-90294447D01*
X163961611Y-90313389D01*
X163980553Y-90328934D01*
X164002164Y-90340485D01*
X164025613Y-90347598D01*
X164049999Y-90350000D01*
X164150000Y-90350000D01*
X164150000Y-90450001D01*
X164152402Y-90474387D01*
X164159515Y-90497836D01*
X164171066Y-90519447D01*
X164186611Y-90538389D01*
X164205553Y-90553934D01*
X164227164Y-90565485D01*
X164250613Y-90572598D01*
X164274999Y-90575000D01*
X165106359Y-90575000D01*
X165124571Y-90576794D01*
X165136192Y-90580319D01*
X165146887Y-90586036D01*
X165156267Y-90593733D01*
X165163964Y-90603113D01*
X165169681Y-90613808D01*
X165173206Y-90625429D01*
X165175000Y-90643641D01*
X165175000Y-91006359D01*
X165173206Y-91024571D01*
X165169681Y-91036192D01*
X165163964Y-91046887D01*
X165153376Y-91059790D01*
X165142466Y-91070698D01*
X165128852Y-91091072D01*
X165119474Y-91113711D01*
X165114692Y-91137744D01*
X165114692Y-91162248D01*
X165119471Y-91186281D01*
X165128848Y-91208921D01*
X165142461Y-91229295D01*
X165153372Y-91240206D01*
X165163964Y-91253113D01*
X165169681Y-91263808D01*
X165173206Y-91275429D01*
X165175000Y-91293641D01*
X165175000Y-91656359D01*
X165173206Y-91674571D01*
X165169681Y-91686192D01*
X165163964Y-91696887D01*
X165153376Y-91709790D01*
X165142466Y-91720698D01*
X165128852Y-91741072D01*
X165119474Y-91763711D01*
X165114692Y-91787744D01*
X165114692Y-91812248D01*
X165119471Y-91836281D01*
X165128848Y-91858921D01*
X165142461Y-91879295D01*
X165153372Y-91890206D01*
X165163964Y-91903113D01*
X165169681Y-91913808D01*
X165173206Y-91925429D01*
X165175000Y-91943641D01*
X165175000Y-92306359D01*
X165173206Y-92324571D01*
X165169681Y-92336192D01*
X165163964Y-92346887D01*
X165153376Y-92359790D01*
X165142466Y-92370698D01*
X165128852Y-92391072D01*
X165119474Y-92413711D01*
X165114692Y-92437744D01*
X165114692Y-92462248D01*
X165119471Y-92486281D01*
X165128848Y-92508921D01*
X165142461Y-92529295D01*
X165153372Y-92540206D01*
X165163964Y-92553113D01*
X165169681Y-92563808D01*
X165173206Y-92575429D01*
X165175000Y-92593641D01*
X165175000Y-92956359D01*
X165173206Y-92974571D01*
X165169681Y-92986192D01*
X165163964Y-92996887D01*
X165156267Y-93006267D01*
X165146887Y-93013964D01*
X165136192Y-93019681D01*
X165124571Y-93023206D01*
X165106359Y-93025000D01*
X164274999Y-93025000D01*
X164250613Y-93027402D01*
X164227164Y-93034515D01*
X164205553Y-93046066D01*
X164186611Y-93061611D01*
X164171066Y-93080553D01*
X164159515Y-93102164D01*
X164152402Y-93125613D01*
X164150000Y-93149999D01*
X164150000Y-93250000D01*
X164049999Y-93250000D01*
X164025613Y-93252402D01*
X164002164Y-93259515D01*
X163980553Y-93271066D01*
X163961611Y-93286611D01*
X163946066Y-93305553D01*
X163934515Y-93327164D01*
X163927402Y-93350613D01*
X163925000Y-93374999D01*
X163925000Y-94206359D01*
X163923206Y-94224571D01*
X163919681Y-94236192D01*
X163913964Y-94246887D01*
X163906267Y-94256267D01*
X163896887Y-94263964D01*
X163886192Y-94269681D01*
X163874571Y-94273206D01*
X163856359Y-94275000D01*
X163493641Y-94275000D01*
X163475429Y-94273206D01*
X163463808Y-94269681D01*
X163453113Y-94263964D01*
X163440210Y-94253376D01*
X163429302Y-94242466D01*
X163408928Y-94228852D01*
X163386289Y-94219474D01*
X163362256Y-94214692D01*
X163337752Y-94214692D01*
X163313719Y-94219471D01*
X163291079Y-94228848D01*
X163270705Y-94242461D01*
X163259794Y-94253372D01*
X163246887Y-94263964D01*
X163236192Y-94269681D01*
X163224571Y-94273206D01*
X163206359Y-94275000D01*
X162843641Y-94275000D01*
X162825429Y-94273206D01*
X162813808Y-94269681D01*
X162803113Y-94263964D01*
X162790210Y-94253376D01*
X162779302Y-94242466D01*
X162758928Y-94228852D01*
X162736289Y-94219474D01*
X162712256Y-94214692D01*
X162687752Y-94214692D01*
X162663719Y-94219471D01*
X162641079Y-94228848D01*
X162620705Y-94242461D01*
X162609794Y-94253372D01*
X162596887Y-94263964D01*
X162586192Y-94269681D01*
X162574571Y-94273206D01*
X162556359Y-94275000D01*
X162193641Y-94275000D01*
X162175429Y-94273206D01*
X162163808Y-94269681D01*
X162153113Y-94263964D01*
X162140210Y-94253376D01*
X162129302Y-94242466D01*
X162108928Y-94228852D01*
X162086289Y-94219474D01*
X162062256Y-94214692D01*
X162037752Y-94214692D01*
X162013719Y-94219471D01*
X161991079Y-94228848D01*
X161970705Y-94242461D01*
X161959794Y-94253372D01*
X161946887Y-94263964D01*
X161936192Y-94269681D01*
X161924571Y-94273206D01*
X161906359Y-94275000D01*
X161543641Y-94275000D01*
X161525429Y-94273206D01*
X161513808Y-94269681D01*
X161503113Y-94263964D01*
X161493733Y-94256267D01*
X161486036Y-94246887D01*
X161480319Y-94236192D01*
X161476794Y-94224571D01*
X161475000Y-94206359D01*
X161475000Y-93374999D01*
X161472598Y-93350613D01*
X161465485Y-93327164D01*
X161453934Y-93305553D01*
X161438389Y-93286611D01*
X161419447Y-93271066D01*
X161397836Y-93259515D01*
X161374387Y-93252402D01*
X161350001Y-93250000D01*
X161250000Y-93250000D01*
X161250000Y-93149999D01*
X161247598Y-93125613D01*
X161240485Y-93102164D01*
X161228934Y-93080553D01*
X161213389Y-93061611D01*
X161194447Y-93046066D01*
X161172836Y-93034515D01*
X161149387Y-93027402D01*
X161125001Y-93025000D01*
X160293641Y-93025000D01*
X160275429Y-93023206D01*
X160263808Y-93019681D01*
X160253113Y-93013964D01*
X160243733Y-93006267D01*
X160236036Y-92996887D01*
X160230319Y-92986192D01*
X160226794Y-92974571D01*
X160225000Y-92956359D01*
X160225000Y-92593641D01*
X160226794Y-92575429D01*
X160230319Y-92563808D01*
X160236036Y-92553113D01*
X160246624Y-92540210D01*
X160257534Y-92529302D01*
X160271148Y-92508928D01*
X160280526Y-92486289D01*
X160285308Y-92462256D01*
X160285308Y-92437752D01*
X160280529Y-92413719D01*
X160271152Y-92391079D01*
X160257539Y-92370705D01*
X160246628Y-92359794D01*
X160236036Y-92346887D01*
X160230319Y-92336192D01*
X160226794Y-92324571D01*
X160225000Y-92306359D01*
X160225000Y-91943641D01*
X160226794Y-91925429D01*
X160230319Y-91913808D01*
X160236036Y-91903113D01*
X160246624Y-91890210D01*
X160257534Y-91879302D01*
X160271148Y-91858928D01*
X160280526Y-91836289D01*
X160285308Y-91812256D01*
X160285308Y-91787752D01*
X160280529Y-91763719D01*
X160271152Y-91741079D01*
X160257539Y-91720705D01*
X160246628Y-91709794D01*
X160236036Y-91696887D01*
X160230319Y-91686192D01*
X160226794Y-91674571D01*
X160225000Y-91656359D01*
X160225000Y-91293641D01*
X160226794Y-91275429D01*
X160230319Y-91263808D01*
X160236036Y-91253113D01*
X160246624Y-91240210D01*
X160257534Y-91229302D01*
X160271148Y-91208928D01*
X160280526Y-91186289D01*
X160285308Y-91162256D01*
X160285308Y-91137752D01*
X160280529Y-91113719D01*
X160271152Y-91091079D01*
X160257539Y-91070705D01*
X160246628Y-91059794D01*
X160236036Y-91046887D01*
X160230319Y-91036192D01*
X160226794Y-91024571D01*
X160225000Y-91006359D01*
X160225000Y-90643641D01*
X160226794Y-90625429D01*
X160230319Y-90613808D01*
X160236036Y-90603113D01*
X160243733Y-90593733D01*
X160253113Y-90586036D01*
X160263808Y-90580319D01*
X160275429Y-90576794D01*
X160293641Y-90575000D01*
X161125001Y-90575000D01*
X161149387Y-90572598D01*
X161172836Y-90565485D01*
X161194447Y-90553934D01*
X161213389Y-90538389D01*
X161228934Y-90519447D01*
X161240485Y-90497836D01*
X161247598Y-90474387D01*
X161250000Y-90450001D01*
X161250000Y-90350000D01*
X161350001Y-90350000D01*
X161374387Y-90347598D01*
X161397836Y-90340485D01*
X161419447Y-90328934D01*
X161438389Y-90313389D01*
X161453934Y-90294447D01*
X161465485Y-90272836D01*
X161472598Y-90249387D01*
X161475000Y-90225001D01*
X161475000Y-89393641D01*
X161476794Y-89375429D01*
X161480319Y-89363808D01*
X161486036Y-89353113D01*
X161493733Y-89343733D01*
X161503113Y-89336036D01*
X161513808Y-89330319D01*
X161525429Y-89326794D01*
X161543641Y-89325000D01*
X161906359Y-89325000D01*
X161924571Y-89326794D01*
G37*
G36*
X167584468Y-92203565D02*
G01*
X167623138Y-92215296D01*
X167658777Y-92234346D01*
X167690017Y-92259983D01*
X167715654Y-92291223D01*
X167734704Y-92326862D01*
X167746435Y-92365532D01*
X167751000Y-92411888D01*
X167751000Y-93063112D01*
X167746435Y-93109468D01*
X167734704Y-93148138D01*
X167715654Y-93183777D01*
X167690017Y-93215017D01*
X167658777Y-93240654D01*
X167623138Y-93259704D01*
X167584468Y-93271435D01*
X167538112Y-93276000D01*
X166461888Y-93276000D01*
X166415532Y-93271435D01*
X166376862Y-93259704D01*
X166341223Y-93240654D01*
X166309983Y-93215017D01*
X166284346Y-93183777D01*
X166265296Y-93148138D01*
X166253565Y-93109468D01*
X166249000Y-93063112D01*
X166249000Y-92411888D01*
X166253565Y-92365532D01*
X166265296Y-92326862D01*
X166284346Y-92291223D01*
X166309983Y-92259983D01*
X166341223Y-92234346D01*
X166376862Y-92215296D01*
X166415532Y-92203565D01*
X166461888Y-92199000D01*
X167538112Y-92199000D01*
X167584468Y-92203565D01*
G37*
G36*
X158701000Y-92456000D02*
G01*
X153099000Y-92456000D01*
X153099000Y-90204000D01*
X158701000Y-90204000D01*
X158701000Y-92456000D01*
G37*
G36*
X176077290Y-90135619D02*
G01*
X176141689Y-90148429D01*
X176323678Y-90223811D01*
X176487463Y-90333249D01*
X176626751Y-90472537D01*
X176736189Y-90636322D01*
X176806782Y-90806750D01*
X176811571Y-90818312D01*
X176850000Y-91011507D01*
X176850000Y-91208493D01*
X176835666Y-91280554D01*
X176811571Y-91401689D01*
X176736189Y-91583678D01*
X176626751Y-91747463D01*
X176487463Y-91886751D01*
X176323678Y-91996189D01*
X176141689Y-92071571D01*
X176077290Y-92084381D01*
X175948493Y-92110000D01*
X175751507Y-92110000D01*
X175622710Y-92084381D01*
X175558311Y-92071571D01*
X175376322Y-91996189D01*
X175212537Y-91886751D01*
X175073249Y-91747463D01*
X174963811Y-91583678D01*
X174888429Y-91401689D01*
X174864334Y-91280554D01*
X174850000Y-91208493D01*
X174850000Y-91011507D01*
X174888429Y-90818312D01*
X174893218Y-90806750D01*
X174963811Y-90636322D01*
X175073249Y-90472537D01*
X175212537Y-90333249D01*
X175376322Y-90223811D01*
X175558311Y-90148429D01*
X175622710Y-90135619D01*
X175751507Y-90110000D01*
X175948493Y-90110000D01*
X176077290Y-90135619D01*
G37*
G36*
X178617290Y-90135619D02*
G01*
X178681689Y-90148429D01*
X178863678Y-90223811D01*
X179027463Y-90333249D01*
X179166751Y-90472537D01*
X179276189Y-90636322D01*
X179346782Y-90806750D01*
X179351571Y-90818312D01*
X179390000Y-91011507D01*
X179390000Y-91208493D01*
X179375666Y-91280554D01*
X179351571Y-91401689D01*
X179276189Y-91583678D01*
X179166751Y-91747463D01*
X179027463Y-91886751D01*
X178863678Y-91996189D01*
X178681689Y-92071571D01*
X178617290Y-92084381D01*
X178488493Y-92110000D01*
X178291507Y-92110000D01*
X178162710Y-92084381D01*
X178098311Y-92071571D01*
X177916322Y-91996189D01*
X177752537Y-91886751D01*
X177613249Y-91747463D01*
X177503811Y-91583678D01*
X177428429Y-91401689D01*
X177404334Y-91280554D01*
X177390000Y-91208493D01*
X177390000Y-91011507D01*
X177428429Y-90818312D01*
X177433218Y-90806750D01*
X177503811Y-90636322D01*
X177613249Y-90472537D01*
X177752537Y-90333249D01*
X177916322Y-90223811D01*
X178098311Y-90148429D01*
X178162710Y-90135619D01*
X178291507Y-90110000D01*
X178488493Y-90110000D01*
X178617290Y-90135619D01*
G37*
G36*
X121837290Y-90135619D02*
G01*
X121901689Y-90148429D01*
X122083678Y-90223811D01*
X122247463Y-90333249D01*
X122386751Y-90472537D01*
X122496189Y-90636322D01*
X122566782Y-90806750D01*
X122571571Y-90818312D01*
X122610000Y-91011507D01*
X122610000Y-91208493D01*
X122595666Y-91280554D01*
X122571571Y-91401689D01*
X122496189Y-91583678D01*
X122386751Y-91747463D01*
X122247463Y-91886751D01*
X122083678Y-91996189D01*
X121901689Y-92071571D01*
X121837290Y-92084381D01*
X121708493Y-92110000D01*
X121511507Y-92110000D01*
X121382710Y-92084381D01*
X121318311Y-92071571D01*
X121136322Y-91996189D01*
X120972537Y-91886751D01*
X120833249Y-91747463D01*
X120723811Y-91583678D01*
X120648429Y-91401689D01*
X120624334Y-91280554D01*
X120610000Y-91208493D01*
X120610000Y-91011507D01*
X120648429Y-90818312D01*
X120653218Y-90806750D01*
X120723811Y-90636322D01*
X120833249Y-90472537D01*
X120972537Y-90333249D01*
X121136322Y-90223811D01*
X121318311Y-90148429D01*
X121382710Y-90135619D01*
X121511507Y-90110000D01*
X121708493Y-90110000D01*
X121837290Y-90135619D01*
G37*
G36*
X124377290Y-90135619D02*
G01*
X124441689Y-90148429D01*
X124623678Y-90223811D01*
X124787463Y-90333249D01*
X124926751Y-90472537D01*
X125036189Y-90636322D01*
X125106782Y-90806750D01*
X125111571Y-90818312D01*
X125150000Y-91011507D01*
X125150000Y-91208493D01*
X125135666Y-91280554D01*
X125111571Y-91401689D01*
X125036189Y-91583678D01*
X124926751Y-91747463D01*
X124787463Y-91886751D01*
X124623678Y-91996189D01*
X124441689Y-92071571D01*
X124377290Y-92084381D01*
X124248493Y-92110000D01*
X124051507Y-92110000D01*
X123922710Y-92084381D01*
X123858311Y-92071571D01*
X123676322Y-91996189D01*
X123512537Y-91886751D01*
X123373249Y-91747463D01*
X123263811Y-91583678D01*
X123188429Y-91401689D01*
X123164334Y-91280554D01*
X123150000Y-91208493D01*
X123150000Y-91011507D01*
X123188429Y-90818312D01*
X123193218Y-90806750D01*
X123263811Y-90636322D01*
X123373249Y-90472537D01*
X123512537Y-90333249D01*
X123676322Y-90223811D01*
X123858311Y-90148429D01*
X123922710Y-90135619D01*
X124051507Y-90110000D01*
X124248493Y-90110000D01*
X124377290Y-90135619D01*
G37*
G36*
X167584468Y-90328565D02*
G01*
X167623138Y-90340296D01*
X167658777Y-90359346D01*
X167690017Y-90384983D01*
X167715654Y-90416223D01*
X167734704Y-90451862D01*
X167746435Y-90490532D01*
X167751000Y-90536888D01*
X167751000Y-91188112D01*
X167746435Y-91234468D01*
X167734704Y-91273138D01*
X167715654Y-91308777D01*
X167690017Y-91340017D01*
X167658777Y-91365654D01*
X167623138Y-91384704D01*
X167584468Y-91396435D01*
X167538112Y-91401000D01*
X166461888Y-91401000D01*
X166415532Y-91396435D01*
X166376862Y-91384704D01*
X166341223Y-91365654D01*
X166309983Y-91340017D01*
X166284346Y-91308777D01*
X166265296Y-91273138D01*
X166253565Y-91234468D01*
X166249000Y-91188112D01*
X166249000Y-90536888D01*
X166253565Y-90490532D01*
X166265296Y-90451862D01*
X166284346Y-90416223D01*
X166309983Y-90384983D01*
X166341223Y-90359346D01*
X166376862Y-90340296D01*
X166415532Y-90328565D01*
X166461888Y-90324000D01*
X167538112Y-90324000D01*
X167584468Y-90328565D01*
G37*
G36*
X169584468Y-90003565D02*
G01*
X169623138Y-90015296D01*
X169658777Y-90034346D01*
X169690017Y-90059983D01*
X169715654Y-90091223D01*
X169734704Y-90126862D01*
X169746435Y-90165532D01*
X169751000Y-90211888D01*
X169751000Y-90863112D01*
X169746435Y-90909468D01*
X169734704Y-90948138D01*
X169715654Y-90983777D01*
X169690017Y-91015017D01*
X169658777Y-91040654D01*
X169623138Y-91059704D01*
X169584468Y-91071435D01*
X169538112Y-91076000D01*
X168461888Y-91076000D01*
X168415532Y-91071435D01*
X168376862Y-91059704D01*
X168341223Y-91040654D01*
X168309983Y-91015017D01*
X168284346Y-90983777D01*
X168265296Y-90948138D01*
X168253565Y-90909468D01*
X168249000Y-90863112D01*
X168249000Y-90211888D01*
X168253565Y-90165532D01*
X168265296Y-90126862D01*
X168284346Y-90091223D01*
X168309983Y-90059983D01*
X168341223Y-90034346D01*
X168376862Y-90015296D01*
X168415532Y-90003565D01*
X168461888Y-89999000D01*
X169538112Y-89999000D01*
X169584468Y-90003565D01*
G37*
G36*
X121837290Y-87595619D02*
G01*
X121901689Y-87608429D01*
X122083678Y-87683811D01*
X122247463Y-87793249D01*
X122386751Y-87932537D01*
X122496189Y-88096322D01*
X122571571Y-88278311D01*
X122571571Y-88278312D01*
X122610000Y-88471507D01*
X122610000Y-88668493D01*
X122595646Y-88740654D01*
X122571571Y-88861689D01*
X122496189Y-89043678D01*
X122386751Y-89207463D01*
X122247463Y-89346751D01*
X122083678Y-89456189D01*
X121901689Y-89531571D01*
X121837290Y-89544381D01*
X121708493Y-89570000D01*
X121511507Y-89570000D01*
X121382710Y-89544381D01*
X121318311Y-89531571D01*
X121136322Y-89456189D01*
X120972537Y-89346751D01*
X120833249Y-89207463D01*
X120723811Y-89043678D01*
X120648429Y-88861689D01*
X120624354Y-88740654D01*
X120610000Y-88668493D01*
X120610000Y-88471507D01*
X120648429Y-88278312D01*
X120648429Y-88278311D01*
X120723811Y-88096322D01*
X120833249Y-87932537D01*
X120972537Y-87793249D01*
X121136322Y-87683811D01*
X121318311Y-87608429D01*
X121382710Y-87595619D01*
X121511507Y-87570000D01*
X121708493Y-87570000D01*
X121837290Y-87595619D01*
G37*
G36*
X124377290Y-87595619D02*
G01*
X124441689Y-87608429D01*
X124623678Y-87683811D01*
X124787463Y-87793249D01*
X124926751Y-87932537D01*
X125036189Y-88096322D01*
X125111571Y-88278311D01*
X125111571Y-88278312D01*
X125150000Y-88471507D01*
X125150000Y-88668493D01*
X125135646Y-88740654D01*
X125111571Y-88861689D01*
X125036189Y-89043678D01*
X124926751Y-89207463D01*
X124787463Y-89346751D01*
X124623678Y-89456189D01*
X124441689Y-89531571D01*
X124377290Y-89544381D01*
X124248493Y-89570000D01*
X124051507Y-89570000D01*
X123922710Y-89544381D01*
X123858311Y-89531571D01*
X123676322Y-89456189D01*
X123512537Y-89346751D01*
X123373249Y-89207463D01*
X123263811Y-89043678D01*
X123188429Y-88861689D01*
X123164354Y-88740654D01*
X123150000Y-88668493D01*
X123150000Y-88471507D01*
X123188429Y-88278312D01*
X123188429Y-88278311D01*
X123263811Y-88096322D01*
X123373249Y-87932537D01*
X123512537Y-87793249D01*
X123676322Y-87683811D01*
X123858311Y-87608429D01*
X123922710Y-87595619D01*
X124051507Y-87570000D01*
X124248493Y-87570000D01*
X124377290Y-87595619D01*
G37*
G36*
X176077290Y-87595619D02*
G01*
X176141689Y-87608429D01*
X176323678Y-87683811D01*
X176487463Y-87793249D01*
X176626751Y-87932537D01*
X176736189Y-88096322D01*
X176811571Y-88278311D01*
X176811571Y-88278312D01*
X176850000Y-88471507D01*
X176850000Y-88668493D01*
X176835646Y-88740654D01*
X176811571Y-88861689D01*
X176736189Y-89043678D01*
X176626751Y-89207463D01*
X176487463Y-89346751D01*
X176323678Y-89456189D01*
X176141689Y-89531571D01*
X176077290Y-89544381D01*
X175948493Y-89570000D01*
X175751507Y-89570000D01*
X175622710Y-89544381D01*
X175558311Y-89531571D01*
X175376322Y-89456189D01*
X175212537Y-89346751D01*
X175073249Y-89207463D01*
X174963811Y-89043678D01*
X174888429Y-88861689D01*
X174864354Y-88740654D01*
X174850000Y-88668493D01*
X174850000Y-88471507D01*
X174888429Y-88278312D01*
X174888429Y-88278311D01*
X174963811Y-88096322D01*
X175073249Y-87932537D01*
X175212537Y-87793249D01*
X175376322Y-87683811D01*
X175558311Y-87608429D01*
X175622710Y-87595619D01*
X175751507Y-87570000D01*
X175948493Y-87570000D01*
X176077290Y-87595619D01*
G37*
G36*
X178617290Y-87595619D02*
G01*
X178681689Y-87608429D01*
X178863678Y-87683811D01*
X179027463Y-87793249D01*
X179166751Y-87932537D01*
X179276189Y-88096322D01*
X179351571Y-88278311D01*
X179351571Y-88278312D01*
X179390000Y-88471507D01*
X179390000Y-88668493D01*
X179375646Y-88740654D01*
X179351571Y-88861689D01*
X179276189Y-89043678D01*
X179166751Y-89207463D01*
X179027463Y-89346751D01*
X178863678Y-89456189D01*
X178681689Y-89531571D01*
X178617290Y-89544381D01*
X178488493Y-89570000D01*
X178291507Y-89570000D01*
X178162710Y-89544381D01*
X178098311Y-89531571D01*
X177916322Y-89456189D01*
X177752537Y-89346751D01*
X177613249Y-89207463D01*
X177503811Y-89043678D01*
X177428429Y-88861689D01*
X177404354Y-88740654D01*
X177390000Y-88668493D01*
X177390000Y-88471507D01*
X177428429Y-88278312D01*
X177428429Y-88278311D01*
X177503811Y-88096322D01*
X177613249Y-87932537D01*
X177752537Y-87793249D01*
X177916322Y-87683811D01*
X178098311Y-87608429D01*
X178162710Y-87595619D01*
X178291507Y-87570000D01*
X178488493Y-87570000D01*
X178617290Y-87595619D01*
G37*
G36*
X167284468Y-88303565D02*
G01*
X167323138Y-88315296D01*
X167358777Y-88334346D01*
X167390017Y-88359983D01*
X167415654Y-88391223D01*
X167434704Y-88426862D01*
X167446435Y-88465532D01*
X167451000Y-88511888D01*
X167451000Y-89163112D01*
X167446435Y-89209468D01*
X167434704Y-89248138D01*
X167415654Y-89283777D01*
X167390017Y-89315017D01*
X167358777Y-89340654D01*
X167323138Y-89359704D01*
X167284468Y-89371435D01*
X167238112Y-89376000D01*
X166161888Y-89376000D01*
X166115532Y-89371435D01*
X166076862Y-89359704D01*
X166041223Y-89340654D01*
X166009983Y-89315017D01*
X165984346Y-89283777D01*
X165965296Y-89248138D01*
X165953565Y-89209468D01*
X165949000Y-89163112D01*
X165949000Y-88511888D01*
X165953565Y-88465532D01*
X165965296Y-88426862D01*
X165984346Y-88391223D01*
X166009983Y-88359983D01*
X166041223Y-88334346D01*
X166076862Y-88315296D01*
X166115532Y-88303565D01*
X166161888Y-88299000D01*
X167238112Y-88299000D01*
X167284468Y-88303565D01*
G37*
G36*
X169584468Y-88128565D02*
G01*
X169623138Y-88140296D01*
X169658777Y-88159346D01*
X169690017Y-88184983D01*
X169715654Y-88216223D01*
X169734704Y-88251862D01*
X169746435Y-88290532D01*
X169751000Y-88336888D01*
X169751000Y-88988112D01*
X169746435Y-89034468D01*
X169734704Y-89073138D01*
X169715654Y-89108777D01*
X169690017Y-89140017D01*
X169658777Y-89165654D01*
X169623138Y-89184704D01*
X169584468Y-89196435D01*
X169538112Y-89201000D01*
X168461888Y-89201000D01*
X168415532Y-89196435D01*
X168376862Y-89184704D01*
X168341223Y-89165654D01*
X168309983Y-89140017D01*
X168284346Y-89108777D01*
X168265296Y-89073138D01*
X168253565Y-89034468D01*
X168249000Y-88988112D01*
X168249000Y-88336888D01*
X168253565Y-88290532D01*
X168265296Y-88251862D01*
X168284346Y-88216223D01*
X168309983Y-88184983D01*
X168341223Y-88159346D01*
X168376862Y-88140296D01*
X168415532Y-88128565D01*
X168461888Y-88124000D01*
X169538112Y-88124000D01*
X169584468Y-88128565D01*
G37*
G36*
X163084468Y-87703565D02*
G01*
X163123138Y-87715296D01*
X163158777Y-87734346D01*
X163190017Y-87759983D01*
X163215654Y-87791223D01*
X163234704Y-87826862D01*
X163246435Y-87865532D01*
X163251000Y-87911888D01*
X163251000Y-88563112D01*
X163246435Y-88609468D01*
X163234704Y-88648138D01*
X163215654Y-88683777D01*
X163190017Y-88715017D01*
X163158777Y-88740654D01*
X163123138Y-88759704D01*
X163084468Y-88771435D01*
X163038112Y-88776000D01*
X161961888Y-88776000D01*
X161915532Y-88771435D01*
X161876862Y-88759704D01*
X161841223Y-88740654D01*
X161809983Y-88715017D01*
X161784346Y-88683777D01*
X161765296Y-88648138D01*
X161753565Y-88609468D01*
X161749000Y-88563112D01*
X161749000Y-87911888D01*
X161753565Y-87865532D01*
X161765296Y-87826862D01*
X161784346Y-87791223D01*
X161809983Y-87759983D01*
X161841223Y-87734346D01*
X161876862Y-87715296D01*
X161915532Y-87703565D01*
X161961888Y-87699000D01*
X163038112Y-87699000D01*
X163084468Y-87703565D01*
G37*
G36*
X158701000Y-88596000D02*
G01*
X153099000Y-88596000D01*
X153099000Y-86344000D01*
X158701000Y-86344000D01*
X158701000Y-88596000D01*
G37*
G36*
X167284468Y-86428565D02*
G01*
X167323138Y-86440296D01*
X167358777Y-86459346D01*
X167390017Y-86484983D01*
X167415654Y-86516223D01*
X167434704Y-86551862D01*
X167446435Y-86590532D01*
X167451000Y-86636888D01*
X167451000Y-87288112D01*
X167446435Y-87334468D01*
X167434704Y-87373138D01*
X167415654Y-87408777D01*
X167390017Y-87440017D01*
X167358777Y-87465654D01*
X167323138Y-87484704D01*
X167284468Y-87496435D01*
X167238112Y-87501000D01*
X166161888Y-87501000D01*
X166115532Y-87496435D01*
X166076862Y-87484704D01*
X166041223Y-87465654D01*
X166009983Y-87440017D01*
X165984346Y-87408777D01*
X165965296Y-87373138D01*
X165953565Y-87334468D01*
X165949000Y-87288112D01*
X165949000Y-86636888D01*
X165953565Y-86590532D01*
X165965296Y-86551862D01*
X165984346Y-86516223D01*
X166009983Y-86484983D01*
X166041223Y-86459346D01*
X166076862Y-86440296D01*
X166115532Y-86428565D01*
X166161888Y-86424000D01*
X167238112Y-86424000D01*
X167284468Y-86428565D01*
G37*
G36*
X176077290Y-85055619D02*
G01*
X176141689Y-85068429D01*
X176323678Y-85143811D01*
X176487463Y-85253249D01*
X176626751Y-85392537D01*
X176736189Y-85556322D01*
X176811571Y-85738311D01*
X176811571Y-85738312D01*
X176846960Y-85916223D01*
X176850000Y-85931509D01*
X176850000Y-86128491D01*
X176811571Y-86321689D01*
X176736189Y-86503678D01*
X176626751Y-86667463D01*
X176487463Y-86806751D01*
X176323678Y-86916189D01*
X176141689Y-86991571D01*
X176077290Y-87004381D01*
X175948493Y-87030000D01*
X175751507Y-87030000D01*
X175622710Y-87004381D01*
X175558311Y-86991571D01*
X175376322Y-86916189D01*
X175212537Y-86806751D01*
X175073249Y-86667463D01*
X174963811Y-86503678D01*
X174888429Y-86321689D01*
X174850000Y-86128491D01*
X174850000Y-85931509D01*
X174853041Y-85916223D01*
X174888429Y-85738312D01*
X174888429Y-85738311D01*
X174963811Y-85556322D01*
X175073249Y-85392537D01*
X175212537Y-85253249D01*
X175376322Y-85143811D01*
X175558311Y-85068429D01*
X175622710Y-85055619D01*
X175751507Y-85030000D01*
X175948493Y-85030000D01*
X176077290Y-85055619D01*
G37*
G36*
X124377290Y-85055619D02*
G01*
X124441689Y-85068429D01*
X124623678Y-85143811D01*
X124787463Y-85253249D01*
X124926751Y-85392537D01*
X125036189Y-85556322D01*
X125111571Y-85738311D01*
X125111571Y-85738312D01*
X125146960Y-85916223D01*
X125150000Y-85931509D01*
X125150000Y-86128491D01*
X125111571Y-86321689D01*
X125036189Y-86503678D01*
X124926751Y-86667463D01*
X124787463Y-86806751D01*
X124623678Y-86916189D01*
X124441689Y-86991571D01*
X124377290Y-87004381D01*
X124248493Y-87030000D01*
X124051507Y-87030000D01*
X123922710Y-87004381D01*
X123858311Y-86991571D01*
X123676322Y-86916189D01*
X123512537Y-86806751D01*
X123373249Y-86667463D01*
X123263811Y-86503678D01*
X123188429Y-86321689D01*
X123150000Y-86128491D01*
X123150000Y-85931509D01*
X123153041Y-85916223D01*
X123188429Y-85738312D01*
X123188429Y-85738311D01*
X123263811Y-85556322D01*
X123373249Y-85392537D01*
X123512537Y-85253249D01*
X123676322Y-85143811D01*
X123858311Y-85068429D01*
X123922710Y-85055619D01*
X124051507Y-85030000D01*
X124248493Y-85030000D01*
X124377290Y-85055619D01*
G37*
G36*
X121837290Y-85055619D02*
G01*
X121901689Y-85068429D01*
X122083678Y-85143811D01*
X122247463Y-85253249D01*
X122386751Y-85392537D01*
X122496189Y-85556322D01*
X122571571Y-85738311D01*
X122571571Y-85738312D01*
X122606960Y-85916223D01*
X122610000Y-85931509D01*
X122610000Y-86128491D01*
X122571571Y-86321689D01*
X122496189Y-86503678D01*
X122386751Y-86667463D01*
X122247463Y-86806751D01*
X122083678Y-86916189D01*
X121901689Y-86991571D01*
X121837290Y-87004381D01*
X121708493Y-87030000D01*
X121511507Y-87030000D01*
X121382710Y-87004381D01*
X121318311Y-86991571D01*
X121136322Y-86916189D01*
X120972537Y-86806751D01*
X120833249Y-86667463D01*
X120723811Y-86503678D01*
X120648429Y-86321689D01*
X120610000Y-86128491D01*
X120610000Y-85931509D01*
X120613041Y-85916223D01*
X120648429Y-85738312D01*
X120648429Y-85738311D01*
X120723811Y-85556322D01*
X120833249Y-85392537D01*
X120972537Y-85253249D01*
X121136322Y-85143811D01*
X121318311Y-85068429D01*
X121382710Y-85055619D01*
X121511507Y-85030000D01*
X121708493Y-85030000D01*
X121837290Y-85055619D01*
G37*
G36*
X178617290Y-85055619D02*
G01*
X178681689Y-85068429D01*
X178863678Y-85143811D01*
X179027463Y-85253249D01*
X179166751Y-85392537D01*
X179276189Y-85556322D01*
X179351571Y-85738311D01*
X179351571Y-85738312D01*
X179386960Y-85916223D01*
X179390000Y-85931509D01*
X179390000Y-86128491D01*
X179351571Y-86321689D01*
X179276189Y-86503678D01*
X179166751Y-86667463D01*
X179027463Y-86806751D01*
X178863678Y-86916189D01*
X178681689Y-86991571D01*
X178617290Y-87004381D01*
X178488493Y-87030000D01*
X178291507Y-87030000D01*
X178162710Y-87004381D01*
X178098311Y-86991571D01*
X177916322Y-86916189D01*
X177752537Y-86806751D01*
X177613249Y-86667463D01*
X177503811Y-86503678D01*
X177428429Y-86321689D01*
X177390000Y-86128491D01*
X177390000Y-85931509D01*
X177393041Y-85916223D01*
X177428429Y-85738312D01*
X177428429Y-85738311D01*
X177503811Y-85556322D01*
X177613249Y-85392537D01*
X177752537Y-85253249D01*
X177916322Y-85143811D01*
X178098311Y-85068429D01*
X178162710Y-85055619D01*
X178291507Y-85030000D01*
X178488493Y-85030000D01*
X178617290Y-85055619D01*
G37*
G36*
X163084468Y-85828565D02*
G01*
X163123138Y-85840296D01*
X163158777Y-85859346D01*
X163190017Y-85884983D01*
X163215654Y-85916223D01*
X163234704Y-85951862D01*
X163246435Y-85990532D01*
X163251000Y-86036888D01*
X163251000Y-86688112D01*
X163246435Y-86734468D01*
X163234704Y-86773138D01*
X163215654Y-86808777D01*
X163190017Y-86840017D01*
X163158777Y-86865654D01*
X163123138Y-86884704D01*
X163084468Y-86896435D01*
X163038112Y-86901000D01*
X161961888Y-86901000D01*
X161915532Y-86896435D01*
X161876862Y-86884704D01*
X161841223Y-86865654D01*
X161809983Y-86840017D01*
X161784346Y-86808777D01*
X161765296Y-86773138D01*
X161753565Y-86734468D01*
X161749000Y-86688112D01*
X161749000Y-86036888D01*
X161753565Y-85990532D01*
X161765296Y-85951862D01*
X161784346Y-85916223D01*
X161809983Y-85884983D01*
X161841223Y-85859346D01*
X161876862Y-85840296D01*
X161915532Y-85828565D01*
X161961888Y-85824000D01*
X163038112Y-85824000D01*
X163084468Y-85828565D01*
G37*
G36*
X159734468Y-83553565D02*
G01*
X159773138Y-83565296D01*
X159808777Y-83584346D01*
X159840017Y-83609983D01*
X159865654Y-83641223D01*
X159884704Y-83676862D01*
X159896435Y-83715532D01*
X159901000Y-83761888D01*
X159901000Y-84838112D01*
X159896435Y-84884468D01*
X159884704Y-84923138D01*
X159865654Y-84958777D01*
X159840017Y-84990017D01*
X159808777Y-85015654D01*
X159773138Y-85034704D01*
X159734468Y-85046435D01*
X159688112Y-85051000D01*
X159036888Y-85051000D01*
X158990532Y-85046435D01*
X158951862Y-85034704D01*
X158916223Y-85015654D01*
X158884983Y-84990017D01*
X158859346Y-84958777D01*
X158840296Y-84923138D01*
X158828565Y-84884468D01*
X158824000Y-84838112D01*
X158824000Y-83761888D01*
X158828565Y-83715532D01*
X158840296Y-83676862D01*
X158859346Y-83641223D01*
X158884983Y-83609983D01*
X158916223Y-83584346D01*
X158951862Y-83565296D01*
X158990532Y-83553565D01*
X159036888Y-83549000D01*
X159688112Y-83549000D01*
X159734468Y-83553565D01*
G37*
G36*
X161609468Y-83553565D02*
G01*
X161648138Y-83565296D01*
X161683777Y-83584346D01*
X161715017Y-83609983D01*
X161740654Y-83641223D01*
X161759704Y-83676862D01*
X161771435Y-83715532D01*
X161776000Y-83761888D01*
X161776000Y-84838112D01*
X161771435Y-84884468D01*
X161759704Y-84923138D01*
X161740654Y-84958777D01*
X161715017Y-84990017D01*
X161683777Y-85015654D01*
X161648138Y-85034704D01*
X161609468Y-85046435D01*
X161563112Y-85051000D01*
X160911888Y-85051000D01*
X160865532Y-85046435D01*
X160826862Y-85034704D01*
X160791223Y-85015654D01*
X160759983Y-84990017D01*
X160734346Y-84958777D01*
X160715296Y-84923138D01*
X160703565Y-84884468D01*
X160699000Y-84838112D01*
X160699000Y-83761888D01*
X160703565Y-83715532D01*
X160715296Y-83676862D01*
X160734346Y-83641223D01*
X160759983Y-83609983D01*
X160791223Y-83584346D01*
X160826862Y-83565296D01*
X160865532Y-83553565D01*
X160911888Y-83549000D01*
X161563112Y-83549000D01*
X161609468Y-83553565D01*
G37*
G36*
X163834468Y-83553565D02*
G01*
X163873138Y-83565296D01*
X163908777Y-83584346D01*
X163940017Y-83609983D01*
X163965654Y-83641223D01*
X163984704Y-83676862D01*
X163996435Y-83715532D01*
X164001000Y-83761888D01*
X164001000Y-84838112D01*
X163996435Y-84884468D01*
X163984704Y-84923138D01*
X163965654Y-84958777D01*
X163940017Y-84990017D01*
X163908777Y-85015654D01*
X163873138Y-85034704D01*
X163834468Y-85046435D01*
X163788112Y-85051000D01*
X163136888Y-85051000D01*
X163090532Y-85046435D01*
X163051862Y-85034704D01*
X163016223Y-85015654D01*
X162984983Y-84990017D01*
X162959346Y-84958777D01*
X162940296Y-84923138D01*
X162928565Y-84884468D01*
X162924000Y-84838112D01*
X162924000Y-83761888D01*
X162928565Y-83715532D01*
X162940296Y-83676862D01*
X162959346Y-83641223D01*
X162984983Y-83609983D01*
X163016223Y-83584346D01*
X163051862Y-83565296D01*
X163090532Y-83553565D01*
X163136888Y-83549000D01*
X163788112Y-83549000D01*
X163834468Y-83553565D01*
G37*
G36*
X165709468Y-83553565D02*
G01*
X165748138Y-83565296D01*
X165783777Y-83584346D01*
X165815017Y-83609983D01*
X165840654Y-83641223D01*
X165859704Y-83676862D01*
X165871435Y-83715532D01*
X165876000Y-83761888D01*
X165876000Y-84838112D01*
X165871435Y-84884468D01*
X165859704Y-84923138D01*
X165840654Y-84958777D01*
X165815017Y-84990017D01*
X165783777Y-85015654D01*
X165748138Y-85034704D01*
X165709468Y-85046435D01*
X165663112Y-85051000D01*
X165011888Y-85051000D01*
X164965532Y-85046435D01*
X164926862Y-85034704D01*
X164891223Y-85015654D01*
X164859983Y-84990017D01*
X164834346Y-84958777D01*
X164815296Y-84923138D01*
X164803565Y-84884468D01*
X164799000Y-84838112D01*
X164799000Y-83761888D01*
X164803565Y-83715532D01*
X164815296Y-83676862D01*
X164834346Y-83641223D01*
X164859983Y-83609983D01*
X164891223Y-83584346D01*
X164926862Y-83565296D01*
X164965532Y-83553565D01*
X165011888Y-83549000D01*
X165663112Y-83549000D01*
X165709468Y-83553565D01*
G37*
G36*
X124377290Y-82515619D02*
G01*
X124441689Y-82528429D01*
X124623678Y-82603811D01*
X124787463Y-82713249D01*
X124926751Y-82852537D01*
X125036189Y-83016322D01*
X125111571Y-83198311D01*
X125111571Y-83198312D01*
X125150000Y-83391507D01*
X125150000Y-83588493D01*
X125145725Y-83609983D01*
X125111571Y-83781689D01*
X125036189Y-83963678D01*
X124926751Y-84127463D01*
X124787463Y-84266751D01*
X124623678Y-84376189D01*
X124441689Y-84451571D01*
X124377290Y-84464381D01*
X124248493Y-84490000D01*
X124051507Y-84490000D01*
X123922710Y-84464381D01*
X123858311Y-84451571D01*
X123676322Y-84376189D01*
X123512537Y-84266751D01*
X123373249Y-84127463D01*
X123263811Y-83963678D01*
X123188429Y-83781689D01*
X123154275Y-83609983D01*
X123150000Y-83588493D01*
X123150000Y-83391507D01*
X123188429Y-83198312D01*
X123188429Y-83198311D01*
X123263811Y-83016322D01*
X123373249Y-82852537D01*
X123512537Y-82713249D01*
X123676322Y-82603811D01*
X123858311Y-82528429D01*
X123922710Y-82515619D01*
X124051507Y-82490000D01*
X124248493Y-82490000D01*
X124377290Y-82515619D01*
G37*
G36*
X121837290Y-82515619D02*
G01*
X121901689Y-82528429D01*
X122083678Y-82603811D01*
X122247463Y-82713249D01*
X122386751Y-82852537D01*
X122496189Y-83016322D01*
X122571571Y-83198311D01*
X122571571Y-83198312D01*
X122610000Y-83391507D01*
X122610000Y-83588493D01*
X122605725Y-83609983D01*
X122571571Y-83781689D01*
X122496189Y-83963678D01*
X122386751Y-84127463D01*
X122247463Y-84266751D01*
X122083678Y-84376189D01*
X121901689Y-84451571D01*
X121837290Y-84464381D01*
X121708493Y-84490000D01*
X121511507Y-84490000D01*
X121382710Y-84464381D01*
X121318311Y-84451571D01*
X121136322Y-84376189D01*
X120972537Y-84266751D01*
X120833249Y-84127463D01*
X120723811Y-83963678D01*
X120648429Y-83781689D01*
X120614275Y-83609983D01*
X120610000Y-83588493D01*
X120610000Y-83391507D01*
X120648429Y-83198312D01*
X120648429Y-83198311D01*
X120723811Y-83016322D01*
X120833249Y-82852537D01*
X120972537Y-82713249D01*
X121136322Y-82603811D01*
X121318311Y-82528429D01*
X121382710Y-82515619D01*
X121511507Y-82490000D01*
X121708493Y-82490000D01*
X121837290Y-82515619D01*
G37*
G36*
X176077290Y-82515619D02*
G01*
X176141689Y-82528429D01*
X176323678Y-82603811D01*
X176487463Y-82713249D01*
X176626751Y-82852537D01*
X176736189Y-83016322D01*
X176811571Y-83198311D01*
X176811571Y-83198312D01*
X176850000Y-83391507D01*
X176850000Y-83588493D01*
X176845725Y-83609983D01*
X176811571Y-83781689D01*
X176736189Y-83963678D01*
X176626751Y-84127463D01*
X176487463Y-84266751D01*
X176323678Y-84376189D01*
X176141689Y-84451571D01*
X176077290Y-84464381D01*
X175948493Y-84490000D01*
X175751507Y-84490000D01*
X175622710Y-84464381D01*
X175558311Y-84451571D01*
X175376322Y-84376189D01*
X175212537Y-84266751D01*
X175073249Y-84127463D01*
X174963811Y-83963678D01*
X174888429Y-83781689D01*
X174854275Y-83609983D01*
X174850000Y-83588493D01*
X174850000Y-83391507D01*
X174888429Y-83198312D01*
X174888429Y-83198311D01*
X174963811Y-83016322D01*
X175073249Y-82852537D01*
X175212537Y-82713249D01*
X175376322Y-82603811D01*
X175558311Y-82528429D01*
X175622710Y-82515619D01*
X175751507Y-82490000D01*
X175948493Y-82490000D01*
X176077290Y-82515619D01*
G37*
G36*
X178617290Y-82515619D02*
G01*
X178681689Y-82528429D01*
X178863678Y-82603811D01*
X179027463Y-82713249D01*
X179166751Y-82852537D01*
X179276189Y-83016322D01*
X179351571Y-83198311D01*
X179351571Y-83198312D01*
X179390000Y-83391507D01*
X179390000Y-83588493D01*
X179385725Y-83609983D01*
X179351571Y-83781689D01*
X179276189Y-83963678D01*
X179166751Y-84127463D01*
X179027463Y-84266751D01*
X178863678Y-84376189D01*
X178681689Y-84451571D01*
X178617290Y-84464381D01*
X178488493Y-84490000D01*
X178291507Y-84490000D01*
X178162710Y-84464381D01*
X178098311Y-84451571D01*
X177916322Y-84376189D01*
X177752537Y-84266751D01*
X177613249Y-84127463D01*
X177503811Y-83963678D01*
X177428429Y-83781689D01*
X177394275Y-83609983D01*
X177390000Y-83588493D01*
X177390000Y-83391507D01*
X177428429Y-83198312D01*
X177428429Y-83198311D01*
X177503811Y-83016322D01*
X177613249Y-82852537D01*
X177752537Y-82713249D01*
X177916322Y-82603811D01*
X178098311Y-82528429D01*
X178162710Y-82515619D01*
X178291507Y-82490000D01*
X178488493Y-82490000D01*
X178617290Y-82515619D01*
G37*
G36*
X157984468Y-82203565D02*
G01*
X158023138Y-82215296D01*
X158058777Y-82234346D01*
X158090017Y-82259983D01*
X158115654Y-82291223D01*
X158134704Y-82326862D01*
X158146435Y-82365532D01*
X158151000Y-82411888D01*
X158151000Y-83063112D01*
X158146435Y-83109468D01*
X158134704Y-83148138D01*
X158115654Y-83183777D01*
X158090017Y-83215017D01*
X158058777Y-83240654D01*
X158023138Y-83259704D01*
X157984468Y-83271435D01*
X157938112Y-83276000D01*
X156861888Y-83276000D01*
X156815532Y-83271435D01*
X156776862Y-83259704D01*
X156741223Y-83240654D01*
X156709983Y-83215017D01*
X156684346Y-83183777D01*
X156665296Y-83148138D01*
X156653565Y-83109468D01*
X156649000Y-83063112D01*
X156649000Y-82411888D01*
X156653565Y-82365532D01*
X156665296Y-82326862D01*
X156684346Y-82291223D01*
X156709983Y-82259983D01*
X156741223Y-82234346D01*
X156776862Y-82215296D01*
X156815532Y-82203565D01*
X156861888Y-82199000D01*
X157938112Y-82199000D01*
X157984468Y-82203565D01*
G37*
G36*
X170584468Y-81803565D02*
G01*
X170623138Y-81815296D01*
X170658777Y-81834346D01*
X170690017Y-81859983D01*
X170715654Y-81891223D01*
X170734704Y-81926862D01*
X170746435Y-81965532D01*
X170751000Y-82011888D01*
X170751000Y-82663112D01*
X170746435Y-82709468D01*
X170734704Y-82748138D01*
X170715654Y-82783777D01*
X170690017Y-82815017D01*
X170658777Y-82840654D01*
X170623138Y-82859704D01*
X170584468Y-82871435D01*
X170538112Y-82876000D01*
X169461888Y-82876000D01*
X169415532Y-82871435D01*
X169376862Y-82859704D01*
X169341223Y-82840654D01*
X169309983Y-82815017D01*
X169284346Y-82783777D01*
X169265296Y-82748138D01*
X169253565Y-82709468D01*
X169249000Y-82663112D01*
X169249000Y-82011888D01*
X169253565Y-81965532D01*
X169265296Y-81926862D01*
X169284346Y-81891223D01*
X169309983Y-81859983D01*
X169341223Y-81834346D01*
X169376862Y-81815296D01*
X169415532Y-81803565D01*
X169461888Y-81799000D01*
X170538112Y-81799000D01*
X170584468Y-81803565D01*
G37*
G36*
X161684637Y-77026554D02*
G01*
X161696972Y-77030296D01*
X161713711Y-77037230D01*
X161737744Y-77042012D01*
X161762248Y-77042013D01*
X161786281Y-77037233D01*
X161803027Y-77030296D01*
X161815363Y-77026554D01*
X161831143Y-77025000D01*
X162168857Y-77025000D01*
X162184637Y-77026554D01*
X162196972Y-77030296D01*
X162213711Y-77037230D01*
X162237744Y-77042012D01*
X162262248Y-77042013D01*
X162286281Y-77037233D01*
X162303027Y-77030296D01*
X162315363Y-77026554D01*
X162331143Y-77025000D01*
X162668857Y-77025000D01*
X162684637Y-77026554D01*
X162696972Y-77030296D01*
X162713711Y-77037230D01*
X162737744Y-77042012D01*
X162762248Y-77042013D01*
X162786281Y-77037233D01*
X162803027Y-77030296D01*
X162815363Y-77026554D01*
X162831143Y-77025000D01*
X163168857Y-77025000D01*
X163184637Y-77026554D01*
X163196972Y-77030296D01*
X163213711Y-77037230D01*
X163237744Y-77042012D01*
X163262248Y-77042013D01*
X163286281Y-77037233D01*
X163303027Y-77030296D01*
X163315363Y-77026554D01*
X163331143Y-77025000D01*
X163668857Y-77025000D01*
X163684637Y-77026554D01*
X163693902Y-77029365D01*
X163702442Y-77033930D01*
X163709927Y-77040073D01*
X163716070Y-77047558D01*
X163720635Y-77056098D01*
X163723446Y-77065363D01*
X163725000Y-77081143D01*
X163725000Y-78075001D01*
X163727402Y-78099387D01*
X163734515Y-78122836D01*
X163746066Y-78144447D01*
X163761611Y-78163389D01*
X163780553Y-78178934D01*
X163802164Y-78190485D01*
X163807804Y-78192196D01*
X163809515Y-78197836D01*
X163821066Y-78219447D01*
X163836611Y-78238389D01*
X163855553Y-78253934D01*
X163877164Y-78265485D01*
X163900613Y-78272598D01*
X163924999Y-78275000D01*
X164918857Y-78275000D01*
X164934637Y-78276554D01*
X164943902Y-78279365D01*
X164952442Y-78283930D01*
X164959927Y-78290073D01*
X164966070Y-78297558D01*
X164970635Y-78306098D01*
X164973446Y-78315363D01*
X164975000Y-78331143D01*
X164975000Y-78668857D01*
X164973446Y-78684637D01*
X164969704Y-78696972D01*
X164962770Y-78713711D01*
X164957988Y-78737744D01*
X164957987Y-78762248D01*
X164962767Y-78786281D01*
X164969704Y-78803027D01*
X164973446Y-78815363D01*
X164975000Y-78831143D01*
X164975000Y-79168857D01*
X164973446Y-79184637D01*
X164969704Y-79196972D01*
X164962770Y-79213711D01*
X164957988Y-79237744D01*
X164957987Y-79262248D01*
X164962767Y-79286281D01*
X164969704Y-79303027D01*
X164973446Y-79315363D01*
X164975000Y-79331143D01*
X164975000Y-79668857D01*
X164973446Y-79684637D01*
X164969704Y-79696972D01*
X164962770Y-79713711D01*
X164957988Y-79737744D01*
X164957987Y-79762248D01*
X164962767Y-79786281D01*
X164969704Y-79803027D01*
X164973446Y-79815363D01*
X164975000Y-79831143D01*
X164975000Y-80168857D01*
X164973446Y-80184637D01*
X164969704Y-80196972D01*
X164962770Y-80213711D01*
X164957988Y-80237744D01*
X164957987Y-80262248D01*
X164962767Y-80286281D01*
X164969704Y-80303027D01*
X164973446Y-80315363D01*
X164975000Y-80331143D01*
X164975000Y-80668857D01*
X164973446Y-80684637D01*
X164970635Y-80693902D01*
X164966070Y-80702442D01*
X164959927Y-80709927D01*
X164952442Y-80716070D01*
X164943902Y-80720635D01*
X164934637Y-80723446D01*
X164918857Y-80725000D01*
X163924999Y-80725000D01*
X163900613Y-80727402D01*
X163877164Y-80734515D01*
X163855553Y-80746066D01*
X163836611Y-80761611D01*
X163821066Y-80780553D01*
X163809515Y-80802164D01*
X163807804Y-80807804D01*
X163802164Y-80809515D01*
X163780553Y-80821066D01*
X163761611Y-80836611D01*
X163746066Y-80855553D01*
X163734515Y-80877164D01*
X163727402Y-80900613D01*
X163725000Y-80924999D01*
X163725000Y-81918857D01*
X163723446Y-81934637D01*
X163720635Y-81943902D01*
X163716070Y-81952442D01*
X163709927Y-81959927D01*
X163702442Y-81966070D01*
X163693902Y-81970635D01*
X163684637Y-81973446D01*
X163668857Y-81975000D01*
X163331143Y-81975000D01*
X163315363Y-81973446D01*
X163303028Y-81969704D01*
X163286289Y-81962770D01*
X163262256Y-81957988D01*
X163237752Y-81957987D01*
X163213719Y-81962767D01*
X163196973Y-81969704D01*
X163184637Y-81973446D01*
X163168857Y-81975000D01*
X162831143Y-81975000D01*
X162815363Y-81973446D01*
X162803028Y-81969704D01*
X162786289Y-81962770D01*
X162762256Y-81957988D01*
X162737752Y-81957987D01*
X162713719Y-81962767D01*
X162696973Y-81969704D01*
X162684637Y-81973446D01*
X162668857Y-81975000D01*
X162331143Y-81975000D01*
X162315363Y-81973446D01*
X162303028Y-81969704D01*
X162286289Y-81962770D01*
X162262256Y-81957988D01*
X162237752Y-81957987D01*
X162213719Y-81962767D01*
X162196973Y-81969704D01*
X162184637Y-81973446D01*
X162168857Y-81975000D01*
X161831143Y-81975000D01*
X161815363Y-81973446D01*
X161803028Y-81969704D01*
X161786289Y-81962770D01*
X161762256Y-81957988D01*
X161737752Y-81957987D01*
X161713719Y-81962767D01*
X161696973Y-81969704D01*
X161684637Y-81973446D01*
X161668857Y-81975000D01*
X161331143Y-81975000D01*
X161315363Y-81973446D01*
X161306098Y-81970635D01*
X161297558Y-81966070D01*
X161290073Y-81959927D01*
X161283930Y-81952442D01*
X161279365Y-81943902D01*
X161276554Y-81934637D01*
X161275000Y-81918857D01*
X161275000Y-80924999D01*
X161272598Y-80900613D01*
X161265485Y-80877164D01*
X161253934Y-80855553D01*
X161238389Y-80836611D01*
X161219447Y-80821066D01*
X161197836Y-80809515D01*
X161192196Y-80807804D01*
X161190485Y-80802164D01*
X161178934Y-80780553D01*
X161163389Y-80761611D01*
X161144447Y-80746066D01*
X161122836Y-80734515D01*
X161099387Y-80727402D01*
X161075001Y-80725000D01*
X160081143Y-80725000D01*
X160065363Y-80723446D01*
X160056098Y-80720635D01*
X160047558Y-80716070D01*
X160040073Y-80709927D01*
X160033930Y-80702442D01*
X160029365Y-80693902D01*
X160026554Y-80684637D01*
X160025000Y-80668857D01*
X160025000Y-80331143D01*
X160026554Y-80315363D01*
X160030296Y-80303028D01*
X160037230Y-80286289D01*
X160042012Y-80262256D01*
X160042013Y-80237752D01*
X160037233Y-80213719D01*
X160030296Y-80196973D01*
X160026554Y-80184637D01*
X160025000Y-80168857D01*
X160025000Y-79831143D01*
X160026554Y-79815363D01*
X160030296Y-79803028D01*
X160037230Y-79786289D01*
X160042012Y-79762256D01*
X160042013Y-79737752D01*
X160037233Y-79713719D01*
X160030296Y-79696973D01*
X160026554Y-79684637D01*
X160025000Y-79668857D01*
X160025000Y-79331143D01*
X160026554Y-79315363D01*
X160030296Y-79303028D01*
X160037230Y-79286289D01*
X160042012Y-79262256D01*
X160042013Y-79237752D01*
X160037233Y-79213719D01*
X160030296Y-79196973D01*
X160026554Y-79184637D01*
X160025000Y-79168857D01*
X160025000Y-78831143D01*
X160026554Y-78815363D01*
X160030296Y-78803028D01*
X160037230Y-78786289D01*
X160042012Y-78762256D01*
X160042013Y-78737752D01*
X160037233Y-78713719D01*
X160030296Y-78696973D01*
X160026554Y-78684637D01*
X160025000Y-78668857D01*
X160025000Y-78331143D01*
X160026554Y-78315363D01*
X160029365Y-78306098D01*
X160033930Y-78297558D01*
X160040073Y-78290073D01*
X160047558Y-78283930D01*
X160056098Y-78279365D01*
X160065363Y-78276554D01*
X160081143Y-78275000D01*
X161075001Y-78275000D01*
X161099387Y-78272598D01*
X161122836Y-78265485D01*
X161144447Y-78253934D01*
X161163389Y-78238389D01*
X161178934Y-78219447D01*
X161190485Y-78197836D01*
X161192196Y-78192196D01*
X161197836Y-78190485D01*
X161219447Y-78178934D01*
X161238389Y-78163389D01*
X161253934Y-78144447D01*
X161265485Y-78122836D01*
X161272598Y-78099387D01*
X161275000Y-78075001D01*
X161275000Y-77081143D01*
X161276554Y-77065363D01*
X161279365Y-77056098D01*
X161283930Y-77047558D01*
X161290073Y-77040073D01*
X161297558Y-77033930D01*
X161306098Y-77029365D01*
X161315363Y-77026554D01*
X161331143Y-77025000D01*
X161668857Y-77025000D01*
X161684637Y-77026554D01*
G37*
G36*
X124345907Y-79969377D02*
G01*
X124441689Y-79988429D01*
X124623678Y-80063811D01*
X124787463Y-80173249D01*
X124926751Y-80312537D01*
X125036189Y-80476322D01*
X125111571Y-80658311D01*
X125118282Y-80692050D01*
X125149700Y-80849998D01*
X125150000Y-80851509D01*
X125150000Y-81048491D01*
X125111571Y-81241689D01*
X125036189Y-81423678D01*
X124926751Y-81587463D01*
X124787463Y-81726751D01*
X124623678Y-81836189D01*
X124441689Y-81911571D01*
X124405059Y-81918857D01*
X124248493Y-81950000D01*
X124051507Y-81950000D01*
X123894941Y-81918857D01*
X123858311Y-81911571D01*
X123676322Y-81836189D01*
X123512537Y-81726751D01*
X123373249Y-81587463D01*
X123263811Y-81423678D01*
X123188429Y-81241689D01*
X123150000Y-81048491D01*
X123150000Y-80851509D01*
X123150301Y-80849998D01*
X123181718Y-80692050D01*
X123188429Y-80658311D01*
X123263811Y-80476322D01*
X123373249Y-80312537D01*
X123512537Y-80173249D01*
X123676322Y-80063811D01*
X123858311Y-79988429D01*
X123954093Y-79969377D01*
X124051507Y-79950000D01*
X124248493Y-79950000D01*
X124345907Y-79969377D01*
G37*
G36*
X176045907Y-79969377D02*
G01*
X176141689Y-79988429D01*
X176323678Y-80063811D01*
X176487463Y-80173249D01*
X176626751Y-80312537D01*
X176736189Y-80476322D01*
X176811571Y-80658311D01*
X176818282Y-80692050D01*
X176849700Y-80849998D01*
X176850000Y-80851509D01*
X176850000Y-81048491D01*
X176811571Y-81241689D01*
X176736189Y-81423678D01*
X176626751Y-81587463D01*
X176487463Y-81726751D01*
X176323678Y-81836189D01*
X176141689Y-81911571D01*
X176105059Y-81918857D01*
X175948493Y-81950000D01*
X175751507Y-81950000D01*
X175594941Y-81918857D01*
X175558311Y-81911571D01*
X175376322Y-81836189D01*
X175212537Y-81726751D01*
X175073249Y-81587463D01*
X174963811Y-81423678D01*
X174888429Y-81241689D01*
X174850000Y-81048491D01*
X174850000Y-80851509D01*
X174850301Y-80849998D01*
X174881718Y-80692050D01*
X174888429Y-80658311D01*
X174963811Y-80476322D01*
X175073249Y-80312537D01*
X175212537Y-80173249D01*
X175376322Y-80063811D01*
X175558311Y-79988429D01*
X175654093Y-79969377D01*
X175751507Y-79950000D01*
X175948493Y-79950000D01*
X176045907Y-79969377D01*
G37*
G36*
X178585907Y-79969377D02*
G01*
X178681689Y-79988429D01*
X178863678Y-80063811D01*
X179027463Y-80173249D01*
X179166751Y-80312537D01*
X179276189Y-80476322D01*
X179351571Y-80658311D01*
X179358282Y-80692050D01*
X179389700Y-80849998D01*
X179390000Y-80851509D01*
X179390000Y-81048491D01*
X179351571Y-81241689D01*
X179276189Y-81423678D01*
X179166751Y-81587463D01*
X179027463Y-81726751D01*
X178863678Y-81836189D01*
X178681689Y-81911571D01*
X178645059Y-81918857D01*
X178488493Y-81950000D01*
X178291507Y-81950000D01*
X178134941Y-81918857D01*
X178098311Y-81911571D01*
X177916322Y-81836189D01*
X177752537Y-81726751D01*
X177613249Y-81587463D01*
X177503811Y-81423678D01*
X177428429Y-81241689D01*
X177390000Y-81048491D01*
X177390000Y-80851509D01*
X177390301Y-80849998D01*
X177421718Y-80692050D01*
X177428429Y-80658311D01*
X177503811Y-80476322D01*
X177613249Y-80312537D01*
X177752537Y-80173249D01*
X177916322Y-80063811D01*
X178098311Y-79988429D01*
X178194093Y-79969377D01*
X178291507Y-79950000D01*
X178488493Y-79950000D01*
X178585907Y-79969377D01*
G37*
G36*
X121805907Y-79969377D02*
G01*
X121901689Y-79988429D01*
X122083678Y-80063811D01*
X122247463Y-80173249D01*
X122386751Y-80312537D01*
X122496189Y-80476322D01*
X122571571Y-80658311D01*
X122578282Y-80692050D01*
X122609700Y-80849998D01*
X122610000Y-80851509D01*
X122610000Y-81048491D01*
X122571571Y-81241689D01*
X122496189Y-81423678D01*
X122386751Y-81587463D01*
X122247463Y-81726751D01*
X122083678Y-81836189D01*
X121901689Y-81911571D01*
X121865059Y-81918857D01*
X121708493Y-81950000D01*
X121511507Y-81950000D01*
X121354941Y-81918857D01*
X121318311Y-81911571D01*
X121136322Y-81836189D01*
X120972537Y-81726751D01*
X120833249Y-81587463D01*
X120723811Y-81423678D01*
X120648429Y-81241689D01*
X120610000Y-81048491D01*
X120610000Y-80851509D01*
X120610301Y-80849998D01*
X120641718Y-80692050D01*
X120648429Y-80658311D01*
X120723811Y-80476322D01*
X120833249Y-80312537D01*
X120972537Y-80173249D01*
X121136322Y-80063811D01*
X121318311Y-79988429D01*
X121414093Y-79969377D01*
X121511507Y-79950000D01*
X121708493Y-79950000D01*
X121805907Y-79969377D01*
G37*
G36*
X157984468Y-80328565D02*
G01*
X158023138Y-80340296D01*
X158058777Y-80359346D01*
X158090017Y-80384983D01*
X158115654Y-80416223D01*
X158134704Y-80451862D01*
X158146435Y-80490532D01*
X158151000Y-80536888D01*
X158151000Y-81188112D01*
X158146435Y-81234468D01*
X158134704Y-81273138D01*
X158115654Y-81308777D01*
X158090017Y-81340017D01*
X158058777Y-81365654D01*
X158023138Y-81384704D01*
X157984468Y-81396435D01*
X157938112Y-81401000D01*
X156861888Y-81401000D01*
X156815532Y-81396435D01*
X156776862Y-81384704D01*
X156741223Y-81365654D01*
X156709983Y-81340017D01*
X156684346Y-81308777D01*
X156665296Y-81273138D01*
X156653565Y-81234468D01*
X156649000Y-81188112D01*
X156649000Y-80536888D01*
X156653565Y-80490532D01*
X156665296Y-80451862D01*
X156684346Y-80416223D01*
X156709983Y-80384983D01*
X156741223Y-80359346D01*
X156776862Y-80340296D01*
X156815532Y-80328565D01*
X156861888Y-80324000D01*
X157938112Y-80324000D01*
X157984468Y-80328565D01*
G37*
G36*
X170584468Y-79928565D02*
G01*
X170623138Y-79940296D01*
X170658777Y-79959346D01*
X170690017Y-79984983D01*
X170715654Y-80016223D01*
X170734704Y-80051862D01*
X170746435Y-80090532D01*
X170751000Y-80136888D01*
X170751000Y-80788112D01*
X170746435Y-80834468D01*
X170734704Y-80873138D01*
X170715654Y-80908777D01*
X170690017Y-80940017D01*
X170658777Y-80965654D01*
X170623138Y-80984704D01*
X170584468Y-80996435D01*
X170538112Y-81001000D01*
X169461888Y-81001000D01*
X169415532Y-80996435D01*
X169376862Y-80984704D01*
X169341223Y-80965654D01*
X169309983Y-80940017D01*
X169284346Y-80908777D01*
X169265296Y-80873138D01*
X169253565Y-80834468D01*
X169249000Y-80788112D01*
X169249000Y-80136888D01*
X169253565Y-80090532D01*
X169265296Y-80051862D01*
X169284346Y-80016223D01*
X169309983Y-79984983D01*
X169341223Y-79959346D01*
X169376862Y-79940296D01*
X169415532Y-79928565D01*
X169461888Y-79924000D01*
X170538112Y-79924000D01*
X170584468Y-79928565D01*
G37*
G36*
X158584468Y-78403565D02*
G01*
X158623138Y-78415296D01*
X158658777Y-78434346D01*
X158690017Y-78459983D01*
X158715654Y-78491223D01*
X158734704Y-78526862D01*
X158746435Y-78565532D01*
X158751000Y-78611888D01*
X158751000Y-79263112D01*
X158746435Y-79309468D01*
X158734704Y-79348138D01*
X158715654Y-79383777D01*
X158690017Y-79415017D01*
X158658777Y-79440654D01*
X158623138Y-79459704D01*
X158584468Y-79471435D01*
X158538112Y-79476000D01*
X157461888Y-79476000D01*
X157415532Y-79471435D01*
X157376862Y-79459704D01*
X157341223Y-79440654D01*
X157309983Y-79415017D01*
X157284346Y-79383777D01*
X157265296Y-79348138D01*
X157253565Y-79309468D01*
X157249000Y-79263112D01*
X157249000Y-78611888D01*
X157253565Y-78565532D01*
X157265296Y-78526862D01*
X157284346Y-78491223D01*
X157309983Y-78459983D01*
X157341223Y-78434346D01*
X157376862Y-78415296D01*
X157415532Y-78403565D01*
X157461888Y-78399000D01*
X158538112Y-78399000D01*
X158584468Y-78403565D01*
G37*
G36*
X176073110Y-77434788D02*
G01*
X176141689Y-77448429D01*
X176323678Y-77523811D01*
X176487463Y-77633249D01*
X176626751Y-77772537D01*
X176736189Y-77936322D01*
X176811571Y-78118311D01*
X176816770Y-78144447D01*
X176848830Y-78305623D01*
X176850000Y-78311509D01*
X176850000Y-78508491D01*
X176811571Y-78701689D01*
X176736189Y-78883678D01*
X176626751Y-79047463D01*
X176487463Y-79186751D01*
X176323678Y-79296189D01*
X176141689Y-79371571D01*
X176077290Y-79384381D01*
X175948493Y-79410000D01*
X175751507Y-79410000D01*
X175622710Y-79384381D01*
X175558311Y-79371571D01*
X175376322Y-79296189D01*
X175212537Y-79186751D01*
X175073249Y-79047463D01*
X174963811Y-78883678D01*
X174888429Y-78701689D01*
X174850000Y-78508491D01*
X174850000Y-78311509D01*
X174851171Y-78305623D01*
X174883230Y-78144447D01*
X174888429Y-78118311D01*
X174963811Y-77936322D01*
X175073249Y-77772537D01*
X175212537Y-77633249D01*
X175376322Y-77523811D01*
X175558311Y-77448429D01*
X175626890Y-77434788D01*
X175751507Y-77410000D01*
X175948493Y-77410000D01*
X176073110Y-77434788D01*
G37*
G36*
X178613110Y-77434788D02*
G01*
X178681689Y-77448429D01*
X178863678Y-77523811D01*
X179027463Y-77633249D01*
X179166751Y-77772537D01*
X179276189Y-77936322D01*
X179351571Y-78118311D01*
X179356770Y-78144447D01*
X179388830Y-78305623D01*
X179390000Y-78311509D01*
X179390000Y-78508491D01*
X179351571Y-78701689D01*
X179276189Y-78883678D01*
X179166751Y-79047463D01*
X179027463Y-79186751D01*
X178863678Y-79296189D01*
X178681689Y-79371571D01*
X178617290Y-79384381D01*
X178488493Y-79410000D01*
X178291507Y-79410000D01*
X178162710Y-79384381D01*
X178098311Y-79371571D01*
X177916322Y-79296189D01*
X177752537Y-79186751D01*
X177613249Y-79047463D01*
X177503811Y-78883678D01*
X177428429Y-78701689D01*
X177390000Y-78508491D01*
X177390000Y-78311509D01*
X177391171Y-78305623D01*
X177423230Y-78144447D01*
X177428429Y-78118311D01*
X177503811Y-77936322D01*
X177613249Y-77772537D01*
X177752537Y-77633249D01*
X177916322Y-77523811D01*
X178098311Y-77448429D01*
X178166890Y-77434788D01*
X178291507Y-77410000D01*
X178488493Y-77410000D01*
X178613110Y-77434788D01*
G37*
G36*
X124373110Y-77434788D02*
G01*
X124441689Y-77448429D01*
X124623678Y-77523811D01*
X124787463Y-77633249D01*
X124926751Y-77772537D01*
X125036189Y-77936322D01*
X125111571Y-78118311D01*
X125116770Y-78144447D01*
X125148830Y-78305623D01*
X125150000Y-78311509D01*
X125150000Y-78508491D01*
X125111571Y-78701689D01*
X125036189Y-78883678D01*
X124926751Y-79047463D01*
X124787463Y-79186751D01*
X124623678Y-79296189D01*
X124441689Y-79371571D01*
X124377290Y-79384381D01*
X124248493Y-79410000D01*
X124051507Y-79410000D01*
X123922710Y-79384381D01*
X123858311Y-79371571D01*
X123676322Y-79296189D01*
X123512537Y-79186751D01*
X123373249Y-79047463D01*
X123263811Y-78883678D01*
X123188429Y-78701689D01*
X123150000Y-78508491D01*
X123150000Y-78311509D01*
X123151171Y-78305623D01*
X123183230Y-78144447D01*
X123188429Y-78118311D01*
X123263811Y-77936322D01*
X123373249Y-77772537D01*
X123512537Y-77633249D01*
X123676322Y-77523811D01*
X123858311Y-77448429D01*
X123926890Y-77434788D01*
X124051507Y-77410000D01*
X124248493Y-77410000D01*
X124373110Y-77434788D01*
G37*
G36*
X121833110Y-77434788D02*
G01*
X121901689Y-77448429D01*
X122083678Y-77523811D01*
X122247463Y-77633249D01*
X122386751Y-77772537D01*
X122496189Y-77936322D01*
X122571571Y-78118311D01*
X122576770Y-78144447D01*
X122608830Y-78305623D01*
X122610000Y-78311509D01*
X122610000Y-78508491D01*
X122571571Y-78701689D01*
X122496189Y-78883678D01*
X122386751Y-79047463D01*
X122247463Y-79186751D01*
X122083678Y-79296189D01*
X121901689Y-79371571D01*
X121837290Y-79384381D01*
X121708493Y-79410000D01*
X121511507Y-79410000D01*
X121382710Y-79384381D01*
X121318311Y-79371571D01*
X121136322Y-79296189D01*
X120972537Y-79186751D01*
X120833249Y-79047463D01*
X120723811Y-78883678D01*
X120648429Y-78701689D01*
X120610000Y-78508491D01*
X120610000Y-78311509D01*
X120611171Y-78305623D01*
X120643230Y-78144447D01*
X120648429Y-78118311D01*
X120723811Y-77936322D01*
X120833249Y-77772537D01*
X120972537Y-77633249D01*
X121136322Y-77523811D01*
X121318311Y-77448429D01*
X121386890Y-77434788D01*
X121511507Y-77410000D01*
X121708493Y-77410000D01*
X121833110Y-77434788D01*
G37*
G36*
X166896968Y-76853565D02*
G01*
X166935638Y-76865296D01*
X166971277Y-76884346D01*
X167002517Y-76909983D01*
X167028154Y-76941223D01*
X167047204Y-76976862D01*
X167058935Y-77015532D01*
X167063500Y-77061888D01*
X167063500Y-78138112D01*
X167058935Y-78184468D01*
X167047204Y-78223138D01*
X167028154Y-78258777D01*
X167002517Y-78290017D01*
X166971277Y-78315654D01*
X166935638Y-78334704D01*
X166896968Y-78346435D01*
X166850612Y-78351000D01*
X166199388Y-78351000D01*
X166153032Y-78346435D01*
X166114362Y-78334704D01*
X166078723Y-78315654D01*
X166047483Y-78290017D01*
X166021846Y-78258777D01*
X166002796Y-78223138D01*
X165991065Y-78184468D01*
X165986500Y-78138112D01*
X165986500Y-77061888D01*
X165991065Y-77015532D01*
X166002796Y-76976862D01*
X166021846Y-76941223D01*
X166047483Y-76909983D01*
X166078723Y-76884346D01*
X166114362Y-76865296D01*
X166153032Y-76853565D01*
X166199388Y-76849000D01*
X166850612Y-76849000D01*
X166896968Y-76853565D01*
G37*
G36*
X168771968Y-76853565D02*
G01*
X168810638Y-76865296D01*
X168846277Y-76884346D01*
X168877517Y-76909983D01*
X168903154Y-76941223D01*
X168922204Y-76976862D01*
X168933935Y-77015532D01*
X168938500Y-77061888D01*
X168938500Y-78138112D01*
X168933935Y-78184468D01*
X168922204Y-78223138D01*
X168903154Y-78258777D01*
X168877517Y-78290017D01*
X168846277Y-78315654D01*
X168810638Y-78334704D01*
X168771968Y-78346435D01*
X168725612Y-78351000D01*
X168074388Y-78351000D01*
X168028032Y-78346435D01*
X167989362Y-78334704D01*
X167953723Y-78315654D01*
X167922483Y-78290017D01*
X167896846Y-78258777D01*
X167877796Y-78223138D01*
X167866065Y-78184468D01*
X167861500Y-78138112D01*
X167861500Y-77061888D01*
X167866065Y-77015532D01*
X167877796Y-76976862D01*
X167896846Y-76941223D01*
X167922483Y-76909983D01*
X167953723Y-76884346D01*
X167989362Y-76865296D01*
X168028032Y-76853565D01*
X168074388Y-76849000D01*
X168725612Y-76849000D01*
X168771968Y-76853565D01*
G37*
G36*
X158584468Y-76528565D02*
G01*
X158623138Y-76540296D01*
X158658777Y-76559346D01*
X158690017Y-76584983D01*
X158715654Y-76616223D01*
X158734704Y-76651862D01*
X158746435Y-76690532D01*
X158751000Y-76736888D01*
X158751000Y-77388112D01*
X158746435Y-77434468D01*
X158734704Y-77473138D01*
X158715654Y-77508777D01*
X158690017Y-77540017D01*
X158658777Y-77565654D01*
X158623138Y-77584704D01*
X158584468Y-77596435D01*
X158538112Y-77601000D01*
X157461888Y-77601000D01*
X157415532Y-77596435D01*
X157376862Y-77584704D01*
X157341223Y-77565654D01*
X157309983Y-77540017D01*
X157284346Y-77508777D01*
X157265296Y-77473138D01*
X157253565Y-77434468D01*
X157249000Y-77388112D01*
X157249000Y-76736888D01*
X157253565Y-76690532D01*
X157265296Y-76651862D01*
X157284346Y-76616223D01*
X157309983Y-76584983D01*
X157341223Y-76559346D01*
X157376862Y-76540296D01*
X157415532Y-76528565D01*
X157461888Y-76524000D01*
X158538112Y-76524000D01*
X158584468Y-76528565D01*
G37*
G36*
X147379434Y-73453686D02*
G01*
X147419284Y-73465774D01*
X147455999Y-73485399D01*
X147488186Y-73511814D01*
X147514601Y-73544001D01*
X147534226Y-73580716D01*
X147546314Y-73620566D01*
X147551000Y-73668141D01*
X147551000Y-76831859D01*
X147546314Y-76879434D01*
X147534226Y-76919284D01*
X147514601Y-76955999D01*
X147488186Y-76988186D01*
X147455999Y-77014601D01*
X147419284Y-77034226D01*
X147379434Y-77046314D01*
X147331859Y-77051000D01*
X146668141Y-77051000D01*
X146620566Y-77046314D01*
X146580716Y-77034226D01*
X146544001Y-77014601D01*
X146511814Y-76988186D01*
X146485399Y-76955999D01*
X146465774Y-76919284D01*
X146453686Y-76879434D01*
X146449000Y-76831859D01*
X146449000Y-73668141D01*
X146453686Y-73620566D01*
X146465774Y-73580716D01*
X146485399Y-73544001D01*
X146511814Y-73511814D01*
X146544001Y-73485399D01*
X146580716Y-73465774D01*
X146620566Y-73453686D01*
X146668141Y-73449000D01*
X147331859Y-73449000D01*
X147379434Y-73453686D01*
G37*
G36*
X145379434Y-73453686D02*
G01*
X145419284Y-73465774D01*
X145455999Y-73485399D01*
X145488186Y-73511814D01*
X145514601Y-73544001D01*
X145534226Y-73580716D01*
X145546314Y-73620566D01*
X145551000Y-73668141D01*
X145551000Y-76831859D01*
X145546314Y-76879434D01*
X145534226Y-76919284D01*
X145514601Y-76955999D01*
X145488186Y-76988186D01*
X145455999Y-77014601D01*
X145419284Y-77034226D01*
X145379434Y-77046314D01*
X145331859Y-77051000D01*
X144668141Y-77051000D01*
X144620566Y-77046314D01*
X144580716Y-77034226D01*
X144544001Y-77014601D01*
X144511814Y-76988186D01*
X144485399Y-76955999D01*
X144465774Y-76919284D01*
X144453686Y-76879434D01*
X144449000Y-76831859D01*
X144449000Y-73668141D01*
X144453686Y-73620566D01*
X144465774Y-73580716D01*
X144485399Y-73544001D01*
X144511814Y-73511814D01*
X144544001Y-73485399D01*
X144580716Y-73465774D01*
X144620566Y-73453686D01*
X144668141Y-73449000D01*
X145331859Y-73449000D01*
X145379434Y-73453686D01*
G37*
G36*
X156484468Y-75903565D02*
G01*
X156523138Y-75915296D01*
X156558777Y-75934346D01*
X156590017Y-75959983D01*
X156615654Y-75991223D01*
X156634704Y-76026862D01*
X156646435Y-76065532D01*
X156651000Y-76111888D01*
X156651000Y-76763112D01*
X156646435Y-76809468D01*
X156634704Y-76848138D01*
X156615654Y-76883777D01*
X156590017Y-76915017D01*
X156558777Y-76940654D01*
X156523138Y-76959704D01*
X156484468Y-76971435D01*
X156438112Y-76976000D01*
X155361888Y-76976000D01*
X155315532Y-76971435D01*
X155276862Y-76959704D01*
X155241223Y-76940654D01*
X155209983Y-76915017D01*
X155184346Y-76883777D01*
X155165296Y-76848138D01*
X155153565Y-76809468D01*
X155149000Y-76763112D01*
X155149000Y-76111888D01*
X155153565Y-76065532D01*
X155165296Y-76026862D01*
X155184346Y-75991223D01*
X155209983Y-75959983D01*
X155241223Y-75934346D01*
X155276862Y-75915296D01*
X155315532Y-75903565D01*
X155361888Y-75899000D01*
X156438112Y-75899000D01*
X156484468Y-75903565D01*
G37*
G36*
X124377290Y-74895619D02*
G01*
X124441689Y-74908429D01*
X124623678Y-74983811D01*
X124787463Y-75093249D01*
X124926751Y-75232537D01*
X125036189Y-75396322D01*
X125111571Y-75578311D01*
X125111571Y-75578312D01*
X125150000Y-75771507D01*
X125150000Y-75968493D01*
X125130761Y-76065212D01*
X125111571Y-76161689D01*
X125036189Y-76343678D01*
X124926751Y-76507463D01*
X124787463Y-76646751D01*
X124623678Y-76756189D01*
X124441689Y-76831571D01*
X124377290Y-76844381D01*
X124248493Y-76870000D01*
X124051507Y-76870000D01*
X123922710Y-76844381D01*
X123858311Y-76831571D01*
X123676322Y-76756189D01*
X123512537Y-76646751D01*
X123373249Y-76507463D01*
X123263811Y-76343678D01*
X123188429Y-76161689D01*
X123169239Y-76065212D01*
X123150000Y-75968493D01*
X123150000Y-75771507D01*
X123188429Y-75578312D01*
X123188429Y-75578311D01*
X123263811Y-75396322D01*
X123373249Y-75232537D01*
X123512537Y-75093249D01*
X123676322Y-74983811D01*
X123858311Y-74908429D01*
X123922710Y-74895619D01*
X124051507Y-74870000D01*
X124248493Y-74870000D01*
X124377290Y-74895619D01*
G37*
G36*
X178617290Y-74895619D02*
G01*
X178681689Y-74908429D01*
X178863678Y-74983811D01*
X179027463Y-75093249D01*
X179166751Y-75232537D01*
X179276189Y-75396322D01*
X179351571Y-75578311D01*
X179351571Y-75578312D01*
X179390000Y-75771507D01*
X179390000Y-75968493D01*
X179370761Y-76065212D01*
X179351571Y-76161689D01*
X179276189Y-76343678D01*
X179166751Y-76507463D01*
X179027463Y-76646751D01*
X178863678Y-76756189D01*
X178681689Y-76831571D01*
X178617290Y-76844381D01*
X178488493Y-76870000D01*
X178291507Y-76870000D01*
X178162710Y-76844381D01*
X178098311Y-76831571D01*
X177916322Y-76756189D01*
X177752537Y-76646751D01*
X177613249Y-76507463D01*
X177503811Y-76343678D01*
X177428429Y-76161689D01*
X177409239Y-76065212D01*
X177390000Y-75968493D01*
X177390000Y-75771507D01*
X177428429Y-75578312D01*
X177428429Y-75578311D01*
X177503811Y-75396322D01*
X177613249Y-75232537D01*
X177752537Y-75093249D01*
X177916322Y-74983811D01*
X178098311Y-74908429D01*
X178162710Y-74895619D01*
X178291507Y-74870000D01*
X178488493Y-74870000D01*
X178617290Y-74895619D01*
G37*
G36*
X176077290Y-74895619D02*
G01*
X176141689Y-74908429D01*
X176323678Y-74983811D01*
X176487463Y-75093249D01*
X176626751Y-75232537D01*
X176736189Y-75396322D01*
X176811571Y-75578311D01*
X176811571Y-75578312D01*
X176850000Y-75771507D01*
X176850000Y-75968493D01*
X176830761Y-76065212D01*
X176811571Y-76161689D01*
X176736189Y-76343678D01*
X176626751Y-76507463D01*
X176487463Y-76646751D01*
X176323678Y-76756189D01*
X176141689Y-76831571D01*
X176077290Y-76844381D01*
X175948493Y-76870000D01*
X175751507Y-76870000D01*
X175622710Y-76844381D01*
X175558311Y-76831571D01*
X175376322Y-76756189D01*
X175212537Y-76646751D01*
X175073249Y-76507463D01*
X174963811Y-76343678D01*
X174888429Y-76161689D01*
X174869239Y-76065212D01*
X174850000Y-75968493D01*
X174850000Y-75771507D01*
X174888429Y-75578312D01*
X174888429Y-75578311D01*
X174963811Y-75396322D01*
X175073249Y-75232537D01*
X175212537Y-75093249D01*
X175376322Y-74983811D01*
X175558311Y-74908429D01*
X175622710Y-74895619D01*
X175751507Y-74870000D01*
X175948493Y-74870000D01*
X176077290Y-74895619D01*
G37*
G36*
X121837290Y-74895619D02*
G01*
X121901689Y-74908429D01*
X122083678Y-74983811D01*
X122247463Y-75093249D01*
X122386751Y-75232537D01*
X122496189Y-75396322D01*
X122571571Y-75578311D01*
X122571571Y-75578312D01*
X122610000Y-75771507D01*
X122610000Y-75968493D01*
X122590761Y-76065212D01*
X122571571Y-76161689D01*
X122496189Y-76343678D01*
X122386751Y-76507463D01*
X122247463Y-76646751D01*
X122083678Y-76756189D01*
X121901689Y-76831571D01*
X121837290Y-76844381D01*
X121708493Y-76870000D01*
X121511507Y-76870000D01*
X121382710Y-76844381D01*
X121318311Y-76831571D01*
X121136322Y-76756189D01*
X120972537Y-76646751D01*
X120833249Y-76507463D01*
X120723811Y-76343678D01*
X120648429Y-76161689D01*
X120629239Y-76065212D01*
X120610000Y-75968493D01*
X120610000Y-75771507D01*
X120648429Y-75578312D01*
X120648429Y-75578311D01*
X120723811Y-75396322D01*
X120833249Y-75232537D01*
X120972537Y-75093249D01*
X121136322Y-74983811D01*
X121318311Y-74908429D01*
X121382710Y-74895619D01*
X121511507Y-74870000D01*
X121708493Y-74870000D01*
X121837290Y-74895619D01*
G37*
G36*
X159184468Y-74903565D02*
G01*
X159223138Y-74915296D01*
X159258777Y-74934346D01*
X159290017Y-74959983D01*
X159315654Y-74991223D01*
X159334704Y-75026862D01*
X159346435Y-75065532D01*
X159351000Y-75111888D01*
X159351000Y-75763112D01*
X159346435Y-75809468D01*
X159334704Y-75848138D01*
X159315654Y-75883777D01*
X159290017Y-75915017D01*
X159258777Y-75940654D01*
X159223138Y-75959704D01*
X159184468Y-75971435D01*
X159138112Y-75976000D01*
X158061888Y-75976000D01*
X158015532Y-75971435D01*
X157976862Y-75959704D01*
X157941223Y-75940654D01*
X157909983Y-75915017D01*
X157884346Y-75883777D01*
X157865296Y-75848138D01*
X157853565Y-75809468D01*
X157849000Y-75763112D01*
X157849000Y-75111888D01*
X157853565Y-75065532D01*
X157865296Y-75026862D01*
X157884346Y-74991223D01*
X157909983Y-74959983D01*
X157941223Y-74934346D01*
X157976862Y-74915296D01*
X158015532Y-74903565D01*
X158061888Y-74899000D01*
X159138112Y-74899000D01*
X159184468Y-74903565D01*
G37*
G36*
X163809468Y-74453565D02*
G01*
X163848138Y-74465296D01*
X163883777Y-74484346D01*
X163915017Y-74509983D01*
X163940654Y-74541223D01*
X163959704Y-74576862D01*
X163971435Y-74615532D01*
X163976000Y-74661888D01*
X163976000Y-75738112D01*
X163971435Y-75784468D01*
X163959704Y-75823138D01*
X163940654Y-75858777D01*
X163915017Y-75890017D01*
X163883777Y-75915654D01*
X163848138Y-75934704D01*
X163809468Y-75946435D01*
X163763112Y-75951000D01*
X163111888Y-75951000D01*
X163065532Y-75946435D01*
X163026862Y-75934704D01*
X162991223Y-75915654D01*
X162959983Y-75890017D01*
X162934346Y-75858777D01*
X162915296Y-75823138D01*
X162903565Y-75784468D01*
X162899000Y-75738112D01*
X162899000Y-74661888D01*
X162903565Y-74615532D01*
X162915296Y-74576862D01*
X162934346Y-74541223D01*
X162959983Y-74509983D01*
X162991223Y-74484346D01*
X163026862Y-74465296D01*
X163065532Y-74453565D01*
X163111888Y-74449000D01*
X163763112Y-74449000D01*
X163809468Y-74453565D01*
G37*
G36*
X161934468Y-74453565D02*
G01*
X161973138Y-74465296D01*
X162008777Y-74484346D01*
X162040017Y-74509983D01*
X162065654Y-74541223D01*
X162084704Y-74576862D01*
X162096435Y-74615532D01*
X162101000Y-74661888D01*
X162101000Y-75738112D01*
X162096435Y-75784468D01*
X162084704Y-75823138D01*
X162065654Y-75858777D01*
X162040017Y-75890017D01*
X162008777Y-75915654D01*
X161973138Y-75934704D01*
X161934468Y-75946435D01*
X161888112Y-75951000D01*
X161236888Y-75951000D01*
X161190532Y-75946435D01*
X161151862Y-75934704D01*
X161116223Y-75915654D01*
X161084983Y-75890017D01*
X161059346Y-75858777D01*
X161040296Y-75823138D01*
X161028565Y-75784468D01*
X161024000Y-75738112D01*
X161024000Y-74661888D01*
X161028565Y-74615532D01*
X161040296Y-74576862D01*
X161059346Y-74541223D01*
X161084983Y-74509983D01*
X161116223Y-74484346D01*
X161151862Y-74465296D01*
X161190532Y-74453565D01*
X161236888Y-74449000D01*
X161888112Y-74449000D01*
X161934468Y-74453565D01*
G37*
G36*
X156484468Y-74028565D02*
G01*
X156523138Y-74040296D01*
X156558777Y-74059346D01*
X156590017Y-74084983D01*
X156615654Y-74116223D01*
X156634704Y-74151862D01*
X156646435Y-74190532D01*
X156651000Y-74236888D01*
X156651000Y-74888112D01*
X156646435Y-74934468D01*
X156634704Y-74973138D01*
X156615654Y-75008777D01*
X156590017Y-75040017D01*
X156558777Y-75065654D01*
X156523138Y-75084704D01*
X156484468Y-75096435D01*
X156438112Y-75101000D01*
X155361888Y-75101000D01*
X155315532Y-75096435D01*
X155276862Y-75084704D01*
X155241223Y-75065654D01*
X155209983Y-75040017D01*
X155184346Y-75008777D01*
X155165296Y-74973138D01*
X155153565Y-74934468D01*
X155149000Y-74888112D01*
X155149000Y-74236888D01*
X155153565Y-74190532D01*
X155165296Y-74151862D01*
X155184346Y-74116223D01*
X155209983Y-74084983D01*
X155241223Y-74059346D01*
X155276862Y-74040296D01*
X155315532Y-74028565D01*
X155361888Y-74024000D01*
X156438112Y-74024000D01*
X156484468Y-74028565D01*
G37*
G36*
X170309468Y-73353565D02*
G01*
X170348138Y-73365296D01*
X170383777Y-73384346D01*
X170415017Y-73409983D01*
X170440654Y-73441223D01*
X170459704Y-73476862D01*
X170471435Y-73515532D01*
X170476000Y-73561888D01*
X170476000Y-74638112D01*
X170471435Y-74684468D01*
X170459704Y-74723138D01*
X170440654Y-74758777D01*
X170415017Y-74790017D01*
X170383777Y-74815654D01*
X170348138Y-74834704D01*
X170309468Y-74846435D01*
X170263112Y-74851000D01*
X169611888Y-74851000D01*
X169565532Y-74846435D01*
X169526862Y-74834704D01*
X169491223Y-74815654D01*
X169459983Y-74790017D01*
X169434346Y-74758777D01*
X169415296Y-74723138D01*
X169403565Y-74684468D01*
X169399000Y-74638112D01*
X169399000Y-73561888D01*
X169403565Y-73515532D01*
X169415296Y-73476862D01*
X169434346Y-73441223D01*
X169459983Y-73409983D01*
X169491223Y-73384346D01*
X169526862Y-73365296D01*
X169565532Y-73353565D01*
X169611888Y-73349000D01*
X170263112Y-73349000D01*
X170309468Y-73353565D01*
G37*
G36*
X168434468Y-73353565D02*
G01*
X168473138Y-73365296D01*
X168508777Y-73384346D01*
X168540017Y-73409983D01*
X168565654Y-73441223D01*
X168584704Y-73476862D01*
X168596435Y-73515532D01*
X168601000Y-73561888D01*
X168601000Y-74638112D01*
X168596435Y-74684468D01*
X168584704Y-74723138D01*
X168565654Y-74758777D01*
X168540017Y-74790017D01*
X168508777Y-74815654D01*
X168473138Y-74834704D01*
X168434468Y-74846435D01*
X168388112Y-74851000D01*
X167736888Y-74851000D01*
X167690532Y-74846435D01*
X167651862Y-74834704D01*
X167616223Y-74815654D01*
X167584983Y-74790017D01*
X167559346Y-74758777D01*
X167540296Y-74723138D01*
X167528565Y-74684468D01*
X167524000Y-74638112D01*
X167524000Y-73561888D01*
X167528565Y-73515532D01*
X167540296Y-73476862D01*
X167559346Y-73441223D01*
X167584983Y-73409983D01*
X167616223Y-73384346D01*
X167651862Y-73365296D01*
X167690532Y-73353565D01*
X167736888Y-73349000D01*
X168388112Y-73349000D01*
X168434468Y-73353565D01*
G37*
G36*
X159184468Y-73028565D02*
G01*
X159223138Y-73040296D01*
X159258777Y-73059346D01*
X159290017Y-73084983D01*
X159315654Y-73116223D01*
X159334704Y-73151862D01*
X159346435Y-73190532D01*
X159351000Y-73236888D01*
X159351000Y-73888112D01*
X159346435Y-73934468D01*
X159334704Y-73973138D01*
X159315654Y-74008777D01*
X159290017Y-74040017D01*
X159258777Y-74065654D01*
X159223138Y-74084704D01*
X159184468Y-74096435D01*
X159138112Y-74101000D01*
X158061888Y-74101000D01*
X158015532Y-74096435D01*
X157976862Y-74084704D01*
X157941223Y-74065654D01*
X157909983Y-74040017D01*
X157884346Y-74008777D01*
X157865296Y-73973138D01*
X157853565Y-73934468D01*
X157849000Y-73888112D01*
X157849000Y-73236888D01*
X157853565Y-73190532D01*
X157865296Y-73151862D01*
X157884346Y-73116223D01*
X157909983Y-73084983D01*
X157941223Y-73059346D01*
X157976862Y-73040296D01*
X158015532Y-73028565D01*
X158061888Y-73024000D01*
X159138112Y-73024000D01*
X159184468Y-73028565D01*
G37*
G36*
X177585944Y-68792520D02*
G01*
X177717963Y-68818780D01*
X178091039Y-68973314D01*
X178426799Y-69197661D01*
X178712339Y-69483201D01*
X178936686Y-69818961D01*
X179052473Y-70098493D01*
X179091220Y-70192038D01*
X179170000Y-70588091D01*
X179170000Y-70991909D01*
X179134767Y-71169036D01*
X179091220Y-71387963D01*
X178936686Y-71761039D01*
X178712339Y-72096799D01*
X178426799Y-72382339D01*
X178091039Y-72606686D01*
X177717963Y-72761220D01*
X177585944Y-72787480D01*
X177321909Y-72840000D01*
X176918091Y-72840000D01*
X176654056Y-72787480D01*
X176522037Y-72761220D01*
X176148961Y-72606686D01*
X175813201Y-72382339D01*
X175527661Y-72096799D01*
X175303314Y-71761039D01*
X175148780Y-71387963D01*
X175105233Y-71169036D01*
X175070000Y-70991909D01*
X175070000Y-70588091D01*
X175148780Y-70192038D01*
X175187528Y-70098493D01*
X175303314Y-69818961D01*
X175527661Y-69483201D01*
X175813201Y-69197661D01*
X176148961Y-68973314D01*
X176522037Y-68818780D01*
X176654056Y-68792520D01*
X176918091Y-68740000D01*
X177321909Y-68740000D01*
X177585944Y-68792520D01*
G37*
G36*
X123345944Y-68792520D02*
G01*
X123477963Y-68818780D01*
X123851039Y-68973314D01*
X124186799Y-69197661D01*
X124472339Y-69483201D01*
X124696686Y-69818961D01*
X124812473Y-70098493D01*
X124851220Y-70192038D01*
X124930000Y-70588091D01*
X124930000Y-70991909D01*
X124894767Y-71169036D01*
X124851220Y-71387963D01*
X124696686Y-71761039D01*
X124472339Y-72096799D01*
X124186799Y-72382339D01*
X123851039Y-72606686D01*
X123477963Y-72761220D01*
X123345944Y-72787480D01*
X123081909Y-72840000D01*
X122678091Y-72840000D01*
X122414056Y-72787480D01*
X122282037Y-72761220D01*
X121908961Y-72606686D01*
X121573201Y-72382339D01*
X121287661Y-72096799D01*
X121063314Y-71761039D01*
X120908780Y-71387963D01*
X120865233Y-71169036D01*
X120830000Y-70991909D01*
X120830000Y-70588091D01*
X120908780Y-70192038D01*
X120947528Y-70098493D01*
X121063314Y-69818961D01*
X121287661Y-69483201D01*
X121573201Y-69197661D01*
X121908961Y-68973314D01*
X122282037Y-68818780D01*
X122414056Y-68792520D01*
X122678091Y-68740000D01*
X123081909Y-68740000D01*
X123345944Y-68792520D01*
G37*
G36*
X162137224Y-70510128D02*
G01*
X162269175Y-70550155D01*
X162390781Y-70615155D01*
X162497370Y-70702630D01*
X162584845Y-70809219D01*
X162649845Y-70930825D01*
X162689872Y-71062776D01*
X162703387Y-71200000D01*
X162689872Y-71337224D01*
X162649845Y-71469175D01*
X162584845Y-71590781D01*
X162497370Y-71697370D01*
X162390781Y-71784845D01*
X162269175Y-71849845D01*
X162137224Y-71889872D01*
X162034390Y-71900000D01*
X160965610Y-71900000D01*
X160862776Y-71889872D01*
X160730825Y-71849845D01*
X160609219Y-71784845D01*
X160502630Y-71697370D01*
X160415155Y-71590781D01*
X160350155Y-71469175D01*
X160310128Y-71337224D01*
X160296613Y-71200000D01*
X160310128Y-71062776D01*
X160350155Y-70930825D01*
X160415155Y-70809219D01*
X160502630Y-70702630D01*
X160609219Y-70615155D01*
X160730825Y-70550155D01*
X160862776Y-70510128D01*
X160965610Y-70500000D01*
X162034390Y-70500000D01*
X162137224Y-70510128D01*
G37*
G36*
X158950000Y-70175001D02*
G01*
X158952402Y-70199387D01*
X158959515Y-70222836D01*
X158971066Y-70244447D01*
X158986611Y-70263389D01*
X159005553Y-70278934D01*
X159027164Y-70290485D01*
X159050613Y-70297598D01*
X159074999Y-70300000D01*
X159600000Y-70300000D01*
X159600000Y-71900000D01*
X156400000Y-71900000D01*
X156400000Y-70300000D01*
X156925001Y-70300000D01*
X156949387Y-70297598D01*
X156972836Y-70290485D01*
X156994447Y-70278934D01*
X157013389Y-70263389D01*
X157028934Y-70244447D01*
X157040485Y-70222836D01*
X157047598Y-70199387D01*
X157050000Y-70175001D01*
X157050000Y-70100000D01*
X158950000Y-70100000D01*
X158950000Y-70175001D01*
G37*
G36*
X155137224Y-70510128D02*
G01*
X155269175Y-70550155D01*
X155390781Y-70615155D01*
X155497370Y-70702630D01*
X155584845Y-70809219D01*
X155649845Y-70930825D01*
X155689872Y-71062776D01*
X155703387Y-71200000D01*
X155689872Y-71337224D01*
X155649845Y-71469175D01*
X155584845Y-71590781D01*
X155497370Y-71697370D01*
X155390781Y-71784845D01*
X155269175Y-71849845D01*
X155137224Y-71889872D01*
X155034390Y-71900000D01*
X153965610Y-71900000D01*
X153862776Y-71889872D01*
X153730825Y-71849845D01*
X153609219Y-71784845D01*
X153502630Y-71697370D01*
X153415155Y-71590781D01*
X153350155Y-71469175D01*
X153310128Y-71337224D01*
X153296613Y-71200000D01*
X153310128Y-71062776D01*
X153350155Y-70930825D01*
X153415155Y-70809219D01*
X153502630Y-70702630D01*
X153609219Y-70615155D01*
X153730825Y-70550155D01*
X153862776Y-70510128D01*
X153965610Y-70500000D01*
X155034390Y-70500000D01*
X155137224Y-70510128D01*
G37*
G36*
X150003048Y-67753122D02*
G01*
X150037387Y-67763539D01*
X150069036Y-67780456D01*
X150096778Y-67803222D01*
X150119544Y-67830964D01*
X150136461Y-67862613D01*
X150146878Y-67896952D01*
X150151000Y-67938807D01*
X150151000Y-71061193D01*
X150146878Y-71103048D01*
X150136461Y-71137387D01*
X150119544Y-71169036D01*
X150096778Y-71196778D01*
X150069036Y-71219544D01*
X150037387Y-71236461D01*
X150003048Y-71246878D01*
X149961193Y-71251000D01*
X148738807Y-71251000D01*
X148696952Y-71246878D01*
X148662613Y-71236461D01*
X148630964Y-71219544D01*
X148603222Y-71196778D01*
X148580456Y-71169036D01*
X148563539Y-71137387D01*
X148553122Y-71103048D01*
X148549000Y-71061193D01*
X148549000Y-67938807D01*
X148553122Y-67896952D01*
X148563539Y-67862613D01*
X148580456Y-67830964D01*
X148603222Y-67803222D01*
X148630964Y-67780456D01*
X148662613Y-67763539D01*
X148696952Y-67753122D01*
X148738807Y-67749000D01*
X149961193Y-67749000D01*
X150003048Y-67753122D01*
G37*
G36*
X143303048Y-67753122D02*
G01*
X143337387Y-67763539D01*
X143369036Y-67780456D01*
X143396778Y-67803222D01*
X143419544Y-67830964D01*
X143436461Y-67862613D01*
X143446878Y-67896952D01*
X143451000Y-67938807D01*
X143451000Y-71061193D01*
X143446878Y-71103048D01*
X143436461Y-71137387D01*
X143419544Y-71169036D01*
X143396778Y-71196778D01*
X143369036Y-71219544D01*
X143337387Y-71236461D01*
X143303048Y-71246878D01*
X143261193Y-71251000D01*
X142038807Y-71251000D01*
X141996952Y-71246878D01*
X141962613Y-71236461D01*
X141930964Y-71219544D01*
X141903222Y-71196778D01*
X141880456Y-71169036D01*
X141863539Y-71137387D01*
X141853122Y-71103048D01*
X141849000Y-71061193D01*
X141849000Y-67938807D01*
X141853122Y-67896952D01*
X141863539Y-67862613D01*
X141880456Y-67830964D01*
X141903222Y-67803222D01*
X141930964Y-67780456D01*
X141962613Y-67763539D01*
X141996952Y-67753122D01*
X142038807Y-67749000D01*
X143261193Y-67749000D01*
X143303048Y-67753122D01*
G37*
G36*
X172617290Y-69025619D02*
G01*
X172681689Y-69038429D01*
X172863678Y-69113811D01*
X173027463Y-69223249D01*
X173166751Y-69362537D01*
X173276189Y-69526322D01*
X173306707Y-69600000D01*
X173351571Y-69708312D01*
X173390000Y-69901507D01*
X173390000Y-70098493D01*
X173371393Y-70192037D01*
X173351571Y-70291689D01*
X173276189Y-70473678D01*
X173166751Y-70637463D01*
X173027463Y-70776751D01*
X172863678Y-70886189D01*
X172681689Y-70961571D01*
X172617290Y-70974381D01*
X172488493Y-71000000D01*
X172291507Y-71000000D01*
X172162710Y-70974381D01*
X172098311Y-70961571D01*
X171916322Y-70886189D01*
X171752537Y-70776751D01*
X171613249Y-70637463D01*
X171503811Y-70473678D01*
X171428429Y-70291689D01*
X171408607Y-70192037D01*
X171390000Y-70098493D01*
X171390000Y-69901507D01*
X171428429Y-69708312D01*
X171473293Y-69600000D01*
X171503811Y-69526322D01*
X171613249Y-69362537D01*
X171752537Y-69223249D01*
X171916322Y-69113811D01*
X172098311Y-69038429D01*
X172162710Y-69025619D01*
X172291507Y-69000000D01*
X172488493Y-69000000D01*
X172617290Y-69025619D01*
G37*
G36*
X170077290Y-69025619D02*
G01*
X170141689Y-69038429D01*
X170323678Y-69113811D01*
X170487463Y-69223249D01*
X170626751Y-69362537D01*
X170736189Y-69526322D01*
X170766707Y-69600000D01*
X170811571Y-69708312D01*
X170850000Y-69901507D01*
X170850000Y-70098493D01*
X170831393Y-70192037D01*
X170811571Y-70291689D01*
X170736189Y-70473678D01*
X170626751Y-70637463D01*
X170487463Y-70776751D01*
X170323678Y-70886189D01*
X170141689Y-70961571D01*
X170077290Y-70974381D01*
X169948493Y-71000000D01*
X169751507Y-71000000D01*
X169622710Y-70974381D01*
X169558311Y-70961571D01*
X169376322Y-70886189D01*
X169212537Y-70776751D01*
X169073249Y-70637463D01*
X168963811Y-70473678D01*
X168888429Y-70291689D01*
X168868607Y-70192037D01*
X168850000Y-70098493D01*
X168850000Y-69901507D01*
X168888429Y-69708312D01*
X168933293Y-69600000D01*
X168963811Y-69526322D01*
X169073249Y-69362537D01*
X169212537Y-69223249D01*
X169376322Y-69113811D01*
X169558311Y-69038429D01*
X169622710Y-69025619D01*
X169751507Y-69000000D01*
X169948493Y-69000000D01*
X170077290Y-69025619D01*
G37*
G36*
X162460000Y-69600000D02*
G01*
X160060000Y-69600000D01*
X160060000Y-67200000D01*
X162460000Y-67200000D01*
X162460000Y-69600000D01*
G37*
G36*
X155940000Y-69600000D02*
G01*
X153540000Y-69600000D01*
X153540000Y-67200000D01*
X155940000Y-67200000D01*
X155940000Y-69600000D01*
G37*
G36*
X159300000Y-69550000D02*
G01*
X156700000Y-69550000D01*
X156700000Y-67450000D01*
X159300000Y-67450000D01*
X159300000Y-69550000D01*
G37*
M02*
