G04 #@! TF.GenerationSoftware,KiCad,Pcbnew,5.1.5-52549c5~86~ubuntu18.04.1*
G04 #@! TF.CreationDate,2020-04-28T10:32:59-07:00*
G04 #@! TF.ProjectId,SHIELD_MIMAS_TFT_BT_POWERSUPPLY,53484945-4c44-45f4-9d49-4d41535f5446,rev?*
G04 #@! TF.SameCoordinates,Original*
G04 #@! TF.FileFunction,Paste,Bot*
G04 #@! TF.FilePolarity,Positive*
%FSLAX46Y46*%
G04 Gerber Fmt 4.6, Leading zero omitted, Abs format (unit mm)*
G04 Created by KiCad (PCBNEW 5.1.5-52549c5~86~ubuntu18.04.1) date 2020-04-28 10:32:59*
%MOMM*%
%LPD*%
G04 APERTURE LIST*
%ADD10C,0.100000*%
%ADD11R,1.900000X1.900000*%
%ADD12R,1.600000X1.600000*%
%ADD13O,2.000000X1.000000*%
%ADD14R,2.000000X2.000000*%
%ADD15R,0.800000X1.700000*%
%ADD16R,0.200000X1.400000*%
%ADD17R,0.200000X1.200000*%
%ADD18R,5.000000X1.650000*%
%ADD19R,1.500000X0.500000*%
%ADD20R,0.500000X1.500000*%
%ADD21R,0.300000X0.400000*%
G04 APERTURE END LIST*
D10*
G36*
X163950000Y-89550000D02*
G01*
X161450000Y-89550000D01*
X161450000Y-90050000D01*
X163950000Y-90050000D01*
X163950000Y-89550000D01*
G37*
X163950000Y-89550000D02*
X161450000Y-89550000D01*
X161450000Y-90050000D01*
X163950000Y-90050000D01*
X163950000Y-89550000D01*
G36*
X164950000Y-90550000D02*
G01*
X164450000Y-90550000D01*
X164450000Y-93050000D01*
X164950000Y-93050000D01*
X164950000Y-90550000D01*
G37*
X164950000Y-90550000D02*
X164450000Y-90550000D01*
X164450000Y-93050000D01*
X164950000Y-93050000D01*
X164950000Y-90550000D01*
G36*
X160950000Y-90550000D02*
G01*
X160450000Y-90550000D01*
X160450000Y-93050000D01*
X160950000Y-93050000D01*
X160950000Y-90550000D01*
G37*
X160950000Y-90550000D02*
X160450000Y-90550000D01*
X160450000Y-93050000D01*
X160950000Y-93050000D01*
X160950000Y-90550000D01*
G36*
X163950000Y-93550000D02*
G01*
X161450000Y-93550000D01*
X161450000Y-94050000D01*
X163950000Y-94050000D01*
X163950000Y-93550000D01*
G37*
X163950000Y-93550000D02*
X161450000Y-93550000D01*
X161450000Y-94050000D01*
X163950000Y-94050000D01*
X163950000Y-93550000D01*
G36*
X161250000Y-81750000D02*
G01*
X163750000Y-81750000D01*
X163750000Y-81250000D01*
X161250000Y-81250000D01*
X161250000Y-81750000D01*
G37*
X161250000Y-81750000D02*
X163750000Y-81750000D01*
X163750000Y-81250000D01*
X161250000Y-81250000D01*
X161250000Y-81750000D01*
G36*
X161250000Y-77750000D02*
G01*
X163750000Y-77750000D01*
X163750000Y-77250000D01*
X161250000Y-77250000D01*
X161250000Y-77750000D01*
G37*
X161250000Y-77750000D02*
X163750000Y-77750000D01*
X163750000Y-77250000D01*
X161250000Y-77250000D01*
X161250000Y-77750000D01*
G36*
X164750000Y-80750000D02*
G01*
X164750000Y-78250000D01*
X164250000Y-78250000D01*
X164250000Y-80750000D01*
X164750000Y-80750000D01*
G37*
X164750000Y-80750000D02*
X164750000Y-78250000D01*
X164250000Y-78250000D01*
X164250000Y-80750000D01*
X164750000Y-80750000D01*
G36*
X160750000Y-80750000D02*
G01*
X160750000Y-78250000D01*
X160250000Y-78250000D01*
X160250000Y-80750000D01*
X160750000Y-80750000D01*
G37*
X160750000Y-80750000D02*
X160750000Y-78250000D01*
X160250000Y-78250000D01*
X160250000Y-80750000D01*
X160750000Y-80750000D01*
D11*
X162700000Y-91800000D03*
D12*
X162500000Y-79500000D03*
D13*
X161500000Y-71200000D03*
X154500000Y-71200000D03*
D14*
X161260000Y-68400000D03*
X154740000Y-68400000D03*
D15*
X157300000Y-68500000D03*
D16*
X158000000Y-71000000D03*
X158650000Y-71000000D03*
D17*
X159300000Y-71100000D03*
X156700000Y-71100000D03*
D16*
X157350000Y-71000000D03*
D15*
X158700000Y-68500000D03*
D18*
X155900000Y-91330000D03*
X155900000Y-87470000D03*
D10*
G36*
X149699669Y-68050803D02*
G01*
X149715848Y-68053202D01*
X149731714Y-68057177D01*
X149747114Y-68062687D01*
X149761899Y-68069680D01*
X149775928Y-68078088D01*
X149789065Y-68087832D01*
X149801184Y-68098816D01*
X149812168Y-68110935D01*
X149821912Y-68124072D01*
X149830320Y-68138101D01*
X149837313Y-68152886D01*
X149842823Y-68168286D01*
X149846798Y-68184152D01*
X149849197Y-68200331D01*
X149850000Y-68216667D01*
X149850000Y-70783333D01*
X149849197Y-70799669D01*
X149846798Y-70815848D01*
X149842823Y-70831714D01*
X149837313Y-70847114D01*
X149830320Y-70861899D01*
X149821912Y-70875928D01*
X149812168Y-70889065D01*
X149801184Y-70901184D01*
X149789065Y-70912168D01*
X149775928Y-70921912D01*
X149761899Y-70930320D01*
X149747114Y-70937313D01*
X149731714Y-70942823D01*
X149715848Y-70946798D01*
X149699669Y-70949197D01*
X149683333Y-70950000D01*
X149016667Y-70950000D01*
X149000331Y-70949197D01*
X148984152Y-70946798D01*
X148968286Y-70942823D01*
X148952886Y-70937313D01*
X148938101Y-70930320D01*
X148924072Y-70921912D01*
X148910935Y-70912168D01*
X148898816Y-70901184D01*
X148887832Y-70889065D01*
X148878088Y-70875928D01*
X148869680Y-70861899D01*
X148862687Y-70847114D01*
X148857177Y-70831714D01*
X148853202Y-70815848D01*
X148850803Y-70799669D01*
X148850000Y-70783333D01*
X148850000Y-68216667D01*
X148850803Y-68200331D01*
X148853202Y-68184152D01*
X148857177Y-68168286D01*
X148862687Y-68152886D01*
X148869680Y-68138101D01*
X148878088Y-68124072D01*
X148887832Y-68110935D01*
X148898816Y-68098816D01*
X148910935Y-68087832D01*
X148924072Y-68078088D01*
X148938101Y-68069680D01*
X148952886Y-68062687D01*
X148968286Y-68057177D01*
X148984152Y-68053202D01*
X149000331Y-68050803D01*
X149016667Y-68050000D01*
X149683333Y-68050000D01*
X149699669Y-68050803D01*
G37*
G36*
X142999669Y-68050803D02*
G01*
X143015848Y-68053202D01*
X143031714Y-68057177D01*
X143047114Y-68062687D01*
X143061899Y-68069680D01*
X143075928Y-68078088D01*
X143089065Y-68087832D01*
X143101184Y-68098816D01*
X143112168Y-68110935D01*
X143121912Y-68124072D01*
X143130320Y-68138101D01*
X143137313Y-68152886D01*
X143142823Y-68168286D01*
X143146798Y-68184152D01*
X143149197Y-68200331D01*
X143150000Y-68216667D01*
X143150000Y-70783333D01*
X143149197Y-70799669D01*
X143146798Y-70815848D01*
X143142823Y-70831714D01*
X143137313Y-70847114D01*
X143130320Y-70861899D01*
X143121912Y-70875928D01*
X143112168Y-70889065D01*
X143101184Y-70901184D01*
X143089065Y-70912168D01*
X143075928Y-70921912D01*
X143061899Y-70930320D01*
X143047114Y-70937313D01*
X143031714Y-70942823D01*
X143015848Y-70946798D01*
X142999669Y-70949197D01*
X142983333Y-70950000D01*
X142316667Y-70950000D01*
X142300331Y-70949197D01*
X142284152Y-70946798D01*
X142268286Y-70942823D01*
X142252886Y-70937313D01*
X142238101Y-70930320D01*
X142224072Y-70921912D01*
X142210935Y-70912168D01*
X142198816Y-70901184D01*
X142187832Y-70889065D01*
X142178088Y-70875928D01*
X142169680Y-70861899D01*
X142162687Y-70847114D01*
X142157177Y-70831714D01*
X142153202Y-70815848D01*
X142150803Y-70799669D01*
X142150000Y-70783333D01*
X142150000Y-68216667D01*
X142150803Y-68200331D01*
X142153202Y-68184152D01*
X142157177Y-68168286D01*
X142162687Y-68152886D01*
X142169680Y-68138101D01*
X142178088Y-68124072D01*
X142187832Y-68110935D01*
X142198816Y-68098816D01*
X142210935Y-68087832D01*
X142224072Y-68078088D01*
X142238101Y-68069680D01*
X142252886Y-68062687D01*
X142268286Y-68057177D01*
X142284152Y-68053202D01*
X142300331Y-68050803D01*
X142316667Y-68050000D01*
X142983333Y-68050000D01*
X142999669Y-68050803D01*
G37*
G36*
X147137252Y-73750602D02*
G01*
X147149386Y-73752402D01*
X147161286Y-73755382D01*
X147172835Y-73759515D01*
X147183925Y-73764760D01*
X147194446Y-73771066D01*
X147204299Y-73778374D01*
X147213388Y-73786612D01*
X147221626Y-73795701D01*
X147228934Y-73805554D01*
X147235240Y-73816075D01*
X147240485Y-73827165D01*
X147244618Y-73838714D01*
X147247598Y-73850614D01*
X147249398Y-73862748D01*
X147250000Y-73875000D01*
X147250000Y-76625000D01*
X147249398Y-76637252D01*
X147247598Y-76649386D01*
X147244618Y-76661286D01*
X147240485Y-76672835D01*
X147235240Y-76683925D01*
X147228934Y-76694446D01*
X147221626Y-76704299D01*
X147213388Y-76713388D01*
X147204299Y-76721626D01*
X147194446Y-76728934D01*
X147183925Y-76735240D01*
X147172835Y-76740485D01*
X147161286Y-76744618D01*
X147149386Y-76747598D01*
X147137252Y-76749398D01*
X147125000Y-76750000D01*
X146875000Y-76750000D01*
X146862748Y-76749398D01*
X146850614Y-76747598D01*
X146838714Y-76744618D01*
X146827165Y-76740485D01*
X146816075Y-76735240D01*
X146805554Y-76728934D01*
X146795701Y-76721626D01*
X146786612Y-76713388D01*
X146778374Y-76704299D01*
X146771066Y-76694446D01*
X146764760Y-76683925D01*
X146759515Y-76672835D01*
X146755382Y-76661286D01*
X146752402Y-76649386D01*
X146750602Y-76637252D01*
X146750000Y-76625000D01*
X146750000Y-73875000D01*
X146750602Y-73862748D01*
X146752402Y-73850614D01*
X146755382Y-73838714D01*
X146759515Y-73827165D01*
X146764760Y-73816075D01*
X146771066Y-73805554D01*
X146778374Y-73795701D01*
X146786612Y-73786612D01*
X146795701Y-73778374D01*
X146805554Y-73771066D01*
X146816075Y-73764760D01*
X146827165Y-73759515D01*
X146838714Y-73755382D01*
X146850614Y-73752402D01*
X146862748Y-73750602D01*
X146875000Y-73750000D01*
X147125000Y-73750000D01*
X147137252Y-73750602D01*
G37*
G36*
X145137252Y-73750602D02*
G01*
X145149386Y-73752402D01*
X145161286Y-73755382D01*
X145172835Y-73759515D01*
X145183925Y-73764760D01*
X145194446Y-73771066D01*
X145204299Y-73778374D01*
X145213388Y-73786612D01*
X145221626Y-73795701D01*
X145228934Y-73805554D01*
X145235240Y-73816075D01*
X145240485Y-73827165D01*
X145244618Y-73838714D01*
X145247598Y-73850614D01*
X145249398Y-73862748D01*
X145250000Y-73875000D01*
X145250000Y-76625000D01*
X145249398Y-76637252D01*
X145247598Y-76649386D01*
X145244618Y-76661286D01*
X145240485Y-76672835D01*
X145235240Y-76683925D01*
X145228934Y-76694446D01*
X145221626Y-76704299D01*
X145213388Y-76713388D01*
X145204299Y-76721626D01*
X145194446Y-76728934D01*
X145183925Y-76735240D01*
X145172835Y-76740485D01*
X145161286Y-76744618D01*
X145149386Y-76747598D01*
X145137252Y-76749398D01*
X145125000Y-76750000D01*
X144875000Y-76750000D01*
X144862748Y-76749398D01*
X144850614Y-76747598D01*
X144838714Y-76744618D01*
X144827165Y-76740485D01*
X144816075Y-76735240D01*
X144805554Y-76728934D01*
X144795701Y-76721626D01*
X144786612Y-76713388D01*
X144778374Y-76704299D01*
X144771066Y-76694446D01*
X144764760Y-76683925D01*
X144759515Y-76672835D01*
X144755382Y-76661286D01*
X144752402Y-76649386D01*
X144750602Y-76637252D01*
X144750000Y-76625000D01*
X144750000Y-73875000D01*
X144750602Y-73862748D01*
X144752402Y-73850614D01*
X144755382Y-73838714D01*
X144759515Y-73827165D01*
X144764760Y-73816075D01*
X144771066Y-73805554D01*
X144778374Y-73795701D01*
X144786612Y-73786612D01*
X144795701Y-73778374D01*
X144805554Y-73771066D01*
X144816075Y-73764760D01*
X144827165Y-73759515D01*
X144838714Y-73755382D01*
X144850614Y-73752402D01*
X144862748Y-73750602D01*
X144875000Y-73750000D01*
X145125000Y-73750000D01*
X145137252Y-73750602D01*
G37*
G36*
X156842890Y-102150572D02*
G01*
X156854417Y-102152282D01*
X156865721Y-102155113D01*
X156876694Y-102159039D01*
X156887228Y-102164022D01*
X156897224Y-102170013D01*
X156906584Y-102176955D01*
X156915219Y-102184781D01*
X156923045Y-102193416D01*
X156929987Y-102202776D01*
X156935978Y-102212772D01*
X156940961Y-102223306D01*
X156944887Y-102234279D01*
X156947718Y-102245583D01*
X156949428Y-102257110D01*
X156950000Y-102268750D01*
X156950000Y-102506250D01*
X156949428Y-102517890D01*
X156947718Y-102529417D01*
X156944887Y-102540721D01*
X156940961Y-102551694D01*
X156935978Y-102562228D01*
X156929987Y-102572224D01*
X156923045Y-102581584D01*
X156915219Y-102590219D01*
X156906584Y-102598045D01*
X156897224Y-102604987D01*
X156887228Y-102610978D01*
X156876694Y-102615961D01*
X156865721Y-102619887D01*
X156854417Y-102622718D01*
X156842890Y-102624428D01*
X156831250Y-102625000D01*
X156168750Y-102625000D01*
X156157110Y-102624428D01*
X156145583Y-102622718D01*
X156134279Y-102619887D01*
X156123306Y-102615961D01*
X156112772Y-102610978D01*
X156102776Y-102604987D01*
X156093416Y-102598045D01*
X156084781Y-102590219D01*
X156076955Y-102581584D01*
X156070013Y-102572224D01*
X156064022Y-102562228D01*
X156059039Y-102551694D01*
X156055113Y-102540721D01*
X156052282Y-102529417D01*
X156050572Y-102517890D01*
X156050000Y-102506250D01*
X156050000Y-102268750D01*
X156050572Y-102257110D01*
X156052282Y-102245583D01*
X156055113Y-102234279D01*
X156059039Y-102223306D01*
X156064022Y-102212772D01*
X156070013Y-102202776D01*
X156076955Y-102193416D01*
X156084781Y-102184781D01*
X156093416Y-102176955D01*
X156102776Y-102170013D01*
X156112772Y-102164022D01*
X156123306Y-102159039D01*
X156134279Y-102155113D01*
X156145583Y-102152282D01*
X156157110Y-102150572D01*
X156168750Y-102150000D01*
X156831250Y-102150000D01*
X156842890Y-102150572D01*
G37*
G36*
X156842890Y-100275572D02*
G01*
X156854417Y-100277282D01*
X156865721Y-100280113D01*
X156876694Y-100284039D01*
X156887228Y-100289022D01*
X156897224Y-100295013D01*
X156906584Y-100301955D01*
X156915219Y-100309781D01*
X156923045Y-100318416D01*
X156929987Y-100327776D01*
X156935978Y-100337772D01*
X156940961Y-100348306D01*
X156944887Y-100359279D01*
X156947718Y-100370583D01*
X156949428Y-100382110D01*
X156950000Y-100393750D01*
X156950000Y-100631250D01*
X156949428Y-100642890D01*
X156947718Y-100654417D01*
X156944887Y-100665721D01*
X156940961Y-100676694D01*
X156935978Y-100687228D01*
X156929987Y-100697224D01*
X156923045Y-100706584D01*
X156915219Y-100715219D01*
X156906584Y-100723045D01*
X156897224Y-100729987D01*
X156887228Y-100735978D01*
X156876694Y-100740961D01*
X156865721Y-100744887D01*
X156854417Y-100747718D01*
X156842890Y-100749428D01*
X156831250Y-100750000D01*
X156168750Y-100750000D01*
X156157110Y-100749428D01*
X156145583Y-100747718D01*
X156134279Y-100744887D01*
X156123306Y-100740961D01*
X156112772Y-100735978D01*
X156102776Y-100729987D01*
X156093416Y-100723045D01*
X156084781Y-100715219D01*
X156076955Y-100706584D01*
X156070013Y-100697224D01*
X156064022Y-100687228D01*
X156059039Y-100676694D01*
X156055113Y-100665721D01*
X156052282Y-100654417D01*
X156050572Y-100642890D01*
X156050000Y-100631250D01*
X156050000Y-100393750D01*
X156050572Y-100382110D01*
X156052282Y-100370583D01*
X156055113Y-100359279D01*
X156059039Y-100348306D01*
X156064022Y-100337772D01*
X156070013Y-100327776D01*
X156076955Y-100318416D01*
X156084781Y-100309781D01*
X156093416Y-100301955D01*
X156102776Y-100295013D01*
X156112772Y-100289022D01*
X156123306Y-100284039D01*
X156134279Y-100280113D01*
X156145583Y-100277282D01*
X156157110Y-100275572D01*
X156168750Y-100275000D01*
X156831250Y-100275000D01*
X156842890Y-100275572D01*
G37*
D19*
X143500000Y-126500000D03*
X143500000Y-125000000D03*
X143500000Y-123500000D03*
X143500000Y-122000000D03*
X143500000Y-120500000D03*
X143500000Y-119000000D03*
X143500000Y-117500000D03*
X143500000Y-116000000D03*
X143500000Y-114500000D03*
X143500000Y-113000000D03*
X143500000Y-111500000D03*
X143500000Y-110000000D03*
X143500000Y-108500000D03*
D20*
X141750000Y-106000000D03*
X140250000Y-106000000D03*
X138750000Y-106000000D03*
X137250000Y-106000000D03*
X135750000Y-106000000D03*
X134250000Y-106000000D03*
X132750000Y-106000000D03*
X131250000Y-106000000D03*
D19*
X129500000Y-108500000D03*
X129500000Y-110000000D03*
X129500000Y-111500000D03*
X129500000Y-113000000D03*
X129500000Y-114500000D03*
X129500000Y-116000000D03*
X129500000Y-117500000D03*
X129500000Y-119000000D03*
X129500000Y-120500000D03*
X129500000Y-122000000D03*
X129500000Y-123500000D03*
X129500000Y-125000000D03*
X129500000Y-126500000D03*
D10*
G36*
X162339703Y-98225722D02*
G01*
X162354264Y-98227882D01*
X162368543Y-98231459D01*
X162382403Y-98236418D01*
X162395710Y-98242712D01*
X162408336Y-98250280D01*
X162420159Y-98259048D01*
X162431066Y-98268934D01*
X162440952Y-98279841D01*
X162449720Y-98291664D01*
X162457288Y-98304290D01*
X162463582Y-98317597D01*
X162468541Y-98331457D01*
X162472118Y-98345736D01*
X162474278Y-98360297D01*
X162475000Y-98375000D01*
X162475000Y-100225000D01*
X162474278Y-100239703D01*
X162472118Y-100254264D01*
X162468541Y-100268543D01*
X162463582Y-100282403D01*
X162457288Y-100295710D01*
X162449720Y-100308336D01*
X162440952Y-100320159D01*
X162431066Y-100331066D01*
X162420159Y-100340952D01*
X162408336Y-100349720D01*
X162395710Y-100357288D01*
X162382403Y-100363582D01*
X162368543Y-100368541D01*
X162354264Y-100372118D01*
X162339703Y-100374278D01*
X162325000Y-100375000D01*
X161875000Y-100375000D01*
X161860297Y-100374278D01*
X161845736Y-100372118D01*
X161831457Y-100368541D01*
X161817597Y-100363582D01*
X161804290Y-100357288D01*
X161791664Y-100349720D01*
X161779841Y-100340952D01*
X161768934Y-100331066D01*
X161759048Y-100320159D01*
X161750280Y-100308336D01*
X161742712Y-100295710D01*
X161736418Y-100282403D01*
X161731459Y-100268543D01*
X161727882Y-100254264D01*
X161725722Y-100239703D01*
X161725000Y-100225000D01*
X161725000Y-98375000D01*
X161725722Y-98360297D01*
X161727882Y-98345736D01*
X161731459Y-98331457D01*
X161736418Y-98317597D01*
X161742712Y-98304290D01*
X161750280Y-98291664D01*
X161759048Y-98279841D01*
X161768934Y-98268934D01*
X161779841Y-98259048D01*
X161791664Y-98250280D01*
X161804290Y-98242712D01*
X161817597Y-98236418D01*
X161831457Y-98231459D01*
X161845736Y-98227882D01*
X161860297Y-98225722D01*
X161875000Y-98225000D01*
X162325000Y-98225000D01*
X162339703Y-98225722D01*
G37*
G36*
X159539703Y-98225722D02*
G01*
X159554264Y-98227882D01*
X159568543Y-98231459D01*
X159582403Y-98236418D01*
X159595710Y-98242712D01*
X159608336Y-98250280D01*
X159620159Y-98259048D01*
X159631066Y-98268934D01*
X159640952Y-98279841D01*
X159649720Y-98291664D01*
X159657288Y-98304290D01*
X159663582Y-98317597D01*
X159668541Y-98331457D01*
X159672118Y-98345736D01*
X159674278Y-98360297D01*
X159675000Y-98375000D01*
X159675000Y-100225000D01*
X159674278Y-100239703D01*
X159672118Y-100254264D01*
X159668541Y-100268543D01*
X159663582Y-100282403D01*
X159657288Y-100295710D01*
X159649720Y-100308336D01*
X159640952Y-100320159D01*
X159631066Y-100331066D01*
X159620159Y-100340952D01*
X159608336Y-100349720D01*
X159595710Y-100357288D01*
X159582403Y-100363582D01*
X159568543Y-100368541D01*
X159554264Y-100372118D01*
X159539703Y-100374278D01*
X159525000Y-100375000D01*
X159075000Y-100375000D01*
X159060297Y-100374278D01*
X159045736Y-100372118D01*
X159031457Y-100368541D01*
X159017597Y-100363582D01*
X159004290Y-100357288D01*
X158991664Y-100349720D01*
X158979841Y-100340952D01*
X158968934Y-100331066D01*
X158959048Y-100320159D01*
X158950280Y-100308336D01*
X158942712Y-100295710D01*
X158936418Y-100282403D01*
X158931459Y-100268543D01*
X158927882Y-100254264D01*
X158925722Y-100239703D01*
X158925000Y-100225000D01*
X158925000Y-98375000D01*
X158925722Y-98360297D01*
X158927882Y-98345736D01*
X158931459Y-98331457D01*
X158936418Y-98317597D01*
X158942712Y-98304290D01*
X158950280Y-98291664D01*
X158959048Y-98279841D01*
X158968934Y-98268934D01*
X158979841Y-98259048D01*
X158991664Y-98250280D01*
X159004290Y-98242712D01*
X159017597Y-98236418D01*
X159031457Y-98231459D01*
X159045736Y-98227882D01*
X159060297Y-98225722D01*
X159075000Y-98225000D01*
X159525000Y-98225000D01*
X159539703Y-98225722D01*
G37*
G36*
X146980390Y-121550572D02*
G01*
X146991917Y-121552282D01*
X147003221Y-121555113D01*
X147014194Y-121559039D01*
X147024728Y-121564022D01*
X147034724Y-121570013D01*
X147044084Y-121576955D01*
X147052719Y-121584781D01*
X147060545Y-121593416D01*
X147067487Y-121602776D01*
X147073478Y-121612772D01*
X147078461Y-121623306D01*
X147082387Y-121634279D01*
X147085218Y-121645583D01*
X147086928Y-121657110D01*
X147087500Y-121668750D01*
X147087500Y-122331250D01*
X147086928Y-122342890D01*
X147085218Y-122354417D01*
X147082387Y-122365721D01*
X147078461Y-122376694D01*
X147073478Y-122387228D01*
X147067487Y-122397224D01*
X147060545Y-122406584D01*
X147052719Y-122415219D01*
X147044084Y-122423045D01*
X147034724Y-122429987D01*
X147024728Y-122435978D01*
X147014194Y-122440961D01*
X147003221Y-122444887D01*
X146991917Y-122447718D01*
X146980390Y-122449428D01*
X146968750Y-122450000D01*
X146731250Y-122450000D01*
X146719610Y-122449428D01*
X146708083Y-122447718D01*
X146696779Y-122444887D01*
X146685806Y-122440961D01*
X146675272Y-122435978D01*
X146665276Y-122429987D01*
X146655916Y-122423045D01*
X146647281Y-122415219D01*
X146639455Y-122406584D01*
X146632513Y-122397224D01*
X146626522Y-122387228D01*
X146621539Y-122376694D01*
X146617613Y-122365721D01*
X146614782Y-122354417D01*
X146613072Y-122342890D01*
X146612500Y-122331250D01*
X146612500Y-121668750D01*
X146613072Y-121657110D01*
X146614782Y-121645583D01*
X146617613Y-121634279D01*
X146621539Y-121623306D01*
X146626522Y-121612772D01*
X146632513Y-121602776D01*
X146639455Y-121593416D01*
X146647281Y-121584781D01*
X146655916Y-121576955D01*
X146665276Y-121570013D01*
X146675272Y-121564022D01*
X146685806Y-121559039D01*
X146696779Y-121555113D01*
X146708083Y-121552282D01*
X146719610Y-121550572D01*
X146731250Y-121550000D01*
X146968750Y-121550000D01*
X146980390Y-121550572D01*
G37*
G36*
X148855390Y-121550572D02*
G01*
X148866917Y-121552282D01*
X148878221Y-121555113D01*
X148889194Y-121559039D01*
X148899728Y-121564022D01*
X148909724Y-121570013D01*
X148919084Y-121576955D01*
X148927719Y-121584781D01*
X148935545Y-121593416D01*
X148942487Y-121602776D01*
X148948478Y-121612772D01*
X148953461Y-121623306D01*
X148957387Y-121634279D01*
X148960218Y-121645583D01*
X148961928Y-121657110D01*
X148962500Y-121668750D01*
X148962500Y-122331250D01*
X148961928Y-122342890D01*
X148960218Y-122354417D01*
X148957387Y-122365721D01*
X148953461Y-122376694D01*
X148948478Y-122387228D01*
X148942487Y-122397224D01*
X148935545Y-122406584D01*
X148927719Y-122415219D01*
X148919084Y-122423045D01*
X148909724Y-122429987D01*
X148899728Y-122435978D01*
X148889194Y-122440961D01*
X148878221Y-122444887D01*
X148866917Y-122447718D01*
X148855390Y-122449428D01*
X148843750Y-122450000D01*
X148606250Y-122450000D01*
X148594610Y-122449428D01*
X148583083Y-122447718D01*
X148571779Y-122444887D01*
X148560806Y-122440961D01*
X148550272Y-122435978D01*
X148540276Y-122429987D01*
X148530916Y-122423045D01*
X148522281Y-122415219D01*
X148514455Y-122406584D01*
X148507513Y-122397224D01*
X148501522Y-122387228D01*
X148496539Y-122376694D01*
X148492613Y-122365721D01*
X148489782Y-122354417D01*
X148488072Y-122342890D01*
X148487500Y-122331250D01*
X148487500Y-121668750D01*
X148488072Y-121657110D01*
X148489782Y-121645583D01*
X148492613Y-121634279D01*
X148496539Y-121623306D01*
X148501522Y-121612772D01*
X148507513Y-121602776D01*
X148514455Y-121593416D01*
X148522281Y-121584781D01*
X148530916Y-121576955D01*
X148540276Y-121570013D01*
X148550272Y-121564022D01*
X148560806Y-121559039D01*
X148571779Y-121555113D01*
X148583083Y-121552282D01*
X148594610Y-121550572D01*
X148606250Y-121550000D01*
X148843750Y-121550000D01*
X148855390Y-121550572D01*
G37*
D21*
X165600000Y-97300000D03*
X166550000Y-95300000D03*
X164650000Y-95300000D03*
D10*
G36*
X163567890Y-74750572D02*
G01*
X163579417Y-74752282D01*
X163590721Y-74755113D01*
X163601694Y-74759039D01*
X163612228Y-74764022D01*
X163622224Y-74770013D01*
X163631584Y-74776955D01*
X163640219Y-74784781D01*
X163648045Y-74793416D01*
X163654987Y-74802776D01*
X163660978Y-74812772D01*
X163665961Y-74823306D01*
X163669887Y-74834279D01*
X163672718Y-74845583D01*
X163674428Y-74857110D01*
X163675000Y-74868750D01*
X163675000Y-75531250D01*
X163674428Y-75542890D01*
X163672718Y-75554417D01*
X163669887Y-75565721D01*
X163665961Y-75576694D01*
X163660978Y-75587228D01*
X163654987Y-75597224D01*
X163648045Y-75606584D01*
X163640219Y-75615219D01*
X163631584Y-75623045D01*
X163622224Y-75629987D01*
X163612228Y-75635978D01*
X163601694Y-75640961D01*
X163590721Y-75644887D01*
X163579417Y-75647718D01*
X163567890Y-75649428D01*
X163556250Y-75650000D01*
X163318750Y-75650000D01*
X163307110Y-75649428D01*
X163295583Y-75647718D01*
X163284279Y-75644887D01*
X163273306Y-75640961D01*
X163262772Y-75635978D01*
X163252776Y-75629987D01*
X163243416Y-75623045D01*
X163234781Y-75615219D01*
X163226955Y-75606584D01*
X163220013Y-75597224D01*
X163214022Y-75587228D01*
X163209039Y-75576694D01*
X163205113Y-75565721D01*
X163202282Y-75554417D01*
X163200572Y-75542890D01*
X163200000Y-75531250D01*
X163200000Y-74868750D01*
X163200572Y-74857110D01*
X163202282Y-74845583D01*
X163205113Y-74834279D01*
X163209039Y-74823306D01*
X163214022Y-74812772D01*
X163220013Y-74802776D01*
X163226955Y-74793416D01*
X163234781Y-74784781D01*
X163243416Y-74776955D01*
X163252776Y-74770013D01*
X163262772Y-74764022D01*
X163273306Y-74759039D01*
X163284279Y-74755113D01*
X163295583Y-74752282D01*
X163307110Y-74750572D01*
X163318750Y-74750000D01*
X163556250Y-74750000D01*
X163567890Y-74750572D01*
G37*
G36*
X161692890Y-74750572D02*
G01*
X161704417Y-74752282D01*
X161715721Y-74755113D01*
X161726694Y-74759039D01*
X161737228Y-74764022D01*
X161747224Y-74770013D01*
X161756584Y-74776955D01*
X161765219Y-74784781D01*
X161773045Y-74793416D01*
X161779987Y-74802776D01*
X161785978Y-74812772D01*
X161790961Y-74823306D01*
X161794887Y-74834279D01*
X161797718Y-74845583D01*
X161799428Y-74857110D01*
X161800000Y-74868750D01*
X161800000Y-75531250D01*
X161799428Y-75542890D01*
X161797718Y-75554417D01*
X161794887Y-75565721D01*
X161790961Y-75576694D01*
X161785978Y-75587228D01*
X161779987Y-75597224D01*
X161773045Y-75606584D01*
X161765219Y-75615219D01*
X161756584Y-75623045D01*
X161747224Y-75629987D01*
X161737228Y-75635978D01*
X161726694Y-75640961D01*
X161715721Y-75644887D01*
X161704417Y-75647718D01*
X161692890Y-75649428D01*
X161681250Y-75650000D01*
X161443750Y-75650000D01*
X161432110Y-75649428D01*
X161420583Y-75647718D01*
X161409279Y-75644887D01*
X161398306Y-75640961D01*
X161387772Y-75635978D01*
X161377776Y-75629987D01*
X161368416Y-75623045D01*
X161359781Y-75615219D01*
X161351955Y-75606584D01*
X161345013Y-75597224D01*
X161339022Y-75587228D01*
X161334039Y-75576694D01*
X161330113Y-75565721D01*
X161327282Y-75554417D01*
X161325572Y-75542890D01*
X161325000Y-75531250D01*
X161325000Y-74868750D01*
X161325572Y-74857110D01*
X161327282Y-74845583D01*
X161330113Y-74834279D01*
X161334039Y-74823306D01*
X161339022Y-74812772D01*
X161345013Y-74802776D01*
X161351955Y-74793416D01*
X161359781Y-74784781D01*
X161368416Y-74776955D01*
X161377776Y-74770013D01*
X161387772Y-74764022D01*
X161398306Y-74759039D01*
X161409279Y-74755113D01*
X161420583Y-74752282D01*
X161432110Y-74750572D01*
X161443750Y-74750000D01*
X161681250Y-74750000D01*
X161692890Y-74750572D01*
G37*
G36*
X157742890Y-82500572D02*
G01*
X157754417Y-82502282D01*
X157765721Y-82505113D01*
X157776694Y-82509039D01*
X157787228Y-82514022D01*
X157797224Y-82520013D01*
X157806584Y-82526955D01*
X157815219Y-82534781D01*
X157823045Y-82543416D01*
X157829987Y-82552776D01*
X157835978Y-82562772D01*
X157840961Y-82573306D01*
X157844887Y-82584279D01*
X157847718Y-82595583D01*
X157849428Y-82607110D01*
X157850000Y-82618750D01*
X157850000Y-82856250D01*
X157849428Y-82867890D01*
X157847718Y-82879417D01*
X157844887Y-82890721D01*
X157840961Y-82901694D01*
X157835978Y-82912228D01*
X157829987Y-82922224D01*
X157823045Y-82931584D01*
X157815219Y-82940219D01*
X157806584Y-82948045D01*
X157797224Y-82954987D01*
X157787228Y-82960978D01*
X157776694Y-82965961D01*
X157765721Y-82969887D01*
X157754417Y-82972718D01*
X157742890Y-82974428D01*
X157731250Y-82975000D01*
X157068750Y-82975000D01*
X157057110Y-82974428D01*
X157045583Y-82972718D01*
X157034279Y-82969887D01*
X157023306Y-82965961D01*
X157012772Y-82960978D01*
X157002776Y-82954987D01*
X156993416Y-82948045D01*
X156984781Y-82940219D01*
X156976955Y-82931584D01*
X156970013Y-82922224D01*
X156964022Y-82912228D01*
X156959039Y-82901694D01*
X156955113Y-82890721D01*
X156952282Y-82879417D01*
X156950572Y-82867890D01*
X156950000Y-82856250D01*
X156950000Y-82618750D01*
X156950572Y-82607110D01*
X156952282Y-82595583D01*
X156955113Y-82584279D01*
X156959039Y-82573306D01*
X156964022Y-82562772D01*
X156970013Y-82552776D01*
X156976955Y-82543416D01*
X156984781Y-82534781D01*
X156993416Y-82526955D01*
X157002776Y-82520013D01*
X157012772Y-82514022D01*
X157023306Y-82509039D01*
X157034279Y-82505113D01*
X157045583Y-82502282D01*
X157057110Y-82500572D01*
X157068750Y-82500000D01*
X157731250Y-82500000D01*
X157742890Y-82500572D01*
G37*
G36*
X157742890Y-80625572D02*
G01*
X157754417Y-80627282D01*
X157765721Y-80630113D01*
X157776694Y-80634039D01*
X157787228Y-80639022D01*
X157797224Y-80645013D01*
X157806584Y-80651955D01*
X157815219Y-80659781D01*
X157823045Y-80668416D01*
X157829987Y-80677776D01*
X157835978Y-80687772D01*
X157840961Y-80698306D01*
X157844887Y-80709279D01*
X157847718Y-80720583D01*
X157849428Y-80732110D01*
X157850000Y-80743750D01*
X157850000Y-80981250D01*
X157849428Y-80992890D01*
X157847718Y-81004417D01*
X157844887Y-81015721D01*
X157840961Y-81026694D01*
X157835978Y-81037228D01*
X157829987Y-81047224D01*
X157823045Y-81056584D01*
X157815219Y-81065219D01*
X157806584Y-81073045D01*
X157797224Y-81079987D01*
X157787228Y-81085978D01*
X157776694Y-81090961D01*
X157765721Y-81094887D01*
X157754417Y-81097718D01*
X157742890Y-81099428D01*
X157731250Y-81100000D01*
X157068750Y-81100000D01*
X157057110Y-81099428D01*
X157045583Y-81097718D01*
X157034279Y-81094887D01*
X157023306Y-81090961D01*
X157012772Y-81085978D01*
X157002776Y-81079987D01*
X156993416Y-81073045D01*
X156984781Y-81065219D01*
X156976955Y-81056584D01*
X156970013Y-81047224D01*
X156964022Y-81037228D01*
X156959039Y-81026694D01*
X156955113Y-81015721D01*
X156952282Y-81004417D01*
X156950572Y-80992890D01*
X156950000Y-80981250D01*
X156950000Y-80743750D01*
X156950572Y-80732110D01*
X156952282Y-80720583D01*
X156955113Y-80709279D01*
X156959039Y-80698306D01*
X156964022Y-80687772D01*
X156970013Y-80677776D01*
X156976955Y-80668416D01*
X156984781Y-80659781D01*
X156993416Y-80651955D01*
X157002776Y-80645013D01*
X157012772Y-80639022D01*
X157023306Y-80634039D01*
X157034279Y-80630113D01*
X157045583Y-80627282D01*
X157057110Y-80625572D01*
X157068750Y-80625000D01*
X157731250Y-80625000D01*
X157742890Y-80625572D01*
G37*
G36*
X162842890Y-88000572D02*
G01*
X162854417Y-88002282D01*
X162865721Y-88005113D01*
X162876694Y-88009039D01*
X162887228Y-88014022D01*
X162897224Y-88020013D01*
X162906584Y-88026955D01*
X162915219Y-88034781D01*
X162923045Y-88043416D01*
X162929987Y-88052776D01*
X162935978Y-88062772D01*
X162940961Y-88073306D01*
X162944887Y-88084279D01*
X162947718Y-88095583D01*
X162949428Y-88107110D01*
X162950000Y-88118750D01*
X162950000Y-88356250D01*
X162949428Y-88367890D01*
X162947718Y-88379417D01*
X162944887Y-88390721D01*
X162940961Y-88401694D01*
X162935978Y-88412228D01*
X162929987Y-88422224D01*
X162923045Y-88431584D01*
X162915219Y-88440219D01*
X162906584Y-88448045D01*
X162897224Y-88454987D01*
X162887228Y-88460978D01*
X162876694Y-88465961D01*
X162865721Y-88469887D01*
X162854417Y-88472718D01*
X162842890Y-88474428D01*
X162831250Y-88475000D01*
X162168750Y-88475000D01*
X162157110Y-88474428D01*
X162145583Y-88472718D01*
X162134279Y-88469887D01*
X162123306Y-88465961D01*
X162112772Y-88460978D01*
X162102776Y-88454987D01*
X162093416Y-88448045D01*
X162084781Y-88440219D01*
X162076955Y-88431584D01*
X162070013Y-88422224D01*
X162064022Y-88412228D01*
X162059039Y-88401694D01*
X162055113Y-88390721D01*
X162052282Y-88379417D01*
X162050572Y-88367890D01*
X162050000Y-88356250D01*
X162050000Y-88118750D01*
X162050572Y-88107110D01*
X162052282Y-88095583D01*
X162055113Y-88084279D01*
X162059039Y-88073306D01*
X162064022Y-88062772D01*
X162070013Y-88052776D01*
X162076955Y-88043416D01*
X162084781Y-88034781D01*
X162093416Y-88026955D01*
X162102776Y-88020013D01*
X162112772Y-88014022D01*
X162123306Y-88009039D01*
X162134279Y-88005113D01*
X162145583Y-88002282D01*
X162157110Y-88000572D01*
X162168750Y-88000000D01*
X162831250Y-88000000D01*
X162842890Y-88000572D01*
G37*
G36*
X162842890Y-86125572D02*
G01*
X162854417Y-86127282D01*
X162865721Y-86130113D01*
X162876694Y-86134039D01*
X162887228Y-86139022D01*
X162897224Y-86145013D01*
X162906584Y-86151955D01*
X162915219Y-86159781D01*
X162923045Y-86168416D01*
X162929987Y-86177776D01*
X162935978Y-86187772D01*
X162940961Y-86198306D01*
X162944887Y-86209279D01*
X162947718Y-86220583D01*
X162949428Y-86232110D01*
X162950000Y-86243750D01*
X162950000Y-86481250D01*
X162949428Y-86492890D01*
X162947718Y-86504417D01*
X162944887Y-86515721D01*
X162940961Y-86526694D01*
X162935978Y-86537228D01*
X162929987Y-86547224D01*
X162923045Y-86556584D01*
X162915219Y-86565219D01*
X162906584Y-86573045D01*
X162897224Y-86579987D01*
X162887228Y-86585978D01*
X162876694Y-86590961D01*
X162865721Y-86594887D01*
X162854417Y-86597718D01*
X162842890Y-86599428D01*
X162831250Y-86600000D01*
X162168750Y-86600000D01*
X162157110Y-86599428D01*
X162145583Y-86597718D01*
X162134279Y-86594887D01*
X162123306Y-86590961D01*
X162112772Y-86585978D01*
X162102776Y-86579987D01*
X162093416Y-86573045D01*
X162084781Y-86565219D01*
X162076955Y-86556584D01*
X162070013Y-86547224D01*
X162064022Y-86537228D01*
X162059039Y-86526694D01*
X162055113Y-86515721D01*
X162052282Y-86504417D01*
X162050572Y-86492890D01*
X162050000Y-86481250D01*
X162050000Y-86243750D01*
X162050572Y-86232110D01*
X162052282Y-86220583D01*
X162055113Y-86209279D01*
X162059039Y-86198306D01*
X162064022Y-86187772D01*
X162070013Y-86177776D01*
X162076955Y-86168416D01*
X162084781Y-86159781D01*
X162093416Y-86151955D01*
X162102776Y-86145013D01*
X162112772Y-86139022D01*
X162123306Y-86134039D01*
X162134279Y-86130113D01*
X162145583Y-86127282D01*
X162157110Y-86125572D01*
X162168750Y-86125000D01*
X162831250Y-86125000D01*
X162842890Y-86125572D01*
G37*
G36*
X161767890Y-102350572D02*
G01*
X161779417Y-102352282D01*
X161790721Y-102355113D01*
X161801694Y-102359039D01*
X161812228Y-102364022D01*
X161822224Y-102370013D01*
X161831584Y-102376955D01*
X161840219Y-102384781D01*
X161848045Y-102393416D01*
X161854987Y-102402776D01*
X161860978Y-102412772D01*
X161865961Y-102423306D01*
X161869887Y-102434279D01*
X161872718Y-102445583D01*
X161874428Y-102457110D01*
X161875000Y-102468750D01*
X161875000Y-103131250D01*
X161874428Y-103142890D01*
X161872718Y-103154417D01*
X161869887Y-103165721D01*
X161865961Y-103176694D01*
X161860978Y-103187228D01*
X161854987Y-103197224D01*
X161848045Y-103206584D01*
X161840219Y-103215219D01*
X161831584Y-103223045D01*
X161822224Y-103229987D01*
X161812228Y-103235978D01*
X161801694Y-103240961D01*
X161790721Y-103244887D01*
X161779417Y-103247718D01*
X161767890Y-103249428D01*
X161756250Y-103250000D01*
X161518750Y-103250000D01*
X161507110Y-103249428D01*
X161495583Y-103247718D01*
X161484279Y-103244887D01*
X161473306Y-103240961D01*
X161462772Y-103235978D01*
X161452776Y-103229987D01*
X161443416Y-103223045D01*
X161434781Y-103215219D01*
X161426955Y-103206584D01*
X161420013Y-103197224D01*
X161414022Y-103187228D01*
X161409039Y-103176694D01*
X161405113Y-103165721D01*
X161402282Y-103154417D01*
X161400572Y-103142890D01*
X161400000Y-103131250D01*
X161400000Y-102468750D01*
X161400572Y-102457110D01*
X161402282Y-102445583D01*
X161405113Y-102434279D01*
X161409039Y-102423306D01*
X161414022Y-102412772D01*
X161420013Y-102402776D01*
X161426955Y-102393416D01*
X161434781Y-102384781D01*
X161443416Y-102376955D01*
X161452776Y-102370013D01*
X161462772Y-102364022D01*
X161473306Y-102359039D01*
X161484279Y-102355113D01*
X161495583Y-102352282D01*
X161507110Y-102350572D01*
X161518750Y-102350000D01*
X161756250Y-102350000D01*
X161767890Y-102350572D01*
G37*
G36*
X159892890Y-102350572D02*
G01*
X159904417Y-102352282D01*
X159915721Y-102355113D01*
X159926694Y-102359039D01*
X159937228Y-102364022D01*
X159947224Y-102370013D01*
X159956584Y-102376955D01*
X159965219Y-102384781D01*
X159973045Y-102393416D01*
X159979987Y-102402776D01*
X159985978Y-102412772D01*
X159990961Y-102423306D01*
X159994887Y-102434279D01*
X159997718Y-102445583D01*
X159999428Y-102457110D01*
X160000000Y-102468750D01*
X160000000Y-103131250D01*
X159999428Y-103142890D01*
X159997718Y-103154417D01*
X159994887Y-103165721D01*
X159990961Y-103176694D01*
X159985978Y-103187228D01*
X159979987Y-103197224D01*
X159973045Y-103206584D01*
X159965219Y-103215219D01*
X159956584Y-103223045D01*
X159947224Y-103229987D01*
X159937228Y-103235978D01*
X159926694Y-103240961D01*
X159915721Y-103244887D01*
X159904417Y-103247718D01*
X159892890Y-103249428D01*
X159881250Y-103250000D01*
X159643750Y-103250000D01*
X159632110Y-103249428D01*
X159620583Y-103247718D01*
X159609279Y-103244887D01*
X159598306Y-103240961D01*
X159587772Y-103235978D01*
X159577776Y-103229987D01*
X159568416Y-103223045D01*
X159559781Y-103215219D01*
X159551955Y-103206584D01*
X159545013Y-103197224D01*
X159539022Y-103187228D01*
X159534039Y-103176694D01*
X159530113Y-103165721D01*
X159527282Y-103154417D01*
X159525572Y-103142890D01*
X159525000Y-103131250D01*
X159525000Y-102468750D01*
X159525572Y-102457110D01*
X159527282Y-102445583D01*
X159530113Y-102434279D01*
X159534039Y-102423306D01*
X159539022Y-102412772D01*
X159545013Y-102402776D01*
X159551955Y-102393416D01*
X159559781Y-102384781D01*
X159568416Y-102376955D01*
X159577776Y-102370013D01*
X159587772Y-102364022D01*
X159598306Y-102359039D01*
X159609279Y-102355113D01*
X159620583Y-102352282D01*
X159632110Y-102350572D01*
X159643750Y-102350000D01*
X159881250Y-102350000D01*
X159892890Y-102350572D01*
G37*
G36*
X156242890Y-74325572D02*
G01*
X156254417Y-74327282D01*
X156265721Y-74330113D01*
X156276694Y-74334039D01*
X156287228Y-74339022D01*
X156297224Y-74345013D01*
X156306584Y-74351955D01*
X156315219Y-74359781D01*
X156323045Y-74368416D01*
X156329987Y-74377776D01*
X156335978Y-74387772D01*
X156340961Y-74398306D01*
X156344887Y-74409279D01*
X156347718Y-74420583D01*
X156349428Y-74432110D01*
X156350000Y-74443750D01*
X156350000Y-74681250D01*
X156349428Y-74692890D01*
X156347718Y-74704417D01*
X156344887Y-74715721D01*
X156340961Y-74726694D01*
X156335978Y-74737228D01*
X156329987Y-74747224D01*
X156323045Y-74756584D01*
X156315219Y-74765219D01*
X156306584Y-74773045D01*
X156297224Y-74779987D01*
X156287228Y-74785978D01*
X156276694Y-74790961D01*
X156265721Y-74794887D01*
X156254417Y-74797718D01*
X156242890Y-74799428D01*
X156231250Y-74800000D01*
X155568750Y-74800000D01*
X155557110Y-74799428D01*
X155545583Y-74797718D01*
X155534279Y-74794887D01*
X155523306Y-74790961D01*
X155512772Y-74785978D01*
X155502776Y-74779987D01*
X155493416Y-74773045D01*
X155484781Y-74765219D01*
X155476955Y-74756584D01*
X155470013Y-74747224D01*
X155464022Y-74737228D01*
X155459039Y-74726694D01*
X155455113Y-74715721D01*
X155452282Y-74704417D01*
X155450572Y-74692890D01*
X155450000Y-74681250D01*
X155450000Y-74443750D01*
X155450572Y-74432110D01*
X155452282Y-74420583D01*
X155455113Y-74409279D01*
X155459039Y-74398306D01*
X155464022Y-74387772D01*
X155470013Y-74377776D01*
X155476955Y-74368416D01*
X155484781Y-74359781D01*
X155493416Y-74351955D01*
X155502776Y-74345013D01*
X155512772Y-74339022D01*
X155523306Y-74334039D01*
X155534279Y-74330113D01*
X155545583Y-74327282D01*
X155557110Y-74325572D01*
X155568750Y-74325000D01*
X156231250Y-74325000D01*
X156242890Y-74325572D01*
G37*
G36*
X156242890Y-76200572D02*
G01*
X156254417Y-76202282D01*
X156265721Y-76205113D01*
X156276694Y-76209039D01*
X156287228Y-76214022D01*
X156297224Y-76220013D01*
X156306584Y-76226955D01*
X156315219Y-76234781D01*
X156323045Y-76243416D01*
X156329987Y-76252776D01*
X156335978Y-76262772D01*
X156340961Y-76273306D01*
X156344887Y-76284279D01*
X156347718Y-76295583D01*
X156349428Y-76307110D01*
X156350000Y-76318750D01*
X156350000Y-76556250D01*
X156349428Y-76567890D01*
X156347718Y-76579417D01*
X156344887Y-76590721D01*
X156340961Y-76601694D01*
X156335978Y-76612228D01*
X156329987Y-76622224D01*
X156323045Y-76631584D01*
X156315219Y-76640219D01*
X156306584Y-76648045D01*
X156297224Y-76654987D01*
X156287228Y-76660978D01*
X156276694Y-76665961D01*
X156265721Y-76669887D01*
X156254417Y-76672718D01*
X156242890Y-76674428D01*
X156231250Y-76675000D01*
X155568750Y-76675000D01*
X155557110Y-76674428D01*
X155545583Y-76672718D01*
X155534279Y-76669887D01*
X155523306Y-76665961D01*
X155512772Y-76660978D01*
X155502776Y-76654987D01*
X155493416Y-76648045D01*
X155484781Y-76640219D01*
X155476955Y-76631584D01*
X155470013Y-76622224D01*
X155464022Y-76612228D01*
X155459039Y-76601694D01*
X155455113Y-76590721D01*
X155452282Y-76579417D01*
X155450572Y-76567890D01*
X155450000Y-76556250D01*
X155450000Y-76318750D01*
X155450572Y-76307110D01*
X155452282Y-76295583D01*
X155455113Y-76284279D01*
X155459039Y-76273306D01*
X155464022Y-76262772D01*
X155470013Y-76252776D01*
X155476955Y-76243416D01*
X155484781Y-76234781D01*
X155493416Y-76226955D01*
X155502776Y-76220013D01*
X155512772Y-76214022D01*
X155523306Y-76209039D01*
X155534279Y-76205113D01*
X155545583Y-76202282D01*
X155557110Y-76200572D01*
X155568750Y-76200000D01*
X156231250Y-76200000D01*
X156242890Y-76200572D01*
G37*
G36*
X166655390Y-77150572D02*
G01*
X166666917Y-77152282D01*
X166678221Y-77155113D01*
X166689194Y-77159039D01*
X166699728Y-77164022D01*
X166709724Y-77170013D01*
X166719084Y-77176955D01*
X166727719Y-77184781D01*
X166735545Y-77193416D01*
X166742487Y-77202776D01*
X166748478Y-77212772D01*
X166753461Y-77223306D01*
X166757387Y-77234279D01*
X166760218Y-77245583D01*
X166761928Y-77257110D01*
X166762500Y-77268750D01*
X166762500Y-77931250D01*
X166761928Y-77942890D01*
X166760218Y-77954417D01*
X166757387Y-77965721D01*
X166753461Y-77976694D01*
X166748478Y-77987228D01*
X166742487Y-77997224D01*
X166735545Y-78006584D01*
X166727719Y-78015219D01*
X166719084Y-78023045D01*
X166709724Y-78029987D01*
X166699728Y-78035978D01*
X166689194Y-78040961D01*
X166678221Y-78044887D01*
X166666917Y-78047718D01*
X166655390Y-78049428D01*
X166643750Y-78050000D01*
X166406250Y-78050000D01*
X166394610Y-78049428D01*
X166383083Y-78047718D01*
X166371779Y-78044887D01*
X166360806Y-78040961D01*
X166350272Y-78035978D01*
X166340276Y-78029987D01*
X166330916Y-78023045D01*
X166322281Y-78015219D01*
X166314455Y-78006584D01*
X166307513Y-77997224D01*
X166301522Y-77987228D01*
X166296539Y-77976694D01*
X166292613Y-77965721D01*
X166289782Y-77954417D01*
X166288072Y-77942890D01*
X166287500Y-77931250D01*
X166287500Y-77268750D01*
X166288072Y-77257110D01*
X166289782Y-77245583D01*
X166292613Y-77234279D01*
X166296539Y-77223306D01*
X166301522Y-77212772D01*
X166307513Y-77202776D01*
X166314455Y-77193416D01*
X166322281Y-77184781D01*
X166330916Y-77176955D01*
X166340276Y-77170013D01*
X166350272Y-77164022D01*
X166360806Y-77159039D01*
X166371779Y-77155113D01*
X166383083Y-77152282D01*
X166394610Y-77150572D01*
X166406250Y-77150000D01*
X166643750Y-77150000D01*
X166655390Y-77150572D01*
G37*
G36*
X168530390Y-77150572D02*
G01*
X168541917Y-77152282D01*
X168553221Y-77155113D01*
X168564194Y-77159039D01*
X168574728Y-77164022D01*
X168584724Y-77170013D01*
X168594084Y-77176955D01*
X168602719Y-77184781D01*
X168610545Y-77193416D01*
X168617487Y-77202776D01*
X168623478Y-77212772D01*
X168628461Y-77223306D01*
X168632387Y-77234279D01*
X168635218Y-77245583D01*
X168636928Y-77257110D01*
X168637500Y-77268750D01*
X168637500Y-77931250D01*
X168636928Y-77942890D01*
X168635218Y-77954417D01*
X168632387Y-77965721D01*
X168628461Y-77976694D01*
X168623478Y-77987228D01*
X168617487Y-77997224D01*
X168610545Y-78006584D01*
X168602719Y-78015219D01*
X168594084Y-78023045D01*
X168584724Y-78029987D01*
X168574728Y-78035978D01*
X168564194Y-78040961D01*
X168553221Y-78044887D01*
X168541917Y-78047718D01*
X168530390Y-78049428D01*
X168518750Y-78050000D01*
X168281250Y-78050000D01*
X168269610Y-78049428D01*
X168258083Y-78047718D01*
X168246779Y-78044887D01*
X168235806Y-78040961D01*
X168225272Y-78035978D01*
X168215276Y-78029987D01*
X168205916Y-78023045D01*
X168197281Y-78015219D01*
X168189455Y-78006584D01*
X168182513Y-77997224D01*
X168176522Y-77987228D01*
X168171539Y-77976694D01*
X168167613Y-77965721D01*
X168164782Y-77954417D01*
X168163072Y-77942890D01*
X168162500Y-77931250D01*
X168162500Y-77268750D01*
X168163072Y-77257110D01*
X168164782Y-77245583D01*
X168167613Y-77234279D01*
X168171539Y-77223306D01*
X168176522Y-77212772D01*
X168182513Y-77202776D01*
X168189455Y-77193416D01*
X168197281Y-77184781D01*
X168205916Y-77176955D01*
X168215276Y-77170013D01*
X168225272Y-77164022D01*
X168235806Y-77159039D01*
X168246779Y-77155113D01*
X168258083Y-77152282D01*
X168269610Y-77150572D01*
X168281250Y-77150000D01*
X168518750Y-77150000D01*
X168530390Y-77150572D01*
G37*
G36*
X165892890Y-99025572D02*
G01*
X165904417Y-99027282D01*
X165915721Y-99030113D01*
X165926694Y-99034039D01*
X165937228Y-99039022D01*
X165947224Y-99045013D01*
X165956584Y-99051955D01*
X165965219Y-99059781D01*
X165973045Y-99068416D01*
X165979987Y-99077776D01*
X165985978Y-99087772D01*
X165990961Y-99098306D01*
X165994887Y-99109279D01*
X165997718Y-99120583D01*
X165999428Y-99132110D01*
X166000000Y-99143750D01*
X166000000Y-99381250D01*
X165999428Y-99392890D01*
X165997718Y-99404417D01*
X165994887Y-99415721D01*
X165990961Y-99426694D01*
X165985978Y-99437228D01*
X165979987Y-99447224D01*
X165973045Y-99456584D01*
X165965219Y-99465219D01*
X165956584Y-99473045D01*
X165947224Y-99479987D01*
X165937228Y-99485978D01*
X165926694Y-99490961D01*
X165915721Y-99494887D01*
X165904417Y-99497718D01*
X165892890Y-99499428D01*
X165881250Y-99500000D01*
X165218750Y-99500000D01*
X165207110Y-99499428D01*
X165195583Y-99497718D01*
X165184279Y-99494887D01*
X165173306Y-99490961D01*
X165162772Y-99485978D01*
X165152776Y-99479987D01*
X165143416Y-99473045D01*
X165134781Y-99465219D01*
X165126955Y-99456584D01*
X165120013Y-99447224D01*
X165114022Y-99437228D01*
X165109039Y-99426694D01*
X165105113Y-99415721D01*
X165102282Y-99404417D01*
X165100572Y-99392890D01*
X165100000Y-99381250D01*
X165100000Y-99143750D01*
X165100572Y-99132110D01*
X165102282Y-99120583D01*
X165105113Y-99109279D01*
X165109039Y-99098306D01*
X165114022Y-99087772D01*
X165120013Y-99077776D01*
X165126955Y-99068416D01*
X165134781Y-99059781D01*
X165143416Y-99051955D01*
X165152776Y-99045013D01*
X165162772Y-99039022D01*
X165173306Y-99034039D01*
X165184279Y-99030113D01*
X165195583Y-99027282D01*
X165207110Y-99025572D01*
X165218750Y-99025000D01*
X165881250Y-99025000D01*
X165892890Y-99025572D01*
G37*
G36*
X165892890Y-100900572D02*
G01*
X165904417Y-100902282D01*
X165915721Y-100905113D01*
X165926694Y-100909039D01*
X165937228Y-100914022D01*
X165947224Y-100920013D01*
X165956584Y-100926955D01*
X165965219Y-100934781D01*
X165973045Y-100943416D01*
X165979987Y-100952776D01*
X165985978Y-100962772D01*
X165990961Y-100973306D01*
X165994887Y-100984279D01*
X165997718Y-100995583D01*
X165999428Y-101007110D01*
X166000000Y-101018750D01*
X166000000Y-101256250D01*
X165999428Y-101267890D01*
X165997718Y-101279417D01*
X165994887Y-101290721D01*
X165990961Y-101301694D01*
X165985978Y-101312228D01*
X165979987Y-101322224D01*
X165973045Y-101331584D01*
X165965219Y-101340219D01*
X165956584Y-101348045D01*
X165947224Y-101354987D01*
X165937228Y-101360978D01*
X165926694Y-101365961D01*
X165915721Y-101369887D01*
X165904417Y-101372718D01*
X165892890Y-101374428D01*
X165881250Y-101375000D01*
X165218750Y-101375000D01*
X165207110Y-101374428D01*
X165195583Y-101372718D01*
X165184279Y-101369887D01*
X165173306Y-101365961D01*
X165162772Y-101360978D01*
X165152776Y-101354987D01*
X165143416Y-101348045D01*
X165134781Y-101340219D01*
X165126955Y-101331584D01*
X165120013Y-101322224D01*
X165114022Y-101312228D01*
X165109039Y-101301694D01*
X165105113Y-101290721D01*
X165102282Y-101279417D01*
X165100572Y-101267890D01*
X165100000Y-101256250D01*
X165100000Y-101018750D01*
X165100572Y-101007110D01*
X165102282Y-100995583D01*
X165105113Y-100984279D01*
X165109039Y-100973306D01*
X165114022Y-100962772D01*
X165120013Y-100952776D01*
X165126955Y-100943416D01*
X165134781Y-100934781D01*
X165143416Y-100926955D01*
X165152776Y-100920013D01*
X165162772Y-100914022D01*
X165173306Y-100909039D01*
X165184279Y-100905113D01*
X165195583Y-100902282D01*
X165207110Y-100900572D01*
X165218750Y-100900000D01*
X165881250Y-100900000D01*
X165892890Y-100900572D01*
G37*
G36*
X163592890Y-83850572D02*
G01*
X163604417Y-83852282D01*
X163615721Y-83855113D01*
X163626694Y-83859039D01*
X163637228Y-83864022D01*
X163647224Y-83870013D01*
X163656584Y-83876955D01*
X163665219Y-83884781D01*
X163673045Y-83893416D01*
X163679987Y-83902776D01*
X163685978Y-83912772D01*
X163690961Y-83923306D01*
X163694887Y-83934279D01*
X163697718Y-83945583D01*
X163699428Y-83957110D01*
X163700000Y-83968750D01*
X163700000Y-84631250D01*
X163699428Y-84642890D01*
X163697718Y-84654417D01*
X163694887Y-84665721D01*
X163690961Y-84676694D01*
X163685978Y-84687228D01*
X163679987Y-84697224D01*
X163673045Y-84706584D01*
X163665219Y-84715219D01*
X163656584Y-84723045D01*
X163647224Y-84729987D01*
X163637228Y-84735978D01*
X163626694Y-84740961D01*
X163615721Y-84744887D01*
X163604417Y-84747718D01*
X163592890Y-84749428D01*
X163581250Y-84750000D01*
X163343750Y-84750000D01*
X163332110Y-84749428D01*
X163320583Y-84747718D01*
X163309279Y-84744887D01*
X163298306Y-84740961D01*
X163287772Y-84735978D01*
X163277776Y-84729987D01*
X163268416Y-84723045D01*
X163259781Y-84715219D01*
X163251955Y-84706584D01*
X163245013Y-84697224D01*
X163239022Y-84687228D01*
X163234039Y-84676694D01*
X163230113Y-84665721D01*
X163227282Y-84654417D01*
X163225572Y-84642890D01*
X163225000Y-84631250D01*
X163225000Y-83968750D01*
X163225572Y-83957110D01*
X163227282Y-83945583D01*
X163230113Y-83934279D01*
X163234039Y-83923306D01*
X163239022Y-83912772D01*
X163245013Y-83902776D01*
X163251955Y-83893416D01*
X163259781Y-83884781D01*
X163268416Y-83876955D01*
X163277776Y-83870013D01*
X163287772Y-83864022D01*
X163298306Y-83859039D01*
X163309279Y-83855113D01*
X163320583Y-83852282D01*
X163332110Y-83850572D01*
X163343750Y-83850000D01*
X163581250Y-83850000D01*
X163592890Y-83850572D01*
G37*
G36*
X165467890Y-83850572D02*
G01*
X165479417Y-83852282D01*
X165490721Y-83855113D01*
X165501694Y-83859039D01*
X165512228Y-83864022D01*
X165522224Y-83870013D01*
X165531584Y-83876955D01*
X165540219Y-83884781D01*
X165548045Y-83893416D01*
X165554987Y-83902776D01*
X165560978Y-83912772D01*
X165565961Y-83923306D01*
X165569887Y-83934279D01*
X165572718Y-83945583D01*
X165574428Y-83957110D01*
X165575000Y-83968750D01*
X165575000Y-84631250D01*
X165574428Y-84642890D01*
X165572718Y-84654417D01*
X165569887Y-84665721D01*
X165565961Y-84676694D01*
X165560978Y-84687228D01*
X165554987Y-84697224D01*
X165548045Y-84706584D01*
X165540219Y-84715219D01*
X165531584Y-84723045D01*
X165522224Y-84729987D01*
X165512228Y-84735978D01*
X165501694Y-84740961D01*
X165490721Y-84744887D01*
X165479417Y-84747718D01*
X165467890Y-84749428D01*
X165456250Y-84750000D01*
X165218750Y-84750000D01*
X165207110Y-84749428D01*
X165195583Y-84747718D01*
X165184279Y-84744887D01*
X165173306Y-84740961D01*
X165162772Y-84735978D01*
X165152776Y-84729987D01*
X165143416Y-84723045D01*
X165134781Y-84715219D01*
X165126955Y-84706584D01*
X165120013Y-84697224D01*
X165114022Y-84687228D01*
X165109039Y-84676694D01*
X165105113Y-84665721D01*
X165102282Y-84654417D01*
X165100572Y-84642890D01*
X165100000Y-84631250D01*
X165100000Y-83968750D01*
X165100572Y-83957110D01*
X165102282Y-83945583D01*
X165105113Y-83934279D01*
X165109039Y-83923306D01*
X165114022Y-83912772D01*
X165120013Y-83902776D01*
X165126955Y-83893416D01*
X165134781Y-83884781D01*
X165143416Y-83876955D01*
X165152776Y-83870013D01*
X165162772Y-83864022D01*
X165173306Y-83859039D01*
X165184279Y-83855113D01*
X165195583Y-83852282D01*
X165207110Y-83850572D01*
X165218750Y-83850000D01*
X165456250Y-83850000D01*
X165467890Y-83850572D01*
G37*
G36*
X161367890Y-83850572D02*
G01*
X161379417Y-83852282D01*
X161390721Y-83855113D01*
X161401694Y-83859039D01*
X161412228Y-83864022D01*
X161422224Y-83870013D01*
X161431584Y-83876955D01*
X161440219Y-83884781D01*
X161448045Y-83893416D01*
X161454987Y-83902776D01*
X161460978Y-83912772D01*
X161465961Y-83923306D01*
X161469887Y-83934279D01*
X161472718Y-83945583D01*
X161474428Y-83957110D01*
X161475000Y-83968750D01*
X161475000Y-84631250D01*
X161474428Y-84642890D01*
X161472718Y-84654417D01*
X161469887Y-84665721D01*
X161465961Y-84676694D01*
X161460978Y-84687228D01*
X161454987Y-84697224D01*
X161448045Y-84706584D01*
X161440219Y-84715219D01*
X161431584Y-84723045D01*
X161422224Y-84729987D01*
X161412228Y-84735978D01*
X161401694Y-84740961D01*
X161390721Y-84744887D01*
X161379417Y-84747718D01*
X161367890Y-84749428D01*
X161356250Y-84750000D01*
X161118750Y-84750000D01*
X161107110Y-84749428D01*
X161095583Y-84747718D01*
X161084279Y-84744887D01*
X161073306Y-84740961D01*
X161062772Y-84735978D01*
X161052776Y-84729987D01*
X161043416Y-84723045D01*
X161034781Y-84715219D01*
X161026955Y-84706584D01*
X161020013Y-84697224D01*
X161014022Y-84687228D01*
X161009039Y-84676694D01*
X161005113Y-84665721D01*
X161002282Y-84654417D01*
X161000572Y-84642890D01*
X161000000Y-84631250D01*
X161000000Y-83968750D01*
X161000572Y-83957110D01*
X161002282Y-83945583D01*
X161005113Y-83934279D01*
X161009039Y-83923306D01*
X161014022Y-83912772D01*
X161020013Y-83902776D01*
X161026955Y-83893416D01*
X161034781Y-83884781D01*
X161043416Y-83876955D01*
X161052776Y-83870013D01*
X161062772Y-83864022D01*
X161073306Y-83859039D01*
X161084279Y-83855113D01*
X161095583Y-83852282D01*
X161107110Y-83850572D01*
X161118750Y-83850000D01*
X161356250Y-83850000D01*
X161367890Y-83850572D01*
G37*
G36*
X159492890Y-83850572D02*
G01*
X159504417Y-83852282D01*
X159515721Y-83855113D01*
X159526694Y-83859039D01*
X159537228Y-83864022D01*
X159547224Y-83870013D01*
X159556584Y-83876955D01*
X159565219Y-83884781D01*
X159573045Y-83893416D01*
X159579987Y-83902776D01*
X159585978Y-83912772D01*
X159590961Y-83923306D01*
X159594887Y-83934279D01*
X159597718Y-83945583D01*
X159599428Y-83957110D01*
X159600000Y-83968750D01*
X159600000Y-84631250D01*
X159599428Y-84642890D01*
X159597718Y-84654417D01*
X159594887Y-84665721D01*
X159590961Y-84676694D01*
X159585978Y-84687228D01*
X159579987Y-84697224D01*
X159573045Y-84706584D01*
X159565219Y-84715219D01*
X159556584Y-84723045D01*
X159547224Y-84729987D01*
X159537228Y-84735978D01*
X159526694Y-84740961D01*
X159515721Y-84744887D01*
X159504417Y-84747718D01*
X159492890Y-84749428D01*
X159481250Y-84750000D01*
X159243750Y-84750000D01*
X159232110Y-84749428D01*
X159220583Y-84747718D01*
X159209279Y-84744887D01*
X159198306Y-84740961D01*
X159187772Y-84735978D01*
X159177776Y-84729987D01*
X159168416Y-84723045D01*
X159159781Y-84715219D01*
X159151955Y-84706584D01*
X159145013Y-84697224D01*
X159139022Y-84687228D01*
X159134039Y-84676694D01*
X159130113Y-84665721D01*
X159127282Y-84654417D01*
X159125572Y-84642890D01*
X159125000Y-84631250D01*
X159125000Y-83968750D01*
X159125572Y-83957110D01*
X159127282Y-83945583D01*
X159130113Y-83934279D01*
X159134039Y-83923306D01*
X159139022Y-83912772D01*
X159145013Y-83902776D01*
X159151955Y-83893416D01*
X159159781Y-83884781D01*
X159168416Y-83876955D01*
X159177776Y-83870013D01*
X159187772Y-83864022D01*
X159198306Y-83859039D01*
X159209279Y-83855113D01*
X159220583Y-83852282D01*
X159232110Y-83850572D01*
X159243750Y-83850000D01*
X159481250Y-83850000D01*
X159492890Y-83850572D01*
G37*
G36*
X169342890Y-90300572D02*
G01*
X169354417Y-90302282D01*
X169365721Y-90305113D01*
X169376694Y-90309039D01*
X169387228Y-90314022D01*
X169397224Y-90320013D01*
X169406584Y-90326955D01*
X169415219Y-90334781D01*
X169423045Y-90343416D01*
X169429987Y-90352776D01*
X169435978Y-90362772D01*
X169440961Y-90373306D01*
X169444887Y-90384279D01*
X169447718Y-90395583D01*
X169449428Y-90407110D01*
X169450000Y-90418750D01*
X169450000Y-90656250D01*
X169449428Y-90667890D01*
X169447718Y-90679417D01*
X169444887Y-90690721D01*
X169440961Y-90701694D01*
X169435978Y-90712228D01*
X169429987Y-90722224D01*
X169423045Y-90731584D01*
X169415219Y-90740219D01*
X169406584Y-90748045D01*
X169397224Y-90754987D01*
X169387228Y-90760978D01*
X169376694Y-90765961D01*
X169365721Y-90769887D01*
X169354417Y-90772718D01*
X169342890Y-90774428D01*
X169331250Y-90775000D01*
X168668750Y-90775000D01*
X168657110Y-90774428D01*
X168645583Y-90772718D01*
X168634279Y-90769887D01*
X168623306Y-90765961D01*
X168612772Y-90760978D01*
X168602776Y-90754987D01*
X168593416Y-90748045D01*
X168584781Y-90740219D01*
X168576955Y-90731584D01*
X168570013Y-90722224D01*
X168564022Y-90712228D01*
X168559039Y-90701694D01*
X168555113Y-90690721D01*
X168552282Y-90679417D01*
X168550572Y-90667890D01*
X168550000Y-90656250D01*
X168550000Y-90418750D01*
X168550572Y-90407110D01*
X168552282Y-90395583D01*
X168555113Y-90384279D01*
X168559039Y-90373306D01*
X168564022Y-90362772D01*
X168570013Y-90352776D01*
X168576955Y-90343416D01*
X168584781Y-90334781D01*
X168593416Y-90326955D01*
X168602776Y-90320013D01*
X168612772Y-90314022D01*
X168623306Y-90309039D01*
X168634279Y-90305113D01*
X168645583Y-90302282D01*
X168657110Y-90300572D01*
X168668750Y-90300000D01*
X169331250Y-90300000D01*
X169342890Y-90300572D01*
G37*
G36*
X169342890Y-88425572D02*
G01*
X169354417Y-88427282D01*
X169365721Y-88430113D01*
X169376694Y-88434039D01*
X169387228Y-88439022D01*
X169397224Y-88445013D01*
X169406584Y-88451955D01*
X169415219Y-88459781D01*
X169423045Y-88468416D01*
X169429987Y-88477776D01*
X169435978Y-88487772D01*
X169440961Y-88498306D01*
X169444887Y-88509279D01*
X169447718Y-88520583D01*
X169449428Y-88532110D01*
X169450000Y-88543750D01*
X169450000Y-88781250D01*
X169449428Y-88792890D01*
X169447718Y-88804417D01*
X169444887Y-88815721D01*
X169440961Y-88826694D01*
X169435978Y-88837228D01*
X169429987Y-88847224D01*
X169423045Y-88856584D01*
X169415219Y-88865219D01*
X169406584Y-88873045D01*
X169397224Y-88879987D01*
X169387228Y-88885978D01*
X169376694Y-88890961D01*
X169365721Y-88894887D01*
X169354417Y-88897718D01*
X169342890Y-88899428D01*
X169331250Y-88900000D01*
X168668750Y-88900000D01*
X168657110Y-88899428D01*
X168645583Y-88897718D01*
X168634279Y-88894887D01*
X168623306Y-88890961D01*
X168612772Y-88885978D01*
X168602776Y-88879987D01*
X168593416Y-88873045D01*
X168584781Y-88865219D01*
X168576955Y-88856584D01*
X168570013Y-88847224D01*
X168564022Y-88837228D01*
X168559039Y-88826694D01*
X168555113Y-88815721D01*
X168552282Y-88804417D01*
X168550572Y-88792890D01*
X168550000Y-88781250D01*
X168550000Y-88543750D01*
X168550572Y-88532110D01*
X168552282Y-88520583D01*
X168555113Y-88509279D01*
X168559039Y-88498306D01*
X168564022Y-88487772D01*
X168570013Y-88477776D01*
X168576955Y-88468416D01*
X168584781Y-88459781D01*
X168593416Y-88451955D01*
X168602776Y-88445013D01*
X168612772Y-88439022D01*
X168623306Y-88434039D01*
X168634279Y-88430113D01*
X168645583Y-88427282D01*
X168657110Y-88425572D01*
X168668750Y-88425000D01*
X169331250Y-88425000D01*
X169342890Y-88425572D01*
G37*
G36*
X170342890Y-82100572D02*
G01*
X170354417Y-82102282D01*
X170365721Y-82105113D01*
X170376694Y-82109039D01*
X170387228Y-82114022D01*
X170397224Y-82120013D01*
X170406584Y-82126955D01*
X170415219Y-82134781D01*
X170423045Y-82143416D01*
X170429987Y-82152776D01*
X170435978Y-82162772D01*
X170440961Y-82173306D01*
X170444887Y-82184279D01*
X170447718Y-82195583D01*
X170449428Y-82207110D01*
X170450000Y-82218750D01*
X170450000Y-82456250D01*
X170449428Y-82467890D01*
X170447718Y-82479417D01*
X170444887Y-82490721D01*
X170440961Y-82501694D01*
X170435978Y-82512228D01*
X170429987Y-82522224D01*
X170423045Y-82531584D01*
X170415219Y-82540219D01*
X170406584Y-82548045D01*
X170397224Y-82554987D01*
X170387228Y-82560978D01*
X170376694Y-82565961D01*
X170365721Y-82569887D01*
X170354417Y-82572718D01*
X170342890Y-82574428D01*
X170331250Y-82575000D01*
X169668750Y-82575000D01*
X169657110Y-82574428D01*
X169645583Y-82572718D01*
X169634279Y-82569887D01*
X169623306Y-82565961D01*
X169612772Y-82560978D01*
X169602776Y-82554987D01*
X169593416Y-82548045D01*
X169584781Y-82540219D01*
X169576955Y-82531584D01*
X169570013Y-82522224D01*
X169564022Y-82512228D01*
X169559039Y-82501694D01*
X169555113Y-82490721D01*
X169552282Y-82479417D01*
X169550572Y-82467890D01*
X169550000Y-82456250D01*
X169550000Y-82218750D01*
X169550572Y-82207110D01*
X169552282Y-82195583D01*
X169555113Y-82184279D01*
X169559039Y-82173306D01*
X169564022Y-82162772D01*
X169570013Y-82152776D01*
X169576955Y-82143416D01*
X169584781Y-82134781D01*
X169593416Y-82126955D01*
X169602776Y-82120013D01*
X169612772Y-82114022D01*
X169623306Y-82109039D01*
X169634279Y-82105113D01*
X169645583Y-82102282D01*
X169657110Y-82100572D01*
X169668750Y-82100000D01*
X170331250Y-82100000D01*
X170342890Y-82100572D01*
G37*
G36*
X170342890Y-80225572D02*
G01*
X170354417Y-80227282D01*
X170365721Y-80230113D01*
X170376694Y-80234039D01*
X170387228Y-80239022D01*
X170397224Y-80245013D01*
X170406584Y-80251955D01*
X170415219Y-80259781D01*
X170423045Y-80268416D01*
X170429987Y-80277776D01*
X170435978Y-80287772D01*
X170440961Y-80298306D01*
X170444887Y-80309279D01*
X170447718Y-80320583D01*
X170449428Y-80332110D01*
X170450000Y-80343750D01*
X170450000Y-80581250D01*
X170449428Y-80592890D01*
X170447718Y-80604417D01*
X170444887Y-80615721D01*
X170440961Y-80626694D01*
X170435978Y-80637228D01*
X170429987Y-80647224D01*
X170423045Y-80656584D01*
X170415219Y-80665219D01*
X170406584Y-80673045D01*
X170397224Y-80679987D01*
X170387228Y-80685978D01*
X170376694Y-80690961D01*
X170365721Y-80694887D01*
X170354417Y-80697718D01*
X170342890Y-80699428D01*
X170331250Y-80700000D01*
X169668750Y-80700000D01*
X169657110Y-80699428D01*
X169645583Y-80697718D01*
X169634279Y-80694887D01*
X169623306Y-80690961D01*
X169612772Y-80685978D01*
X169602776Y-80679987D01*
X169593416Y-80673045D01*
X169584781Y-80665219D01*
X169576955Y-80656584D01*
X169570013Y-80647224D01*
X169564022Y-80637228D01*
X169559039Y-80626694D01*
X169555113Y-80615721D01*
X169552282Y-80604417D01*
X169550572Y-80592890D01*
X169550000Y-80581250D01*
X169550000Y-80343750D01*
X169550572Y-80332110D01*
X169552282Y-80320583D01*
X169555113Y-80309279D01*
X169559039Y-80298306D01*
X169564022Y-80287772D01*
X169570013Y-80277776D01*
X169576955Y-80268416D01*
X169584781Y-80259781D01*
X169593416Y-80251955D01*
X169602776Y-80245013D01*
X169612772Y-80239022D01*
X169623306Y-80234039D01*
X169634279Y-80230113D01*
X169645583Y-80227282D01*
X169657110Y-80225572D01*
X169668750Y-80225000D01*
X170331250Y-80225000D01*
X170342890Y-80225572D01*
G37*
G36*
X158342890Y-78700572D02*
G01*
X158354417Y-78702282D01*
X158365721Y-78705113D01*
X158376694Y-78709039D01*
X158387228Y-78714022D01*
X158397224Y-78720013D01*
X158406584Y-78726955D01*
X158415219Y-78734781D01*
X158423045Y-78743416D01*
X158429987Y-78752776D01*
X158435978Y-78762772D01*
X158440961Y-78773306D01*
X158444887Y-78784279D01*
X158447718Y-78795583D01*
X158449428Y-78807110D01*
X158450000Y-78818750D01*
X158450000Y-79056250D01*
X158449428Y-79067890D01*
X158447718Y-79079417D01*
X158444887Y-79090721D01*
X158440961Y-79101694D01*
X158435978Y-79112228D01*
X158429987Y-79122224D01*
X158423045Y-79131584D01*
X158415219Y-79140219D01*
X158406584Y-79148045D01*
X158397224Y-79154987D01*
X158387228Y-79160978D01*
X158376694Y-79165961D01*
X158365721Y-79169887D01*
X158354417Y-79172718D01*
X158342890Y-79174428D01*
X158331250Y-79175000D01*
X157668750Y-79175000D01*
X157657110Y-79174428D01*
X157645583Y-79172718D01*
X157634279Y-79169887D01*
X157623306Y-79165961D01*
X157612772Y-79160978D01*
X157602776Y-79154987D01*
X157593416Y-79148045D01*
X157584781Y-79140219D01*
X157576955Y-79131584D01*
X157570013Y-79122224D01*
X157564022Y-79112228D01*
X157559039Y-79101694D01*
X157555113Y-79090721D01*
X157552282Y-79079417D01*
X157550572Y-79067890D01*
X157550000Y-79056250D01*
X157550000Y-78818750D01*
X157550572Y-78807110D01*
X157552282Y-78795583D01*
X157555113Y-78784279D01*
X157559039Y-78773306D01*
X157564022Y-78762772D01*
X157570013Y-78752776D01*
X157576955Y-78743416D01*
X157584781Y-78734781D01*
X157593416Y-78726955D01*
X157602776Y-78720013D01*
X157612772Y-78714022D01*
X157623306Y-78709039D01*
X157634279Y-78705113D01*
X157645583Y-78702282D01*
X157657110Y-78700572D01*
X157668750Y-78700000D01*
X158331250Y-78700000D01*
X158342890Y-78700572D01*
G37*
G36*
X158342890Y-76825572D02*
G01*
X158354417Y-76827282D01*
X158365721Y-76830113D01*
X158376694Y-76834039D01*
X158387228Y-76839022D01*
X158397224Y-76845013D01*
X158406584Y-76851955D01*
X158415219Y-76859781D01*
X158423045Y-76868416D01*
X158429987Y-76877776D01*
X158435978Y-76887772D01*
X158440961Y-76898306D01*
X158444887Y-76909279D01*
X158447718Y-76920583D01*
X158449428Y-76932110D01*
X158450000Y-76943750D01*
X158450000Y-77181250D01*
X158449428Y-77192890D01*
X158447718Y-77204417D01*
X158444887Y-77215721D01*
X158440961Y-77226694D01*
X158435978Y-77237228D01*
X158429987Y-77247224D01*
X158423045Y-77256584D01*
X158415219Y-77265219D01*
X158406584Y-77273045D01*
X158397224Y-77279987D01*
X158387228Y-77285978D01*
X158376694Y-77290961D01*
X158365721Y-77294887D01*
X158354417Y-77297718D01*
X158342890Y-77299428D01*
X158331250Y-77300000D01*
X157668750Y-77300000D01*
X157657110Y-77299428D01*
X157645583Y-77297718D01*
X157634279Y-77294887D01*
X157623306Y-77290961D01*
X157612772Y-77285978D01*
X157602776Y-77279987D01*
X157593416Y-77273045D01*
X157584781Y-77265219D01*
X157576955Y-77256584D01*
X157570013Y-77247224D01*
X157564022Y-77237228D01*
X157559039Y-77226694D01*
X157555113Y-77215721D01*
X157552282Y-77204417D01*
X157550572Y-77192890D01*
X157550000Y-77181250D01*
X157550000Y-76943750D01*
X157550572Y-76932110D01*
X157552282Y-76920583D01*
X157555113Y-76909279D01*
X157559039Y-76898306D01*
X157564022Y-76887772D01*
X157570013Y-76877776D01*
X157576955Y-76868416D01*
X157584781Y-76859781D01*
X157593416Y-76851955D01*
X157602776Y-76845013D01*
X157612772Y-76839022D01*
X157623306Y-76834039D01*
X157634279Y-76830113D01*
X157645583Y-76827282D01*
X157657110Y-76825572D01*
X157668750Y-76825000D01*
X158331250Y-76825000D01*
X158342890Y-76825572D01*
G37*
G36*
X158942890Y-73325572D02*
G01*
X158954417Y-73327282D01*
X158965721Y-73330113D01*
X158976694Y-73334039D01*
X158987228Y-73339022D01*
X158997224Y-73345013D01*
X159006584Y-73351955D01*
X159015219Y-73359781D01*
X159023045Y-73368416D01*
X159029987Y-73377776D01*
X159035978Y-73387772D01*
X159040961Y-73398306D01*
X159044887Y-73409279D01*
X159047718Y-73420583D01*
X159049428Y-73432110D01*
X159050000Y-73443750D01*
X159050000Y-73681250D01*
X159049428Y-73692890D01*
X159047718Y-73704417D01*
X159044887Y-73715721D01*
X159040961Y-73726694D01*
X159035978Y-73737228D01*
X159029987Y-73747224D01*
X159023045Y-73756584D01*
X159015219Y-73765219D01*
X159006584Y-73773045D01*
X158997224Y-73779987D01*
X158987228Y-73785978D01*
X158976694Y-73790961D01*
X158965721Y-73794887D01*
X158954417Y-73797718D01*
X158942890Y-73799428D01*
X158931250Y-73800000D01*
X158268750Y-73800000D01*
X158257110Y-73799428D01*
X158245583Y-73797718D01*
X158234279Y-73794887D01*
X158223306Y-73790961D01*
X158212772Y-73785978D01*
X158202776Y-73779987D01*
X158193416Y-73773045D01*
X158184781Y-73765219D01*
X158176955Y-73756584D01*
X158170013Y-73747224D01*
X158164022Y-73737228D01*
X158159039Y-73726694D01*
X158155113Y-73715721D01*
X158152282Y-73704417D01*
X158150572Y-73692890D01*
X158150000Y-73681250D01*
X158150000Y-73443750D01*
X158150572Y-73432110D01*
X158152282Y-73420583D01*
X158155113Y-73409279D01*
X158159039Y-73398306D01*
X158164022Y-73387772D01*
X158170013Y-73377776D01*
X158176955Y-73368416D01*
X158184781Y-73359781D01*
X158193416Y-73351955D01*
X158202776Y-73345013D01*
X158212772Y-73339022D01*
X158223306Y-73334039D01*
X158234279Y-73330113D01*
X158245583Y-73327282D01*
X158257110Y-73325572D01*
X158268750Y-73325000D01*
X158931250Y-73325000D01*
X158942890Y-73325572D01*
G37*
G36*
X158942890Y-75200572D02*
G01*
X158954417Y-75202282D01*
X158965721Y-75205113D01*
X158976694Y-75209039D01*
X158987228Y-75214022D01*
X158997224Y-75220013D01*
X159006584Y-75226955D01*
X159015219Y-75234781D01*
X159023045Y-75243416D01*
X159029987Y-75252776D01*
X159035978Y-75262772D01*
X159040961Y-75273306D01*
X159044887Y-75284279D01*
X159047718Y-75295583D01*
X159049428Y-75307110D01*
X159050000Y-75318750D01*
X159050000Y-75556250D01*
X159049428Y-75567890D01*
X159047718Y-75579417D01*
X159044887Y-75590721D01*
X159040961Y-75601694D01*
X159035978Y-75612228D01*
X159029987Y-75622224D01*
X159023045Y-75631584D01*
X159015219Y-75640219D01*
X159006584Y-75648045D01*
X158997224Y-75654987D01*
X158987228Y-75660978D01*
X158976694Y-75665961D01*
X158965721Y-75669887D01*
X158954417Y-75672718D01*
X158942890Y-75674428D01*
X158931250Y-75675000D01*
X158268750Y-75675000D01*
X158257110Y-75674428D01*
X158245583Y-75672718D01*
X158234279Y-75669887D01*
X158223306Y-75665961D01*
X158212772Y-75660978D01*
X158202776Y-75654987D01*
X158193416Y-75648045D01*
X158184781Y-75640219D01*
X158176955Y-75631584D01*
X158170013Y-75622224D01*
X158164022Y-75612228D01*
X158159039Y-75601694D01*
X158155113Y-75590721D01*
X158152282Y-75579417D01*
X158150572Y-75567890D01*
X158150000Y-75556250D01*
X158150000Y-75318750D01*
X158150572Y-75307110D01*
X158152282Y-75295583D01*
X158155113Y-75284279D01*
X158159039Y-75273306D01*
X158164022Y-75262772D01*
X158170013Y-75252776D01*
X158176955Y-75243416D01*
X158184781Y-75234781D01*
X158193416Y-75226955D01*
X158202776Y-75220013D01*
X158212772Y-75214022D01*
X158223306Y-75209039D01*
X158234279Y-75205113D01*
X158245583Y-75202282D01*
X158257110Y-75200572D01*
X158268750Y-75200000D01*
X158931250Y-75200000D01*
X158942890Y-75200572D01*
G37*
G36*
X161092890Y-95450572D02*
G01*
X161104417Y-95452282D01*
X161115721Y-95455113D01*
X161126694Y-95459039D01*
X161137228Y-95464022D01*
X161147224Y-95470013D01*
X161156584Y-95476955D01*
X161165219Y-95484781D01*
X161173045Y-95493416D01*
X161179987Y-95502776D01*
X161185978Y-95512772D01*
X161190961Y-95523306D01*
X161194887Y-95534279D01*
X161197718Y-95545583D01*
X161199428Y-95557110D01*
X161200000Y-95568750D01*
X161200000Y-96231250D01*
X161199428Y-96242890D01*
X161197718Y-96254417D01*
X161194887Y-96265721D01*
X161190961Y-96276694D01*
X161185978Y-96287228D01*
X161179987Y-96297224D01*
X161173045Y-96306584D01*
X161165219Y-96315219D01*
X161156584Y-96323045D01*
X161147224Y-96329987D01*
X161137228Y-96335978D01*
X161126694Y-96340961D01*
X161115721Y-96344887D01*
X161104417Y-96347718D01*
X161092890Y-96349428D01*
X161081250Y-96350000D01*
X160843750Y-96350000D01*
X160832110Y-96349428D01*
X160820583Y-96347718D01*
X160809279Y-96344887D01*
X160798306Y-96340961D01*
X160787772Y-96335978D01*
X160777776Y-96329987D01*
X160768416Y-96323045D01*
X160759781Y-96315219D01*
X160751955Y-96306584D01*
X160745013Y-96297224D01*
X160739022Y-96287228D01*
X160734039Y-96276694D01*
X160730113Y-96265721D01*
X160727282Y-96254417D01*
X160725572Y-96242890D01*
X160725000Y-96231250D01*
X160725000Y-95568750D01*
X160725572Y-95557110D01*
X160727282Y-95545583D01*
X160730113Y-95534279D01*
X160734039Y-95523306D01*
X160739022Y-95512772D01*
X160745013Y-95502776D01*
X160751955Y-95493416D01*
X160759781Y-95484781D01*
X160768416Y-95476955D01*
X160777776Y-95470013D01*
X160787772Y-95464022D01*
X160798306Y-95459039D01*
X160809279Y-95455113D01*
X160820583Y-95452282D01*
X160832110Y-95450572D01*
X160843750Y-95450000D01*
X161081250Y-95450000D01*
X161092890Y-95450572D01*
G37*
G36*
X162967890Y-95450572D02*
G01*
X162979417Y-95452282D01*
X162990721Y-95455113D01*
X163001694Y-95459039D01*
X163012228Y-95464022D01*
X163022224Y-95470013D01*
X163031584Y-95476955D01*
X163040219Y-95484781D01*
X163048045Y-95493416D01*
X163054987Y-95502776D01*
X163060978Y-95512772D01*
X163065961Y-95523306D01*
X163069887Y-95534279D01*
X163072718Y-95545583D01*
X163074428Y-95557110D01*
X163075000Y-95568750D01*
X163075000Y-96231250D01*
X163074428Y-96242890D01*
X163072718Y-96254417D01*
X163069887Y-96265721D01*
X163065961Y-96276694D01*
X163060978Y-96287228D01*
X163054987Y-96297224D01*
X163048045Y-96306584D01*
X163040219Y-96315219D01*
X163031584Y-96323045D01*
X163022224Y-96329987D01*
X163012228Y-96335978D01*
X163001694Y-96340961D01*
X162990721Y-96344887D01*
X162979417Y-96347718D01*
X162967890Y-96349428D01*
X162956250Y-96350000D01*
X162718750Y-96350000D01*
X162707110Y-96349428D01*
X162695583Y-96347718D01*
X162684279Y-96344887D01*
X162673306Y-96340961D01*
X162662772Y-96335978D01*
X162652776Y-96329987D01*
X162643416Y-96323045D01*
X162634781Y-96315219D01*
X162626955Y-96306584D01*
X162620013Y-96297224D01*
X162614022Y-96287228D01*
X162609039Y-96276694D01*
X162605113Y-96265721D01*
X162602282Y-96254417D01*
X162600572Y-96242890D01*
X162600000Y-96231250D01*
X162600000Y-95568750D01*
X162600572Y-95557110D01*
X162602282Y-95545583D01*
X162605113Y-95534279D01*
X162609039Y-95523306D01*
X162614022Y-95512772D01*
X162620013Y-95502776D01*
X162626955Y-95493416D01*
X162634781Y-95484781D01*
X162643416Y-95476955D01*
X162652776Y-95470013D01*
X162662772Y-95464022D01*
X162673306Y-95459039D01*
X162684279Y-95455113D01*
X162695583Y-95452282D01*
X162707110Y-95450572D01*
X162718750Y-95450000D01*
X162956250Y-95450000D01*
X162967890Y-95450572D01*
G37*
G36*
X157592890Y-95450572D02*
G01*
X157604417Y-95452282D01*
X157615721Y-95455113D01*
X157626694Y-95459039D01*
X157637228Y-95464022D01*
X157647224Y-95470013D01*
X157656584Y-95476955D01*
X157665219Y-95484781D01*
X157673045Y-95493416D01*
X157679987Y-95502776D01*
X157685978Y-95512772D01*
X157690961Y-95523306D01*
X157694887Y-95534279D01*
X157697718Y-95545583D01*
X157699428Y-95557110D01*
X157700000Y-95568750D01*
X157700000Y-96231250D01*
X157699428Y-96242890D01*
X157697718Y-96254417D01*
X157694887Y-96265721D01*
X157690961Y-96276694D01*
X157685978Y-96287228D01*
X157679987Y-96297224D01*
X157673045Y-96306584D01*
X157665219Y-96315219D01*
X157656584Y-96323045D01*
X157647224Y-96329987D01*
X157637228Y-96335978D01*
X157626694Y-96340961D01*
X157615721Y-96344887D01*
X157604417Y-96347718D01*
X157592890Y-96349428D01*
X157581250Y-96350000D01*
X157343750Y-96350000D01*
X157332110Y-96349428D01*
X157320583Y-96347718D01*
X157309279Y-96344887D01*
X157298306Y-96340961D01*
X157287772Y-96335978D01*
X157277776Y-96329987D01*
X157268416Y-96323045D01*
X157259781Y-96315219D01*
X157251955Y-96306584D01*
X157245013Y-96297224D01*
X157239022Y-96287228D01*
X157234039Y-96276694D01*
X157230113Y-96265721D01*
X157227282Y-96254417D01*
X157225572Y-96242890D01*
X157225000Y-96231250D01*
X157225000Y-95568750D01*
X157225572Y-95557110D01*
X157227282Y-95545583D01*
X157230113Y-95534279D01*
X157234039Y-95523306D01*
X157239022Y-95512772D01*
X157245013Y-95502776D01*
X157251955Y-95493416D01*
X157259781Y-95484781D01*
X157268416Y-95476955D01*
X157277776Y-95470013D01*
X157287772Y-95464022D01*
X157298306Y-95459039D01*
X157309279Y-95455113D01*
X157320583Y-95452282D01*
X157332110Y-95450572D01*
X157343750Y-95450000D01*
X157581250Y-95450000D01*
X157592890Y-95450572D01*
G37*
G36*
X159467890Y-95450572D02*
G01*
X159479417Y-95452282D01*
X159490721Y-95455113D01*
X159501694Y-95459039D01*
X159512228Y-95464022D01*
X159522224Y-95470013D01*
X159531584Y-95476955D01*
X159540219Y-95484781D01*
X159548045Y-95493416D01*
X159554987Y-95502776D01*
X159560978Y-95512772D01*
X159565961Y-95523306D01*
X159569887Y-95534279D01*
X159572718Y-95545583D01*
X159574428Y-95557110D01*
X159575000Y-95568750D01*
X159575000Y-96231250D01*
X159574428Y-96242890D01*
X159572718Y-96254417D01*
X159569887Y-96265721D01*
X159565961Y-96276694D01*
X159560978Y-96287228D01*
X159554987Y-96297224D01*
X159548045Y-96306584D01*
X159540219Y-96315219D01*
X159531584Y-96323045D01*
X159522224Y-96329987D01*
X159512228Y-96335978D01*
X159501694Y-96340961D01*
X159490721Y-96344887D01*
X159479417Y-96347718D01*
X159467890Y-96349428D01*
X159456250Y-96350000D01*
X159218750Y-96350000D01*
X159207110Y-96349428D01*
X159195583Y-96347718D01*
X159184279Y-96344887D01*
X159173306Y-96340961D01*
X159162772Y-96335978D01*
X159152776Y-96329987D01*
X159143416Y-96323045D01*
X159134781Y-96315219D01*
X159126955Y-96306584D01*
X159120013Y-96297224D01*
X159114022Y-96287228D01*
X159109039Y-96276694D01*
X159105113Y-96265721D01*
X159102282Y-96254417D01*
X159100572Y-96242890D01*
X159100000Y-96231250D01*
X159100000Y-95568750D01*
X159100572Y-95557110D01*
X159102282Y-95545583D01*
X159105113Y-95534279D01*
X159109039Y-95523306D01*
X159114022Y-95512772D01*
X159120013Y-95502776D01*
X159126955Y-95493416D01*
X159134781Y-95484781D01*
X159143416Y-95476955D01*
X159152776Y-95470013D01*
X159162772Y-95464022D01*
X159173306Y-95459039D01*
X159184279Y-95455113D01*
X159195583Y-95452282D01*
X159207110Y-95450572D01*
X159218750Y-95450000D01*
X159456250Y-95450000D01*
X159467890Y-95450572D01*
G37*
G36*
X167342890Y-90625572D02*
G01*
X167354417Y-90627282D01*
X167365721Y-90630113D01*
X167376694Y-90634039D01*
X167387228Y-90639022D01*
X167397224Y-90645013D01*
X167406584Y-90651955D01*
X167415219Y-90659781D01*
X167423045Y-90668416D01*
X167429987Y-90677776D01*
X167435978Y-90687772D01*
X167440961Y-90698306D01*
X167444887Y-90709279D01*
X167447718Y-90720583D01*
X167449428Y-90732110D01*
X167450000Y-90743750D01*
X167450000Y-90981250D01*
X167449428Y-90992890D01*
X167447718Y-91004417D01*
X167444887Y-91015721D01*
X167440961Y-91026694D01*
X167435978Y-91037228D01*
X167429987Y-91047224D01*
X167423045Y-91056584D01*
X167415219Y-91065219D01*
X167406584Y-91073045D01*
X167397224Y-91079987D01*
X167387228Y-91085978D01*
X167376694Y-91090961D01*
X167365721Y-91094887D01*
X167354417Y-91097718D01*
X167342890Y-91099428D01*
X167331250Y-91100000D01*
X166668750Y-91100000D01*
X166657110Y-91099428D01*
X166645583Y-91097718D01*
X166634279Y-91094887D01*
X166623306Y-91090961D01*
X166612772Y-91085978D01*
X166602776Y-91079987D01*
X166593416Y-91073045D01*
X166584781Y-91065219D01*
X166576955Y-91056584D01*
X166570013Y-91047224D01*
X166564022Y-91037228D01*
X166559039Y-91026694D01*
X166555113Y-91015721D01*
X166552282Y-91004417D01*
X166550572Y-90992890D01*
X166550000Y-90981250D01*
X166550000Y-90743750D01*
X166550572Y-90732110D01*
X166552282Y-90720583D01*
X166555113Y-90709279D01*
X166559039Y-90698306D01*
X166564022Y-90687772D01*
X166570013Y-90677776D01*
X166576955Y-90668416D01*
X166584781Y-90659781D01*
X166593416Y-90651955D01*
X166602776Y-90645013D01*
X166612772Y-90639022D01*
X166623306Y-90634039D01*
X166634279Y-90630113D01*
X166645583Y-90627282D01*
X166657110Y-90625572D01*
X166668750Y-90625000D01*
X167331250Y-90625000D01*
X167342890Y-90625572D01*
G37*
G36*
X167342890Y-92500572D02*
G01*
X167354417Y-92502282D01*
X167365721Y-92505113D01*
X167376694Y-92509039D01*
X167387228Y-92514022D01*
X167397224Y-92520013D01*
X167406584Y-92526955D01*
X167415219Y-92534781D01*
X167423045Y-92543416D01*
X167429987Y-92552776D01*
X167435978Y-92562772D01*
X167440961Y-92573306D01*
X167444887Y-92584279D01*
X167447718Y-92595583D01*
X167449428Y-92607110D01*
X167450000Y-92618750D01*
X167450000Y-92856250D01*
X167449428Y-92867890D01*
X167447718Y-92879417D01*
X167444887Y-92890721D01*
X167440961Y-92901694D01*
X167435978Y-92912228D01*
X167429987Y-92922224D01*
X167423045Y-92931584D01*
X167415219Y-92940219D01*
X167406584Y-92948045D01*
X167397224Y-92954987D01*
X167387228Y-92960978D01*
X167376694Y-92965961D01*
X167365721Y-92969887D01*
X167354417Y-92972718D01*
X167342890Y-92974428D01*
X167331250Y-92975000D01*
X166668750Y-92975000D01*
X166657110Y-92974428D01*
X166645583Y-92972718D01*
X166634279Y-92969887D01*
X166623306Y-92965961D01*
X166612772Y-92960978D01*
X166602776Y-92954987D01*
X166593416Y-92948045D01*
X166584781Y-92940219D01*
X166576955Y-92931584D01*
X166570013Y-92922224D01*
X166564022Y-92912228D01*
X166559039Y-92901694D01*
X166555113Y-92890721D01*
X166552282Y-92879417D01*
X166550572Y-92867890D01*
X166550000Y-92856250D01*
X166550000Y-92618750D01*
X166550572Y-92607110D01*
X166552282Y-92595583D01*
X166555113Y-92584279D01*
X166559039Y-92573306D01*
X166564022Y-92562772D01*
X166570013Y-92552776D01*
X166576955Y-92543416D01*
X166584781Y-92534781D01*
X166593416Y-92526955D01*
X166602776Y-92520013D01*
X166612772Y-92514022D01*
X166623306Y-92509039D01*
X166634279Y-92505113D01*
X166645583Y-92502282D01*
X166657110Y-92500572D01*
X166668750Y-92500000D01*
X167331250Y-92500000D01*
X167342890Y-92500572D01*
G37*
G36*
X167042890Y-86725572D02*
G01*
X167054417Y-86727282D01*
X167065721Y-86730113D01*
X167076694Y-86734039D01*
X167087228Y-86739022D01*
X167097224Y-86745013D01*
X167106584Y-86751955D01*
X167115219Y-86759781D01*
X167123045Y-86768416D01*
X167129987Y-86777776D01*
X167135978Y-86787772D01*
X167140961Y-86798306D01*
X167144887Y-86809279D01*
X167147718Y-86820583D01*
X167149428Y-86832110D01*
X167150000Y-86843750D01*
X167150000Y-87081250D01*
X167149428Y-87092890D01*
X167147718Y-87104417D01*
X167144887Y-87115721D01*
X167140961Y-87126694D01*
X167135978Y-87137228D01*
X167129987Y-87147224D01*
X167123045Y-87156584D01*
X167115219Y-87165219D01*
X167106584Y-87173045D01*
X167097224Y-87179987D01*
X167087228Y-87185978D01*
X167076694Y-87190961D01*
X167065721Y-87194887D01*
X167054417Y-87197718D01*
X167042890Y-87199428D01*
X167031250Y-87200000D01*
X166368750Y-87200000D01*
X166357110Y-87199428D01*
X166345583Y-87197718D01*
X166334279Y-87194887D01*
X166323306Y-87190961D01*
X166312772Y-87185978D01*
X166302776Y-87179987D01*
X166293416Y-87173045D01*
X166284781Y-87165219D01*
X166276955Y-87156584D01*
X166270013Y-87147224D01*
X166264022Y-87137228D01*
X166259039Y-87126694D01*
X166255113Y-87115721D01*
X166252282Y-87104417D01*
X166250572Y-87092890D01*
X166250000Y-87081250D01*
X166250000Y-86843750D01*
X166250572Y-86832110D01*
X166252282Y-86820583D01*
X166255113Y-86809279D01*
X166259039Y-86798306D01*
X166264022Y-86787772D01*
X166270013Y-86777776D01*
X166276955Y-86768416D01*
X166284781Y-86759781D01*
X166293416Y-86751955D01*
X166302776Y-86745013D01*
X166312772Y-86739022D01*
X166323306Y-86734039D01*
X166334279Y-86730113D01*
X166345583Y-86727282D01*
X166357110Y-86725572D01*
X166368750Y-86725000D01*
X167031250Y-86725000D01*
X167042890Y-86725572D01*
G37*
G36*
X167042890Y-88600572D02*
G01*
X167054417Y-88602282D01*
X167065721Y-88605113D01*
X167076694Y-88609039D01*
X167087228Y-88614022D01*
X167097224Y-88620013D01*
X167106584Y-88626955D01*
X167115219Y-88634781D01*
X167123045Y-88643416D01*
X167129987Y-88652776D01*
X167135978Y-88662772D01*
X167140961Y-88673306D01*
X167144887Y-88684279D01*
X167147718Y-88695583D01*
X167149428Y-88707110D01*
X167150000Y-88718750D01*
X167150000Y-88956250D01*
X167149428Y-88967890D01*
X167147718Y-88979417D01*
X167144887Y-88990721D01*
X167140961Y-89001694D01*
X167135978Y-89012228D01*
X167129987Y-89022224D01*
X167123045Y-89031584D01*
X167115219Y-89040219D01*
X167106584Y-89048045D01*
X167097224Y-89054987D01*
X167087228Y-89060978D01*
X167076694Y-89065961D01*
X167065721Y-89069887D01*
X167054417Y-89072718D01*
X167042890Y-89074428D01*
X167031250Y-89075000D01*
X166368750Y-89075000D01*
X166357110Y-89074428D01*
X166345583Y-89072718D01*
X166334279Y-89069887D01*
X166323306Y-89065961D01*
X166312772Y-89060978D01*
X166302776Y-89054987D01*
X166293416Y-89048045D01*
X166284781Y-89040219D01*
X166276955Y-89031584D01*
X166270013Y-89022224D01*
X166264022Y-89012228D01*
X166259039Y-89001694D01*
X166255113Y-88990721D01*
X166252282Y-88979417D01*
X166250572Y-88967890D01*
X166250000Y-88956250D01*
X166250000Y-88718750D01*
X166250572Y-88707110D01*
X166252282Y-88695583D01*
X166255113Y-88684279D01*
X166259039Y-88673306D01*
X166264022Y-88662772D01*
X166270013Y-88652776D01*
X166276955Y-88643416D01*
X166284781Y-88634781D01*
X166293416Y-88626955D01*
X166302776Y-88620013D01*
X166312772Y-88614022D01*
X166323306Y-88609039D01*
X166334279Y-88605113D01*
X166345583Y-88602282D01*
X166357110Y-88600572D01*
X166368750Y-88600000D01*
X167031250Y-88600000D01*
X167042890Y-88600572D01*
G37*
G36*
X170067890Y-73650572D02*
G01*
X170079417Y-73652282D01*
X170090721Y-73655113D01*
X170101694Y-73659039D01*
X170112228Y-73664022D01*
X170122224Y-73670013D01*
X170131584Y-73676955D01*
X170140219Y-73684781D01*
X170148045Y-73693416D01*
X170154987Y-73702776D01*
X170160978Y-73712772D01*
X170165961Y-73723306D01*
X170169887Y-73734279D01*
X170172718Y-73745583D01*
X170174428Y-73757110D01*
X170175000Y-73768750D01*
X170175000Y-74431250D01*
X170174428Y-74442890D01*
X170172718Y-74454417D01*
X170169887Y-74465721D01*
X170165961Y-74476694D01*
X170160978Y-74487228D01*
X170154987Y-74497224D01*
X170148045Y-74506584D01*
X170140219Y-74515219D01*
X170131584Y-74523045D01*
X170122224Y-74529987D01*
X170112228Y-74535978D01*
X170101694Y-74540961D01*
X170090721Y-74544887D01*
X170079417Y-74547718D01*
X170067890Y-74549428D01*
X170056250Y-74550000D01*
X169818750Y-74550000D01*
X169807110Y-74549428D01*
X169795583Y-74547718D01*
X169784279Y-74544887D01*
X169773306Y-74540961D01*
X169762772Y-74535978D01*
X169752776Y-74529987D01*
X169743416Y-74523045D01*
X169734781Y-74515219D01*
X169726955Y-74506584D01*
X169720013Y-74497224D01*
X169714022Y-74487228D01*
X169709039Y-74476694D01*
X169705113Y-74465721D01*
X169702282Y-74454417D01*
X169700572Y-74442890D01*
X169700000Y-74431250D01*
X169700000Y-73768750D01*
X169700572Y-73757110D01*
X169702282Y-73745583D01*
X169705113Y-73734279D01*
X169709039Y-73723306D01*
X169714022Y-73712772D01*
X169720013Y-73702776D01*
X169726955Y-73693416D01*
X169734781Y-73684781D01*
X169743416Y-73676955D01*
X169752776Y-73670013D01*
X169762772Y-73664022D01*
X169773306Y-73659039D01*
X169784279Y-73655113D01*
X169795583Y-73652282D01*
X169807110Y-73650572D01*
X169818750Y-73650000D01*
X170056250Y-73650000D01*
X170067890Y-73650572D01*
G37*
G36*
X168192890Y-73650572D02*
G01*
X168204417Y-73652282D01*
X168215721Y-73655113D01*
X168226694Y-73659039D01*
X168237228Y-73664022D01*
X168247224Y-73670013D01*
X168256584Y-73676955D01*
X168265219Y-73684781D01*
X168273045Y-73693416D01*
X168279987Y-73702776D01*
X168285978Y-73712772D01*
X168290961Y-73723306D01*
X168294887Y-73734279D01*
X168297718Y-73745583D01*
X168299428Y-73757110D01*
X168300000Y-73768750D01*
X168300000Y-74431250D01*
X168299428Y-74442890D01*
X168297718Y-74454417D01*
X168294887Y-74465721D01*
X168290961Y-74476694D01*
X168285978Y-74487228D01*
X168279987Y-74497224D01*
X168273045Y-74506584D01*
X168265219Y-74515219D01*
X168256584Y-74523045D01*
X168247224Y-74529987D01*
X168237228Y-74535978D01*
X168226694Y-74540961D01*
X168215721Y-74544887D01*
X168204417Y-74547718D01*
X168192890Y-74549428D01*
X168181250Y-74550000D01*
X167943750Y-74550000D01*
X167932110Y-74549428D01*
X167920583Y-74547718D01*
X167909279Y-74544887D01*
X167898306Y-74540961D01*
X167887772Y-74535978D01*
X167877776Y-74529987D01*
X167868416Y-74523045D01*
X167859781Y-74515219D01*
X167851955Y-74506584D01*
X167845013Y-74497224D01*
X167839022Y-74487228D01*
X167834039Y-74476694D01*
X167830113Y-74465721D01*
X167827282Y-74454417D01*
X167825572Y-74442890D01*
X167825000Y-74431250D01*
X167825000Y-73768750D01*
X167825572Y-73757110D01*
X167827282Y-73745583D01*
X167830113Y-73734279D01*
X167834039Y-73723306D01*
X167839022Y-73712772D01*
X167845013Y-73702776D01*
X167851955Y-73693416D01*
X167859781Y-73684781D01*
X167868416Y-73676955D01*
X167877776Y-73670013D01*
X167887772Y-73664022D01*
X167898306Y-73659039D01*
X167909279Y-73655113D01*
X167920583Y-73652282D01*
X167932110Y-73650572D01*
X167943750Y-73650000D01*
X168181250Y-73650000D01*
X168192890Y-73650572D01*
G37*
M02*
