M48
; DRILL file {KiCad 5.1.5-52549c5~84~ubuntu18.04.1} date Mon 20 Apr 2020 12:33:08 AM PDT
; FORMAT={-:-/ absolute / inch / decimal}
; #@! TF.CreationDate,2020-04-20T00:33:08-07:00
; #@! TF.GenerationSoftware,Kicad,Pcbnew,5.1.5-52549c5~84~ubuntu18.04.1
; #@! TF.FileFunction,Plated,1,2,PTH
FMAT,2
INCH
T1C0.0157
T2C0.0394
T3C0.0630
T4C0.1260
%
G90
G05
T1
X6.122Y-3.9173
X6.122Y-3.9567
X6.1614Y-3.878
X6.1614Y-3.9961
T2
X5.8465Y-3.8386
X5.8465Y-4.0354
X5.9646Y-3.8386
X5.9646Y-4.0354
X5.8465Y-4.2717
X5.8465Y-4.4685
X5.9646Y-4.2717
X5.9646Y-4.4685
X5.8465Y-3.4055
X5.8465Y-3.6024
X5.9646Y-3.4055
X5.9646Y-3.6024
T3
X5.7677Y-4.5276
X6.0433Y-4.5276
X5.7677Y-3.3465
X6.0433Y-3.3465
T4
X5.9055Y-3.937
X5.9055Y-4.3701
X5.9055Y-3.5039
T0
M30
