G04 #@! TF.GenerationSoftware,KiCad,Pcbnew,5.1.5-52549c5~84~ubuntu18.04.1*
G04 #@! TF.CreationDate,2020-04-20T00:33:06-07:00*
G04 #@! TF.ProjectId,somos_dielectrode_v2.0,736f6d6f-735f-4646-9965-6c656374726f,rev?*
G04 #@! TF.SameCoordinates,Original*
G04 #@! TF.FileFunction,Copper,L2,Bot*
G04 #@! TF.FilePolarity,Positive*
%FSLAX46Y46*%
G04 Gerber Fmt 4.6, Leading zero omitted, Abs format (unit mm)*
G04 Created by KiCad (PCBNEW 5.1.5-52549c5~84~ubuntu18.04.1) date 2020-04-20 00:33:06*
%MOMM*%
%LPD*%
G04 APERTURE LIST*
%ADD10C,2.000000*%
%ADD11C,4.000000*%
%ADD12C,0.800000*%
%ADD13C,0.350000*%
%ADD14C,0.153000*%
G04 APERTURE END LIST*
D10*
X153500000Y-115000000D03*
X146500000Y-115000000D03*
X153500000Y-85000000D03*
X146500000Y-85000000D03*
D11*
X150000000Y-111000000D03*
D10*
X148500000Y-113500000D03*
X148500000Y-108500000D03*
X151500000Y-108500000D03*
X151500000Y-113500000D03*
D11*
X150000000Y-100000000D03*
D10*
X151500000Y-97500000D03*
X151500000Y-102500000D03*
X148500000Y-102500000D03*
X148500000Y-97500000D03*
X151500000Y-91500000D03*
X151500000Y-86500000D03*
X148500000Y-86500000D03*
X148500000Y-91500000D03*
D11*
X150000000Y-89000000D03*
D12*
X156500000Y-98500000D03*
X156500000Y-101500000D03*
X155500000Y-100500000D03*
X155500000Y-99500000D03*
D13*
X148500000Y-101500000D02*
X150000000Y-100000000D01*
X148500000Y-102500000D02*
X148500000Y-101500000D01*
X151500000Y-101500000D02*
X150000000Y-100000000D01*
X151500000Y-102500000D02*
X151500000Y-101500000D01*
X148500000Y-98500000D02*
X150000000Y-100000000D01*
X148500000Y-97500000D02*
X148500000Y-98500000D01*
X151500000Y-98500000D02*
X150000000Y-100000000D01*
X151500000Y-97500000D02*
X151500000Y-98500000D01*
X156275000Y-99775000D02*
X156500000Y-98500000D01*
X156500000Y-101500000D02*
X156275000Y-99775000D01*
X148500000Y-109500000D02*
X150000000Y-111000000D01*
X148500000Y-108500000D02*
X148500000Y-109500000D01*
X151500000Y-109500000D02*
X150000000Y-111000000D01*
X151500000Y-108500000D02*
X151500000Y-109500000D01*
X151500000Y-112500000D02*
X150000000Y-111000000D01*
X151500000Y-113500000D02*
X151500000Y-112500000D01*
X148500000Y-112500000D02*
X150000000Y-111000000D01*
X148500000Y-113500000D02*
X148500000Y-112500000D01*
X155500000Y-104500000D02*
X151500000Y-108500000D01*
X155500000Y-100500000D02*
X155500000Y-104500000D01*
X151500000Y-90500000D02*
X150000000Y-89000000D01*
X151500000Y-91500000D02*
X151500000Y-90500000D01*
X148500000Y-90500000D02*
X150000000Y-89000000D01*
X148500000Y-91500000D02*
X148500000Y-90500000D01*
X148500000Y-87500000D02*
X150000000Y-89000000D01*
X148500000Y-86500000D02*
X148500000Y-87500000D01*
X151500000Y-87500000D02*
X150000000Y-89000000D01*
X151500000Y-86500000D02*
X151500000Y-87500000D01*
X155500000Y-99500000D02*
X155500000Y-95500000D01*
X155500000Y-95500000D02*
X151500000Y-91500000D01*
D14*
G36*
X155638501Y-85149740D02*
G01*
X155638500Y-92982243D01*
X155636751Y-93000000D01*
X155638500Y-93017756D01*
X155643731Y-93070865D01*
X155664402Y-93139008D01*
X155697969Y-93201809D01*
X155743144Y-93256855D01*
X155756936Y-93268174D01*
X158638501Y-96149739D01*
X158638500Y-103850262D01*
X155756936Y-106731826D01*
X155743145Y-106743144D01*
X155731827Y-106756935D01*
X155731825Y-106756937D01*
X155697970Y-106798190D01*
X155664403Y-106860991D01*
X155643731Y-106929134D01*
X155636751Y-107000000D01*
X155638501Y-107017767D01*
X155638500Y-114850261D01*
X153850262Y-116638500D01*
X146149739Y-116638500D01*
X144361500Y-114850262D01*
X144361500Y-107149738D01*
X147243060Y-104268178D01*
X147256856Y-104256856D01*
X147302031Y-104201810D01*
X147317656Y-104172577D01*
X147335598Y-104139010D01*
X147356269Y-104070867D01*
X147363249Y-104000000D01*
X147361500Y-103982243D01*
X147361500Y-103640285D01*
X147610738Y-103640285D01*
X147713582Y-103884393D01*
X147998774Y-104011214D01*
X148303228Y-104079962D01*
X148615245Y-104087991D01*
X148922832Y-104034995D01*
X149214170Y-103923011D01*
X149286418Y-103884393D01*
X149389262Y-103640285D01*
X150610738Y-103640285D01*
X150713582Y-103884393D01*
X150998774Y-104011214D01*
X151303228Y-104079962D01*
X151615245Y-104087991D01*
X151922832Y-104034995D01*
X152214170Y-103923011D01*
X152286418Y-103884393D01*
X152389262Y-103640285D01*
X151500000Y-102751023D01*
X150610738Y-103640285D01*
X149389262Y-103640285D01*
X148500000Y-102751023D01*
X147610738Y-103640285D01*
X147361500Y-103640285D01*
X147361500Y-103387477D01*
X148248977Y-102500000D01*
X147361500Y-101612523D01*
X147361500Y-100075644D01*
X147404097Y-100075644D01*
X147468734Y-100580626D01*
X147630646Y-101063295D01*
X147689350Y-101173123D01*
X147610738Y-101359715D01*
X148500000Y-102248977D01*
X148514142Y-102234835D01*
X148765165Y-102485858D01*
X148751023Y-102500000D01*
X149640285Y-103389262D01*
X149884393Y-103286418D01*
X150002591Y-103020617D01*
X150076989Y-103214170D01*
X150115607Y-103286418D01*
X150359715Y-103389262D01*
X151248977Y-102500000D01*
X151751023Y-102500000D01*
X152640285Y-103389262D01*
X152884393Y-103286418D01*
X153011214Y-103001226D01*
X153079962Y-102696772D01*
X153087991Y-102384755D01*
X153034995Y-102077168D01*
X152923011Y-101785830D01*
X152884393Y-101713582D01*
X152640285Y-101610738D01*
X151751023Y-102500000D01*
X151248977Y-102500000D01*
X151234835Y-102485858D01*
X151485858Y-102234835D01*
X151500000Y-102248977D01*
X152389262Y-101359715D01*
X152307162Y-101164845D01*
X152427249Y-100923523D01*
X152560781Y-100432245D01*
X152595903Y-99924356D01*
X152531266Y-99419374D01*
X152369354Y-98936705D01*
X152310650Y-98826877D01*
X152389262Y-98640285D01*
X151500000Y-97751023D01*
X151485858Y-97765165D01*
X151234835Y-97514142D01*
X151248977Y-97500000D01*
X151751023Y-97500000D01*
X152640285Y-98389262D01*
X152884393Y-98286418D01*
X153011214Y-98001226D01*
X153079962Y-97696772D01*
X153087991Y-97384755D01*
X153034995Y-97077168D01*
X152923011Y-96785830D01*
X152884393Y-96713582D01*
X152640285Y-96610738D01*
X151751023Y-97500000D01*
X151248977Y-97500000D01*
X150359715Y-96610738D01*
X150115607Y-96713582D01*
X149997409Y-96979383D01*
X149923011Y-96785830D01*
X149884393Y-96713582D01*
X149640285Y-96610738D01*
X148751023Y-97500000D01*
X148765165Y-97514142D01*
X148514142Y-97765165D01*
X148500000Y-97751023D01*
X147610738Y-98640285D01*
X147692838Y-98835155D01*
X147572751Y-99076477D01*
X147439219Y-99567755D01*
X147404097Y-100075644D01*
X147361500Y-100075644D01*
X147361500Y-98387477D01*
X148248977Y-97500000D01*
X147361500Y-96612523D01*
X147361500Y-96359715D01*
X147610738Y-96359715D01*
X148500000Y-97248977D01*
X149389262Y-96359715D01*
X150610738Y-96359715D01*
X151500000Y-97248977D01*
X152389262Y-96359715D01*
X152286418Y-96115607D01*
X152001226Y-95988786D01*
X151696772Y-95920038D01*
X151384755Y-95912009D01*
X151077168Y-95965005D01*
X150785830Y-96076989D01*
X150713582Y-96115607D01*
X150610738Y-96359715D01*
X149389262Y-96359715D01*
X149286418Y-96115607D01*
X149001226Y-95988786D01*
X148696772Y-95920038D01*
X148384755Y-95912009D01*
X148077168Y-95965005D01*
X147785830Y-96076989D01*
X147713582Y-96115607D01*
X147610738Y-96359715D01*
X147361500Y-96359715D01*
X147361500Y-96017757D01*
X147363249Y-96000000D01*
X147356269Y-95929133D01*
X147335598Y-95860990D01*
X147317656Y-95827423D01*
X147302031Y-95798190D01*
X147256855Y-95743144D01*
X147243064Y-95731826D01*
X144361500Y-92850262D01*
X144361500Y-85149738D01*
X144642872Y-84868366D01*
X145163500Y-84868366D01*
X145163500Y-85131634D01*
X145214861Y-85389843D01*
X145315609Y-85633070D01*
X145461872Y-85851969D01*
X145648031Y-86038128D01*
X145866930Y-86184391D01*
X146110157Y-86285139D01*
X146368366Y-86336500D01*
X146631634Y-86336500D01*
X146889843Y-86285139D01*
X147133070Y-86184391D01*
X147210369Y-86132742D01*
X147163500Y-86368366D01*
X147163500Y-86631634D01*
X147214861Y-86889843D01*
X147315609Y-87133070D01*
X147461872Y-87351969D01*
X147648031Y-87538128D01*
X147866930Y-87684391D01*
X148025179Y-87749940D01*
X147929421Y-87893252D01*
X147753291Y-88318468D01*
X147663500Y-88769875D01*
X147663500Y-89230125D01*
X147753291Y-89681532D01*
X147929421Y-90106748D01*
X148025179Y-90250060D01*
X147866930Y-90315609D01*
X147648031Y-90461872D01*
X147461872Y-90648031D01*
X147315609Y-90866930D01*
X147214861Y-91110157D01*
X147163500Y-91368366D01*
X147163500Y-91631634D01*
X147214861Y-91889843D01*
X147315609Y-92133070D01*
X147461872Y-92351969D01*
X147648031Y-92538128D01*
X147866930Y-92684391D01*
X148110157Y-92785139D01*
X148368366Y-92836500D01*
X148631634Y-92836500D01*
X148889843Y-92785139D01*
X149133070Y-92684391D01*
X149351969Y-92538128D01*
X149538128Y-92351969D01*
X149684391Y-92133070D01*
X149785139Y-91889843D01*
X149836500Y-91631634D01*
X149836500Y-91368366D01*
X149830161Y-91336500D01*
X150169839Y-91336500D01*
X150163500Y-91368366D01*
X150163500Y-91631634D01*
X150214861Y-91889843D01*
X150315609Y-92133070D01*
X150461872Y-92351969D01*
X150648031Y-92538128D01*
X150866930Y-92684391D01*
X151110157Y-92785139D01*
X151368366Y-92836500D01*
X151631634Y-92836500D01*
X151889843Y-92785139D01*
X152011414Y-92734783D01*
X154988501Y-95711871D01*
X154988500Y-98969931D01*
X154927923Y-99030508D01*
X154847322Y-99151136D01*
X154791803Y-99285171D01*
X154763500Y-99427461D01*
X154763500Y-99572539D01*
X154791803Y-99714829D01*
X154847322Y-99848864D01*
X154927923Y-99969492D01*
X154958431Y-100000000D01*
X154927923Y-100030508D01*
X154847322Y-100151136D01*
X154791803Y-100285171D01*
X154763500Y-100427461D01*
X154763500Y-100572539D01*
X154791803Y-100714829D01*
X154847322Y-100848864D01*
X154927923Y-100969492D01*
X154988500Y-101030069D01*
X154988501Y-104288129D01*
X152011414Y-107265217D01*
X151889843Y-107214861D01*
X151631634Y-107163500D01*
X151368366Y-107163500D01*
X151110157Y-107214861D01*
X150866930Y-107315609D01*
X150648031Y-107461872D01*
X150461872Y-107648031D01*
X150315609Y-107866930D01*
X150214861Y-108110157D01*
X150163500Y-108368366D01*
X150163500Y-108631634D01*
X150169839Y-108663500D01*
X149830161Y-108663500D01*
X149836500Y-108631634D01*
X149836500Y-108368366D01*
X149785139Y-108110157D01*
X149684391Y-107866930D01*
X149538128Y-107648031D01*
X149351969Y-107461872D01*
X149133070Y-107315609D01*
X148889843Y-107214861D01*
X148631634Y-107163500D01*
X148368366Y-107163500D01*
X148110157Y-107214861D01*
X147866930Y-107315609D01*
X147648031Y-107461872D01*
X147461872Y-107648031D01*
X147315609Y-107866930D01*
X147214861Y-108110157D01*
X147163500Y-108368366D01*
X147163500Y-108631634D01*
X147214861Y-108889843D01*
X147315609Y-109133070D01*
X147461872Y-109351969D01*
X147648031Y-109538128D01*
X147866930Y-109684391D01*
X148025179Y-109749940D01*
X147929421Y-109893252D01*
X147753291Y-110318468D01*
X147663500Y-110769875D01*
X147663500Y-111230125D01*
X147753291Y-111681532D01*
X147929421Y-112106748D01*
X148025179Y-112250060D01*
X147866930Y-112315609D01*
X147648031Y-112461872D01*
X147461872Y-112648031D01*
X147315609Y-112866930D01*
X147214861Y-113110157D01*
X147163500Y-113368366D01*
X147163500Y-113631634D01*
X147210369Y-113867258D01*
X147133070Y-113815609D01*
X146889843Y-113714861D01*
X146631634Y-113663500D01*
X146368366Y-113663500D01*
X146110157Y-113714861D01*
X145866930Y-113815609D01*
X145648031Y-113961872D01*
X145461872Y-114148031D01*
X145315609Y-114366930D01*
X145214861Y-114610157D01*
X145163500Y-114868366D01*
X145163500Y-115131634D01*
X145214861Y-115389843D01*
X145315609Y-115633070D01*
X145461872Y-115851969D01*
X145648031Y-116038128D01*
X145866930Y-116184391D01*
X146110157Y-116285139D01*
X146368366Y-116336500D01*
X146631634Y-116336500D01*
X146889843Y-116285139D01*
X147133070Y-116184391D01*
X147351969Y-116038128D01*
X147538128Y-115851969D01*
X147684391Y-115633070D01*
X147785139Y-115389843D01*
X147836500Y-115131634D01*
X147836500Y-114868366D01*
X147789631Y-114632742D01*
X147866930Y-114684391D01*
X148110157Y-114785139D01*
X148368366Y-114836500D01*
X148631634Y-114836500D01*
X148889843Y-114785139D01*
X149133070Y-114684391D01*
X149351969Y-114538128D01*
X149538128Y-114351969D01*
X149684391Y-114133070D01*
X149785139Y-113889843D01*
X149836500Y-113631634D01*
X149836500Y-113368366D01*
X149830161Y-113336500D01*
X150169839Y-113336500D01*
X150163500Y-113368366D01*
X150163500Y-113631634D01*
X150214861Y-113889843D01*
X150315609Y-114133070D01*
X150461872Y-114351969D01*
X150648031Y-114538128D01*
X150866930Y-114684391D01*
X151110157Y-114785139D01*
X151368366Y-114836500D01*
X151631634Y-114836500D01*
X151889843Y-114785139D01*
X152133070Y-114684391D01*
X152210369Y-114632742D01*
X152163500Y-114868366D01*
X152163500Y-115131634D01*
X152214861Y-115389843D01*
X152315609Y-115633070D01*
X152461872Y-115851969D01*
X152648031Y-116038128D01*
X152866930Y-116184391D01*
X153110157Y-116285139D01*
X153368366Y-116336500D01*
X153631634Y-116336500D01*
X153889843Y-116285139D01*
X154133070Y-116184391D01*
X154351969Y-116038128D01*
X154538128Y-115851969D01*
X154684391Y-115633070D01*
X154785139Y-115389843D01*
X154836500Y-115131634D01*
X154836500Y-114868366D01*
X154785139Y-114610157D01*
X154684391Y-114366930D01*
X154538128Y-114148031D01*
X154351969Y-113961872D01*
X154133070Y-113815609D01*
X153889843Y-113714861D01*
X153631634Y-113663500D01*
X153368366Y-113663500D01*
X153110157Y-113714861D01*
X152866930Y-113815609D01*
X152789631Y-113867258D01*
X152836500Y-113631634D01*
X152836500Y-113368366D01*
X152785139Y-113110157D01*
X152684391Y-112866930D01*
X152538128Y-112648031D01*
X152351969Y-112461872D01*
X152133070Y-112315609D01*
X151974821Y-112250060D01*
X152070579Y-112106748D01*
X152246709Y-111681532D01*
X152336500Y-111230125D01*
X152336500Y-110769875D01*
X152246709Y-110318468D01*
X152070579Y-109893252D01*
X151974821Y-109749940D01*
X152133070Y-109684391D01*
X152351969Y-109538128D01*
X152538128Y-109351969D01*
X152684391Y-109133070D01*
X152785139Y-108889843D01*
X152836500Y-108631634D01*
X152836500Y-108368366D01*
X152785139Y-108110157D01*
X152734783Y-107988586D01*
X155843917Y-104879453D01*
X155863435Y-104863435D01*
X155927354Y-104785549D01*
X155974850Y-104696689D01*
X156004098Y-104600271D01*
X156011500Y-104525119D01*
X156013974Y-104500001D01*
X156011500Y-104474882D01*
X156011500Y-101030069D01*
X156072077Y-100969492D01*
X156152678Y-100848864D01*
X156208197Y-100714829D01*
X156236500Y-100572539D01*
X156236500Y-100427461D01*
X156208197Y-100285171D01*
X156152678Y-100151136D01*
X156072077Y-100030508D01*
X156041569Y-100000000D01*
X156072077Y-99969492D01*
X156152678Y-99848864D01*
X156208197Y-99714829D01*
X156236500Y-99572539D01*
X156236500Y-99427461D01*
X156208197Y-99285171D01*
X156152678Y-99151136D01*
X156072077Y-99030508D01*
X156011500Y-98969931D01*
X156011500Y-95525118D01*
X156013974Y-95499999D01*
X156004098Y-95399728D01*
X155995225Y-95370480D01*
X155974850Y-95303311D01*
X155927354Y-95214451D01*
X155863435Y-95136565D01*
X155843917Y-95120547D01*
X152734783Y-92011414D01*
X152785139Y-91889843D01*
X152836500Y-91631634D01*
X152836500Y-91368366D01*
X152785139Y-91110157D01*
X152684391Y-90866930D01*
X152538128Y-90648031D01*
X152351969Y-90461872D01*
X152133070Y-90315609D01*
X151974821Y-90250060D01*
X152070579Y-90106748D01*
X152246709Y-89681532D01*
X152336500Y-89230125D01*
X152336500Y-88769875D01*
X152246709Y-88318468D01*
X152070579Y-87893252D01*
X151974821Y-87749940D01*
X152133070Y-87684391D01*
X152351969Y-87538128D01*
X152538128Y-87351969D01*
X152684391Y-87133070D01*
X152785139Y-86889843D01*
X152836500Y-86631634D01*
X152836500Y-86368366D01*
X152789631Y-86132742D01*
X152866930Y-86184391D01*
X153110157Y-86285139D01*
X153368366Y-86336500D01*
X153631634Y-86336500D01*
X153889843Y-86285139D01*
X154133070Y-86184391D01*
X154351969Y-86038128D01*
X154538128Y-85851969D01*
X154684391Y-85633070D01*
X154785139Y-85389843D01*
X154836500Y-85131634D01*
X154836500Y-84868366D01*
X154785139Y-84610157D01*
X154684391Y-84366930D01*
X154538128Y-84148031D01*
X154351969Y-83961872D01*
X154133070Y-83815609D01*
X153889843Y-83714861D01*
X153631634Y-83663500D01*
X153368366Y-83663500D01*
X153110157Y-83714861D01*
X152866930Y-83815609D01*
X152648031Y-83961872D01*
X152461872Y-84148031D01*
X152315609Y-84366930D01*
X152214861Y-84610157D01*
X152163500Y-84868366D01*
X152163500Y-85131634D01*
X152210369Y-85367258D01*
X152133070Y-85315609D01*
X151889843Y-85214861D01*
X151631634Y-85163500D01*
X151368366Y-85163500D01*
X151110157Y-85214861D01*
X150866930Y-85315609D01*
X150648031Y-85461872D01*
X150461872Y-85648031D01*
X150315609Y-85866930D01*
X150214861Y-86110157D01*
X150163500Y-86368366D01*
X150163500Y-86631634D01*
X150169839Y-86663500D01*
X149830161Y-86663500D01*
X149836500Y-86631634D01*
X149836500Y-86368366D01*
X149785139Y-86110157D01*
X149684391Y-85866930D01*
X149538128Y-85648031D01*
X149351969Y-85461872D01*
X149133070Y-85315609D01*
X148889843Y-85214861D01*
X148631634Y-85163500D01*
X148368366Y-85163500D01*
X148110157Y-85214861D01*
X147866930Y-85315609D01*
X147789631Y-85367258D01*
X147836500Y-85131634D01*
X147836500Y-84868366D01*
X147785139Y-84610157D01*
X147684391Y-84366930D01*
X147538128Y-84148031D01*
X147351969Y-83961872D01*
X147133070Y-83815609D01*
X146889843Y-83714861D01*
X146631634Y-83663500D01*
X146368366Y-83663500D01*
X146110157Y-83714861D01*
X145866930Y-83815609D01*
X145648031Y-83961872D01*
X145461872Y-84148031D01*
X145315609Y-84366930D01*
X145214861Y-84610157D01*
X145163500Y-84868366D01*
X144642872Y-84868366D01*
X146149739Y-83361500D01*
X153850262Y-83361500D01*
X155638501Y-85149740D01*
G37*
X155638501Y-85149740D02*
X155638500Y-92982243D01*
X155636751Y-93000000D01*
X155638500Y-93017756D01*
X155643731Y-93070865D01*
X155664402Y-93139008D01*
X155697969Y-93201809D01*
X155743144Y-93256855D01*
X155756936Y-93268174D01*
X158638501Y-96149739D01*
X158638500Y-103850262D01*
X155756936Y-106731826D01*
X155743145Y-106743144D01*
X155731827Y-106756935D01*
X155731825Y-106756937D01*
X155697970Y-106798190D01*
X155664403Y-106860991D01*
X155643731Y-106929134D01*
X155636751Y-107000000D01*
X155638501Y-107017767D01*
X155638500Y-114850261D01*
X153850262Y-116638500D01*
X146149739Y-116638500D01*
X144361500Y-114850262D01*
X144361500Y-107149738D01*
X147243060Y-104268178D01*
X147256856Y-104256856D01*
X147302031Y-104201810D01*
X147317656Y-104172577D01*
X147335598Y-104139010D01*
X147356269Y-104070867D01*
X147363249Y-104000000D01*
X147361500Y-103982243D01*
X147361500Y-103640285D01*
X147610738Y-103640285D01*
X147713582Y-103884393D01*
X147998774Y-104011214D01*
X148303228Y-104079962D01*
X148615245Y-104087991D01*
X148922832Y-104034995D01*
X149214170Y-103923011D01*
X149286418Y-103884393D01*
X149389262Y-103640285D01*
X150610738Y-103640285D01*
X150713582Y-103884393D01*
X150998774Y-104011214D01*
X151303228Y-104079962D01*
X151615245Y-104087991D01*
X151922832Y-104034995D01*
X152214170Y-103923011D01*
X152286418Y-103884393D01*
X152389262Y-103640285D01*
X151500000Y-102751023D01*
X150610738Y-103640285D01*
X149389262Y-103640285D01*
X148500000Y-102751023D01*
X147610738Y-103640285D01*
X147361500Y-103640285D01*
X147361500Y-103387477D01*
X148248977Y-102500000D01*
X147361500Y-101612523D01*
X147361500Y-100075644D01*
X147404097Y-100075644D01*
X147468734Y-100580626D01*
X147630646Y-101063295D01*
X147689350Y-101173123D01*
X147610738Y-101359715D01*
X148500000Y-102248977D01*
X148514142Y-102234835D01*
X148765165Y-102485858D01*
X148751023Y-102500000D01*
X149640285Y-103389262D01*
X149884393Y-103286418D01*
X150002591Y-103020617D01*
X150076989Y-103214170D01*
X150115607Y-103286418D01*
X150359715Y-103389262D01*
X151248977Y-102500000D01*
X151751023Y-102500000D01*
X152640285Y-103389262D01*
X152884393Y-103286418D01*
X153011214Y-103001226D01*
X153079962Y-102696772D01*
X153087991Y-102384755D01*
X153034995Y-102077168D01*
X152923011Y-101785830D01*
X152884393Y-101713582D01*
X152640285Y-101610738D01*
X151751023Y-102500000D01*
X151248977Y-102500000D01*
X151234835Y-102485858D01*
X151485858Y-102234835D01*
X151500000Y-102248977D01*
X152389262Y-101359715D01*
X152307162Y-101164845D01*
X152427249Y-100923523D01*
X152560781Y-100432245D01*
X152595903Y-99924356D01*
X152531266Y-99419374D01*
X152369354Y-98936705D01*
X152310650Y-98826877D01*
X152389262Y-98640285D01*
X151500000Y-97751023D01*
X151485858Y-97765165D01*
X151234835Y-97514142D01*
X151248977Y-97500000D01*
X151751023Y-97500000D01*
X152640285Y-98389262D01*
X152884393Y-98286418D01*
X153011214Y-98001226D01*
X153079962Y-97696772D01*
X153087991Y-97384755D01*
X153034995Y-97077168D01*
X152923011Y-96785830D01*
X152884393Y-96713582D01*
X152640285Y-96610738D01*
X151751023Y-97500000D01*
X151248977Y-97500000D01*
X150359715Y-96610738D01*
X150115607Y-96713582D01*
X149997409Y-96979383D01*
X149923011Y-96785830D01*
X149884393Y-96713582D01*
X149640285Y-96610738D01*
X148751023Y-97500000D01*
X148765165Y-97514142D01*
X148514142Y-97765165D01*
X148500000Y-97751023D01*
X147610738Y-98640285D01*
X147692838Y-98835155D01*
X147572751Y-99076477D01*
X147439219Y-99567755D01*
X147404097Y-100075644D01*
X147361500Y-100075644D01*
X147361500Y-98387477D01*
X148248977Y-97500000D01*
X147361500Y-96612523D01*
X147361500Y-96359715D01*
X147610738Y-96359715D01*
X148500000Y-97248977D01*
X149389262Y-96359715D01*
X150610738Y-96359715D01*
X151500000Y-97248977D01*
X152389262Y-96359715D01*
X152286418Y-96115607D01*
X152001226Y-95988786D01*
X151696772Y-95920038D01*
X151384755Y-95912009D01*
X151077168Y-95965005D01*
X150785830Y-96076989D01*
X150713582Y-96115607D01*
X150610738Y-96359715D01*
X149389262Y-96359715D01*
X149286418Y-96115607D01*
X149001226Y-95988786D01*
X148696772Y-95920038D01*
X148384755Y-95912009D01*
X148077168Y-95965005D01*
X147785830Y-96076989D01*
X147713582Y-96115607D01*
X147610738Y-96359715D01*
X147361500Y-96359715D01*
X147361500Y-96017757D01*
X147363249Y-96000000D01*
X147356269Y-95929133D01*
X147335598Y-95860990D01*
X147317656Y-95827423D01*
X147302031Y-95798190D01*
X147256855Y-95743144D01*
X147243064Y-95731826D01*
X144361500Y-92850262D01*
X144361500Y-85149738D01*
X144642872Y-84868366D01*
X145163500Y-84868366D01*
X145163500Y-85131634D01*
X145214861Y-85389843D01*
X145315609Y-85633070D01*
X145461872Y-85851969D01*
X145648031Y-86038128D01*
X145866930Y-86184391D01*
X146110157Y-86285139D01*
X146368366Y-86336500D01*
X146631634Y-86336500D01*
X146889843Y-86285139D01*
X147133070Y-86184391D01*
X147210369Y-86132742D01*
X147163500Y-86368366D01*
X147163500Y-86631634D01*
X147214861Y-86889843D01*
X147315609Y-87133070D01*
X147461872Y-87351969D01*
X147648031Y-87538128D01*
X147866930Y-87684391D01*
X148025179Y-87749940D01*
X147929421Y-87893252D01*
X147753291Y-88318468D01*
X147663500Y-88769875D01*
X147663500Y-89230125D01*
X147753291Y-89681532D01*
X147929421Y-90106748D01*
X148025179Y-90250060D01*
X147866930Y-90315609D01*
X147648031Y-90461872D01*
X147461872Y-90648031D01*
X147315609Y-90866930D01*
X147214861Y-91110157D01*
X147163500Y-91368366D01*
X147163500Y-91631634D01*
X147214861Y-91889843D01*
X147315609Y-92133070D01*
X147461872Y-92351969D01*
X147648031Y-92538128D01*
X147866930Y-92684391D01*
X148110157Y-92785139D01*
X148368366Y-92836500D01*
X148631634Y-92836500D01*
X148889843Y-92785139D01*
X149133070Y-92684391D01*
X149351969Y-92538128D01*
X149538128Y-92351969D01*
X149684391Y-92133070D01*
X149785139Y-91889843D01*
X149836500Y-91631634D01*
X149836500Y-91368366D01*
X149830161Y-91336500D01*
X150169839Y-91336500D01*
X150163500Y-91368366D01*
X150163500Y-91631634D01*
X150214861Y-91889843D01*
X150315609Y-92133070D01*
X150461872Y-92351969D01*
X150648031Y-92538128D01*
X150866930Y-92684391D01*
X151110157Y-92785139D01*
X151368366Y-92836500D01*
X151631634Y-92836500D01*
X151889843Y-92785139D01*
X152011414Y-92734783D01*
X154988501Y-95711871D01*
X154988500Y-98969931D01*
X154927923Y-99030508D01*
X154847322Y-99151136D01*
X154791803Y-99285171D01*
X154763500Y-99427461D01*
X154763500Y-99572539D01*
X154791803Y-99714829D01*
X154847322Y-99848864D01*
X154927923Y-99969492D01*
X154958431Y-100000000D01*
X154927923Y-100030508D01*
X154847322Y-100151136D01*
X154791803Y-100285171D01*
X154763500Y-100427461D01*
X154763500Y-100572539D01*
X154791803Y-100714829D01*
X154847322Y-100848864D01*
X154927923Y-100969492D01*
X154988500Y-101030069D01*
X154988501Y-104288129D01*
X152011414Y-107265217D01*
X151889843Y-107214861D01*
X151631634Y-107163500D01*
X151368366Y-107163500D01*
X151110157Y-107214861D01*
X150866930Y-107315609D01*
X150648031Y-107461872D01*
X150461872Y-107648031D01*
X150315609Y-107866930D01*
X150214861Y-108110157D01*
X150163500Y-108368366D01*
X150163500Y-108631634D01*
X150169839Y-108663500D01*
X149830161Y-108663500D01*
X149836500Y-108631634D01*
X149836500Y-108368366D01*
X149785139Y-108110157D01*
X149684391Y-107866930D01*
X149538128Y-107648031D01*
X149351969Y-107461872D01*
X149133070Y-107315609D01*
X148889843Y-107214861D01*
X148631634Y-107163500D01*
X148368366Y-107163500D01*
X148110157Y-107214861D01*
X147866930Y-107315609D01*
X147648031Y-107461872D01*
X147461872Y-107648031D01*
X147315609Y-107866930D01*
X147214861Y-108110157D01*
X147163500Y-108368366D01*
X147163500Y-108631634D01*
X147214861Y-108889843D01*
X147315609Y-109133070D01*
X147461872Y-109351969D01*
X147648031Y-109538128D01*
X147866930Y-109684391D01*
X148025179Y-109749940D01*
X147929421Y-109893252D01*
X147753291Y-110318468D01*
X147663500Y-110769875D01*
X147663500Y-111230125D01*
X147753291Y-111681532D01*
X147929421Y-112106748D01*
X148025179Y-112250060D01*
X147866930Y-112315609D01*
X147648031Y-112461872D01*
X147461872Y-112648031D01*
X147315609Y-112866930D01*
X147214861Y-113110157D01*
X147163500Y-113368366D01*
X147163500Y-113631634D01*
X147210369Y-113867258D01*
X147133070Y-113815609D01*
X146889843Y-113714861D01*
X146631634Y-113663500D01*
X146368366Y-113663500D01*
X146110157Y-113714861D01*
X145866930Y-113815609D01*
X145648031Y-113961872D01*
X145461872Y-114148031D01*
X145315609Y-114366930D01*
X145214861Y-114610157D01*
X145163500Y-114868366D01*
X145163500Y-115131634D01*
X145214861Y-115389843D01*
X145315609Y-115633070D01*
X145461872Y-115851969D01*
X145648031Y-116038128D01*
X145866930Y-116184391D01*
X146110157Y-116285139D01*
X146368366Y-116336500D01*
X146631634Y-116336500D01*
X146889843Y-116285139D01*
X147133070Y-116184391D01*
X147351969Y-116038128D01*
X147538128Y-115851969D01*
X147684391Y-115633070D01*
X147785139Y-115389843D01*
X147836500Y-115131634D01*
X147836500Y-114868366D01*
X147789631Y-114632742D01*
X147866930Y-114684391D01*
X148110157Y-114785139D01*
X148368366Y-114836500D01*
X148631634Y-114836500D01*
X148889843Y-114785139D01*
X149133070Y-114684391D01*
X149351969Y-114538128D01*
X149538128Y-114351969D01*
X149684391Y-114133070D01*
X149785139Y-113889843D01*
X149836500Y-113631634D01*
X149836500Y-113368366D01*
X149830161Y-113336500D01*
X150169839Y-113336500D01*
X150163500Y-113368366D01*
X150163500Y-113631634D01*
X150214861Y-113889843D01*
X150315609Y-114133070D01*
X150461872Y-114351969D01*
X150648031Y-114538128D01*
X150866930Y-114684391D01*
X151110157Y-114785139D01*
X151368366Y-114836500D01*
X151631634Y-114836500D01*
X151889843Y-114785139D01*
X152133070Y-114684391D01*
X152210369Y-114632742D01*
X152163500Y-114868366D01*
X152163500Y-115131634D01*
X152214861Y-115389843D01*
X152315609Y-115633070D01*
X152461872Y-115851969D01*
X152648031Y-116038128D01*
X152866930Y-116184391D01*
X153110157Y-116285139D01*
X153368366Y-116336500D01*
X153631634Y-116336500D01*
X153889843Y-116285139D01*
X154133070Y-116184391D01*
X154351969Y-116038128D01*
X154538128Y-115851969D01*
X154684391Y-115633070D01*
X154785139Y-115389843D01*
X154836500Y-115131634D01*
X154836500Y-114868366D01*
X154785139Y-114610157D01*
X154684391Y-114366930D01*
X154538128Y-114148031D01*
X154351969Y-113961872D01*
X154133070Y-113815609D01*
X153889843Y-113714861D01*
X153631634Y-113663500D01*
X153368366Y-113663500D01*
X153110157Y-113714861D01*
X152866930Y-113815609D01*
X152789631Y-113867258D01*
X152836500Y-113631634D01*
X152836500Y-113368366D01*
X152785139Y-113110157D01*
X152684391Y-112866930D01*
X152538128Y-112648031D01*
X152351969Y-112461872D01*
X152133070Y-112315609D01*
X151974821Y-112250060D01*
X152070579Y-112106748D01*
X152246709Y-111681532D01*
X152336500Y-111230125D01*
X152336500Y-110769875D01*
X152246709Y-110318468D01*
X152070579Y-109893252D01*
X151974821Y-109749940D01*
X152133070Y-109684391D01*
X152351969Y-109538128D01*
X152538128Y-109351969D01*
X152684391Y-109133070D01*
X152785139Y-108889843D01*
X152836500Y-108631634D01*
X152836500Y-108368366D01*
X152785139Y-108110157D01*
X152734783Y-107988586D01*
X155843917Y-104879453D01*
X155863435Y-104863435D01*
X155927354Y-104785549D01*
X155974850Y-104696689D01*
X156004098Y-104600271D01*
X156011500Y-104525119D01*
X156013974Y-104500001D01*
X156011500Y-104474882D01*
X156011500Y-101030069D01*
X156072077Y-100969492D01*
X156152678Y-100848864D01*
X156208197Y-100714829D01*
X156236500Y-100572539D01*
X156236500Y-100427461D01*
X156208197Y-100285171D01*
X156152678Y-100151136D01*
X156072077Y-100030508D01*
X156041569Y-100000000D01*
X156072077Y-99969492D01*
X156152678Y-99848864D01*
X156208197Y-99714829D01*
X156236500Y-99572539D01*
X156236500Y-99427461D01*
X156208197Y-99285171D01*
X156152678Y-99151136D01*
X156072077Y-99030508D01*
X156011500Y-98969931D01*
X156011500Y-95525118D01*
X156013974Y-95499999D01*
X156004098Y-95399728D01*
X155995225Y-95370480D01*
X155974850Y-95303311D01*
X155927354Y-95214451D01*
X155863435Y-95136565D01*
X155843917Y-95120547D01*
X152734783Y-92011414D01*
X152785139Y-91889843D01*
X152836500Y-91631634D01*
X152836500Y-91368366D01*
X152785139Y-91110157D01*
X152684391Y-90866930D01*
X152538128Y-90648031D01*
X152351969Y-90461872D01*
X152133070Y-90315609D01*
X151974821Y-90250060D01*
X152070579Y-90106748D01*
X152246709Y-89681532D01*
X152336500Y-89230125D01*
X152336500Y-88769875D01*
X152246709Y-88318468D01*
X152070579Y-87893252D01*
X151974821Y-87749940D01*
X152133070Y-87684391D01*
X152351969Y-87538128D01*
X152538128Y-87351969D01*
X152684391Y-87133070D01*
X152785139Y-86889843D01*
X152836500Y-86631634D01*
X152836500Y-86368366D01*
X152789631Y-86132742D01*
X152866930Y-86184391D01*
X153110157Y-86285139D01*
X153368366Y-86336500D01*
X153631634Y-86336500D01*
X153889843Y-86285139D01*
X154133070Y-86184391D01*
X154351969Y-86038128D01*
X154538128Y-85851969D01*
X154684391Y-85633070D01*
X154785139Y-85389843D01*
X154836500Y-85131634D01*
X154836500Y-84868366D01*
X154785139Y-84610157D01*
X154684391Y-84366930D01*
X154538128Y-84148031D01*
X154351969Y-83961872D01*
X154133070Y-83815609D01*
X153889843Y-83714861D01*
X153631634Y-83663500D01*
X153368366Y-83663500D01*
X153110157Y-83714861D01*
X152866930Y-83815609D01*
X152648031Y-83961872D01*
X152461872Y-84148031D01*
X152315609Y-84366930D01*
X152214861Y-84610157D01*
X152163500Y-84868366D01*
X152163500Y-85131634D01*
X152210369Y-85367258D01*
X152133070Y-85315609D01*
X151889843Y-85214861D01*
X151631634Y-85163500D01*
X151368366Y-85163500D01*
X151110157Y-85214861D01*
X150866930Y-85315609D01*
X150648031Y-85461872D01*
X150461872Y-85648031D01*
X150315609Y-85866930D01*
X150214861Y-86110157D01*
X150163500Y-86368366D01*
X150163500Y-86631634D01*
X150169839Y-86663500D01*
X149830161Y-86663500D01*
X149836500Y-86631634D01*
X149836500Y-86368366D01*
X149785139Y-86110157D01*
X149684391Y-85866930D01*
X149538128Y-85648031D01*
X149351969Y-85461872D01*
X149133070Y-85315609D01*
X148889843Y-85214861D01*
X148631634Y-85163500D01*
X148368366Y-85163500D01*
X148110157Y-85214861D01*
X147866930Y-85315609D01*
X147789631Y-85367258D01*
X147836500Y-85131634D01*
X147836500Y-84868366D01*
X147785139Y-84610157D01*
X147684391Y-84366930D01*
X147538128Y-84148031D01*
X147351969Y-83961872D01*
X147133070Y-83815609D01*
X146889843Y-83714861D01*
X146631634Y-83663500D01*
X146368366Y-83663500D01*
X146110157Y-83714861D01*
X145866930Y-83815609D01*
X145648031Y-83961872D01*
X145461872Y-84148031D01*
X145315609Y-84366930D01*
X145214861Y-84610157D01*
X145163500Y-84868366D01*
X144642872Y-84868366D01*
X146149739Y-83361500D01*
X153850262Y-83361500D01*
X155638501Y-85149740D01*
G36*
X150265165Y-99985858D02*
G01*
X150251023Y-100000000D01*
X150265165Y-100014142D01*
X150014142Y-100265165D01*
X150000000Y-100251023D01*
X149985858Y-100265165D01*
X149734835Y-100014142D01*
X149748977Y-100000000D01*
X149734835Y-99985858D01*
X149985858Y-99734835D01*
X150000000Y-99748977D01*
X150014142Y-99734835D01*
X150265165Y-99985858D01*
G37*
X150265165Y-99985858D02*
X150251023Y-100000000D01*
X150265165Y-100014142D01*
X150014142Y-100265165D01*
X150000000Y-100251023D01*
X149985858Y-100265165D01*
X149734835Y-100014142D01*
X149748977Y-100000000D01*
X149734835Y-99985858D01*
X149985858Y-99734835D01*
X150000000Y-99748977D01*
X150014142Y-99734835D01*
X150265165Y-99985858D01*
M02*
