G04 #@! TF.GenerationSoftware,KiCad,Pcbnew,5.1.5-52549c5~84~ubuntu18.04.1*
G04 #@! TF.CreationDate,2020-04-20T00:33:06-07:00*
G04 #@! TF.ProjectId,somos_dielectrode_v2.0,736f6d6f-735f-4646-9965-6c656374726f,rev?*
G04 #@! TF.SameCoordinates,Original*
G04 #@! TF.FileFunction,Paste,Top*
G04 #@! TF.FilePolarity,Positive*
%FSLAX46Y46*%
G04 Gerber Fmt 4.6, Leading zero omitted, Abs format (unit mm)*
G04 Created by KiCad (PCBNEW 5.1.5-52549c5~84~ubuntu18.04.1) date 2020-04-20 00:33:06*
%MOMM*%
%LPD*%
G04 APERTURE LIST*
%ADD10C,0.100000*%
G04 APERTURE END LIST*
D10*
G36*
X154439703Y-101200722D02*
G01*
X154454264Y-101202882D01*
X154468543Y-101206459D01*
X154482403Y-101211418D01*
X154495710Y-101217712D01*
X154508336Y-101225280D01*
X154520159Y-101234048D01*
X154531066Y-101243934D01*
X154540952Y-101254841D01*
X154549720Y-101266664D01*
X154557288Y-101279290D01*
X154563582Y-101292597D01*
X154568541Y-101306457D01*
X154572118Y-101320736D01*
X154574278Y-101335297D01*
X154575000Y-101350000D01*
X154575000Y-101650000D01*
X154574278Y-101664703D01*
X154572118Y-101679264D01*
X154568541Y-101693543D01*
X154563582Y-101707403D01*
X154557288Y-101720710D01*
X154549720Y-101733336D01*
X154540952Y-101745159D01*
X154531066Y-101756066D01*
X154520159Y-101765952D01*
X154508336Y-101774720D01*
X154495710Y-101782288D01*
X154482403Y-101788582D01*
X154468543Y-101793541D01*
X154454264Y-101797118D01*
X154439703Y-101799278D01*
X154425000Y-101800000D01*
X153175000Y-101800000D01*
X153160297Y-101799278D01*
X153145736Y-101797118D01*
X153131457Y-101793541D01*
X153117597Y-101788582D01*
X153104290Y-101782288D01*
X153091664Y-101774720D01*
X153079841Y-101765952D01*
X153068934Y-101756066D01*
X153059048Y-101745159D01*
X153050280Y-101733336D01*
X153042712Y-101720710D01*
X153036418Y-101707403D01*
X153031459Y-101693543D01*
X153027882Y-101679264D01*
X153025722Y-101664703D01*
X153025000Y-101650000D01*
X153025000Y-101350000D01*
X153025722Y-101335297D01*
X153027882Y-101320736D01*
X153031459Y-101306457D01*
X153036418Y-101292597D01*
X153042712Y-101279290D01*
X153050280Y-101266664D01*
X153059048Y-101254841D01*
X153068934Y-101243934D01*
X153079841Y-101234048D01*
X153091664Y-101225280D01*
X153104290Y-101217712D01*
X153117597Y-101211418D01*
X153131457Y-101206459D01*
X153145736Y-101202882D01*
X153160297Y-101200722D01*
X153175000Y-101200000D01*
X154425000Y-101200000D01*
X154439703Y-101200722D01*
G37*
G36*
X154439703Y-100200722D02*
G01*
X154454264Y-100202882D01*
X154468543Y-100206459D01*
X154482403Y-100211418D01*
X154495710Y-100217712D01*
X154508336Y-100225280D01*
X154520159Y-100234048D01*
X154531066Y-100243934D01*
X154540952Y-100254841D01*
X154549720Y-100266664D01*
X154557288Y-100279290D01*
X154563582Y-100292597D01*
X154568541Y-100306457D01*
X154572118Y-100320736D01*
X154574278Y-100335297D01*
X154575000Y-100350000D01*
X154575000Y-100650000D01*
X154574278Y-100664703D01*
X154572118Y-100679264D01*
X154568541Y-100693543D01*
X154563582Y-100707403D01*
X154557288Y-100720710D01*
X154549720Y-100733336D01*
X154540952Y-100745159D01*
X154531066Y-100756066D01*
X154520159Y-100765952D01*
X154508336Y-100774720D01*
X154495710Y-100782288D01*
X154482403Y-100788582D01*
X154468543Y-100793541D01*
X154454264Y-100797118D01*
X154439703Y-100799278D01*
X154425000Y-100800000D01*
X153175000Y-100800000D01*
X153160297Y-100799278D01*
X153145736Y-100797118D01*
X153131457Y-100793541D01*
X153117597Y-100788582D01*
X153104290Y-100782288D01*
X153091664Y-100774720D01*
X153079841Y-100765952D01*
X153068934Y-100756066D01*
X153059048Y-100745159D01*
X153050280Y-100733336D01*
X153042712Y-100720710D01*
X153036418Y-100707403D01*
X153031459Y-100693543D01*
X153027882Y-100679264D01*
X153025722Y-100664703D01*
X153025000Y-100650000D01*
X153025000Y-100350000D01*
X153025722Y-100335297D01*
X153027882Y-100320736D01*
X153031459Y-100306457D01*
X153036418Y-100292597D01*
X153042712Y-100279290D01*
X153050280Y-100266664D01*
X153059048Y-100254841D01*
X153068934Y-100243934D01*
X153079841Y-100234048D01*
X153091664Y-100225280D01*
X153104290Y-100217712D01*
X153117597Y-100211418D01*
X153131457Y-100206459D01*
X153145736Y-100202882D01*
X153160297Y-100200722D01*
X153175000Y-100200000D01*
X154425000Y-100200000D01*
X154439703Y-100200722D01*
G37*
G36*
X154439703Y-99200722D02*
G01*
X154454264Y-99202882D01*
X154468543Y-99206459D01*
X154482403Y-99211418D01*
X154495710Y-99217712D01*
X154508336Y-99225280D01*
X154520159Y-99234048D01*
X154531066Y-99243934D01*
X154540952Y-99254841D01*
X154549720Y-99266664D01*
X154557288Y-99279290D01*
X154563582Y-99292597D01*
X154568541Y-99306457D01*
X154572118Y-99320736D01*
X154574278Y-99335297D01*
X154575000Y-99350000D01*
X154575000Y-99650000D01*
X154574278Y-99664703D01*
X154572118Y-99679264D01*
X154568541Y-99693543D01*
X154563582Y-99707403D01*
X154557288Y-99720710D01*
X154549720Y-99733336D01*
X154540952Y-99745159D01*
X154531066Y-99756066D01*
X154520159Y-99765952D01*
X154508336Y-99774720D01*
X154495710Y-99782288D01*
X154482403Y-99788582D01*
X154468543Y-99793541D01*
X154454264Y-99797118D01*
X154439703Y-99799278D01*
X154425000Y-99800000D01*
X153175000Y-99800000D01*
X153160297Y-99799278D01*
X153145736Y-99797118D01*
X153131457Y-99793541D01*
X153117597Y-99788582D01*
X153104290Y-99782288D01*
X153091664Y-99774720D01*
X153079841Y-99765952D01*
X153068934Y-99756066D01*
X153059048Y-99745159D01*
X153050280Y-99733336D01*
X153042712Y-99720710D01*
X153036418Y-99707403D01*
X153031459Y-99693543D01*
X153027882Y-99679264D01*
X153025722Y-99664703D01*
X153025000Y-99650000D01*
X153025000Y-99350000D01*
X153025722Y-99335297D01*
X153027882Y-99320736D01*
X153031459Y-99306457D01*
X153036418Y-99292597D01*
X153042712Y-99279290D01*
X153050280Y-99266664D01*
X153059048Y-99254841D01*
X153068934Y-99243934D01*
X153079841Y-99234048D01*
X153091664Y-99225280D01*
X153104290Y-99217712D01*
X153117597Y-99211418D01*
X153131457Y-99206459D01*
X153145736Y-99202882D01*
X153160297Y-99200722D01*
X153175000Y-99200000D01*
X154425000Y-99200000D01*
X154439703Y-99200722D01*
G37*
G36*
X154439703Y-98200722D02*
G01*
X154454264Y-98202882D01*
X154468543Y-98206459D01*
X154482403Y-98211418D01*
X154495710Y-98217712D01*
X154508336Y-98225280D01*
X154520159Y-98234048D01*
X154531066Y-98243934D01*
X154540952Y-98254841D01*
X154549720Y-98266664D01*
X154557288Y-98279290D01*
X154563582Y-98292597D01*
X154568541Y-98306457D01*
X154572118Y-98320736D01*
X154574278Y-98335297D01*
X154575000Y-98350000D01*
X154575000Y-98650000D01*
X154574278Y-98664703D01*
X154572118Y-98679264D01*
X154568541Y-98693543D01*
X154563582Y-98707403D01*
X154557288Y-98720710D01*
X154549720Y-98733336D01*
X154540952Y-98745159D01*
X154531066Y-98756066D01*
X154520159Y-98765952D01*
X154508336Y-98774720D01*
X154495710Y-98782288D01*
X154482403Y-98788582D01*
X154468543Y-98793541D01*
X154454264Y-98797118D01*
X154439703Y-98799278D01*
X154425000Y-98800000D01*
X153175000Y-98800000D01*
X153160297Y-98799278D01*
X153145736Y-98797118D01*
X153131457Y-98793541D01*
X153117597Y-98788582D01*
X153104290Y-98782288D01*
X153091664Y-98774720D01*
X153079841Y-98765952D01*
X153068934Y-98756066D01*
X153059048Y-98745159D01*
X153050280Y-98733336D01*
X153042712Y-98720710D01*
X153036418Y-98707403D01*
X153031459Y-98693543D01*
X153027882Y-98679264D01*
X153025722Y-98664703D01*
X153025000Y-98650000D01*
X153025000Y-98350000D01*
X153025722Y-98335297D01*
X153027882Y-98320736D01*
X153031459Y-98306457D01*
X153036418Y-98292597D01*
X153042712Y-98279290D01*
X153050280Y-98266664D01*
X153059048Y-98254841D01*
X153068934Y-98243934D01*
X153079841Y-98234048D01*
X153091664Y-98225280D01*
X153104290Y-98217712D01*
X153117597Y-98211418D01*
X153131457Y-98206459D01*
X153145736Y-98202882D01*
X153160297Y-98200722D01*
X153175000Y-98200000D01*
X154425000Y-98200000D01*
X154439703Y-98200722D01*
G37*
G36*
X158349865Y-102201202D02*
G01*
X158374095Y-102204796D01*
X158397855Y-102210748D01*
X158420918Y-102219000D01*
X158443061Y-102229472D01*
X158464070Y-102242065D01*
X158483745Y-102256657D01*
X158501894Y-102273106D01*
X158518343Y-102291255D01*
X158532935Y-102310930D01*
X158545528Y-102331939D01*
X158556000Y-102354082D01*
X158564252Y-102377145D01*
X158570204Y-102400905D01*
X158573798Y-102425135D01*
X158575000Y-102449600D01*
X158575000Y-103150400D01*
X158573798Y-103174865D01*
X158570204Y-103199095D01*
X158564252Y-103222855D01*
X158556000Y-103245918D01*
X158545528Y-103268061D01*
X158532935Y-103289070D01*
X158518343Y-103308745D01*
X158501894Y-103326894D01*
X158483745Y-103343343D01*
X158464070Y-103357935D01*
X158443061Y-103370528D01*
X158420918Y-103381000D01*
X158397855Y-103389252D01*
X158374095Y-103395204D01*
X158349865Y-103398798D01*
X158325400Y-103400000D01*
X157024600Y-103400000D01*
X157000135Y-103398798D01*
X156975905Y-103395204D01*
X156952145Y-103389252D01*
X156929082Y-103381000D01*
X156906939Y-103370528D01*
X156885930Y-103357935D01*
X156866255Y-103343343D01*
X156848106Y-103326894D01*
X156831657Y-103308745D01*
X156817065Y-103289070D01*
X156804472Y-103268061D01*
X156794000Y-103245918D01*
X156785748Y-103222855D01*
X156779796Y-103199095D01*
X156776202Y-103174865D01*
X156775000Y-103150400D01*
X156775000Y-102449600D01*
X156776202Y-102425135D01*
X156779796Y-102400905D01*
X156785748Y-102377145D01*
X156794000Y-102354082D01*
X156804472Y-102331939D01*
X156817065Y-102310930D01*
X156831657Y-102291255D01*
X156848106Y-102273106D01*
X156866255Y-102256657D01*
X156885930Y-102242065D01*
X156906939Y-102229472D01*
X156929082Y-102219000D01*
X156952145Y-102210748D01*
X156975905Y-102204796D01*
X157000135Y-102201202D01*
X157024600Y-102200000D01*
X158325400Y-102200000D01*
X158349865Y-102201202D01*
G37*
G36*
X158349505Y-96601204D02*
G01*
X158373773Y-96604804D01*
X158397572Y-96610765D01*
X158420671Y-96619030D01*
X158442850Y-96629520D01*
X158463893Y-96642132D01*
X158483599Y-96656747D01*
X158501777Y-96673223D01*
X158518253Y-96691401D01*
X158532868Y-96711107D01*
X158545480Y-96732150D01*
X158555970Y-96754329D01*
X158564235Y-96777428D01*
X158570196Y-96801227D01*
X158573796Y-96825495D01*
X158575000Y-96849999D01*
X158575000Y-97550001D01*
X158573796Y-97574505D01*
X158570196Y-97598773D01*
X158564235Y-97622572D01*
X158555970Y-97645671D01*
X158545480Y-97667850D01*
X158532868Y-97688893D01*
X158518253Y-97708599D01*
X158501777Y-97726777D01*
X158483599Y-97743253D01*
X158463893Y-97757868D01*
X158442850Y-97770480D01*
X158420671Y-97780970D01*
X158397572Y-97789235D01*
X158373773Y-97795196D01*
X158349505Y-97798796D01*
X158325001Y-97800000D01*
X157024999Y-97800000D01*
X157000495Y-97798796D01*
X156976227Y-97795196D01*
X156952428Y-97789235D01*
X156929329Y-97780970D01*
X156907150Y-97770480D01*
X156886107Y-97757868D01*
X156866401Y-97743253D01*
X156848223Y-97726777D01*
X156831747Y-97708599D01*
X156817132Y-97688893D01*
X156804520Y-97667850D01*
X156794030Y-97645671D01*
X156785765Y-97622572D01*
X156779804Y-97598773D01*
X156776204Y-97574505D01*
X156775000Y-97550001D01*
X156775000Y-96849999D01*
X156776204Y-96825495D01*
X156779804Y-96801227D01*
X156785765Y-96777428D01*
X156794030Y-96754329D01*
X156804520Y-96732150D01*
X156817132Y-96711107D01*
X156831747Y-96691401D01*
X156848223Y-96673223D01*
X156866401Y-96656747D01*
X156886107Y-96642132D01*
X156907150Y-96629520D01*
X156929329Y-96619030D01*
X156952428Y-96610765D01*
X156976227Y-96604804D01*
X157000495Y-96601204D01*
X157024999Y-96600000D01*
X158325001Y-96600000D01*
X158349505Y-96601204D01*
G37*
G36*
X154599865Y-102201202D02*
G01*
X154624095Y-102204796D01*
X154647855Y-102210748D01*
X154670918Y-102219000D01*
X154693061Y-102229472D01*
X154714070Y-102242065D01*
X154733745Y-102256657D01*
X154751894Y-102273106D01*
X154768343Y-102291255D01*
X154782935Y-102310930D01*
X154795528Y-102331939D01*
X154806000Y-102354082D01*
X154814252Y-102377145D01*
X154820204Y-102400905D01*
X154823798Y-102425135D01*
X154825000Y-102449600D01*
X154825000Y-103150400D01*
X154823798Y-103174865D01*
X154820204Y-103199095D01*
X154814252Y-103222855D01*
X154806000Y-103245918D01*
X154795528Y-103268061D01*
X154782935Y-103289070D01*
X154768343Y-103308745D01*
X154751894Y-103326894D01*
X154733745Y-103343343D01*
X154714070Y-103357935D01*
X154693061Y-103370528D01*
X154670918Y-103381000D01*
X154647855Y-103389252D01*
X154624095Y-103395204D01*
X154599865Y-103398798D01*
X154575400Y-103400000D01*
X153274600Y-103400000D01*
X153250135Y-103398798D01*
X153225905Y-103395204D01*
X153202145Y-103389252D01*
X153179082Y-103381000D01*
X153156939Y-103370528D01*
X153135930Y-103357935D01*
X153116255Y-103343343D01*
X153098106Y-103326894D01*
X153081657Y-103308745D01*
X153067065Y-103289070D01*
X153054472Y-103268061D01*
X153044000Y-103245918D01*
X153035748Y-103222855D01*
X153029796Y-103199095D01*
X153026202Y-103174865D01*
X153025000Y-103150400D01*
X153025000Y-102449600D01*
X153026202Y-102425135D01*
X153029796Y-102400905D01*
X153035748Y-102377145D01*
X153044000Y-102354082D01*
X153054472Y-102331939D01*
X153067065Y-102310930D01*
X153081657Y-102291255D01*
X153098106Y-102273106D01*
X153116255Y-102256657D01*
X153135930Y-102242065D01*
X153156939Y-102229472D01*
X153179082Y-102219000D01*
X153202145Y-102210748D01*
X153225905Y-102204796D01*
X153250135Y-102201202D01*
X153274600Y-102200000D01*
X154575400Y-102200000D01*
X154599865Y-102201202D01*
G37*
G36*
X154599865Y-96601202D02*
G01*
X154624095Y-96604796D01*
X154647855Y-96610748D01*
X154670918Y-96619000D01*
X154693061Y-96629472D01*
X154714070Y-96642065D01*
X154733745Y-96656657D01*
X154751894Y-96673106D01*
X154768343Y-96691255D01*
X154782935Y-96710930D01*
X154795528Y-96731939D01*
X154806000Y-96754082D01*
X154814252Y-96777145D01*
X154820204Y-96800905D01*
X154823798Y-96825135D01*
X154825000Y-96849600D01*
X154825000Y-97550400D01*
X154823798Y-97574865D01*
X154820204Y-97599095D01*
X154814252Y-97622855D01*
X154806000Y-97645918D01*
X154795528Y-97668061D01*
X154782935Y-97689070D01*
X154768343Y-97708745D01*
X154751894Y-97726894D01*
X154733745Y-97743343D01*
X154714070Y-97757935D01*
X154693061Y-97770528D01*
X154670918Y-97781000D01*
X154647855Y-97789252D01*
X154624095Y-97795204D01*
X154599865Y-97798798D01*
X154575400Y-97800000D01*
X153274600Y-97800000D01*
X153250135Y-97798798D01*
X153225905Y-97795204D01*
X153202145Y-97789252D01*
X153179082Y-97781000D01*
X153156939Y-97770528D01*
X153135930Y-97757935D01*
X153116255Y-97743343D01*
X153098106Y-97726894D01*
X153081657Y-97708745D01*
X153067065Y-97689070D01*
X153054472Y-97668061D01*
X153044000Y-97645918D01*
X153035748Y-97622855D01*
X153029796Y-97599095D01*
X153026202Y-97574865D01*
X153025000Y-97550400D01*
X153025000Y-96849600D01*
X153026202Y-96825135D01*
X153029796Y-96800905D01*
X153035748Y-96777145D01*
X153044000Y-96754082D01*
X153054472Y-96731939D01*
X153067065Y-96710930D01*
X153081657Y-96691255D01*
X153098106Y-96673106D01*
X153116255Y-96656657D01*
X153135930Y-96642065D01*
X153156939Y-96629472D01*
X153179082Y-96619000D01*
X153202145Y-96610748D01*
X153225905Y-96604796D01*
X153250135Y-96601202D01*
X153274600Y-96600000D01*
X154575400Y-96600000D01*
X154599865Y-96601202D01*
G37*
G36*
X158439703Y-101200722D02*
G01*
X158454264Y-101202882D01*
X158468543Y-101206459D01*
X158482403Y-101211418D01*
X158495710Y-101217712D01*
X158508336Y-101225280D01*
X158520159Y-101234048D01*
X158531066Y-101243934D01*
X158540952Y-101254841D01*
X158549720Y-101266664D01*
X158557288Y-101279290D01*
X158563582Y-101292597D01*
X158568541Y-101306457D01*
X158572118Y-101320736D01*
X158574278Y-101335297D01*
X158575000Y-101350000D01*
X158575000Y-101650000D01*
X158574278Y-101664703D01*
X158572118Y-101679264D01*
X158568541Y-101693543D01*
X158563582Y-101707403D01*
X158557288Y-101720710D01*
X158549720Y-101733336D01*
X158540952Y-101745159D01*
X158531066Y-101756066D01*
X158520159Y-101765952D01*
X158508336Y-101774720D01*
X158495710Y-101782288D01*
X158482403Y-101788582D01*
X158468543Y-101793541D01*
X158454264Y-101797118D01*
X158439703Y-101799278D01*
X158425000Y-101800000D01*
X157175000Y-101800000D01*
X157160297Y-101799278D01*
X157145736Y-101797118D01*
X157131457Y-101793541D01*
X157117597Y-101788582D01*
X157104290Y-101782288D01*
X157091664Y-101774720D01*
X157079841Y-101765952D01*
X157068934Y-101756066D01*
X157059048Y-101745159D01*
X157050280Y-101733336D01*
X157042712Y-101720710D01*
X157036418Y-101707403D01*
X157031459Y-101693543D01*
X157027882Y-101679264D01*
X157025722Y-101664703D01*
X157025000Y-101650000D01*
X157025000Y-101350000D01*
X157025722Y-101335297D01*
X157027882Y-101320736D01*
X157031459Y-101306457D01*
X157036418Y-101292597D01*
X157042712Y-101279290D01*
X157050280Y-101266664D01*
X157059048Y-101254841D01*
X157068934Y-101243934D01*
X157079841Y-101234048D01*
X157091664Y-101225280D01*
X157104290Y-101217712D01*
X157117597Y-101211418D01*
X157131457Y-101206459D01*
X157145736Y-101202882D01*
X157160297Y-101200722D01*
X157175000Y-101200000D01*
X158425000Y-101200000D01*
X158439703Y-101200722D01*
G37*
G36*
X158439703Y-100200722D02*
G01*
X158454264Y-100202882D01*
X158468543Y-100206459D01*
X158482403Y-100211418D01*
X158495710Y-100217712D01*
X158508336Y-100225280D01*
X158520159Y-100234048D01*
X158531066Y-100243934D01*
X158540952Y-100254841D01*
X158549720Y-100266664D01*
X158557288Y-100279290D01*
X158563582Y-100292597D01*
X158568541Y-100306457D01*
X158572118Y-100320736D01*
X158574278Y-100335297D01*
X158575000Y-100350000D01*
X158575000Y-100650000D01*
X158574278Y-100664703D01*
X158572118Y-100679264D01*
X158568541Y-100693543D01*
X158563582Y-100707403D01*
X158557288Y-100720710D01*
X158549720Y-100733336D01*
X158540952Y-100745159D01*
X158531066Y-100756066D01*
X158520159Y-100765952D01*
X158508336Y-100774720D01*
X158495710Y-100782288D01*
X158482403Y-100788582D01*
X158468543Y-100793541D01*
X158454264Y-100797118D01*
X158439703Y-100799278D01*
X158425000Y-100800000D01*
X157175000Y-100800000D01*
X157160297Y-100799278D01*
X157145736Y-100797118D01*
X157131457Y-100793541D01*
X157117597Y-100788582D01*
X157104290Y-100782288D01*
X157091664Y-100774720D01*
X157079841Y-100765952D01*
X157068934Y-100756066D01*
X157059048Y-100745159D01*
X157050280Y-100733336D01*
X157042712Y-100720710D01*
X157036418Y-100707403D01*
X157031459Y-100693543D01*
X157027882Y-100679264D01*
X157025722Y-100664703D01*
X157025000Y-100650000D01*
X157025000Y-100350000D01*
X157025722Y-100335297D01*
X157027882Y-100320736D01*
X157031459Y-100306457D01*
X157036418Y-100292597D01*
X157042712Y-100279290D01*
X157050280Y-100266664D01*
X157059048Y-100254841D01*
X157068934Y-100243934D01*
X157079841Y-100234048D01*
X157091664Y-100225280D01*
X157104290Y-100217712D01*
X157117597Y-100211418D01*
X157131457Y-100206459D01*
X157145736Y-100202882D01*
X157160297Y-100200722D01*
X157175000Y-100200000D01*
X158425000Y-100200000D01*
X158439703Y-100200722D01*
G37*
G36*
X158439703Y-99200722D02*
G01*
X158454264Y-99202882D01*
X158468543Y-99206459D01*
X158482403Y-99211418D01*
X158495710Y-99217712D01*
X158508336Y-99225280D01*
X158520159Y-99234048D01*
X158531066Y-99243934D01*
X158540952Y-99254841D01*
X158549720Y-99266664D01*
X158557288Y-99279290D01*
X158563582Y-99292597D01*
X158568541Y-99306457D01*
X158572118Y-99320736D01*
X158574278Y-99335297D01*
X158575000Y-99350000D01*
X158575000Y-99650000D01*
X158574278Y-99664703D01*
X158572118Y-99679264D01*
X158568541Y-99693543D01*
X158563582Y-99707403D01*
X158557288Y-99720710D01*
X158549720Y-99733336D01*
X158540952Y-99745159D01*
X158531066Y-99756066D01*
X158520159Y-99765952D01*
X158508336Y-99774720D01*
X158495710Y-99782288D01*
X158482403Y-99788582D01*
X158468543Y-99793541D01*
X158454264Y-99797118D01*
X158439703Y-99799278D01*
X158425000Y-99800000D01*
X157175000Y-99800000D01*
X157160297Y-99799278D01*
X157145736Y-99797118D01*
X157131457Y-99793541D01*
X157117597Y-99788582D01*
X157104290Y-99782288D01*
X157091664Y-99774720D01*
X157079841Y-99765952D01*
X157068934Y-99756066D01*
X157059048Y-99745159D01*
X157050280Y-99733336D01*
X157042712Y-99720710D01*
X157036418Y-99707403D01*
X157031459Y-99693543D01*
X157027882Y-99679264D01*
X157025722Y-99664703D01*
X157025000Y-99650000D01*
X157025000Y-99350000D01*
X157025722Y-99335297D01*
X157027882Y-99320736D01*
X157031459Y-99306457D01*
X157036418Y-99292597D01*
X157042712Y-99279290D01*
X157050280Y-99266664D01*
X157059048Y-99254841D01*
X157068934Y-99243934D01*
X157079841Y-99234048D01*
X157091664Y-99225280D01*
X157104290Y-99217712D01*
X157117597Y-99211418D01*
X157131457Y-99206459D01*
X157145736Y-99202882D01*
X157160297Y-99200722D01*
X157175000Y-99200000D01*
X158425000Y-99200000D01*
X158439703Y-99200722D01*
G37*
G36*
X158439703Y-98200722D02*
G01*
X158454264Y-98202882D01*
X158468543Y-98206459D01*
X158482403Y-98211418D01*
X158495710Y-98217712D01*
X158508336Y-98225280D01*
X158520159Y-98234048D01*
X158531066Y-98243934D01*
X158540952Y-98254841D01*
X158549720Y-98266664D01*
X158557288Y-98279290D01*
X158563582Y-98292597D01*
X158568541Y-98306457D01*
X158572118Y-98320736D01*
X158574278Y-98335297D01*
X158575000Y-98350000D01*
X158575000Y-98650000D01*
X158574278Y-98664703D01*
X158572118Y-98679264D01*
X158568541Y-98693543D01*
X158563582Y-98707403D01*
X158557288Y-98720710D01*
X158549720Y-98733336D01*
X158540952Y-98745159D01*
X158531066Y-98756066D01*
X158520159Y-98765952D01*
X158508336Y-98774720D01*
X158495710Y-98782288D01*
X158482403Y-98788582D01*
X158468543Y-98793541D01*
X158454264Y-98797118D01*
X158439703Y-98799278D01*
X158425000Y-98800000D01*
X157175000Y-98800000D01*
X157160297Y-98799278D01*
X157145736Y-98797118D01*
X157131457Y-98793541D01*
X157117597Y-98788582D01*
X157104290Y-98782288D01*
X157091664Y-98774720D01*
X157079841Y-98765952D01*
X157068934Y-98756066D01*
X157059048Y-98745159D01*
X157050280Y-98733336D01*
X157042712Y-98720710D01*
X157036418Y-98707403D01*
X157031459Y-98693543D01*
X157027882Y-98679264D01*
X157025722Y-98664703D01*
X157025000Y-98650000D01*
X157025000Y-98350000D01*
X157025722Y-98335297D01*
X157027882Y-98320736D01*
X157031459Y-98306457D01*
X157036418Y-98292597D01*
X157042712Y-98279290D01*
X157050280Y-98266664D01*
X157059048Y-98254841D01*
X157068934Y-98243934D01*
X157079841Y-98234048D01*
X157091664Y-98225280D01*
X157104290Y-98217712D01*
X157117597Y-98211418D01*
X157131457Y-98206459D01*
X157145736Y-98202882D01*
X157160297Y-98200722D01*
X157175000Y-98200000D01*
X158425000Y-98200000D01*
X158439703Y-98200722D01*
G37*
M02*
