G04 #@! TF.GenerationSoftware,KiCad,Pcbnew,5.1.5-52549c5~84~ubuntu18.04.1*
G04 #@! TF.CreationDate,2020-04-20T00:33:06-07:00*
G04 #@! TF.ProjectId,somos_dielectrode_v2.0,736f6d6f-735f-4646-9965-6c656374726f,rev?*
G04 #@! TF.SameCoordinates,Original*
G04 #@! TF.FileFunction,Legend,Top*
G04 #@! TF.FilePolarity,Positive*
%FSLAX46Y46*%
G04 Gerber Fmt 4.6, Leading zero omitted, Abs format (unit mm)*
G04 Created by KiCad (PCBNEW 5.1.5-52549c5~84~ubuntu18.04.1) date 2020-04-20 00:33:06*
%MOMM*%
%LPD*%
G04 APERTURE LIST*
%ADD10C,0.120000*%
%ADD11C,0.125000*%
%ADD12C,0.150000*%
G04 APERTURE END LIST*
D10*
X156300000Y-103110000D02*
X155300000Y-103110000D01*
X156300000Y-96890000D02*
X155300000Y-96890000D01*
D11*
X149726190Y-107380952D02*
X150130952Y-107380952D01*
X150178571Y-107357142D01*
X150202380Y-107333333D01*
X150226190Y-107285714D01*
X150226190Y-107190476D01*
X150202380Y-107142857D01*
X150178571Y-107119047D01*
X150130952Y-107095238D01*
X149726190Y-107095238D01*
X150226190Y-106595238D02*
X150226190Y-106880952D01*
X150226190Y-106738095D02*
X149726190Y-106738095D01*
X149797619Y-106785714D01*
X149845238Y-106833333D01*
X149869047Y-106880952D01*
X152476190Y-100380952D02*
X152880952Y-100380952D01*
X152928571Y-100357142D01*
X152952380Y-100333333D01*
X152976190Y-100285714D01*
X152976190Y-100190476D01*
X152952380Y-100142857D01*
X152928571Y-100119047D01*
X152880952Y-100095238D01*
X152476190Y-100095238D01*
X152523809Y-99880952D02*
X152500000Y-99857142D01*
X152476190Y-99809523D01*
X152476190Y-99690476D01*
X152500000Y-99642857D01*
X152523809Y-99619047D01*
X152571428Y-99595238D01*
X152619047Y-99595238D01*
X152690476Y-99619047D01*
X152976190Y-99904761D01*
X152976190Y-99595238D01*
X149726190Y-93380952D02*
X150130952Y-93380952D01*
X150178571Y-93357142D01*
X150202380Y-93333333D01*
X150226190Y-93285714D01*
X150226190Y-93190476D01*
X150202380Y-93142857D01*
X150178571Y-93119047D01*
X150130952Y-93095238D01*
X149726190Y-93095238D01*
X149726190Y-92904761D02*
X149726190Y-92595238D01*
X149916666Y-92761904D01*
X149916666Y-92690476D01*
X149940476Y-92642857D01*
X149964285Y-92619047D01*
X150011904Y-92595238D01*
X150130952Y-92595238D01*
X150178571Y-92619047D01*
X150202380Y-92642857D01*
X150226190Y-92690476D01*
X150226190Y-92833333D01*
X150202380Y-92880952D01*
X150178571Y-92904761D01*
D12*
X155252380Y-100333333D02*
X155966666Y-100333333D01*
X156109523Y-100380952D01*
X156204761Y-100476190D01*
X156252380Y-100619047D01*
X156252380Y-100714285D01*
X156252380Y-99333333D02*
X156252380Y-99904761D01*
X156252380Y-99619047D02*
X155252380Y-99619047D01*
X155395238Y-99714285D01*
X155490476Y-99809523D01*
X155538095Y-99904761D01*
M02*
