G04 #@! TF.GenerationSoftware,KiCad,Pcbnew,5.1.5-52549c5~84~ubuntu18.04.1*
G04 #@! TF.CreationDate,2020-04-20T00:33:06-07:00*
G04 #@! TF.ProjectId,somos_dielectrode_v2.0,736f6d6f-735f-4646-9965-6c656374726f,rev?*
G04 #@! TF.SameCoordinates,Original*
G04 #@! TF.FileFunction,Copper,L1,Top*
G04 #@! TF.FilePolarity,Positive*
%FSLAX46Y46*%
G04 Gerber Fmt 4.6, Leading zero omitted, Abs format (unit mm)*
G04 Created by KiCad (PCBNEW 5.1.5-52549c5~84~ubuntu18.04.1) date 2020-04-20 00:33:06*
%MOMM*%
%LPD*%
G04 APERTURE LIST*
%ADD10C,2.000000*%
%ADD11C,4.000000*%
%ADD12C,0.100000*%
%ADD13C,0.800000*%
%ADD14C,0.350000*%
%ADD15C,0.153000*%
G04 APERTURE END LIST*
D10*
X153500000Y-115000000D03*
X146500000Y-115000000D03*
X153500000Y-85000000D03*
X146500000Y-85000000D03*
D11*
X150000000Y-111000000D03*
D10*
X148500000Y-113500000D03*
X148500000Y-108500000D03*
X151500000Y-108500000D03*
X151500000Y-113500000D03*
D11*
X150000000Y-100000000D03*
D10*
X151500000Y-97500000D03*
X151500000Y-102500000D03*
X148500000Y-102500000D03*
X148500000Y-97500000D03*
X151500000Y-91500000D03*
X151500000Y-86500000D03*
X148500000Y-86500000D03*
X148500000Y-91500000D03*
D11*
X150000000Y-89000000D03*
G04 #@! TA.AperFunction,SMDPad,CuDef*
D12*
G36*
X154439703Y-101200722D02*
G01*
X154454264Y-101202882D01*
X154468543Y-101206459D01*
X154482403Y-101211418D01*
X154495710Y-101217712D01*
X154508336Y-101225280D01*
X154520159Y-101234048D01*
X154531066Y-101243934D01*
X154540952Y-101254841D01*
X154549720Y-101266664D01*
X154557288Y-101279290D01*
X154563582Y-101292597D01*
X154568541Y-101306457D01*
X154572118Y-101320736D01*
X154574278Y-101335297D01*
X154575000Y-101350000D01*
X154575000Y-101650000D01*
X154574278Y-101664703D01*
X154572118Y-101679264D01*
X154568541Y-101693543D01*
X154563582Y-101707403D01*
X154557288Y-101720710D01*
X154549720Y-101733336D01*
X154540952Y-101745159D01*
X154531066Y-101756066D01*
X154520159Y-101765952D01*
X154508336Y-101774720D01*
X154495710Y-101782288D01*
X154482403Y-101788582D01*
X154468543Y-101793541D01*
X154454264Y-101797118D01*
X154439703Y-101799278D01*
X154425000Y-101800000D01*
X153175000Y-101800000D01*
X153160297Y-101799278D01*
X153145736Y-101797118D01*
X153131457Y-101793541D01*
X153117597Y-101788582D01*
X153104290Y-101782288D01*
X153091664Y-101774720D01*
X153079841Y-101765952D01*
X153068934Y-101756066D01*
X153059048Y-101745159D01*
X153050280Y-101733336D01*
X153042712Y-101720710D01*
X153036418Y-101707403D01*
X153031459Y-101693543D01*
X153027882Y-101679264D01*
X153025722Y-101664703D01*
X153025000Y-101650000D01*
X153025000Y-101350000D01*
X153025722Y-101335297D01*
X153027882Y-101320736D01*
X153031459Y-101306457D01*
X153036418Y-101292597D01*
X153042712Y-101279290D01*
X153050280Y-101266664D01*
X153059048Y-101254841D01*
X153068934Y-101243934D01*
X153079841Y-101234048D01*
X153091664Y-101225280D01*
X153104290Y-101217712D01*
X153117597Y-101211418D01*
X153131457Y-101206459D01*
X153145736Y-101202882D01*
X153160297Y-101200722D01*
X153175000Y-101200000D01*
X154425000Y-101200000D01*
X154439703Y-101200722D01*
G37*
G04 #@! TD.AperFunction*
G04 #@! TA.AperFunction,SMDPad,CuDef*
G36*
X154439703Y-100200722D02*
G01*
X154454264Y-100202882D01*
X154468543Y-100206459D01*
X154482403Y-100211418D01*
X154495710Y-100217712D01*
X154508336Y-100225280D01*
X154520159Y-100234048D01*
X154531066Y-100243934D01*
X154540952Y-100254841D01*
X154549720Y-100266664D01*
X154557288Y-100279290D01*
X154563582Y-100292597D01*
X154568541Y-100306457D01*
X154572118Y-100320736D01*
X154574278Y-100335297D01*
X154575000Y-100350000D01*
X154575000Y-100650000D01*
X154574278Y-100664703D01*
X154572118Y-100679264D01*
X154568541Y-100693543D01*
X154563582Y-100707403D01*
X154557288Y-100720710D01*
X154549720Y-100733336D01*
X154540952Y-100745159D01*
X154531066Y-100756066D01*
X154520159Y-100765952D01*
X154508336Y-100774720D01*
X154495710Y-100782288D01*
X154482403Y-100788582D01*
X154468543Y-100793541D01*
X154454264Y-100797118D01*
X154439703Y-100799278D01*
X154425000Y-100800000D01*
X153175000Y-100800000D01*
X153160297Y-100799278D01*
X153145736Y-100797118D01*
X153131457Y-100793541D01*
X153117597Y-100788582D01*
X153104290Y-100782288D01*
X153091664Y-100774720D01*
X153079841Y-100765952D01*
X153068934Y-100756066D01*
X153059048Y-100745159D01*
X153050280Y-100733336D01*
X153042712Y-100720710D01*
X153036418Y-100707403D01*
X153031459Y-100693543D01*
X153027882Y-100679264D01*
X153025722Y-100664703D01*
X153025000Y-100650000D01*
X153025000Y-100350000D01*
X153025722Y-100335297D01*
X153027882Y-100320736D01*
X153031459Y-100306457D01*
X153036418Y-100292597D01*
X153042712Y-100279290D01*
X153050280Y-100266664D01*
X153059048Y-100254841D01*
X153068934Y-100243934D01*
X153079841Y-100234048D01*
X153091664Y-100225280D01*
X153104290Y-100217712D01*
X153117597Y-100211418D01*
X153131457Y-100206459D01*
X153145736Y-100202882D01*
X153160297Y-100200722D01*
X153175000Y-100200000D01*
X154425000Y-100200000D01*
X154439703Y-100200722D01*
G37*
G04 #@! TD.AperFunction*
G04 #@! TA.AperFunction,SMDPad,CuDef*
G36*
X154439703Y-99200722D02*
G01*
X154454264Y-99202882D01*
X154468543Y-99206459D01*
X154482403Y-99211418D01*
X154495710Y-99217712D01*
X154508336Y-99225280D01*
X154520159Y-99234048D01*
X154531066Y-99243934D01*
X154540952Y-99254841D01*
X154549720Y-99266664D01*
X154557288Y-99279290D01*
X154563582Y-99292597D01*
X154568541Y-99306457D01*
X154572118Y-99320736D01*
X154574278Y-99335297D01*
X154575000Y-99350000D01*
X154575000Y-99650000D01*
X154574278Y-99664703D01*
X154572118Y-99679264D01*
X154568541Y-99693543D01*
X154563582Y-99707403D01*
X154557288Y-99720710D01*
X154549720Y-99733336D01*
X154540952Y-99745159D01*
X154531066Y-99756066D01*
X154520159Y-99765952D01*
X154508336Y-99774720D01*
X154495710Y-99782288D01*
X154482403Y-99788582D01*
X154468543Y-99793541D01*
X154454264Y-99797118D01*
X154439703Y-99799278D01*
X154425000Y-99800000D01*
X153175000Y-99800000D01*
X153160297Y-99799278D01*
X153145736Y-99797118D01*
X153131457Y-99793541D01*
X153117597Y-99788582D01*
X153104290Y-99782288D01*
X153091664Y-99774720D01*
X153079841Y-99765952D01*
X153068934Y-99756066D01*
X153059048Y-99745159D01*
X153050280Y-99733336D01*
X153042712Y-99720710D01*
X153036418Y-99707403D01*
X153031459Y-99693543D01*
X153027882Y-99679264D01*
X153025722Y-99664703D01*
X153025000Y-99650000D01*
X153025000Y-99350000D01*
X153025722Y-99335297D01*
X153027882Y-99320736D01*
X153031459Y-99306457D01*
X153036418Y-99292597D01*
X153042712Y-99279290D01*
X153050280Y-99266664D01*
X153059048Y-99254841D01*
X153068934Y-99243934D01*
X153079841Y-99234048D01*
X153091664Y-99225280D01*
X153104290Y-99217712D01*
X153117597Y-99211418D01*
X153131457Y-99206459D01*
X153145736Y-99202882D01*
X153160297Y-99200722D01*
X153175000Y-99200000D01*
X154425000Y-99200000D01*
X154439703Y-99200722D01*
G37*
G04 #@! TD.AperFunction*
G04 #@! TA.AperFunction,SMDPad,CuDef*
G36*
X154439703Y-98200722D02*
G01*
X154454264Y-98202882D01*
X154468543Y-98206459D01*
X154482403Y-98211418D01*
X154495710Y-98217712D01*
X154508336Y-98225280D01*
X154520159Y-98234048D01*
X154531066Y-98243934D01*
X154540952Y-98254841D01*
X154549720Y-98266664D01*
X154557288Y-98279290D01*
X154563582Y-98292597D01*
X154568541Y-98306457D01*
X154572118Y-98320736D01*
X154574278Y-98335297D01*
X154575000Y-98350000D01*
X154575000Y-98650000D01*
X154574278Y-98664703D01*
X154572118Y-98679264D01*
X154568541Y-98693543D01*
X154563582Y-98707403D01*
X154557288Y-98720710D01*
X154549720Y-98733336D01*
X154540952Y-98745159D01*
X154531066Y-98756066D01*
X154520159Y-98765952D01*
X154508336Y-98774720D01*
X154495710Y-98782288D01*
X154482403Y-98788582D01*
X154468543Y-98793541D01*
X154454264Y-98797118D01*
X154439703Y-98799278D01*
X154425000Y-98800000D01*
X153175000Y-98800000D01*
X153160297Y-98799278D01*
X153145736Y-98797118D01*
X153131457Y-98793541D01*
X153117597Y-98788582D01*
X153104290Y-98782288D01*
X153091664Y-98774720D01*
X153079841Y-98765952D01*
X153068934Y-98756066D01*
X153059048Y-98745159D01*
X153050280Y-98733336D01*
X153042712Y-98720710D01*
X153036418Y-98707403D01*
X153031459Y-98693543D01*
X153027882Y-98679264D01*
X153025722Y-98664703D01*
X153025000Y-98650000D01*
X153025000Y-98350000D01*
X153025722Y-98335297D01*
X153027882Y-98320736D01*
X153031459Y-98306457D01*
X153036418Y-98292597D01*
X153042712Y-98279290D01*
X153050280Y-98266664D01*
X153059048Y-98254841D01*
X153068934Y-98243934D01*
X153079841Y-98234048D01*
X153091664Y-98225280D01*
X153104290Y-98217712D01*
X153117597Y-98211418D01*
X153131457Y-98206459D01*
X153145736Y-98202882D01*
X153160297Y-98200722D01*
X153175000Y-98200000D01*
X154425000Y-98200000D01*
X154439703Y-98200722D01*
G37*
G04 #@! TD.AperFunction*
G04 #@! TA.AperFunction,SMDPad,CuDef*
G36*
X158349865Y-102201202D02*
G01*
X158374095Y-102204796D01*
X158397855Y-102210748D01*
X158420918Y-102219000D01*
X158443061Y-102229472D01*
X158464070Y-102242065D01*
X158483745Y-102256657D01*
X158501894Y-102273106D01*
X158518343Y-102291255D01*
X158532935Y-102310930D01*
X158545528Y-102331939D01*
X158556000Y-102354082D01*
X158564252Y-102377145D01*
X158570204Y-102400905D01*
X158573798Y-102425135D01*
X158575000Y-102449600D01*
X158575000Y-103150400D01*
X158573798Y-103174865D01*
X158570204Y-103199095D01*
X158564252Y-103222855D01*
X158556000Y-103245918D01*
X158545528Y-103268061D01*
X158532935Y-103289070D01*
X158518343Y-103308745D01*
X158501894Y-103326894D01*
X158483745Y-103343343D01*
X158464070Y-103357935D01*
X158443061Y-103370528D01*
X158420918Y-103381000D01*
X158397855Y-103389252D01*
X158374095Y-103395204D01*
X158349865Y-103398798D01*
X158325400Y-103400000D01*
X157024600Y-103400000D01*
X157000135Y-103398798D01*
X156975905Y-103395204D01*
X156952145Y-103389252D01*
X156929082Y-103381000D01*
X156906939Y-103370528D01*
X156885930Y-103357935D01*
X156866255Y-103343343D01*
X156848106Y-103326894D01*
X156831657Y-103308745D01*
X156817065Y-103289070D01*
X156804472Y-103268061D01*
X156794000Y-103245918D01*
X156785748Y-103222855D01*
X156779796Y-103199095D01*
X156776202Y-103174865D01*
X156775000Y-103150400D01*
X156775000Y-102449600D01*
X156776202Y-102425135D01*
X156779796Y-102400905D01*
X156785748Y-102377145D01*
X156794000Y-102354082D01*
X156804472Y-102331939D01*
X156817065Y-102310930D01*
X156831657Y-102291255D01*
X156848106Y-102273106D01*
X156866255Y-102256657D01*
X156885930Y-102242065D01*
X156906939Y-102229472D01*
X156929082Y-102219000D01*
X156952145Y-102210748D01*
X156975905Y-102204796D01*
X157000135Y-102201202D01*
X157024600Y-102200000D01*
X158325400Y-102200000D01*
X158349865Y-102201202D01*
G37*
G04 #@! TD.AperFunction*
G04 #@! TA.AperFunction,SMDPad,CuDef*
G36*
X158349505Y-96601204D02*
G01*
X158373773Y-96604804D01*
X158397572Y-96610765D01*
X158420671Y-96619030D01*
X158442850Y-96629520D01*
X158463893Y-96642132D01*
X158483599Y-96656747D01*
X158501777Y-96673223D01*
X158518253Y-96691401D01*
X158532868Y-96711107D01*
X158545480Y-96732150D01*
X158555970Y-96754329D01*
X158564235Y-96777428D01*
X158570196Y-96801227D01*
X158573796Y-96825495D01*
X158575000Y-96849999D01*
X158575000Y-97550001D01*
X158573796Y-97574505D01*
X158570196Y-97598773D01*
X158564235Y-97622572D01*
X158555970Y-97645671D01*
X158545480Y-97667850D01*
X158532868Y-97688893D01*
X158518253Y-97708599D01*
X158501777Y-97726777D01*
X158483599Y-97743253D01*
X158463893Y-97757868D01*
X158442850Y-97770480D01*
X158420671Y-97780970D01*
X158397572Y-97789235D01*
X158373773Y-97795196D01*
X158349505Y-97798796D01*
X158325001Y-97800000D01*
X157024999Y-97800000D01*
X157000495Y-97798796D01*
X156976227Y-97795196D01*
X156952428Y-97789235D01*
X156929329Y-97780970D01*
X156907150Y-97770480D01*
X156886107Y-97757868D01*
X156866401Y-97743253D01*
X156848223Y-97726777D01*
X156831747Y-97708599D01*
X156817132Y-97688893D01*
X156804520Y-97667850D01*
X156794030Y-97645671D01*
X156785765Y-97622572D01*
X156779804Y-97598773D01*
X156776204Y-97574505D01*
X156775000Y-97550001D01*
X156775000Y-96849999D01*
X156776204Y-96825495D01*
X156779804Y-96801227D01*
X156785765Y-96777428D01*
X156794030Y-96754329D01*
X156804520Y-96732150D01*
X156817132Y-96711107D01*
X156831747Y-96691401D01*
X156848223Y-96673223D01*
X156866401Y-96656747D01*
X156886107Y-96642132D01*
X156907150Y-96629520D01*
X156929329Y-96619030D01*
X156952428Y-96610765D01*
X156976227Y-96604804D01*
X157000495Y-96601204D01*
X157024999Y-96600000D01*
X158325001Y-96600000D01*
X158349505Y-96601204D01*
G37*
G04 #@! TD.AperFunction*
G04 #@! TA.AperFunction,SMDPad,CuDef*
G36*
X154599865Y-102201202D02*
G01*
X154624095Y-102204796D01*
X154647855Y-102210748D01*
X154670918Y-102219000D01*
X154693061Y-102229472D01*
X154714070Y-102242065D01*
X154733745Y-102256657D01*
X154751894Y-102273106D01*
X154768343Y-102291255D01*
X154782935Y-102310930D01*
X154795528Y-102331939D01*
X154806000Y-102354082D01*
X154814252Y-102377145D01*
X154820204Y-102400905D01*
X154823798Y-102425135D01*
X154825000Y-102449600D01*
X154825000Y-103150400D01*
X154823798Y-103174865D01*
X154820204Y-103199095D01*
X154814252Y-103222855D01*
X154806000Y-103245918D01*
X154795528Y-103268061D01*
X154782935Y-103289070D01*
X154768343Y-103308745D01*
X154751894Y-103326894D01*
X154733745Y-103343343D01*
X154714070Y-103357935D01*
X154693061Y-103370528D01*
X154670918Y-103381000D01*
X154647855Y-103389252D01*
X154624095Y-103395204D01*
X154599865Y-103398798D01*
X154575400Y-103400000D01*
X153274600Y-103400000D01*
X153250135Y-103398798D01*
X153225905Y-103395204D01*
X153202145Y-103389252D01*
X153179082Y-103381000D01*
X153156939Y-103370528D01*
X153135930Y-103357935D01*
X153116255Y-103343343D01*
X153098106Y-103326894D01*
X153081657Y-103308745D01*
X153067065Y-103289070D01*
X153054472Y-103268061D01*
X153044000Y-103245918D01*
X153035748Y-103222855D01*
X153029796Y-103199095D01*
X153026202Y-103174865D01*
X153025000Y-103150400D01*
X153025000Y-102449600D01*
X153026202Y-102425135D01*
X153029796Y-102400905D01*
X153035748Y-102377145D01*
X153044000Y-102354082D01*
X153054472Y-102331939D01*
X153067065Y-102310930D01*
X153081657Y-102291255D01*
X153098106Y-102273106D01*
X153116255Y-102256657D01*
X153135930Y-102242065D01*
X153156939Y-102229472D01*
X153179082Y-102219000D01*
X153202145Y-102210748D01*
X153225905Y-102204796D01*
X153250135Y-102201202D01*
X153274600Y-102200000D01*
X154575400Y-102200000D01*
X154599865Y-102201202D01*
G37*
G04 #@! TD.AperFunction*
G04 #@! TA.AperFunction,SMDPad,CuDef*
G36*
X154599865Y-96601202D02*
G01*
X154624095Y-96604796D01*
X154647855Y-96610748D01*
X154670918Y-96619000D01*
X154693061Y-96629472D01*
X154714070Y-96642065D01*
X154733745Y-96656657D01*
X154751894Y-96673106D01*
X154768343Y-96691255D01*
X154782935Y-96710930D01*
X154795528Y-96731939D01*
X154806000Y-96754082D01*
X154814252Y-96777145D01*
X154820204Y-96800905D01*
X154823798Y-96825135D01*
X154825000Y-96849600D01*
X154825000Y-97550400D01*
X154823798Y-97574865D01*
X154820204Y-97599095D01*
X154814252Y-97622855D01*
X154806000Y-97645918D01*
X154795528Y-97668061D01*
X154782935Y-97689070D01*
X154768343Y-97708745D01*
X154751894Y-97726894D01*
X154733745Y-97743343D01*
X154714070Y-97757935D01*
X154693061Y-97770528D01*
X154670918Y-97781000D01*
X154647855Y-97789252D01*
X154624095Y-97795204D01*
X154599865Y-97798798D01*
X154575400Y-97800000D01*
X153274600Y-97800000D01*
X153250135Y-97798798D01*
X153225905Y-97795204D01*
X153202145Y-97789252D01*
X153179082Y-97781000D01*
X153156939Y-97770528D01*
X153135930Y-97757935D01*
X153116255Y-97743343D01*
X153098106Y-97726894D01*
X153081657Y-97708745D01*
X153067065Y-97689070D01*
X153054472Y-97668061D01*
X153044000Y-97645918D01*
X153035748Y-97622855D01*
X153029796Y-97599095D01*
X153026202Y-97574865D01*
X153025000Y-97550400D01*
X153025000Y-96849600D01*
X153026202Y-96825135D01*
X153029796Y-96800905D01*
X153035748Y-96777145D01*
X153044000Y-96754082D01*
X153054472Y-96731939D01*
X153067065Y-96710930D01*
X153081657Y-96691255D01*
X153098106Y-96673106D01*
X153116255Y-96656657D01*
X153135930Y-96642065D01*
X153156939Y-96629472D01*
X153179082Y-96619000D01*
X153202145Y-96610748D01*
X153225905Y-96604796D01*
X153250135Y-96601202D01*
X153274600Y-96600000D01*
X154575400Y-96600000D01*
X154599865Y-96601202D01*
G37*
G04 #@! TD.AperFunction*
G04 #@! TA.AperFunction,SMDPad,CuDef*
G36*
X158439703Y-101200722D02*
G01*
X158454264Y-101202882D01*
X158468543Y-101206459D01*
X158482403Y-101211418D01*
X158495710Y-101217712D01*
X158508336Y-101225280D01*
X158520159Y-101234048D01*
X158531066Y-101243934D01*
X158540952Y-101254841D01*
X158549720Y-101266664D01*
X158557288Y-101279290D01*
X158563582Y-101292597D01*
X158568541Y-101306457D01*
X158572118Y-101320736D01*
X158574278Y-101335297D01*
X158575000Y-101350000D01*
X158575000Y-101650000D01*
X158574278Y-101664703D01*
X158572118Y-101679264D01*
X158568541Y-101693543D01*
X158563582Y-101707403D01*
X158557288Y-101720710D01*
X158549720Y-101733336D01*
X158540952Y-101745159D01*
X158531066Y-101756066D01*
X158520159Y-101765952D01*
X158508336Y-101774720D01*
X158495710Y-101782288D01*
X158482403Y-101788582D01*
X158468543Y-101793541D01*
X158454264Y-101797118D01*
X158439703Y-101799278D01*
X158425000Y-101800000D01*
X157175000Y-101800000D01*
X157160297Y-101799278D01*
X157145736Y-101797118D01*
X157131457Y-101793541D01*
X157117597Y-101788582D01*
X157104290Y-101782288D01*
X157091664Y-101774720D01*
X157079841Y-101765952D01*
X157068934Y-101756066D01*
X157059048Y-101745159D01*
X157050280Y-101733336D01*
X157042712Y-101720710D01*
X157036418Y-101707403D01*
X157031459Y-101693543D01*
X157027882Y-101679264D01*
X157025722Y-101664703D01*
X157025000Y-101650000D01*
X157025000Y-101350000D01*
X157025722Y-101335297D01*
X157027882Y-101320736D01*
X157031459Y-101306457D01*
X157036418Y-101292597D01*
X157042712Y-101279290D01*
X157050280Y-101266664D01*
X157059048Y-101254841D01*
X157068934Y-101243934D01*
X157079841Y-101234048D01*
X157091664Y-101225280D01*
X157104290Y-101217712D01*
X157117597Y-101211418D01*
X157131457Y-101206459D01*
X157145736Y-101202882D01*
X157160297Y-101200722D01*
X157175000Y-101200000D01*
X158425000Y-101200000D01*
X158439703Y-101200722D01*
G37*
G04 #@! TD.AperFunction*
G04 #@! TA.AperFunction,SMDPad,CuDef*
G36*
X158439703Y-100200722D02*
G01*
X158454264Y-100202882D01*
X158468543Y-100206459D01*
X158482403Y-100211418D01*
X158495710Y-100217712D01*
X158508336Y-100225280D01*
X158520159Y-100234048D01*
X158531066Y-100243934D01*
X158540952Y-100254841D01*
X158549720Y-100266664D01*
X158557288Y-100279290D01*
X158563582Y-100292597D01*
X158568541Y-100306457D01*
X158572118Y-100320736D01*
X158574278Y-100335297D01*
X158575000Y-100350000D01*
X158575000Y-100650000D01*
X158574278Y-100664703D01*
X158572118Y-100679264D01*
X158568541Y-100693543D01*
X158563582Y-100707403D01*
X158557288Y-100720710D01*
X158549720Y-100733336D01*
X158540952Y-100745159D01*
X158531066Y-100756066D01*
X158520159Y-100765952D01*
X158508336Y-100774720D01*
X158495710Y-100782288D01*
X158482403Y-100788582D01*
X158468543Y-100793541D01*
X158454264Y-100797118D01*
X158439703Y-100799278D01*
X158425000Y-100800000D01*
X157175000Y-100800000D01*
X157160297Y-100799278D01*
X157145736Y-100797118D01*
X157131457Y-100793541D01*
X157117597Y-100788582D01*
X157104290Y-100782288D01*
X157091664Y-100774720D01*
X157079841Y-100765952D01*
X157068934Y-100756066D01*
X157059048Y-100745159D01*
X157050280Y-100733336D01*
X157042712Y-100720710D01*
X157036418Y-100707403D01*
X157031459Y-100693543D01*
X157027882Y-100679264D01*
X157025722Y-100664703D01*
X157025000Y-100650000D01*
X157025000Y-100350000D01*
X157025722Y-100335297D01*
X157027882Y-100320736D01*
X157031459Y-100306457D01*
X157036418Y-100292597D01*
X157042712Y-100279290D01*
X157050280Y-100266664D01*
X157059048Y-100254841D01*
X157068934Y-100243934D01*
X157079841Y-100234048D01*
X157091664Y-100225280D01*
X157104290Y-100217712D01*
X157117597Y-100211418D01*
X157131457Y-100206459D01*
X157145736Y-100202882D01*
X157160297Y-100200722D01*
X157175000Y-100200000D01*
X158425000Y-100200000D01*
X158439703Y-100200722D01*
G37*
G04 #@! TD.AperFunction*
G04 #@! TA.AperFunction,SMDPad,CuDef*
G36*
X158439703Y-99200722D02*
G01*
X158454264Y-99202882D01*
X158468543Y-99206459D01*
X158482403Y-99211418D01*
X158495710Y-99217712D01*
X158508336Y-99225280D01*
X158520159Y-99234048D01*
X158531066Y-99243934D01*
X158540952Y-99254841D01*
X158549720Y-99266664D01*
X158557288Y-99279290D01*
X158563582Y-99292597D01*
X158568541Y-99306457D01*
X158572118Y-99320736D01*
X158574278Y-99335297D01*
X158575000Y-99350000D01*
X158575000Y-99650000D01*
X158574278Y-99664703D01*
X158572118Y-99679264D01*
X158568541Y-99693543D01*
X158563582Y-99707403D01*
X158557288Y-99720710D01*
X158549720Y-99733336D01*
X158540952Y-99745159D01*
X158531066Y-99756066D01*
X158520159Y-99765952D01*
X158508336Y-99774720D01*
X158495710Y-99782288D01*
X158482403Y-99788582D01*
X158468543Y-99793541D01*
X158454264Y-99797118D01*
X158439703Y-99799278D01*
X158425000Y-99800000D01*
X157175000Y-99800000D01*
X157160297Y-99799278D01*
X157145736Y-99797118D01*
X157131457Y-99793541D01*
X157117597Y-99788582D01*
X157104290Y-99782288D01*
X157091664Y-99774720D01*
X157079841Y-99765952D01*
X157068934Y-99756066D01*
X157059048Y-99745159D01*
X157050280Y-99733336D01*
X157042712Y-99720710D01*
X157036418Y-99707403D01*
X157031459Y-99693543D01*
X157027882Y-99679264D01*
X157025722Y-99664703D01*
X157025000Y-99650000D01*
X157025000Y-99350000D01*
X157025722Y-99335297D01*
X157027882Y-99320736D01*
X157031459Y-99306457D01*
X157036418Y-99292597D01*
X157042712Y-99279290D01*
X157050280Y-99266664D01*
X157059048Y-99254841D01*
X157068934Y-99243934D01*
X157079841Y-99234048D01*
X157091664Y-99225280D01*
X157104290Y-99217712D01*
X157117597Y-99211418D01*
X157131457Y-99206459D01*
X157145736Y-99202882D01*
X157160297Y-99200722D01*
X157175000Y-99200000D01*
X158425000Y-99200000D01*
X158439703Y-99200722D01*
G37*
G04 #@! TD.AperFunction*
G04 #@! TA.AperFunction,SMDPad,CuDef*
G36*
X158439703Y-98200722D02*
G01*
X158454264Y-98202882D01*
X158468543Y-98206459D01*
X158482403Y-98211418D01*
X158495710Y-98217712D01*
X158508336Y-98225280D01*
X158520159Y-98234048D01*
X158531066Y-98243934D01*
X158540952Y-98254841D01*
X158549720Y-98266664D01*
X158557288Y-98279290D01*
X158563582Y-98292597D01*
X158568541Y-98306457D01*
X158572118Y-98320736D01*
X158574278Y-98335297D01*
X158575000Y-98350000D01*
X158575000Y-98650000D01*
X158574278Y-98664703D01*
X158572118Y-98679264D01*
X158568541Y-98693543D01*
X158563582Y-98707403D01*
X158557288Y-98720710D01*
X158549720Y-98733336D01*
X158540952Y-98745159D01*
X158531066Y-98756066D01*
X158520159Y-98765952D01*
X158508336Y-98774720D01*
X158495710Y-98782288D01*
X158482403Y-98788582D01*
X158468543Y-98793541D01*
X158454264Y-98797118D01*
X158439703Y-98799278D01*
X158425000Y-98800000D01*
X157175000Y-98800000D01*
X157160297Y-98799278D01*
X157145736Y-98797118D01*
X157131457Y-98793541D01*
X157117597Y-98788582D01*
X157104290Y-98782288D01*
X157091664Y-98774720D01*
X157079841Y-98765952D01*
X157068934Y-98756066D01*
X157059048Y-98745159D01*
X157050280Y-98733336D01*
X157042712Y-98720710D01*
X157036418Y-98707403D01*
X157031459Y-98693543D01*
X157027882Y-98679264D01*
X157025722Y-98664703D01*
X157025000Y-98650000D01*
X157025000Y-98350000D01*
X157025722Y-98335297D01*
X157027882Y-98320736D01*
X157031459Y-98306457D01*
X157036418Y-98292597D01*
X157042712Y-98279290D01*
X157050280Y-98266664D01*
X157059048Y-98254841D01*
X157068934Y-98243934D01*
X157079841Y-98234048D01*
X157091664Y-98225280D01*
X157104290Y-98217712D01*
X157117597Y-98211418D01*
X157131457Y-98206459D01*
X157145736Y-98202882D01*
X157160297Y-98200722D01*
X157175000Y-98200000D01*
X158425000Y-98200000D01*
X158439703Y-98200722D01*
G37*
G04 #@! TD.AperFunction*
D13*
X156500000Y-98500000D03*
X156500000Y-101500000D03*
X155500000Y-100500000D03*
X155500000Y-99500000D03*
D14*
X148500000Y-112500000D02*
X150000000Y-111000000D01*
X148500000Y-108500000D02*
X148500000Y-109500000D01*
X151500000Y-113500000D02*
X151500000Y-112500000D01*
X151500000Y-112500000D02*
X150000000Y-111000000D01*
X148500000Y-109500000D02*
X150000000Y-111000000D01*
X151500000Y-108500000D02*
X151500000Y-109500000D01*
X151500000Y-109500000D02*
X150000000Y-111000000D01*
X148500000Y-113500000D02*
X148500000Y-112500000D01*
X158000000Y-98500000D02*
X157500000Y-98500000D01*
X151500000Y-86500000D02*
X151500000Y-87500000D01*
X148500000Y-86500000D02*
X148500000Y-87500000D01*
X148500000Y-91500000D02*
X148500000Y-90500000D01*
X148500000Y-87500000D02*
X150000000Y-89000000D01*
X151500000Y-91500000D02*
X151500000Y-90500000D01*
X151500000Y-87500000D02*
X150000000Y-89000000D01*
X151500000Y-90500000D02*
X150000000Y-89000000D01*
X148500000Y-90500000D02*
X150000000Y-89000000D01*
X151500000Y-98500000D02*
X150000000Y-100000000D01*
X153800000Y-98500000D02*
X151500000Y-98500000D01*
X151500000Y-101500000D02*
X150000000Y-100000000D01*
X153800000Y-101500000D02*
X151500000Y-101500000D01*
X157800000Y-98500000D02*
X156500000Y-98500000D01*
X153800000Y-100500000D02*
X155500000Y-100500000D01*
X155500000Y-100500000D02*
X157800000Y-100500000D01*
X157800000Y-99500000D02*
X155500000Y-99500000D01*
X153800000Y-99500000D02*
X155500000Y-99500000D01*
D15*
G36*
X155638501Y-85149740D02*
G01*
X155638500Y-92982243D01*
X155636751Y-93000000D01*
X155638500Y-93017756D01*
X155643731Y-93070865D01*
X155664402Y-93139008D01*
X155697969Y-93201809D01*
X155743144Y-93256855D01*
X155756936Y-93268174D01*
X158638501Y-96149739D01*
X158638501Y-96353909D01*
X158550067Y-96306641D01*
X158439739Y-96273173D01*
X158325001Y-96261872D01*
X157024999Y-96261872D01*
X156910261Y-96273173D01*
X156799933Y-96306641D01*
X156698253Y-96360989D01*
X156609130Y-96434130D01*
X156535989Y-96523253D01*
X156481641Y-96624933D01*
X156448173Y-96735261D01*
X156436872Y-96849999D01*
X156436872Y-97550001D01*
X156448173Y-97664739D01*
X156481641Y-97775067D01*
X156535830Y-97876450D01*
X156484900Y-97969248D01*
X156450261Y-98079050D01*
X156440500Y-98176375D01*
X156586625Y-98322500D01*
X157622500Y-98322500D01*
X157622500Y-98302500D01*
X157977500Y-98302500D01*
X157977500Y-98322500D01*
X157997500Y-98322500D01*
X157997500Y-98677500D01*
X157977500Y-98677500D01*
X157977500Y-98697500D01*
X157622500Y-98697500D01*
X157622500Y-98677500D01*
X156586625Y-98677500D01*
X156440500Y-98823625D01*
X156450261Y-98920950D01*
X156471571Y-98988500D01*
X156030069Y-98988500D01*
X155969492Y-98927923D01*
X155848864Y-98847322D01*
X155714829Y-98791803D01*
X155572539Y-98763500D01*
X155427461Y-98763500D01*
X155285171Y-98791803D01*
X155157383Y-98844734D01*
X155159500Y-98823625D01*
X155013375Y-98677500D01*
X153977500Y-98677500D01*
X153977500Y-98697500D01*
X153622500Y-98697500D01*
X153622500Y-98677500D01*
X152586625Y-98677500D01*
X152440500Y-98823625D01*
X152450261Y-98920950D01*
X152484900Y-99030752D01*
X152540296Y-99131687D01*
X152614318Y-99219875D01*
X152693436Y-99283353D01*
X152686872Y-99350000D01*
X152686872Y-99650000D01*
X152696251Y-99745229D01*
X152724029Y-99836798D01*
X152769136Y-99921189D01*
X152829841Y-99995159D01*
X152835740Y-100000000D01*
X152829841Y-100004841D01*
X152769136Y-100078811D01*
X152724029Y-100163202D01*
X152696251Y-100254771D01*
X152686872Y-100350000D01*
X152686872Y-100650000D01*
X152693436Y-100716647D01*
X152614318Y-100780125D01*
X152540296Y-100868313D01*
X152484900Y-100969248D01*
X152450261Y-101079050D01*
X152440500Y-101176375D01*
X152586625Y-101322500D01*
X153622500Y-101322500D01*
X153622500Y-101302500D01*
X153977500Y-101302500D01*
X153977500Y-101322500D01*
X155013375Y-101322500D01*
X155159500Y-101176375D01*
X155157383Y-101155266D01*
X155285171Y-101208197D01*
X155427461Y-101236500D01*
X155572539Y-101236500D01*
X155714829Y-101208197D01*
X155848864Y-101152678D01*
X155969492Y-101072077D01*
X156030069Y-101011500D01*
X156471571Y-101011500D01*
X156450261Y-101079050D01*
X156440500Y-101176375D01*
X156586625Y-101322500D01*
X157622500Y-101322500D01*
X157622500Y-101302500D01*
X157977500Y-101302500D01*
X157977500Y-101322500D01*
X157997500Y-101322500D01*
X157997500Y-101677500D01*
X157977500Y-101677500D01*
X157977500Y-101697500D01*
X157622500Y-101697500D01*
X157622500Y-101677500D01*
X156586625Y-101677500D01*
X156440500Y-101823625D01*
X156450261Y-101920950D01*
X156484900Y-102030752D01*
X156535748Y-102123401D01*
X156481610Y-102224686D01*
X156448165Y-102334940D01*
X156436872Y-102449600D01*
X156436872Y-103150400D01*
X156448165Y-103265060D01*
X156481610Y-103375314D01*
X156535922Y-103476924D01*
X156609014Y-103565986D01*
X156698076Y-103639078D01*
X156799686Y-103693390D01*
X156909940Y-103726835D01*
X157024600Y-103738128D01*
X158325400Y-103738128D01*
X158440060Y-103726835D01*
X158550314Y-103693390D01*
X158638500Y-103646253D01*
X158638500Y-103850262D01*
X155756936Y-106731826D01*
X155743145Y-106743144D01*
X155731827Y-106756935D01*
X155731825Y-106756937D01*
X155697970Y-106798190D01*
X155664403Y-106860991D01*
X155643731Y-106929134D01*
X155636751Y-107000000D01*
X155638501Y-107017767D01*
X155638500Y-114850261D01*
X153850262Y-116638500D01*
X146149739Y-116638500D01*
X144379605Y-114868366D01*
X145163500Y-114868366D01*
X145163500Y-115131634D01*
X145214861Y-115389843D01*
X145315609Y-115633070D01*
X145461872Y-115851969D01*
X145648031Y-116038128D01*
X145866930Y-116184391D01*
X146110157Y-116285139D01*
X146368366Y-116336500D01*
X146631634Y-116336500D01*
X146889843Y-116285139D01*
X147133070Y-116184391D01*
X147351969Y-116038128D01*
X147538128Y-115851969D01*
X147684391Y-115633070D01*
X147785139Y-115389843D01*
X147836500Y-115131634D01*
X147836500Y-114868366D01*
X147789631Y-114632742D01*
X147866930Y-114684391D01*
X148110157Y-114785139D01*
X148368366Y-114836500D01*
X148631634Y-114836500D01*
X148889843Y-114785139D01*
X149133070Y-114684391D01*
X149351969Y-114538128D01*
X149538128Y-114351969D01*
X149684391Y-114133070D01*
X149785139Y-113889843D01*
X149836500Y-113631634D01*
X149836500Y-113368366D01*
X149830161Y-113336500D01*
X150169839Y-113336500D01*
X150163500Y-113368366D01*
X150163500Y-113631634D01*
X150214861Y-113889843D01*
X150315609Y-114133070D01*
X150461872Y-114351969D01*
X150648031Y-114538128D01*
X150866930Y-114684391D01*
X151110157Y-114785139D01*
X151368366Y-114836500D01*
X151631634Y-114836500D01*
X151889843Y-114785139D01*
X152133070Y-114684391D01*
X152210369Y-114632742D01*
X152163500Y-114868366D01*
X152163500Y-115131634D01*
X152214861Y-115389843D01*
X152315609Y-115633070D01*
X152461872Y-115851969D01*
X152648031Y-116038128D01*
X152866930Y-116184391D01*
X153110157Y-116285139D01*
X153368366Y-116336500D01*
X153631634Y-116336500D01*
X153889843Y-116285139D01*
X154133070Y-116184391D01*
X154351969Y-116038128D01*
X154538128Y-115851969D01*
X154684391Y-115633070D01*
X154785139Y-115389843D01*
X154836500Y-115131634D01*
X154836500Y-114868366D01*
X154785139Y-114610157D01*
X154684391Y-114366930D01*
X154538128Y-114148031D01*
X154351969Y-113961872D01*
X154133070Y-113815609D01*
X153889843Y-113714861D01*
X153631634Y-113663500D01*
X153368366Y-113663500D01*
X153110157Y-113714861D01*
X152866930Y-113815609D01*
X152789631Y-113867258D01*
X152836500Y-113631634D01*
X152836500Y-113368366D01*
X152785139Y-113110157D01*
X152684391Y-112866930D01*
X152538128Y-112648031D01*
X152351969Y-112461872D01*
X152133070Y-112315609D01*
X151974821Y-112250060D01*
X152070579Y-112106748D01*
X152246709Y-111681532D01*
X152336500Y-111230125D01*
X152336500Y-110769875D01*
X152246709Y-110318468D01*
X152070579Y-109893252D01*
X151974821Y-109749940D01*
X152133070Y-109684391D01*
X152351969Y-109538128D01*
X152538128Y-109351969D01*
X152684391Y-109133070D01*
X152785139Y-108889843D01*
X152836500Y-108631634D01*
X152836500Y-108368366D01*
X152785139Y-108110157D01*
X152684391Y-107866930D01*
X152538128Y-107648031D01*
X152351969Y-107461872D01*
X152133070Y-107315609D01*
X151889843Y-107214861D01*
X151631634Y-107163500D01*
X151368366Y-107163500D01*
X151110157Y-107214861D01*
X150866930Y-107315609D01*
X150648031Y-107461872D01*
X150461872Y-107648031D01*
X150315609Y-107866930D01*
X150214861Y-108110157D01*
X150163500Y-108368366D01*
X150163500Y-108631634D01*
X150169839Y-108663500D01*
X149830161Y-108663500D01*
X149836500Y-108631634D01*
X149836500Y-108368366D01*
X149785139Y-108110157D01*
X149684391Y-107866930D01*
X149538128Y-107648031D01*
X149351969Y-107461872D01*
X149133070Y-107315609D01*
X148889843Y-107214861D01*
X148631634Y-107163500D01*
X148368366Y-107163500D01*
X148110157Y-107214861D01*
X147866930Y-107315609D01*
X147648031Y-107461872D01*
X147461872Y-107648031D01*
X147315609Y-107866930D01*
X147214861Y-108110157D01*
X147163500Y-108368366D01*
X147163500Y-108631634D01*
X147214861Y-108889843D01*
X147315609Y-109133070D01*
X147461872Y-109351969D01*
X147648031Y-109538128D01*
X147866930Y-109684391D01*
X148025179Y-109749940D01*
X147929421Y-109893252D01*
X147753291Y-110318468D01*
X147663500Y-110769875D01*
X147663500Y-111230125D01*
X147753291Y-111681532D01*
X147929421Y-112106748D01*
X148025179Y-112250060D01*
X147866930Y-112315609D01*
X147648031Y-112461872D01*
X147461872Y-112648031D01*
X147315609Y-112866930D01*
X147214861Y-113110157D01*
X147163500Y-113368366D01*
X147163500Y-113631634D01*
X147210369Y-113867258D01*
X147133070Y-113815609D01*
X146889843Y-113714861D01*
X146631634Y-113663500D01*
X146368366Y-113663500D01*
X146110157Y-113714861D01*
X145866930Y-113815609D01*
X145648031Y-113961872D01*
X145461872Y-114148031D01*
X145315609Y-114366930D01*
X145214861Y-114610157D01*
X145163500Y-114868366D01*
X144379605Y-114868366D01*
X144361500Y-114850262D01*
X144361500Y-107149738D01*
X147243060Y-104268178D01*
X147256856Y-104256856D01*
X147302031Y-104201810D01*
X147317656Y-104172577D01*
X147335598Y-104139010D01*
X147356269Y-104070867D01*
X147363249Y-104000000D01*
X147361500Y-103982243D01*
X147361500Y-103640285D01*
X147610738Y-103640285D01*
X147713582Y-103884393D01*
X147998774Y-104011214D01*
X148303228Y-104079962D01*
X148615245Y-104087991D01*
X148922832Y-104034995D01*
X149214170Y-103923011D01*
X149286418Y-103884393D01*
X149389262Y-103640285D01*
X150610738Y-103640285D01*
X150713582Y-103884393D01*
X150998774Y-104011214D01*
X151303228Y-104079962D01*
X151615245Y-104087991D01*
X151922832Y-104034995D01*
X152214170Y-103923011D01*
X152286418Y-103884393D01*
X152389262Y-103640285D01*
X151500000Y-102751023D01*
X150610738Y-103640285D01*
X149389262Y-103640285D01*
X148500000Y-102751023D01*
X147610738Y-103640285D01*
X147361500Y-103640285D01*
X147361500Y-103387477D01*
X148248977Y-102500000D01*
X147361500Y-101612523D01*
X147361500Y-100075644D01*
X147404097Y-100075644D01*
X147468734Y-100580626D01*
X147630646Y-101063295D01*
X147689350Y-101173123D01*
X147610738Y-101359715D01*
X148500000Y-102248977D01*
X148514142Y-102234835D01*
X148765165Y-102485858D01*
X148751023Y-102500000D01*
X149640285Y-103389262D01*
X149884393Y-103286418D01*
X150002591Y-103020617D01*
X150076989Y-103214170D01*
X150115607Y-103286418D01*
X150359715Y-103389262D01*
X151248977Y-102500000D01*
X151751023Y-102500000D01*
X152640285Y-103389262D01*
X152725013Y-103353566D01*
X152731610Y-103375314D01*
X152785922Y-103476924D01*
X152859014Y-103565986D01*
X152948076Y-103639078D01*
X153049686Y-103693390D01*
X153159940Y-103726835D01*
X153274600Y-103738128D01*
X154575400Y-103738128D01*
X154690060Y-103726835D01*
X154800314Y-103693390D01*
X154901924Y-103639078D01*
X154990986Y-103565986D01*
X155064078Y-103476924D01*
X155118390Y-103375314D01*
X155151835Y-103265060D01*
X155163128Y-103150400D01*
X155163128Y-102449600D01*
X155151835Y-102334940D01*
X155118390Y-102224686D01*
X155064252Y-102123401D01*
X155115100Y-102030752D01*
X155149739Y-101920950D01*
X155159500Y-101823625D01*
X155013375Y-101677500D01*
X153977500Y-101677500D01*
X153977500Y-101697500D01*
X153622500Y-101697500D01*
X153622500Y-101677500D01*
X152798750Y-101677500D01*
X152640285Y-101610738D01*
X151751023Y-102500000D01*
X151248977Y-102500000D01*
X151234835Y-102485858D01*
X151485858Y-102234835D01*
X151500000Y-102248977D01*
X152389262Y-101359715D01*
X152307162Y-101164845D01*
X152427249Y-100923523D01*
X152560781Y-100432245D01*
X152595903Y-99924356D01*
X152531266Y-99419374D01*
X152369354Y-98936705D01*
X152310650Y-98826877D01*
X152389262Y-98640285D01*
X151500000Y-97751023D01*
X151485858Y-97765165D01*
X151234835Y-97514142D01*
X151248977Y-97500000D01*
X151751023Y-97500000D01*
X152640285Y-98389262D01*
X152798750Y-98322500D01*
X153622500Y-98322500D01*
X153622500Y-98302500D01*
X153977500Y-98302500D01*
X153977500Y-98322500D01*
X155013375Y-98322500D01*
X155159500Y-98176375D01*
X155149739Y-98079050D01*
X155115100Y-97969248D01*
X155064252Y-97876599D01*
X155118390Y-97775314D01*
X155151835Y-97665060D01*
X155163128Y-97550400D01*
X155163128Y-96849600D01*
X155151835Y-96734940D01*
X155118390Y-96624686D01*
X155064078Y-96523076D01*
X154990986Y-96434014D01*
X154901924Y-96360922D01*
X154800314Y-96306610D01*
X154690060Y-96273165D01*
X154575400Y-96261872D01*
X153274600Y-96261872D01*
X153159940Y-96273165D01*
X153049686Y-96306610D01*
X152948076Y-96360922D01*
X152859014Y-96434014D01*
X152785922Y-96523076D01*
X152731610Y-96624686D01*
X152725013Y-96646434D01*
X152640285Y-96610738D01*
X151751023Y-97500000D01*
X151248977Y-97500000D01*
X150359715Y-96610738D01*
X150115607Y-96713582D01*
X149997409Y-96979383D01*
X149923011Y-96785830D01*
X149884393Y-96713582D01*
X149640285Y-96610738D01*
X148751023Y-97500000D01*
X148765165Y-97514142D01*
X148514142Y-97765165D01*
X148500000Y-97751023D01*
X147610738Y-98640285D01*
X147692838Y-98835155D01*
X147572751Y-99076477D01*
X147439219Y-99567755D01*
X147404097Y-100075644D01*
X147361500Y-100075644D01*
X147361500Y-98387477D01*
X148248977Y-97500000D01*
X147361500Y-96612523D01*
X147361500Y-96359715D01*
X147610738Y-96359715D01*
X148500000Y-97248977D01*
X149389262Y-96359715D01*
X150610738Y-96359715D01*
X151500000Y-97248977D01*
X152389262Y-96359715D01*
X152286418Y-96115607D01*
X152001226Y-95988786D01*
X151696772Y-95920038D01*
X151384755Y-95912009D01*
X151077168Y-95965005D01*
X150785830Y-96076989D01*
X150713582Y-96115607D01*
X150610738Y-96359715D01*
X149389262Y-96359715D01*
X149286418Y-96115607D01*
X149001226Y-95988786D01*
X148696772Y-95920038D01*
X148384755Y-95912009D01*
X148077168Y-95965005D01*
X147785830Y-96076989D01*
X147713582Y-96115607D01*
X147610738Y-96359715D01*
X147361500Y-96359715D01*
X147361500Y-96017757D01*
X147363249Y-96000000D01*
X147356269Y-95929133D01*
X147335598Y-95860990D01*
X147317656Y-95827423D01*
X147302031Y-95798190D01*
X147256855Y-95743144D01*
X147243064Y-95731826D01*
X144361500Y-92850262D01*
X144361500Y-85149738D01*
X144642872Y-84868366D01*
X145163500Y-84868366D01*
X145163500Y-85131634D01*
X145214861Y-85389843D01*
X145315609Y-85633070D01*
X145461872Y-85851969D01*
X145648031Y-86038128D01*
X145866930Y-86184391D01*
X146110157Y-86285139D01*
X146368366Y-86336500D01*
X146631634Y-86336500D01*
X146889843Y-86285139D01*
X147133070Y-86184391D01*
X147210369Y-86132742D01*
X147163500Y-86368366D01*
X147163500Y-86631634D01*
X147214861Y-86889843D01*
X147315609Y-87133070D01*
X147461872Y-87351969D01*
X147648031Y-87538128D01*
X147866930Y-87684391D01*
X148025179Y-87749940D01*
X147929421Y-87893252D01*
X147753291Y-88318468D01*
X147663500Y-88769875D01*
X147663500Y-89230125D01*
X147753291Y-89681532D01*
X147929421Y-90106748D01*
X148025179Y-90250060D01*
X147866930Y-90315609D01*
X147648031Y-90461872D01*
X147461872Y-90648031D01*
X147315609Y-90866930D01*
X147214861Y-91110157D01*
X147163500Y-91368366D01*
X147163500Y-91631634D01*
X147214861Y-91889843D01*
X147315609Y-92133070D01*
X147461872Y-92351969D01*
X147648031Y-92538128D01*
X147866930Y-92684391D01*
X148110157Y-92785139D01*
X148368366Y-92836500D01*
X148631634Y-92836500D01*
X148889843Y-92785139D01*
X149133070Y-92684391D01*
X149351969Y-92538128D01*
X149538128Y-92351969D01*
X149684391Y-92133070D01*
X149785139Y-91889843D01*
X149836500Y-91631634D01*
X149836500Y-91368366D01*
X149830161Y-91336500D01*
X150169839Y-91336500D01*
X150163500Y-91368366D01*
X150163500Y-91631634D01*
X150214861Y-91889843D01*
X150315609Y-92133070D01*
X150461872Y-92351969D01*
X150648031Y-92538128D01*
X150866930Y-92684391D01*
X151110157Y-92785139D01*
X151368366Y-92836500D01*
X151631634Y-92836500D01*
X151889843Y-92785139D01*
X152133070Y-92684391D01*
X152351969Y-92538128D01*
X152538128Y-92351969D01*
X152684391Y-92133070D01*
X152785139Y-91889843D01*
X152836500Y-91631634D01*
X152836500Y-91368366D01*
X152785139Y-91110157D01*
X152684391Y-90866930D01*
X152538128Y-90648031D01*
X152351969Y-90461872D01*
X152133070Y-90315609D01*
X151974821Y-90250060D01*
X152070579Y-90106748D01*
X152246709Y-89681532D01*
X152336500Y-89230125D01*
X152336500Y-88769875D01*
X152246709Y-88318468D01*
X152070579Y-87893252D01*
X151974821Y-87749940D01*
X152133070Y-87684391D01*
X152351969Y-87538128D01*
X152538128Y-87351969D01*
X152684391Y-87133070D01*
X152785139Y-86889843D01*
X152836500Y-86631634D01*
X152836500Y-86368366D01*
X152789631Y-86132742D01*
X152866930Y-86184391D01*
X153110157Y-86285139D01*
X153368366Y-86336500D01*
X153631634Y-86336500D01*
X153889843Y-86285139D01*
X154133070Y-86184391D01*
X154351969Y-86038128D01*
X154538128Y-85851969D01*
X154684391Y-85633070D01*
X154785139Y-85389843D01*
X154836500Y-85131634D01*
X154836500Y-84868366D01*
X154785139Y-84610157D01*
X154684391Y-84366930D01*
X154538128Y-84148031D01*
X154351969Y-83961872D01*
X154133070Y-83815609D01*
X153889843Y-83714861D01*
X153631634Y-83663500D01*
X153368366Y-83663500D01*
X153110157Y-83714861D01*
X152866930Y-83815609D01*
X152648031Y-83961872D01*
X152461872Y-84148031D01*
X152315609Y-84366930D01*
X152214861Y-84610157D01*
X152163500Y-84868366D01*
X152163500Y-85131634D01*
X152210369Y-85367258D01*
X152133070Y-85315609D01*
X151889843Y-85214861D01*
X151631634Y-85163500D01*
X151368366Y-85163500D01*
X151110157Y-85214861D01*
X150866930Y-85315609D01*
X150648031Y-85461872D01*
X150461872Y-85648031D01*
X150315609Y-85866930D01*
X150214861Y-86110157D01*
X150163500Y-86368366D01*
X150163500Y-86631634D01*
X150169839Y-86663500D01*
X149830161Y-86663500D01*
X149836500Y-86631634D01*
X149836500Y-86368366D01*
X149785139Y-86110157D01*
X149684391Y-85866930D01*
X149538128Y-85648031D01*
X149351969Y-85461872D01*
X149133070Y-85315609D01*
X148889843Y-85214861D01*
X148631634Y-85163500D01*
X148368366Y-85163500D01*
X148110157Y-85214861D01*
X147866930Y-85315609D01*
X147789631Y-85367258D01*
X147836500Y-85131634D01*
X147836500Y-84868366D01*
X147785139Y-84610157D01*
X147684391Y-84366930D01*
X147538128Y-84148031D01*
X147351969Y-83961872D01*
X147133070Y-83815609D01*
X146889843Y-83714861D01*
X146631634Y-83663500D01*
X146368366Y-83663500D01*
X146110157Y-83714861D01*
X145866930Y-83815609D01*
X145648031Y-83961872D01*
X145461872Y-84148031D01*
X145315609Y-84366930D01*
X145214861Y-84610157D01*
X145163500Y-84868366D01*
X144642872Y-84868366D01*
X146149739Y-83361500D01*
X153850262Y-83361500D01*
X155638501Y-85149740D01*
G37*
X155638501Y-85149740D02*
X155638500Y-92982243D01*
X155636751Y-93000000D01*
X155638500Y-93017756D01*
X155643731Y-93070865D01*
X155664402Y-93139008D01*
X155697969Y-93201809D01*
X155743144Y-93256855D01*
X155756936Y-93268174D01*
X158638501Y-96149739D01*
X158638501Y-96353909D01*
X158550067Y-96306641D01*
X158439739Y-96273173D01*
X158325001Y-96261872D01*
X157024999Y-96261872D01*
X156910261Y-96273173D01*
X156799933Y-96306641D01*
X156698253Y-96360989D01*
X156609130Y-96434130D01*
X156535989Y-96523253D01*
X156481641Y-96624933D01*
X156448173Y-96735261D01*
X156436872Y-96849999D01*
X156436872Y-97550001D01*
X156448173Y-97664739D01*
X156481641Y-97775067D01*
X156535830Y-97876450D01*
X156484900Y-97969248D01*
X156450261Y-98079050D01*
X156440500Y-98176375D01*
X156586625Y-98322500D01*
X157622500Y-98322500D01*
X157622500Y-98302500D01*
X157977500Y-98302500D01*
X157977500Y-98322500D01*
X157997500Y-98322500D01*
X157997500Y-98677500D01*
X157977500Y-98677500D01*
X157977500Y-98697500D01*
X157622500Y-98697500D01*
X157622500Y-98677500D01*
X156586625Y-98677500D01*
X156440500Y-98823625D01*
X156450261Y-98920950D01*
X156471571Y-98988500D01*
X156030069Y-98988500D01*
X155969492Y-98927923D01*
X155848864Y-98847322D01*
X155714829Y-98791803D01*
X155572539Y-98763500D01*
X155427461Y-98763500D01*
X155285171Y-98791803D01*
X155157383Y-98844734D01*
X155159500Y-98823625D01*
X155013375Y-98677500D01*
X153977500Y-98677500D01*
X153977500Y-98697500D01*
X153622500Y-98697500D01*
X153622500Y-98677500D01*
X152586625Y-98677500D01*
X152440500Y-98823625D01*
X152450261Y-98920950D01*
X152484900Y-99030752D01*
X152540296Y-99131687D01*
X152614318Y-99219875D01*
X152693436Y-99283353D01*
X152686872Y-99350000D01*
X152686872Y-99650000D01*
X152696251Y-99745229D01*
X152724029Y-99836798D01*
X152769136Y-99921189D01*
X152829841Y-99995159D01*
X152835740Y-100000000D01*
X152829841Y-100004841D01*
X152769136Y-100078811D01*
X152724029Y-100163202D01*
X152696251Y-100254771D01*
X152686872Y-100350000D01*
X152686872Y-100650000D01*
X152693436Y-100716647D01*
X152614318Y-100780125D01*
X152540296Y-100868313D01*
X152484900Y-100969248D01*
X152450261Y-101079050D01*
X152440500Y-101176375D01*
X152586625Y-101322500D01*
X153622500Y-101322500D01*
X153622500Y-101302500D01*
X153977500Y-101302500D01*
X153977500Y-101322500D01*
X155013375Y-101322500D01*
X155159500Y-101176375D01*
X155157383Y-101155266D01*
X155285171Y-101208197D01*
X155427461Y-101236500D01*
X155572539Y-101236500D01*
X155714829Y-101208197D01*
X155848864Y-101152678D01*
X155969492Y-101072077D01*
X156030069Y-101011500D01*
X156471571Y-101011500D01*
X156450261Y-101079050D01*
X156440500Y-101176375D01*
X156586625Y-101322500D01*
X157622500Y-101322500D01*
X157622500Y-101302500D01*
X157977500Y-101302500D01*
X157977500Y-101322500D01*
X157997500Y-101322500D01*
X157997500Y-101677500D01*
X157977500Y-101677500D01*
X157977500Y-101697500D01*
X157622500Y-101697500D01*
X157622500Y-101677500D01*
X156586625Y-101677500D01*
X156440500Y-101823625D01*
X156450261Y-101920950D01*
X156484900Y-102030752D01*
X156535748Y-102123401D01*
X156481610Y-102224686D01*
X156448165Y-102334940D01*
X156436872Y-102449600D01*
X156436872Y-103150400D01*
X156448165Y-103265060D01*
X156481610Y-103375314D01*
X156535922Y-103476924D01*
X156609014Y-103565986D01*
X156698076Y-103639078D01*
X156799686Y-103693390D01*
X156909940Y-103726835D01*
X157024600Y-103738128D01*
X158325400Y-103738128D01*
X158440060Y-103726835D01*
X158550314Y-103693390D01*
X158638500Y-103646253D01*
X158638500Y-103850262D01*
X155756936Y-106731826D01*
X155743145Y-106743144D01*
X155731827Y-106756935D01*
X155731825Y-106756937D01*
X155697970Y-106798190D01*
X155664403Y-106860991D01*
X155643731Y-106929134D01*
X155636751Y-107000000D01*
X155638501Y-107017767D01*
X155638500Y-114850261D01*
X153850262Y-116638500D01*
X146149739Y-116638500D01*
X144379605Y-114868366D01*
X145163500Y-114868366D01*
X145163500Y-115131634D01*
X145214861Y-115389843D01*
X145315609Y-115633070D01*
X145461872Y-115851969D01*
X145648031Y-116038128D01*
X145866930Y-116184391D01*
X146110157Y-116285139D01*
X146368366Y-116336500D01*
X146631634Y-116336500D01*
X146889843Y-116285139D01*
X147133070Y-116184391D01*
X147351969Y-116038128D01*
X147538128Y-115851969D01*
X147684391Y-115633070D01*
X147785139Y-115389843D01*
X147836500Y-115131634D01*
X147836500Y-114868366D01*
X147789631Y-114632742D01*
X147866930Y-114684391D01*
X148110157Y-114785139D01*
X148368366Y-114836500D01*
X148631634Y-114836500D01*
X148889843Y-114785139D01*
X149133070Y-114684391D01*
X149351969Y-114538128D01*
X149538128Y-114351969D01*
X149684391Y-114133070D01*
X149785139Y-113889843D01*
X149836500Y-113631634D01*
X149836500Y-113368366D01*
X149830161Y-113336500D01*
X150169839Y-113336500D01*
X150163500Y-113368366D01*
X150163500Y-113631634D01*
X150214861Y-113889843D01*
X150315609Y-114133070D01*
X150461872Y-114351969D01*
X150648031Y-114538128D01*
X150866930Y-114684391D01*
X151110157Y-114785139D01*
X151368366Y-114836500D01*
X151631634Y-114836500D01*
X151889843Y-114785139D01*
X152133070Y-114684391D01*
X152210369Y-114632742D01*
X152163500Y-114868366D01*
X152163500Y-115131634D01*
X152214861Y-115389843D01*
X152315609Y-115633070D01*
X152461872Y-115851969D01*
X152648031Y-116038128D01*
X152866930Y-116184391D01*
X153110157Y-116285139D01*
X153368366Y-116336500D01*
X153631634Y-116336500D01*
X153889843Y-116285139D01*
X154133070Y-116184391D01*
X154351969Y-116038128D01*
X154538128Y-115851969D01*
X154684391Y-115633070D01*
X154785139Y-115389843D01*
X154836500Y-115131634D01*
X154836500Y-114868366D01*
X154785139Y-114610157D01*
X154684391Y-114366930D01*
X154538128Y-114148031D01*
X154351969Y-113961872D01*
X154133070Y-113815609D01*
X153889843Y-113714861D01*
X153631634Y-113663500D01*
X153368366Y-113663500D01*
X153110157Y-113714861D01*
X152866930Y-113815609D01*
X152789631Y-113867258D01*
X152836500Y-113631634D01*
X152836500Y-113368366D01*
X152785139Y-113110157D01*
X152684391Y-112866930D01*
X152538128Y-112648031D01*
X152351969Y-112461872D01*
X152133070Y-112315609D01*
X151974821Y-112250060D01*
X152070579Y-112106748D01*
X152246709Y-111681532D01*
X152336500Y-111230125D01*
X152336500Y-110769875D01*
X152246709Y-110318468D01*
X152070579Y-109893252D01*
X151974821Y-109749940D01*
X152133070Y-109684391D01*
X152351969Y-109538128D01*
X152538128Y-109351969D01*
X152684391Y-109133070D01*
X152785139Y-108889843D01*
X152836500Y-108631634D01*
X152836500Y-108368366D01*
X152785139Y-108110157D01*
X152684391Y-107866930D01*
X152538128Y-107648031D01*
X152351969Y-107461872D01*
X152133070Y-107315609D01*
X151889843Y-107214861D01*
X151631634Y-107163500D01*
X151368366Y-107163500D01*
X151110157Y-107214861D01*
X150866930Y-107315609D01*
X150648031Y-107461872D01*
X150461872Y-107648031D01*
X150315609Y-107866930D01*
X150214861Y-108110157D01*
X150163500Y-108368366D01*
X150163500Y-108631634D01*
X150169839Y-108663500D01*
X149830161Y-108663500D01*
X149836500Y-108631634D01*
X149836500Y-108368366D01*
X149785139Y-108110157D01*
X149684391Y-107866930D01*
X149538128Y-107648031D01*
X149351969Y-107461872D01*
X149133070Y-107315609D01*
X148889843Y-107214861D01*
X148631634Y-107163500D01*
X148368366Y-107163500D01*
X148110157Y-107214861D01*
X147866930Y-107315609D01*
X147648031Y-107461872D01*
X147461872Y-107648031D01*
X147315609Y-107866930D01*
X147214861Y-108110157D01*
X147163500Y-108368366D01*
X147163500Y-108631634D01*
X147214861Y-108889843D01*
X147315609Y-109133070D01*
X147461872Y-109351969D01*
X147648031Y-109538128D01*
X147866930Y-109684391D01*
X148025179Y-109749940D01*
X147929421Y-109893252D01*
X147753291Y-110318468D01*
X147663500Y-110769875D01*
X147663500Y-111230125D01*
X147753291Y-111681532D01*
X147929421Y-112106748D01*
X148025179Y-112250060D01*
X147866930Y-112315609D01*
X147648031Y-112461872D01*
X147461872Y-112648031D01*
X147315609Y-112866930D01*
X147214861Y-113110157D01*
X147163500Y-113368366D01*
X147163500Y-113631634D01*
X147210369Y-113867258D01*
X147133070Y-113815609D01*
X146889843Y-113714861D01*
X146631634Y-113663500D01*
X146368366Y-113663500D01*
X146110157Y-113714861D01*
X145866930Y-113815609D01*
X145648031Y-113961872D01*
X145461872Y-114148031D01*
X145315609Y-114366930D01*
X145214861Y-114610157D01*
X145163500Y-114868366D01*
X144379605Y-114868366D01*
X144361500Y-114850262D01*
X144361500Y-107149738D01*
X147243060Y-104268178D01*
X147256856Y-104256856D01*
X147302031Y-104201810D01*
X147317656Y-104172577D01*
X147335598Y-104139010D01*
X147356269Y-104070867D01*
X147363249Y-104000000D01*
X147361500Y-103982243D01*
X147361500Y-103640285D01*
X147610738Y-103640285D01*
X147713582Y-103884393D01*
X147998774Y-104011214D01*
X148303228Y-104079962D01*
X148615245Y-104087991D01*
X148922832Y-104034995D01*
X149214170Y-103923011D01*
X149286418Y-103884393D01*
X149389262Y-103640285D01*
X150610738Y-103640285D01*
X150713582Y-103884393D01*
X150998774Y-104011214D01*
X151303228Y-104079962D01*
X151615245Y-104087991D01*
X151922832Y-104034995D01*
X152214170Y-103923011D01*
X152286418Y-103884393D01*
X152389262Y-103640285D01*
X151500000Y-102751023D01*
X150610738Y-103640285D01*
X149389262Y-103640285D01*
X148500000Y-102751023D01*
X147610738Y-103640285D01*
X147361500Y-103640285D01*
X147361500Y-103387477D01*
X148248977Y-102500000D01*
X147361500Y-101612523D01*
X147361500Y-100075644D01*
X147404097Y-100075644D01*
X147468734Y-100580626D01*
X147630646Y-101063295D01*
X147689350Y-101173123D01*
X147610738Y-101359715D01*
X148500000Y-102248977D01*
X148514142Y-102234835D01*
X148765165Y-102485858D01*
X148751023Y-102500000D01*
X149640285Y-103389262D01*
X149884393Y-103286418D01*
X150002591Y-103020617D01*
X150076989Y-103214170D01*
X150115607Y-103286418D01*
X150359715Y-103389262D01*
X151248977Y-102500000D01*
X151751023Y-102500000D01*
X152640285Y-103389262D01*
X152725013Y-103353566D01*
X152731610Y-103375314D01*
X152785922Y-103476924D01*
X152859014Y-103565986D01*
X152948076Y-103639078D01*
X153049686Y-103693390D01*
X153159940Y-103726835D01*
X153274600Y-103738128D01*
X154575400Y-103738128D01*
X154690060Y-103726835D01*
X154800314Y-103693390D01*
X154901924Y-103639078D01*
X154990986Y-103565986D01*
X155064078Y-103476924D01*
X155118390Y-103375314D01*
X155151835Y-103265060D01*
X155163128Y-103150400D01*
X155163128Y-102449600D01*
X155151835Y-102334940D01*
X155118390Y-102224686D01*
X155064252Y-102123401D01*
X155115100Y-102030752D01*
X155149739Y-101920950D01*
X155159500Y-101823625D01*
X155013375Y-101677500D01*
X153977500Y-101677500D01*
X153977500Y-101697500D01*
X153622500Y-101697500D01*
X153622500Y-101677500D01*
X152798750Y-101677500D01*
X152640285Y-101610738D01*
X151751023Y-102500000D01*
X151248977Y-102500000D01*
X151234835Y-102485858D01*
X151485858Y-102234835D01*
X151500000Y-102248977D01*
X152389262Y-101359715D01*
X152307162Y-101164845D01*
X152427249Y-100923523D01*
X152560781Y-100432245D01*
X152595903Y-99924356D01*
X152531266Y-99419374D01*
X152369354Y-98936705D01*
X152310650Y-98826877D01*
X152389262Y-98640285D01*
X151500000Y-97751023D01*
X151485858Y-97765165D01*
X151234835Y-97514142D01*
X151248977Y-97500000D01*
X151751023Y-97500000D01*
X152640285Y-98389262D01*
X152798750Y-98322500D01*
X153622500Y-98322500D01*
X153622500Y-98302500D01*
X153977500Y-98302500D01*
X153977500Y-98322500D01*
X155013375Y-98322500D01*
X155159500Y-98176375D01*
X155149739Y-98079050D01*
X155115100Y-97969248D01*
X155064252Y-97876599D01*
X155118390Y-97775314D01*
X155151835Y-97665060D01*
X155163128Y-97550400D01*
X155163128Y-96849600D01*
X155151835Y-96734940D01*
X155118390Y-96624686D01*
X155064078Y-96523076D01*
X154990986Y-96434014D01*
X154901924Y-96360922D01*
X154800314Y-96306610D01*
X154690060Y-96273165D01*
X154575400Y-96261872D01*
X153274600Y-96261872D01*
X153159940Y-96273165D01*
X153049686Y-96306610D01*
X152948076Y-96360922D01*
X152859014Y-96434014D01*
X152785922Y-96523076D01*
X152731610Y-96624686D01*
X152725013Y-96646434D01*
X152640285Y-96610738D01*
X151751023Y-97500000D01*
X151248977Y-97500000D01*
X150359715Y-96610738D01*
X150115607Y-96713582D01*
X149997409Y-96979383D01*
X149923011Y-96785830D01*
X149884393Y-96713582D01*
X149640285Y-96610738D01*
X148751023Y-97500000D01*
X148765165Y-97514142D01*
X148514142Y-97765165D01*
X148500000Y-97751023D01*
X147610738Y-98640285D01*
X147692838Y-98835155D01*
X147572751Y-99076477D01*
X147439219Y-99567755D01*
X147404097Y-100075644D01*
X147361500Y-100075644D01*
X147361500Y-98387477D01*
X148248977Y-97500000D01*
X147361500Y-96612523D01*
X147361500Y-96359715D01*
X147610738Y-96359715D01*
X148500000Y-97248977D01*
X149389262Y-96359715D01*
X150610738Y-96359715D01*
X151500000Y-97248977D01*
X152389262Y-96359715D01*
X152286418Y-96115607D01*
X152001226Y-95988786D01*
X151696772Y-95920038D01*
X151384755Y-95912009D01*
X151077168Y-95965005D01*
X150785830Y-96076989D01*
X150713582Y-96115607D01*
X150610738Y-96359715D01*
X149389262Y-96359715D01*
X149286418Y-96115607D01*
X149001226Y-95988786D01*
X148696772Y-95920038D01*
X148384755Y-95912009D01*
X148077168Y-95965005D01*
X147785830Y-96076989D01*
X147713582Y-96115607D01*
X147610738Y-96359715D01*
X147361500Y-96359715D01*
X147361500Y-96017757D01*
X147363249Y-96000000D01*
X147356269Y-95929133D01*
X147335598Y-95860990D01*
X147317656Y-95827423D01*
X147302031Y-95798190D01*
X147256855Y-95743144D01*
X147243064Y-95731826D01*
X144361500Y-92850262D01*
X144361500Y-85149738D01*
X144642872Y-84868366D01*
X145163500Y-84868366D01*
X145163500Y-85131634D01*
X145214861Y-85389843D01*
X145315609Y-85633070D01*
X145461872Y-85851969D01*
X145648031Y-86038128D01*
X145866930Y-86184391D01*
X146110157Y-86285139D01*
X146368366Y-86336500D01*
X146631634Y-86336500D01*
X146889843Y-86285139D01*
X147133070Y-86184391D01*
X147210369Y-86132742D01*
X147163500Y-86368366D01*
X147163500Y-86631634D01*
X147214861Y-86889843D01*
X147315609Y-87133070D01*
X147461872Y-87351969D01*
X147648031Y-87538128D01*
X147866930Y-87684391D01*
X148025179Y-87749940D01*
X147929421Y-87893252D01*
X147753291Y-88318468D01*
X147663500Y-88769875D01*
X147663500Y-89230125D01*
X147753291Y-89681532D01*
X147929421Y-90106748D01*
X148025179Y-90250060D01*
X147866930Y-90315609D01*
X147648031Y-90461872D01*
X147461872Y-90648031D01*
X147315609Y-90866930D01*
X147214861Y-91110157D01*
X147163500Y-91368366D01*
X147163500Y-91631634D01*
X147214861Y-91889843D01*
X147315609Y-92133070D01*
X147461872Y-92351969D01*
X147648031Y-92538128D01*
X147866930Y-92684391D01*
X148110157Y-92785139D01*
X148368366Y-92836500D01*
X148631634Y-92836500D01*
X148889843Y-92785139D01*
X149133070Y-92684391D01*
X149351969Y-92538128D01*
X149538128Y-92351969D01*
X149684391Y-92133070D01*
X149785139Y-91889843D01*
X149836500Y-91631634D01*
X149836500Y-91368366D01*
X149830161Y-91336500D01*
X150169839Y-91336500D01*
X150163500Y-91368366D01*
X150163500Y-91631634D01*
X150214861Y-91889843D01*
X150315609Y-92133070D01*
X150461872Y-92351969D01*
X150648031Y-92538128D01*
X150866930Y-92684391D01*
X151110157Y-92785139D01*
X151368366Y-92836500D01*
X151631634Y-92836500D01*
X151889843Y-92785139D01*
X152133070Y-92684391D01*
X152351969Y-92538128D01*
X152538128Y-92351969D01*
X152684391Y-92133070D01*
X152785139Y-91889843D01*
X152836500Y-91631634D01*
X152836500Y-91368366D01*
X152785139Y-91110157D01*
X152684391Y-90866930D01*
X152538128Y-90648031D01*
X152351969Y-90461872D01*
X152133070Y-90315609D01*
X151974821Y-90250060D01*
X152070579Y-90106748D01*
X152246709Y-89681532D01*
X152336500Y-89230125D01*
X152336500Y-88769875D01*
X152246709Y-88318468D01*
X152070579Y-87893252D01*
X151974821Y-87749940D01*
X152133070Y-87684391D01*
X152351969Y-87538128D01*
X152538128Y-87351969D01*
X152684391Y-87133070D01*
X152785139Y-86889843D01*
X152836500Y-86631634D01*
X152836500Y-86368366D01*
X152789631Y-86132742D01*
X152866930Y-86184391D01*
X153110157Y-86285139D01*
X153368366Y-86336500D01*
X153631634Y-86336500D01*
X153889843Y-86285139D01*
X154133070Y-86184391D01*
X154351969Y-86038128D01*
X154538128Y-85851969D01*
X154684391Y-85633070D01*
X154785139Y-85389843D01*
X154836500Y-85131634D01*
X154836500Y-84868366D01*
X154785139Y-84610157D01*
X154684391Y-84366930D01*
X154538128Y-84148031D01*
X154351969Y-83961872D01*
X154133070Y-83815609D01*
X153889843Y-83714861D01*
X153631634Y-83663500D01*
X153368366Y-83663500D01*
X153110157Y-83714861D01*
X152866930Y-83815609D01*
X152648031Y-83961872D01*
X152461872Y-84148031D01*
X152315609Y-84366930D01*
X152214861Y-84610157D01*
X152163500Y-84868366D01*
X152163500Y-85131634D01*
X152210369Y-85367258D01*
X152133070Y-85315609D01*
X151889843Y-85214861D01*
X151631634Y-85163500D01*
X151368366Y-85163500D01*
X151110157Y-85214861D01*
X150866930Y-85315609D01*
X150648031Y-85461872D01*
X150461872Y-85648031D01*
X150315609Y-85866930D01*
X150214861Y-86110157D01*
X150163500Y-86368366D01*
X150163500Y-86631634D01*
X150169839Y-86663500D01*
X149830161Y-86663500D01*
X149836500Y-86631634D01*
X149836500Y-86368366D01*
X149785139Y-86110157D01*
X149684391Y-85866930D01*
X149538128Y-85648031D01*
X149351969Y-85461872D01*
X149133070Y-85315609D01*
X148889843Y-85214861D01*
X148631634Y-85163500D01*
X148368366Y-85163500D01*
X148110157Y-85214861D01*
X147866930Y-85315609D01*
X147789631Y-85367258D01*
X147836500Y-85131634D01*
X147836500Y-84868366D01*
X147785139Y-84610157D01*
X147684391Y-84366930D01*
X147538128Y-84148031D01*
X147351969Y-83961872D01*
X147133070Y-83815609D01*
X146889843Y-83714861D01*
X146631634Y-83663500D01*
X146368366Y-83663500D01*
X146110157Y-83714861D01*
X145866930Y-83815609D01*
X145648031Y-83961872D01*
X145461872Y-84148031D01*
X145315609Y-84366930D01*
X145214861Y-84610157D01*
X145163500Y-84868366D01*
X144642872Y-84868366D01*
X146149739Y-83361500D01*
X153850262Y-83361500D01*
X155638501Y-85149740D01*
G36*
X150265165Y-99985858D02*
G01*
X150251023Y-100000000D01*
X150265165Y-100014142D01*
X150014142Y-100265165D01*
X150000000Y-100251023D01*
X149985858Y-100265165D01*
X149734835Y-100014142D01*
X149748977Y-100000000D01*
X149734835Y-99985858D01*
X149985858Y-99734835D01*
X150000000Y-99748977D01*
X150014142Y-99734835D01*
X150265165Y-99985858D01*
G37*
X150265165Y-99985858D02*
X150251023Y-100000000D01*
X150265165Y-100014142D01*
X150014142Y-100265165D01*
X150000000Y-100251023D01*
X149985858Y-100265165D01*
X149734835Y-100014142D01*
X149748977Y-100000000D01*
X149734835Y-99985858D01*
X149985858Y-99734835D01*
X150000000Y-99748977D01*
X150014142Y-99734835D01*
X150265165Y-99985858D01*
M02*
