G04 #@! TF.GenerationSoftware,KiCad,Pcbnew,5.1.5-52549c5~84~ubuntu18.04.1*
G04 #@! TF.CreationDate,2020-04-20T00:33:06-07:00*
G04 #@! TF.ProjectId,somos_dielectrode_v2.0,736f6d6f-735f-4646-9965-6c656374726f,rev?*
G04 #@! TF.SameCoordinates,Original*
G04 #@! TF.FileFunction,Soldermask,Bot*
G04 #@! TF.FilePolarity,Negative*
%FSLAX46Y46*%
G04 Gerber Fmt 4.6, Leading zero omitted, Abs format (unit mm)*
G04 Created by KiCad (PCBNEW 5.1.5-52549c5~84~ubuntu18.04.1) date 2020-04-20 00:33:06*
%MOMM*%
%LPD*%
G04 APERTURE LIST*
%ADD10C,0.100000*%
G04 APERTURE END LIST*
D10*
G36*
X153806564Y-113989389D02*
G01*
X153997833Y-114068615D01*
X153997835Y-114068616D01*
X154169973Y-114183635D01*
X154316365Y-114330027D01*
X154384090Y-114431384D01*
X154431385Y-114502167D01*
X154510611Y-114693436D01*
X154551000Y-114896484D01*
X154551000Y-115103516D01*
X154510611Y-115306564D01*
X154431385Y-115497833D01*
X154431384Y-115497835D01*
X154316365Y-115669973D01*
X154169973Y-115816365D01*
X153997835Y-115931384D01*
X153997834Y-115931385D01*
X153997833Y-115931385D01*
X153806564Y-116010611D01*
X153603516Y-116051000D01*
X153396484Y-116051000D01*
X153193436Y-116010611D01*
X153002167Y-115931385D01*
X153002166Y-115931385D01*
X153002165Y-115931384D01*
X152830027Y-115816365D01*
X152683635Y-115669973D01*
X152568616Y-115497835D01*
X152568615Y-115497833D01*
X152489389Y-115306564D01*
X152449000Y-115103516D01*
X152449000Y-114896484D01*
X152489389Y-114693436D01*
X152568615Y-114502167D01*
X152615911Y-114431384D01*
X152683635Y-114330027D01*
X152830027Y-114183635D01*
X153002165Y-114068616D01*
X153002167Y-114068615D01*
X153193436Y-113989389D01*
X153396484Y-113949000D01*
X153603516Y-113949000D01*
X153806564Y-113989389D01*
G37*
G36*
X146806564Y-113989389D02*
G01*
X146997833Y-114068615D01*
X146997835Y-114068616D01*
X147169973Y-114183635D01*
X147316365Y-114330027D01*
X147384090Y-114431384D01*
X147431385Y-114502167D01*
X147510611Y-114693436D01*
X147551000Y-114896484D01*
X147551000Y-115103516D01*
X147510611Y-115306564D01*
X147431385Y-115497833D01*
X147431384Y-115497835D01*
X147316365Y-115669973D01*
X147169973Y-115816365D01*
X146997835Y-115931384D01*
X146997834Y-115931385D01*
X146997833Y-115931385D01*
X146806564Y-116010611D01*
X146603516Y-116051000D01*
X146396484Y-116051000D01*
X146193436Y-116010611D01*
X146002167Y-115931385D01*
X146002166Y-115931385D01*
X146002165Y-115931384D01*
X145830027Y-115816365D01*
X145683635Y-115669973D01*
X145568616Y-115497835D01*
X145568615Y-115497833D01*
X145489389Y-115306564D01*
X145449000Y-115103516D01*
X145449000Y-114896484D01*
X145489389Y-114693436D01*
X145568615Y-114502167D01*
X145615911Y-114431384D01*
X145683635Y-114330027D01*
X145830027Y-114183635D01*
X146002165Y-114068616D01*
X146002167Y-114068615D01*
X146193436Y-113989389D01*
X146396484Y-113949000D01*
X146603516Y-113949000D01*
X146806564Y-113989389D01*
G37*
G36*
X148806564Y-107489389D02*
G01*
X148997833Y-107568615D01*
X148997835Y-107568616D01*
X149169973Y-107683635D01*
X149316365Y-107830027D01*
X149431385Y-108002167D01*
X149510611Y-108193436D01*
X149551000Y-108396484D01*
X149551000Y-108603516D01*
X149510611Y-108806565D01*
X149510002Y-108808035D01*
X149502890Y-108831484D01*
X149500489Y-108855870D01*
X149502892Y-108880256D01*
X149510006Y-108903705D01*
X149521557Y-108925315D01*
X149537103Y-108944257D01*
X149556046Y-108959801D01*
X149577657Y-108971352D01*
X149601106Y-108978464D01*
X149625492Y-108980865D01*
X149649874Y-108978463D01*
X149797993Y-108949000D01*
X150202007Y-108949000D01*
X150350126Y-108978463D01*
X150374512Y-108980865D01*
X150398898Y-108978463D01*
X150422347Y-108971350D01*
X150443958Y-108959799D01*
X150462900Y-108944254D01*
X150478445Y-108925312D01*
X150489996Y-108903701D01*
X150497109Y-108880252D01*
X150499511Y-108855866D01*
X150497109Y-108831480D01*
X150489998Y-108808035D01*
X150489389Y-108806565D01*
X150449000Y-108603516D01*
X150449000Y-108396484D01*
X150489389Y-108193436D01*
X150568615Y-108002167D01*
X150683635Y-107830027D01*
X150830027Y-107683635D01*
X151002165Y-107568616D01*
X151002167Y-107568615D01*
X151193436Y-107489389D01*
X151396484Y-107449000D01*
X151603516Y-107449000D01*
X151806564Y-107489389D01*
X151997833Y-107568615D01*
X151997835Y-107568616D01*
X152169973Y-107683635D01*
X152316365Y-107830027D01*
X152431385Y-108002167D01*
X152510611Y-108193436D01*
X152551000Y-108396484D01*
X152551000Y-108603516D01*
X152510611Y-108806564D01*
X152442354Y-108971352D01*
X152431384Y-108997835D01*
X152316365Y-109169973D01*
X152169973Y-109316365D01*
X151997835Y-109431384D01*
X151997834Y-109431385D01*
X151997833Y-109431385D01*
X151806565Y-109510611D01*
X151694323Y-109532937D01*
X151670874Y-109540050D01*
X151649263Y-109551601D01*
X151630321Y-109567146D01*
X151614776Y-109586088D01*
X151603225Y-109607699D01*
X151596112Y-109631148D01*
X151593710Y-109655534D01*
X151596112Y-109679920D01*
X151603225Y-109703369D01*
X151614776Y-109724980D01*
X151817574Y-110028489D01*
X151972182Y-110401746D01*
X152051000Y-110797993D01*
X152051000Y-111202007D01*
X151972182Y-111598254D01*
X151817574Y-111971511D01*
X151614776Y-112275020D01*
X151603225Y-112296631D01*
X151596112Y-112320080D01*
X151593710Y-112344466D01*
X151596112Y-112368852D01*
X151603225Y-112392301D01*
X151614776Y-112413912D01*
X151630321Y-112432854D01*
X151649263Y-112448399D01*
X151670874Y-112459950D01*
X151694323Y-112467063D01*
X151806565Y-112489389D01*
X151997833Y-112568615D01*
X151997835Y-112568616D01*
X152169973Y-112683635D01*
X152316365Y-112830027D01*
X152431385Y-113002167D01*
X152510611Y-113193436D01*
X152551000Y-113396484D01*
X152551000Y-113603516D01*
X152510611Y-113806564D01*
X152434882Y-113989390D01*
X152431384Y-113997835D01*
X152316365Y-114169973D01*
X152169973Y-114316365D01*
X151997835Y-114431384D01*
X151997834Y-114431385D01*
X151997833Y-114431385D01*
X151806564Y-114510611D01*
X151603516Y-114551000D01*
X151396484Y-114551000D01*
X151193436Y-114510611D01*
X151002167Y-114431385D01*
X151002166Y-114431385D01*
X151002165Y-114431384D01*
X150830027Y-114316365D01*
X150683635Y-114169973D01*
X150568616Y-113997835D01*
X150565118Y-113989390D01*
X150489389Y-113806564D01*
X150449000Y-113603516D01*
X150449000Y-113396484D01*
X150489389Y-113193435D01*
X150489998Y-113191965D01*
X150497110Y-113168516D01*
X150499511Y-113144130D01*
X150497108Y-113119744D01*
X150489994Y-113096295D01*
X150478443Y-113074685D01*
X150462897Y-113055743D01*
X150443954Y-113040199D01*
X150422343Y-113028648D01*
X150398894Y-113021536D01*
X150374508Y-113019135D01*
X150350126Y-113021537D01*
X150202007Y-113051000D01*
X149797993Y-113051000D01*
X149649874Y-113021537D01*
X149625488Y-113019135D01*
X149601102Y-113021537D01*
X149577653Y-113028650D01*
X149556042Y-113040201D01*
X149537100Y-113055746D01*
X149521555Y-113074688D01*
X149510004Y-113096299D01*
X149502891Y-113119748D01*
X149500489Y-113144134D01*
X149502891Y-113168520D01*
X149510002Y-113191965D01*
X149510611Y-113193435D01*
X149551000Y-113396484D01*
X149551000Y-113603516D01*
X149510611Y-113806564D01*
X149434882Y-113989390D01*
X149431384Y-113997835D01*
X149316365Y-114169973D01*
X149169973Y-114316365D01*
X148997835Y-114431384D01*
X148997834Y-114431385D01*
X148997833Y-114431385D01*
X148806564Y-114510611D01*
X148603516Y-114551000D01*
X148396484Y-114551000D01*
X148193436Y-114510611D01*
X148002167Y-114431385D01*
X148002166Y-114431385D01*
X148002165Y-114431384D01*
X147830027Y-114316365D01*
X147683635Y-114169973D01*
X147568616Y-113997835D01*
X147565118Y-113989390D01*
X147489389Y-113806564D01*
X147449000Y-113603516D01*
X147449000Y-113396484D01*
X147489389Y-113193436D01*
X147568615Y-113002167D01*
X147683635Y-112830027D01*
X147830027Y-112683635D01*
X148002165Y-112568616D01*
X148002167Y-112568615D01*
X148193435Y-112489389D01*
X148305677Y-112467063D01*
X148329126Y-112459950D01*
X148350737Y-112448399D01*
X148369679Y-112432854D01*
X148385224Y-112413912D01*
X148396775Y-112392301D01*
X148403888Y-112368852D01*
X148406290Y-112344466D01*
X148403888Y-112320080D01*
X148396775Y-112296631D01*
X148385224Y-112275020D01*
X148182426Y-111971511D01*
X148027818Y-111598254D01*
X147949000Y-111202007D01*
X147949000Y-110797993D01*
X148027818Y-110401746D01*
X148182426Y-110028489D01*
X148385224Y-109724980D01*
X148396775Y-109703369D01*
X148403888Y-109679920D01*
X148406290Y-109655534D01*
X148403888Y-109631148D01*
X148396775Y-109607699D01*
X148385224Y-109586088D01*
X148369679Y-109567146D01*
X148350737Y-109551601D01*
X148329126Y-109540050D01*
X148305677Y-109532937D01*
X148193435Y-109510611D01*
X148002167Y-109431385D01*
X148002166Y-109431385D01*
X148002165Y-109431384D01*
X147830027Y-109316365D01*
X147683635Y-109169973D01*
X147568616Y-108997835D01*
X147557646Y-108971352D01*
X147489389Y-108806564D01*
X147449000Y-108603516D01*
X147449000Y-108396484D01*
X147489389Y-108193436D01*
X147568615Y-108002167D01*
X147683635Y-107830027D01*
X147830027Y-107683635D01*
X148002165Y-107568616D01*
X148002167Y-107568615D01*
X148193436Y-107489389D01*
X148396484Y-107449000D01*
X148603516Y-107449000D01*
X148806564Y-107489389D01*
G37*
G36*
X148806564Y-96489389D02*
G01*
X148997833Y-96568615D01*
X148997835Y-96568616D01*
X149169973Y-96683635D01*
X149316365Y-96830027D01*
X149431385Y-97002167D01*
X149510611Y-97193436D01*
X149551000Y-97396484D01*
X149551000Y-97603516D01*
X149510611Y-97806565D01*
X149510002Y-97808035D01*
X149502890Y-97831484D01*
X149500489Y-97855870D01*
X149502892Y-97880256D01*
X149510006Y-97903705D01*
X149521557Y-97925315D01*
X149537103Y-97944257D01*
X149556046Y-97959801D01*
X149577657Y-97971352D01*
X149601106Y-97978464D01*
X149625492Y-97980865D01*
X149649874Y-97978463D01*
X149797993Y-97949000D01*
X150202007Y-97949000D01*
X150350126Y-97978463D01*
X150374512Y-97980865D01*
X150398898Y-97978463D01*
X150422347Y-97971350D01*
X150443958Y-97959799D01*
X150462900Y-97944254D01*
X150478445Y-97925312D01*
X150489996Y-97903701D01*
X150497109Y-97880252D01*
X150499511Y-97855866D01*
X150497109Y-97831480D01*
X150489998Y-97808035D01*
X150489389Y-97806565D01*
X150449000Y-97603516D01*
X150449000Y-97396484D01*
X150489389Y-97193436D01*
X150568615Y-97002167D01*
X150683635Y-96830027D01*
X150830027Y-96683635D01*
X151002165Y-96568616D01*
X151002167Y-96568615D01*
X151193436Y-96489389D01*
X151396484Y-96449000D01*
X151603516Y-96449000D01*
X151806564Y-96489389D01*
X151997833Y-96568615D01*
X151997835Y-96568616D01*
X152169973Y-96683635D01*
X152316365Y-96830027D01*
X152431385Y-97002167D01*
X152510611Y-97193436D01*
X152551000Y-97396484D01*
X152551000Y-97603516D01*
X152510611Y-97806564D01*
X152442354Y-97971352D01*
X152431384Y-97997835D01*
X152316365Y-98169973D01*
X152169973Y-98316365D01*
X151997835Y-98431384D01*
X151997834Y-98431385D01*
X151997833Y-98431385D01*
X151806565Y-98510611D01*
X151694323Y-98532937D01*
X151670874Y-98540050D01*
X151649263Y-98551601D01*
X151630321Y-98567146D01*
X151614776Y-98586088D01*
X151603225Y-98607699D01*
X151596112Y-98631148D01*
X151593710Y-98655534D01*
X151596112Y-98679920D01*
X151603225Y-98703369D01*
X151614776Y-98724980D01*
X151817574Y-99028489D01*
X151972182Y-99401746D01*
X152051000Y-99797993D01*
X152051000Y-100202007D01*
X151972182Y-100598254D01*
X151817574Y-100971511D01*
X151614776Y-101275020D01*
X151603225Y-101296631D01*
X151596112Y-101320080D01*
X151593710Y-101344466D01*
X151596112Y-101368852D01*
X151603225Y-101392301D01*
X151614776Y-101413912D01*
X151630321Y-101432854D01*
X151649263Y-101448399D01*
X151670874Y-101459950D01*
X151694323Y-101467063D01*
X151806565Y-101489389D01*
X151997833Y-101568615D01*
X151997835Y-101568616D01*
X152169973Y-101683635D01*
X152316365Y-101830027D01*
X152431385Y-102002167D01*
X152510611Y-102193436D01*
X152551000Y-102396484D01*
X152551000Y-102603516D01*
X152510611Y-102806564D01*
X152431385Y-102997833D01*
X152431384Y-102997835D01*
X152316365Y-103169973D01*
X152169973Y-103316365D01*
X151997835Y-103431384D01*
X151997834Y-103431385D01*
X151997833Y-103431385D01*
X151806564Y-103510611D01*
X151603516Y-103551000D01*
X151396484Y-103551000D01*
X151193436Y-103510611D01*
X151002167Y-103431385D01*
X151002166Y-103431385D01*
X151002165Y-103431384D01*
X150830027Y-103316365D01*
X150683635Y-103169973D01*
X150568616Y-102997835D01*
X150568615Y-102997833D01*
X150489389Y-102806564D01*
X150449000Y-102603516D01*
X150449000Y-102396484D01*
X150489389Y-102193435D01*
X150489998Y-102191965D01*
X150497110Y-102168516D01*
X150499511Y-102144130D01*
X150497108Y-102119744D01*
X150489994Y-102096295D01*
X150478443Y-102074685D01*
X150462897Y-102055743D01*
X150443954Y-102040199D01*
X150422343Y-102028648D01*
X150398894Y-102021536D01*
X150374508Y-102019135D01*
X150350126Y-102021537D01*
X150202007Y-102051000D01*
X149797993Y-102051000D01*
X149649874Y-102021537D01*
X149625488Y-102019135D01*
X149601102Y-102021537D01*
X149577653Y-102028650D01*
X149556042Y-102040201D01*
X149537100Y-102055746D01*
X149521555Y-102074688D01*
X149510004Y-102096299D01*
X149502891Y-102119748D01*
X149500489Y-102144134D01*
X149502891Y-102168520D01*
X149510002Y-102191965D01*
X149510611Y-102193435D01*
X149551000Y-102396484D01*
X149551000Y-102603516D01*
X149510611Y-102806564D01*
X149431385Y-102997833D01*
X149431384Y-102997835D01*
X149316365Y-103169973D01*
X149169973Y-103316365D01*
X148997835Y-103431384D01*
X148997834Y-103431385D01*
X148997833Y-103431385D01*
X148806564Y-103510611D01*
X148603516Y-103551000D01*
X148396484Y-103551000D01*
X148193436Y-103510611D01*
X148002167Y-103431385D01*
X148002166Y-103431385D01*
X148002165Y-103431384D01*
X147830027Y-103316365D01*
X147683635Y-103169973D01*
X147568616Y-102997835D01*
X147568615Y-102997833D01*
X147489389Y-102806564D01*
X147449000Y-102603516D01*
X147449000Y-102396484D01*
X147489389Y-102193436D01*
X147568615Y-102002167D01*
X147683635Y-101830027D01*
X147830027Y-101683635D01*
X148002165Y-101568616D01*
X148002167Y-101568615D01*
X148193435Y-101489389D01*
X148305677Y-101467063D01*
X148329126Y-101459950D01*
X148350737Y-101448399D01*
X148369679Y-101432854D01*
X148385224Y-101413912D01*
X148396775Y-101392301D01*
X148403888Y-101368852D01*
X148406290Y-101344466D01*
X148403888Y-101320080D01*
X148396775Y-101296631D01*
X148385224Y-101275020D01*
X148182426Y-100971511D01*
X148027818Y-100598254D01*
X147949000Y-100202007D01*
X147949000Y-99797993D01*
X148027818Y-99401746D01*
X148182426Y-99028489D01*
X148385224Y-98724980D01*
X148396775Y-98703369D01*
X148403888Y-98679920D01*
X148406290Y-98655534D01*
X148403888Y-98631148D01*
X148396775Y-98607699D01*
X148385224Y-98586088D01*
X148369679Y-98567146D01*
X148350737Y-98551601D01*
X148329126Y-98540050D01*
X148305677Y-98532937D01*
X148193435Y-98510611D01*
X148002167Y-98431385D01*
X148002166Y-98431385D01*
X148002165Y-98431384D01*
X147830027Y-98316365D01*
X147683635Y-98169973D01*
X147568616Y-97997835D01*
X147557646Y-97971352D01*
X147489389Y-97806564D01*
X147449000Y-97603516D01*
X147449000Y-97396484D01*
X147489389Y-97193436D01*
X147568615Y-97002167D01*
X147683635Y-96830027D01*
X147830027Y-96683635D01*
X148002165Y-96568616D01*
X148002167Y-96568615D01*
X148193436Y-96489389D01*
X148396484Y-96449000D01*
X148603516Y-96449000D01*
X148806564Y-96489389D01*
G37*
G36*
X148806564Y-85489389D02*
G01*
X148997833Y-85568615D01*
X148997835Y-85568616D01*
X149169973Y-85683635D01*
X149316365Y-85830027D01*
X149384090Y-85931384D01*
X149431385Y-86002167D01*
X149510611Y-86193436D01*
X149551000Y-86396484D01*
X149551000Y-86603516D01*
X149510611Y-86806565D01*
X149510002Y-86808035D01*
X149502890Y-86831484D01*
X149500489Y-86855870D01*
X149502892Y-86880256D01*
X149510006Y-86903705D01*
X149521557Y-86925315D01*
X149537103Y-86944257D01*
X149556046Y-86959801D01*
X149577657Y-86971352D01*
X149601106Y-86978464D01*
X149625492Y-86980865D01*
X149649874Y-86978463D01*
X149797993Y-86949000D01*
X150202007Y-86949000D01*
X150350126Y-86978463D01*
X150374512Y-86980865D01*
X150398898Y-86978463D01*
X150422347Y-86971350D01*
X150443958Y-86959799D01*
X150462900Y-86944254D01*
X150478445Y-86925312D01*
X150489996Y-86903701D01*
X150497109Y-86880252D01*
X150499511Y-86855866D01*
X150497109Y-86831480D01*
X150489998Y-86808035D01*
X150489389Y-86806565D01*
X150449000Y-86603516D01*
X150449000Y-86396484D01*
X150489389Y-86193436D01*
X150568615Y-86002167D01*
X150615911Y-85931384D01*
X150683635Y-85830027D01*
X150830027Y-85683635D01*
X151002165Y-85568616D01*
X151002167Y-85568615D01*
X151193436Y-85489389D01*
X151396484Y-85449000D01*
X151603516Y-85449000D01*
X151806564Y-85489389D01*
X151997833Y-85568615D01*
X151997835Y-85568616D01*
X152169973Y-85683635D01*
X152316365Y-85830027D01*
X152384090Y-85931384D01*
X152431385Y-86002167D01*
X152510611Y-86193436D01*
X152551000Y-86396484D01*
X152551000Y-86603516D01*
X152510611Y-86806564D01*
X152442354Y-86971352D01*
X152431384Y-86997835D01*
X152316365Y-87169973D01*
X152169973Y-87316365D01*
X151997835Y-87431384D01*
X151997834Y-87431385D01*
X151997833Y-87431385D01*
X151806565Y-87510611D01*
X151694323Y-87532937D01*
X151670874Y-87540050D01*
X151649263Y-87551601D01*
X151630321Y-87567146D01*
X151614776Y-87586088D01*
X151603225Y-87607699D01*
X151596112Y-87631148D01*
X151593710Y-87655534D01*
X151596112Y-87679920D01*
X151603225Y-87703369D01*
X151614776Y-87724980D01*
X151817574Y-88028489D01*
X151972182Y-88401746D01*
X152051000Y-88797993D01*
X152051000Y-89202007D01*
X151972182Y-89598254D01*
X151817574Y-89971511D01*
X151614776Y-90275020D01*
X151603225Y-90296631D01*
X151596112Y-90320080D01*
X151593710Y-90344466D01*
X151596112Y-90368852D01*
X151603225Y-90392301D01*
X151614776Y-90413912D01*
X151630321Y-90432854D01*
X151649263Y-90448399D01*
X151670874Y-90459950D01*
X151694323Y-90467063D01*
X151806565Y-90489389D01*
X151997833Y-90568615D01*
X151997835Y-90568616D01*
X152169973Y-90683635D01*
X152316365Y-90830027D01*
X152431385Y-91002167D01*
X152510611Y-91193436D01*
X152551000Y-91396484D01*
X152551000Y-91603516D01*
X152510611Y-91806564D01*
X152431385Y-91997833D01*
X152431384Y-91997835D01*
X152316365Y-92169973D01*
X152169973Y-92316365D01*
X151997835Y-92431384D01*
X151997834Y-92431385D01*
X151997833Y-92431385D01*
X151806564Y-92510611D01*
X151603516Y-92551000D01*
X151396484Y-92551000D01*
X151193436Y-92510611D01*
X151002167Y-92431385D01*
X151002166Y-92431385D01*
X151002165Y-92431384D01*
X150830027Y-92316365D01*
X150683635Y-92169973D01*
X150568616Y-91997835D01*
X150568615Y-91997833D01*
X150489389Y-91806564D01*
X150449000Y-91603516D01*
X150449000Y-91396484D01*
X150489389Y-91193435D01*
X150489998Y-91191965D01*
X150497110Y-91168516D01*
X150499511Y-91144130D01*
X150497108Y-91119744D01*
X150489994Y-91096295D01*
X150478443Y-91074685D01*
X150462897Y-91055743D01*
X150443954Y-91040199D01*
X150422343Y-91028648D01*
X150398894Y-91021536D01*
X150374508Y-91019135D01*
X150350126Y-91021537D01*
X150202007Y-91051000D01*
X149797993Y-91051000D01*
X149649874Y-91021537D01*
X149625488Y-91019135D01*
X149601102Y-91021537D01*
X149577653Y-91028650D01*
X149556042Y-91040201D01*
X149537100Y-91055746D01*
X149521555Y-91074688D01*
X149510004Y-91096299D01*
X149502891Y-91119748D01*
X149500489Y-91144134D01*
X149502891Y-91168520D01*
X149510002Y-91191965D01*
X149510611Y-91193435D01*
X149551000Y-91396484D01*
X149551000Y-91603516D01*
X149510611Y-91806564D01*
X149431385Y-91997833D01*
X149431384Y-91997835D01*
X149316365Y-92169973D01*
X149169973Y-92316365D01*
X148997835Y-92431384D01*
X148997834Y-92431385D01*
X148997833Y-92431385D01*
X148806564Y-92510611D01*
X148603516Y-92551000D01*
X148396484Y-92551000D01*
X148193436Y-92510611D01*
X148002167Y-92431385D01*
X148002166Y-92431385D01*
X148002165Y-92431384D01*
X147830027Y-92316365D01*
X147683635Y-92169973D01*
X147568616Y-91997835D01*
X147568615Y-91997833D01*
X147489389Y-91806564D01*
X147449000Y-91603516D01*
X147449000Y-91396484D01*
X147489389Y-91193436D01*
X147568615Y-91002167D01*
X147683635Y-90830027D01*
X147830027Y-90683635D01*
X148002165Y-90568616D01*
X148002167Y-90568615D01*
X148193435Y-90489389D01*
X148305677Y-90467063D01*
X148329126Y-90459950D01*
X148350737Y-90448399D01*
X148369679Y-90432854D01*
X148385224Y-90413912D01*
X148396775Y-90392301D01*
X148403888Y-90368852D01*
X148406290Y-90344466D01*
X148403888Y-90320080D01*
X148396775Y-90296631D01*
X148385224Y-90275020D01*
X148182426Y-89971511D01*
X148027818Y-89598254D01*
X147949000Y-89202007D01*
X147949000Y-88797993D01*
X148027818Y-88401746D01*
X148182426Y-88028489D01*
X148385224Y-87724980D01*
X148396775Y-87703369D01*
X148403888Y-87679920D01*
X148406290Y-87655534D01*
X148403888Y-87631148D01*
X148396775Y-87607699D01*
X148385224Y-87586088D01*
X148369679Y-87567146D01*
X148350737Y-87551601D01*
X148329126Y-87540050D01*
X148305677Y-87532937D01*
X148193435Y-87510611D01*
X148002167Y-87431385D01*
X148002166Y-87431385D01*
X148002165Y-87431384D01*
X147830027Y-87316365D01*
X147683635Y-87169973D01*
X147568616Y-86997835D01*
X147557646Y-86971352D01*
X147489389Y-86806564D01*
X147449000Y-86603516D01*
X147449000Y-86396484D01*
X147489389Y-86193436D01*
X147568615Y-86002167D01*
X147615911Y-85931384D01*
X147683635Y-85830027D01*
X147830027Y-85683635D01*
X148002165Y-85568616D01*
X148002167Y-85568615D01*
X148193436Y-85489389D01*
X148396484Y-85449000D01*
X148603516Y-85449000D01*
X148806564Y-85489389D01*
G37*
G36*
X146806564Y-83989389D02*
G01*
X146997833Y-84068615D01*
X146997835Y-84068616D01*
X147169973Y-84183635D01*
X147316365Y-84330027D01*
X147431385Y-84502167D01*
X147510611Y-84693436D01*
X147551000Y-84896484D01*
X147551000Y-85103516D01*
X147510611Y-85306564D01*
X147434882Y-85489390D01*
X147431384Y-85497835D01*
X147316365Y-85669973D01*
X147169973Y-85816365D01*
X146997835Y-85931384D01*
X146997834Y-85931385D01*
X146997833Y-85931385D01*
X146806564Y-86010611D01*
X146603516Y-86051000D01*
X146396484Y-86051000D01*
X146193436Y-86010611D01*
X146002167Y-85931385D01*
X146002166Y-85931385D01*
X146002165Y-85931384D01*
X145830027Y-85816365D01*
X145683635Y-85669973D01*
X145568616Y-85497835D01*
X145565118Y-85489390D01*
X145489389Y-85306564D01*
X145449000Y-85103516D01*
X145449000Y-84896484D01*
X145489389Y-84693436D01*
X145568615Y-84502167D01*
X145683635Y-84330027D01*
X145830027Y-84183635D01*
X146002165Y-84068616D01*
X146002167Y-84068615D01*
X146193436Y-83989389D01*
X146396484Y-83949000D01*
X146603516Y-83949000D01*
X146806564Y-83989389D01*
G37*
G36*
X153806564Y-83989389D02*
G01*
X153997833Y-84068615D01*
X153997835Y-84068616D01*
X154169973Y-84183635D01*
X154316365Y-84330027D01*
X154431385Y-84502167D01*
X154510611Y-84693436D01*
X154551000Y-84896484D01*
X154551000Y-85103516D01*
X154510611Y-85306564D01*
X154434882Y-85489390D01*
X154431384Y-85497835D01*
X154316365Y-85669973D01*
X154169973Y-85816365D01*
X153997835Y-85931384D01*
X153997834Y-85931385D01*
X153997833Y-85931385D01*
X153806564Y-86010611D01*
X153603516Y-86051000D01*
X153396484Y-86051000D01*
X153193436Y-86010611D01*
X153002167Y-85931385D01*
X153002166Y-85931385D01*
X153002165Y-85931384D01*
X152830027Y-85816365D01*
X152683635Y-85669973D01*
X152568616Y-85497835D01*
X152565118Y-85489390D01*
X152489389Y-85306564D01*
X152449000Y-85103516D01*
X152449000Y-84896484D01*
X152489389Y-84693436D01*
X152568615Y-84502167D01*
X152683635Y-84330027D01*
X152830027Y-84183635D01*
X153002165Y-84068616D01*
X153002167Y-84068615D01*
X153193436Y-83989389D01*
X153396484Y-83949000D01*
X153603516Y-83949000D01*
X153806564Y-83989389D01*
G37*
M02*
