M48
; DRILL file {KiCad 5.1.5-52549c5~84~ubuntu18.04.1} date Mon 13 Jan 2020 10:36:17 PM PST
; FORMAT={-:-/ absolute / inch / decimal}
; #@! TF.CreationDate,2020-01-13T22:36:17-08:00
; #@! TF.GenerationSoftware,Kicad,Pcbnew,5.1.5-52549c5~84~ubuntu18.04.1
; #@! TF.FileFunction,Plated,1,4,PTH
FMAT,2
INCH
T1C0.0110
T2C0.0394
T3C0.1299
%
G90
G05
T1
X5.7075Y-4.41
X5.8268Y-4.2126
X5.8268Y-4.3701
X5.8551Y-4.5284
X5.9055Y-4.2913
X5.9055Y-4.2913
X5.9843Y-4.2126
X5.9843Y-4.3701
X5.998Y-4.4882
X6.0575Y-4.4875
X6.0944Y-4.4409
T2
X5.6Y-3.2764
X5.6Y-3.3764
X5.6Y-3.4764
X5.6Y-3.5764
X5.6Y-3.6764
X5.6Y-3.7764
X5.6Y-3.8764
X5.6Y-3.9764
X6.2Y-3.2677
X6.2Y-3.3677
X6.2Y-3.4677
X6.2Y-3.5677
X6.2Y-3.6677
X6.2Y-3.7677
X6.2Y-3.8677
X6.2Y-3.9677
X6.2Y-4.1339
X6.2Y-4.2339
X6.2Y-4.3339
X6.2Y-4.4339
X6.2Y-4.5339
X6.2Y-4.6339
X6.2Y-4.7339
X6.2Y-4.8339
X5.8055Y-4.8819
X5.8055Y-4.9819
X5.9055Y-4.8819
X5.9055Y-4.9819
X6.0055Y-4.8819
X6.0055Y-4.9819
X5.6Y-4.1425
X5.6Y-4.2425
X5.6Y-4.3425
X5.6Y-4.4425
X5.6Y-4.5425
X5.6Y-4.6425
X5.6Y-4.7425
X5.6Y-4.8425
T3
X5.9055Y-4.6457
X5.9055Y-3.2677
X5.9055Y-3.9567
T0
M30
