G04 #@! TF.GenerationSoftware,KiCad,Pcbnew,5.1.5-52549c5~84~ubuntu18.04.1*
G04 #@! TF.CreationDate,2020-01-13T22:36:15-08:00*
G04 #@! TF.ProjectId,somos_wristband_1.0,736f6d6f-735f-4777-9269-737462616e64,rev?*
G04 #@! TF.SameCoordinates,Original*
G04 #@! TF.FileFunction,Copper,L1,Top*
G04 #@! TF.FilePolarity,Positive*
%FSLAX46Y46*%
G04 Gerber Fmt 4.6, Leading zero omitted, Abs format (unit mm)*
G04 Created by KiCad (PCBNEW 5.1.5-52549c5~84~ubuntu18.04.1) date 2020-01-13 22:36:15*
%MOMM*%
%LPD*%
G04 APERTURE LIST*
%ADD10C,4.000000*%
%ADD11C,1.400000*%
%ADD12C,0.100000*%
%ADD13R,6.000000X6.000000*%
%ADD14R,0.900000X0.250000*%
%ADD15R,0.250000X0.900000*%
%ADD16O,1.700000X1.700000*%
%ADD17R,1.700000X1.700000*%
%ADD18C,0.600000*%
%ADD19C,0.250000*%
%ADD20C,0.200000*%
%ADD21C,0.254000*%
G04 APERTURE END LIST*
D10*
X150000000Y-118000000D03*
D11*
X142240000Y-105220000D03*
X142240000Y-107760000D03*
X142240000Y-110300000D03*
X142240000Y-112840000D03*
X142240000Y-115380000D03*
X142240000Y-117920000D03*
X142240000Y-120460000D03*
X142240000Y-123000000D03*
G04 #@! TA.AperFunction,SMDPad,CuDef*
D12*
G36*
X153731958Y-114680710D02*
G01*
X153746276Y-114682834D01*
X153760317Y-114686351D01*
X153773946Y-114691228D01*
X153787031Y-114697417D01*
X153799447Y-114704858D01*
X153811073Y-114713481D01*
X153821798Y-114723202D01*
X153831519Y-114733927D01*
X153840142Y-114745553D01*
X153847583Y-114757969D01*
X153853772Y-114771054D01*
X153858649Y-114784683D01*
X153862166Y-114798724D01*
X153864290Y-114813042D01*
X153865000Y-114827500D01*
X153865000Y-115172500D01*
X153864290Y-115186958D01*
X153862166Y-115201276D01*
X153858649Y-115215317D01*
X153853772Y-115228946D01*
X153847583Y-115242031D01*
X153840142Y-115254447D01*
X153831519Y-115266073D01*
X153821798Y-115276798D01*
X153811073Y-115286519D01*
X153799447Y-115295142D01*
X153787031Y-115302583D01*
X153773946Y-115308772D01*
X153760317Y-115313649D01*
X153746276Y-115317166D01*
X153731958Y-115319290D01*
X153717500Y-115320000D01*
X153422500Y-115320000D01*
X153408042Y-115319290D01*
X153393724Y-115317166D01*
X153379683Y-115313649D01*
X153366054Y-115308772D01*
X153352969Y-115302583D01*
X153340553Y-115295142D01*
X153328927Y-115286519D01*
X153318202Y-115276798D01*
X153308481Y-115266073D01*
X153299858Y-115254447D01*
X153292417Y-115242031D01*
X153286228Y-115228946D01*
X153281351Y-115215317D01*
X153277834Y-115201276D01*
X153275710Y-115186958D01*
X153275000Y-115172500D01*
X153275000Y-114827500D01*
X153275710Y-114813042D01*
X153277834Y-114798724D01*
X153281351Y-114784683D01*
X153286228Y-114771054D01*
X153292417Y-114757969D01*
X153299858Y-114745553D01*
X153308481Y-114733927D01*
X153318202Y-114723202D01*
X153328927Y-114713481D01*
X153340553Y-114704858D01*
X153352969Y-114697417D01*
X153366054Y-114691228D01*
X153379683Y-114686351D01*
X153393724Y-114682834D01*
X153408042Y-114680710D01*
X153422500Y-114680000D01*
X153717500Y-114680000D01*
X153731958Y-114680710D01*
G37*
G04 #@! TD.AperFunction*
G04 #@! TA.AperFunction,SMDPad,CuDef*
G36*
X152761958Y-114680710D02*
G01*
X152776276Y-114682834D01*
X152790317Y-114686351D01*
X152803946Y-114691228D01*
X152817031Y-114697417D01*
X152829447Y-114704858D01*
X152841073Y-114713481D01*
X152851798Y-114723202D01*
X152861519Y-114733927D01*
X152870142Y-114745553D01*
X152877583Y-114757969D01*
X152883772Y-114771054D01*
X152888649Y-114784683D01*
X152892166Y-114798724D01*
X152894290Y-114813042D01*
X152895000Y-114827500D01*
X152895000Y-115172500D01*
X152894290Y-115186958D01*
X152892166Y-115201276D01*
X152888649Y-115215317D01*
X152883772Y-115228946D01*
X152877583Y-115242031D01*
X152870142Y-115254447D01*
X152861519Y-115266073D01*
X152851798Y-115276798D01*
X152841073Y-115286519D01*
X152829447Y-115295142D01*
X152817031Y-115302583D01*
X152803946Y-115308772D01*
X152790317Y-115313649D01*
X152776276Y-115317166D01*
X152761958Y-115319290D01*
X152747500Y-115320000D01*
X152452500Y-115320000D01*
X152438042Y-115319290D01*
X152423724Y-115317166D01*
X152409683Y-115313649D01*
X152396054Y-115308772D01*
X152382969Y-115302583D01*
X152370553Y-115295142D01*
X152358927Y-115286519D01*
X152348202Y-115276798D01*
X152338481Y-115266073D01*
X152329858Y-115254447D01*
X152322417Y-115242031D01*
X152316228Y-115228946D01*
X152311351Y-115215317D01*
X152307834Y-115201276D01*
X152305710Y-115186958D01*
X152305000Y-115172500D01*
X152305000Y-114827500D01*
X152305710Y-114813042D01*
X152307834Y-114798724D01*
X152311351Y-114784683D01*
X152316228Y-114771054D01*
X152322417Y-114757969D01*
X152329858Y-114745553D01*
X152338481Y-114733927D01*
X152348202Y-114723202D01*
X152358927Y-114713481D01*
X152370553Y-114704858D01*
X152382969Y-114697417D01*
X152396054Y-114691228D01*
X152409683Y-114686351D01*
X152423724Y-114682834D01*
X152438042Y-114680710D01*
X152452500Y-114680000D01*
X152747500Y-114680000D01*
X152761958Y-114680710D01*
G37*
G04 #@! TD.AperFunction*
D10*
X150000000Y-83000000D03*
D13*
X150000000Y-109000000D03*
D14*
X154050000Y-105750000D03*
X154050000Y-106250000D03*
X154050000Y-106750000D03*
X154050000Y-107250000D03*
X154050000Y-107750000D03*
X154050000Y-108250000D03*
X154050000Y-108750000D03*
X154050000Y-109250000D03*
X154050000Y-109750000D03*
X154050000Y-110250000D03*
X154050000Y-110750000D03*
X154050000Y-111250000D03*
X154050000Y-111750000D03*
X154050000Y-112250000D03*
X145950000Y-112250000D03*
X145950000Y-111750000D03*
X145950000Y-111250000D03*
X145950000Y-110750000D03*
X145950000Y-110250000D03*
X145950000Y-109750000D03*
X145950000Y-109250000D03*
X145950000Y-108750000D03*
X145950000Y-108250000D03*
X145950000Y-107750000D03*
X145950000Y-107250000D03*
X145950000Y-106750000D03*
X145950000Y-106250000D03*
X145950000Y-105750000D03*
D15*
X153250000Y-113050000D03*
X152750000Y-113050000D03*
X152250000Y-113050000D03*
X151750000Y-113050000D03*
X151250000Y-113050000D03*
X150750000Y-113050000D03*
X150250000Y-113050000D03*
X149750000Y-113050000D03*
X149250000Y-113050000D03*
X148750000Y-113050000D03*
X148250000Y-113050000D03*
X147750000Y-113050000D03*
X147250000Y-113050000D03*
X146750000Y-113050000D03*
X146750000Y-104950000D03*
X147250000Y-104950000D03*
X147750000Y-104950000D03*
X148250000Y-104950000D03*
X148750000Y-104950000D03*
X149250000Y-104950000D03*
X149750000Y-104950000D03*
X150250000Y-104950000D03*
X150750000Y-104950000D03*
X151250000Y-104950000D03*
X151750000Y-104950000D03*
X152250000Y-104950000D03*
X152750000Y-104950000D03*
X153250000Y-104950000D03*
D10*
X150000000Y-100500000D03*
G04 #@! TA.AperFunction,SMDPad,CuDef*
D12*
G36*
X150646958Y-114680710D02*
G01*
X150661276Y-114682834D01*
X150675317Y-114686351D01*
X150688946Y-114691228D01*
X150702031Y-114697417D01*
X150714447Y-114704858D01*
X150726073Y-114713481D01*
X150736798Y-114723202D01*
X150746519Y-114733927D01*
X150755142Y-114745553D01*
X150762583Y-114757969D01*
X150768772Y-114771054D01*
X150773649Y-114784683D01*
X150777166Y-114798724D01*
X150779290Y-114813042D01*
X150780000Y-114827500D01*
X150780000Y-115172500D01*
X150779290Y-115186958D01*
X150777166Y-115201276D01*
X150773649Y-115215317D01*
X150768772Y-115228946D01*
X150762583Y-115242031D01*
X150755142Y-115254447D01*
X150746519Y-115266073D01*
X150736798Y-115276798D01*
X150726073Y-115286519D01*
X150714447Y-115295142D01*
X150702031Y-115302583D01*
X150688946Y-115308772D01*
X150675317Y-115313649D01*
X150661276Y-115317166D01*
X150646958Y-115319290D01*
X150632500Y-115320000D01*
X150337500Y-115320000D01*
X150323042Y-115319290D01*
X150308724Y-115317166D01*
X150294683Y-115313649D01*
X150281054Y-115308772D01*
X150267969Y-115302583D01*
X150255553Y-115295142D01*
X150243927Y-115286519D01*
X150233202Y-115276798D01*
X150223481Y-115266073D01*
X150214858Y-115254447D01*
X150207417Y-115242031D01*
X150201228Y-115228946D01*
X150196351Y-115215317D01*
X150192834Y-115201276D01*
X150190710Y-115186958D01*
X150190000Y-115172500D01*
X150190000Y-114827500D01*
X150190710Y-114813042D01*
X150192834Y-114798724D01*
X150196351Y-114784683D01*
X150201228Y-114771054D01*
X150207417Y-114757969D01*
X150214858Y-114745553D01*
X150223481Y-114733927D01*
X150233202Y-114723202D01*
X150243927Y-114713481D01*
X150255553Y-114704858D01*
X150267969Y-114697417D01*
X150281054Y-114691228D01*
X150294683Y-114686351D01*
X150308724Y-114682834D01*
X150323042Y-114680710D01*
X150337500Y-114680000D01*
X150632500Y-114680000D01*
X150646958Y-114680710D01*
G37*
G04 #@! TD.AperFunction*
G04 #@! TA.AperFunction,SMDPad,CuDef*
G36*
X149676958Y-114680710D02*
G01*
X149691276Y-114682834D01*
X149705317Y-114686351D01*
X149718946Y-114691228D01*
X149732031Y-114697417D01*
X149744447Y-114704858D01*
X149756073Y-114713481D01*
X149766798Y-114723202D01*
X149776519Y-114733927D01*
X149785142Y-114745553D01*
X149792583Y-114757969D01*
X149798772Y-114771054D01*
X149803649Y-114784683D01*
X149807166Y-114798724D01*
X149809290Y-114813042D01*
X149810000Y-114827500D01*
X149810000Y-115172500D01*
X149809290Y-115186958D01*
X149807166Y-115201276D01*
X149803649Y-115215317D01*
X149798772Y-115228946D01*
X149792583Y-115242031D01*
X149785142Y-115254447D01*
X149776519Y-115266073D01*
X149766798Y-115276798D01*
X149756073Y-115286519D01*
X149744447Y-115295142D01*
X149732031Y-115302583D01*
X149718946Y-115308772D01*
X149705317Y-115313649D01*
X149691276Y-115317166D01*
X149676958Y-115319290D01*
X149662500Y-115320000D01*
X149367500Y-115320000D01*
X149353042Y-115319290D01*
X149338724Y-115317166D01*
X149324683Y-115313649D01*
X149311054Y-115308772D01*
X149297969Y-115302583D01*
X149285553Y-115295142D01*
X149273927Y-115286519D01*
X149263202Y-115276798D01*
X149253481Y-115266073D01*
X149244858Y-115254447D01*
X149237417Y-115242031D01*
X149231228Y-115228946D01*
X149226351Y-115215317D01*
X149222834Y-115201276D01*
X149220710Y-115186958D01*
X149220000Y-115172500D01*
X149220000Y-114827500D01*
X149220710Y-114813042D01*
X149222834Y-114798724D01*
X149226351Y-114784683D01*
X149231228Y-114771054D01*
X149237417Y-114757969D01*
X149244858Y-114745553D01*
X149253481Y-114733927D01*
X149263202Y-114723202D01*
X149273927Y-114713481D01*
X149285553Y-114704858D01*
X149297969Y-114697417D01*
X149311054Y-114691228D01*
X149324683Y-114686351D01*
X149338724Y-114682834D01*
X149353042Y-114680710D01*
X149367500Y-114680000D01*
X149662500Y-114680000D01*
X149676958Y-114680710D01*
G37*
G04 #@! TD.AperFunction*
G04 #@! TA.AperFunction,SMDPad,CuDef*
G36*
X154986958Y-113620710D02*
G01*
X155001276Y-113622834D01*
X155015317Y-113626351D01*
X155028946Y-113631228D01*
X155042031Y-113637417D01*
X155054447Y-113644858D01*
X155066073Y-113653481D01*
X155076798Y-113663202D01*
X155086519Y-113673927D01*
X155095142Y-113685553D01*
X155102583Y-113697969D01*
X155108772Y-113711054D01*
X155113649Y-113724683D01*
X155117166Y-113738724D01*
X155119290Y-113753042D01*
X155120000Y-113767500D01*
X155120000Y-114062500D01*
X155119290Y-114076958D01*
X155117166Y-114091276D01*
X155113649Y-114105317D01*
X155108772Y-114118946D01*
X155102583Y-114132031D01*
X155095142Y-114144447D01*
X155086519Y-114156073D01*
X155076798Y-114166798D01*
X155066073Y-114176519D01*
X155054447Y-114185142D01*
X155042031Y-114192583D01*
X155028946Y-114198772D01*
X155015317Y-114203649D01*
X155001276Y-114207166D01*
X154986958Y-114209290D01*
X154972500Y-114210000D01*
X154627500Y-114210000D01*
X154613042Y-114209290D01*
X154598724Y-114207166D01*
X154584683Y-114203649D01*
X154571054Y-114198772D01*
X154557969Y-114192583D01*
X154545553Y-114185142D01*
X154533927Y-114176519D01*
X154523202Y-114166798D01*
X154513481Y-114156073D01*
X154504858Y-114144447D01*
X154497417Y-114132031D01*
X154491228Y-114118946D01*
X154486351Y-114105317D01*
X154482834Y-114091276D01*
X154480710Y-114076958D01*
X154480000Y-114062500D01*
X154480000Y-113767500D01*
X154480710Y-113753042D01*
X154482834Y-113738724D01*
X154486351Y-113724683D01*
X154491228Y-113711054D01*
X154497417Y-113697969D01*
X154504858Y-113685553D01*
X154513481Y-113673927D01*
X154523202Y-113663202D01*
X154533927Y-113653481D01*
X154545553Y-113644858D01*
X154557969Y-113637417D01*
X154571054Y-113631228D01*
X154584683Y-113626351D01*
X154598724Y-113622834D01*
X154613042Y-113620710D01*
X154627500Y-113620000D01*
X154972500Y-113620000D01*
X154986958Y-113620710D01*
G37*
G04 #@! TD.AperFunction*
G04 #@! TA.AperFunction,SMDPad,CuDef*
G36*
X154986958Y-114590710D02*
G01*
X155001276Y-114592834D01*
X155015317Y-114596351D01*
X155028946Y-114601228D01*
X155042031Y-114607417D01*
X155054447Y-114614858D01*
X155066073Y-114623481D01*
X155076798Y-114633202D01*
X155086519Y-114643927D01*
X155095142Y-114655553D01*
X155102583Y-114667969D01*
X155108772Y-114681054D01*
X155113649Y-114694683D01*
X155117166Y-114708724D01*
X155119290Y-114723042D01*
X155120000Y-114737500D01*
X155120000Y-115032500D01*
X155119290Y-115046958D01*
X155117166Y-115061276D01*
X155113649Y-115075317D01*
X155108772Y-115088946D01*
X155102583Y-115102031D01*
X155095142Y-115114447D01*
X155086519Y-115126073D01*
X155076798Y-115136798D01*
X155066073Y-115146519D01*
X155054447Y-115155142D01*
X155042031Y-115162583D01*
X155028946Y-115168772D01*
X155015317Y-115173649D01*
X155001276Y-115177166D01*
X154986958Y-115179290D01*
X154972500Y-115180000D01*
X154627500Y-115180000D01*
X154613042Y-115179290D01*
X154598724Y-115177166D01*
X154584683Y-115173649D01*
X154571054Y-115168772D01*
X154557969Y-115162583D01*
X154545553Y-115155142D01*
X154533927Y-115146519D01*
X154523202Y-115136798D01*
X154513481Y-115126073D01*
X154504858Y-115114447D01*
X154497417Y-115102031D01*
X154491228Y-115088946D01*
X154486351Y-115075317D01*
X154482834Y-115061276D01*
X154480710Y-115046958D01*
X154480000Y-115032500D01*
X154480000Y-114737500D01*
X154480710Y-114723042D01*
X154482834Y-114708724D01*
X154486351Y-114694683D01*
X154491228Y-114681054D01*
X154497417Y-114667969D01*
X154504858Y-114655553D01*
X154513481Y-114643927D01*
X154523202Y-114633202D01*
X154533927Y-114623481D01*
X154545553Y-114614858D01*
X154557969Y-114607417D01*
X154571054Y-114601228D01*
X154584683Y-114596351D01*
X154598724Y-114592834D01*
X154613042Y-114590710D01*
X154627500Y-114590000D01*
X154972500Y-114590000D01*
X154986958Y-114590710D01*
G37*
G04 #@! TD.AperFunction*
D16*
X147460000Y-126540000D03*
X147460000Y-124000000D03*
X150000000Y-126540000D03*
X150000000Y-124000000D03*
X152540000Y-126540000D03*
D17*
X152540000Y-124000000D03*
D11*
X142240000Y-83220000D03*
X142240000Y-85760000D03*
X142240000Y-88300000D03*
X142240000Y-90840000D03*
X142240000Y-93380000D03*
X142240000Y-95920000D03*
X142240000Y-98460000D03*
X142240000Y-101000000D03*
X157480000Y-100780000D03*
X157480000Y-98240000D03*
X157480000Y-95700000D03*
X157480000Y-93160000D03*
X157480000Y-90620000D03*
X157480000Y-88080000D03*
X157480000Y-85540000D03*
X157480000Y-83000000D03*
X157480000Y-122780000D03*
X157480000Y-120240000D03*
X157480000Y-117700000D03*
X157480000Y-115160000D03*
X157480000Y-112620000D03*
X157480000Y-110080000D03*
X157480000Y-107540000D03*
X157480000Y-105000000D03*
D18*
X152350000Y-114000000D03*
X144970500Y-112014000D03*
X148718351Y-115020192D03*
X154798957Y-112800000D03*
X150000000Y-109000000D03*
X148000000Y-107000000D03*
X150000000Y-109000000D03*
X152000000Y-107000000D03*
X152000000Y-111000000D03*
X148000000Y-111000000D03*
X153860500Y-113982500D03*
D19*
X152250000Y-112950000D02*
X152299999Y-112900001D01*
X152250000Y-113050000D02*
X152250000Y-112950000D01*
X152250000Y-113050000D02*
X152250000Y-113900000D01*
X152250000Y-113900000D02*
X152350000Y-114000000D01*
X145950000Y-111750000D02*
X145234500Y-111750000D01*
X145234500Y-111750000D02*
X144970500Y-112014000D01*
X149515000Y-115000000D02*
X148738543Y-115000000D01*
X148738543Y-115000000D02*
X148718351Y-115020192D01*
X154798957Y-114113957D02*
X154798957Y-113224264D01*
X154798957Y-113224264D02*
X154798957Y-112800000D01*
X154800000Y-114115000D02*
X154798957Y-114113957D01*
X154050000Y-111250000D02*
X154627296Y-111250000D01*
X154825001Y-111447705D02*
X154825001Y-112773956D01*
X154825001Y-112773956D02*
X154798957Y-112800000D01*
X154627296Y-111250000D02*
X154825001Y-111447705D01*
X154050000Y-111750000D02*
X154050000Y-112250000D01*
X150485000Y-117515000D02*
X150485000Y-115000000D01*
X150000000Y-118000000D02*
X150485000Y-117515000D01*
X150000000Y-109000000D02*
X152000000Y-107000000D01*
X150000000Y-109000000D02*
X152000000Y-111000000D01*
X150000000Y-109000000D02*
X148000000Y-111000000D01*
X148250000Y-110750000D02*
X150000000Y-109000000D01*
X145950000Y-110750000D02*
X148250000Y-110750000D01*
X148750000Y-110250000D02*
X150000000Y-109000000D01*
X145950000Y-110250000D02*
X148750000Y-110250000D01*
X147750000Y-111250000D02*
X148000000Y-111000000D01*
X145950000Y-111250000D02*
X147750000Y-111250000D01*
X147750000Y-111250000D02*
X150000000Y-109000000D01*
X147750000Y-113050000D02*
X147750000Y-111250000D01*
X151750000Y-110750000D02*
X150000000Y-109000000D01*
X154050000Y-110750000D02*
X151750000Y-110750000D01*
X152750000Y-111750000D02*
X150000000Y-109000000D01*
X154050000Y-111750000D02*
X152750000Y-111750000D01*
X150100000Y-109000000D02*
X150000000Y-109000000D01*
X153350000Y-112250000D02*
X150100000Y-109000000D01*
X154050000Y-112250000D02*
X153350000Y-112250000D01*
X153865000Y-115000000D02*
X153570000Y-115000000D01*
X153985000Y-114880000D02*
X153865000Y-115000000D01*
X154190000Y-115085000D02*
X154800000Y-115085000D01*
X153985000Y-114880000D02*
X154190000Y-115085000D01*
X153985000Y-114500000D02*
X153985000Y-114880000D01*
X153860500Y-113982500D02*
X153985000Y-114500000D01*
X153860500Y-112458500D02*
X153985000Y-112015000D01*
X153860500Y-113982500D02*
X153860500Y-112458500D01*
D20*
X153250000Y-114265000D02*
X153250000Y-113050000D01*
X153015000Y-114500000D02*
X153250000Y-114265000D01*
X152600000Y-114680000D02*
X152600000Y-115000000D01*
X152780000Y-114500000D02*
X152600000Y-114680000D01*
X153015000Y-114500000D02*
X152780000Y-114500000D01*
X151750000Y-115150000D02*
X153163410Y-116563410D01*
X151750000Y-113050000D02*
X151750000Y-115150000D01*
X153163410Y-116563410D02*
X153163410Y-120902590D01*
X153163410Y-120902590D02*
X151300009Y-122765991D01*
X151300009Y-122765991D02*
X151300009Y-125300009D01*
X151690001Y-125690001D02*
X152540000Y-126540000D01*
X151300009Y-125300009D02*
X151690001Y-125690001D01*
X150849999Y-123150001D02*
X150849999Y-122454001D01*
X150750000Y-113700000D02*
X150750000Y-113050000D01*
X151257000Y-114207000D02*
X150750000Y-113700000D01*
X150849999Y-122454001D02*
X152527000Y-120777000D01*
X150000000Y-124000000D02*
X150849999Y-123150001D01*
X152527000Y-120777000D02*
X152527000Y-116527000D01*
X152527000Y-116527000D02*
X151257000Y-115257000D01*
X151257000Y-115257000D02*
X151257000Y-114207000D01*
X149150001Y-125690001D02*
X150000000Y-126540000D01*
X148824999Y-122916999D02*
X148824999Y-125364999D01*
X147500000Y-121592000D02*
X148824999Y-122916999D01*
X147500000Y-115390000D02*
X147500000Y-121592000D01*
X148971000Y-113919000D02*
X147500000Y-115390000D01*
X148824999Y-125364999D02*
X149150001Y-125690001D01*
X149406002Y-113919000D02*
X148971000Y-113919000D01*
X149750000Y-113050000D02*
X149750000Y-113575002D01*
X149750000Y-113575002D02*
X149406002Y-113919000D01*
X148750000Y-113555010D02*
X148750000Y-113050000D01*
X146610001Y-115695009D02*
X148750000Y-113555010D01*
X146610001Y-123150001D02*
X146610001Y-115695009D01*
X147460000Y-124000000D02*
X146610001Y-123150001D01*
X144370498Y-120869502D02*
X142939999Y-122300001D01*
X145950000Y-109750000D02*
X145202500Y-109750000D01*
X142939999Y-122300001D02*
X142240000Y-123000000D01*
X145202500Y-109750000D02*
X144739540Y-110212960D01*
X144739540Y-110212960D02*
X144739540Y-111186425D01*
X144739540Y-111186425D02*
X144370498Y-111555464D01*
X144370498Y-111555464D02*
X144370498Y-120869502D01*
X144015487Y-118684513D02*
X142939999Y-119760001D01*
X144384529Y-111039375D02*
X144015487Y-111408414D01*
X145950000Y-109250000D02*
X145200439Y-109250000D01*
X144384529Y-110065910D02*
X144384529Y-111039375D01*
X145200439Y-109250000D02*
X144384529Y-110065910D01*
X144015487Y-111408414D02*
X144015487Y-118684513D01*
X142939999Y-119760001D02*
X142240000Y-120460000D01*
X145950000Y-108750000D02*
X145198378Y-108750000D01*
X142939999Y-117220001D02*
X142240000Y-117920000D01*
X143660476Y-111261364D02*
X143660476Y-116499524D01*
X144029518Y-109918860D02*
X144029518Y-110892324D01*
X144029518Y-110892324D02*
X143660476Y-111261364D01*
X143660476Y-116499524D02*
X142939999Y-117220001D01*
X145198378Y-108750000D02*
X144029518Y-109918860D01*
X142939999Y-114680001D02*
X142240000Y-115380000D01*
X143305465Y-111114314D02*
X143305465Y-114314535D01*
X143305465Y-114314535D02*
X142939999Y-114680001D01*
X143674507Y-110745273D02*
X143305465Y-111114314D01*
X143674507Y-109771810D02*
X143674507Y-110745273D01*
X145950000Y-108250000D02*
X145196317Y-108250000D01*
X145196317Y-108250000D02*
X143674507Y-109771810D01*
X145950000Y-107750000D02*
X145194256Y-107750000D01*
X143319496Y-110598223D02*
X142240000Y-111677719D01*
X145194256Y-107750000D02*
X143319496Y-109624760D01*
X143319496Y-109624760D02*
X143319496Y-110598223D01*
X142240000Y-111850051D02*
X142240000Y-112840000D01*
X142240000Y-111677719D02*
X142240000Y-111850051D01*
X144613589Y-107250000D02*
X142240000Y-109623589D01*
X142240000Y-109623589D02*
X142240000Y-110300000D01*
X145950000Y-107250000D02*
X144613589Y-107250000D01*
X143250000Y-106750000D02*
X142240000Y-107760000D01*
X145950000Y-106750000D02*
X143250000Y-106750000D01*
X143270000Y-106250000D02*
X142240000Y-105220000D01*
X145950000Y-106250000D02*
X143270000Y-106250000D01*
X147000000Y-87980000D02*
X142240000Y-83220000D01*
X150000000Y-90980000D02*
X147000000Y-87980000D01*
X150000000Y-90980000D02*
X150000000Y-83000000D01*
X149750000Y-104950000D02*
X149750000Y-104256788D01*
X150474945Y-103509071D02*
X152500000Y-101484016D01*
X152500000Y-101484016D02*
X152500000Y-93480000D01*
X150474945Y-103531843D02*
X150474945Y-103509071D01*
X152500000Y-93480000D02*
X150000000Y-90980000D01*
X149750000Y-104256788D02*
X150474945Y-103531843D01*
X149250000Y-104950000D02*
X149250000Y-104250002D01*
X150000000Y-103500000D02*
X150000000Y-100000000D01*
X149250000Y-104250002D02*
X149250000Y-104250000D01*
X149250000Y-104250000D02*
X150000000Y-103500000D01*
X149250000Y-104250002D02*
X149250000Y-104242929D01*
X148507072Y-103500001D02*
X148499999Y-103500001D01*
X149250000Y-104242929D02*
X148507072Y-103500001D01*
X142939999Y-86459999D02*
X142240000Y-85760000D01*
X145000000Y-88520000D02*
X142939999Y-86459999D01*
X148500000Y-103478500D02*
X145000000Y-99978500D01*
X148500000Y-103500000D02*
X148500000Y-103478500D01*
X145000000Y-99978500D02*
X145000000Y-88520000D01*
X148750000Y-104950000D02*
X148750000Y-104252061D01*
X148750000Y-104252061D02*
X144644989Y-100147050D01*
X144644989Y-100147050D02*
X144644989Y-90704989D01*
X144644989Y-90704989D02*
X142939999Y-88999999D01*
X142939999Y-88999999D02*
X142240000Y-88300000D01*
X148250000Y-104254122D02*
X144289978Y-100294100D01*
X144289978Y-100294100D02*
X144289978Y-92889978D01*
X142939999Y-91539999D02*
X142240000Y-90840000D01*
X144289978Y-92889978D02*
X142939999Y-91539999D01*
X148250000Y-104950000D02*
X148250000Y-104254122D01*
X147750000Y-104256182D02*
X143934967Y-100441149D01*
X142939999Y-94079999D02*
X142240000Y-93380000D01*
X143934967Y-95074967D02*
X142939999Y-94079999D01*
X143934967Y-100441149D02*
X143934967Y-95074967D01*
X147750000Y-104950000D02*
X147750000Y-104256182D01*
X147250000Y-104950000D02*
X147250000Y-104258245D01*
X142939999Y-96619999D02*
X142240000Y-95920000D01*
X143579956Y-100588201D02*
X143579956Y-97259956D01*
X147250000Y-104258245D02*
X143579956Y-100588201D01*
X143579956Y-97259956D02*
X142939999Y-96619999D01*
X146750000Y-104300000D02*
X143224945Y-100774945D01*
X142939999Y-99159999D02*
X142240000Y-98460000D01*
X143224945Y-100774945D02*
X143224945Y-99444945D01*
X143224945Y-99444945D02*
X142939999Y-99159999D01*
X146750000Y-104950000D02*
X146750000Y-104300000D01*
X145950000Y-105750000D02*
X145950000Y-104710000D01*
X145950000Y-104710000D02*
X142939999Y-101699999D01*
X142939999Y-101699999D02*
X142240000Y-101000000D01*
X150250000Y-104950000D02*
X150250000Y-104258849D01*
X150250000Y-104258849D02*
X150829956Y-103678893D01*
X150829956Y-103656126D02*
X153970000Y-100516082D01*
X150829956Y-103678893D02*
X150829956Y-103656126D01*
X153970000Y-100516082D02*
X153970000Y-86510000D01*
X153970000Y-86510000D02*
X156780001Y-83699999D01*
X156780001Y-83699999D02*
X157480000Y-83000000D01*
X151184967Y-103803175D02*
X154325011Y-100663131D01*
X154325011Y-88694989D02*
X156780001Y-86239999D01*
X154325011Y-100663131D02*
X154325011Y-88694989D01*
X156780001Y-86239999D02*
X157480000Y-85540000D01*
X150750000Y-104260910D02*
X151184967Y-103825943D01*
X150750000Y-104950000D02*
X150750000Y-104260910D01*
X151184967Y-103825943D02*
X151184967Y-103803175D01*
X151539978Y-103950223D02*
X154680022Y-100810179D01*
X156780001Y-88779999D02*
X157480000Y-88080000D01*
X151250000Y-104950000D02*
X151250000Y-104262970D01*
X151539978Y-103972992D02*
X151539978Y-103950223D01*
X151250000Y-104262970D02*
X151539978Y-103972992D01*
X154680022Y-90879978D02*
X156780001Y-88779999D01*
X154680022Y-100810179D02*
X154680022Y-90879978D01*
X155035033Y-100957227D02*
X155035033Y-93064967D01*
X151750000Y-104265030D02*
X151894989Y-104120041D01*
X151750000Y-104950000D02*
X151750000Y-104265030D01*
X155035033Y-93064967D02*
X156780001Y-91319999D01*
X151894989Y-104097271D02*
X155035033Y-100957227D01*
X151894989Y-104120041D02*
X151894989Y-104097271D01*
X156780001Y-91319999D02*
X157480000Y-90620000D01*
X152250000Y-104950000D02*
X152250000Y-104244320D01*
X155390044Y-101104276D02*
X155390044Y-95249956D01*
X152250000Y-104244320D02*
X155390044Y-101104276D01*
X156780001Y-93859999D02*
X157480000Y-93160000D01*
X155390044Y-95249956D02*
X156780001Y-93859999D01*
X155745055Y-101251325D02*
X155745055Y-97434945D01*
X156780001Y-96399999D02*
X157480000Y-95700000D01*
X152750000Y-104950000D02*
X152750000Y-104246380D01*
X152750000Y-104246380D02*
X155745055Y-101251325D01*
X155745055Y-97434945D02*
X156780001Y-96399999D01*
X156100066Y-101398374D02*
X156100066Y-99619934D01*
X153250000Y-104950000D02*
X153250000Y-104248440D01*
X153250000Y-104248440D02*
X156100066Y-101398374D01*
X156780001Y-98939999D02*
X157480000Y-98240000D01*
X156100066Y-99619934D02*
X156780001Y-98939999D01*
X157220500Y-100780000D02*
X157480000Y-100780000D01*
X154050000Y-103950500D02*
X157220500Y-100780000D01*
X154050000Y-105750000D02*
X154050000Y-103950500D01*
X155479969Y-113539554D02*
X155479969Y-120779969D01*
X155398967Y-111420615D02*
X155398967Y-113458552D01*
X154916959Y-110921331D02*
X155104957Y-111109329D01*
X156780001Y-122080001D02*
X157480000Y-122780000D01*
X154050000Y-109750000D02*
X154691762Y-109750000D01*
X155104957Y-111109329D02*
X155104958Y-111126607D01*
X154916959Y-109975197D02*
X154916959Y-110921331D01*
X155104958Y-111126607D02*
X155398967Y-111420615D01*
X155398967Y-113458552D02*
X155479969Y-113539554D01*
X155479969Y-120779969D02*
X156780001Y-122080001D01*
X154691762Y-109750000D02*
X154916959Y-109975197D01*
X154693822Y-109250000D02*
X155459968Y-110016146D01*
X156780001Y-119540001D02*
X157480000Y-120240000D01*
X155753978Y-111273564D02*
X155753978Y-113311502D01*
X155459968Y-110979555D02*
X155753978Y-111273564D01*
X155753978Y-113311502D02*
X155950011Y-113507535D01*
X155459968Y-110016146D02*
X155459968Y-110979555D01*
X155950011Y-113507535D02*
X155950011Y-118710011D01*
X155950011Y-118710011D02*
X156780001Y-119540001D01*
X154050000Y-109250000D02*
X154693822Y-109250000D01*
X154050000Y-108750000D02*
X154695882Y-108750000D01*
X154695882Y-108750000D02*
X155814977Y-109869095D01*
X155814977Y-109869095D02*
X155814978Y-110832503D01*
X156108989Y-113164452D02*
X156350011Y-113405474D01*
X155814978Y-110832503D02*
X156108989Y-111126513D01*
X156350011Y-113405474D02*
X156350011Y-116570011D01*
X156350011Y-116570011D02*
X156780001Y-117000001D01*
X156108989Y-111126513D02*
X156108989Y-113164452D01*
X156780001Y-117000001D02*
X157480000Y-117700000D01*
X154050000Y-108250000D02*
X154700000Y-108250000D01*
X157480000Y-114170051D02*
X157480000Y-115160000D01*
X156464000Y-110979462D02*
X156464000Y-113010002D01*
X154700000Y-108250000D02*
X156169988Y-109719988D01*
X156169988Y-109719988D02*
X156169988Y-110685451D01*
X156169988Y-110685451D02*
X156464000Y-110979462D01*
X157480000Y-114026002D02*
X157480000Y-114170051D01*
X156464000Y-113010002D02*
X157480000Y-114026002D01*
X156524999Y-110538401D02*
X157480000Y-111493402D01*
X157480000Y-111493402D02*
X157480000Y-111630051D01*
X156524999Y-109572940D02*
X156524999Y-110538401D01*
X154050000Y-107750000D02*
X154702059Y-107750000D01*
X154702059Y-107750000D02*
X156524999Y-109572940D01*
X157480000Y-111630051D02*
X157480000Y-112620000D01*
X154050000Y-107250000D02*
X155250000Y-107250000D01*
X157480000Y-109480000D02*
X157480000Y-110080000D01*
X155250000Y-107250000D02*
X157480000Y-109480000D01*
X156630001Y-106690001D02*
X157480000Y-107540000D01*
X154309999Y-106690001D02*
X156630001Y-106690001D01*
X154050000Y-106750000D02*
X154250000Y-106750000D01*
X154250000Y-106750000D02*
X154309999Y-106690001D01*
X156230000Y-106250000D02*
X157480000Y-105000000D01*
X154050000Y-106250000D02*
X156230000Y-106250000D01*
D21*
G36*
X145255820Y-112964502D02*
G01*
X145375518Y-113000812D01*
X145500000Y-113013072D01*
X145986928Y-113013072D01*
X145986928Y-113500000D01*
X145999188Y-113624482D01*
X146035498Y-113744180D01*
X146094463Y-113854494D01*
X146173815Y-113951185D01*
X146270506Y-114030537D01*
X146380820Y-114089502D01*
X146500518Y-114125812D01*
X146625000Y-114138072D01*
X146875000Y-114138072D01*
X146999482Y-114125812D01*
X147000000Y-114125655D01*
X147000518Y-114125812D01*
X147125000Y-114138072D01*
X147127492Y-114138072D01*
X146115809Y-115149755D01*
X146087764Y-115172771D01*
X145995915Y-115284689D01*
X145944970Y-115380000D01*
X145927665Y-115412376D01*
X145885636Y-115550924D01*
X145871445Y-115695009D01*
X145875002Y-115731124D01*
X145875001Y-123113896D01*
X145871445Y-123150001D01*
X145885636Y-123294086D01*
X145888109Y-123302237D01*
X145927664Y-123432633D01*
X145995914Y-123560320D01*
X146026059Y-123597052D01*
X145975000Y-123853740D01*
X145975000Y-124146260D01*
X146032068Y-124433158D01*
X146144010Y-124703411D01*
X146306525Y-124946632D01*
X146513368Y-125153475D01*
X146689406Y-125271100D01*
X146459731Y-125442412D01*
X146264822Y-125658645D01*
X146115843Y-125908748D01*
X146018519Y-126183109D01*
X146139186Y-126413000D01*
X147333000Y-126413000D01*
X147333000Y-126393000D01*
X147587000Y-126393000D01*
X147587000Y-126413000D01*
X147607000Y-126413000D01*
X147607000Y-126667000D01*
X147587000Y-126667000D01*
X147587000Y-127860155D01*
X147816890Y-127981476D01*
X147964099Y-127936825D01*
X148226920Y-127811641D01*
X148460269Y-127637588D01*
X148655178Y-127421355D01*
X148724805Y-127304466D01*
X148846525Y-127486632D01*
X149053368Y-127693475D01*
X149296589Y-127855990D01*
X149566842Y-127967932D01*
X149853740Y-128025000D01*
X150146260Y-128025000D01*
X150433158Y-127967932D01*
X150703411Y-127855990D01*
X150946632Y-127693475D01*
X151153475Y-127486632D01*
X151270000Y-127312240D01*
X151386525Y-127486632D01*
X151593368Y-127693475D01*
X151836589Y-127855990D01*
X152106842Y-127967932D01*
X152393740Y-128025000D01*
X152686260Y-128025000D01*
X152973158Y-127967932D01*
X153243411Y-127855990D01*
X153486632Y-127693475D01*
X153693475Y-127486632D01*
X153855990Y-127243411D01*
X153967932Y-126973158D01*
X154025000Y-126686260D01*
X154025000Y-126393740D01*
X153967932Y-126106842D01*
X153855990Y-125836589D01*
X153693475Y-125593368D01*
X153561620Y-125461513D01*
X153634180Y-125439502D01*
X153744494Y-125380537D01*
X153841185Y-125301185D01*
X153920537Y-125204494D01*
X153979502Y-125094180D01*
X154015812Y-124974482D01*
X154028072Y-124850000D01*
X154028072Y-123150000D01*
X154015812Y-123025518D01*
X153979502Y-122905820D01*
X153920537Y-122795506D01*
X153841185Y-122698815D01*
X153744494Y-122619463D01*
X153634180Y-122560498D01*
X153514482Y-122524188D01*
X153390000Y-122511928D01*
X152593518Y-122511928D01*
X153657603Y-121447844D01*
X153685648Y-121424828D01*
X153777497Y-121312910D01*
X153845747Y-121185223D01*
X153887775Y-121046675D01*
X153898410Y-120938695D01*
X153901966Y-120902590D01*
X153898410Y-120866485D01*
X153898410Y-116599515D01*
X153901966Y-116563410D01*
X153887775Y-116419325D01*
X153845747Y-116280776D01*
X153777497Y-116153090D01*
X153708663Y-116069216D01*
X153708660Y-116069213D01*
X153685647Y-116041172D01*
X153657607Y-116018160D01*
X153594447Y-115955000D01*
X153697002Y-115955000D01*
X153697002Y-115796252D01*
X153855750Y-115955000D01*
X153865000Y-115958072D01*
X153989482Y-115945812D01*
X154109180Y-115909502D01*
X154219494Y-115850537D01*
X154295994Y-115787756D01*
X154355518Y-115805812D01*
X154480000Y-115818072D01*
X154514250Y-115815000D01*
X154672998Y-115656252D01*
X154672998Y-115815000D01*
X154744969Y-115815000D01*
X154744970Y-120743854D01*
X154741413Y-120779969D01*
X154755604Y-120924054D01*
X154792802Y-121046676D01*
X154797633Y-121062602D01*
X154865883Y-121190289D01*
X154957732Y-121302207D01*
X154985777Y-121325223D01*
X156172221Y-122511668D01*
X156145000Y-122648514D01*
X156145000Y-122911486D01*
X156196304Y-123169405D01*
X156296939Y-123412359D01*
X156443038Y-123631013D01*
X156628987Y-123816962D01*
X156847641Y-123963061D01*
X157090595Y-124063696D01*
X157348514Y-124115000D01*
X157611486Y-124115000D01*
X157869405Y-124063696D01*
X158112359Y-123963061D01*
X158331013Y-123816962D01*
X158340000Y-123807975D01*
X158340000Y-127726619D01*
X158131450Y-127935169D01*
X158185000Y-127665958D01*
X158185000Y-127334042D01*
X158120246Y-127008504D01*
X157993228Y-126701853D01*
X157808825Y-126425875D01*
X157574125Y-126191175D01*
X157298147Y-126006772D01*
X156991496Y-125879754D01*
X156665958Y-125815000D01*
X156334042Y-125815000D01*
X156008504Y-125879754D01*
X155701853Y-126006772D01*
X155425875Y-126191175D01*
X155191175Y-126425875D01*
X155006772Y-126701853D01*
X154879754Y-127008504D01*
X154815000Y-127334042D01*
X154815000Y-127665958D01*
X154879754Y-127991496D01*
X155006772Y-128298147D01*
X155191175Y-128574125D01*
X155425875Y-128808825D01*
X155701853Y-128993228D01*
X156008504Y-129120246D01*
X156334042Y-129185000D01*
X156665958Y-129185000D01*
X156935170Y-129131450D01*
X156726620Y-129340000D01*
X143273381Y-129340000D01*
X143064831Y-129131450D01*
X143334042Y-129185000D01*
X143665958Y-129185000D01*
X143991496Y-129120246D01*
X144298147Y-128993228D01*
X144574125Y-128808825D01*
X144808825Y-128574125D01*
X144993228Y-128298147D01*
X145120246Y-127991496D01*
X145185000Y-127665958D01*
X145185000Y-127334042D01*
X145120246Y-127008504D01*
X145074015Y-126896891D01*
X146018519Y-126896891D01*
X146115843Y-127171252D01*
X146264822Y-127421355D01*
X146459731Y-127637588D01*
X146693080Y-127811641D01*
X146955901Y-127936825D01*
X147103110Y-127981476D01*
X147333000Y-127860155D01*
X147333000Y-126667000D01*
X146139186Y-126667000D01*
X146018519Y-126896891D01*
X145074015Y-126896891D01*
X144993228Y-126701853D01*
X144808825Y-126425875D01*
X144574125Y-126191175D01*
X144298147Y-126006772D01*
X143991496Y-125879754D01*
X143665958Y-125815000D01*
X143334042Y-125815000D01*
X143008504Y-125879754D01*
X142701853Y-126006772D01*
X142425875Y-126191175D01*
X142191175Y-126425875D01*
X142006772Y-126701853D01*
X141879754Y-127008504D01*
X141815000Y-127334042D01*
X141815000Y-127665958D01*
X141868550Y-127935170D01*
X141660000Y-127726620D01*
X141660000Y-124204749D01*
X141850595Y-124283696D01*
X142108514Y-124335000D01*
X142371486Y-124335000D01*
X142629405Y-124283696D01*
X142872359Y-124183061D01*
X143091013Y-124036962D01*
X143276962Y-123851013D01*
X143423061Y-123632359D01*
X143523696Y-123389405D01*
X143575000Y-123131486D01*
X143575000Y-122868514D01*
X143547779Y-122731667D01*
X144864691Y-121414756D01*
X144892736Y-121391740D01*
X144984585Y-121279822D01*
X145052835Y-121152135D01*
X145094863Y-121013587D01*
X145098313Y-120978556D01*
X145109054Y-120869503D01*
X145105498Y-120833398D01*
X145105498Y-112940465D01*
X145182278Y-112925192D01*
X145255820Y-112964502D01*
G37*
X145255820Y-112964502D02*
X145375518Y-113000812D01*
X145500000Y-113013072D01*
X145986928Y-113013072D01*
X145986928Y-113500000D01*
X145999188Y-113624482D01*
X146035498Y-113744180D01*
X146094463Y-113854494D01*
X146173815Y-113951185D01*
X146270506Y-114030537D01*
X146380820Y-114089502D01*
X146500518Y-114125812D01*
X146625000Y-114138072D01*
X146875000Y-114138072D01*
X146999482Y-114125812D01*
X147000000Y-114125655D01*
X147000518Y-114125812D01*
X147125000Y-114138072D01*
X147127492Y-114138072D01*
X146115809Y-115149755D01*
X146087764Y-115172771D01*
X145995915Y-115284689D01*
X145944970Y-115380000D01*
X145927665Y-115412376D01*
X145885636Y-115550924D01*
X145871445Y-115695009D01*
X145875002Y-115731124D01*
X145875001Y-123113896D01*
X145871445Y-123150001D01*
X145885636Y-123294086D01*
X145888109Y-123302237D01*
X145927664Y-123432633D01*
X145995914Y-123560320D01*
X146026059Y-123597052D01*
X145975000Y-123853740D01*
X145975000Y-124146260D01*
X146032068Y-124433158D01*
X146144010Y-124703411D01*
X146306525Y-124946632D01*
X146513368Y-125153475D01*
X146689406Y-125271100D01*
X146459731Y-125442412D01*
X146264822Y-125658645D01*
X146115843Y-125908748D01*
X146018519Y-126183109D01*
X146139186Y-126413000D01*
X147333000Y-126413000D01*
X147333000Y-126393000D01*
X147587000Y-126393000D01*
X147587000Y-126413000D01*
X147607000Y-126413000D01*
X147607000Y-126667000D01*
X147587000Y-126667000D01*
X147587000Y-127860155D01*
X147816890Y-127981476D01*
X147964099Y-127936825D01*
X148226920Y-127811641D01*
X148460269Y-127637588D01*
X148655178Y-127421355D01*
X148724805Y-127304466D01*
X148846525Y-127486632D01*
X149053368Y-127693475D01*
X149296589Y-127855990D01*
X149566842Y-127967932D01*
X149853740Y-128025000D01*
X150146260Y-128025000D01*
X150433158Y-127967932D01*
X150703411Y-127855990D01*
X150946632Y-127693475D01*
X151153475Y-127486632D01*
X151270000Y-127312240D01*
X151386525Y-127486632D01*
X151593368Y-127693475D01*
X151836589Y-127855990D01*
X152106842Y-127967932D01*
X152393740Y-128025000D01*
X152686260Y-128025000D01*
X152973158Y-127967932D01*
X153243411Y-127855990D01*
X153486632Y-127693475D01*
X153693475Y-127486632D01*
X153855990Y-127243411D01*
X153967932Y-126973158D01*
X154025000Y-126686260D01*
X154025000Y-126393740D01*
X153967932Y-126106842D01*
X153855990Y-125836589D01*
X153693475Y-125593368D01*
X153561620Y-125461513D01*
X153634180Y-125439502D01*
X153744494Y-125380537D01*
X153841185Y-125301185D01*
X153920537Y-125204494D01*
X153979502Y-125094180D01*
X154015812Y-124974482D01*
X154028072Y-124850000D01*
X154028072Y-123150000D01*
X154015812Y-123025518D01*
X153979502Y-122905820D01*
X153920537Y-122795506D01*
X153841185Y-122698815D01*
X153744494Y-122619463D01*
X153634180Y-122560498D01*
X153514482Y-122524188D01*
X153390000Y-122511928D01*
X152593518Y-122511928D01*
X153657603Y-121447844D01*
X153685648Y-121424828D01*
X153777497Y-121312910D01*
X153845747Y-121185223D01*
X153887775Y-121046675D01*
X153898410Y-120938695D01*
X153901966Y-120902590D01*
X153898410Y-120866485D01*
X153898410Y-116599515D01*
X153901966Y-116563410D01*
X153887775Y-116419325D01*
X153845747Y-116280776D01*
X153777497Y-116153090D01*
X153708663Y-116069216D01*
X153708660Y-116069213D01*
X153685647Y-116041172D01*
X153657607Y-116018160D01*
X153594447Y-115955000D01*
X153697002Y-115955000D01*
X153697002Y-115796252D01*
X153855750Y-115955000D01*
X153865000Y-115958072D01*
X153989482Y-115945812D01*
X154109180Y-115909502D01*
X154219494Y-115850537D01*
X154295994Y-115787756D01*
X154355518Y-115805812D01*
X154480000Y-115818072D01*
X154514250Y-115815000D01*
X154672998Y-115656252D01*
X154672998Y-115815000D01*
X154744969Y-115815000D01*
X154744970Y-120743854D01*
X154741413Y-120779969D01*
X154755604Y-120924054D01*
X154792802Y-121046676D01*
X154797633Y-121062602D01*
X154865883Y-121190289D01*
X154957732Y-121302207D01*
X154985777Y-121325223D01*
X156172221Y-122511668D01*
X156145000Y-122648514D01*
X156145000Y-122911486D01*
X156196304Y-123169405D01*
X156296939Y-123412359D01*
X156443038Y-123631013D01*
X156628987Y-123816962D01*
X156847641Y-123963061D01*
X157090595Y-124063696D01*
X157348514Y-124115000D01*
X157611486Y-124115000D01*
X157869405Y-124063696D01*
X158112359Y-123963061D01*
X158331013Y-123816962D01*
X158340000Y-123807975D01*
X158340000Y-127726619D01*
X158131450Y-127935169D01*
X158185000Y-127665958D01*
X158185000Y-127334042D01*
X158120246Y-127008504D01*
X157993228Y-126701853D01*
X157808825Y-126425875D01*
X157574125Y-126191175D01*
X157298147Y-126006772D01*
X156991496Y-125879754D01*
X156665958Y-125815000D01*
X156334042Y-125815000D01*
X156008504Y-125879754D01*
X155701853Y-126006772D01*
X155425875Y-126191175D01*
X155191175Y-126425875D01*
X155006772Y-126701853D01*
X154879754Y-127008504D01*
X154815000Y-127334042D01*
X154815000Y-127665958D01*
X154879754Y-127991496D01*
X155006772Y-128298147D01*
X155191175Y-128574125D01*
X155425875Y-128808825D01*
X155701853Y-128993228D01*
X156008504Y-129120246D01*
X156334042Y-129185000D01*
X156665958Y-129185000D01*
X156935170Y-129131450D01*
X156726620Y-129340000D01*
X143273381Y-129340000D01*
X143064831Y-129131450D01*
X143334042Y-129185000D01*
X143665958Y-129185000D01*
X143991496Y-129120246D01*
X144298147Y-128993228D01*
X144574125Y-128808825D01*
X144808825Y-128574125D01*
X144993228Y-128298147D01*
X145120246Y-127991496D01*
X145185000Y-127665958D01*
X145185000Y-127334042D01*
X145120246Y-127008504D01*
X145074015Y-126896891D01*
X146018519Y-126896891D01*
X146115843Y-127171252D01*
X146264822Y-127421355D01*
X146459731Y-127637588D01*
X146693080Y-127811641D01*
X146955901Y-127936825D01*
X147103110Y-127981476D01*
X147333000Y-127860155D01*
X147333000Y-126667000D01*
X146139186Y-126667000D01*
X146018519Y-126896891D01*
X145074015Y-126896891D01*
X144993228Y-126701853D01*
X144808825Y-126425875D01*
X144574125Y-126191175D01*
X144298147Y-126006772D01*
X143991496Y-125879754D01*
X143665958Y-125815000D01*
X143334042Y-125815000D01*
X143008504Y-125879754D01*
X142701853Y-126006772D01*
X142425875Y-126191175D01*
X142191175Y-126425875D01*
X142006772Y-126701853D01*
X141879754Y-127008504D01*
X141815000Y-127334042D01*
X141815000Y-127665958D01*
X141868550Y-127935170D01*
X141660000Y-127726620D01*
X141660000Y-124204749D01*
X141850595Y-124283696D01*
X142108514Y-124335000D01*
X142371486Y-124335000D01*
X142629405Y-124283696D01*
X142872359Y-124183061D01*
X143091013Y-124036962D01*
X143276962Y-123851013D01*
X143423061Y-123632359D01*
X143523696Y-123389405D01*
X143575000Y-123131486D01*
X143575000Y-122868514D01*
X143547779Y-122731667D01*
X144864691Y-121414756D01*
X144892736Y-121391740D01*
X144984585Y-121279822D01*
X145052835Y-121152135D01*
X145094863Y-121013587D01*
X145098313Y-120978556D01*
X145109054Y-120869503D01*
X145105498Y-120833398D01*
X145105498Y-112940465D01*
X145182278Y-112925192D01*
X145255820Y-112964502D01*
G36*
X150193748Y-117985858D02*
G01*
X150179605Y-118000000D01*
X150193748Y-118014143D01*
X150014143Y-118193748D01*
X150000000Y-118179605D01*
X149985858Y-118193748D01*
X149806253Y-118014143D01*
X149820395Y-118000000D01*
X149806253Y-117985858D01*
X149985858Y-117806253D01*
X150000000Y-117820395D01*
X150014143Y-117806253D01*
X150193748Y-117985858D01*
G37*
X150193748Y-117985858D02*
X150179605Y-118000000D01*
X150193748Y-118014143D01*
X150014143Y-118193748D01*
X150000000Y-118179605D01*
X149985858Y-118193748D01*
X149806253Y-118014143D01*
X149820395Y-118000000D01*
X149806253Y-117985858D01*
X149985858Y-117806253D01*
X150000000Y-117820395D01*
X150014143Y-117806253D01*
X150193748Y-117985858D01*
G36*
X154474243Y-114832977D02*
G01*
X154584553Y-114843842D01*
X154651014Y-114864002D01*
X154744969Y-114873256D01*
X154744969Y-115032000D01*
X154673000Y-115032000D01*
X154673000Y-115012000D01*
X154003750Y-115012000D01*
X153888750Y-115127000D01*
X153697000Y-115127000D01*
X153697000Y-115147000D01*
X153533072Y-115147000D01*
X153533072Y-115025657D01*
X153537238Y-115022238D01*
X153560259Y-114994187D01*
X153697000Y-114857446D01*
X153697000Y-114873000D01*
X154341250Y-114873000D01*
X154402911Y-114811339D01*
X154474243Y-114832977D01*
G37*
X154474243Y-114832977D02*
X154584553Y-114843842D01*
X154651014Y-114864002D01*
X154744969Y-114873256D01*
X154744969Y-115032000D01*
X154673000Y-115032000D01*
X154673000Y-115012000D01*
X154003750Y-115012000D01*
X153888750Y-115127000D01*
X153697000Y-115127000D01*
X153697000Y-115147000D01*
X153533072Y-115147000D01*
X153533072Y-115025657D01*
X153537238Y-115022238D01*
X153560259Y-114994187D01*
X153697000Y-114857446D01*
X153697000Y-114873000D01*
X154341250Y-114873000D01*
X154402911Y-114811339D01*
X154474243Y-114832977D01*
G36*
X150522000Y-115147000D02*
G01*
X150448072Y-115147000D01*
X150448072Y-114853000D01*
X150522001Y-114853000D01*
X150522000Y-115147000D01*
G37*
X150522000Y-115147000D02*
X150448072Y-115147000D01*
X150448072Y-114853000D01*
X150522001Y-114853000D01*
X150522000Y-115147000D01*
G36*
X150127000Y-108873000D02*
G01*
X150147000Y-108873000D01*
X150147000Y-109127000D01*
X150127000Y-109127000D01*
X150127000Y-109147000D01*
X149873000Y-109147000D01*
X149873000Y-109127000D01*
X149853000Y-109127000D01*
X149853000Y-108873000D01*
X149873000Y-108873000D01*
X149873000Y-108853000D01*
X150127000Y-108853000D01*
X150127000Y-108873000D01*
G37*
X150127000Y-108873000D02*
X150147000Y-108873000D01*
X150147000Y-109127000D01*
X150127000Y-109127000D01*
X150127000Y-109147000D01*
X149873000Y-109147000D01*
X149873000Y-109127000D01*
X149853000Y-109127000D01*
X149853000Y-108873000D01*
X149873000Y-108873000D01*
X149873000Y-108853000D01*
X150127000Y-108853000D01*
X150127000Y-108873000D01*
M02*
