G04 #@! TF.GenerationSoftware,KiCad,Pcbnew,5.1.5-52549c5~84~ubuntu18.04.1*
G04 #@! TF.CreationDate,2020-01-13T22:36:15-08:00*
G04 #@! TF.ProjectId,somos_wristband_1.0,736f6d6f-735f-4777-9269-737462616e64,rev?*
G04 #@! TF.SameCoordinates,Original*
G04 #@! TF.FileFunction,Paste,Top*
G04 #@! TF.FilePolarity,Positive*
%FSLAX46Y46*%
G04 Gerber Fmt 4.6, Leading zero omitted, Abs format (unit mm)*
G04 Created by KiCad (PCBNEW 5.1.5-52549c5~84~ubuntu18.04.1) date 2020-01-13 22:36:15*
%MOMM*%
%LPD*%
G04 APERTURE LIST*
%ADD10C,0.100000*%
%ADD11R,5.900000X5.900000*%
%ADD12R,0.800000X0.150000*%
%ADD13R,0.150000X0.800000*%
G04 APERTURE END LIST*
D10*
G36*
X153731958Y-114680710D02*
G01*
X153746276Y-114682834D01*
X153760317Y-114686351D01*
X153773946Y-114691228D01*
X153787031Y-114697417D01*
X153799447Y-114704858D01*
X153811073Y-114713481D01*
X153821798Y-114723202D01*
X153831519Y-114733927D01*
X153840142Y-114745553D01*
X153847583Y-114757969D01*
X153853772Y-114771054D01*
X153858649Y-114784683D01*
X153862166Y-114798724D01*
X153864290Y-114813042D01*
X153865000Y-114827500D01*
X153865000Y-115172500D01*
X153864290Y-115186958D01*
X153862166Y-115201276D01*
X153858649Y-115215317D01*
X153853772Y-115228946D01*
X153847583Y-115242031D01*
X153840142Y-115254447D01*
X153831519Y-115266073D01*
X153821798Y-115276798D01*
X153811073Y-115286519D01*
X153799447Y-115295142D01*
X153787031Y-115302583D01*
X153773946Y-115308772D01*
X153760317Y-115313649D01*
X153746276Y-115317166D01*
X153731958Y-115319290D01*
X153717500Y-115320000D01*
X153422500Y-115320000D01*
X153408042Y-115319290D01*
X153393724Y-115317166D01*
X153379683Y-115313649D01*
X153366054Y-115308772D01*
X153352969Y-115302583D01*
X153340553Y-115295142D01*
X153328927Y-115286519D01*
X153318202Y-115276798D01*
X153308481Y-115266073D01*
X153299858Y-115254447D01*
X153292417Y-115242031D01*
X153286228Y-115228946D01*
X153281351Y-115215317D01*
X153277834Y-115201276D01*
X153275710Y-115186958D01*
X153275000Y-115172500D01*
X153275000Y-114827500D01*
X153275710Y-114813042D01*
X153277834Y-114798724D01*
X153281351Y-114784683D01*
X153286228Y-114771054D01*
X153292417Y-114757969D01*
X153299858Y-114745553D01*
X153308481Y-114733927D01*
X153318202Y-114723202D01*
X153328927Y-114713481D01*
X153340553Y-114704858D01*
X153352969Y-114697417D01*
X153366054Y-114691228D01*
X153379683Y-114686351D01*
X153393724Y-114682834D01*
X153408042Y-114680710D01*
X153422500Y-114680000D01*
X153717500Y-114680000D01*
X153731958Y-114680710D01*
G37*
G36*
X152761958Y-114680710D02*
G01*
X152776276Y-114682834D01*
X152790317Y-114686351D01*
X152803946Y-114691228D01*
X152817031Y-114697417D01*
X152829447Y-114704858D01*
X152841073Y-114713481D01*
X152851798Y-114723202D01*
X152861519Y-114733927D01*
X152870142Y-114745553D01*
X152877583Y-114757969D01*
X152883772Y-114771054D01*
X152888649Y-114784683D01*
X152892166Y-114798724D01*
X152894290Y-114813042D01*
X152895000Y-114827500D01*
X152895000Y-115172500D01*
X152894290Y-115186958D01*
X152892166Y-115201276D01*
X152888649Y-115215317D01*
X152883772Y-115228946D01*
X152877583Y-115242031D01*
X152870142Y-115254447D01*
X152861519Y-115266073D01*
X152851798Y-115276798D01*
X152841073Y-115286519D01*
X152829447Y-115295142D01*
X152817031Y-115302583D01*
X152803946Y-115308772D01*
X152790317Y-115313649D01*
X152776276Y-115317166D01*
X152761958Y-115319290D01*
X152747500Y-115320000D01*
X152452500Y-115320000D01*
X152438042Y-115319290D01*
X152423724Y-115317166D01*
X152409683Y-115313649D01*
X152396054Y-115308772D01*
X152382969Y-115302583D01*
X152370553Y-115295142D01*
X152358927Y-115286519D01*
X152348202Y-115276798D01*
X152338481Y-115266073D01*
X152329858Y-115254447D01*
X152322417Y-115242031D01*
X152316228Y-115228946D01*
X152311351Y-115215317D01*
X152307834Y-115201276D01*
X152305710Y-115186958D01*
X152305000Y-115172500D01*
X152305000Y-114827500D01*
X152305710Y-114813042D01*
X152307834Y-114798724D01*
X152311351Y-114784683D01*
X152316228Y-114771054D01*
X152322417Y-114757969D01*
X152329858Y-114745553D01*
X152338481Y-114733927D01*
X152348202Y-114723202D01*
X152358927Y-114713481D01*
X152370553Y-114704858D01*
X152382969Y-114697417D01*
X152396054Y-114691228D01*
X152409683Y-114686351D01*
X152423724Y-114682834D01*
X152438042Y-114680710D01*
X152452500Y-114680000D01*
X152747500Y-114680000D01*
X152761958Y-114680710D01*
G37*
D11*
X150000000Y-109000000D03*
D12*
X154050000Y-105750000D03*
X154050000Y-106250000D03*
X154050000Y-106750000D03*
X154050000Y-107250000D03*
X154050000Y-107750000D03*
X154050000Y-108250000D03*
X154050000Y-108750000D03*
X154050000Y-109250000D03*
X154050000Y-109750000D03*
X154050000Y-110250000D03*
X154050000Y-110750000D03*
X154050000Y-111250000D03*
X154050000Y-111750000D03*
X154050000Y-112250000D03*
X145950000Y-112250000D03*
X145950000Y-111750000D03*
X145950000Y-111250000D03*
X145950000Y-110750000D03*
X145950000Y-110250000D03*
X145950000Y-109750000D03*
X145950000Y-109250000D03*
X145950000Y-108750000D03*
X145950000Y-108250000D03*
X145950000Y-107750000D03*
X145950000Y-107250000D03*
X145950000Y-106750000D03*
X145950000Y-106250000D03*
X145950000Y-105750000D03*
D13*
X153250000Y-113050000D03*
X152750000Y-113050000D03*
X152250000Y-113050000D03*
X151750000Y-113050000D03*
X151250000Y-113050000D03*
X150750000Y-113050000D03*
X150250000Y-113050000D03*
X149750000Y-113050000D03*
X149250000Y-113050000D03*
X148750000Y-113050000D03*
X148250000Y-113050000D03*
X147750000Y-113050000D03*
X147250000Y-113050000D03*
X146750000Y-113050000D03*
X146750000Y-104950000D03*
X147250000Y-104950000D03*
X147750000Y-104950000D03*
X148250000Y-104950000D03*
X148750000Y-104950000D03*
X149250000Y-104950000D03*
X149750000Y-104950000D03*
X150250000Y-104950000D03*
X150750000Y-104950000D03*
X151250000Y-104950000D03*
X151750000Y-104950000D03*
X152250000Y-104950000D03*
X152750000Y-104950000D03*
X153250000Y-104950000D03*
D10*
G36*
X150646958Y-114680710D02*
G01*
X150661276Y-114682834D01*
X150675317Y-114686351D01*
X150688946Y-114691228D01*
X150702031Y-114697417D01*
X150714447Y-114704858D01*
X150726073Y-114713481D01*
X150736798Y-114723202D01*
X150746519Y-114733927D01*
X150755142Y-114745553D01*
X150762583Y-114757969D01*
X150768772Y-114771054D01*
X150773649Y-114784683D01*
X150777166Y-114798724D01*
X150779290Y-114813042D01*
X150780000Y-114827500D01*
X150780000Y-115172500D01*
X150779290Y-115186958D01*
X150777166Y-115201276D01*
X150773649Y-115215317D01*
X150768772Y-115228946D01*
X150762583Y-115242031D01*
X150755142Y-115254447D01*
X150746519Y-115266073D01*
X150736798Y-115276798D01*
X150726073Y-115286519D01*
X150714447Y-115295142D01*
X150702031Y-115302583D01*
X150688946Y-115308772D01*
X150675317Y-115313649D01*
X150661276Y-115317166D01*
X150646958Y-115319290D01*
X150632500Y-115320000D01*
X150337500Y-115320000D01*
X150323042Y-115319290D01*
X150308724Y-115317166D01*
X150294683Y-115313649D01*
X150281054Y-115308772D01*
X150267969Y-115302583D01*
X150255553Y-115295142D01*
X150243927Y-115286519D01*
X150233202Y-115276798D01*
X150223481Y-115266073D01*
X150214858Y-115254447D01*
X150207417Y-115242031D01*
X150201228Y-115228946D01*
X150196351Y-115215317D01*
X150192834Y-115201276D01*
X150190710Y-115186958D01*
X150190000Y-115172500D01*
X150190000Y-114827500D01*
X150190710Y-114813042D01*
X150192834Y-114798724D01*
X150196351Y-114784683D01*
X150201228Y-114771054D01*
X150207417Y-114757969D01*
X150214858Y-114745553D01*
X150223481Y-114733927D01*
X150233202Y-114723202D01*
X150243927Y-114713481D01*
X150255553Y-114704858D01*
X150267969Y-114697417D01*
X150281054Y-114691228D01*
X150294683Y-114686351D01*
X150308724Y-114682834D01*
X150323042Y-114680710D01*
X150337500Y-114680000D01*
X150632500Y-114680000D01*
X150646958Y-114680710D01*
G37*
G36*
X149676958Y-114680710D02*
G01*
X149691276Y-114682834D01*
X149705317Y-114686351D01*
X149718946Y-114691228D01*
X149732031Y-114697417D01*
X149744447Y-114704858D01*
X149756073Y-114713481D01*
X149766798Y-114723202D01*
X149776519Y-114733927D01*
X149785142Y-114745553D01*
X149792583Y-114757969D01*
X149798772Y-114771054D01*
X149803649Y-114784683D01*
X149807166Y-114798724D01*
X149809290Y-114813042D01*
X149810000Y-114827500D01*
X149810000Y-115172500D01*
X149809290Y-115186958D01*
X149807166Y-115201276D01*
X149803649Y-115215317D01*
X149798772Y-115228946D01*
X149792583Y-115242031D01*
X149785142Y-115254447D01*
X149776519Y-115266073D01*
X149766798Y-115276798D01*
X149756073Y-115286519D01*
X149744447Y-115295142D01*
X149732031Y-115302583D01*
X149718946Y-115308772D01*
X149705317Y-115313649D01*
X149691276Y-115317166D01*
X149676958Y-115319290D01*
X149662500Y-115320000D01*
X149367500Y-115320000D01*
X149353042Y-115319290D01*
X149338724Y-115317166D01*
X149324683Y-115313649D01*
X149311054Y-115308772D01*
X149297969Y-115302583D01*
X149285553Y-115295142D01*
X149273927Y-115286519D01*
X149263202Y-115276798D01*
X149253481Y-115266073D01*
X149244858Y-115254447D01*
X149237417Y-115242031D01*
X149231228Y-115228946D01*
X149226351Y-115215317D01*
X149222834Y-115201276D01*
X149220710Y-115186958D01*
X149220000Y-115172500D01*
X149220000Y-114827500D01*
X149220710Y-114813042D01*
X149222834Y-114798724D01*
X149226351Y-114784683D01*
X149231228Y-114771054D01*
X149237417Y-114757969D01*
X149244858Y-114745553D01*
X149253481Y-114733927D01*
X149263202Y-114723202D01*
X149273927Y-114713481D01*
X149285553Y-114704858D01*
X149297969Y-114697417D01*
X149311054Y-114691228D01*
X149324683Y-114686351D01*
X149338724Y-114682834D01*
X149353042Y-114680710D01*
X149367500Y-114680000D01*
X149662500Y-114680000D01*
X149676958Y-114680710D01*
G37*
G36*
X154986958Y-113620710D02*
G01*
X155001276Y-113622834D01*
X155015317Y-113626351D01*
X155028946Y-113631228D01*
X155042031Y-113637417D01*
X155054447Y-113644858D01*
X155066073Y-113653481D01*
X155076798Y-113663202D01*
X155086519Y-113673927D01*
X155095142Y-113685553D01*
X155102583Y-113697969D01*
X155108772Y-113711054D01*
X155113649Y-113724683D01*
X155117166Y-113738724D01*
X155119290Y-113753042D01*
X155120000Y-113767500D01*
X155120000Y-114062500D01*
X155119290Y-114076958D01*
X155117166Y-114091276D01*
X155113649Y-114105317D01*
X155108772Y-114118946D01*
X155102583Y-114132031D01*
X155095142Y-114144447D01*
X155086519Y-114156073D01*
X155076798Y-114166798D01*
X155066073Y-114176519D01*
X155054447Y-114185142D01*
X155042031Y-114192583D01*
X155028946Y-114198772D01*
X155015317Y-114203649D01*
X155001276Y-114207166D01*
X154986958Y-114209290D01*
X154972500Y-114210000D01*
X154627500Y-114210000D01*
X154613042Y-114209290D01*
X154598724Y-114207166D01*
X154584683Y-114203649D01*
X154571054Y-114198772D01*
X154557969Y-114192583D01*
X154545553Y-114185142D01*
X154533927Y-114176519D01*
X154523202Y-114166798D01*
X154513481Y-114156073D01*
X154504858Y-114144447D01*
X154497417Y-114132031D01*
X154491228Y-114118946D01*
X154486351Y-114105317D01*
X154482834Y-114091276D01*
X154480710Y-114076958D01*
X154480000Y-114062500D01*
X154480000Y-113767500D01*
X154480710Y-113753042D01*
X154482834Y-113738724D01*
X154486351Y-113724683D01*
X154491228Y-113711054D01*
X154497417Y-113697969D01*
X154504858Y-113685553D01*
X154513481Y-113673927D01*
X154523202Y-113663202D01*
X154533927Y-113653481D01*
X154545553Y-113644858D01*
X154557969Y-113637417D01*
X154571054Y-113631228D01*
X154584683Y-113626351D01*
X154598724Y-113622834D01*
X154613042Y-113620710D01*
X154627500Y-113620000D01*
X154972500Y-113620000D01*
X154986958Y-113620710D01*
G37*
G36*
X154986958Y-114590710D02*
G01*
X155001276Y-114592834D01*
X155015317Y-114596351D01*
X155028946Y-114601228D01*
X155042031Y-114607417D01*
X155054447Y-114614858D01*
X155066073Y-114623481D01*
X155076798Y-114633202D01*
X155086519Y-114643927D01*
X155095142Y-114655553D01*
X155102583Y-114667969D01*
X155108772Y-114681054D01*
X155113649Y-114694683D01*
X155117166Y-114708724D01*
X155119290Y-114723042D01*
X155120000Y-114737500D01*
X155120000Y-115032500D01*
X155119290Y-115046958D01*
X155117166Y-115061276D01*
X155113649Y-115075317D01*
X155108772Y-115088946D01*
X155102583Y-115102031D01*
X155095142Y-115114447D01*
X155086519Y-115126073D01*
X155076798Y-115136798D01*
X155066073Y-115146519D01*
X155054447Y-115155142D01*
X155042031Y-115162583D01*
X155028946Y-115168772D01*
X155015317Y-115173649D01*
X155001276Y-115177166D01*
X154986958Y-115179290D01*
X154972500Y-115180000D01*
X154627500Y-115180000D01*
X154613042Y-115179290D01*
X154598724Y-115177166D01*
X154584683Y-115173649D01*
X154571054Y-115168772D01*
X154557969Y-115162583D01*
X154545553Y-115155142D01*
X154533927Y-115146519D01*
X154523202Y-115136798D01*
X154513481Y-115126073D01*
X154504858Y-115114447D01*
X154497417Y-115102031D01*
X154491228Y-115088946D01*
X154486351Y-115075317D01*
X154482834Y-115061276D01*
X154480710Y-115046958D01*
X154480000Y-115032500D01*
X154480000Y-114737500D01*
X154480710Y-114723042D01*
X154482834Y-114708724D01*
X154486351Y-114694683D01*
X154491228Y-114681054D01*
X154497417Y-114667969D01*
X154504858Y-114655553D01*
X154513481Y-114643927D01*
X154523202Y-114633202D01*
X154533927Y-114623481D01*
X154545553Y-114614858D01*
X154557969Y-114607417D01*
X154571054Y-114601228D01*
X154584683Y-114596351D01*
X154598724Y-114592834D01*
X154613042Y-114590710D01*
X154627500Y-114590000D01*
X154972500Y-114590000D01*
X154986958Y-114590710D01*
G37*
M02*
