G04 #@! TF.GenerationSoftware,KiCad,Pcbnew,5.1.5-52549c5~84~ubuntu18.04.1*
G04 #@! TF.CreationDate,2020-01-14T19:02:19-08:00*
G04 #@! TF.ProjectId,somos_dielectrode_v1.0,736f6d6f-735f-4646-9965-6c656374726f,rev?*
G04 #@! TF.SameCoordinates,Original*
G04 #@! TF.FileFunction,Soldermask,Top*
G04 #@! TF.FilePolarity,Negative*
%FSLAX46Y46*%
G04 Gerber Fmt 4.6, Leading zero omitted, Abs format (unit mm)*
G04 Created by KiCad (PCBNEW 5.1.5-52549c5~84~ubuntu18.04.1) date 2020-01-14 19:02:19*
%MOMM*%
%LPD*%
G04 APERTURE LIST*
%ADD10C,0.100000*%
G04 APERTURE END LIST*
D10*
G36*
X156714794Y-123420155D02*
G01*
X156821150Y-123441311D01*
X156921334Y-123482809D01*
X157021520Y-123524307D01*
X157201844Y-123644795D01*
X157355205Y-123798156D01*
X157475693Y-123978480D01*
X157558689Y-124178851D01*
X157601000Y-124391560D01*
X157601000Y-124608440D01*
X157558689Y-124821149D01*
X157475693Y-125021520D01*
X157355205Y-125201844D01*
X157201844Y-125355205D01*
X157021520Y-125475693D01*
X156921334Y-125517191D01*
X156821150Y-125558689D01*
X156714795Y-125579844D01*
X156608440Y-125601000D01*
X156391560Y-125601000D01*
X156285205Y-125579844D01*
X156178850Y-125558689D01*
X156078666Y-125517191D01*
X155978480Y-125475693D01*
X155798156Y-125355205D01*
X155644795Y-125201844D01*
X155524307Y-125021520D01*
X155441311Y-124821149D01*
X155399000Y-124608440D01*
X155399000Y-124391560D01*
X155441311Y-124178851D01*
X155524307Y-123978480D01*
X155644795Y-123798156D01*
X155798156Y-123644795D01*
X155978480Y-123524307D01*
X156078666Y-123482809D01*
X156178850Y-123441311D01*
X156285206Y-123420155D01*
X156391560Y-123399000D01*
X156608440Y-123399000D01*
X156714794Y-123420155D01*
G37*
G36*
X143714794Y-123420155D02*
G01*
X143821150Y-123441311D01*
X143921334Y-123482809D01*
X144021520Y-123524307D01*
X144201844Y-123644795D01*
X144355205Y-123798156D01*
X144475693Y-123978480D01*
X144558689Y-124178851D01*
X144601000Y-124391560D01*
X144601000Y-124608440D01*
X144558689Y-124821149D01*
X144475693Y-125021520D01*
X144355205Y-125201844D01*
X144201844Y-125355205D01*
X144021520Y-125475693D01*
X143921334Y-125517191D01*
X143821150Y-125558689D01*
X143714795Y-125579844D01*
X143608440Y-125601000D01*
X143391560Y-125601000D01*
X143285205Y-125579844D01*
X143178850Y-125558689D01*
X143078666Y-125517191D01*
X142978480Y-125475693D01*
X142798156Y-125355205D01*
X142644795Y-125201844D01*
X142524307Y-125021520D01*
X142441311Y-124821149D01*
X142399000Y-124608440D01*
X142399000Y-124391560D01*
X142441311Y-124178851D01*
X142524307Y-123978480D01*
X142644795Y-123798156D01*
X142798156Y-123644795D01*
X142978480Y-123524307D01*
X143078666Y-123482809D01*
X143178850Y-123441311D01*
X143285206Y-123420155D01*
X143391560Y-123399000D01*
X143608440Y-123399000D01*
X143714794Y-123420155D01*
G37*
G36*
X142162279Y-120046566D02*
G01*
X142219059Y-120057860D01*
X142355732Y-120114472D01*
X142478735Y-120196660D01*
X142583340Y-120301265D01*
X142665528Y-120424268D01*
X142722140Y-120560941D01*
X142751000Y-120706033D01*
X142751000Y-120853967D01*
X142722140Y-120999059D01*
X142665528Y-121135732D01*
X142583340Y-121258735D01*
X142478735Y-121363340D01*
X142355732Y-121445528D01*
X142355731Y-121445529D01*
X142355730Y-121445529D01*
X142219059Y-121502140D01*
X142073968Y-121531000D01*
X141926032Y-121531000D01*
X141780941Y-121502140D01*
X141644270Y-121445529D01*
X141644269Y-121445529D01*
X141644268Y-121445528D01*
X141521265Y-121363340D01*
X141416660Y-121258735D01*
X141334472Y-121135732D01*
X141277860Y-120999059D01*
X141249000Y-120853967D01*
X141249000Y-120706033D01*
X141277860Y-120560941D01*
X141334472Y-120424268D01*
X141416660Y-120301265D01*
X141521265Y-120196660D01*
X141644268Y-120114472D01*
X141780941Y-120057860D01*
X141837721Y-120046566D01*
X141926032Y-120029000D01*
X142073968Y-120029000D01*
X142162279Y-120046566D01*
G37*
G36*
X154799999Y-119849737D02*
G01*
X154809608Y-119852652D01*
X154818472Y-119857390D01*
X154826237Y-119863763D01*
X154836448Y-119876206D01*
X154843378Y-119886575D01*
X154860705Y-119903902D01*
X154881080Y-119917515D01*
X154903720Y-119926891D01*
X154927753Y-119931671D01*
X154952257Y-119931670D01*
X154976290Y-119926888D01*
X154998929Y-119917510D01*
X155019302Y-119903895D01*
X155036629Y-119886568D01*
X155043558Y-119876198D01*
X155053763Y-119863763D01*
X155061528Y-119857390D01*
X155070392Y-119852652D01*
X155080001Y-119849737D01*
X155096140Y-119848148D01*
X155583861Y-119848148D01*
X155602199Y-119849954D01*
X155614450Y-119850556D01*
X155632869Y-119850556D01*
X155655149Y-119852750D01*
X155739233Y-119869476D01*
X155760660Y-119875976D01*
X155839858Y-119908780D01*
X155845303Y-119911691D01*
X155845309Y-119911693D01*
X155854169Y-119916429D01*
X155854173Y-119916432D01*
X155859614Y-119919340D01*
X155930899Y-119966971D01*
X155948204Y-119981172D01*
X156008828Y-120041796D01*
X156023029Y-120059101D01*
X156070660Y-120130386D01*
X156073568Y-120135827D01*
X156073571Y-120135831D01*
X156078307Y-120144691D01*
X156078309Y-120144697D01*
X156081220Y-120150142D01*
X156114024Y-120229340D01*
X156120524Y-120250767D01*
X156137250Y-120334851D01*
X156139444Y-120357131D01*
X156139444Y-120375550D01*
X156140046Y-120387801D01*
X156141852Y-120406139D01*
X156141852Y-120893862D01*
X156140046Y-120912199D01*
X156139444Y-120924450D01*
X156139444Y-120942869D01*
X156137250Y-120965149D01*
X156120524Y-121049233D01*
X156114024Y-121070660D01*
X156081220Y-121149858D01*
X156078309Y-121155303D01*
X156078307Y-121155309D01*
X156073571Y-121164169D01*
X156073568Y-121164173D01*
X156070660Y-121169614D01*
X156023029Y-121240899D01*
X156008828Y-121258204D01*
X155948204Y-121318828D01*
X155930899Y-121333029D01*
X155859614Y-121380660D01*
X155854173Y-121383568D01*
X155854169Y-121383571D01*
X155845309Y-121388307D01*
X155845303Y-121388309D01*
X155839858Y-121391220D01*
X155760660Y-121424024D01*
X155739233Y-121430524D01*
X155655149Y-121447250D01*
X155632869Y-121449444D01*
X155614450Y-121449444D01*
X155602199Y-121450046D01*
X155583862Y-121451852D01*
X155096140Y-121451852D01*
X155080001Y-121450263D01*
X155070392Y-121447348D01*
X155061528Y-121442610D01*
X155053763Y-121436237D01*
X155043552Y-121423794D01*
X155036622Y-121413425D01*
X155019295Y-121396098D01*
X154998920Y-121382485D01*
X154976280Y-121373109D01*
X154952247Y-121368329D01*
X154927743Y-121368330D01*
X154903710Y-121373112D01*
X154881071Y-121382490D01*
X154860698Y-121396105D01*
X154843371Y-121413432D01*
X154836442Y-121423802D01*
X154826237Y-121436237D01*
X154818472Y-121442610D01*
X154809608Y-121447348D01*
X154799999Y-121450263D01*
X154783860Y-121451852D01*
X154296138Y-121451852D01*
X154277801Y-121450046D01*
X154265550Y-121449444D01*
X154247131Y-121449444D01*
X154224851Y-121447250D01*
X154140767Y-121430524D01*
X154119340Y-121424024D01*
X154040142Y-121391220D01*
X154034697Y-121388309D01*
X154034691Y-121388307D01*
X154025831Y-121383571D01*
X154025827Y-121383568D01*
X154020386Y-121380660D01*
X153949101Y-121333029D01*
X153931796Y-121318828D01*
X153871172Y-121258204D01*
X153856971Y-121240899D01*
X153809340Y-121169614D01*
X153806432Y-121164173D01*
X153806429Y-121164169D01*
X153801693Y-121155309D01*
X153801691Y-121155303D01*
X153798780Y-121149858D01*
X153765976Y-121070660D01*
X153759476Y-121049233D01*
X153742750Y-120965149D01*
X153740556Y-120942869D01*
X153740556Y-120924450D01*
X153739954Y-120912199D01*
X153738148Y-120893862D01*
X153738148Y-120406139D01*
X153739954Y-120387801D01*
X153740556Y-120375550D01*
X153740556Y-120357131D01*
X153742750Y-120334851D01*
X153759476Y-120250767D01*
X153765976Y-120229340D01*
X153798780Y-120150142D01*
X153801691Y-120144697D01*
X153801693Y-120144691D01*
X153806429Y-120135831D01*
X153806432Y-120135827D01*
X153809340Y-120130386D01*
X153856971Y-120059101D01*
X153871172Y-120041796D01*
X153931796Y-119981172D01*
X153949101Y-119966971D01*
X154020386Y-119919340D01*
X154025827Y-119916432D01*
X154025831Y-119916429D01*
X154034691Y-119911693D01*
X154034697Y-119911691D01*
X154040142Y-119908780D01*
X154119340Y-119875976D01*
X154140767Y-119869476D01*
X154224851Y-119852750D01*
X154247131Y-119850556D01*
X154265550Y-119850556D01*
X154277801Y-119849954D01*
X154296139Y-119848148D01*
X154783860Y-119848148D01*
X154799999Y-119849737D01*
G37*
G36*
X158219059Y-119927860D02*
G01*
X158347766Y-119981172D01*
X158355732Y-119984472D01*
X158478735Y-120066660D01*
X158583340Y-120171265D01*
X158665528Y-120294268D01*
X158665529Y-120294270D01*
X158722140Y-120430941D01*
X158751000Y-120576032D01*
X158751000Y-120723968D01*
X158722140Y-120869059D01*
X158705183Y-120909998D01*
X158665528Y-121005732D01*
X158583340Y-121128735D01*
X158478735Y-121233340D01*
X158355732Y-121315528D01*
X158355731Y-121315529D01*
X158355730Y-121315529D01*
X158219059Y-121372140D01*
X158073968Y-121401000D01*
X157926032Y-121401000D01*
X157780941Y-121372140D01*
X157644270Y-121315529D01*
X157644269Y-121315529D01*
X157644268Y-121315528D01*
X157521265Y-121233340D01*
X157416660Y-121128735D01*
X157334472Y-121005732D01*
X157294818Y-120909998D01*
X157277860Y-120869059D01*
X157249000Y-120723968D01*
X157249000Y-120576032D01*
X157277860Y-120430941D01*
X157334471Y-120294270D01*
X157334472Y-120294268D01*
X157416660Y-120171265D01*
X157521265Y-120066660D01*
X157644268Y-119984472D01*
X157652235Y-119981172D01*
X157780941Y-119927860D01*
X157926032Y-119899000D01*
X158073968Y-119899000D01*
X158219059Y-119927860D01*
G37*
G36*
X150598254Y-115527818D02*
G01*
X150971511Y-115682426D01*
X150971513Y-115682427D01*
X151307436Y-115906884D01*
X151593116Y-116192564D01*
X151765798Y-116451000D01*
X151817574Y-116528489D01*
X151972182Y-116901746D01*
X152051000Y-117297993D01*
X152051000Y-117702007D01*
X151972182Y-118098254D01*
X151819968Y-118465732D01*
X151817573Y-118471513D01*
X151593116Y-118807436D01*
X151307436Y-119093116D01*
X150971513Y-119317573D01*
X150971512Y-119317574D01*
X150971511Y-119317574D01*
X150598254Y-119472182D01*
X150202007Y-119551000D01*
X149797993Y-119551000D01*
X149401746Y-119472182D01*
X149028489Y-119317574D01*
X149028488Y-119317574D01*
X149028487Y-119317573D01*
X148692564Y-119093116D01*
X148406884Y-118807436D01*
X148182427Y-118471513D01*
X148180032Y-118465732D01*
X148027818Y-118098254D01*
X147949000Y-117702007D01*
X147949000Y-117297993D01*
X148027818Y-116901746D01*
X148182426Y-116528489D01*
X148234203Y-116451000D01*
X148406884Y-116192564D01*
X148692564Y-115906884D01*
X149028487Y-115682427D01*
X149028489Y-115682426D01*
X149401746Y-115527818D01*
X149797993Y-115449000D01*
X150202007Y-115449000D01*
X150598254Y-115527818D01*
G37*
G36*
X142162279Y-117506566D02*
G01*
X142219059Y-117517860D01*
X142355732Y-117574472D01*
X142478735Y-117656660D01*
X142583340Y-117761265D01*
X142665528Y-117884268D01*
X142665529Y-117884270D01*
X142722140Y-118020941D01*
X142737519Y-118098255D01*
X142751000Y-118166033D01*
X142751000Y-118313967D01*
X142722140Y-118459059D01*
X142665528Y-118595732D01*
X142583340Y-118718735D01*
X142478735Y-118823340D01*
X142355732Y-118905528D01*
X142355731Y-118905529D01*
X142355730Y-118905529D01*
X142219059Y-118962140D01*
X142073968Y-118991000D01*
X141926032Y-118991000D01*
X141780941Y-118962140D01*
X141644270Y-118905529D01*
X141644269Y-118905529D01*
X141644268Y-118905528D01*
X141521265Y-118823340D01*
X141416660Y-118718735D01*
X141334472Y-118595732D01*
X141277860Y-118459059D01*
X141249000Y-118313967D01*
X141249000Y-118166033D01*
X141262482Y-118098255D01*
X141277860Y-118020941D01*
X141334471Y-117884270D01*
X141334472Y-117884268D01*
X141416660Y-117761265D01*
X141521265Y-117656660D01*
X141644268Y-117574472D01*
X141780941Y-117517860D01*
X141837721Y-117506566D01*
X141926032Y-117489000D01*
X142073968Y-117489000D01*
X142162279Y-117506566D01*
G37*
G36*
X144639999Y-117309737D02*
G01*
X144649608Y-117312652D01*
X144658472Y-117317390D01*
X144666237Y-117323763D01*
X144676448Y-117336206D01*
X144683378Y-117346575D01*
X144700705Y-117363902D01*
X144721080Y-117377515D01*
X144743720Y-117386891D01*
X144767753Y-117391671D01*
X144792257Y-117391670D01*
X144816290Y-117386888D01*
X144838929Y-117377510D01*
X144859302Y-117363895D01*
X144876629Y-117346568D01*
X144883558Y-117336198D01*
X144893763Y-117323763D01*
X144901528Y-117317390D01*
X144910392Y-117312652D01*
X144920001Y-117309737D01*
X144936140Y-117308148D01*
X145423861Y-117308148D01*
X145442199Y-117309954D01*
X145454450Y-117310556D01*
X145472869Y-117310556D01*
X145495149Y-117312750D01*
X145579233Y-117329476D01*
X145600660Y-117335976D01*
X145679858Y-117368780D01*
X145685303Y-117371691D01*
X145685309Y-117371693D01*
X145694169Y-117376429D01*
X145694173Y-117376432D01*
X145699614Y-117379340D01*
X145770899Y-117426971D01*
X145788204Y-117441172D01*
X145848828Y-117501796D01*
X145863029Y-117519101D01*
X145910660Y-117590386D01*
X145913568Y-117595827D01*
X145913571Y-117595831D01*
X145918307Y-117604691D01*
X145918309Y-117604697D01*
X145921220Y-117610142D01*
X145954024Y-117689340D01*
X145960524Y-117710767D01*
X145977250Y-117794851D01*
X145979444Y-117817131D01*
X145979444Y-117835550D01*
X145980046Y-117847801D01*
X145981852Y-117866139D01*
X145981852Y-118353862D01*
X145980046Y-118372199D01*
X145979444Y-118384450D01*
X145979444Y-118402869D01*
X145977250Y-118425149D01*
X145960524Y-118509233D01*
X145954024Y-118530660D01*
X145921220Y-118609858D01*
X145918309Y-118615303D01*
X145918307Y-118615309D01*
X145913571Y-118624169D01*
X145913568Y-118624173D01*
X145910660Y-118629614D01*
X145863029Y-118700899D01*
X145848828Y-118718204D01*
X145788204Y-118778828D01*
X145770899Y-118793029D01*
X145699614Y-118840660D01*
X145694173Y-118843568D01*
X145694169Y-118843571D01*
X145685309Y-118848307D01*
X145685303Y-118848309D01*
X145679858Y-118851220D01*
X145600660Y-118884024D01*
X145579233Y-118890524D01*
X145495149Y-118907250D01*
X145472869Y-118909444D01*
X145454450Y-118909444D01*
X145442199Y-118910046D01*
X145423862Y-118911852D01*
X144936140Y-118911852D01*
X144920001Y-118910263D01*
X144910392Y-118907348D01*
X144901528Y-118902610D01*
X144893763Y-118896237D01*
X144883552Y-118883794D01*
X144876622Y-118873425D01*
X144859295Y-118856098D01*
X144838920Y-118842485D01*
X144816280Y-118833109D01*
X144792247Y-118828329D01*
X144767743Y-118828330D01*
X144743710Y-118833112D01*
X144721071Y-118842490D01*
X144700698Y-118856105D01*
X144683371Y-118873432D01*
X144676442Y-118883802D01*
X144666237Y-118896237D01*
X144658472Y-118902610D01*
X144649608Y-118907348D01*
X144639999Y-118910263D01*
X144623860Y-118911852D01*
X144136138Y-118911852D01*
X144117801Y-118910046D01*
X144105550Y-118909444D01*
X144087131Y-118909444D01*
X144064851Y-118907250D01*
X143980767Y-118890524D01*
X143959340Y-118884024D01*
X143880142Y-118851220D01*
X143874697Y-118848309D01*
X143874691Y-118848307D01*
X143865831Y-118843571D01*
X143865827Y-118843568D01*
X143860386Y-118840660D01*
X143789101Y-118793029D01*
X143771796Y-118778828D01*
X143711172Y-118718204D01*
X143696971Y-118700899D01*
X143649340Y-118629614D01*
X143646432Y-118624173D01*
X143646429Y-118624169D01*
X143641693Y-118615309D01*
X143641691Y-118615303D01*
X143638780Y-118609858D01*
X143605976Y-118530660D01*
X143599476Y-118509233D01*
X143582750Y-118425149D01*
X143580556Y-118402869D01*
X143580556Y-118384450D01*
X143579954Y-118372199D01*
X143578148Y-118353862D01*
X143578148Y-117866139D01*
X143579954Y-117847801D01*
X143580556Y-117835550D01*
X143580556Y-117817131D01*
X143582750Y-117794851D01*
X143599476Y-117710767D01*
X143605976Y-117689340D01*
X143638780Y-117610142D01*
X143641691Y-117604697D01*
X143641693Y-117604691D01*
X143646429Y-117595831D01*
X143646432Y-117595827D01*
X143649340Y-117590386D01*
X143696971Y-117519101D01*
X143711172Y-117501796D01*
X143771796Y-117441172D01*
X143789101Y-117426971D01*
X143860386Y-117379340D01*
X143865827Y-117376432D01*
X143865831Y-117376429D01*
X143874691Y-117371693D01*
X143874697Y-117371691D01*
X143880142Y-117368780D01*
X143959340Y-117335976D01*
X143980767Y-117329476D01*
X144064851Y-117312750D01*
X144087131Y-117310556D01*
X144105550Y-117310556D01*
X144117801Y-117309954D01*
X144136139Y-117308148D01*
X144623860Y-117308148D01*
X144639999Y-117309737D01*
G37*
G36*
X158219059Y-117387860D02*
G01*
X158347766Y-117441172D01*
X158355732Y-117444472D01*
X158478735Y-117526660D01*
X158583340Y-117631265D01*
X158665528Y-117754268D01*
X158665529Y-117754270D01*
X158722140Y-117890941D01*
X158751000Y-118036032D01*
X158751000Y-118183968D01*
X158722140Y-118329059D01*
X158705183Y-118369998D01*
X158665528Y-118465732D01*
X158583340Y-118588735D01*
X158478735Y-118693340D01*
X158355732Y-118775528D01*
X158355731Y-118775529D01*
X158355730Y-118775529D01*
X158219059Y-118832140D01*
X158073968Y-118861000D01*
X157926032Y-118861000D01*
X157780941Y-118832140D01*
X157644270Y-118775529D01*
X157644269Y-118775529D01*
X157644268Y-118775528D01*
X157521265Y-118693340D01*
X157416660Y-118588735D01*
X157334472Y-118465732D01*
X157294818Y-118369998D01*
X157277860Y-118329059D01*
X157249000Y-118183968D01*
X157249000Y-118036032D01*
X157277860Y-117890941D01*
X157334471Y-117754270D01*
X157334472Y-117754268D01*
X157416660Y-117631265D01*
X157521265Y-117526660D01*
X157644268Y-117444472D01*
X157652235Y-117441172D01*
X157780941Y-117387860D01*
X157926032Y-117359000D01*
X158073968Y-117359000D01*
X158219059Y-117387860D01*
G37*
G36*
X142162279Y-114966566D02*
G01*
X142219059Y-114977860D01*
X142355732Y-115034472D01*
X142478735Y-115116660D01*
X142583340Y-115221265D01*
X142665528Y-115344268D01*
X142722140Y-115480941D01*
X142751000Y-115626033D01*
X142751000Y-115773967D01*
X142722140Y-115919059D01*
X142665528Y-116055732D01*
X142583340Y-116178735D01*
X142478735Y-116283340D01*
X142355732Y-116365528D01*
X142355731Y-116365529D01*
X142355730Y-116365529D01*
X142219059Y-116422140D01*
X142073968Y-116451000D01*
X141926032Y-116451000D01*
X141780941Y-116422140D01*
X141644270Y-116365529D01*
X141644269Y-116365529D01*
X141644268Y-116365528D01*
X141521265Y-116283340D01*
X141416660Y-116178735D01*
X141334472Y-116055732D01*
X141277860Y-115919059D01*
X141249000Y-115773967D01*
X141249000Y-115626033D01*
X141277860Y-115480941D01*
X141334472Y-115344268D01*
X141416660Y-115221265D01*
X141521265Y-115116660D01*
X141644268Y-115034472D01*
X141780941Y-114977860D01*
X141837721Y-114966566D01*
X141926032Y-114949000D01*
X142073968Y-114949000D01*
X142162279Y-114966566D01*
G37*
G36*
X154799999Y-114769737D02*
G01*
X154809608Y-114772652D01*
X154818472Y-114777390D01*
X154826237Y-114783763D01*
X154836448Y-114796206D01*
X154843378Y-114806575D01*
X154860705Y-114823902D01*
X154881080Y-114837515D01*
X154903720Y-114846891D01*
X154927753Y-114851671D01*
X154952257Y-114851670D01*
X154976290Y-114846888D01*
X154998929Y-114837510D01*
X155019302Y-114823895D01*
X155036629Y-114806568D01*
X155043558Y-114796198D01*
X155053763Y-114783763D01*
X155061528Y-114777390D01*
X155070392Y-114772652D01*
X155080001Y-114769737D01*
X155096140Y-114768148D01*
X155583861Y-114768148D01*
X155602199Y-114769954D01*
X155614450Y-114770556D01*
X155632869Y-114770556D01*
X155655149Y-114772750D01*
X155739233Y-114789476D01*
X155760660Y-114795976D01*
X155839858Y-114828780D01*
X155845303Y-114831691D01*
X155845309Y-114831693D01*
X155854169Y-114836429D01*
X155854173Y-114836432D01*
X155859614Y-114839340D01*
X155930899Y-114886971D01*
X155948204Y-114901172D01*
X156008828Y-114961796D01*
X156023029Y-114979101D01*
X156070660Y-115050386D01*
X156073568Y-115055827D01*
X156073571Y-115055831D01*
X156078307Y-115064691D01*
X156078309Y-115064697D01*
X156081220Y-115070142D01*
X156114024Y-115149340D01*
X156120524Y-115170767D01*
X156137250Y-115254851D01*
X156139444Y-115277131D01*
X156139444Y-115295550D01*
X156140046Y-115307801D01*
X156141852Y-115326139D01*
X156141852Y-115813862D01*
X156140046Y-115832199D01*
X156139444Y-115844450D01*
X156139444Y-115862869D01*
X156137250Y-115885149D01*
X156120524Y-115969233D01*
X156114024Y-115990660D01*
X156081220Y-116069858D01*
X156078309Y-116075303D01*
X156078307Y-116075309D01*
X156073571Y-116084169D01*
X156073568Y-116084173D01*
X156070660Y-116089614D01*
X156023029Y-116160899D01*
X156008828Y-116178204D01*
X155948204Y-116238828D01*
X155930899Y-116253029D01*
X155859614Y-116300660D01*
X155854173Y-116303568D01*
X155854169Y-116303571D01*
X155845309Y-116308307D01*
X155845303Y-116308309D01*
X155839858Y-116311220D01*
X155760660Y-116344024D01*
X155739233Y-116350524D01*
X155655149Y-116367250D01*
X155632869Y-116369444D01*
X155614450Y-116369444D01*
X155602199Y-116370046D01*
X155583862Y-116371852D01*
X155096140Y-116371852D01*
X155080001Y-116370263D01*
X155070392Y-116367348D01*
X155061528Y-116362610D01*
X155053763Y-116356237D01*
X155043552Y-116343794D01*
X155036622Y-116333425D01*
X155019295Y-116316098D01*
X154998920Y-116302485D01*
X154976280Y-116293109D01*
X154952247Y-116288329D01*
X154927743Y-116288330D01*
X154903710Y-116293112D01*
X154881071Y-116302490D01*
X154860698Y-116316105D01*
X154843371Y-116333432D01*
X154836442Y-116343802D01*
X154826237Y-116356237D01*
X154818472Y-116362610D01*
X154809608Y-116367348D01*
X154799999Y-116370263D01*
X154783860Y-116371852D01*
X154296138Y-116371852D01*
X154277801Y-116370046D01*
X154265550Y-116369444D01*
X154247131Y-116369444D01*
X154224851Y-116367250D01*
X154140767Y-116350524D01*
X154119340Y-116344024D01*
X154040142Y-116311220D01*
X154034697Y-116308309D01*
X154034691Y-116308307D01*
X154025831Y-116303571D01*
X154025827Y-116303568D01*
X154020386Y-116300660D01*
X153949101Y-116253029D01*
X153931796Y-116238828D01*
X153871172Y-116178204D01*
X153856971Y-116160899D01*
X153809340Y-116089614D01*
X153806432Y-116084173D01*
X153806429Y-116084169D01*
X153801693Y-116075309D01*
X153801691Y-116075303D01*
X153798780Y-116069858D01*
X153765976Y-115990660D01*
X153759476Y-115969233D01*
X153742750Y-115885149D01*
X153740556Y-115862869D01*
X153740556Y-115844450D01*
X153739954Y-115832199D01*
X153738148Y-115813862D01*
X153738148Y-115326139D01*
X153739954Y-115307801D01*
X153740556Y-115295550D01*
X153740556Y-115277131D01*
X153742750Y-115254851D01*
X153759476Y-115170767D01*
X153765976Y-115149340D01*
X153798780Y-115070142D01*
X153801691Y-115064697D01*
X153801693Y-115064691D01*
X153806429Y-115055831D01*
X153806432Y-115055827D01*
X153809340Y-115050386D01*
X153856971Y-114979101D01*
X153871172Y-114961796D01*
X153931796Y-114901172D01*
X153949101Y-114886971D01*
X154020386Y-114839340D01*
X154025827Y-114836432D01*
X154025831Y-114836429D01*
X154034691Y-114831693D01*
X154034697Y-114831691D01*
X154040142Y-114828780D01*
X154119340Y-114795976D01*
X154140767Y-114789476D01*
X154224851Y-114772750D01*
X154247131Y-114770556D01*
X154265550Y-114770556D01*
X154277801Y-114769954D01*
X154296139Y-114768148D01*
X154783860Y-114768148D01*
X154799999Y-114769737D01*
G37*
G36*
X158219059Y-114847860D02*
G01*
X158347766Y-114901172D01*
X158355732Y-114904472D01*
X158478735Y-114986660D01*
X158583340Y-115091265D01*
X158665528Y-115214268D01*
X158665529Y-115214270D01*
X158722140Y-115350941D01*
X158751000Y-115496032D01*
X158751000Y-115643968D01*
X158722140Y-115789059D01*
X158705183Y-115829998D01*
X158665528Y-115925732D01*
X158583340Y-116048735D01*
X158478735Y-116153340D01*
X158355732Y-116235528D01*
X158355731Y-116235529D01*
X158355730Y-116235529D01*
X158219059Y-116292140D01*
X158073968Y-116321000D01*
X157926032Y-116321000D01*
X157780941Y-116292140D01*
X157644270Y-116235529D01*
X157644269Y-116235529D01*
X157644268Y-116235528D01*
X157521265Y-116153340D01*
X157416660Y-116048735D01*
X157334472Y-115925732D01*
X157294818Y-115829998D01*
X157277860Y-115789059D01*
X157249000Y-115643968D01*
X157249000Y-115496032D01*
X157277860Y-115350941D01*
X157334471Y-115214270D01*
X157334472Y-115214268D01*
X157416660Y-115091265D01*
X157521265Y-114986660D01*
X157644268Y-114904472D01*
X157652235Y-114901172D01*
X157780941Y-114847860D01*
X157926032Y-114819000D01*
X158073968Y-114819000D01*
X158219059Y-114847860D01*
G37*
G36*
X142162279Y-112426566D02*
G01*
X142219059Y-112437860D01*
X142355732Y-112494472D01*
X142478735Y-112576660D01*
X142583340Y-112681265D01*
X142665528Y-112804268D01*
X142722140Y-112940941D01*
X142751000Y-113086033D01*
X142751000Y-113233967D01*
X142722140Y-113379059D01*
X142665528Y-113515732D01*
X142583340Y-113638735D01*
X142478735Y-113743340D01*
X142355732Y-113825528D01*
X142355731Y-113825529D01*
X142355730Y-113825529D01*
X142219059Y-113882140D01*
X142073968Y-113911000D01*
X141926032Y-113911000D01*
X141780941Y-113882140D01*
X141644270Y-113825529D01*
X141644269Y-113825529D01*
X141644268Y-113825528D01*
X141521265Y-113743340D01*
X141416660Y-113638735D01*
X141334472Y-113515732D01*
X141277860Y-113379059D01*
X141249000Y-113233967D01*
X141249000Y-113086033D01*
X141277860Y-112940941D01*
X141334472Y-112804268D01*
X141416660Y-112681265D01*
X141521265Y-112576660D01*
X141644268Y-112494472D01*
X141780941Y-112437860D01*
X141837721Y-112426566D01*
X141926032Y-112409000D01*
X142073968Y-112409000D01*
X142162279Y-112426566D01*
G37*
G36*
X144639999Y-112229737D02*
G01*
X144649608Y-112232652D01*
X144658472Y-112237390D01*
X144666237Y-112243763D01*
X144676448Y-112256206D01*
X144683378Y-112266575D01*
X144700705Y-112283902D01*
X144721080Y-112297515D01*
X144743720Y-112306891D01*
X144767753Y-112311671D01*
X144792257Y-112311670D01*
X144816290Y-112306888D01*
X144838929Y-112297510D01*
X144859302Y-112283895D01*
X144876629Y-112266568D01*
X144883558Y-112256198D01*
X144893763Y-112243763D01*
X144901528Y-112237390D01*
X144910392Y-112232652D01*
X144920001Y-112229737D01*
X144936140Y-112228148D01*
X145423861Y-112228148D01*
X145442199Y-112229954D01*
X145454450Y-112230556D01*
X145472869Y-112230556D01*
X145495149Y-112232750D01*
X145579233Y-112249476D01*
X145600660Y-112255976D01*
X145679858Y-112288780D01*
X145685303Y-112291691D01*
X145685309Y-112291693D01*
X145694169Y-112296429D01*
X145694173Y-112296432D01*
X145699614Y-112299340D01*
X145770899Y-112346971D01*
X145788204Y-112361172D01*
X145848828Y-112421796D01*
X145863029Y-112439101D01*
X145910660Y-112510386D01*
X145913568Y-112515827D01*
X145913571Y-112515831D01*
X145918307Y-112524691D01*
X145918309Y-112524697D01*
X145921220Y-112530142D01*
X145954024Y-112609340D01*
X145960524Y-112630767D01*
X145977250Y-112714851D01*
X145979444Y-112737131D01*
X145979444Y-112755550D01*
X145980046Y-112767801D01*
X145981852Y-112786139D01*
X145981852Y-113273862D01*
X145980046Y-113292199D01*
X145979444Y-113304450D01*
X145979444Y-113322869D01*
X145977250Y-113345149D01*
X145960524Y-113429233D01*
X145954024Y-113450660D01*
X145921220Y-113529858D01*
X145918309Y-113535303D01*
X145918307Y-113535309D01*
X145913571Y-113544169D01*
X145913568Y-113544173D01*
X145910660Y-113549614D01*
X145863029Y-113620899D01*
X145848828Y-113638204D01*
X145788204Y-113698828D01*
X145770899Y-113713029D01*
X145699614Y-113760660D01*
X145694173Y-113763568D01*
X145694169Y-113763571D01*
X145685309Y-113768307D01*
X145685303Y-113768309D01*
X145679858Y-113771220D01*
X145600660Y-113804024D01*
X145579233Y-113810524D01*
X145495149Y-113827250D01*
X145472869Y-113829444D01*
X145454450Y-113829444D01*
X145442199Y-113830046D01*
X145423862Y-113831852D01*
X144936140Y-113831852D01*
X144920001Y-113830263D01*
X144910392Y-113827348D01*
X144901528Y-113822610D01*
X144893763Y-113816237D01*
X144883552Y-113803794D01*
X144876622Y-113793425D01*
X144859295Y-113776098D01*
X144838920Y-113762485D01*
X144816280Y-113753109D01*
X144792247Y-113748329D01*
X144767743Y-113748330D01*
X144743710Y-113753112D01*
X144721071Y-113762490D01*
X144700698Y-113776105D01*
X144683371Y-113793432D01*
X144676442Y-113803802D01*
X144666237Y-113816237D01*
X144658472Y-113822610D01*
X144649608Y-113827348D01*
X144639999Y-113830263D01*
X144623860Y-113831852D01*
X144136138Y-113831852D01*
X144117801Y-113830046D01*
X144105550Y-113829444D01*
X144087131Y-113829444D01*
X144064851Y-113827250D01*
X143980767Y-113810524D01*
X143959340Y-113804024D01*
X143880142Y-113771220D01*
X143874697Y-113768309D01*
X143874691Y-113768307D01*
X143865831Y-113763571D01*
X143865827Y-113763568D01*
X143860386Y-113760660D01*
X143789101Y-113713029D01*
X143771796Y-113698828D01*
X143711172Y-113638204D01*
X143696971Y-113620899D01*
X143649340Y-113549614D01*
X143646432Y-113544173D01*
X143646429Y-113544169D01*
X143641693Y-113535309D01*
X143641691Y-113535303D01*
X143638780Y-113529858D01*
X143605976Y-113450660D01*
X143599476Y-113429233D01*
X143582750Y-113345149D01*
X143580556Y-113322869D01*
X143580556Y-113304450D01*
X143579954Y-113292199D01*
X143578148Y-113273862D01*
X143578148Y-112786139D01*
X143579954Y-112767801D01*
X143580556Y-112755550D01*
X143580556Y-112737131D01*
X143582750Y-112714851D01*
X143599476Y-112630767D01*
X143605976Y-112609340D01*
X143638780Y-112530142D01*
X143641691Y-112524697D01*
X143641693Y-112524691D01*
X143646429Y-112515831D01*
X143646432Y-112515827D01*
X143649340Y-112510386D01*
X143696971Y-112439101D01*
X143711172Y-112421796D01*
X143771796Y-112361172D01*
X143789101Y-112346971D01*
X143860386Y-112299340D01*
X143865827Y-112296432D01*
X143865831Y-112296429D01*
X143874691Y-112291693D01*
X143874697Y-112291691D01*
X143880142Y-112288780D01*
X143959340Y-112255976D01*
X143980767Y-112249476D01*
X144064851Y-112232750D01*
X144087131Y-112230556D01*
X144105550Y-112230556D01*
X144117801Y-112229954D01*
X144136139Y-112228148D01*
X144623860Y-112228148D01*
X144639999Y-112229737D01*
G37*
G36*
X158219059Y-112307860D02*
G01*
X158347766Y-112361172D01*
X158355732Y-112364472D01*
X158478735Y-112446660D01*
X158583340Y-112551265D01*
X158665528Y-112674268D01*
X158665529Y-112674270D01*
X158722140Y-112810941D01*
X158751000Y-112956032D01*
X158751000Y-113103968D01*
X158722140Y-113249059D01*
X158705183Y-113289998D01*
X158665528Y-113385732D01*
X158583340Y-113508735D01*
X158478735Y-113613340D01*
X158355732Y-113695528D01*
X158355731Y-113695529D01*
X158355730Y-113695529D01*
X158219059Y-113752140D01*
X158073968Y-113781000D01*
X157926032Y-113781000D01*
X157780941Y-113752140D01*
X157644270Y-113695529D01*
X157644269Y-113695529D01*
X157644268Y-113695528D01*
X157521265Y-113613340D01*
X157416660Y-113508735D01*
X157334472Y-113385732D01*
X157294818Y-113289998D01*
X157277860Y-113249059D01*
X157249000Y-113103968D01*
X157249000Y-112956032D01*
X157277860Y-112810941D01*
X157334471Y-112674270D01*
X157334472Y-112674268D01*
X157416660Y-112551265D01*
X157521265Y-112446660D01*
X157644268Y-112364472D01*
X157652235Y-112361172D01*
X157780941Y-112307860D01*
X157926032Y-112279000D01*
X158073968Y-112279000D01*
X158219059Y-112307860D01*
G37*
G36*
X142162279Y-109886566D02*
G01*
X142219059Y-109897860D01*
X142355732Y-109954472D01*
X142478735Y-110036660D01*
X142583340Y-110141265D01*
X142665528Y-110264268D01*
X142722140Y-110400941D01*
X142751000Y-110546033D01*
X142751000Y-110693967D01*
X142722140Y-110839059D01*
X142665528Y-110975732D01*
X142583340Y-111098735D01*
X142478735Y-111203340D01*
X142355732Y-111285528D01*
X142355731Y-111285529D01*
X142355730Y-111285529D01*
X142219059Y-111342140D01*
X142073968Y-111371000D01*
X141926032Y-111371000D01*
X141780941Y-111342140D01*
X141644270Y-111285529D01*
X141644269Y-111285529D01*
X141644268Y-111285528D01*
X141521265Y-111203340D01*
X141416660Y-111098735D01*
X141334472Y-110975732D01*
X141277860Y-110839059D01*
X141249000Y-110693967D01*
X141249000Y-110546033D01*
X141277860Y-110400941D01*
X141334472Y-110264268D01*
X141416660Y-110141265D01*
X141521265Y-110036660D01*
X141644268Y-109954472D01*
X141780941Y-109897860D01*
X141837721Y-109886566D01*
X141926032Y-109869000D01*
X142073968Y-109869000D01*
X142162279Y-109886566D01*
G37*
G36*
X154799999Y-109689737D02*
G01*
X154809608Y-109692652D01*
X154818472Y-109697390D01*
X154826237Y-109703763D01*
X154836448Y-109716206D01*
X154843378Y-109726575D01*
X154860705Y-109743902D01*
X154881080Y-109757515D01*
X154903720Y-109766891D01*
X154927753Y-109771671D01*
X154952257Y-109771670D01*
X154976290Y-109766888D01*
X154998929Y-109757510D01*
X155019302Y-109743895D01*
X155036629Y-109726568D01*
X155043558Y-109716198D01*
X155053763Y-109703763D01*
X155061528Y-109697390D01*
X155070392Y-109692652D01*
X155080001Y-109689737D01*
X155096140Y-109688148D01*
X155583861Y-109688148D01*
X155602199Y-109689954D01*
X155614450Y-109690556D01*
X155632869Y-109690556D01*
X155655149Y-109692750D01*
X155739233Y-109709476D01*
X155760660Y-109715976D01*
X155839858Y-109748780D01*
X155845303Y-109751691D01*
X155845309Y-109751693D01*
X155854169Y-109756429D01*
X155854173Y-109756432D01*
X155859614Y-109759340D01*
X155930899Y-109806971D01*
X155948204Y-109821172D01*
X156008828Y-109881796D01*
X156023029Y-109899101D01*
X156070660Y-109970386D01*
X156073568Y-109975827D01*
X156073571Y-109975831D01*
X156078307Y-109984691D01*
X156078309Y-109984697D01*
X156081220Y-109990142D01*
X156114024Y-110069340D01*
X156120524Y-110090767D01*
X156137250Y-110174851D01*
X156139444Y-110197131D01*
X156139444Y-110215550D01*
X156140046Y-110227801D01*
X156141852Y-110246139D01*
X156141852Y-110733862D01*
X156140046Y-110752199D01*
X156139444Y-110764450D01*
X156139444Y-110782869D01*
X156137250Y-110805149D01*
X156120524Y-110889233D01*
X156114024Y-110910660D01*
X156081220Y-110989858D01*
X156078309Y-110995303D01*
X156078307Y-110995309D01*
X156073571Y-111004169D01*
X156073568Y-111004173D01*
X156070660Y-111009614D01*
X156023029Y-111080899D01*
X156008828Y-111098204D01*
X155948204Y-111158828D01*
X155930899Y-111173029D01*
X155859614Y-111220660D01*
X155854173Y-111223568D01*
X155854169Y-111223571D01*
X155845309Y-111228307D01*
X155845303Y-111228309D01*
X155839858Y-111231220D01*
X155760660Y-111264024D01*
X155739233Y-111270524D01*
X155655149Y-111287250D01*
X155632869Y-111289444D01*
X155614450Y-111289444D01*
X155602199Y-111290046D01*
X155583862Y-111291852D01*
X155096140Y-111291852D01*
X155080001Y-111290263D01*
X155070392Y-111287348D01*
X155061528Y-111282610D01*
X155053763Y-111276237D01*
X155043552Y-111263794D01*
X155036622Y-111253425D01*
X155019295Y-111236098D01*
X154998920Y-111222485D01*
X154976280Y-111213109D01*
X154952247Y-111208329D01*
X154927743Y-111208330D01*
X154903710Y-111213112D01*
X154881071Y-111222490D01*
X154860698Y-111236105D01*
X154843371Y-111253432D01*
X154836442Y-111263802D01*
X154826237Y-111276237D01*
X154818472Y-111282610D01*
X154809608Y-111287348D01*
X154799999Y-111290263D01*
X154783860Y-111291852D01*
X154296138Y-111291852D01*
X154277801Y-111290046D01*
X154265550Y-111289444D01*
X154247131Y-111289444D01*
X154224851Y-111287250D01*
X154140767Y-111270524D01*
X154119340Y-111264024D01*
X154040142Y-111231220D01*
X154034697Y-111228309D01*
X154034691Y-111228307D01*
X154025831Y-111223571D01*
X154025827Y-111223568D01*
X154020386Y-111220660D01*
X153949101Y-111173029D01*
X153931796Y-111158828D01*
X153871172Y-111098204D01*
X153856971Y-111080899D01*
X153809340Y-111009614D01*
X153806432Y-111004173D01*
X153806429Y-111004169D01*
X153801693Y-110995309D01*
X153801691Y-110995303D01*
X153798780Y-110989858D01*
X153765976Y-110910660D01*
X153759476Y-110889233D01*
X153742750Y-110805149D01*
X153740556Y-110782869D01*
X153740556Y-110764450D01*
X153739954Y-110752199D01*
X153738148Y-110733862D01*
X153738148Y-110246139D01*
X153739954Y-110227801D01*
X153740556Y-110215550D01*
X153740556Y-110197131D01*
X153742750Y-110174851D01*
X153759476Y-110090767D01*
X153765976Y-110069340D01*
X153798780Y-109990142D01*
X153801691Y-109984697D01*
X153801693Y-109984691D01*
X153806429Y-109975831D01*
X153806432Y-109975827D01*
X153809340Y-109970386D01*
X153856971Y-109899101D01*
X153871172Y-109881796D01*
X153931796Y-109821172D01*
X153949101Y-109806971D01*
X154020386Y-109759340D01*
X154025827Y-109756432D01*
X154025831Y-109756429D01*
X154034691Y-109751693D01*
X154034697Y-109751691D01*
X154040142Y-109748780D01*
X154119340Y-109715976D01*
X154140767Y-109709476D01*
X154224851Y-109692750D01*
X154247131Y-109690556D01*
X154265550Y-109690556D01*
X154277801Y-109689954D01*
X154296139Y-109688148D01*
X154783860Y-109688148D01*
X154799999Y-109689737D01*
G37*
G36*
X158219059Y-109767860D02*
G01*
X158347766Y-109821172D01*
X158355732Y-109824472D01*
X158478735Y-109906660D01*
X158583340Y-110011265D01*
X158665528Y-110134268D01*
X158665529Y-110134270D01*
X158722140Y-110270941D01*
X158751000Y-110416032D01*
X158751000Y-110563968D01*
X158722140Y-110709059D01*
X158705183Y-110749998D01*
X158665528Y-110845732D01*
X158583340Y-110968735D01*
X158478735Y-111073340D01*
X158355732Y-111155528D01*
X158355731Y-111155529D01*
X158355730Y-111155529D01*
X158219059Y-111212140D01*
X158073968Y-111241000D01*
X157926032Y-111241000D01*
X157780941Y-111212140D01*
X157644270Y-111155529D01*
X157644269Y-111155529D01*
X157644268Y-111155528D01*
X157521265Y-111073340D01*
X157416660Y-110968735D01*
X157334472Y-110845732D01*
X157294818Y-110749998D01*
X157277860Y-110709059D01*
X157249000Y-110563968D01*
X157249000Y-110416032D01*
X157277860Y-110270941D01*
X157334471Y-110134270D01*
X157334472Y-110134268D01*
X157416660Y-110011265D01*
X157521265Y-109906660D01*
X157644268Y-109824472D01*
X157652235Y-109821172D01*
X157780941Y-109767860D01*
X157926032Y-109739000D01*
X158073968Y-109739000D01*
X158219059Y-109767860D01*
G37*
G36*
X142162279Y-107346566D02*
G01*
X142219059Y-107357860D01*
X142355732Y-107414472D01*
X142478735Y-107496660D01*
X142583340Y-107601265D01*
X142665528Y-107724268D01*
X142722140Y-107860941D01*
X142751000Y-108006033D01*
X142751000Y-108153967D01*
X142722140Y-108299059D01*
X142665528Y-108435732D01*
X142583340Y-108558735D01*
X142478735Y-108663340D01*
X142355732Y-108745528D01*
X142355731Y-108745529D01*
X142355730Y-108745529D01*
X142219059Y-108802140D01*
X142073968Y-108831000D01*
X141926032Y-108831000D01*
X141780941Y-108802140D01*
X141644270Y-108745529D01*
X141644269Y-108745529D01*
X141644268Y-108745528D01*
X141521265Y-108663340D01*
X141416660Y-108558735D01*
X141334472Y-108435732D01*
X141277860Y-108299059D01*
X141249000Y-108153967D01*
X141249000Y-108006033D01*
X141277860Y-107860941D01*
X141334472Y-107724268D01*
X141416660Y-107601265D01*
X141521265Y-107496660D01*
X141644268Y-107414472D01*
X141780941Y-107357860D01*
X141837721Y-107346566D01*
X141926032Y-107329000D01*
X142073968Y-107329000D01*
X142162279Y-107346566D01*
G37*
G36*
X144639999Y-107149737D02*
G01*
X144649608Y-107152652D01*
X144658472Y-107157390D01*
X144666237Y-107163763D01*
X144676448Y-107176206D01*
X144683378Y-107186575D01*
X144700705Y-107203902D01*
X144721080Y-107217515D01*
X144743720Y-107226891D01*
X144767753Y-107231671D01*
X144792257Y-107231670D01*
X144816290Y-107226888D01*
X144838929Y-107217510D01*
X144859302Y-107203895D01*
X144876629Y-107186568D01*
X144883558Y-107176198D01*
X144893763Y-107163763D01*
X144901528Y-107157390D01*
X144910392Y-107152652D01*
X144920001Y-107149737D01*
X144936140Y-107148148D01*
X145423861Y-107148148D01*
X145442199Y-107149954D01*
X145454450Y-107150556D01*
X145472869Y-107150556D01*
X145495149Y-107152750D01*
X145579233Y-107169476D01*
X145600660Y-107175976D01*
X145679858Y-107208780D01*
X145685303Y-107211691D01*
X145685309Y-107211693D01*
X145694169Y-107216429D01*
X145694173Y-107216432D01*
X145699614Y-107219340D01*
X145770899Y-107266971D01*
X145788204Y-107281172D01*
X145848828Y-107341796D01*
X145863029Y-107359101D01*
X145910660Y-107430386D01*
X145913568Y-107435827D01*
X145913571Y-107435831D01*
X145918307Y-107444691D01*
X145918309Y-107444697D01*
X145921220Y-107450142D01*
X145954024Y-107529340D01*
X145960524Y-107550767D01*
X145977250Y-107634851D01*
X145979444Y-107657131D01*
X145979444Y-107675550D01*
X145980046Y-107687801D01*
X145981852Y-107706139D01*
X145981852Y-108193862D01*
X145980046Y-108212199D01*
X145979444Y-108224450D01*
X145979444Y-108242869D01*
X145977250Y-108265149D01*
X145960524Y-108349233D01*
X145954024Y-108370660D01*
X145921220Y-108449858D01*
X145918309Y-108455303D01*
X145918307Y-108455309D01*
X145913571Y-108464169D01*
X145913568Y-108464173D01*
X145910660Y-108469614D01*
X145863029Y-108540899D01*
X145848828Y-108558204D01*
X145788204Y-108618828D01*
X145770899Y-108633029D01*
X145699614Y-108680660D01*
X145694173Y-108683568D01*
X145694169Y-108683571D01*
X145685309Y-108688307D01*
X145685303Y-108688309D01*
X145679858Y-108691220D01*
X145600660Y-108724024D01*
X145579233Y-108730524D01*
X145495149Y-108747250D01*
X145472869Y-108749444D01*
X145454450Y-108749444D01*
X145442199Y-108750046D01*
X145423862Y-108751852D01*
X144936140Y-108751852D01*
X144920001Y-108750263D01*
X144910392Y-108747348D01*
X144901528Y-108742610D01*
X144893763Y-108736237D01*
X144883552Y-108723794D01*
X144876622Y-108713425D01*
X144859295Y-108696098D01*
X144838920Y-108682485D01*
X144816280Y-108673109D01*
X144792247Y-108668329D01*
X144767743Y-108668330D01*
X144743710Y-108673112D01*
X144721071Y-108682490D01*
X144700698Y-108696105D01*
X144683371Y-108713432D01*
X144676442Y-108723802D01*
X144666237Y-108736237D01*
X144658472Y-108742610D01*
X144649608Y-108747348D01*
X144639999Y-108750263D01*
X144623860Y-108751852D01*
X144136138Y-108751852D01*
X144117801Y-108750046D01*
X144105550Y-108749444D01*
X144087131Y-108749444D01*
X144064851Y-108747250D01*
X143980767Y-108730524D01*
X143959340Y-108724024D01*
X143880142Y-108691220D01*
X143874697Y-108688309D01*
X143874691Y-108688307D01*
X143865831Y-108683571D01*
X143865827Y-108683568D01*
X143860386Y-108680660D01*
X143789101Y-108633029D01*
X143771796Y-108618828D01*
X143711172Y-108558204D01*
X143696971Y-108540899D01*
X143649340Y-108469614D01*
X143646432Y-108464173D01*
X143646429Y-108464169D01*
X143641693Y-108455309D01*
X143641691Y-108455303D01*
X143638780Y-108449858D01*
X143605976Y-108370660D01*
X143599476Y-108349233D01*
X143582750Y-108265149D01*
X143580556Y-108242869D01*
X143580556Y-108224450D01*
X143579954Y-108212199D01*
X143578148Y-108193862D01*
X143578148Y-107706139D01*
X143579954Y-107687801D01*
X143580556Y-107675550D01*
X143580556Y-107657131D01*
X143582750Y-107634851D01*
X143599476Y-107550767D01*
X143605976Y-107529340D01*
X143638780Y-107450142D01*
X143641691Y-107444697D01*
X143641693Y-107444691D01*
X143646429Y-107435831D01*
X143646432Y-107435827D01*
X143649340Y-107430386D01*
X143696971Y-107359101D01*
X143711172Y-107341796D01*
X143771796Y-107281172D01*
X143789101Y-107266971D01*
X143860386Y-107219340D01*
X143865827Y-107216432D01*
X143865831Y-107216429D01*
X143874691Y-107211693D01*
X143874697Y-107211691D01*
X143880142Y-107208780D01*
X143959340Y-107175976D01*
X143980767Y-107169476D01*
X144064851Y-107152750D01*
X144087131Y-107150556D01*
X144105550Y-107150556D01*
X144117801Y-107149954D01*
X144136139Y-107148148D01*
X144623860Y-107148148D01*
X144639999Y-107149737D01*
G37*
G36*
X158219059Y-107227860D02*
G01*
X158347766Y-107281172D01*
X158355732Y-107284472D01*
X158478735Y-107366660D01*
X158583340Y-107471265D01*
X158665528Y-107594268D01*
X158665529Y-107594270D01*
X158722140Y-107730941D01*
X158751000Y-107876032D01*
X158751000Y-108023968D01*
X158722140Y-108169059D01*
X158705183Y-108209998D01*
X158665528Y-108305732D01*
X158583340Y-108428735D01*
X158478735Y-108533340D01*
X158355732Y-108615528D01*
X158355731Y-108615529D01*
X158355730Y-108615529D01*
X158219059Y-108672140D01*
X158073968Y-108701000D01*
X157926032Y-108701000D01*
X157780941Y-108672140D01*
X157644270Y-108615529D01*
X157644269Y-108615529D01*
X157644268Y-108615528D01*
X157521265Y-108533340D01*
X157416660Y-108428735D01*
X157334472Y-108305732D01*
X157294818Y-108209998D01*
X157277860Y-108169059D01*
X157249000Y-108023968D01*
X157249000Y-107876032D01*
X157277860Y-107730941D01*
X157334471Y-107594270D01*
X157334472Y-107594268D01*
X157416660Y-107471265D01*
X157521265Y-107366660D01*
X157644268Y-107284472D01*
X157652235Y-107281172D01*
X157780941Y-107227860D01*
X157926032Y-107199000D01*
X158073968Y-107199000D01*
X158219059Y-107227860D01*
G37*
G36*
X142162279Y-104806566D02*
G01*
X142219059Y-104817860D01*
X142355732Y-104874472D01*
X142478735Y-104956660D01*
X142583340Y-105061265D01*
X142665528Y-105184268D01*
X142722140Y-105320941D01*
X142751000Y-105466033D01*
X142751000Y-105613967D01*
X142722140Y-105759059D01*
X142665528Y-105895732D01*
X142583340Y-106018735D01*
X142478735Y-106123340D01*
X142355732Y-106205528D01*
X142355731Y-106205529D01*
X142355730Y-106205529D01*
X142219059Y-106262140D01*
X142073968Y-106291000D01*
X141926032Y-106291000D01*
X141780941Y-106262140D01*
X141644270Y-106205529D01*
X141644269Y-106205529D01*
X141644268Y-106205528D01*
X141521265Y-106123340D01*
X141416660Y-106018735D01*
X141334472Y-105895732D01*
X141277860Y-105759059D01*
X141249000Y-105613967D01*
X141249000Y-105466033D01*
X141277860Y-105320941D01*
X141334472Y-105184268D01*
X141416660Y-105061265D01*
X141521265Y-104956660D01*
X141644268Y-104874472D01*
X141780941Y-104817860D01*
X141837721Y-104806566D01*
X141926032Y-104789000D01*
X142073968Y-104789000D01*
X142162279Y-104806566D01*
G37*
G36*
X154799999Y-104609737D02*
G01*
X154809608Y-104612652D01*
X154818472Y-104617390D01*
X154826237Y-104623763D01*
X154836448Y-104636206D01*
X154843378Y-104646575D01*
X154860705Y-104663902D01*
X154881080Y-104677515D01*
X154903720Y-104686891D01*
X154927753Y-104691671D01*
X154952257Y-104691670D01*
X154976290Y-104686888D01*
X154998929Y-104677510D01*
X155019302Y-104663895D01*
X155036629Y-104646568D01*
X155043558Y-104636198D01*
X155053763Y-104623763D01*
X155061528Y-104617390D01*
X155070392Y-104612652D01*
X155080001Y-104609737D01*
X155096140Y-104608148D01*
X155583861Y-104608148D01*
X155602199Y-104609954D01*
X155614450Y-104610556D01*
X155632869Y-104610556D01*
X155655149Y-104612750D01*
X155739233Y-104629476D01*
X155760660Y-104635976D01*
X155839858Y-104668780D01*
X155845303Y-104671691D01*
X155845309Y-104671693D01*
X155854169Y-104676429D01*
X155854173Y-104676432D01*
X155859614Y-104679340D01*
X155930899Y-104726971D01*
X155948204Y-104741172D01*
X156008828Y-104801796D01*
X156023029Y-104819101D01*
X156070660Y-104890386D01*
X156073568Y-104895827D01*
X156073571Y-104895831D01*
X156078307Y-104904691D01*
X156078309Y-104904697D01*
X156081220Y-104910142D01*
X156114024Y-104989340D01*
X156120524Y-105010767D01*
X156137250Y-105094851D01*
X156139444Y-105117131D01*
X156139444Y-105135550D01*
X156140046Y-105147801D01*
X156141852Y-105166139D01*
X156141852Y-105653862D01*
X156140046Y-105672199D01*
X156139444Y-105684450D01*
X156139444Y-105702869D01*
X156137250Y-105725149D01*
X156120524Y-105809233D01*
X156114024Y-105830660D01*
X156081220Y-105909858D01*
X156078309Y-105915303D01*
X156078307Y-105915309D01*
X156073571Y-105924169D01*
X156073568Y-105924173D01*
X156070660Y-105929614D01*
X156023029Y-106000899D01*
X156008828Y-106018204D01*
X155948204Y-106078828D01*
X155930899Y-106093029D01*
X155859614Y-106140660D01*
X155854173Y-106143568D01*
X155854169Y-106143571D01*
X155845309Y-106148307D01*
X155845303Y-106148309D01*
X155839858Y-106151220D01*
X155760660Y-106184024D01*
X155739233Y-106190524D01*
X155655149Y-106207250D01*
X155632869Y-106209444D01*
X155614450Y-106209444D01*
X155602199Y-106210046D01*
X155583862Y-106211852D01*
X155096140Y-106211852D01*
X155080001Y-106210263D01*
X155070392Y-106207348D01*
X155061528Y-106202610D01*
X155053763Y-106196237D01*
X155043552Y-106183794D01*
X155036622Y-106173425D01*
X155019295Y-106156098D01*
X154998920Y-106142485D01*
X154976280Y-106133109D01*
X154952247Y-106128329D01*
X154927743Y-106128330D01*
X154903710Y-106133112D01*
X154881071Y-106142490D01*
X154860698Y-106156105D01*
X154843371Y-106173432D01*
X154836442Y-106183802D01*
X154826237Y-106196237D01*
X154818472Y-106202610D01*
X154809608Y-106207348D01*
X154799999Y-106210263D01*
X154783860Y-106211852D01*
X154296138Y-106211852D01*
X154277801Y-106210046D01*
X154265550Y-106209444D01*
X154247131Y-106209444D01*
X154224851Y-106207250D01*
X154140767Y-106190524D01*
X154119340Y-106184024D01*
X154040142Y-106151220D01*
X154034697Y-106148309D01*
X154034691Y-106148307D01*
X154025831Y-106143571D01*
X154025827Y-106143568D01*
X154020386Y-106140660D01*
X153949101Y-106093029D01*
X153931796Y-106078828D01*
X153871172Y-106018204D01*
X153856971Y-106000899D01*
X153809340Y-105929614D01*
X153806432Y-105924173D01*
X153806429Y-105924169D01*
X153801693Y-105915309D01*
X153801691Y-105915303D01*
X153798780Y-105909858D01*
X153765976Y-105830660D01*
X153759476Y-105809233D01*
X153742750Y-105725149D01*
X153740556Y-105702869D01*
X153740556Y-105684450D01*
X153739954Y-105672199D01*
X153738148Y-105653862D01*
X153738148Y-105166139D01*
X153739954Y-105147801D01*
X153740556Y-105135550D01*
X153740556Y-105117131D01*
X153742750Y-105094851D01*
X153759476Y-105010767D01*
X153765976Y-104989340D01*
X153798780Y-104910142D01*
X153801691Y-104904697D01*
X153801693Y-104904691D01*
X153806429Y-104895831D01*
X153806432Y-104895827D01*
X153809340Y-104890386D01*
X153856971Y-104819101D01*
X153871172Y-104801796D01*
X153931796Y-104741172D01*
X153949101Y-104726971D01*
X154020386Y-104679340D01*
X154025827Y-104676432D01*
X154025831Y-104676429D01*
X154034691Y-104671693D01*
X154034697Y-104671691D01*
X154040142Y-104668780D01*
X154119340Y-104635976D01*
X154140767Y-104629476D01*
X154224851Y-104612750D01*
X154247131Y-104610556D01*
X154265550Y-104610556D01*
X154277801Y-104609954D01*
X154296139Y-104608148D01*
X154783860Y-104608148D01*
X154799999Y-104609737D01*
G37*
G36*
X158219059Y-104687860D02*
G01*
X158347766Y-104741172D01*
X158355732Y-104744472D01*
X158478735Y-104826660D01*
X158583340Y-104931265D01*
X158665528Y-105054268D01*
X158665529Y-105054270D01*
X158722140Y-105190941D01*
X158751000Y-105336032D01*
X158751000Y-105483968D01*
X158722140Y-105629059D01*
X158705183Y-105669998D01*
X158665528Y-105765732D01*
X158583340Y-105888735D01*
X158478735Y-105993340D01*
X158355732Y-106075528D01*
X158355731Y-106075529D01*
X158355730Y-106075529D01*
X158219059Y-106132140D01*
X158073968Y-106161000D01*
X157926032Y-106161000D01*
X157780941Y-106132140D01*
X157644270Y-106075529D01*
X157644269Y-106075529D01*
X157644268Y-106075528D01*
X157521265Y-105993340D01*
X157416660Y-105888735D01*
X157334472Y-105765732D01*
X157294818Y-105669998D01*
X157277860Y-105629059D01*
X157249000Y-105483968D01*
X157249000Y-105336032D01*
X157277860Y-105190941D01*
X157334471Y-105054270D01*
X157334472Y-105054268D01*
X157416660Y-104931265D01*
X157521265Y-104826660D01*
X157644268Y-104744472D01*
X157652235Y-104741172D01*
X157780941Y-104687860D01*
X157926032Y-104659000D01*
X158073968Y-104659000D01*
X158219059Y-104687860D01*
G37*
G36*
X144639999Y-102199737D02*
G01*
X144649608Y-102202652D01*
X144658472Y-102207390D01*
X144666237Y-102213763D01*
X144676448Y-102226206D01*
X144683378Y-102236575D01*
X144700705Y-102253902D01*
X144721080Y-102267515D01*
X144743720Y-102276891D01*
X144767753Y-102281671D01*
X144792257Y-102281670D01*
X144816290Y-102276888D01*
X144838929Y-102267510D01*
X144859302Y-102253895D01*
X144876629Y-102236568D01*
X144883558Y-102226198D01*
X144893763Y-102213763D01*
X144901528Y-102207390D01*
X144910392Y-102202652D01*
X144920001Y-102199737D01*
X144936140Y-102198148D01*
X145423861Y-102198148D01*
X145442199Y-102199954D01*
X145454450Y-102200556D01*
X145472869Y-102200556D01*
X145495149Y-102202750D01*
X145579233Y-102219476D01*
X145600660Y-102225976D01*
X145679858Y-102258780D01*
X145685303Y-102261691D01*
X145685309Y-102261693D01*
X145694169Y-102266429D01*
X145694173Y-102266432D01*
X145699614Y-102269340D01*
X145770899Y-102316971D01*
X145788204Y-102331172D01*
X145848828Y-102391796D01*
X145863029Y-102409101D01*
X145910660Y-102480386D01*
X145913568Y-102485827D01*
X145913571Y-102485831D01*
X145918307Y-102494691D01*
X145918309Y-102494697D01*
X145921220Y-102500142D01*
X145954024Y-102579340D01*
X145960524Y-102600767D01*
X145977250Y-102684851D01*
X145979444Y-102707131D01*
X145979444Y-102725550D01*
X145980046Y-102737801D01*
X145981852Y-102756139D01*
X145981852Y-103243862D01*
X145980046Y-103262199D01*
X145979444Y-103274450D01*
X145979444Y-103292869D01*
X145977250Y-103315149D01*
X145960524Y-103399233D01*
X145954024Y-103420660D01*
X145921220Y-103499858D01*
X145918309Y-103505303D01*
X145918307Y-103505309D01*
X145913571Y-103514169D01*
X145913568Y-103514173D01*
X145910660Y-103519614D01*
X145863029Y-103590899D01*
X145848828Y-103608204D01*
X145788204Y-103668828D01*
X145770899Y-103683029D01*
X145699614Y-103730660D01*
X145694173Y-103733568D01*
X145694169Y-103733571D01*
X145685309Y-103738307D01*
X145685303Y-103738309D01*
X145679858Y-103741220D01*
X145600660Y-103774024D01*
X145579233Y-103780524D01*
X145495149Y-103797250D01*
X145472869Y-103799444D01*
X145454450Y-103799444D01*
X145442199Y-103800046D01*
X145423862Y-103801852D01*
X144936140Y-103801852D01*
X144920001Y-103800263D01*
X144910392Y-103797348D01*
X144901528Y-103792610D01*
X144893763Y-103786237D01*
X144883552Y-103773794D01*
X144876622Y-103763425D01*
X144859295Y-103746098D01*
X144838920Y-103732485D01*
X144816280Y-103723109D01*
X144792247Y-103718329D01*
X144767743Y-103718330D01*
X144743710Y-103723112D01*
X144721071Y-103732490D01*
X144700698Y-103746105D01*
X144683371Y-103763432D01*
X144676442Y-103773802D01*
X144666237Y-103786237D01*
X144658472Y-103792610D01*
X144649608Y-103797348D01*
X144639999Y-103800263D01*
X144623860Y-103801852D01*
X144136138Y-103801852D01*
X144117801Y-103800046D01*
X144105550Y-103799444D01*
X144087131Y-103799444D01*
X144064851Y-103797250D01*
X143980767Y-103780524D01*
X143959340Y-103774024D01*
X143880142Y-103741220D01*
X143874697Y-103738309D01*
X143874691Y-103738307D01*
X143865831Y-103733571D01*
X143865827Y-103733568D01*
X143860386Y-103730660D01*
X143789101Y-103683029D01*
X143771796Y-103668828D01*
X143711172Y-103608204D01*
X143696971Y-103590899D01*
X143649340Y-103519614D01*
X143646432Y-103514173D01*
X143646429Y-103514169D01*
X143641693Y-103505309D01*
X143641691Y-103505303D01*
X143638780Y-103499858D01*
X143605976Y-103420660D01*
X143599476Y-103399233D01*
X143582750Y-103315149D01*
X143580556Y-103292869D01*
X143580556Y-103274450D01*
X143579954Y-103262199D01*
X143578148Y-103243862D01*
X143578148Y-102756139D01*
X143579954Y-102737801D01*
X143580556Y-102725550D01*
X143580556Y-102707131D01*
X143582750Y-102684851D01*
X143599476Y-102600767D01*
X143605976Y-102579340D01*
X143638780Y-102500142D01*
X143641691Y-102494697D01*
X143641693Y-102494691D01*
X143646429Y-102485831D01*
X143646432Y-102485827D01*
X143649340Y-102480386D01*
X143696971Y-102409101D01*
X143711172Y-102391796D01*
X143771796Y-102331172D01*
X143789101Y-102316971D01*
X143860386Y-102269340D01*
X143865827Y-102266432D01*
X143865831Y-102266429D01*
X143874691Y-102261693D01*
X143874697Y-102261691D01*
X143880142Y-102258780D01*
X143959340Y-102225976D01*
X143980767Y-102219476D01*
X144064851Y-102202750D01*
X144087131Y-102200556D01*
X144105550Y-102200556D01*
X144117801Y-102199954D01*
X144136139Y-102198148D01*
X144623860Y-102198148D01*
X144639999Y-102199737D01*
G37*
G36*
X142219059Y-102277860D02*
G01*
X142347766Y-102331172D01*
X142355732Y-102334472D01*
X142478735Y-102416660D01*
X142583340Y-102521265D01*
X142665528Y-102644268D01*
X142665529Y-102644270D01*
X142722140Y-102780941D01*
X142751000Y-102926032D01*
X142751000Y-103073968D01*
X142722140Y-103219059D01*
X142705183Y-103259998D01*
X142665528Y-103355732D01*
X142583340Y-103478735D01*
X142478735Y-103583340D01*
X142355732Y-103665528D01*
X142355731Y-103665529D01*
X142355730Y-103665529D01*
X142219059Y-103722140D01*
X142073968Y-103751000D01*
X141926032Y-103751000D01*
X141780941Y-103722140D01*
X141644270Y-103665529D01*
X141644269Y-103665529D01*
X141644268Y-103665528D01*
X141521265Y-103583340D01*
X141416660Y-103478735D01*
X141334472Y-103355732D01*
X141294818Y-103259998D01*
X141277860Y-103219059D01*
X141249000Y-103073968D01*
X141249000Y-102926032D01*
X141277860Y-102780941D01*
X141334471Y-102644270D01*
X141334472Y-102644268D01*
X141416660Y-102521265D01*
X141521265Y-102416660D01*
X141644268Y-102334472D01*
X141652235Y-102331172D01*
X141780941Y-102277860D01*
X141926032Y-102249000D01*
X142073968Y-102249000D01*
X142219059Y-102277860D01*
G37*
G36*
X158219059Y-102147860D02*
G01*
X158351339Y-102202652D01*
X158355732Y-102204472D01*
X158478735Y-102286660D01*
X158583340Y-102391265D01*
X158665528Y-102514268D01*
X158722140Y-102650941D01*
X158751000Y-102796033D01*
X158751000Y-102943967D01*
X158722140Y-103089059D01*
X158665528Y-103225732D01*
X158583340Y-103348735D01*
X158478735Y-103453340D01*
X158355732Y-103535528D01*
X158355731Y-103535529D01*
X158355730Y-103535529D01*
X158219059Y-103592140D01*
X158073968Y-103621000D01*
X157926032Y-103621000D01*
X157780941Y-103592140D01*
X157644270Y-103535529D01*
X157644269Y-103535529D01*
X157644268Y-103535528D01*
X157521265Y-103453340D01*
X157416660Y-103348735D01*
X157334472Y-103225732D01*
X157277860Y-103089059D01*
X157249000Y-102943967D01*
X157249000Y-102796033D01*
X157277860Y-102650941D01*
X157334472Y-102514268D01*
X157416660Y-102391265D01*
X157521265Y-102286660D01*
X157644268Y-102204472D01*
X157648662Y-102202652D01*
X157780941Y-102147860D01*
X157926032Y-102119000D01*
X158073968Y-102119000D01*
X158219059Y-102147860D01*
G37*
G36*
X150598254Y-98027818D02*
G01*
X150971511Y-98182426D01*
X150971513Y-98182427D01*
X151153712Y-98304169D01*
X151307436Y-98406884D01*
X151593116Y-98692564D01*
X151817574Y-99028489D01*
X151972182Y-99401746D01*
X152051000Y-99797993D01*
X152051000Y-100202007D01*
X151972182Y-100598254D01*
X151817574Y-100971511D01*
X151817573Y-100971513D01*
X151593116Y-101307436D01*
X151307436Y-101593116D01*
X150971513Y-101817573D01*
X150971512Y-101817574D01*
X150971511Y-101817574D01*
X150598254Y-101972182D01*
X150202007Y-102051000D01*
X149797993Y-102051000D01*
X149401746Y-101972182D01*
X149028489Y-101817574D01*
X149028488Y-101817574D01*
X149028487Y-101817573D01*
X148692564Y-101593116D01*
X148406884Y-101307436D01*
X148182427Y-100971513D01*
X148182426Y-100971511D01*
X148027818Y-100598254D01*
X147949000Y-100202007D01*
X147949000Y-99797993D01*
X148027818Y-99401746D01*
X148182426Y-99028489D01*
X148406884Y-98692564D01*
X148692564Y-98406884D01*
X148846288Y-98304169D01*
X149028487Y-98182427D01*
X149028489Y-98182426D01*
X149401746Y-98027818D01*
X149797993Y-97949000D01*
X150202007Y-97949000D01*
X150598254Y-98027818D01*
G37*
G36*
X158701000Y-101231000D02*
G01*
X156899000Y-101231000D01*
X156899000Y-99429000D01*
X158701000Y-99429000D01*
X158701000Y-101231000D01*
G37*
G36*
X143101000Y-101231000D02*
G01*
X141299000Y-101231000D01*
X141299000Y-99429000D01*
X143101000Y-99429000D01*
X143101000Y-101231000D01*
G37*
G36*
X154799999Y-96989737D02*
G01*
X154809608Y-96992652D01*
X154818472Y-96997390D01*
X154826237Y-97003763D01*
X154836448Y-97016206D01*
X154843378Y-97026575D01*
X154860705Y-97043902D01*
X154881080Y-97057515D01*
X154903720Y-97066891D01*
X154927753Y-97071671D01*
X154952257Y-97071670D01*
X154976290Y-97066888D01*
X154998929Y-97057510D01*
X155019302Y-97043895D01*
X155036629Y-97026568D01*
X155043558Y-97016198D01*
X155053763Y-97003763D01*
X155061528Y-96997390D01*
X155070392Y-96992652D01*
X155080001Y-96989737D01*
X155096140Y-96988148D01*
X155583861Y-96988148D01*
X155602199Y-96989954D01*
X155614450Y-96990556D01*
X155632869Y-96990556D01*
X155655149Y-96992750D01*
X155739233Y-97009476D01*
X155760660Y-97015976D01*
X155839858Y-97048780D01*
X155845303Y-97051691D01*
X155845309Y-97051693D01*
X155854169Y-97056429D01*
X155854173Y-97056432D01*
X155859614Y-97059340D01*
X155930899Y-97106971D01*
X155948204Y-97121172D01*
X156008828Y-97181796D01*
X156023029Y-97199101D01*
X156070660Y-97270386D01*
X156073568Y-97275827D01*
X156073571Y-97275831D01*
X156078307Y-97284691D01*
X156078309Y-97284697D01*
X156081220Y-97290142D01*
X156114024Y-97369340D01*
X156120524Y-97390767D01*
X156137250Y-97474851D01*
X156139444Y-97497131D01*
X156139444Y-97515550D01*
X156140046Y-97527801D01*
X156141852Y-97546139D01*
X156141852Y-98033862D01*
X156140046Y-98052199D01*
X156139444Y-98064450D01*
X156139444Y-98082869D01*
X156137250Y-98105149D01*
X156120524Y-98189233D01*
X156114024Y-98210660D01*
X156081220Y-98289858D01*
X156078309Y-98295303D01*
X156078307Y-98295309D01*
X156073571Y-98304169D01*
X156073568Y-98304173D01*
X156070660Y-98309614D01*
X156023029Y-98380899D01*
X156008828Y-98398204D01*
X155948204Y-98458828D01*
X155930899Y-98473029D01*
X155859614Y-98520660D01*
X155854173Y-98523568D01*
X155854169Y-98523571D01*
X155845309Y-98528307D01*
X155845303Y-98528309D01*
X155839858Y-98531220D01*
X155760660Y-98564024D01*
X155739233Y-98570524D01*
X155655149Y-98587250D01*
X155632869Y-98589444D01*
X155614450Y-98589444D01*
X155602199Y-98590046D01*
X155583862Y-98591852D01*
X155096140Y-98591852D01*
X155080001Y-98590263D01*
X155070392Y-98587348D01*
X155061528Y-98582610D01*
X155053763Y-98576237D01*
X155043552Y-98563794D01*
X155036622Y-98553425D01*
X155019295Y-98536098D01*
X154998920Y-98522485D01*
X154976280Y-98513109D01*
X154952247Y-98508329D01*
X154927743Y-98508330D01*
X154903710Y-98513112D01*
X154881071Y-98522490D01*
X154860698Y-98536105D01*
X154843371Y-98553432D01*
X154836442Y-98563802D01*
X154826237Y-98576237D01*
X154818472Y-98582610D01*
X154809608Y-98587348D01*
X154799999Y-98590263D01*
X154783860Y-98591852D01*
X154296138Y-98591852D01*
X154277801Y-98590046D01*
X154265550Y-98589444D01*
X154247131Y-98589444D01*
X154224851Y-98587250D01*
X154140767Y-98570524D01*
X154119340Y-98564024D01*
X154040142Y-98531220D01*
X154034697Y-98528309D01*
X154034691Y-98528307D01*
X154025831Y-98523571D01*
X154025827Y-98523568D01*
X154020386Y-98520660D01*
X153949101Y-98473029D01*
X153931796Y-98458828D01*
X153871172Y-98398204D01*
X153856971Y-98380899D01*
X153809340Y-98309614D01*
X153806432Y-98304173D01*
X153806429Y-98304169D01*
X153801693Y-98295309D01*
X153801691Y-98295303D01*
X153798780Y-98289858D01*
X153765976Y-98210660D01*
X153759476Y-98189233D01*
X153742750Y-98105149D01*
X153740556Y-98082869D01*
X153740556Y-98064450D01*
X153739954Y-98052199D01*
X153738148Y-98033862D01*
X153738148Y-97546139D01*
X153739954Y-97527801D01*
X153740556Y-97515550D01*
X153740556Y-97497131D01*
X153742750Y-97474851D01*
X153759476Y-97390767D01*
X153765976Y-97369340D01*
X153798780Y-97290142D01*
X153801691Y-97284697D01*
X153801693Y-97284691D01*
X153806429Y-97275831D01*
X153806432Y-97275827D01*
X153809340Y-97270386D01*
X153856971Y-97199101D01*
X153871172Y-97181796D01*
X153931796Y-97121172D01*
X153949101Y-97106971D01*
X154020386Y-97059340D01*
X154025827Y-97056432D01*
X154025831Y-97056429D01*
X154034691Y-97051693D01*
X154034697Y-97051691D01*
X154040142Y-97048780D01*
X154119340Y-97015976D01*
X154140767Y-97009476D01*
X154224851Y-96992750D01*
X154247131Y-96990556D01*
X154265550Y-96990556D01*
X154277801Y-96989954D01*
X154296139Y-96988148D01*
X154783860Y-96988148D01*
X154799999Y-96989737D01*
G37*
G36*
X158219059Y-97057860D02*
G01*
X158347073Y-97110885D01*
X158355732Y-97114472D01*
X158478735Y-97196660D01*
X158583340Y-97301265D01*
X158665528Y-97424268D01*
X158722140Y-97560941D01*
X158751000Y-97706033D01*
X158751000Y-97853967D01*
X158722140Y-97999059D01*
X158665528Y-98135732D01*
X158583340Y-98258735D01*
X158478735Y-98363340D01*
X158355732Y-98445528D01*
X158355731Y-98445529D01*
X158355730Y-98445529D01*
X158219059Y-98502140D01*
X158073968Y-98531000D01*
X157926032Y-98531000D01*
X157780941Y-98502140D01*
X157644270Y-98445529D01*
X157644269Y-98445529D01*
X157644268Y-98445528D01*
X157521265Y-98363340D01*
X157416660Y-98258735D01*
X157334472Y-98135732D01*
X157277860Y-97999059D01*
X157249000Y-97853967D01*
X157249000Y-97706033D01*
X157277860Y-97560941D01*
X157334472Y-97424268D01*
X157416660Y-97301265D01*
X157521265Y-97196660D01*
X157644268Y-97114472D01*
X157652928Y-97110885D01*
X157780941Y-97057860D01*
X157926032Y-97029000D01*
X158073968Y-97029000D01*
X158219059Y-97057860D01*
G37*
G36*
X142219059Y-97057860D02*
G01*
X142347073Y-97110885D01*
X142355732Y-97114472D01*
X142478735Y-97196660D01*
X142583340Y-97301265D01*
X142665528Y-97424268D01*
X142722140Y-97560941D01*
X142751000Y-97706033D01*
X142751000Y-97853967D01*
X142722140Y-97999059D01*
X142665528Y-98135732D01*
X142583340Y-98258735D01*
X142478735Y-98363340D01*
X142355732Y-98445528D01*
X142355731Y-98445529D01*
X142355730Y-98445529D01*
X142219059Y-98502140D01*
X142073968Y-98531000D01*
X141926032Y-98531000D01*
X141780941Y-98502140D01*
X141644270Y-98445529D01*
X141644269Y-98445529D01*
X141644268Y-98445528D01*
X141521265Y-98363340D01*
X141416660Y-98258735D01*
X141334472Y-98135732D01*
X141277860Y-97999059D01*
X141249000Y-97853967D01*
X141249000Y-97706033D01*
X141277860Y-97560941D01*
X141334472Y-97424268D01*
X141416660Y-97301265D01*
X141521265Y-97196660D01*
X141644268Y-97114472D01*
X141652928Y-97110885D01*
X141780941Y-97057860D01*
X141926032Y-97029000D01*
X142073968Y-97029000D01*
X142219059Y-97057860D01*
G37*
G36*
X144639999Y-94449737D02*
G01*
X144649608Y-94452652D01*
X144658472Y-94457390D01*
X144666237Y-94463763D01*
X144676448Y-94476206D01*
X144683378Y-94486575D01*
X144700705Y-94503902D01*
X144721080Y-94517515D01*
X144743720Y-94526891D01*
X144767753Y-94531671D01*
X144792257Y-94531670D01*
X144816290Y-94526888D01*
X144838929Y-94517510D01*
X144859302Y-94503895D01*
X144876629Y-94486568D01*
X144883558Y-94476198D01*
X144893763Y-94463763D01*
X144901528Y-94457390D01*
X144910392Y-94452652D01*
X144920001Y-94449737D01*
X144936140Y-94448148D01*
X145423861Y-94448148D01*
X145442199Y-94449954D01*
X145454450Y-94450556D01*
X145472869Y-94450556D01*
X145495149Y-94452750D01*
X145579233Y-94469476D01*
X145600660Y-94475976D01*
X145679858Y-94508780D01*
X145685303Y-94511691D01*
X145685309Y-94511693D01*
X145694169Y-94516429D01*
X145694173Y-94516432D01*
X145699614Y-94519340D01*
X145770899Y-94566971D01*
X145788204Y-94581172D01*
X145848828Y-94641796D01*
X145863029Y-94659101D01*
X145910660Y-94730386D01*
X145913568Y-94735827D01*
X145913571Y-94735831D01*
X145918307Y-94744691D01*
X145918309Y-94744697D01*
X145921220Y-94750142D01*
X145954024Y-94829340D01*
X145960524Y-94850767D01*
X145977250Y-94934851D01*
X145979444Y-94957131D01*
X145979444Y-94975550D01*
X145980046Y-94987801D01*
X145981852Y-95006139D01*
X145981852Y-95493862D01*
X145980046Y-95512199D01*
X145979444Y-95524450D01*
X145979444Y-95542869D01*
X145977250Y-95565149D01*
X145960524Y-95649233D01*
X145954024Y-95670660D01*
X145921220Y-95749858D01*
X145918309Y-95755303D01*
X145918307Y-95755309D01*
X145913571Y-95764169D01*
X145913568Y-95764173D01*
X145910660Y-95769614D01*
X145863029Y-95840899D01*
X145848828Y-95858204D01*
X145788204Y-95918828D01*
X145770899Y-95933029D01*
X145699614Y-95980660D01*
X145694173Y-95983568D01*
X145694169Y-95983571D01*
X145685309Y-95988307D01*
X145685303Y-95988309D01*
X145679858Y-95991220D01*
X145600660Y-96024024D01*
X145579233Y-96030524D01*
X145495149Y-96047250D01*
X145472869Y-96049444D01*
X145454450Y-96049444D01*
X145442199Y-96050046D01*
X145423862Y-96051852D01*
X144936140Y-96051852D01*
X144920001Y-96050263D01*
X144910392Y-96047348D01*
X144901528Y-96042610D01*
X144893763Y-96036237D01*
X144883552Y-96023794D01*
X144876622Y-96013425D01*
X144859295Y-95996098D01*
X144838920Y-95982485D01*
X144816280Y-95973109D01*
X144792247Y-95968329D01*
X144767743Y-95968330D01*
X144743710Y-95973112D01*
X144721071Y-95982490D01*
X144700698Y-95996105D01*
X144683371Y-96013432D01*
X144676442Y-96023802D01*
X144666237Y-96036237D01*
X144658472Y-96042610D01*
X144649608Y-96047348D01*
X144639999Y-96050263D01*
X144623860Y-96051852D01*
X144136138Y-96051852D01*
X144117801Y-96050046D01*
X144105550Y-96049444D01*
X144087131Y-96049444D01*
X144064851Y-96047250D01*
X143980767Y-96030524D01*
X143959340Y-96024024D01*
X143880142Y-95991220D01*
X143874697Y-95988309D01*
X143874691Y-95988307D01*
X143865831Y-95983571D01*
X143865827Y-95983568D01*
X143860386Y-95980660D01*
X143789101Y-95933029D01*
X143771796Y-95918828D01*
X143711172Y-95858204D01*
X143696971Y-95840899D01*
X143649340Y-95769614D01*
X143646432Y-95764173D01*
X143646429Y-95764169D01*
X143641693Y-95755309D01*
X143641691Y-95755303D01*
X143638780Y-95749858D01*
X143605976Y-95670660D01*
X143599476Y-95649233D01*
X143582750Y-95565149D01*
X143580556Y-95542869D01*
X143580556Y-95524450D01*
X143579954Y-95512199D01*
X143578148Y-95493862D01*
X143578148Y-95006139D01*
X143579954Y-94987801D01*
X143580556Y-94975550D01*
X143580556Y-94957131D01*
X143582750Y-94934851D01*
X143599476Y-94850767D01*
X143605976Y-94829340D01*
X143638780Y-94750142D01*
X143641691Y-94744697D01*
X143641693Y-94744691D01*
X143646429Y-94735831D01*
X143646432Y-94735827D01*
X143649340Y-94730386D01*
X143696971Y-94659101D01*
X143711172Y-94641796D01*
X143771796Y-94581172D01*
X143789101Y-94566971D01*
X143860386Y-94519340D01*
X143865827Y-94516432D01*
X143865831Y-94516429D01*
X143874691Y-94511693D01*
X143874697Y-94511691D01*
X143880142Y-94508780D01*
X143959340Y-94475976D01*
X143980767Y-94469476D01*
X144064851Y-94452750D01*
X144087131Y-94450556D01*
X144105550Y-94450556D01*
X144117801Y-94449954D01*
X144136139Y-94448148D01*
X144623860Y-94448148D01*
X144639999Y-94449737D01*
G37*
G36*
X158219059Y-94517860D02*
G01*
X158347073Y-94570885D01*
X158355732Y-94574472D01*
X158478735Y-94656660D01*
X158583340Y-94761265D01*
X158665528Y-94884268D01*
X158722140Y-95020941D01*
X158751000Y-95166033D01*
X158751000Y-95313967D01*
X158722140Y-95459059D01*
X158665528Y-95595732D01*
X158583340Y-95718735D01*
X158478735Y-95823340D01*
X158355732Y-95905528D01*
X158355731Y-95905529D01*
X158355730Y-95905529D01*
X158219059Y-95962140D01*
X158073968Y-95991000D01*
X157926032Y-95991000D01*
X157780941Y-95962140D01*
X157644270Y-95905529D01*
X157644269Y-95905529D01*
X157644268Y-95905528D01*
X157521265Y-95823340D01*
X157416660Y-95718735D01*
X157334472Y-95595732D01*
X157277860Y-95459059D01*
X157249000Y-95313967D01*
X157249000Y-95166033D01*
X157277860Y-95020941D01*
X157334472Y-94884268D01*
X157416660Y-94761265D01*
X157521265Y-94656660D01*
X157644268Y-94574472D01*
X157652928Y-94570885D01*
X157780941Y-94517860D01*
X157926032Y-94489000D01*
X158073968Y-94489000D01*
X158219059Y-94517860D01*
G37*
G36*
X142219059Y-94517860D02*
G01*
X142347073Y-94570885D01*
X142355732Y-94574472D01*
X142478735Y-94656660D01*
X142583340Y-94761265D01*
X142665528Y-94884268D01*
X142722140Y-95020941D01*
X142751000Y-95166033D01*
X142751000Y-95313967D01*
X142722140Y-95459059D01*
X142665528Y-95595732D01*
X142583340Y-95718735D01*
X142478735Y-95823340D01*
X142355732Y-95905528D01*
X142355731Y-95905529D01*
X142355730Y-95905529D01*
X142219059Y-95962140D01*
X142073968Y-95991000D01*
X141926032Y-95991000D01*
X141780941Y-95962140D01*
X141644270Y-95905529D01*
X141644269Y-95905529D01*
X141644268Y-95905528D01*
X141521265Y-95823340D01*
X141416660Y-95718735D01*
X141334472Y-95595732D01*
X141277860Y-95459059D01*
X141249000Y-95313967D01*
X141249000Y-95166033D01*
X141277860Y-95020941D01*
X141334472Y-94884268D01*
X141416660Y-94761265D01*
X141521265Y-94656660D01*
X141644268Y-94574472D01*
X141652928Y-94570885D01*
X141780941Y-94517860D01*
X141926032Y-94489000D01*
X142073968Y-94489000D01*
X142219059Y-94517860D01*
G37*
G36*
X154799999Y-91909737D02*
G01*
X154809608Y-91912652D01*
X154818472Y-91917390D01*
X154826237Y-91923763D01*
X154836448Y-91936206D01*
X154843378Y-91946575D01*
X154860705Y-91963902D01*
X154881080Y-91977515D01*
X154903720Y-91986891D01*
X154927753Y-91991671D01*
X154952257Y-91991670D01*
X154976290Y-91986888D01*
X154998929Y-91977510D01*
X155019302Y-91963895D01*
X155036629Y-91946568D01*
X155043558Y-91936198D01*
X155053763Y-91923763D01*
X155061528Y-91917390D01*
X155070392Y-91912652D01*
X155080001Y-91909737D01*
X155096140Y-91908148D01*
X155583861Y-91908148D01*
X155602199Y-91909954D01*
X155614450Y-91910556D01*
X155632869Y-91910556D01*
X155655149Y-91912750D01*
X155739233Y-91929476D01*
X155760660Y-91935976D01*
X155839858Y-91968780D01*
X155845303Y-91971691D01*
X155845309Y-91971693D01*
X155854169Y-91976429D01*
X155854173Y-91976432D01*
X155859614Y-91979340D01*
X155930899Y-92026971D01*
X155948204Y-92041172D01*
X156008828Y-92101796D01*
X156023029Y-92119101D01*
X156070660Y-92190386D01*
X156073568Y-92195827D01*
X156073571Y-92195831D01*
X156078307Y-92204691D01*
X156078309Y-92204697D01*
X156081220Y-92210142D01*
X156114024Y-92289340D01*
X156120524Y-92310767D01*
X156137250Y-92394851D01*
X156139444Y-92417131D01*
X156139444Y-92435550D01*
X156140046Y-92447801D01*
X156141852Y-92466139D01*
X156141852Y-92953862D01*
X156140046Y-92972199D01*
X156139444Y-92984450D01*
X156139444Y-93002869D01*
X156137250Y-93025149D01*
X156120524Y-93109233D01*
X156114024Y-93130660D01*
X156081220Y-93209858D01*
X156078309Y-93215303D01*
X156078307Y-93215309D01*
X156073571Y-93224169D01*
X156073568Y-93224173D01*
X156070660Y-93229614D01*
X156023029Y-93300899D01*
X156008828Y-93318204D01*
X155948204Y-93378828D01*
X155930899Y-93393029D01*
X155859614Y-93440660D01*
X155854173Y-93443568D01*
X155854169Y-93443571D01*
X155845309Y-93448307D01*
X155845303Y-93448309D01*
X155839858Y-93451220D01*
X155760660Y-93484024D01*
X155739233Y-93490524D01*
X155655149Y-93507250D01*
X155632869Y-93509444D01*
X155614450Y-93509444D01*
X155602199Y-93510046D01*
X155583862Y-93511852D01*
X155096140Y-93511852D01*
X155080001Y-93510263D01*
X155070392Y-93507348D01*
X155061528Y-93502610D01*
X155053763Y-93496237D01*
X155043552Y-93483794D01*
X155036622Y-93473425D01*
X155019295Y-93456098D01*
X154998920Y-93442485D01*
X154976280Y-93433109D01*
X154952247Y-93428329D01*
X154927743Y-93428330D01*
X154903710Y-93433112D01*
X154881071Y-93442490D01*
X154860698Y-93456105D01*
X154843371Y-93473432D01*
X154836442Y-93483802D01*
X154826237Y-93496237D01*
X154818472Y-93502610D01*
X154809608Y-93507348D01*
X154799999Y-93510263D01*
X154783860Y-93511852D01*
X154296138Y-93511852D01*
X154277801Y-93510046D01*
X154265550Y-93509444D01*
X154247131Y-93509444D01*
X154224851Y-93507250D01*
X154140767Y-93490524D01*
X154119340Y-93484024D01*
X154040142Y-93451220D01*
X154034697Y-93448309D01*
X154034691Y-93448307D01*
X154025831Y-93443571D01*
X154025827Y-93443568D01*
X154020386Y-93440660D01*
X153949101Y-93393029D01*
X153931796Y-93378828D01*
X153871172Y-93318204D01*
X153856971Y-93300899D01*
X153809340Y-93229614D01*
X153806432Y-93224173D01*
X153806429Y-93224169D01*
X153801693Y-93215309D01*
X153801691Y-93215303D01*
X153798780Y-93209858D01*
X153765976Y-93130660D01*
X153759476Y-93109233D01*
X153742750Y-93025149D01*
X153740556Y-93002869D01*
X153740556Y-92984450D01*
X153739954Y-92972199D01*
X153738148Y-92953862D01*
X153738148Y-92466139D01*
X153739954Y-92447801D01*
X153740556Y-92435550D01*
X153740556Y-92417131D01*
X153742750Y-92394851D01*
X153759476Y-92310767D01*
X153765976Y-92289340D01*
X153798780Y-92210142D01*
X153801691Y-92204697D01*
X153801693Y-92204691D01*
X153806429Y-92195831D01*
X153806432Y-92195827D01*
X153809340Y-92190386D01*
X153856971Y-92119101D01*
X153871172Y-92101796D01*
X153931796Y-92041172D01*
X153949101Y-92026971D01*
X154020386Y-91979340D01*
X154025827Y-91976432D01*
X154025831Y-91976429D01*
X154034691Y-91971693D01*
X154034697Y-91971691D01*
X154040142Y-91968780D01*
X154119340Y-91935976D01*
X154140767Y-91929476D01*
X154224851Y-91912750D01*
X154247131Y-91910556D01*
X154265550Y-91910556D01*
X154277801Y-91909954D01*
X154296139Y-91908148D01*
X154783860Y-91908148D01*
X154799999Y-91909737D01*
G37*
G36*
X158219059Y-91977860D02*
G01*
X158347073Y-92030885D01*
X158355732Y-92034472D01*
X158478735Y-92116660D01*
X158583340Y-92221265D01*
X158665528Y-92344268D01*
X158722140Y-92480941D01*
X158751000Y-92626033D01*
X158751000Y-92773967D01*
X158722140Y-92919059D01*
X158665528Y-93055732D01*
X158583340Y-93178735D01*
X158478735Y-93283340D01*
X158355732Y-93365528D01*
X158355731Y-93365529D01*
X158355730Y-93365529D01*
X158219059Y-93422140D01*
X158073968Y-93451000D01*
X157926032Y-93451000D01*
X157780941Y-93422140D01*
X157644270Y-93365529D01*
X157644269Y-93365529D01*
X157644268Y-93365528D01*
X157521265Y-93283340D01*
X157416660Y-93178735D01*
X157334472Y-93055732D01*
X157277860Y-92919059D01*
X157249000Y-92773967D01*
X157249000Y-92626033D01*
X157277860Y-92480941D01*
X157334472Y-92344268D01*
X157416660Y-92221265D01*
X157521265Y-92116660D01*
X157644268Y-92034472D01*
X157652928Y-92030885D01*
X157780941Y-91977860D01*
X157926032Y-91949000D01*
X158073968Y-91949000D01*
X158219059Y-91977860D01*
G37*
G36*
X142219059Y-91977860D02*
G01*
X142347073Y-92030885D01*
X142355732Y-92034472D01*
X142478735Y-92116660D01*
X142583340Y-92221265D01*
X142665528Y-92344268D01*
X142722140Y-92480941D01*
X142751000Y-92626033D01*
X142751000Y-92773967D01*
X142722140Y-92919059D01*
X142665528Y-93055732D01*
X142583340Y-93178735D01*
X142478735Y-93283340D01*
X142355732Y-93365528D01*
X142355731Y-93365529D01*
X142355730Y-93365529D01*
X142219059Y-93422140D01*
X142073968Y-93451000D01*
X141926032Y-93451000D01*
X141780941Y-93422140D01*
X141644270Y-93365529D01*
X141644269Y-93365529D01*
X141644268Y-93365528D01*
X141521265Y-93283340D01*
X141416660Y-93178735D01*
X141334472Y-93055732D01*
X141277860Y-92919059D01*
X141249000Y-92773967D01*
X141249000Y-92626033D01*
X141277860Y-92480941D01*
X141334472Y-92344268D01*
X141416660Y-92221265D01*
X141521265Y-92116660D01*
X141644268Y-92034472D01*
X141652928Y-92030885D01*
X141780941Y-91977860D01*
X141926032Y-91949000D01*
X142073968Y-91949000D01*
X142219059Y-91977860D01*
G37*
G36*
X144639999Y-89369737D02*
G01*
X144649608Y-89372652D01*
X144658472Y-89377390D01*
X144666237Y-89383763D01*
X144676448Y-89396206D01*
X144683378Y-89406575D01*
X144700705Y-89423902D01*
X144721080Y-89437515D01*
X144743720Y-89446891D01*
X144767753Y-89451671D01*
X144792257Y-89451670D01*
X144816290Y-89446888D01*
X144838929Y-89437510D01*
X144859302Y-89423895D01*
X144876629Y-89406568D01*
X144883558Y-89396198D01*
X144893763Y-89383763D01*
X144901528Y-89377390D01*
X144910392Y-89372652D01*
X144920001Y-89369737D01*
X144936140Y-89368148D01*
X145423861Y-89368148D01*
X145442199Y-89369954D01*
X145454450Y-89370556D01*
X145472869Y-89370556D01*
X145495149Y-89372750D01*
X145579233Y-89389476D01*
X145600660Y-89395976D01*
X145679858Y-89428780D01*
X145685303Y-89431691D01*
X145685309Y-89431693D01*
X145694169Y-89436429D01*
X145694173Y-89436432D01*
X145699614Y-89439340D01*
X145770899Y-89486971D01*
X145788204Y-89501172D01*
X145848828Y-89561796D01*
X145863029Y-89579101D01*
X145910660Y-89650386D01*
X145913568Y-89655827D01*
X145913571Y-89655831D01*
X145918307Y-89664691D01*
X145918309Y-89664697D01*
X145921220Y-89670142D01*
X145954024Y-89749340D01*
X145960524Y-89770767D01*
X145977250Y-89854851D01*
X145979444Y-89877131D01*
X145979444Y-89895550D01*
X145980046Y-89907801D01*
X145981852Y-89926139D01*
X145981852Y-90413862D01*
X145980046Y-90432199D01*
X145979444Y-90444450D01*
X145979444Y-90462869D01*
X145977250Y-90485149D01*
X145960524Y-90569233D01*
X145954024Y-90590660D01*
X145921220Y-90669858D01*
X145918309Y-90675303D01*
X145918307Y-90675309D01*
X145913571Y-90684169D01*
X145913568Y-90684173D01*
X145910660Y-90689614D01*
X145863029Y-90760899D01*
X145848828Y-90778204D01*
X145788204Y-90838828D01*
X145770899Y-90853029D01*
X145699614Y-90900660D01*
X145694173Y-90903568D01*
X145694169Y-90903571D01*
X145685309Y-90908307D01*
X145685303Y-90908309D01*
X145679858Y-90911220D01*
X145600660Y-90944024D01*
X145579233Y-90950524D01*
X145495149Y-90967250D01*
X145472869Y-90969444D01*
X145454450Y-90969444D01*
X145442199Y-90970046D01*
X145423862Y-90971852D01*
X144936140Y-90971852D01*
X144920001Y-90970263D01*
X144910392Y-90967348D01*
X144901528Y-90962610D01*
X144893763Y-90956237D01*
X144883552Y-90943794D01*
X144876622Y-90933425D01*
X144859295Y-90916098D01*
X144838920Y-90902485D01*
X144816280Y-90893109D01*
X144792247Y-90888329D01*
X144767743Y-90888330D01*
X144743710Y-90893112D01*
X144721071Y-90902490D01*
X144700698Y-90916105D01*
X144683371Y-90933432D01*
X144676442Y-90943802D01*
X144666237Y-90956237D01*
X144658472Y-90962610D01*
X144649608Y-90967348D01*
X144639999Y-90970263D01*
X144623860Y-90971852D01*
X144136138Y-90971852D01*
X144117801Y-90970046D01*
X144105550Y-90969444D01*
X144087131Y-90969444D01*
X144064851Y-90967250D01*
X143980767Y-90950524D01*
X143959340Y-90944024D01*
X143880142Y-90911220D01*
X143874697Y-90908309D01*
X143874691Y-90908307D01*
X143865831Y-90903571D01*
X143865827Y-90903568D01*
X143860386Y-90900660D01*
X143789101Y-90853029D01*
X143771796Y-90838828D01*
X143711172Y-90778204D01*
X143696971Y-90760899D01*
X143649340Y-90689614D01*
X143646432Y-90684173D01*
X143646429Y-90684169D01*
X143641693Y-90675309D01*
X143641691Y-90675303D01*
X143638780Y-90669858D01*
X143605976Y-90590660D01*
X143599476Y-90569233D01*
X143582750Y-90485149D01*
X143580556Y-90462869D01*
X143580556Y-90444450D01*
X143579954Y-90432199D01*
X143578148Y-90413862D01*
X143578148Y-89926139D01*
X143579954Y-89907801D01*
X143580556Y-89895550D01*
X143580556Y-89877131D01*
X143582750Y-89854851D01*
X143599476Y-89770767D01*
X143605976Y-89749340D01*
X143638780Y-89670142D01*
X143641691Y-89664697D01*
X143641693Y-89664691D01*
X143646429Y-89655831D01*
X143646432Y-89655827D01*
X143649340Y-89650386D01*
X143696971Y-89579101D01*
X143711172Y-89561796D01*
X143771796Y-89501172D01*
X143789101Y-89486971D01*
X143860386Y-89439340D01*
X143865827Y-89436432D01*
X143865831Y-89436429D01*
X143874691Y-89431693D01*
X143874697Y-89431691D01*
X143880142Y-89428780D01*
X143959340Y-89395976D01*
X143980767Y-89389476D01*
X144064851Y-89372750D01*
X144087131Y-89370556D01*
X144105550Y-89370556D01*
X144117801Y-89369954D01*
X144136139Y-89368148D01*
X144623860Y-89368148D01*
X144639999Y-89369737D01*
G37*
G36*
X142219059Y-89437860D02*
G01*
X142347073Y-89490885D01*
X142355732Y-89494472D01*
X142478735Y-89576660D01*
X142583340Y-89681265D01*
X142665528Y-89804268D01*
X142722140Y-89940941D01*
X142751000Y-90086033D01*
X142751000Y-90233967D01*
X142722140Y-90379059D01*
X142665528Y-90515732D01*
X142583340Y-90638735D01*
X142478735Y-90743340D01*
X142355732Y-90825528D01*
X142355731Y-90825529D01*
X142355730Y-90825529D01*
X142219059Y-90882140D01*
X142073968Y-90911000D01*
X141926032Y-90911000D01*
X141780941Y-90882140D01*
X141644270Y-90825529D01*
X141644269Y-90825529D01*
X141644268Y-90825528D01*
X141521265Y-90743340D01*
X141416660Y-90638735D01*
X141334472Y-90515732D01*
X141277860Y-90379059D01*
X141249000Y-90233967D01*
X141249000Y-90086033D01*
X141277860Y-89940941D01*
X141334472Y-89804268D01*
X141416660Y-89681265D01*
X141521265Y-89576660D01*
X141644268Y-89494472D01*
X141652928Y-89490885D01*
X141780941Y-89437860D01*
X141926032Y-89409000D01*
X142073968Y-89409000D01*
X142219059Y-89437860D01*
G37*
G36*
X158219059Y-89437860D02*
G01*
X158347073Y-89490885D01*
X158355732Y-89494472D01*
X158478735Y-89576660D01*
X158583340Y-89681265D01*
X158665528Y-89804268D01*
X158722140Y-89940941D01*
X158751000Y-90086033D01*
X158751000Y-90233967D01*
X158722140Y-90379059D01*
X158665528Y-90515732D01*
X158583340Y-90638735D01*
X158478735Y-90743340D01*
X158355732Y-90825528D01*
X158355731Y-90825529D01*
X158355730Y-90825529D01*
X158219059Y-90882140D01*
X158073968Y-90911000D01*
X157926032Y-90911000D01*
X157780941Y-90882140D01*
X157644270Y-90825529D01*
X157644269Y-90825529D01*
X157644268Y-90825528D01*
X157521265Y-90743340D01*
X157416660Y-90638735D01*
X157334472Y-90515732D01*
X157277860Y-90379059D01*
X157249000Y-90233967D01*
X157249000Y-90086033D01*
X157277860Y-89940941D01*
X157334472Y-89804268D01*
X157416660Y-89681265D01*
X157521265Y-89576660D01*
X157644268Y-89494472D01*
X157652928Y-89490885D01*
X157780941Y-89437860D01*
X157926032Y-89409000D01*
X158073968Y-89409000D01*
X158219059Y-89437860D01*
G37*
G36*
X154799999Y-86829737D02*
G01*
X154809608Y-86832652D01*
X154818472Y-86837390D01*
X154826237Y-86843763D01*
X154836448Y-86856206D01*
X154843378Y-86866575D01*
X154860705Y-86883902D01*
X154881080Y-86897515D01*
X154903720Y-86906891D01*
X154927753Y-86911671D01*
X154952257Y-86911670D01*
X154976290Y-86906888D01*
X154998929Y-86897510D01*
X155019302Y-86883895D01*
X155036629Y-86866568D01*
X155043558Y-86856198D01*
X155053763Y-86843763D01*
X155061528Y-86837390D01*
X155070392Y-86832652D01*
X155080001Y-86829737D01*
X155096140Y-86828148D01*
X155583861Y-86828148D01*
X155602199Y-86829954D01*
X155614450Y-86830556D01*
X155632869Y-86830556D01*
X155655149Y-86832750D01*
X155739233Y-86849476D01*
X155760660Y-86855976D01*
X155839858Y-86888780D01*
X155845303Y-86891691D01*
X155845309Y-86891693D01*
X155854169Y-86896429D01*
X155854173Y-86896432D01*
X155859614Y-86899340D01*
X155930899Y-86946971D01*
X155948204Y-86961172D01*
X156008828Y-87021796D01*
X156023029Y-87039101D01*
X156070660Y-87110386D01*
X156073568Y-87115827D01*
X156073571Y-87115831D01*
X156078307Y-87124691D01*
X156078309Y-87124697D01*
X156081220Y-87130142D01*
X156114024Y-87209340D01*
X156120524Y-87230767D01*
X156137250Y-87314851D01*
X156139444Y-87337131D01*
X156139444Y-87355550D01*
X156140046Y-87367801D01*
X156141852Y-87386139D01*
X156141852Y-87873862D01*
X156140046Y-87892199D01*
X156139444Y-87904450D01*
X156139444Y-87922869D01*
X156137250Y-87945149D01*
X156120524Y-88029233D01*
X156114024Y-88050660D01*
X156081220Y-88129858D01*
X156078309Y-88135303D01*
X156078307Y-88135309D01*
X156073571Y-88144169D01*
X156073568Y-88144173D01*
X156070660Y-88149614D01*
X156023029Y-88220899D01*
X156008828Y-88238204D01*
X155948204Y-88298828D01*
X155930899Y-88313029D01*
X155859614Y-88360660D01*
X155854173Y-88363568D01*
X155854169Y-88363571D01*
X155845309Y-88368307D01*
X155845303Y-88368309D01*
X155839858Y-88371220D01*
X155760660Y-88404024D01*
X155739233Y-88410524D01*
X155655149Y-88427250D01*
X155632869Y-88429444D01*
X155614450Y-88429444D01*
X155602199Y-88430046D01*
X155583862Y-88431852D01*
X155096140Y-88431852D01*
X155080001Y-88430263D01*
X155070392Y-88427348D01*
X155061528Y-88422610D01*
X155053763Y-88416237D01*
X155043552Y-88403794D01*
X155036622Y-88393425D01*
X155019295Y-88376098D01*
X154998920Y-88362485D01*
X154976280Y-88353109D01*
X154952247Y-88348329D01*
X154927743Y-88348330D01*
X154903710Y-88353112D01*
X154881071Y-88362490D01*
X154860698Y-88376105D01*
X154843371Y-88393432D01*
X154836442Y-88403802D01*
X154826237Y-88416237D01*
X154818472Y-88422610D01*
X154809608Y-88427348D01*
X154799999Y-88430263D01*
X154783860Y-88431852D01*
X154296138Y-88431852D01*
X154277801Y-88430046D01*
X154265550Y-88429444D01*
X154247131Y-88429444D01*
X154224851Y-88427250D01*
X154140767Y-88410524D01*
X154119340Y-88404024D01*
X154040142Y-88371220D01*
X154034697Y-88368309D01*
X154034691Y-88368307D01*
X154025831Y-88363571D01*
X154025827Y-88363568D01*
X154020386Y-88360660D01*
X153949101Y-88313029D01*
X153931796Y-88298828D01*
X153871172Y-88238204D01*
X153856971Y-88220899D01*
X153809340Y-88149614D01*
X153806432Y-88144173D01*
X153806429Y-88144169D01*
X153801693Y-88135309D01*
X153801691Y-88135303D01*
X153798780Y-88129858D01*
X153765976Y-88050660D01*
X153759476Y-88029233D01*
X153742750Y-87945149D01*
X153740556Y-87922869D01*
X153740556Y-87904450D01*
X153739954Y-87892199D01*
X153738148Y-87873862D01*
X153738148Y-87386139D01*
X153739954Y-87367801D01*
X153740556Y-87355550D01*
X153740556Y-87337131D01*
X153742750Y-87314851D01*
X153759476Y-87230767D01*
X153765976Y-87209340D01*
X153798780Y-87130142D01*
X153801691Y-87124697D01*
X153801693Y-87124691D01*
X153806429Y-87115831D01*
X153806432Y-87115827D01*
X153809340Y-87110386D01*
X153856971Y-87039101D01*
X153871172Y-87021796D01*
X153931796Y-86961172D01*
X153949101Y-86946971D01*
X154020386Y-86899340D01*
X154025827Y-86896432D01*
X154025831Y-86896429D01*
X154034691Y-86891693D01*
X154034697Y-86891691D01*
X154040142Y-86888780D01*
X154119340Y-86855976D01*
X154140767Y-86849476D01*
X154224851Y-86832750D01*
X154247131Y-86830556D01*
X154265550Y-86830556D01*
X154277801Y-86829954D01*
X154296139Y-86828148D01*
X154783860Y-86828148D01*
X154799999Y-86829737D01*
G37*
G36*
X158219059Y-86897860D02*
G01*
X158347073Y-86950885D01*
X158355732Y-86954472D01*
X158478735Y-87036660D01*
X158583340Y-87141265D01*
X158665528Y-87264268D01*
X158722140Y-87400941D01*
X158751000Y-87546033D01*
X158751000Y-87693967D01*
X158722140Y-87839059D01*
X158665528Y-87975732D01*
X158583340Y-88098735D01*
X158478735Y-88203340D01*
X158355732Y-88285528D01*
X158355731Y-88285529D01*
X158355730Y-88285529D01*
X158219059Y-88342140D01*
X158073968Y-88371000D01*
X157926032Y-88371000D01*
X157780941Y-88342140D01*
X157644270Y-88285529D01*
X157644269Y-88285529D01*
X157644268Y-88285528D01*
X157521265Y-88203340D01*
X157416660Y-88098735D01*
X157334472Y-87975732D01*
X157277860Y-87839059D01*
X157249000Y-87693967D01*
X157249000Y-87546033D01*
X157277860Y-87400941D01*
X157334472Y-87264268D01*
X157416660Y-87141265D01*
X157521265Y-87036660D01*
X157644268Y-86954472D01*
X157652928Y-86950885D01*
X157780941Y-86897860D01*
X157926032Y-86869000D01*
X158073968Y-86869000D01*
X158219059Y-86897860D01*
G37*
G36*
X142219059Y-86897860D02*
G01*
X142347073Y-86950885D01*
X142355732Y-86954472D01*
X142478735Y-87036660D01*
X142583340Y-87141265D01*
X142665528Y-87264268D01*
X142722140Y-87400941D01*
X142751000Y-87546033D01*
X142751000Y-87693967D01*
X142722140Y-87839059D01*
X142665528Y-87975732D01*
X142583340Y-88098735D01*
X142478735Y-88203340D01*
X142355732Y-88285528D01*
X142355731Y-88285529D01*
X142355730Y-88285529D01*
X142219059Y-88342140D01*
X142073968Y-88371000D01*
X141926032Y-88371000D01*
X141780941Y-88342140D01*
X141644270Y-88285529D01*
X141644269Y-88285529D01*
X141644268Y-88285528D01*
X141521265Y-88203340D01*
X141416660Y-88098735D01*
X141334472Y-87975732D01*
X141277860Y-87839059D01*
X141249000Y-87693967D01*
X141249000Y-87546033D01*
X141277860Y-87400941D01*
X141334472Y-87264268D01*
X141416660Y-87141265D01*
X141521265Y-87036660D01*
X141644268Y-86954472D01*
X141652928Y-86950885D01*
X141780941Y-86897860D01*
X141926032Y-86869000D01*
X142073968Y-86869000D01*
X142219059Y-86897860D01*
G37*
G36*
X144639999Y-84289737D02*
G01*
X144649608Y-84292652D01*
X144658472Y-84297390D01*
X144666237Y-84303763D01*
X144676448Y-84316206D01*
X144683378Y-84326575D01*
X144700705Y-84343902D01*
X144721080Y-84357515D01*
X144743720Y-84366891D01*
X144767753Y-84371671D01*
X144792257Y-84371670D01*
X144816290Y-84366888D01*
X144838929Y-84357510D01*
X144859302Y-84343895D01*
X144876629Y-84326568D01*
X144883558Y-84316198D01*
X144893763Y-84303763D01*
X144901528Y-84297390D01*
X144910392Y-84292652D01*
X144920001Y-84289737D01*
X144936140Y-84288148D01*
X145423861Y-84288148D01*
X145442199Y-84289954D01*
X145454450Y-84290556D01*
X145472869Y-84290556D01*
X145495149Y-84292750D01*
X145579233Y-84309476D01*
X145600660Y-84315976D01*
X145679858Y-84348780D01*
X145685303Y-84351691D01*
X145685309Y-84351693D01*
X145694169Y-84356429D01*
X145694173Y-84356432D01*
X145699614Y-84359340D01*
X145770899Y-84406971D01*
X145788204Y-84421172D01*
X145848828Y-84481796D01*
X145863029Y-84499101D01*
X145910660Y-84570386D01*
X145913568Y-84575827D01*
X145913571Y-84575831D01*
X145918307Y-84584691D01*
X145918309Y-84584697D01*
X145921220Y-84590142D01*
X145954024Y-84669340D01*
X145960524Y-84690767D01*
X145977250Y-84774851D01*
X145979444Y-84797131D01*
X145979444Y-84815550D01*
X145980046Y-84827801D01*
X145981852Y-84846139D01*
X145981852Y-85333862D01*
X145980046Y-85352199D01*
X145979444Y-85364450D01*
X145979444Y-85382869D01*
X145977250Y-85405149D01*
X145960524Y-85489233D01*
X145954024Y-85510660D01*
X145921220Y-85589858D01*
X145918309Y-85595303D01*
X145918307Y-85595309D01*
X145913571Y-85604169D01*
X145913568Y-85604173D01*
X145910660Y-85609614D01*
X145863029Y-85680899D01*
X145848828Y-85698204D01*
X145788204Y-85758828D01*
X145770899Y-85773029D01*
X145699614Y-85820660D01*
X145694173Y-85823568D01*
X145694169Y-85823571D01*
X145685309Y-85828307D01*
X145685303Y-85828309D01*
X145679858Y-85831220D01*
X145600660Y-85864024D01*
X145579233Y-85870524D01*
X145495149Y-85887250D01*
X145472869Y-85889444D01*
X145454450Y-85889444D01*
X145442199Y-85890046D01*
X145423862Y-85891852D01*
X144936140Y-85891852D01*
X144920001Y-85890263D01*
X144910392Y-85887348D01*
X144901528Y-85882610D01*
X144893763Y-85876237D01*
X144883552Y-85863794D01*
X144876622Y-85853425D01*
X144859295Y-85836098D01*
X144838920Y-85822485D01*
X144816280Y-85813109D01*
X144792247Y-85808329D01*
X144767743Y-85808330D01*
X144743710Y-85813112D01*
X144721071Y-85822490D01*
X144700698Y-85836105D01*
X144683371Y-85853432D01*
X144676442Y-85863802D01*
X144666237Y-85876237D01*
X144658472Y-85882610D01*
X144649608Y-85887348D01*
X144639999Y-85890263D01*
X144623860Y-85891852D01*
X144136138Y-85891852D01*
X144117801Y-85890046D01*
X144105550Y-85889444D01*
X144087131Y-85889444D01*
X144064851Y-85887250D01*
X143980767Y-85870524D01*
X143959340Y-85864024D01*
X143880142Y-85831220D01*
X143874697Y-85828309D01*
X143874691Y-85828307D01*
X143865831Y-85823571D01*
X143865827Y-85823568D01*
X143860386Y-85820660D01*
X143789101Y-85773029D01*
X143771796Y-85758828D01*
X143711172Y-85698204D01*
X143696971Y-85680899D01*
X143649340Y-85609614D01*
X143646432Y-85604173D01*
X143646429Y-85604169D01*
X143641693Y-85595309D01*
X143641691Y-85595303D01*
X143638780Y-85589858D01*
X143605976Y-85510660D01*
X143599476Y-85489233D01*
X143582750Y-85405149D01*
X143580556Y-85382869D01*
X143580556Y-85364450D01*
X143579954Y-85352199D01*
X143578148Y-85333862D01*
X143578148Y-84846139D01*
X143579954Y-84827801D01*
X143580556Y-84815550D01*
X143580556Y-84797131D01*
X143582750Y-84774851D01*
X143599476Y-84690767D01*
X143605976Y-84669340D01*
X143638780Y-84590142D01*
X143641691Y-84584697D01*
X143641693Y-84584691D01*
X143646429Y-84575831D01*
X143646432Y-84575827D01*
X143649340Y-84570386D01*
X143696971Y-84499101D01*
X143711172Y-84481796D01*
X143771796Y-84421172D01*
X143789101Y-84406971D01*
X143860386Y-84359340D01*
X143865827Y-84356432D01*
X143865831Y-84356429D01*
X143874691Y-84351693D01*
X143874697Y-84351691D01*
X143880142Y-84348780D01*
X143959340Y-84315976D01*
X143980767Y-84309476D01*
X144064851Y-84292750D01*
X144087131Y-84290556D01*
X144105550Y-84290556D01*
X144117801Y-84289954D01*
X144136139Y-84288148D01*
X144623860Y-84288148D01*
X144639999Y-84289737D01*
G37*
G36*
X142219059Y-84357860D02*
G01*
X142347073Y-84410885D01*
X142355732Y-84414472D01*
X142478735Y-84496660D01*
X142583340Y-84601265D01*
X142665528Y-84724268D01*
X142722140Y-84860941D01*
X142751000Y-85006033D01*
X142751000Y-85153967D01*
X142722140Y-85299059D01*
X142665528Y-85435732D01*
X142583340Y-85558735D01*
X142478735Y-85663340D01*
X142355732Y-85745528D01*
X142355731Y-85745529D01*
X142355730Y-85745529D01*
X142219059Y-85802140D01*
X142073968Y-85831000D01*
X141926032Y-85831000D01*
X141780941Y-85802140D01*
X141644270Y-85745529D01*
X141644269Y-85745529D01*
X141644268Y-85745528D01*
X141521265Y-85663340D01*
X141416660Y-85558735D01*
X141334472Y-85435732D01*
X141277860Y-85299059D01*
X141249000Y-85153967D01*
X141249000Y-85006033D01*
X141277860Y-84860941D01*
X141334472Y-84724268D01*
X141416660Y-84601265D01*
X141521265Y-84496660D01*
X141644268Y-84414472D01*
X141652928Y-84410885D01*
X141780941Y-84357860D01*
X141926032Y-84329000D01*
X142073968Y-84329000D01*
X142219059Y-84357860D01*
G37*
G36*
X158219059Y-84357860D02*
G01*
X158347073Y-84410885D01*
X158355732Y-84414472D01*
X158478735Y-84496660D01*
X158583340Y-84601265D01*
X158665528Y-84724268D01*
X158722140Y-84860941D01*
X158751000Y-85006033D01*
X158751000Y-85153967D01*
X158722140Y-85299059D01*
X158665528Y-85435732D01*
X158583340Y-85558735D01*
X158478735Y-85663340D01*
X158355732Y-85745528D01*
X158355731Y-85745529D01*
X158355730Y-85745529D01*
X158219059Y-85802140D01*
X158073968Y-85831000D01*
X157926032Y-85831000D01*
X157780941Y-85802140D01*
X157644270Y-85745529D01*
X157644269Y-85745529D01*
X157644268Y-85745528D01*
X157521265Y-85663340D01*
X157416660Y-85558735D01*
X157334472Y-85435732D01*
X157277860Y-85299059D01*
X157249000Y-85153967D01*
X157249000Y-85006033D01*
X157277860Y-84860941D01*
X157334472Y-84724268D01*
X157416660Y-84601265D01*
X157521265Y-84496660D01*
X157644268Y-84414472D01*
X157652928Y-84410885D01*
X157780941Y-84357860D01*
X157926032Y-84329000D01*
X158073968Y-84329000D01*
X158219059Y-84357860D01*
G37*
G36*
X150598254Y-80527818D02*
G01*
X150971511Y-80682426D01*
X150971513Y-80682427D01*
X151149339Y-80801247D01*
X151307436Y-80906884D01*
X151593116Y-81192564D01*
X151817574Y-81528489D01*
X151972182Y-81901746D01*
X152051000Y-82297993D01*
X152051000Y-82702007D01*
X151972182Y-83098254D01*
X151867389Y-83351247D01*
X151817573Y-83471513D01*
X151593116Y-83807436D01*
X151307436Y-84093116D01*
X150971513Y-84317573D01*
X150971512Y-84317574D01*
X150971511Y-84317574D01*
X150598254Y-84472182D01*
X150202007Y-84551000D01*
X149797993Y-84551000D01*
X149401746Y-84472182D01*
X149028489Y-84317574D01*
X149028488Y-84317574D01*
X149028487Y-84317573D01*
X148692564Y-84093116D01*
X148406884Y-83807436D01*
X148182427Y-83471513D01*
X148132611Y-83351247D01*
X148027818Y-83098254D01*
X147949000Y-82702007D01*
X147949000Y-82297993D01*
X148027818Y-81901746D01*
X148182426Y-81528489D01*
X148406884Y-81192564D01*
X148692564Y-80906884D01*
X148850661Y-80801247D01*
X149028487Y-80682427D01*
X149028489Y-80682426D01*
X149401746Y-80527818D01*
X149797993Y-80449000D01*
X150202007Y-80449000D01*
X150598254Y-80527818D01*
G37*
G36*
X154799999Y-81749737D02*
G01*
X154809608Y-81752652D01*
X154818472Y-81757390D01*
X154826237Y-81763763D01*
X154836448Y-81776206D01*
X154843378Y-81786575D01*
X154860705Y-81803902D01*
X154881080Y-81817515D01*
X154903720Y-81826891D01*
X154927753Y-81831671D01*
X154952257Y-81831670D01*
X154976290Y-81826888D01*
X154998929Y-81817510D01*
X155019302Y-81803895D01*
X155036629Y-81786568D01*
X155043558Y-81776198D01*
X155053763Y-81763763D01*
X155061528Y-81757390D01*
X155070392Y-81752652D01*
X155080001Y-81749737D01*
X155096140Y-81748148D01*
X155583861Y-81748148D01*
X155602199Y-81749954D01*
X155614450Y-81750556D01*
X155632869Y-81750556D01*
X155655149Y-81752750D01*
X155739233Y-81769476D01*
X155760660Y-81775976D01*
X155839858Y-81808780D01*
X155845303Y-81811691D01*
X155845309Y-81811693D01*
X155854169Y-81816429D01*
X155854173Y-81816432D01*
X155859614Y-81819340D01*
X155930899Y-81866971D01*
X155948204Y-81881172D01*
X156008828Y-81941796D01*
X156023029Y-81959101D01*
X156070660Y-82030386D01*
X156073568Y-82035827D01*
X156073571Y-82035831D01*
X156078307Y-82044691D01*
X156078309Y-82044697D01*
X156081220Y-82050142D01*
X156114024Y-82129340D01*
X156120524Y-82150767D01*
X156137250Y-82234851D01*
X156139444Y-82257131D01*
X156139444Y-82275550D01*
X156140046Y-82287801D01*
X156141852Y-82306139D01*
X156141852Y-82793862D01*
X156140046Y-82812199D01*
X156139444Y-82824450D01*
X156139444Y-82842869D01*
X156137250Y-82865149D01*
X156120524Y-82949233D01*
X156114024Y-82970660D01*
X156081220Y-83049858D01*
X156078309Y-83055303D01*
X156078307Y-83055309D01*
X156073571Y-83064169D01*
X156073568Y-83064173D01*
X156070660Y-83069614D01*
X156023029Y-83140899D01*
X156008828Y-83158204D01*
X155948204Y-83218828D01*
X155930899Y-83233029D01*
X155859614Y-83280660D01*
X155854173Y-83283568D01*
X155854169Y-83283571D01*
X155845309Y-83288307D01*
X155845303Y-83288309D01*
X155839858Y-83291220D01*
X155760660Y-83324024D01*
X155739233Y-83330524D01*
X155655149Y-83347250D01*
X155632869Y-83349444D01*
X155614450Y-83349444D01*
X155602199Y-83350046D01*
X155583862Y-83351852D01*
X155096140Y-83351852D01*
X155080001Y-83350263D01*
X155070392Y-83347348D01*
X155061528Y-83342610D01*
X155053763Y-83336237D01*
X155043552Y-83323794D01*
X155036622Y-83313425D01*
X155019295Y-83296098D01*
X154998920Y-83282485D01*
X154976280Y-83273109D01*
X154952247Y-83268329D01*
X154927743Y-83268330D01*
X154903710Y-83273112D01*
X154881071Y-83282490D01*
X154860698Y-83296105D01*
X154843371Y-83313432D01*
X154836442Y-83323802D01*
X154826237Y-83336237D01*
X154818472Y-83342610D01*
X154809608Y-83347348D01*
X154799999Y-83350263D01*
X154783860Y-83351852D01*
X154296138Y-83351852D01*
X154277801Y-83350046D01*
X154265550Y-83349444D01*
X154247131Y-83349444D01*
X154224851Y-83347250D01*
X154140767Y-83330524D01*
X154119340Y-83324024D01*
X154040142Y-83291220D01*
X154034697Y-83288309D01*
X154034691Y-83288307D01*
X154025831Y-83283571D01*
X154025827Y-83283568D01*
X154020386Y-83280660D01*
X153949101Y-83233029D01*
X153931796Y-83218828D01*
X153871172Y-83158204D01*
X153856971Y-83140899D01*
X153809340Y-83069614D01*
X153806432Y-83064173D01*
X153806429Y-83064169D01*
X153801693Y-83055309D01*
X153801691Y-83055303D01*
X153798780Y-83049858D01*
X153765976Y-82970660D01*
X153759476Y-82949233D01*
X153742750Y-82865149D01*
X153740556Y-82842869D01*
X153740556Y-82824450D01*
X153739954Y-82812199D01*
X153738148Y-82793862D01*
X153738148Y-82306139D01*
X153739954Y-82287801D01*
X153740556Y-82275550D01*
X153740556Y-82257131D01*
X153742750Y-82234851D01*
X153759476Y-82150767D01*
X153765976Y-82129340D01*
X153798780Y-82050142D01*
X153801691Y-82044697D01*
X153801693Y-82044691D01*
X153806429Y-82035831D01*
X153806432Y-82035827D01*
X153809340Y-82030386D01*
X153856971Y-81959101D01*
X153871172Y-81941796D01*
X153931796Y-81881172D01*
X153949101Y-81866971D01*
X154020386Y-81819340D01*
X154025827Y-81816432D01*
X154025831Y-81816429D01*
X154034691Y-81811693D01*
X154034697Y-81811691D01*
X154040142Y-81808780D01*
X154119340Y-81775976D01*
X154140767Y-81769476D01*
X154224851Y-81752750D01*
X154247131Y-81750556D01*
X154265550Y-81750556D01*
X154277801Y-81749954D01*
X154296139Y-81748148D01*
X154783860Y-81748148D01*
X154799999Y-81749737D01*
G37*
G36*
X158219059Y-81817860D02*
G01*
X158347073Y-81870885D01*
X158355732Y-81874472D01*
X158478735Y-81956660D01*
X158583340Y-82061265D01*
X158665528Y-82184268D01*
X158722140Y-82320941D01*
X158751000Y-82466033D01*
X158751000Y-82613967D01*
X158722140Y-82759059D01*
X158665528Y-82895732D01*
X158583340Y-83018735D01*
X158478735Y-83123340D01*
X158355732Y-83205528D01*
X158355731Y-83205529D01*
X158355730Y-83205529D01*
X158219059Y-83262140D01*
X158073968Y-83291000D01*
X157926032Y-83291000D01*
X157780941Y-83262140D01*
X157644270Y-83205529D01*
X157644269Y-83205529D01*
X157644268Y-83205528D01*
X157521265Y-83123340D01*
X157416660Y-83018735D01*
X157334472Y-82895732D01*
X157277860Y-82759059D01*
X157249000Y-82613967D01*
X157249000Y-82466033D01*
X157277860Y-82320941D01*
X157334472Y-82184268D01*
X157416660Y-82061265D01*
X157521265Y-81956660D01*
X157644268Y-81874472D01*
X157652928Y-81870885D01*
X157780941Y-81817860D01*
X157926032Y-81789000D01*
X158073968Y-81789000D01*
X158219059Y-81817860D01*
G37*
G36*
X142219059Y-81817860D02*
G01*
X142347073Y-81870885D01*
X142355732Y-81874472D01*
X142478735Y-81956660D01*
X142583340Y-82061265D01*
X142665528Y-82184268D01*
X142722140Y-82320941D01*
X142751000Y-82466033D01*
X142751000Y-82613967D01*
X142722140Y-82759059D01*
X142665528Y-82895732D01*
X142583340Y-83018735D01*
X142478735Y-83123340D01*
X142355732Y-83205528D01*
X142355731Y-83205529D01*
X142355730Y-83205529D01*
X142219059Y-83262140D01*
X142073968Y-83291000D01*
X141926032Y-83291000D01*
X141780941Y-83262140D01*
X141644270Y-83205529D01*
X141644269Y-83205529D01*
X141644268Y-83205528D01*
X141521265Y-83123340D01*
X141416660Y-83018735D01*
X141334472Y-82895732D01*
X141277860Y-82759059D01*
X141249000Y-82613967D01*
X141249000Y-82466033D01*
X141277860Y-82320941D01*
X141334472Y-82184268D01*
X141416660Y-82061265D01*
X141521265Y-81956660D01*
X141644268Y-81874472D01*
X141652928Y-81870885D01*
X141780941Y-81817860D01*
X141926032Y-81789000D01*
X142073968Y-81789000D01*
X142219059Y-81817860D01*
G37*
G36*
X144639999Y-79199737D02*
G01*
X144649608Y-79202652D01*
X144658472Y-79207390D01*
X144666237Y-79213763D01*
X144676448Y-79226206D01*
X144683378Y-79236575D01*
X144700705Y-79253902D01*
X144721080Y-79267515D01*
X144743720Y-79276891D01*
X144767753Y-79281671D01*
X144792257Y-79281670D01*
X144816290Y-79276888D01*
X144838929Y-79267510D01*
X144859302Y-79253895D01*
X144876629Y-79236568D01*
X144883558Y-79226198D01*
X144893763Y-79213763D01*
X144901528Y-79207390D01*
X144910392Y-79202652D01*
X144920001Y-79199737D01*
X144936140Y-79198148D01*
X145423861Y-79198148D01*
X145442199Y-79199954D01*
X145454450Y-79200556D01*
X145472869Y-79200556D01*
X145495149Y-79202750D01*
X145579233Y-79219476D01*
X145600660Y-79225976D01*
X145679858Y-79258780D01*
X145685303Y-79261691D01*
X145685309Y-79261693D01*
X145694169Y-79266429D01*
X145694173Y-79266432D01*
X145699614Y-79269340D01*
X145770899Y-79316971D01*
X145788204Y-79331172D01*
X145848828Y-79391796D01*
X145863029Y-79409101D01*
X145910660Y-79480386D01*
X145913568Y-79485827D01*
X145913571Y-79485831D01*
X145918307Y-79494691D01*
X145918309Y-79494697D01*
X145921220Y-79500142D01*
X145954024Y-79579340D01*
X145960524Y-79600767D01*
X145977250Y-79684851D01*
X145979444Y-79707131D01*
X145979444Y-79725550D01*
X145980046Y-79737801D01*
X145981852Y-79756139D01*
X145981852Y-80243862D01*
X145980046Y-80262199D01*
X145979444Y-80274450D01*
X145979444Y-80292869D01*
X145977250Y-80315149D01*
X145960524Y-80399233D01*
X145954024Y-80420660D01*
X145921220Y-80499858D01*
X145918309Y-80505303D01*
X145918307Y-80505309D01*
X145913571Y-80514169D01*
X145913568Y-80514173D01*
X145910660Y-80519614D01*
X145863029Y-80590899D01*
X145848828Y-80608204D01*
X145788204Y-80668828D01*
X145770899Y-80683029D01*
X145699614Y-80730660D01*
X145694173Y-80733568D01*
X145694169Y-80733571D01*
X145685309Y-80738307D01*
X145685303Y-80738309D01*
X145679858Y-80741220D01*
X145600660Y-80774024D01*
X145579233Y-80780524D01*
X145495149Y-80797250D01*
X145472869Y-80799444D01*
X145454450Y-80799444D01*
X145442199Y-80800046D01*
X145423862Y-80801852D01*
X144936140Y-80801852D01*
X144920001Y-80800263D01*
X144910392Y-80797348D01*
X144901528Y-80792610D01*
X144893763Y-80786237D01*
X144883552Y-80773794D01*
X144876622Y-80763425D01*
X144859295Y-80746098D01*
X144838920Y-80732485D01*
X144816280Y-80723109D01*
X144792247Y-80718329D01*
X144767743Y-80718330D01*
X144743710Y-80723112D01*
X144721071Y-80732490D01*
X144700698Y-80746105D01*
X144683371Y-80763432D01*
X144676442Y-80773802D01*
X144666237Y-80786237D01*
X144658472Y-80792610D01*
X144649608Y-80797348D01*
X144639999Y-80800263D01*
X144623860Y-80801852D01*
X144136138Y-80801852D01*
X144117801Y-80800046D01*
X144105550Y-80799444D01*
X144087131Y-80799444D01*
X144064851Y-80797250D01*
X143980767Y-80780524D01*
X143959340Y-80774024D01*
X143880142Y-80741220D01*
X143874697Y-80738309D01*
X143874691Y-80738307D01*
X143865831Y-80733571D01*
X143865827Y-80733568D01*
X143860386Y-80730660D01*
X143789101Y-80683029D01*
X143771796Y-80668828D01*
X143711172Y-80608204D01*
X143696971Y-80590899D01*
X143649340Y-80519614D01*
X143646432Y-80514173D01*
X143646429Y-80514169D01*
X143641693Y-80505309D01*
X143641691Y-80505303D01*
X143638780Y-80499858D01*
X143605976Y-80420660D01*
X143599476Y-80399233D01*
X143582750Y-80315149D01*
X143580556Y-80292869D01*
X143580556Y-80274450D01*
X143579954Y-80262199D01*
X143578148Y-80243862D01*
X143578148Y-79756139D01*
X143579954Y-79737801D01*
X143580556Y-79725550D01*
X143580556Y-79707131D01*
X143582750Y-79684851D01*
X143599476Y-79600767D01*
X143605976Y-79579340D01*
X143638780Y-79500142D01*
X143641691Y-79494697D01*
X143641693Y-79494691D01*
X143646429Y-79485831D01*
X143646432Y-79485827D01*
X143649340Y-79480386D01*
X143696971Y-79409101D01*
X143711172Y-79391796D01*
X143771796Y-79331172D01*
X143789101Y-79316971D01*
X143860386Y-79269340D01*
X143865827Y-79266432D01*
X143865831Y-79266429D01*
X143874691Y-79261693D01*
X143874697Y-79261691D01*
X143880142Y-79258780D01*
X143959340Y-79225976D01*
X143980767Y-79219476D01*
X144064851Y-79202750D01*
X144087131Y-79200556D01*
X144105550Y-79200556D01*
X144117801Y-79199954D01*
X144136139Y-79198148D01*
X144623860Y-79198148D01*
X144639999Y-79199737D01*
G37*
G36*
X142219059Y-79277860D02*
G01*
X142347766Y-79331172D01*
X142355732Y-79334472D01*
X142478735Y-79416660D01*
X142583340Y-79521265D01*
X142665528Y-79644268D01*
X142665529Y-79644270D01*
X142722140Y-79780941D01*
X142751000Y-79926032D01*
X142751000Y-80073968D01*
X142722140Y-80219059D01*
X142705183Y-80259998D01*
X142665528Y-80355732D01*
X142583340Y-80478735D01*
X142478735Y-80583340D01*
X142355732Y-80665528D01*
X142355731Y-80665529D01*
X142355730Y-80665529D01*
X142219059Y-80722140D01*
X142073968Y-80751000D01*
X141926032Y-80751000D01*
X141780941Y-80722140D01*
X141644270Y-80665529D01*
X141644269Y-80665529D01*
X141644268Y-80665528D01*
X141521265Y-80583340D01*
X141416660Y-80478735D01*
X141334472Y-80355732D01*
X141294818Y-80259998D01*
X141277860Y-80219059D01*
X141249000Y-80073968D01*
X141249000Y-79926032D01*
X141277860Y-79780941D01*
X141334471Y-79644270D01*
X141334472Y-79644268D01*
X141416660Y-79521265D01*
X141521265Y-79416660D01*
X141644268Y-79334472D01*
X141652235Y-79331172D01*
X141780941Y-79277860D01*
X141926032Y-79249000D01*
X142073968Y-79249000D01*
X142219059Y-79277860D01*
G37*
G36*
X158219059Y-79277860D02*
G01*
X158347766Y-79331172D01*
X158355732Y-79334472D01*
X158478735Y-79416660D01*
X158583340Y-79521265D01*
X158665528Y-79644268D01*
X158665529Y-79644270D01*
X158722140Y-79780941D01*
X158751000Y-79926032D01*
X158751000Y-80073968D01*
X158722140Y-80219059D01*
X158705183Y-80259998D01*
X158665528Y-80355732D01*
X158583340Y-80478735D01*
X158478735Y-80583340D01*
X158355732Y-80665528D01*
X158355731Y-80665529D01*
X158355730Y-80665529D01*
X158219059Y-80722140D01*
X158073968Y-80751000D01*
X157926032Y-80751000D01*
X157780941Y-80722140D01*
X157644270Y-80665529D01*
X157644269Y-80665529D01*
X157644268Y-80665528D01*
X157521265Y-80583340D01*
X157416660Y-80478735D01*
X157334472Y-80355732D01*
X157294818Y-80259998D01*
X157277860Y-80219059D01*
X157249000Y-80073968D01*
X157249000Y-79926032D01*
X157277860Y-79780941D01*
X157334471Y-79644270D01*
X157334472Y-79644268D01*
X157416660Y-79521265D01*
X157521265Y-79416660D01*
X157644268Y-79334472D01*
X157652235Y-79331172D01*
X157780941Y-79277860D01*
X157926032Y-79249000D01*
X158073968Y-79249000D01*
X158219059Y-79277860D01*
G37*
G36*
X156714794Y-74420155D02*
G01*
X156821150Y-74441311D01*
X157021520Y-74524307D01*
X157201844Y-74644795D01*
X157355205Y-74798156D01*
X157475693Y-74978480D01*
X157558689Y-75178851D01*
X157601000Y-75391560D01*
X157601000Y-75608440D01*
X157558689Y-75821149D01*
X157475693Y-76021520D01*
X157355205Y-76201844D01*
X157201844Y-76355205D01*
X157021520Y-76475693D01*
X156921334Y-76517191D01*
X156821150Y-76558689D01*
X156714795Y-76579844D01*
X156608440Y-76601000D01*
X156391560Y-76601000D01*
X156285205Y-76579844D01*
X156178850Y-76558689D01*
X156078666Y-76517191D01*
X155978480Y-76475693D01*
X155798156Y-76355205D01*
X155644795Y-76201844D01*
X155524307Y-76021520D01*
X155441311Y-75821149D01*
X155399000Y-75608440D01*
X155399000Y-75391560D01*
X155441311Y-75178851D01*
X155524307Y-74978480D01*
X155644795Y-74798156D01*
X155798156Y-74644795D01*
X155978480Y-74524307D01*
X156178850Y-74441311D01*
X156285206Y-74420155D01*
X156391560Y-74399000D01*
X156608440Y-74399000D01*
X156714794Y-74420155D01*
G37*
G36*
X143714794Y-74420155D02*
G01*
X143821150Y-74441311D01*
X144021520Y-74524307D01*
X144201844Y-74644795D01*
X144355205Y-74798156D01*
X144475693Y-74978480D01*
X144558689Y-75178851D01*
X144601000Y-75391560D01*
X144601000Y-75608440D01*
X144558689Y-75821149D01*
X144475693Y-76021520D01*
X144355205Y-76201844D01*
X144201844Y-76355205D01*
X144021520Y-76475693D01*
X143921334Y-76517191D01*
X143821150Y-76558689D01*
X143714795Y-76579844D01*
X143608440Y-76601000D01*
X143391560Y-76601000D01*
X143285205Y-76579844D01*
X143178850Y-76558689D01*
X143078666Y-76517191D01*
X142978480Y-76475693D01*
X142798156Y-76355205D01*
X142644795Y-76201844D01*
X142524307Y-76021520D01*
X142441311Y-75821149D01*
X142399000Y-75608440D01*
X142399000Y-75391560D01*
X142441311Y-75178851D01*
X142524307Y-74978480D01*
X142644795Y-74798156D01*
X142798156Y-74644795D01*
X142978480Y-74524307D01*
X143178850Y-74441311D01*
X143285206Y-74420155D01*
X143391560Y-74399000D01*
X143608440Y-74399000D01*
X143714794Y-74420155D01*
G37*
M02*
