G04 #@! TF.GenerationSoftware,KiCad,Pcbnew,5.1.5-52549c5~84~ubuntu18.04.1*
G04 #@! TF.CreationDate,2020-01-14T19:02:19-08:00*
G04 #@! TF.ProjectId,somos_dielectrode_v1.0,736f6d6f-735f-4646-9965-6c656374726f,rev?*
G04 #@! TF.SameCoordinates,Original*
G04 #@! TF.FileFunction,Copper,L1,Top*
G04 #@! TF.FilePolarity,Positive*
%FSLAX46Y46*%
G04 Gerber Fmt 4.6, Leading zero omitted, Abs format (unit mm)*
G04 Created by KiCad (PCBNEW 5.1.5-52549c5~84~ubuntu18.04.1) date 2020-01-14 19:02:19*
%MOMM*%
%LPD*%
G04 APERTURE LIST*
%ADD10C,0.100000*%
%ADD11R,1.700000X1.700000*%
%ADD12C,1.400000*%
%ADD13C,4.000000*%
%ADD14C,0.800000*%
%ADD15C,0.350000*%
%ADD16C,0.160000*%
G04 APERTURE END LIST*
G04 #@! TA.AperFunction,SMDPad,CuDef*
D10*
G36*
X144930000Y-84340000D02*
G01*
X145430000Y-84340000D01*
X145430000Y-84340602D01*
X145454534Y-84340602D01*
X145503365Y-84345412D01*
X145551490Y-84354984D01*
X145598445Y-84369228D01*
X145643778Y-84388005D01*
X145687051Y-84411136D01*
X145727850Y-84438396D01*
X145765779Y-84469524D01*
X145800476Y-84504221D01*
X145831604Y-84542150D01*
X145858864Y-84582949D01*
X145881995Y-84626222D01*
X145900772Y-84671555D01*
X145915016Y-84718510D01*
X145924588Y-84766635D01*
X145929398Y-84815466D01*
X145929398Y-84840000D01*
X145930000Y-84840000D01*
X145930000Y-85340000D01*
X145929398Y-85340000D01*
X145929398Y-85364534D01*
X145924588Y-85413365D01*
X145915016Y-85461490D01*
X145900772Y-85508445D01*
X145881995Y-85553778D01*
X145858864Y-85597051D01*
X145831604Y-85637850D01*
X145800476Y-85675779D01*
X145765779Y-85710476D01*
X145727850Y-85741604D01*
X145687051Y-85768864D01*
X145643778Y-85791995D01*
X145598445Y-85810772D01*
X145551490Y-85825016D01*
X145503365Y-85834588D01*
X145454534Y-85839398D01*
X145430000Y-85839398D01*
X145430000Y-85840000D01*
X144930000Y-85840000D01*
X144930000Y-84340000D01*
G37*
G04 #@! TD.AperFunction*
G04 #@! TA.AperFunction,SMDPad,CuDef*
G36*
X144130000Y-85839398D02*
G01*
X144105466Y-85839398D01*
X144056635Y-85834588D01*
X144008510Y-85825016D01*
X143961555Y-85810772D01*
X143916222Y-85791995D01*
X143872949Y-85768864D01*
X143832150Y-85741604D01*
X143794221Y-85710476D01*
X143759524Y-85675779D01*
X143728396Y-85637850D01*
X143701136Y-85597051D01*
X143678005Y-85553778D01*
X143659228Y-85508445D01*
X143644984Y-85461490D01*
X143635412Y-85413365D01*
X143630602Y-85364534D01*
X143630602Y-85340000D01*
X143630000Y-85340000D01*
X143630000Y-84840000D01*
X143630602Y-84840000D01*
X143630602Y-84815466D01*
X143635412Y-84766635D01*
X143644984Y-84718510D01*
X143659228Y-84671555D01*
X143678005Y-84626222D01*
X143701136Y-84582949D01*
X143728396Y-84542150D01*
X143759524Y-84504221D01*
X143794221Y-84469524D01*
X143832150Y-84438396D01*
X143872949Y-84411136D01*
X143916222Y-84388005D01*
X143961555Y-84369228D01*
X144008510Y-84354984D01*
X144056635Y-84345412D01*
X144105466Y-84340602D01*
X144130000Y-84340602D01*
X144130000Y-84340000D01*
X144630000Y-84340000D01*
X144630000Y-85840000D01*
X144130000Y-85840000D01*
X144130000Y-85839398D01*
G37*
G04 #@! TD.AperFunction*
G04 #@! TA.AperFunction,SMDPad,CuDef*
G36*
X144930000Y-79250000D02*
G01*
X145430000Y-79250000D01*
X145430000Y-79250602D01*
X145454534Y-79250602D01*
X145503365Y-79255412D01*
X145551490Y-79264984D01*
X145598445Y-79279228D01*
X145643778Y-79298005D01*
X145687051Y-79321136D01*
X145727850Y-79348396D01*
X145765779Y-79379524D01*
X145800476Y-79414221D01*
X145831604Y-79452150D01*
X145858864Y-79492949D01*
X145881995Y-79536222D01*
X145900772Y-79581555D01*
X145915016Y-79628510D01*
X145924588Y-79676635D01*
X145929398Y-79725466D01*
X145929398Y-79750000D01*
X145930000Y-79750000D01*
X145930000Y-80250000D01*
X145929398Y-80250000D01*
X145929398Y-80274534D01*
X145924588Y-80323365D01*
X145915016Y-80371490D01*
X145900772Y-80418445D01*
X145881995Y-80463778D01*
X145858864Y-80507051D01*
X145831604Y-80547850D01*
X145800476Y-80585779D01*
X145765779Y-80620476D01*
X145727850Y-80651604D01*
X145687051Y-80678864D01*
X145643778Y-80701995D01*
X145598445Y-80720772D01*
X145551490Y-80735016D01*
X145503365Y-80744588D01*
X145454534Y-80749398D01*
X145430000Y-80749398D01*
X145430000Y-80750000D01*
X144930000Y-80750000D01*
X144930000Y-79250000D01*
G37*
G04 #@! TD.AperFunction*
G04 #@! TA.AperFunction,SMDPad,CuDef*
G36*
X144130000Y-80749398D02*
G01*
X144105466Y-80749398D01*
X144056635Y-80744588D01*
X144008510Y-80735016D01*
X143961555Y-80720772D01*
X143916222Y-80701995D01*
X143872949Y-80678864D01*
X143832150Y-80651604D01*
X143794221Y-80620476D01*
X143759524Y-80585779D01*
X143728396Y-80547850D01*
X143701136Y-80507051D01*
X143678005Y-80463778D01*
X143659228Y-80418445D01*
X143644984Y-80371490D01*
X143635412Y-80323365D01*
X143630602Y-80274534D01*
X143630602Y-80250000D01*
X143630000Y-80250000D01*
X143630000Y-79750000D01*
X143630602Y-79750000D01*
X143630602Y-79725466D01*
X143635412Y-79676635D01*
X143644984Y-79628510D01*
X143659228Y-79581555D01*
X143678005Y-79536222D01*
X143701136Y-79492949D01*
X143728396Y-79452150D01*
X143759524Y-79414221D01*
X143794221Y-79379524D01*
X143832150Y-79348396D01*
X143872949Y-79321136D01*
X143916222Y-79298005D01*
X143961555Y-79279228D01*
X144008510Y-79264984D01*
X144056635Y-79255412D01*
X144105466Y-79250602D01*
X144130000Y-79250602D01*
X144130000Y-79250000D01*
X144630000Y-79250000D01*
X144630000Y-80750000D01*
X144130000Y-80750000D01*
X144130000Y-80749398D01*
G37*
G04 #@! TD.AperFunction*
G04 #@! TA.AperFunction,SMDPad,CuDef*
G36*
X144930000Y-89420000D02*
G01*
X145430000Y-89420000D01*
X145430000Y-89420602D01*
X145454534Y-89420602D01*
X145503365Y-89425412D01*
X145551490Y-89434984D01*
X145598445Y-89449228D01*
X145643778Y-89468005D01*
X145687051Y-89491136D01*
X145727850Y-89518396D01*
X145765779Y-89549524D01*
X145800476Y-89584221D01*
X145831604Y-89622150D01*
X145858864Y-89662949D01*
X145881995Y-89706222D01*
X145900772Y-89751555D01*
X145915016Y-89798510D01*
X145924588Y-89846635D01*
X145929398Y-89895466D01*
X145929398Y-89920000D01*
X145930000Y-89920000D01*
X145930000Y-90420000D01*
X145929398Y-90420000D01*
X145929398Y-90444534D01*
X145924588Y-90493365D01*
X145915016Y-90541490D01*
X145900772Y-90588445D01*
X145881995Y-90633778D01*
X145858864Y-90677051D01*
X145831604Y-90717850D01*
X145800476Y-90755779D01*
X145765779Y-90790476D01*
X145727850Y-90821604D01*
X145687051Y-90848864D01*
X145643778Y-90871995D01*
X145598445Y-90890772D01*
X145551490Y-90905016D01*
X145503365Y-90914588D01*
X145454534Y-90919398D01*
X145430000Y-90919398D01*
X145430000Y-90920000D01*
X144930000Y-90920000D01*
X144930000Y-89420000D01*
G37*
G04 #@! TD.AperFunction*
G04 #@! TA.AperFunction,SMDPad,CuDef*
G36*
X144130000Y-90919398D02*
G01*
X144105466Y-90919398D01*
X144056635Y-90914588D01*
X144008510Y-90905016D01*
X143961555Y-90890772D01*
X143916222Y-90871995D01*
X143872949Y-90848864D01*
X143832150Y-90821604D01*
X143794221Y-90790476D01*
X143759524Y-90755779D01*
X143728396Y-90717850D01*
X143701136Y-90677051D01*
X143678005Y-90633778D01*
X143659228Y-90588445D01*
X143644984Y-90541490D01*
X143635412Y-90493365D01*
X143630602Y-90444534D01*
X143630602Y-90420000D01*
X143630000Y-90420000D01*
X143630000Y-89920000D01*
X143630602Y-89920000D01*
X143630602Y-89895466D01*
X143635412Y-89846635D01*
X143644984Y-89798510D01*
X143659228Y-89751555D01*
X143678005Y-89706222D01*
X143701136Y-89662949D01*
X143728396Y-89622150D01*
X143759524Y-89584221D01*
X143794221Y-89549524D01*
X143832150Y-89518396D01*
X143872949Y-89491136D01*
X143916222Y-89468005D01*
X143961555Y-89449228D01*
X144008510Y-89434984D01*
X144056635Y-89425412D01*
X144105466Y-89420602D01*
X144130000Y-89420602D01*
X144130000Y-89420000D01*
X144630000Y-89420000D01*
X144630000Y-90920000D01*
X144130000Y-90920000D01*
X144130000Y-90919398D01*
G37*
G04 #@! TD.AperFunction*
G04 #@! TA.AperFunction,SMDPad,CuDef*
G36*
X144930000Y-94500000D02*
G01*
X145430000Y-94500000D01*
X145430000Y-94500602D01*
X145454534Y-94500602D01*
X145503365Y-94505412D01*
X145551490Y-94514984D01*
X145598445Y-94529228D01*
X145643778Y-94548005D01*
X145687051Y-94571136D01*
X145727850Y-94598396D01*
X145765779Y-94629524D01*
X145800476Y-94664221D01*
X145831604Y-94702150D01*
X145858864Y-94742949D01*
X145881995Y-94786222D01*
X145900772Y-94831555D01*
X145915016Y-94878510D01*
X145924588Y-94926635D01*
X145929398Y-94975466D01*
X145929398Y-95000000D01*
X145930000Y-95000000D01*
X145930000Y-95500000D01*
X145929398Y-95500000D01*
X145929398Y-95524534D01*
X145924588Y-95573365D01*
X145915016Y-95621490D01*
X145900772Y-95668445D01*
X145881995Y-95713778D01*
X145858864Y-95757051D01*
X145831604Y-95797850D01*
X145800476Y-95835779D01*
X145765779Y-95870476D01*
X145727850Y-95901604D01*
X145687051Y-95928864D01*
X145643778Y-95951995D01*
X145598445Y-95970772D01*
X145551490Y-95985016D01*
X145503365Y-95994588D01*
X145454534Y-95999398D01*
X145430000Y-95999398D01*
X145430000Y-96000000D01*
X144930000Y-96000000D01*
X144930000Y-94500000D01*
G37*
G04 #@! TD.AperFunction*
G04 #@! TA.AperFunction,SMDPad,CuDef*
G36*
X144130000Y-95999398D02*
G01*
X144105466Y-95999398D01*
X144056635Y-95994588D01*
X144008510Y-95985016D01*
X143961555Y-95970772D01*
X143916222Y-95951995D01*
X143872949Y-95928864D01*
X143832150Y-95901604D01*
X143794221Y-95870476D01*
X143759524Y-95835779D01*
X143728396Y-95797850D01*
X143701136Y-95757051D01*
X143678005Y-95713778D01*
X143659228Y-95668445D01*
X143644984Y-95621490D01*
X143635412Y-95573365D01*
X143630602Y-95524534D01*
X143630602Y-95500000D01*
X143630000Y-95500000D01*
X143630000Y-95000000D01*
X143630602Y-95000000D01*
X143630602Y-94975466D01*
X143635412Y-94926635D01*
X143644984Y-94878510D01*
X143659228Y-94831555D01*
X143678005Y-94786222D01*
X143701136Y-94742949D01*
X143728396Y-94702150D01*
X143759524Y-94664221D01*
X143794221Y-94629524D01*
X143832150Y-94598396D01*
X143872949Y-94571136D01*
X143916222Y-94548005D01*
X143961555Y-94529228D01*
X144008510Y-94514984D01*
X144056635Y-94505412D01*
X144105466Y-94500602D01*
X144130000Y-94500602D01*
X144130000Y-94500000D01*
X144630000Y-94500000D01*
X144630000Y-96000000D01*
X144130000Y-96000000D01*
X144130000Y-95999398D01*
G37*
G04 #@! TD.AperFunction*
G04 #@! TA.AperFunction,SMDPad,CuDef*
G36*
X144930000Y-102250000D02*
G01*
X145430000Y-102250000D01*
X145430000Y-102250602D01*
X145454534Y-102250602D01*
X145503365Y-102255412D01*
X145551490Y-102264984D01*
X145598445Y-102279228D01*
X145643778Y-102298005D01*
X145687051Y-102321136D01*
X145727850Y-102348396D01*
X145765779Y-102379524D01*
X145800476Y-102414221D01*
X145831604Y-102452150D01*
X145858864Y-102492949D01*
X145881995Y-102536222D01*
X145900772Y-102581555D01*
X145915016Y-102628510D01*
X145924588Y-102676635D01*
X145929398Y-102725466D01*
X145929398Y-102750000D01*
X145930000Y-102750000D01*
X145930000Y-103250000D01*
X145929398Y-103250000D01*
X145929398Y-103274534D01*
X145924588Y-103323365D01*
X145915016Y-103371490D01*
X145900772Y-103418445D01*
X145881995Y-103463778D01*
X145858864Y-103507051D01*
X145831604Y-103547850D01*
X145800476Y-103585779D01*
X145765779Y-103620476D01*
X145727850Y-103651604D01*
X145687051Y-103678864D01*
X145643778Y-103701995D01*
X145598445Y-103720772D01*
X145551490Y-103735016D01*
X145503365Y-103744588D01*
X145454534Y-103749398D01*
X145430000Y-103749398D01*
X145430000Y-103750000D01*
X144930000Y-103750000D01*
X144930000Y-102250000D01*
G37*
G04 #@! TD.AperFunction*
G04 #@! TA.AperFunction,SMDPad,CuDef*
G36*
X144130000Y-103749398D02*
G01*
X144105466Y-103749398D01*
X144056635Y-103744588D01*
X144008510Y-103735016D01*
X143961555Y-103720772D01*
X143916222Y-103701995D01*
X143872949Y-103678864D01*
X143832150Y-103651604D01*
X143794221Y-103620476D01*
X143759524Y-103585779D01*
X143728396Y-103547850D01*
X143701136Y-103507051D01*
X143678005Y-103463778D01*
X143659228Y-103418445D01*
X143644984Y-103371490D01*
X143635412Y-103323365D01*
X143630602Y-103274534D01*
X143630602Y-103250000D01*
X143630000Y-103250000D01*
X143630000Y-102750000D01*
X143630602Y-102750000D01*
X143630602Y-102725466D01*
X143635412Y-102676635D01*
X143644984Y-102628510D01*
X143659228Y-102581555D01*
X143678005Y-102536222D01*
X143701136Y-102492949D01*
X143728396Y-102452150D01*
X143759524Y-102414221D01*
X143794221Y-102379524D01*
X143832150Y-102348396D01*
X143872949Y-102321136D01*
X143916222Y-102298005D01*
X143961555Y-102279228D01*
X144008510Y-102264984D01*
X144056635Y-102255412D01*
X144105466Y-102250602D01*
X144130000Y-102250602D01*
X144130000Y-102250000D01*
X144630000Y-102250000D01*
X144630000Y-103750000D01*
X144130000Y-103750000D01*
X144130000Y-103749398D01*
G37*
G04 #@! TD.AperFunction*
G04 #@! TA.AperFunction,SMDPad,CuDef*
G36*
X144930000Y-107200000D02*
G01*
X145430000Y-107200000D01*
X145430000Y-107200602D01*
X145454534Y-107200602D01*
X145503365Y-107205412D01*
X145551490Y-107214984D01*
X145598445Y-107229228D01*
X145643778Y-107248005D01*
X145687051Y-107271136D01*
X145727850Y-107298396D01*
X145765779Y-107329524D01*
X145800476Y-107364221D01*
X145831604Y-107402150D01*
X145858864Y-107442949D01*
X145881995Y-107486222D01*
X145900772Y-107531555D01*
X145915016Y-107578510D01*
X145924588Y-107626635D01*
X145929398Y-107675466D01*
X145929398Y-107700000D01*
X145930000Y-107700000D01*
X145930000Y-108200000D01*
X145929398Y-108200000D01*
X145929398Y-108224534D01*
X145924588Y-108273365D01*
X145915016Y-108321490D01*
X145900772Y-108368445D01*
X145881995Y-108413778D01*
X145858864Y-108457051D01*
X145831604Y-108497850D01*
X145800476Y-108535779D01*
X145765779Y-108570476D01*
X145727850Y-108601604D01*
X145687051Y-108628864D01*
X145643778Y-108651995D01*
X145598445Y-108670772D01*
X145551490Y-108685016D01*
X145503365Y-108694588D01*
X145454534Y-108699398D01*
X145430000Y-108699398D01*
X145430000Y-108700000D01*
X144930000Y-108700000D01*
X144930000Y-107200000D01*
G37*
G04 #@! TD.AperFunction*
G04 #@! TA.AperFunction,SMDPad,CuDef*
G36*
X144130000Y-108699398D02*
G01*
X144105466Y-108699398D01*
X144056635Y-108694588D01*
X144008510Y-108685016D01*
X143961555Y-108670772D01*
X143916222Y-108651995D01*
X143872949Y-108628864D01*
X143832150Y-108601604D01*
X143794221Y-108570476D01*
X143759524Y-108535779D01*
X143728396Y-108497850D01*
X143701136Y-108457051D01*
X143678005Y-108413778D01*
X143659228Y-108368445D01*
X143644984Y-108321490D01*
X143635412Y-108273365D01*
X143630602Y-108224534D01*
X143630602Y-108200000D01*
X143630000Y-108200000D01*
X143630000Y-107700000D01*
X143630602Y-107700000D01*
X143630602Y-107675466D01*
X143635412Y-107626635D01*
X143644984Y-107578510D01*
X143659228Y-107531555D01*
X143678005Y-107486222D01*
X143701136Y-107442949D01*
X143728396Y-107402150D01*
X143759524Y-107364221D01*
X143794221Y-107329524D01*
X143832150Y-107298396D01*
X143872949Y-107271136D01*
X143916222Y-107248005D01*
X143961555Y-107229228D01*
X144008510Y-107214984D01*
X144056635Y-107205412D01*
X144105466Y-107200602D01*
X144130000Y-107200602D01*
X144130000Y-107200000D01*
X144630000Y-107200000D01*
X144630000Y-108700000D01*
X144130000Y-108700000D01*
X144130000Y-108699398D01*
G37*
G04 #@! TD.AperFunction*
G04 #@! TA.AperFunction,SMDPad,CuDef*
G36*
X144930000Y-112280000D02*
G01*
X145430000Y-112280000D01*
X145430000Y-112280602D01*
X145454534Y-112280602D01*
X145503365Y-112285412D01*
X145551490Y-112294984D01*
X145598445Y-112309228D01*
X145643778Y-112328005D01*
X145687051Y-112351136D01*
X145727850Y-112378396D01*
X145765779Y-112409524D01*
X145800476Y-112444221D01*
X145831604Y-112482150D01*
X145858864Y-112522949D01*
X145881995Y-112566222D01*
X145900772Y-112611555D01*
X145915016Y-112658510D01*
X145924588Y-112706635D01*
X145929398Y-112755466D01*
X145929398Y-112780000D01*
X145930000Y-112780000D01*
X145930000Y-113280000D01*
X145929398Y-113280000D01*
X145929398Y-113304534D01*
X145924588Y-113353365D01*
X145915016Y-113401490D01*
X145900772Y-113448445D01*
X145881995Y-113493778D01*
X145858864Y-113537051D01*
X145831604Y-113577850D01*
X145800476Y-113615779D01*
X145765779Y-113650476D01*
X145727850Y-113681604D01*
X145687051Y-113708864D01*
X145643778Y-113731995D01*
X145598445Y-113750772D01*
X145551490Y-113765016D01*
X145503365Y-113774588D01*
X145454534Y-113779398D01*
X145430000Y-113779398D01*
X145430000Y-113780000D01*
X144930000Y-113780000D01*
X144930000Y-112280000D01*
G37*
G04 #@! TD.AperFunction*
G04 #@! TA.AperFunction,SMDPad,CuDef*
G36*
X144130000Y-113779398D02*
G01*
X144105466Y-113779398D01*
X144056635Y-113774588D01*
X144008510Y-113765016D01*
X143961555Y-113750772D01*
X143916222Y-113731995D01*
X143872949Y-113708864D01*
X143832150Y-113681604D01*
X143794221Y-113650476D01*
X143759524Y-113615779D01*
X143728396Y-113577850D01*
X143701136Y-113537051D01*
X143678005Y-113493778D01*
X143659228Y-113448445D01*
X143644984Y-113401490D01*
X143635412Y-113353365D01*
X143630602Y-113304534D01*
X143630602Y-113280000D01*
X143630000Y-113280000D01*
X143630000Y-112780000D01*
X143630602Y-112780000D01*
X143630602Y-112755466D01*
X143635412Y-112706635D01*
X143644984Y-112658510D01*
X143659228Y-112611555D01*
X143678005Y-112566222D01*
X143701136Y-112522949D01*
X143728396Y-112482150D01*
X143759524Y-112444221D01*
X143794221Y-112409524D01*
X143832150Y-112378396D01*
X143872949Y-112351136D01*
X143916222Y-112328005D01*
X143961555Y-112309228D01*
X144008510Y-112294984D01*
X144056635Y-112285412D01*
X144105466Y-112280602D01*
X144130000Y-112280602D01*
X144130000Y-112280000D01*
X144630000Y-112280000D01*
X144630000Y-113780000D01*
X144130000Y-113780000D01*
X144130000Y-113779398D01*
G37*
G04 #@! TD.AperFunction*
G04 #@! TA.AperFunction,SMDPad,CuDef*
G36*
X144930000Y-117360000D02*
G01*
X145430000Y-117360000D01*
X145430000Y-117360602D01*
X145454534Y-117360602D01*
X145503365Y-117365412D01*
X145551490Y-117374984D01*
X145598445Y-117389228D01*
X145643778Y-117408005D01*
X145687051Y-117431136D01*
X145727850Y-117458396D01*
X145765779Y-117489524D01*
X145800476Y-117524221D01*
X145831604Y-117562150D01*
X145858864Y-117602949D01*
X145881995Y-117646222D01*
X145900772Y-117691555D01*
X145915016Y-117738510D01*
X145924588Y-117786635D01*
X145929398Y-117835466D01*
X145929398Y-117860000D01*
X145930000Y-117860000D01*
X145930000Y-118360000D01*
X145929398Y-118360000D01*
X145929398Y-118384534D01*
X145924588Y-118433365D01*
X145915016Y-118481490D01*
X145900772Y-118528445D01*
X145881995Y-118573778D01*
X145858864Y-118617051D01*
X145831604Y-118657850D01*
X145800476Y-118695779D01*
X145765779Y-118730476D01*
X145727850Y-118761604D01*
X145687051Y-118788864D01*
X145643778Y-118811995D01*
X145598445Y-118830772D01*
X145551490Y-118845016D01*
X145503365Y-118854588D01*
X145454534Y-118859398D01*
X145430000Y-118859398D01*
X145430000Y-118860000D01*
X144930000Y-118860000D01*
X144930000Y-117360000D01*
G37*
G04 #@! TD.AperFunction*
G04 #@! TA.AperFunction,SMDPad,CuDef*
G36*
X144130000Y-118859398D02*
G01*
X144105466Y-118859398D01*
X144056635Y-118854588D01*
X144008510Y-118845016D01*
X143961555Y-118830772D01*
X143916222Y-118811995D01*
X143872949Y-118788864D01*
X143832150Y-118761604D01*
X143794221Y-118730476D01*
X143759524Y-118695779D01*
X143728396Y-118657850D01*
X143701136Y-118617051D01*
X143678005Y-118573778D01*
X143659228Y-118528445D01*
X143644984Y-118481490D01*
X143635412Y-118433365D01*
X143630602Y-118384534D01*
X143630602Y-118360000D01*
X143630000Y-118360000D01*
X143630000Y-117860000D01*
X143630602Y-117860000D01*
X143630602Y-117835466D01*
X143635412Y-117786635D01*
X143644984Y-117738510D01*
X143659228Y-117691555D01*
X143678005Y-117646222D01*
X143701136Y-117602949D01*
X143728396Y-117562150D01*
X143759524Y-117524221D01*
X143794221Y-117489524D01*
X143832150Y-117458396D01*
X143872949Y-117431136D01*
X143916222Y-117408005D01*
X143961555Y-117389228D01*
X144008510Y-117374984D01*
X144056635Y-117365412D01*
X144105466Y-117360602D01*
X144130000Y-117360602D01*
X144130000Y-117360000D01*
X144630000Y-117360000D01*
X144630000Y-118860000D01*
X144130000Y-118860000D01*
X144130000Y-118859398D01*
G37*
G04 #@! TD.AperFunction*
G04 #@! TA.AperFunction,SMDPad,CuDef*
G36*
X154790000Y-83300000D02*
G01*
X154290000Y-83300000D01*
X154290000Y-83299398D01*
X154265466Y-83299398D01*
X154216635Y-83294588D01*
X154168510Y-83285016D01*
X154121555Y-83270772D01*
X154076222Y-83251995D01*
X154032949Y-83228864D01*
X153992150Y-83201604D01*
X153954221Y-83170476D01*
X153919524Y-83135779D01*
X153888396Y-83097850D01*
X153861136Y-83057051D01*
X153838005Y-83013778D01*
X153819228Y-82968445D01*
X153804984Y-82921490D01*
X153795412Y-82873365D01*
X153790602Y-82824534D01*
X153790602Y-82800000D01*
X153790000Y-82800000D01*
X153790000Y-82300000D01*
X153790602Y-82300000D01*
X153790602Y-82275466D01*
X153795412Y-82226635D01*
X153804984Y-82178510D01*
X153819228Y-82131555D01*
X153838005Y-82086222D01*
X153861136Y-82042949D01*
X153888396Y-82002150D01*
X153919524Y-81964221D01*
X153954221Y-81929524D01*
X153992150Y-81898396D01*
X154032949Y-81871136D01*
X154076222Y-81848005D01*
X154121555Y-81829228D01*
X154168510Y-81814984D01*
X154216635Y-81805412D01*
X154265466Y-81800602D01*
X154290000Y-81800602D01*
X154290000Y-81800000D01*
X154790000Y-81800000D01*
X154790000Y-83300000D01*
G37*
G04 #@! TD.AperFunction*
G04 #@! TA.AperFunction,SMDPad,CuDef*
G36*
X155590000Y-81800602D02*
G01*
X155614534Y-81800602D01*
X155663365Y-81805412D01*
X155711490Y-81814984D01*
X155758445Y-81829228D01*
X155803778Y-81848005D01*
X155847051Y-81871136D01*
X155887850Y-81898396D01*
X155925779Y-81929524D01*
X155960476Y-81964221D01*
X155991604Y-82002150D01*
X156018864Y-82042949D01*
X156041995Y-82086222D01*
X156060772Y-82131555D01*
X156075016Y-82178510D01*
X156084588Y-82226635D01*
X156089398Y-82275466D01*
X156089398Y-82300000D01*
X156090000Y-82300000D01*
X156090000Y-82800000D01*
X156089398Y-82800000D01*
X156089398Y-82824534D01*
X156084588Y-82873365D01*
X156075016Y-82921490D01*
X156060772Y-82968445D01*
X156041995Y-83013778D01*
X156018864Y-83057051D01*
X155991604Y-83097850D01*
X155960476Y-83135779D01*
X155925779Y-83170476D01*
X155887850Y-83201604D01*
X155847051Y-83228864D01*
X155803778Y-83251995D01*
X155758445Y-83270772D01*
X155711490Y-83285016D01*
X155663365Y-83294588D01*
X155614534Y-83299398D01*
X155590000Y-83299398D01*
X155590000Y-83300000D01*
X155090000Y-83300000D01*
X155090000Y-81800000D01*
X155590000Y-81800000D01*
X155590000Y-81800602D01*
G37*
G04 #@! TD.AperFunction*
G04 #@! TA.AperFunction,SMDPad,CuDef*
G36*
X154790000Y-88380000D02*
G01*
X154290000Y-88380000D01*
X154290000Y-88379398D01*
X154265466Y-88379398D01*
X154216635Y-88374588D01*
X154168510Y-88365016D01*
X154121555Y-88350772D01*
X154076222Y-88331995D01*
X154032949Y-88308864D01*
X153992150Y-88281604D01*
X153954221Y-88250476D01*
X153919524Y-88215779D01*
X153888396Y-88177850D01*
X153861136Y-88137051D01*
X153838005Y-88093778D01*
X153819228Y-88048445D01*
X153804984Y-88001490D01*
X153795412Y-87953365D01*
X153790602Y-87904534D01*
X153790602Y-87880000D01*
X153790000Y-87880000D01*
X153790000Y-87380000D01*
X153790602Y-87380000D01*
X153790602Y-87355466D01*
X153795412Y-87306635D01*
X153804984Y-87258510D01*
X153819228Y-87211555D01*
X153838005Y-87166222D01*
X153861136Y-87122949D01*
X153888396Y-87082150D01*
X153919524Y-87044221D01*
X153954221Y-87009524D01*
X153992150Y-86978396D01*
X154032949Y-86951136D01*
X154076222Y-86928005D01*
X154121555Y-86909228D01*
X154168510Y-86894984D01*
X154216635Y-86885412D01*
X154265466Y-86880602D01*
X154290000Y-86880602D01*
X154290000Y-86880000D01*
X154790000Y-86880000D01*
X154790000Y-88380000D01*
G37*
G04 #@! TD.AperFunction*
G04 #@! TA.AperFunction,SMDPad,CuDef*
G36*
X155590000Y-86880602D02*
G01*
X155614534Y-86880602D01*
X155663365Y-86885412D01*
X155711490Y-86894984D01*
X155758445Y-86909228D01*
X155803778Y-86928005D01*
X155847051Y-86951136D01*
X155887850Y-86978396D01*
X155925779Y-87009524D01*
X155960476Y-87044221D01*
X155991604Y-87082150D01*
X156018864Y-87122949D01*
X156041995Y-87166222D01*
X156060772Y-87211555D01*
X156075016Y-87258510D01*
X156084588Y-87306635D01*
X156089398Y-87355466D01*
X156089398Y-87380000D01*
X156090000Y-87380000D01*
X156090000Y-87880000D01*
X156089398Y-87880000D01*
X156089398Y-87904534D01*
X156084588Y-87953365D01*
X156075016Y-88001490D01*
X156060772Y-88048445D01*
X156041995Y-88093778D01*
X156018864Y-88137051D01*
X155991604Y-88177850D01*
X155960476Y-88215779D01*
X155925779Y-88250476D01*
X155887850Y-88281604D01*
X155847051Y-88308864D01*
X155803778Y-88331995D01*
X155758445Y-88350772D01*
X155711490Y-88365016D01*
X155663365Y-88374588D01*
X155614534Y-88379398D01*
X155590000Y-88379398D01*
X155590000Y-88380000D01*
X155090000Y-88380000D01*
X155090000Y-86880000D01*
X155590000Y-86880000D01*
X155590000Y-86880602D01*
G37*
G04 #@! TD.AperFunction*
G04 #@! TA.AperFunction,SMDPad,CuDef*
G36*
X154790000Y-93460000D02*
G01*
X154290000Y-93460000D01*
X154290000Y-93459398D01*
X154265466Y-93459398D01*
X154216635Y-93454588D01*
X154168510Y-93445016D01*
X154121555Y-93430772D01*
X154076222Y-93411995D01*
X154032949Y-93388864D01*
X153992150Y-93361604D01*
X153954221Y-93330476D01*
X153919524Y-93295779D01*
X153888396Y-93257850D01*
X153861136Y-93217051D01*
X153838005Y-93173778D01*
X153819228Y-93128445D01*
X153804984Y-93081490D01*
X153795412Y-93033365D01*
X153790602Y-92984534D01*
X153790602Y-92960000D01*
X153790000Y-92960000D01*
X153790000Y-92460000D01*
X153790602Y-92460000D01*
X153790602Y-92435466D01*
X153795412Y-92386635D01*
X153804984Y-92338510D01*
X153819228Y-92291555D01*
X153838005Y-92246222D01*
X153861136Y-92202949D01*
X153888396Y-92162150D01*
X153919524Y-92124221D01*
X153954221Y-92089524D01*
X153992150Y-92058396D01*
X154032949Y-92031136D01*
X154076222Y-92008005D01*
X154121555Y-91989228D01*
X154168510Y-91974984D01*
X154216635Y-91965412D01*
X154265466Y-91960602D01*
X154290000Y-91960602D01*
X154290000Y-91960000D01*
X154790000Y-91960000D01*
X154790000Y-93460000D01*
G37*
G04 #@! TD.AperFunction*
G04 #@! TA.AperFunction,SMDPad,CuDef*
G36*
X155590000Y-91960602D02*
G01*
X155614534Y-91960602D01*
X155663365Y-91965412D01*
X155711490Y-91974984D01*
X155758445Y-91989228D01*
X155803778Y-92008005D01*
X155847051Y-92031136D01*
X155887850Y-92058396D01*
X155925779Y-92089524D01*
X155960476Y-92124221D01*
X155991604Y-92162150D01*
X156018864Y-92202949D01*
X156041995Y-92246222D01*
X156060772Y-92291555D01*
X156075016Y-92338510D01*
X156084588Y-92386635D01*
X156089398Y-92435466D01*
X156089398Y-92460000D01*
X156090000Y-92460000D01*
X156090000Y-92960000D01*
X156089398Y-92960000D01*
X156089398Y-92984534D01*
X156084588Y-93033365D01*
X156075016Y-93081490D01*
X156060772Y-93128445D01*
X156041995Y-93173778D01*
X156018864Y-93217051D01*
X155991604Y-93257850D01*
X155960476Y-93295779D01*
X155925779Y-93330476D01*
X155887850Y-93361604D01*
X155847051Y-93388864D01*
X155803778Y-93411995D01*
X155758445Y-93430772D01*
X155711490Y-93445016D01*
X155663365Y-93454588D01*
X155614534Y-93459398D01*
X155590000Y-93459398D01*
X155590000Y-93460000D01*
X155090000Y-93460000D01*
X155090000Y-91960000D01*
X155590000Y-91960000D01*
X155590000Y-91960602D01*
G37*
G04 #@! TD.AperFunction*
G04 #@! TA.AperFunction,SMDPad,CuDef*
G36*
X154790000Y-106160000D02*
G01*
X154290000Y-106160000D01*
X154290000Y-106159398D01*
X154265466Y-106159398D01*
X154216635Y-106154588D01*
X154168510Y-106145016D01*
X154121555Y-106130772D01*
X154076222Y-106111995D01*
X154032949Y-106088864D01*
X153992150Y-106061604D01*
X153954221Y-106030476D01*
X153919524Y-105995779D01*
X153888396Y-105957850D01*
X153861136Y-105917051D01*
X153838005Y-105873778D01*
X153819228Y-105828445D01*
X153804984Y-105781490D01*
X153795412Y-105733365D01*
X153790602Y-105684534D01*
X153790602Y-105660000D01*
X153790000Y-105660000D01*
X153790000Y-105160000D01*
X153790602Y-105160000D01*
X153790602Y-105135466D01*
X153795412Y-105086635D01*
X153804984Y-105038510D01*
X153819228Y-104991555D01*
X153838005Y-104946222D01*
X153861136Y-104902949D01*
X153888396Y-104862150D01*
X153919524Y-104824221D01*
X153954221Y-104789524D01*
X153992150Y-104758396D01*
X154032949Y-104731136D01*
X154076222Y-104708005D01*
X154121555Y-104689228D01*
X154168510Y-104674984D01*
X154216635Y-104665412D01*
X154265466Y-104660602D01*
X154290000Y-104660602D01*
X154290000Y-104660000D01*
X154790000Y-104660000D01*
X154790000Y-106160000D01*
G37*
G04 #@! TD.AperFunction*
G04 #@! TA.AperFunction,SMDPad,CuDef*
G36*
X155590000Y-104660602D02*
G01*
X155614534Y-104660602D01*
X155663365Y-104665412D01*
X155711490Y-104674984D01*
X155758445Y-104689228D01*
X155803778Y-104708005D01*
X155847051Y-104731136D01*
X155887850Y-104758396D01*
X155925779Y-104789524D01*
X155960476Y-104824221D01*
X155991604Y-104862150D01*
X156018864Y-104902949D01*
X156041995Y-104946222D01*
X156060772Y-104991555D01*
X156075016Y-105038510D01*
X156084588Y-105086635D01*
X156089398Y-105135466D01*
X156089398Y-105160000D01*
X156090000Y-105160000D01*
X156090000Y-105660000D01*
X156089398Y-105660000D01*
X156089398Y-105684534D01*
X156084588Y-105733365D01*
X156075016Y-105781490D01*
X156060772Y-105828445D01*
X156041995Y-105873778D01*
X156018864Y-105917051D01*
X155991604Y-105957850D01*
X155960476Y-105995779D01*
X155925779Y-106030476D01*
X155887850Y-106061604D01*
X155847051Y-106088864D01*
X155803778Y-106111995D01*
X155758445Y-106130772D01*
X155711490Y-106145016D01*
X155663365Y-106154588D01*
X155614534Y-106159398D01*
X155590000Y-106159398D01*
X155590000Y-106160000D01*
X155090000Y-106160000D01*
X155090000Y-104660000D01*
X155590000Y-104660000D01*
X155590000Y-104660602D01*
G37*
G04 #@! TD.AperFunction*
G04 #@! TA.AperFunction,SMDPad,CuDef*
G36*
X154790000Y-111240000D02*
G01*
X154290000Y-111240000D01*
X154290000Y-111239398D01*
X154265466Y-111239398D01*
X154216635Y-111234588D01*
X154168510Y-111225016D01*
X154121555Y-111210772D01*
X154076222Y-111191995D01*
X154032949Y-111168864D01*
X153992150Y-111141604D01*
X153954221Y-111110476D01*
X153919524Y-111075779D01*
X153888396Y-111037850D01*
X153861136Y-110997051D01*
X153838005Y-110953778D01*
X153819228Y-110908445D01*
X153804984Y-110861490D01*
X153795412Y-110813365D01*
X153790602Y-110764534D01*
X153790602Y-110740000D01*
X153790000Y-110740000D01*
X153790000Y-110240000D01*
X153790602Y-110240000D01*
X153790602Y-110215466D01*
X153795412Y-110166635D01*
X153804984Y-110118510D01*
X153819228Y-110071555D01*
X153838005Y-110026222D01*
X153861136Y-109982949D01*
X153888396Y-109942150D01*
X153919524Y-109904221D01*
X153954221Y-109869524D01*
X153992150Y-109838396D01*
X154032949Y-109811136D01*
X154076222Y-109788005D01*
X154121555Y-109769228D01*
X154168510Y-109754984D01*
X154216635Y-109745412D01*
X154265466Y-109740602D01*
X154290000Y-109740602D01*
X154290000Y-109740000D01*
X154790000Y-109740000D01*
X154790000Y-111240000D01*
G37*
G04 #@! TD.AperFunction*
G04 #@! TA.AperFunction,SMDPad,CuDef*
G36*
X155590000Y-109740602D02*
G01*
X155614534Y-109740602D01*
X155663365Y-109745412D01*
X155711490Y-109754984D01*
X155758445Y-109769228D01*
X155803778Y-109788005D01*
X155847051Y-109811136D01*
X155887850Y-109838396D01*
X155925779Y-109869524D01*
X155960476Y-109904221D01*
X155991604Y-109942150D01*
X156018864Y-109982949D01*
X156041995Y-110026222D01*
X156060772Y-110071555D01*
X156075016Y-110118510D01*
X156084588Y-110166635D01*
X156089398Y-110215466D01*
X156089398Y-110240000D01*
X156090000Y-110240000D01*
X156090000Y-110740000D01*
X156089398Y-110740000D01*
X156089398Y-110764534D01*
X156084588Y-110813365D01*
X156075016Y-110861490D01*
X156060772Y-110908445D01*
X156041995Y-110953778D01*
X156018864Y-110997051D01*
X155991604Y-111037850D01*
X155960476Y-111075779D01*
X155925779Y-111110476D01*
X155887850Y-111141604D01*
X155847051Y-111168864D01*
X155803778Y-111191995D01*
X155758445Y-111210772D01*
X155711490Y-111225016D01*
X155663365Y-111234588D01*
X155614534Y-111239398D01*
X155590000Y-111239398D01*
X155590000Y-111240000D01*
X155090000Y-111240000D01*
X155090000Y-109740000D01*
X155590000Y-109740000D01*
X155590000Y-109740602D01*
G37*
G04 #@! TD.AperFunction*
G04 #@! TA.AperFunction,SMDPad,CuDef*
G36*
X154790000Y-116320000D02*
G01*
X154290000Y-116320000D01*
X154290000Y-116319398D01*
X154265466Y-116319398D01*
X154216635Y-116314588D01*
X154168510Y-116305016D01*
X154121555Y-116290772D01*
X154076222Y-116271995D01*
X154032949Y-116248864D01*
X153992150Y-116221604D01*
X153954221Y-116190476D01*
X153919524Y-116155779D01*
X153888396Y-116117850D01*
X153861136Y-116077051D01*
X153838005Y-116033778D01*
X153819228Y-115988445D01*
X153804984Y-115941490D01*
X153795412Y-115893365D01*
X153790602Y-115844534D01*
X153790602Y-115820000D01*
X153790000Y-115820000D01*
X153790000Y-115320000D01*
X153790602Y-115320000D01*
X153790602Y-115295466D01*
X153795412Y-115246635D01*
X153804984Y-115198510D01*
X153819228Y-115151555D01*
X153838005Y-115106222D01*
X153861136Y-115062949D01*
X153888396Y-115022150D01*
X153919524Y-114984221D01*
X153954221Y-114949524D01*
X153992150Y-114918396D01*
X154032949Y-114891136D01*
X154076222Y-114868005D01*
X154121555Y-114849228D01*
X154168510Y-114834984D01*
X154216635Y-114825412D01*
X154265466Y-114820602D01*
X154290000Y-114820602D01*
X154290000Y-114820000D01*
X154790000Y-114820000D01*
X154790000Y-116320000D01*
G37*
G04 #@! TD.AperFunction*
G04 #@! TA.AperFunction,SMDPad,CuDef*
G36*
X155590000Y-114820602D02*
G01*
X155614534Y-114820602D01*
X155663365Y-114825412D01*
X155711490Y-114834984D01*
X155758445Y-114849228D01*
X155803778Y-114868005D01*
X155847051Y-114891136D01*
X155887850Y-114918396D01*
X155925779Y-114949524D01*
X155960476Y-114984221D01*
X155991604Y-115022150D01*
X156018864Y-115062949D01*
X156041995Y-115106222D01*
X156060772Y-115151555D01*
X156075016Y-115198510D01*
X156084588Y-115246635D01*
X156089398Y-115295466D01*
X156089398Y-115320000D01*
X156090000Y-115320000D01*
X156090000Y-115820000D01*
X156089398Y-115820000D01*
X156089398Y-115844534D01*
X156084588Y-115893365D01*
X156075016Y-115941490D01*
X156060772Y-115988445D01*
X156041995Y-116033778D01*
X156018864Y-116077051D01*
X155991604Y-116117850D01*
X155960476Y-116155779D01*
X155925779Y-116190476D01*
X155887850Y-116221604D01*
X155847051Y-116248864D01*
X155803778Y-116271995D01*
X155758445Y-116290772D01*
X155711490Y-116305016D01*
X155663365Y-116314588D01*
X155614534Y-116319398D01*
X155590000Y-116319398D01*
X155590000Y-116320000D01*
X155090000Y-116320000D01*
X155090000Y-114820000D01*
X155590000Y-114820000D01*
X155590000Y-114820602D01*
G37*
G04 #@! TD.AperFunction*
G04 #@! TA.AperFunction,SMDPad,CuDef*
G36*
X154790000Y-121400000D02*
G01*
X154290000Y-121400000D01*
X154290000Y-121399398D01*
X154265466Y-121399398D01*
X154216635Y-121394588D01*
X154168510Y-121385016D01*
X154121555Y-121370772D01*
X154076222Y-121351995D01*
X154032949Y-121328864D01*
X153992150Y-121301604D01*
X153954221Y-121270476D01*
X153919524Y-121235779D01*
X153888396Y-121197850D01*
X153861136Y-121157051D01*
X153838005Y-121113778D01*
X153819228Y-121068445D01*
X153804984Y-121021490D01*
X153795412Y-120973365D01*
X153790602Y-120924534D01*
X153790602Y-120900000D01*
X153790000Y-120900000D01*
X153790000Y-120400000D01*
X153790602Y-120400000D01*
X153790602Y-120375466D01*
X153795412Y-120326635D01*
X153804984Y-120278510D01*
X153819228Y-120231555D01*
X153838005Y-120186222D01*
X153861136Y-120142949D01*
X153888396Y-120102150D01*
X153919524Y-120064221D01*
X153954221Y-120029524D01*
X153992150Y-119998396D01*
X154032949Y-119971136D01*
X154076222Y-119948005D01*
X154121555Y-119929228D01*
X154168510Y-119914984D01*
X154216635Y-119905412D01*
X154265466Y-119900602D01*
X154290000Y-119900602D01*
X154290000Y-119900000D01*
X154790000Y-119900000D01*
X154790000Y-121400000D01*
G37*
G04 #@! TD.AperFunction*
G04 #@! TA.AperFunction,SMDPad,CuDef*
G36*
X155590000Y-119900602D02*
G01*
X155614534Y-119900602D01*
X155663365Y-119905412D01*
X155711490Y-119914984D01*
X155758445Y-119929228D01*
X155803778Y-119948005D01*
X155847051Y-119971136D01*
X155887850Y-119998396D01*
X155925779Y-120029524D01*
X155960476Y-120064221D01*
X155991604Y-120102150D01*
X156018864Y-120142949D01*
X156041995Y-120186222D01*
X156060772Y-120231555D01*
X156075016Y-120278510D01*
X156084588Y-120326635D01*
X156089398Y-120375466D01*
X156089398Y-120400000D01*
X156090000Y-120400000D01*
X156090000Y-120900000D01*
X156089398Y-120900000D01*
X156089398Y-120924534D01*
X156084588Y-120973365D01*
X156075016Y-121021490D01*
X156060772Y-121068445D01*
X156041995Y-121113778D01*
X156018864Y-121157051D01*
X155991604Y-121197850D01*
X155960476Y-121235779D01*
X155925779Y-121270476D01*
X155887850Y-121301604D01*
X155847051Y-121328864D01*
X155803778Y-121351995D01*
X155758445Y-121370772D01*
X155711490Y-121385016D01*
X155663365Y-121394588D01*
X155614534Y-121399398D01*
X155590000Y-121399398D01*
X155590000Y-121400000D01*
X155090000Y-121400000D01*
X155090000Y-119900000D01*
X155590000Y-119900000D01*
X155590000Y-119900602D01*
G37*
G04 #@! TD.AperFunction*
G04 #@! TA.AperFunction,SMDPad,CuDef*
G36*
X154790000Y-98540000D02*
G01*
X154290000Y-98540000D01*
X154290000Y-98539398D01*
X154265466Y-98539398D01*
X154216635Y-98534588D01*
X154168510Y-98525016D01*
X154121555Y-98510772D01*
X154076222Y-98491995D01*
X154032949Y-98468864D01*
X153992150Y-98441604D01*
X153954221Y-98410476D01*
X153919524Y-98375779D01*
X153888396Y-98337850D01*
X153861136Y-98297051D01*
X153838005Y-98253778D01*
X153819228Y-98208445D01*
X153804984Y-98161490D01*
X153795412Y-98113365D01*
X153790602Y-98064534D01*
X153790602Y-98040000D01*
X153790000Y-98040000D01*
X153790000Y-97540000D01*
X153790602Y-97540000D01*
X153790602Y-97515466D01*
X153795412Y-97466635D01*
X153804984Y-97418510D01*
X153819228Y-97371555D01*
X153838005Y-97326222D01*
X153861136Y-97282949D01*
X153888396Y-97242150D01*
X153919524Y-97204221D01*
X153954221Y-97169524D01*
X153992150Y-97138396D01*
X154032949Y-97111136D01*
X154076222Y-97088005D01*
X154121555Y-97069228D01*
X154168510Y-97054984D01*
X154216635Y-97045412D01*
X154265466Y-97040602D01*
X154290000Y-97040602D01*
X154290000Y-97040000D01*
X154790000Y-97040000D01*
X154790000Y-98540000D01*
G37*
G04 #@! TD.AperFunction*
G04 #@! TA.AperFunction,SMDPad,CuDef*
G36*
X155590000Y-97040602D02*
G01*
X155614534Y-97040602D01*
X155663365Y-97045412D01*
X155711490Y-97054984D01*
X155758445Y-97069228D01*
X155803778Y-97088005D01*
X155847051Y-97111136D01*
X155887850Y-97138396D01*
X155925779Y-97169524D01*
X155960476Y-97204221D01*
X155991604Y-97242150D01*
X156018864Y-97282949D01*
X156041995Y-97326222D01*
X156060772Y-97371555D01*
X156075016Y-97418510D01*
X156084588Y-97466635D01*
X156089398Y-97515466D01*
X156089398Y-97540000D01*
X156090000Y-97540000D01*
X156090000Y-98040000D01*
X156089398Y-98040000D01*
X156089398Y-98064534D01*
X156084588Y-98113365D01*
X156075016Y-98161490D01*
X156060772Y-98208445D01*
X156041995Y-98253778D01*
X156018864Y-98297051D01*
X155991604Y-98337850D01*
X155960476Y-98375779D01*
X155925779Y-98410476D01*
X155887850Y-98441604D01*
X155847051Y-98468864D01*
X155803778Y-98491995D01*
X155758445Y-98510772D01*
X155711490Y-98525016D01*
X155663365Y-98534588D01*
X155614534Y-98539398D01*
X155590000Y-98539398D01*
X155590000Y-98540000D01*
X155090000Y-98540000D01*
X155090000Y-97040000D01*
X155590000Y-97040000D01*
X155590000Y-97040602D01*
G37*
G04 #@! TD.AperFunction*
D11*
X142200000Y-100330000D03*
X157800000Y-100330000D03*
D12*
X142000000Y-97780000D03*
X142000000Y-95240000D03*
X142000000Y-92700000D03*
X142000000Y-90160000D03*
X142000000Y-87620000D03*
X142000000Y-85080000D03*
X142000000Y-82540000D03*
X142000000Y-80000000D03*
X142000000Y-120780000D03*
X142000000Y-118240000D03*
X142000000Y-115700000D03*
X142000000Y-113160000D03*
X142000000Y-110620000D03*
X142000000Y-108080000D03*
X142000000Y-105540000D03*
X142000000Y-103000000D03*
X158000000Y-120650000D03*
X158000000Y-118110000D03*
X158000000Y-115570000D03*
X158000000Y-113030000D03*
X158000000Y-110490000D03*
X158000000Y-107950000D03*
X158000000Y-105410000D03*
X158000000Y-102870000D03*
X158000000Y-97780000D03*
X158000000Y-95240000D03*
X158000000Y-92700000D03*
X158000000Y-90160000D03*
X158000000Y-87620000D03*
X158000000Y-85080000D03*
X158000000Y-82540000D03*
X158000000Y-80000000D03*
D13*
X150000000Y-117500000D03*
X150000000Y-82500000D03*
X150000000Y-100000000D03*
D14*
X150000000Y-75000000D03*
X150000000Y-125000000D03*
X148082000Y-112268000D03*
X150000000Y-94000000D03*
X152146000Y-87500000D03*
X150000000Y-105800000D03*
D15*
X144350000Y-80000000D02*
X142000000Y-80000000D01*
X157990000Y-82550000D02*
X158000000Y-82540000D01*
X155590000Y-82550000D02*
X157990000Y-82550000D01*
X142010000Y-85090000D02*
X142000000Y-85080000D01*
X144130000Y-85090000D02*
X142010000Y-85090000D01*
X157990000Y-87630000D02*
X158000000Y-87620000D01*
X155590000Y-87630000D02*
X157990000Y-87630000D01*
X142010000Y-90170000D02*
X142000000Y-90160000D01*
X144130000Y-90170000D02*
X142010000Y-90170000D01*
X157990000Y-92710000D02*
X158000000Y-92700000D01*
X155590000Y-92710000D02*
X157990000Y-92710000D01*
X142010000Y-95250000D02*
X142000000Y-95240000D01*
X144130000Y-95250000D02*
X142010000Y-95250000D01*
X157990000Y-97790000D02*
X158000000Y-97780000D01*
X155590000Y-97790000D02*
X157990000Y-97790000D01*
X157870000Y-120650000D02*
X158000000Y-120780000D01*
X155590000Y-120650000D02*
X157870000Y-120650000D01*
X142130000Y-118110000D02*
X142000000Y-118240000D01*
X144130000Y-118110000D02*
X142130000Y-118110000D01*
X157870000Y-115570000D02*
X158000000Y-115700000D01*
X155590000Y-115570000D02*
X157870000Y-115570000D01*
X142130000Y-113030000D02*
X142000000Y-113160000D01*
X144130000Y-113030000D02*
X142130000Y-113030000D01*
X157870000Y-110490000D02*
X158000000Y-110620000D01*
X155590000Y-110490000D02*
X157870000Y-110490000D01*
X142130000Y-107950000D02*
X142000000Y-108080000D01*
X144130000Y-107950000D02*
X142130000Y-107950000D01*
X157870000Y-105410000D02*
X158000000Y-105540000D01*
X155590000Y-105410000D02*
X157870000Y-105410000D01*
X144130000Y-103000000D02*
X142000000Y-103000000D01*
X149890000Y-118110000D02*
X150000000Y-118000000D01*
X145430000Y-118110000D02*
X149890000Y-118110000D01*
X145430000Y-117362408D02*
X145430000Y-113030000D01*
X145430000Y-118110000D02*
X145430000Y-117362408D01*
X145430000Y-112282408D02*
X145430000Y-107950000D01*
X145430000Y-113030000D02*
X145430000Y-112282408D01*
X145430000Y-107950000D02*
X145430000Y-103000000D01*
X145430000Y-95997592D02*
X145430000Y-103000000D01*
X145430000Y-95250000D02*
X145430000Y-95997592D01*
X145430000Y-90917592D02*
X145430000Y-95250000D01*
X145430000Y-90170000D02*
X145430000Y-90917592D01*
X145430000Y-85837592D02*
X145430000Y-90170000D01*
X145430000Y-85090000D02*
X145430000Y-85837592D01*
X145430000Y-85090000D02*
X145430000Y-80000000D01*
X154290000Y-119902408D02*
X154290000Y-115570000D01*
X154290000Y-120650000D02*
X154290000Y-119902408D01*
X154290000Y-111237592D02*
X154290000Y-115570000D01*
X154290000Y-110490000D02*
X154290000Y-111237592D01*
X154290000Y-106157592D02*
X154290000Y-110490000D01*
X154290000Y-105410000D02*
X154290000Y-106157592D01*
X154290000Y-97790000D02*
X154290000Y-105410000D01*
X154290000Y-92710000D02*
X154290000Y-97790000D01*
X154290000Y-88377592D02*
X154290000Y-92710000D01*
X154290000Y-87630000D02*
X154290000Y-88377592D01*
X154290000Y-83297592D02*
X154290000Y-87630000D01*
X154290000Y-82550000D02*
X154290000Y-83297592D01*
X150450000Y-82550000D02*
X150000000Y-83000000D01*
X154290000Y-82550000D02*
X150450000Y-82550000D01*
X150000000Y-94000000D02*
X150000000Y-89646000D01*
X150000000Y-89646000D02*
X152146000Y-87500000D01*
X150000000Y-110350000D02*
X150000000Y-105800000D01*
X148082000Y-112268000D02*
X150000000Y-110350000D01*
D16*
G36*
X158635001Y-75151189D02*
G01*
X158635001Y-79173497D01*
X158492625Y-79078364D01*
X158303357Y-78999967D01*
X158102431Y-78960000D01*
X157897569Y-78960000D01*
X157696643Y-78999967D01*
X157507375Y-79078364D01*
X157337039Y-79192179D01*
X157192179Y-79337039D01*
X157078364Y-79507375D01*
X156999967Y-79696643D01*
X156960000Y-79897569D01*
X156960000Y-80102431D01*
X156999967Y-80303357D01*
X157078364Y-80492625D01*
X157192179Y-80662961D01*
X157337039Y-80807821D01*
X157507375Y-80921636D01*
X157696643Y-81000033D01*
X157897569Y-81040000D01*
X158102431Y-81040000D01*
X158303357Y-81000033D01*
X158492625Y-80921636D01*
X158635001Y-80826503D01*
X158635001Y-81713497D01*
X158492625Y-81618364D01*
X158303357Y-81539967D01*
X158102431Y-81500000D01*
X157897569Y-81500000D01*
X157696643Y-81539967D01*
X157507375Y-81618364D01*
X157337039Y-81732179D01*
X157192179Y-81877039D01*
X157086633Y-82035000D01*
X156387410Y-82035000D01*
X156384109Y-82024118D01*
X156346600Y-81933562D01*
X156315028Y-81874494D01*
X156260572Y-81792995D01*
X156218084Y-81741224D01*
X156148776Y-81671916D01*
X156097005Y-81629428D01*
X156015506Y-81574972D01*
X155956438Y-81543400D01*
X155865882Y-81505891D01*
X155801793Y-81486450D01*
X155705660Y-81467328D01*
X155639009Y-81460763D01*
X155614448Y-81460763D01*
X155590000Y-81458355D01*
X155090000Y-81458355D01*
X155023348Y-81464920D01*
X154959258Y-81484361D01*
X154940000Y-81494655D01*
X154920742Y-81484361D01*
X154856652Y-81464920D01*
X154790000Y-81458355D01*
X154290000Y-81458355D01*
X154265552Y-81460763D01*
X154240991Y-81460763D01*
X154174340Y-81467328D01*
X154078207Y-81486450D01*
X154014118Y-81505891D01*
X153923562Y-81543400D01*
X153864494Y-81574972D01*
X153782995Y-81629428D01*
X153731224Y-81671916D01*
X153661916Y-81741224D01*
X153619428Y-81792995D01*
X153564972Y-81874494D01*
X153533400Y-81933562D01*
X153495891Y-82024118D01*
X153492590Y-82035000D01*
X152293349Y-82035000D01*
X152250075Y-81817447D01*
X152073681Y-81391594D01*
X151817596Y-81008337D01*
X151491663Y-80682404D01*
X151108406Y-80426319D01*
X150682553Y-80249925D01*
X150230470Y-80160000D01*
X149769530Y-80160000D01*
X149317447Y-80249925D01*
X148891594Y-80426319D01*
X148508337Y-80682404D01*
X148182404Y-81008337D01*
X147926319Y-81391594D01*
X147749925Y-81817447D01*
X147660000Y-82269530D01*
X147660000Y-82730470D01*
X147749925Y-83182553D01*
X147926319Y-83608406D01*
X148182404Y-83991663D01*
X148508337Y-84317596D01*
X148891594Y-84573681D01*
X149317447Y-84750075D01*
X149769530Y-84840000D01*
X150230470Y-84840000D01*
X150682553Y-84750075D01*
X151108406Y-84573681D01*
X151491663Y-84317596D01*
X151817596Y-83991663D01*
X152073681Y-83608406D01*
X152250075Y-83182553D01*
X152273458Y-83065000D01*
X153492590Y-83065000D01*
X153495891Y-83075882D01*
X153533400Y-83166438D01*
X153564972Y-83225506D01*
X153619428Y-83307005D01*
X153661916Y-83358776D01*
X153731224Y-83428084D01*
X153775000Y-83464011D01*
X153775001Y-86715989D01*
X153731224Y-86751916D01*
X153661916Y-86821224D01*
X153619428Y-86872995D01*
X153564972Y-86954494D01*
X153533400Y-87013562D01*
X153495891Y-87104118D01*
X153476450Y-87168207D01*
X153457328Y-87264340D01*
X153450763Y-87330991D01*
X153450763Y-87355552D01*
X153448355Y-87380000D01*
X153448355Y-87880000D01*
X153450763Y-87904448D01*
X153450763Y-87929009D01*
X153457328Y-87995660D01*
X153476450Y-88091793D01*
X153495891Y-88155882D01*
X153533400Y-88246438D01*
X153564972Y-88305506D01*
X153619428Y-88387005D01*
X153661916Y-88438776D01*
X153731224Y-88508084D01*
X153775000Y-88544011D01*
X153775001Y-91795989D01*
X153731224Y-91831916D01*
X153661916Y-91901224D01*
X153619428Y-91952995D01*
X153564972Y-92034494D01*
X153533400Y-92093562D01*
X153495891Y-92184118D01*
X153476450Y-92248207D01*
X153457328Y-92344340D01*
X153450763Y-92410991D01*
X153450763Y-92435552D01*
X153448355Y-92460000D01*
X153448355Y-92960000D01*
X153450763Y-92984448D01*
X153450763Y-93009009D01*
X153457328Y-93075660D01*
X153476450Y-93171793D01*
X153495891Y-93235882D01*
X153533400Y-93326438D01*
X153564972Y-93385506D01*
X153619428Y-93467005D01*
X153661916Y-93518776D01*
X153731224Y-93588084D01*
X153775000Y-93624011D01*
X153775001Y-96875989D01*
X153731224Y-96911916D01*
X153661916Y-96981224D01*
X153619428Y-97032995D01*
X153564972Y-97114494D01*
X153533400Y-97173562D01*
X153495891Y-97264118D01*
X153476450Y-97328207D01*
X153457328Y-97424340D01*
X153450763Y-97490991D01*
X153450763Y-97515552D01*
X153448355Y-97540000D01*
X153448355Y-98040000D01*
X153450763Y-98064448D01*
X153450763Y-98089009D01*
X153457328Y-98155660D01*
X153476450Y-98251793D01*
X153495891Y-98315882D01*
X153533400Y-98406438D01*
X153564972Y-98465506D01*
X153619428Y-98547005D01*
X153661916Y-98598776D01*
X153731224Y-98668084D01*
X153775000Y-98704011D01*
X153775001Y-104495989D01*
X153731224Y-104531916D01*
X153661916Y-104601224D01*
X153619428Y-104652995D01*
X153564972Y-104734494D01*
X153533400Y-104793562D01*
X153495891Y-104884118D01*
X153476450Y-104948207D01*
X153457328Y-105044340D01*
X153450763Y-105110991D01*
X153450763Y-105135552D01*
X153448355Y-105160000D01*
X153448355Y-105660000D01*
X153450763Y-105684448D01*
X153450763Y-105709009D01*
X153457328Y-105775660D01*
X153476450Y-105871793D01*
X153495891Y-105935882D01*
X153533400Y-106026438D01*
X153564972Y-106085506D01*
X153619428Y-106167005D01*
X153661916Y-106218776D01*
X153731224Y-106288084D01*
X153775000Y-106324011D01*
X153775001Y-109575989D01*
X153731224Y-109611916D01*
X153661916Y-109681224D01*
X153619428Y-109732995D01*
X153564972Y-109814494D01*
X153533400Y-109873562D01*
X153495891Y-109964118D01*
X153476450Y-110028207D01*
X153457328Y-110124340D01*
X153450763Y-110190991D01*
X153450763Y-110215552D01*
X153448355Y-110240000D01*
X153448355Y-110740000D01*
X153450763Y-110764448D01*
X153450763Y-110789009D01*
X153457328Y-110855660D01*
X153476450Y-110951793D01*
X153495891Y-111015882D01*
X153533400Y-111106438D01*
X153564972Y-111165506D01*
X153619428Y-111247005D01*
X153661916Y-111298776D01*
X153731224Y-111368084D01*
X153775000Y-111404011D01*
X153775001Y-114655989D01*
X153731224Y-114691916D01*
X153661916Y-114761224D01*
X153619428Y-114812995D01*
X153564972Y-114894494D01*
X153533400Y-114953562D01*
X153495891Y-115044118D01*
X153476450Y-115108207D01*
X153457328Y-115204340D01*
X153450763Y-115270991D01*
X153450763Y-115295552D01*
X153448355Y-115320000D01*
X153448355Y-115820000D01*
X153450763Y-115844448D01*
X153450763Y-115869009D01*
X153457328Y-115935660D01*
X153476450Y-116031793D01*
X153495891Y-116095882D01*
X153533400Y-116186438D01*
X153564972Y-116245506D01*
X153619428Y-116327005D01*
X153661916Y-116378776D01*
X153731224Y-116448084D01*
X153775001Y-116484011D01*
X153775000Y-119735989D01*
X153731224Y-119771916D01*
X153661916Y-119841224D01*
X153619428Y-119892995D01*
X153564972Y-119974494D01*
X153533400Y-120033562D01*
X153495891Y-120124118D01*
X153476450Y-120188207D01*
X153457328Y-120284340D01*
X153450763Y-120350991D01*
X153450763Y-120375552D01*
X153448355Y-120400000D01*
X153448355Y-120900000D01*
X153450763Y-120924448D01*
X153450763Y-120949009D01*
X153457328Y-121015660D01*
X153476450Y-121111793D01*
X153495891Y-121175882D01*
X153533400Y-121266438D01*
X153564972Y-121325506D01*
X153619428Y-121407005D01*
X153661916Y-121458776D01*
X153731224Y-121528084D01*
X153782995Y-121570572D01*
X153864494Y-121625028D01*
X153923562Y-121656600D01*
X154014118Y-121694109D01*
X154078207Y-121713550D01*
X154174340Y-121732672D01*
X154240991Y-121739237D01*
X154265552Y-121739237D01*
X154290000Y-121741645D01*
X154790000Y-121741645D01*
X154856652Y-121735080D01*
X154920742Y-121715639D01*
X154940000Y-121705345D01*
X154959258Y-121715639D01*
X155023348Y-121735080D01*
X155090000Y-121741645D01*
X155590000Y-121741645D01*
X155614448Y-121739237D01*
X155639009Y-121739237D01*
X155705660Y-121732672D01*
X155801793Y-121713550D01*
X155865882Y-121694109D01*
X155956438Y-121656600D01*
X156015506Y-121625028D01*
X156097005Y-121570572D01*
X156148776Y-121528084D01*
X156218084Y-121458776D01*
X156260572Y-121407005D01*
X156315028Y-121325506D01*
X156346600Y-121266438D01*
X156384109Y-121175882D01*
X156387410Y-121165000D01*
X157093315Y-121165000D01*
X157192179Y-121312961D01*
X157337039Y-121457821D01*
X157507375Y-121571636D01*
X157696643Y-121650033D01*
X157897569Y-121690000D01*
X158102431Y-121690000D01*
X158303357Y-121650033D01*
X158492625Y-121571636D01*
X158635000Y-121476504D01*
X158635000Y-124848812D01*
X156848813Y-126635000D01*
X143151188Y-126635000D01*
X141365000Y-124848813D01*
X141365000Y-124363097D01*
X142110000Y-124363097D01*
X142110000Y-124636903D01*
X142163417Y-124905448D01*
X142268198Y-125158412D01*
X142420316Y-125386074D01*
X142613926Y-125579684D01*
X142841588Y-125731802D01*
X143094552Y-125836583D01*
X143363097Y-125890000D01*
X143636903Y-125890000D01*
X143905448Y-125836583D01*
X144158412Y-125731802D01*
X144386074Y-125579684D01*
X144579684Y-125386074D01*
X144731802Y-125158412D01*
X144836583Y-124905448D01*
X144890000Y-124636903D01*
X144890000Y-124363097D01*
X155110000Y-124363097D01*
X155110000Y-124636903D01*
X155163417Y-124905448D01*
X155268198Y-125158412D01*
X155420316Y-125386074D01*
X155613926Y-125579684D01*
X155841588Y-125731802D01*
X156094552Y-125836583D01*
X156363097Y-125890000D01*
X156636903Y-125890000D01*
X156905448Y-125836583D01*
X157158412Y-125731802D01*
X157386074Y-125579684D01*
X157579684Y-125386074D01*
X157731802Y-125158412D01*
X157836583Y-124905448D01*
X157890000Y-124636903D01*
X157890000Y-124363097D01*
X157836583Y-124094552D01*
X157731802Y-123841588D01*
X157579684Y-123613926D01*
X157386074Y-123420316D01*
X157158412Y-123268198D01*
X156905448Y-123163417D01*
X156636903Y-123110000D01*
X156363097Y-123110000D01*
X156094552Y-123163417D01*
X155841588Y-123268198D01*
X155613926Y-123420316D01*
X155420316Y-123613926D01*
X155268198Y-123841588D01*
X155163417Y-124094552D01*
X155110000Y-124363097D01*
X144890000Y-124363097D01*
X144836583Y-124094552D01*
X144731802Y-123841588D01*
X144579684Y-123613926D01*
X144386074Y-123420316D01*
X144158412Y-123268198D01*
X143905448Y-123163417D01*
X143636903Y-123110000D01*
X143363097Y-123110000D01*
X143094552Y-123163417D01*
X142841588Y-123268198D01*
X142613926Y-123420316D01*
X142420316Y-123613926D01*
X142268198Y-123841588D01*
X142163417Y-124094552D01*
X142110000Y-124363097D01*
X141365000Y-124363097D01*
X141365000Y-121606504D01*
X141507375Y-121701636D01*
X141696643Y-121780033D01*
X141897569Y-121820000D01*
X142102431Y-121820000D01*
X142303357Y-121780033D01*
X142492625Y-121701636D01*
X142662961Y-121587821D01*
X142807821Y-121442961D01*
X142921636Y-121272625D01*
X143000033Y-121083357D01*
X143040000Y-120882431D01*
X143040000Y-120677569D01*
X143000033Y-120476643D01*
X142921636Y-120287375D01*
X142807821Y-120117039D01*
X142662961Y-119972179D01*
X142492625Y-119858364D01*
X142303357Y-119779967D01*
X142102431Y-119740000D01*
X141897569Y-119740000D01*
X141696643Y-119779967D01*
X141507375Y-119858364D01*
X141365000Y-119953496D01*
X141365000Y-119066504D01*
X141507375Y-119161636D01*
X141696643Y-119240033D01*
X141897569Y-119280000D01*
X142102431Y-119280000D01*
X142303357Y-119240033D01*
X142492625Y-119161636D01*
X142662961Y-119047821D01*
X142807821Y-118902961D01*
X142921636Y-118732625D01*
X142966216Y-118625000D01*
X143332590Y-118625000D01*
X143335891Y-118635882D01*
X143373400Y-118726438D01*
X143404972Y-118785506D01*
X143459428Y-118867005D01*
X143501916Y-118918776D01*
X143571224Y-118988084D01*
X143622995Y-119030572D01*
X143704494Y-119085028D01*
X143763562Y-119116600D01*
X143854118Y-119154109D01*
X143918207Y-119173550D01*
X144014340Y-119192672D01*
X144080991Y-119199237D01*
X144105552Y-119199237D01*
X144130000Y-119201645D01*
X144630000Y-119201645D01*
X144696652Y-119195080D01*
X144760742Y-119175639D01*
X144780000Y-119165345D01*
X144799258Y-119175639D01*
X144863348Y-119195080D01*
X144930000Y-119201645D01*
X145430000Y-119201645D01*
X145454448Y-119199237D01*
X145479009Y-119199237D01*
X145545660Y-119192672D01*
X145641793Y-119173550D01*
X145705882Y-119154109D01*
X145796438Y-119116600D01*
X145855506Y-119085028D01*
X145937005Y-119030572D01*
X145988776Y-118988084D01*
X146058084Y-118918776D01*
X146100572Y-118867005D01*
X146155028Y-118785506D01*
X146186600Y-118726438D01*
X146224109Y-118635882D01*
X146227410Y-118625000D01*
X147937407Y-118625000D01*
X148182404Y-118991663D01*
X148508337Y-119317596D01*
X148891594Y-119573681D01*
X149317447Y-119750075D01*
X149769530Y-119840000D01*
X150230470Y-119840000D01*
X150682553Y-119750075D01*
X151108406Y-119573681D01*
X151491663Y-119317596D01*
X151817596Y-118991663D01*
X152073681Y-118608406D01*
X152250075Y-118182553D01*
X152340000Y-117730470D01*
X152340000Y-117269530D01*
X152250075Y-116817447D01*
X152073681Y-116391594D01*
X151817596Y-116008337D01*
X151491663Y-115682404D01*
X151108406Y-115426319D01*
X150682553Y-115249925D01*
X150230470Y-115160000D01*
X149769530Y-115160000D01*
X149317447Y-115249925D01*
X148891594Y-115426319D01*
X148508337Y-115682404D01*
X148182404Y-116008337D01*
X147926319Y-116391594D01*
X147749925Y-116817447D01*
X147660000Y-117269530D01*
X147660000Y-117595000D01*
X146227410Y-117595000D01*
X146224109Y-117584118D01*
X146186600Y-117493562D01*
X146155028Y-117434494D01*
X146100572Y-117352995D01*
X146058084Y-117301224D01*
X145988776Y-117231916D01*
X145945000Y-117195989D01*
X145945000Y-113944011D01*
X145988776Y-113908084D01*
X146058084Y-113838776D01*
X146100572Y-113787005D01*
X146155028Y-113705506D01*
X146186600Y-113646438D01*
X146224109Y-113555882D01*
X146243550Y-113491793D01*
X146262672Y-113395660D01*
X146269237Y-113329009D01*
X146269237Y-113304448D01*
X146271645Y-113280000D01*
X146271645Y-112780000D01*
X146269237Y-112755552D01*
X146269237Y-112730991D01*
X146262672Y-112664340D01*
X146243550Y-112568207D01*
X146224109Y-112504118D01*
X146186600Y-112413562D01*
X146155028Y-112354494D01*
X146100572Y-112272995D01*
X146058084Y-112221224D01*
X145988776Y-112151916D01*
X145945000Y-112115989D01*
X145945000Y-108864011D01*
X145988776Y-108828084D01*
X146058084Y-108758776D01*
X146100572Y-108707005D01*
X146155028Y-108625506D01*
X146186600Y-108566438D01*
X146224109Y-108475882D01*
X146243550Y-108411793D01*
X146262672Y-108315660D01*
X146269237Y-108249009D01*
X146269237Y-108224448D01*
X146271645Y-108200000D01*
X146271645Y-107700000D01*
X146269237Y-107675552D01*
X146269237Y-107650991D01*
X146262672Y-107584340D01*
X146243550Y-107488207D01*
X146224109Y-107424118D01*
X146186600Y-107333562D01*
X146155028Y-107274494D01*
X146100572Y-107192995D01*
X146058084Y-107141224D01*
X145988776Y-107071916D01*
X145945000Y-107035989D01*
X145945000Y-103914011D01*
X145988776Y-103878084D01*
X146058084Y-103808776D01*
X146100572Y-103757005D01*
X146155028Y-103675506D01*
X146186600Y-103616438D01*
X146224109Y-103525882D01*
X146243550Y-103461793D01*
X146262672Y-103365660D01*
X146269237Y-103299009D01*
X146269237Y-103274448D01*
X146271645Y-103250000D01*
X146271645Y-102750000D01*
X146269237Y-102725552D01*
X146269237Y-102700991D01*
X146262672Y-102634340D01*
X146243550Y-102538207D01*
X146224109Y-102474118D01*
X146186600Y-102383562D01*
X146155028Y-102324494D01*
X146100572Y-102242995D01*
X146058084Y-102191224D01*
X145988776Y-102121916D01*
X145945000Y-102085989D01*
X145945000Y-101853570D01*
X148392503Y-101853570D01*
X148615646Y-102201426D01*
X149071723Y-102429200D01*
X149563473Y-102563622D01*
X150071998Y-102599525D01*
X150577757Y-102535529D01*
X151061313Y-102374095D01*
X151384354Y-102201426D01*
X151607497Y-101853570D01*
X150000000Y-100246073D01*
X148392503Y-101853570D01*
X145945000Y-101853570D01*
X145945000Y-100071998D01*
X147400475Y-100071998D01*
X147464471Y-100577757D01*
X147625905Y-101061313D01*
X147798574Y-101384354D01*
X148146430Y-101607497D01*
X149753927Y-100000000D01*
X150246073Y-100000000D01*
X151853570Y-101607497D01*
X152201426Y-101384354D01*
X152429200Y-100928277D01*
X152563622Y-100436527D01*
X152599525Y-99928002D01*
X152535529Y-99422243D01*
X152374095Y-98938687D01*
X152201426Y-98615646D01*
X151853570Y-98392503D01*
X150246073Y-100000000D01*
X149753927Y-100000000D01*
X148146430Y-98392503D01*
X147798574Y-98615646D01*
X147570800Y-99071723D01*
X147436378Y-99563473D01*
X147400475Y-100071998D01*
X145945000Y-100071998D01*
X145945000Y-98146430D01*
X148392503Y-98146430D01*
X150000000Y-99753927D01*
X151607497Y-98146430D01*
X151384354Y-97798574D01*
X150928277Y-97570800D01*
X150436527Y-97436378D01*
X149928002Y-97400475D01*
X149422243Y-97464471D01*
X148938687Y-97625905D01*
X148615646Y-97798574D01*
X148392503Y-98146430D01*
X145945000Y-98146430D01*
X145945000Y-96164011D01*
X145988776Y-96128084D01*
X146058084Y-96058776D01*
X146100572Y-96007005D01*
X146155028Y-95925506D01*
X146186600Y-95866438D01*
X146224109Y-95775882D01*
X146243550Y-95711793D01*
X146262672Y-95615660D01*
X146269237Y-95549009D01*
X146269237Y-95524448D01*
X146271645Y-95500000D01*
X146271645Y-95000000D01*
X146269237Y-94975552D01*
X146269237Y-94950991D01*
X146262672Y-94884340D01*
X146243550Y-94788207D01*
X146224109Y-94724118D01*
X146186600Y-94633562D01*
X146155028Y-94574494D01*
X146100572Y-94492995D01*
X146058084Y-94441224D01*
X145988776Y-94371916D01*
X145945000Y-94335989D01*
X145945000Y-91084011D01*
X145988776Y-91048084D01*
X146058084Y-90978776D01*
X146100572Y-90927005D01*
X146155028Y-90845506D01*
X146186600Y-90786438D01*
X146224109Y-90695882D01*
X146243550Y-90631793D01*
X146262672Y-90535660D01*
X146269237Y-90469009D01*
X146269237Y-90444448D01*
X146271645Y-90420000D01*
X146271645Y-89920000D01*
X146269237Y-89895552D01*
X146269237Y-89870991D01*
X146262672Y-89804340D01*
X146243550Y-89708207D01*
X146224109Y-89644118D01*
X146186600Y-89553562D01*
X146155028Y-89494494D01*
X146100572Y-89412995D01*
X146058084Y-89361224D01*
X145988776Y-89291916D01*
X145945000Y-89255989D01*
X145945000Y-86004011D01*
X145988776Y-85968084D01*
X146058084Y-85898776D01*
X146100572Y-85847005D01*
X146155028Y-85765506D01*
X146186600Y-85706438D01*
X146224109Y-85615882D01*
X146243550Y-85551793D01*
X146262672Y-85455660D01*
X146269237Y-85389009D01*
X146269237Y-85364448D01*
X146271645Y-85340000D01*
X146271645Y-84840000D01*
X146269237Y-84815552D01*
X146269237Y-84790991D01*
X146262672Y-84724340D01*
X146243550Y-84628207D01*
X146224109Y-84564118D01*
X146186600Y-84473562D01*
X146155028Y-84414494D01*
X146100572Y-84332995D01*
X146058084Y-84281224D01*
X145988776Y-84211916D01*
X145945000Y-84175989D01*
X145945000Y-80914011D01*
X145988776Y-80878084D01*
X146058084Y-80808776D01*
X146100572Y-80757005D01*
X146155028Y-80675506D01*
X146186600Y-80616438D01*
X146224109Y-80525882D01*
X146243550Y-80461793D01*
X146262672Y-80365660D01*
X146269237Y-80299009D01*
X146269237Y-80274448D01*
X146271645Y-80250000D01*
X146271645Y-79750000D01*
X146269237Y-79725552D01*
X146269237Y-79700991D01*
X146262672Y-79634340D01*
X146243550Y-79538207D01*
X146224109Y-79474118D01*
X146186600Y-79383562D01*
X146155028Y-79324494D01*
X146100572Y-79242995D01*
X146058084Y-79191224D01*
X145988776Y-79121916D01*
X145937005Y-79079428D01*
X145855506Y-79024972D01*
X145796438Y-78993400D01*
X145705882Y-78955891D01*
X145641793Y-78936450D01*
X145545660Y-78917328D01*
X145479009Y-78910763D01*
X145454448Y-78910763D01*
X145430000Y-78908355D01*
X144930000Y-78908355D01*
X144863348Y-78914920D01*
X144799258Y-78934361D01*
X144780000Y-78944655D01*
X144760742Y-78934361D01*
X144696652Y-78914920D01*
X144630000Y-78908355D01*
X144130000Y-78908355D01*
X144105552Y-78910763D01*
X144080991Y-78910763D01*
X144014340Y-78917328D01*
X143918207Y-78936450D01*
X143854118Y-78955891D01*
X143763562Y-78993400D01*
X143704494Y-79024972D01*
X143622995Y-79079428D01*
X143571224Y-79121916D01*
X143501916Y-79191224D01*
X143459428Y-79242995D01*
X143404972Y-79324494D01*
X143373400Y-79383562D01*
X143335891Y-79474118D01*
X143332590Y-79485000D01*
X142906685Y-79485000D01*
X142807821Y-79337039D01*
X142662961Y-79192179D01*
X142492625Y-79078364D01*
X142303357Y-78999967D01*
X142102431Y-78960000D01*
X141897569Y-78960000D01*
X141696643Y-78999967D01*
X141507375Y-79078364D01*
X141365000Y-79173496D01*
X141365000Y-75363097D01*
X142110000Y-75363097D01*
X142110000Y-75636903D01*
X142163417Y-75905448D01*
X142268198Y-76158412D01*
X142420316Y-76386074D01*
X142613926Y-76579684D01*
X142841588Y-76731802D01*
X143094552Y-76836583D01*
X143363097Y-76890000D01*
X143636903Y-76890000D01*
X143905448Y-76836583D01*
X144158412Y-76731802D01*
X144386074Y-76579684D01*
X144579684Y-76386074D01*
X144731802Y-76158412D01*
X144836583Y-75905448D01*
X144890000Y-75636903D01*
X144890000Y-75363097D01*
X155110000Y-75363097D01*
X155110000Y-75636903D01*
X155163417Y-75905448D01*
X155268198Y-76158412D01*
X155420316Y-76386074D01*
X155613926Y-76579684D01*
X155841588Y-76731802D01*
X156094552Y-76836583D01*
X156363097Y-76890000D01*
X156636903Y-76890000D01*
X156905448Y-76836583D01*
X157158412Y-76731802D01*
X157386074Y-76579684D01*
X157579684Y-76386074D01*
X157731802Y-76158412D01*
X157836583Y-75905448D01*
X157890000Y-75636903D01*
X157890000Y-75363097D01*
X157836583Y-75094552D01*
X157731802Y-74841588D01*
X157579684Y-74613926D01*
X157386074Y-74420316D01*
X157158412Y-74268198D01*
X156905448Y-74163417D01*
X156636903Y-74110000D01*
X156363097Y-74110000D01*
X156094552Y-74163417D01*
X155841588Y-74268198D01*
X155613926Y-74420316D01*
X155420316Y-74613926D01*
X155268198Y-74841588D01*
X155163417Y-75094552D01*
X155110000Y-75363097D01*
X144890000Y-75363097D01*
X144836583Y-75094552D01*
X144731802Y-74841588D01*
X144579684Y-74613926D01*
X144386074Y-74420316D01*
X144158412Y-74268198D01*
X143905448Y-74163417D01*
X143636903Y-74110000D01*
X143363097Y-74110000D01*
X143094552Y-74163417D01*
X142841588Y-74268198D01*
X142613926Y-74420316D01*
X142420316Y-74613926D01*
X142268198Y-74841588D01*
X142163417Y-75094552D01*
X142110000Y-75363097D01*
X141365000Y-75363097D01*
X141365000Y-75151187D01*
X143151188Y-73365000D01*
X156848813Y-73365000D01*
X158635001Y-75151189D01*
G37*
X158635001Y-75151189D02*
X158635001Y-79173497D01*
X158492625Y-79078364D01*
X158303357Y-78999967D01*
X158102431Y-78960000D01*
X157897569Y-78960000D01*
X157696643Y-78999967D01*
X157507375Y-79078364D01*
X157337039Y-79192179D01*
X157192179Y-79337039D01*
X157078364Y-79507375D01*
X156999967Y-79696643D01*
X156960000Y-79897569D01*
X156960000Y-80102431D01*
X156999967Y-80303357D01*
X157078364Y-80492625D01*
X157192179Y-80662961D01*
X157337039Y-80807821D01*
X157507375Y-80921636D01*
X157696643Y-81000033D01*
X157897569Y-81040000D01*
X158102431Y-81040000D01*
X158303357Y-81000033D01*
X158492625Y-80921636D01*
X158635001Y-80826503D01*
X158635001Y-81713497D01*
X158492625Y-81618364D01*
X158303357Y-81539967D01*
X158102431Y-81500000D01*
X157897569Y-81500000D01*
X157696643Y-81539967D01*
X157507375Y-81618364D01*
X157337039Y-81732179D01*
X157192179Y-81877039D01*
X157086633Y-82035000D01*
X156387410Y-82035000D01*
X156384109Y-82024118D01*
X156346600Y-81933562D01*
X156315028Y-81874494D01*
X156260572Y-81792995D01*
X156218084Y-81741224D01*
X156148776Y-81671916D01*
X156097005Y-81629428D01*
X156015506Y-81574972D01*
X155956438Y-81543400D01*
X155865882Y-81505891D01*
X155801793Y-81486450D01*
X155705660Y-81467328D01*
X155639009Y-81460763D01*
X155614448Y-81460763D01*
X155590000Y-81458355D01*
X155090000Y-81458355D01*
X155023348Y-81464920D01*
X154959258Y-81484361D01*
X154940000Y-81494655D01*
X154920742Y-81484361D01*
X154856652Y-81464920D01*
X154790000Y-81458355D01*
X154290000Y-81458355D01*
X154265552Y-81460763D01*
X154240991Y-81460763D01*
X154174340Y-81467328D01*
X154078207Y-81486450D01*
X154014118Y-81505891D01*
X153923562Y-81543400D01*
X153864494Y-81574972D01*
X153782995Y-81629428D01*
X153731224Y-81671916D01*
X153661916Y-81741224D01*
X153619428Y-81792995D01*
X153564972Y-81874494D01*
X153533400Y-81933562D01*
X153495891Y-82024118D01*
X153492590Y-82035000D01*
X152293349Y-82035000D01*
X152250075Y-81817447D01*
X152073681Y-81391594D01*
X151817596Y-81008337D01*
X151491663Y-80682404D01*
X151108406Y-80426319D01*
X150682553Y-80249925D01*
X150230470Y-80160000D01*
X149769530Y-80160000D01*
X149317447Y-80249925D01*
X148891594Y-80426319D01*
X148508337Y-80682404D01*
X148182404Y-81008337D01*
X147926319Y-81391594D01*
X147749925Y-81817447D01*
X147660000Y-82269530D01*
X147660000Y-82730470D01*
X147749925Y-83182553D01*
X147926319Y-83608406D01*
X148182404Y-83991663D01*
X148508337Y-84317596D01*
X148891594Y-84573681D01*
X149317447Y-84750075D01*
X149769530Y-84840000D01*
X150230470Y-84840000D01*
X150682553Y-84750075D01*
X151108406Y-84573681D01*
X151491663Y-84317596D01*
X151817596Y-83991663D01*
X152073681Y-83608406D01*
X152250075Y-83182553D01*
X152273458Y-83065000D01*
X153492590Y-83065000D01*
X153495891Y-83075882D01*
X153533400Y-83166438D01*
X153564972Y-83225506D01*
X153619428Y-83307005D01*
X153661916Y-83358776D01*
X153731224Y-83428084D01*
X153775000Y-83464011D01*
X153775001Y-86715989D01*
X153731224Y-86751916D01*
X153661916Y-86821224D01*
X153619428Y-86872995D01*
X153564972Y-86954494D01*
X153533400Y-87013562D01*
X153495891Y-87104118D01*
X153476450Y-87168207D01*
X153457328Y-87264340D01*
X153450763Y-87330991D01*
X153450763Y-87355552D01*
X153448355Y-87380000D01*
X153448355Y-87880000D01*
X153450763Y-87904448D01*
X153450763Y-87929009D01*
X153457328Y-87995660D01*
X153476450Y-88091793D01*
X153495891Y-88155882D01*
X153533400Y-88246438D01*
X153564972Y-88305506D01*
X153619428Y-88387005D01*
X153661916Y-88438776D01*
X153731224Y-88508084D01*
X153775000Y-88544011D01*
X153775001Y-91795989D01*
X153731224Y-91831916D01*
X153661916Y-91901224D01*
X153619428Y-91952995D01*
X153564972Y-92034494D01*
X153533400Y-92093562D01*
X153495891Y-92184118D01*
X153476450Y-92248207D01*
X153457328Y-92344340D01*
X153450763Y-92410991D01*
X153450763Y-92435552D01*
X153448355Y-92460000D01*
X153448355Y-92960000D01*
X153450763Y-92984448D01*
X153450763Y-93009009D01*
X153457328Y-93075660D01*
X153476450Y-93171793D01*
X153495891Y-93235882D01*
X153533400Y-93326438D01*
X153564972Y-93385506D01*
X153619428Y-93467005D01*
X153661916Y-93518776D01*
X153731224Y-93588084D01*
X153775000Y-93624011D01*
X153775001Y-96875989D01*
X153731224Y-96911916D01*
X153661916Y-96981224D01*
X153619428Y-97032995D01*
X153564972Y-97114494D01*
X153533400Y-97173562D01*
X153495891Y-97264118D01*
X153476450Y-97328207D01*
X153457328Y-97424340D01*
X153450763Y-97490991D01*
X153450763Y-97515552D01*
X153448355Y-97540000D01*
X153448355Y-98040000D01*
X153450763Y-98064448D01*
X153450763Y-98089009D01*
X153457328Y-98155660D01*
X153476450Y-98251793D01*
X153495891Y-98315882D01*
X153533400Y-98406438D01*
X153564972Y-98465506D01*
X153619428Y-98547005D01*
X153661916Y-98598776D01*
X153731224Y-98668084D01*
X153775000Y-98704011D01*
X153775001Y-104495989D01*
X153731224Y-104531916D01*
X153661916Y-104601224D01*
X153619428Y-104652995D01*
X153564972Y-104734494D01*
X153533400Y-104793562D01*
X153495891Y-104884118D01*
X153476450Y-104948207D01*
X153457328Y-105044340D01*
X153450763Y-105110991D01*
X153450763Y-105135552D01*
X153448355Y-105160000D01*
X153448355Y-105660000D01*
X153450763Y-105684448D01*
X153450763Y-105709009D01*
X153457328Y-105775660D01*
X153476450Y-105871793D01*
X153495891Y-105935882D01*
X153533400Y-106026438D01*
X153564972Y-106085506D01*
X153619428Y-106167005D01*
X153661916Y-106218776D01*
X153731224Y-106288084D01*
X153775000Y-106324011D01*
X153775001Y-109575989D01*
X153731224Y-109611916D01*
X153661916Y-109681224D01*
X153619428Y-109732995D01*
X153564972Y-109814494D01*
X153533400Y-109873562D01*
X153495891Y-109964118D01*
X153476450Y-110028207D01*
X153457328Y-110124340D01*
X153450763Y-110190991D01*
X153450763Y-110215552D01*
X153448355Y-110240000D01*
X153448355Y-110740000D01*
X153450763Y-110764448D01*
X153450763Y-110789009D01*
X153457328Y-110855660D01*
X153476450Y-110951793D01*
X153495891Y-111015882D01*
X153533400Y-111106438D01*
X153564972Y-111165506D01*
X153619428Y-111247005D01*
X153661916Y-111298776D01*
X153731224Y-111368084D01*
X153775000Y-111404011D01*
X153775001Y-114655989D01*
X153731224Y-114691916D01*
X153661916Y-114761224D01*
X153619428Y-114812995D01*
X153564972Y-114894494D01*
X153533400Y-114953562D01*
X153495891Y-115044118D01*
X153476450Y-115108207D01*
X153457328Y-115204340D01*
X153450763Y-115270991D01*
X153450763Y-115295552D01*
X153448355Y-115320000D01*
X153448355Y-115820000D01*
X153450763Y-115844448D01*
X153450763Y-115869009D01*
X153457328Y-115935660D01*
X153476450Y-116031793D01*
X153495891Y-116095882D01*
X153533400Y-116186438D01*
X153564972Y-116245506D01*
X153619428Y-116327005D01*
X153661916Y-116378776D01*
X153731224Y-116448084D01*
X153775001Y-116484011D01*
X153775000Y-119735989D01*
X153731224Y-119771916D01*
X153661916Y-119841224D01*
X153619428Y-119892995D01*
X153564972Y-119974494D01*
X153533400Y-120033562D01*
X153495891Y-120124118D01*
X153476450Y-120188207D01*
X153457328Y-120284340D01*
X153450763Y-120350991D01*
X153450763Y-120375552D01*
X153448355Y-120400000D01*
X153448355Y-120900000D01*
X153450763Y-120924448D01*
X153450763Y-120949009D01*
X153457328Y-121015660D01*
X153476450Y-121111793D01*
X153495891Y-121175882D01*
X153533400Y-121266438D01*
X153564972Y-121325506D01*
X153619428Y-121407005D01*
X153661916Y-121458776D01*
X153731224Y-121528084D01*
X153782995Y-121570572D01*
X153864494Y-121625028D01*
X153923562Y-121656600D01*
X154014118Y-121694109D01*
X154078207Y-121713550D01*
X154174340Y-121732672D01*
X154240991Y-121739237D01*
X154265552Y-121739237D01*
X154290000Y-121741645D01*
X154790000Y-121741645D01*
X154856652Y-121735080D01*
X154920742Y-121715639D01*
X154940000Y-121705345D01*
X154959258Y-121715639D01*
X155023348Y-121735080D01*
X155090000Y-121741645D01*
X155590000Y-121741645D01*
X155614448Y-121739237D01*
X155639009Y-121739237D01*
X155705660Y-121732672D01*
X155801793Y-121713550D01*
X155865882Y-121694109D01*
X155956438Y-121656600D01*
X156015506Y-121625028D01*
X156097005Y-121570572D01*
X156148776Y-121528084D01*
X156218084Y-121458776D01*
X156260572Y-121407005D01*
X156315028Y-121325506D01*
X156346600Y-121266438D01*
X156384109Y-121175882D01*
X156387410Y-121165000D01*
X157093315Y-121165000D01*
X157192179Y-121312961D01*
X157337039Y-121457821D01*
X157507375Y-121571636D01*
X157696643Y-121650033D01*
X157897569Y-121690000D01*
X158102431Y-121690000D01*
X158303357Y-121650033D01*
X158492625Y-121571636D01*
X158635000Y-121476504D01*
X158635000Y-124848812D01*
X156848813Y-126635000D01*
X143151188Y-126635000D01*
X141365000Y-124848813D01*
X141365000Y-124363097D01*
X142110000Y-124363097D01*
X142110000Y-124636903D01*
X142163417Y-124905448D01*
X142268198Y-125158412D01*
X142420316Y-125386074D01*
X142613926Y-125579684D01*
X142841588Y-125731802D01*
X143094552Y-125836583D01*
X143363097Y-125890000D01*
X143636903Y-125890000D01*
X143905448Y-125836583D01*
X144158412Y-125731802D01*
X144386074Y-125579684D01*
X144579684Y-125386074D01*
X144731802Y-125158412D01*
X144836583Y-124905448D01*
X144890000Y-124636903D01*
X144890000Y-124363097D01*
X155110000Y-124363097D01*
X155110000Y-124636903D01*
X155163417Y-124905448D01*
X155268198Y-125158412D01*
X155420316Y-125386074D01*
X155613926Y-125579684D01*
X155841588Y-125731802D01*
X156094552Y-125836583D01*
X156363097Y-125890000D01*
X156636903Y-125890000D01*
X156905448Y-125836583D01*
X157158412Y-125731802D01*
X157386074Y-125579684D01*
X157579684Y-125386074D01*
X157731802Y-125158412D01*
X157836583Y-124905448D01*
X157890000Y-124636903D01*
X157890000Y-124363097D01*
X157836583Y-124094552D01*
X157731802Y-123841588D01*
X157579684Y-123613926D01*
X157386074Y-123420316D01*
X157158412Y-123268198D01*
X156905448Y-123163417D01*
X156636903Y-123110000D01*
X156363097Y-123110000D01*
X156094552Y-123163417D01*
X155841588Y-123268198D01*
X155613926Y-123420316D01*
X155420316Y-123613926D01*
X155268198Y-123841588D01*
X155163417Y-124094552D01*
X155110000Y-124363097D01*
X144890000Y-124363097D01*
X144836583Y-124094552D01*
X144731802Y-123841588D01*
X144579684Y-123613926D01*
X144386074Y-123420316D01*
X144158412Y-123268198D01*
X143905448Y-123163417D01*
X143636903Y-123110000D01*
X143363097Y-123110000D01*
X143094552Y-123163417D01*
X142841588Y-123268198D01*
X142613926Y-123420316D01*
X142420316Y-123613926D01*
X142268198Y-123841588D01*
X142163417Y-124094552D01*
X142110000Y-124363097D01*
X141365000Y-124363097D01*
X141365000Y-121606504D01*
X141507375Y-121701636D01*
X141696643Y-121780033D01*
X141897569Y-121820000D01*
X142102431Y-121820000D01*
X142303357Y-121780033D01*
X142492625Y-121701636D01*
X142662961Y-121587821D01*
X142807821Y-121442961D01*
X142921636Y-121272625D01*
X143000033Y-121083357D01*
X143040000Y-120882431D01*
X143040000Y-120677569D01*
X143000033Y-120476643D01*
X142921636Y-120287375D01*
X142807821Y-120117039D01*
X142662961Y-119972179D01*
X142492625Y-119858364D01*
X142303357Y-119779967D01*
X142102431Y-119740000D01*
X141897569Y-119740000D01*
X141696643Y-119779967D01*
X141507375Y-119858364D01*
X141365000Y-119953496D01*
X141365000Y-119066504D01*
X141507375Y-119161636D01*
X141696643Y-119240033D01*
X141897569Y-119280000D01*
X142102431Y-119280000D01*
X142303357Y-119240033D01*
X142492625Y-119161636D01*
X142662961Y-119047821D01*
X142807821Y-118902961D01*
X142921636Y-118732625D01*
X142966216Y-118625000D01*
X143332590Y-118625000D01*
X143335891Y-118635882D01*
X143373400Y-118726438D01*
X143404972Y-118785506D01*
X143459428Y-118867005D01*
X143501916Y-118918776D01*
X143571224Y-118988084D01*
X143622995Y-119030572D01*
X143704494Y-119085028D01*
X143763562Y-119116600D01*
X143854118Y-119154109D01*
X143918207Y-119173550D01*
X144014340Y-119192672D01*
X144080991Y-119199237D01*
X144105552Y-119199237D01*
X144130000Y-119201645D01*
X144630000Y-119201645D01*
X144696652Y-119195080D01*
X144760742Y-119175639D01*
X144780000Y-119165345D01*
X144799258Y-119175639D01*
X144863348Y-119195080D01*
X144930000Y-119201645D01*
X145430000Y-119201645D01*
X145454448Y-119199237D01*
X145479009Y-119199237D01*
X145545660Y-119192672D01*
X145641793Y-119173550D01*
X145705882Y-119154109D01*
X145796438Y-119116600D01*
X145855506Y-119085028D01*
X145937005Y-119030572D01*
X145988776Y-118988084D01*
X146058084Y-118918776D01*
X146100572Y-118867005D01*
X146155028Y-118785506D01*
X146186600Y-118726438D01*
X146224109Y-118635882D01*
X146227410Y-118625000D01*
X147937407Y-118625000D01*
X148182404Y-118991663D01*
X148508337Y-119317596D01*
X148891594Y-119573681D01*
X149317447Y-119750075D01*
X149769530Y-119840000D01*
X150230470Y-119840000D01*
X150682553Y-119750075D01*
X151108406Y-119573681D01*
X151491663Y-119317596D01*
X151817596Y-118991663D01*
X152073681Y-118608406D01*
X152250075Y-118182553D01*
X152340000Y-117730470D01*
X152340000Y-117269530D01*
X152250075Y-116817447D01*
X152073681Y-116391594D01*
X151817596Y-116008337D01*
X151491663Y-115682404D01*
X151108406Y-115426319D01*
X150682553Y-115249925D01*
X150230470Y-115160000D01*
X149769530Y-115160000D01*
X149317447Y-115249925D01*
X148891594Y-115426319D01*
X148508337Y-115682404D01*
X148182404Y-116008337D01*
X147926319Y-116391594D01*
X147749925Y-116817447D01*
X147660000Y-117269530D01*
X147660000Y-117595000D01*
X146227410Y-117595000D01*
X146224109Y-117584118D01*
X146186600Y-117493562D01*
X146155028Y-117434494D01*
X146100572Y-117352995D01*
X146058084Y-117301224D01*
X145988776Y-117231916D01*
X145945000Y-117195989D01*
X145945000Y-113944011D01*
X145988776Y-113908084D01*
X146058084Y-113838776D01*
X146100572Y-113787005D01*
X146155028Y-113705506D01*
X146186600Y-113646438D01*
X146224109Y-113555882D01*
X146243550Y-113491793D01*
X146262672Y-113395660D01*
X146269237Y-113329009D01*
X146269237Y-113304448D01*
X146271645Y-113280000D01*
X146271645Y-112780000D01*
X146269237Y-112755552D01*
X146269237Y-112730991D01*
X146262672Y-112664340D01*
X146243550Y-112568207D01*
X146224109Y-112504118D01*
X146186600Y-112413562D01*
X146155028Y-112354494D01*
X146100572Y-112272995D01*
X146058084Y-112221224D01*
X145988776Y-112151916D01*
X145945000Y-112115989D01*
X145945000Y-108864011D01*
X145988776Y-108828084D01*
X146058084Y-108758776D01*
X146100572Y-108707005D01*
X146155028Y-108625506D01*
X146186600Y-108566438D01*
X146224109Y-108475882D01*
X146243550Y-108411793D01*
X146262672Y-108315660D01*
X146269237Y-108249009D01*
X146269237Y-108224448D01*
X146271645Y-108200000D01*
X146271645Y-107700000D01*
X146269237Y-107675552D01*
X146269237Y-107650991D01*
X146262672Y-107584340D01*
X146243550Y-107488207D01*
X146224109Y-107424118D01*
X146186600Y-107333562D01*
X146155028Y-107274494D01*
X146100572Y-107192995D01*
X146058084Y-107141224D01*
X145988776Y-107071916D01*
X145945000Y-107035989D01*
X145945000Y-103914011D01*
X145988776Y-103878084D01*
X146058084Y-103808776D01*
X146100572Y-103757005D01*
X146155028Y-103675506D01*
X146186600Y-103616438D01*
X146224109Y-103525882D01*
X146243550Y-103461793D01*
X146262672Y-103365660D01*
X146269237Y-103299009D01*
X146269237Y-103274448D01*
X146271645Y-103250000D01*
X146271645Y-102750000D01*
X146269237Y-102725552D01*
X146269237Y-102700991D01*
X146262672Y-102634340D01*
X146243550Y-102538207D01*
X146224109Y-102474118D01*
X146186600Y-102383562D01*
X146155028Y-102324494D01*
X146100572Y-102242995D01*
X146058084Y-102191224D01*
X145988776Y-102121916D01*
X145945000Y-102085989D01*
X145945000Y-101853570D01*
X148392503Y-101853570D01*
X148615646Y-102201426D01*
X149071723Y-102429200D01*
X149563473Y-102563622D01*
X150071998Y-102599525D01*
X150577757Y-102535529D01*
X151061313Y-102374095D01*
X151384354Y-102201426D01*
X151607497Y-101853570D01*
X150000000Y-100246073D01*
X148392503Y-101853570D01*
X145945000Y-101853570D01*
X145945000Y-100071998D01*
X147400475Y-100071998D01*
X147464471Y-100577757D01*
X147625905Y-101061313D01*
X147798574Y-101384354D01*
X148146430Y-101607497D01*
X149753927Y-100000000D01*
X150246073Y-100000000D01*
X151853570Y-101607497D01*
X152201426Y-101384354D01*
X152429200Y-100928277D01*
X152563622Y-100436527D01*
X152599525Y-99928002D01*
X152535529Y-99422243D01*
X152374095Y-98938687D01*
X152201426Y-98615646D01*
X151853570Y-98392503D01*
X150246073Y-100000000D01*
X149753927Y-100000000D01*
X148146430Y-98392503D01*
X147798574Y-98615646D01*
X147570800Y-99071723D01*
X147436378Y-99563473D01*
X147400475Y-100071998D01*
X145945000Y-100071998D01*
X145945000Y-98146430D01*
X148392503Y-98146430D01*
X150000000Y-99753927D01*
X151607497Y-98146430D01*
X151384354Y-97798574D01*
X150928277Y-97570800D01*
X150436527Y-97436378D01*
X149928002Y-97400475D01*
X149422243Y-97464471D01*
X148938687Y-97625905D01*
X148615646Y-97798574D01*
X148392503Y-98146430D01*
X145945000Y-98146430D01*
X145945000Y-96164011D01*
X145988776Y-96128084D01*
X146058084Y-96058776D01*
X146100572Y-96007005D01*
X146155028Y-95925506D01*
X146186600Y-95866438D01*
X146224109Y-95775882D01*
X146243550Y-95711793D01*
X146262672Y-95615660D01*
X146269237Y-95549009D01*
X146269237Y-95524448D01*
X146271645Y-95500000D01*
X146271645Y-95000000D01*
X146269237Y-94975552D01*
X146269237Y-94950991D01*
X146262672Y-94884340D01*
X146243550Y-94788207D01*
X146224109Y-94724118D01*
X146186600Y-94633562D01*
X146155028Y-94574494D01*
X146100572Y-94492995D01*
X146058084Y-94441224D01*
X145988776Y-94371916D01*
X145945000Y-94335989D01*
X145945000Y-91084011D01*
X145988776Y-91048084D01*
X146058084Y-90978776D01*
X146100572Y-90927005D01*
X146155028Y-90845506D01*
X146186600Y-90786438D01*
X146224109Y-90695882D01*
X146243550Y-90631793D01*
X146262672Y-90535660D01*
X146269237Y-90469009D01*
X146269237Y-90444448D01*
X146271645Y-90420000D01*
X146271645Y-89920000D01*
X146269237Y-89895552D01*
X146269237Y-89870991D01*
X146262672Y-89804340D01*
X146243550Y-89708207D01*
X146224109Y-89644118D01*
X146186600Y-89553562D01*
X146155028Y-89494494D01*
X146100572Y-89412995D01*
X146058084Y-89361224D01*
X145988776Y-89291916D01*
X145945000Y-89255989D01*
X145945000Y-86004011D01*
X145988776Y-85968084D01*
X146058084Y-85898776D01*
X146100572Y-85847005D01*
X146155028Y-85765506D01*
X146186600Y-85706438D01*
X146224109Y-85615882D01*
X146243550Y-85551793D01*
X146262672Y-85455660D01*
X146269237Y-85389009D01*
X146269237Y-85364448D01*
X146271645Y-85340000D01*
X146271645Y-84840000D01*
X146269237Y-84815552D01*
X146269237Y-84790991D01*
X146262672Y-84724340D01*
X146243550Y-84628207D01*
X146224109Y-84564118D01*
X146186600Y-84473562D01*
X146155028Y-84414494D01*
X146100572Y-84332995D01*
X146058084Y-84281224D01*
X145988776Y-84211916D01*
X145945000Y-84175989D01*
X145945000Y-80914011D01*
X145988776Y-80878084D01*
X146058084Y-80808776D01*
X146100572Y-80757005D01*
X146155028Y-80675506D01*
X146186600Y-80616438D01*
X146224109Y-80525882D01*
X146243550Y-80461793D01*
X146262672Y-80365660D01*
X146269237Y-80299009D01*
X146269237Y-80274448D01*
X146271645Y-80250000D01*
X146271645Y-79750000D01*
X146269237Y-79725552D01*
X146269237Y-79700991D01*
X146262672Y-79634340D01*
X146243550Y-79538207D01*
X146224109Y-79474118D01*
X146186600Y-79383562D01*
X146155028Y-79324494D01*
X146100572Y-79242995D01*
X146058084Y-79191224D01*
X145988776Y-79121916D01*
X145937005Y-79079428D01*
X145855506Y-79024972D01*
X145796438Y-78993400D01*
X145705882Y-78955891D01*
X145641793Y-78936450D01*
X145545660Y-78917328D01*
X145479009Y-78910763D01*
X145454448Y-78910763D01*
X145430000Y-78908355D01*
X144930000Y-78908355D01*
X144863348Y-78914920D01*
X144799258Y-78934361D01*
X144780000Y-78944655D01*
X144760742Y-78934361D01*
X144696652Y-78914920D01*
X144630000Y-78908355D01*
X144130000Y-78908355D01*
X144105552Y-78910763D01*
X144080991Y-78910763D01*
X144014340Y-78917328D01*
X143918207Y-78936450D01*
X143854118Y-78955891D01*
X143763562Y-78993400D01*
X143704494Y-79024972D01*
X143622995Y-79079428D01*
X143571224Y-79121916D01*
X143501916Y-79191224D01*
X143459428Y-79242995D01*
X143404972Y-79324494D01*
X143373400Y-79383562D01*
X143335891Y-79474118D01*
X143332590Y-79485000D01*
X142906685Y-79485000D01*
X142807821Y-79337039D01*
X142662961Y-79192179D01*
X142492625Y-79078364D01*
X142303357Y-78999967D01*
X142102431Y-78960000D01*
X141897569Y-78960000D01*
X141696643Y-78999967D01*
X141507375Y-79078364D01*
X141365000Y-79173496D01*
X141365000Y-75363097D01*
X142110000Y-75363097D01*
X142110000Y-75636903D01*
X142163417Y-75905448D01*
X142268198Y-76158412D01*
X142420316Y-76386074D01*
X142613926Y-76579684D01*
X142841588Y-76731802D01*
X143094552Y-76836583D01*
X143363097Y-76890000D01*
X143636903Y-76890000D01*
X143905448Y-76836583D01*
X144158412Y-76731802D01*
X144386074Y-76579684D01*
X144579684Y-76386074D01*
X144731802Y-76158412D01*
X144836583Y-75905448D01*
X144890000Y-75636903D01*
X144890000Y-75363097D01*
X155110000Y-75363097D01*
X155110000Y-75636903D01*
X155163417Y-75905448D01*
X155268198Y-76158412D01*
X155420316Y-76386074D01*
X155613926Y-76579684D01*
X155841588Y-76731802D01*
X156094552Y-76836583D01*
X156363097Y-76890000D01*
X156636903Y-76890000D01*
X156905448Y-76836583D01*
X157158412Y-76731802D01*
X157386074Y-76579684D01*
X157579684Y-76386074D01*
X157731802Y-76158412D01*
X157836583Y-75905448D01*
X157890000Y-75636903D01*
X157890000Y-75363097D01*
X157836583Y-75094552D01*
X157731802Y-74841588D01*
X157579684Y-74613926D01*
X157386074Y-74420316D01*
X157158412Y-74268198D01*
X156905448Y-74163417D01*
X156636903Y-74110000D01*
X156363097Y-74110000D01*
X156094552Y-74163417D01*
X155841588Y-74268198D01*
X155613926Y-74420316D01*
X155420316Y-74613926D01*
X155268198Y-74841588D01*
X155163417Y-75094552D01*
X155110000Y-75363097D01*
X144890000Y-75363097D01*
X144836583Y-75094552D01*
X144731802Y-74841588D01*
X144579684Y-74613926D01*
X144386074Y-74420316D01*
X144158412Y-74268198D01*
X143905448Y-74163417D01*
X143636903Y-74110000D01*
X143363097Y-74110000D01*
X143094552Y-74163417D01*
X142841588Y-74268198D01*
X142613926Y-74420316D01*
X142420316Y-74613926D01*
X142268198Y-74841588D01*
X142163417Y-75094552D01*
X142110000Y-75363097D01*
X141365000Y-75363097D01*
X141365000Y-75151187D01*
X143151188Y-73365000D01*
X156848813Y-73365000D01*
X158635001Y-75151189D01*
G36*
X157192179Y-98442961D02*
G01*
X157337039Y-98587821D01*
X157507375Y-98701636D01*
X157696643Y-98780033D01*
X157897569Y-98820000D01*
X158102431Y-98820000D01*
X158303357Y-98780033D01*
X158492625Y-98701636D01*
X158635001Y-98606504D01*
X158635001Y-98889236D01*
X158121000Y-98892000D01*
X157974000Y-99039000D01*
X157974000Y-100156000D01*
X157994000Y-100156000D01*
X157994000Y-100504000D01*
X157974000Y-100504000D01*
X157974000Y-101621000D01*
X158121000Y-101768000D01*
X158635000Y-101770764D01*
X158635000Y-102043496D01*
X158492625Y-101948364D01*
X158303357Y-101869967D01*
X158102431Y-101830000D01*
X157897569Y-101830000D01*
X157696643Y-101869967D01*
X157507375Y-101948364D01*
X157337039Y-102062179D01*
X157192179Y-102207039D01*
X157078364Y-102377375D01*
X156999967Y-102566643D01*
X156960000Y-102767569D01*
X156960000Y-102972431D01*
X156999967Y-103173357D01*
X157078364Y-103362625D01*
X157192179Y-103532961D01*
X157337039Y-103677821D01*
X157507375Y-103791636D01*
X157696643Y-103870033D01*
X157897569Y-103910000D01*
X158102431Y-103910000D01*
X158303357Y-103870033D01*
X158492625Y-103791636D01*
X158635000Y-103696504D01*
X158635000Y-104583496D01*
X158492625Y-104488364D01*
X158303357Y-104409967D01*
X158102431Y-104370000D01*
X157897569Y-104370000D01*
X157696643Y-104409967D01*
X157507375Y-104488364D01*
X157337039Y-104602179D01*
X157192179Y-104747039D01*
X157093315Y-104895000D01*
X156387410Y-104895000D01*
X156384109Y-104884118D01*
X156346600Y-104793562D01*
X156315028Y-104734494D01*
X156260572Y-104652995D01*
X156218084Y-104601224D01*
X156148776Y-104531916D01*
X156097005Y-104489428D01*
X156015506Y-104434972D01*
X155956438Y-104403400D01*
X155865882Y-104365891D01*
X155801793Y-104346450D01*
X155705660Y-104327328D01*
X155639009Y-104320763D01*
X155614448Y-104320763D01*
X155590000Y-104318355D01*
X155090000Y-104318355D01*
X155023348Y-104324920D01*
X154959258Y-104344361D01*
X154940000Y-104354655D01*
X154920742Y-104344361D01*
X154856652Y-104324920D01*
X154805000Y-104319832D01*
X154805000Y-101180000D01*
X156359155Y-101180000D01*
X156370508Y-101295268D01*
X156404130Y-101406107D01*
X156458730Y-101508256D01*
X156532209Y-101597791D01*
X156621744Y-101671270D01*
X156723893Y-101725870D01*
X156834732Y-101759492D01*
X156950000Y-101770845D01*
X157479000Y-101768000D01*
X157626000Y-101621000D01*
X157626000Y-100504000D01*
X156509000Y-100504000D01*
X156362000Y-100651000D01*
X156359155Y-101180000D01*
X154805000Y-101180000D01*
X154805000Y-99480000D01*
X156359155Y-99480000D01*
X156362000Y-100009000D01*
X156509000Y-100156000D01*
X157626000Y-100156000D01*
X157626000Y-99039000D01*
X157479000Y-98892000D01*
X156950000Y-98889155D01*
X156834732Y-98900508D01*
X156723893Y-98934130D01*
X156621744Y-98988730D01*
X156532209Y-99062209D01*
X156458730Y-99151744D01*
X156404130Y-99253893D01*
X156370508Y-99364732D01*
X156359155Y-99480000D01*
X154805000Y-99480000D01*
X154805000Y-98880168D01*
X154856652Y-98875080D01*
X154920742Y-98855639D01*
X154940000Y-98845345D01*
X154959258Y-98855639D01*
X155023348Y-98875080D01*
X155090000Y-98881645D01*
X155590000Y-98881645D01*
X155614448Y-98879237D01*
X155639009Y-98879237D01*
X155705660Y-98872672D01*
X155801793Y-98853550D01*
X155865882Y-98834109D01*
X155956438Y-98796600D01*
X156015506Y-98765028D01*
X156097005Y-98710572D01*
X156148776Y-98668084D01*
X156218084Y-98598776D01*
X156260572Y-98547005D01*
X156315028Y-98465506D01*
X156346600Y-98406438D01*
X156384109Y-98315882D01*
X156387410Y-98305000D01*
X157099996Y-98305000D01*
X157192179Y-98442961D01*
G37*
X157192179Y-98442961D02*
X157337039Y-98587821D01*
X157507375Y-98701636D01*
X157696643Y-98780033D01*
X157897569Y-98820000D01*
X158102431Y-98820000D01*
X158303357Y-98780033D01*
X158492625Y-98701636D01*
X158635001Y-98606504D01*
X158635001Y-98889236D01*
X158121000Y-98892000D01*
X157974000Y-99039000D01*
X157974000Y-100156000D01*
X157994000Y-100156000D01*
X157994000Y-100504000D01*
X157974000Y-100504000D01*
X157974000Y-101621000D01*
X158121000Y-101768000D01*
X158635000Y-101770764D01*
X158635000Y-102043496D01*
X158492625Y-101948364D01*
X158303357Y-101869967D01*
X158102431Y-101830000D01*
X157897569Y-101830000D01*
X157696643Y-101869967D01*
X157507375Y-101948364D01*
X157337039Y-102062179D01*
X157192179Y-102207039D01*
X157078364Y-102377375D01*
X156999967Y-102566643D01*
X156960000Y-102767569D01*
X156960000Y-102972431D01*
X156999967Y-103173357D01*
X157078364Y-103362625D01*
X157192179Y-103532961D01*
X157337039Y-103677821D01*
X157507375Y-103791636D01*
X157696643Y-103870033D01*
X157897569Y-103910000D01*
X158102431Y-103910000D01*
X158303357Y-103870033D01*
X158492625Y-103791636D01*
X158635000Y-103696504D01*
X158635000Y-104583496D01*
X158492625Y-104488364D01*
X158303357Y-104409967D01*
X158102431Y-104370000D01*
X157897569Y-104370000D01*
X157696643Y-104409967D01*
X157507375Y-104488364D01*
X157337039Y-104602179D01*
X157192179Y-104747039D01*
X157093315Y-104895000D01*
X156387410Y-104895000D01*
X156384109Y-104884118D01*
X156346600Y-104793562D01*
X156315028Y-104734494D01*
X156260572Y-104652995D01*
X156218084Y-104601224D01*
X156148776Y-104531916D01*
X156097005Y-104489428D01*
X156015506Y-104434972D01*
X155956438Y-104403400D01*
X155865882Y-104365891D01*
X155801793Y-104346450D01*
X155705660Y-104327328D01*
X155639009Y-104320763D01*
X155614448Y-104320763D01*
X155590000Y-104318355D01*
X155090000Y-104318355D01*
X155023348Y-104324920D01*
X154959258Y-104344361D01*
X154940000Y-104354655D01*
X154920742Y-104344361D01*
X154856652Y-104324920D01*
X154805000Y-104319832D01*
X154805000Y-101180000D01*
X156359155Y-101180000D01*
X156370508Y-101295268D01*
X156404130Y-101406107D01*
X156458730Y-101508256D01*
X156532209Y-101597791D01*
X156621744Y-101671270D01*
X156723893Y-101725870D01*
X156834732Y-101759492D01*
X156950000Y-101770845D01*
X157479000Y-101768000D01*
X157626000Y-101621000D01*
X157626000Y-100504000D01*
X156509000Y-100504000D01*
X156362000Y-100651000D01*
X156359155Y-101180000D01*
X154805000Y-101180000D01*
X154805000Y-99480000D01*
X156359155Y-99480000D01*
X156362000Y-100009000D01*
X156509000Y-100156000D01*
X157626000Y-100156000D01*
X157626000Y-99039000D01*
X157479000Y-98892000D01*
X156950000Y-98889155D01*
X156834732Y-98900508D01*
X156723893Y-98934130D01*
X156621744Y-98988730D01*
X156532209Y-99062209D01*
X156458730Y-99151744D01*
X156404130Y-99253893D01*
X156370508Y-99364732D01*
X156359155Y-99480000D01*
X154805000Y-99480000D01*
X154805000Y-98880168D01*
X154856652Y-98875080D01*
X154920742Y-98855639D01*
X154940000Y-98845345D01*
X154959258Y-98855639D01*
X155023348Y-98875080D01*
X155090000Y-98881645D01*
X155590000Y-98881645D01*
X155614448Y-98879237D01*
X155639009Y-98879237D01*
X155705660Y-98872672D01*
X155801793Y-98853550D01*
X155865882Y-98834109D01*
X155956438Y-98796600D01*
X156015506Y-98765028D01*
X156097005Y-98710572D01*
X156148776Y-98668084D01*
X156218084Y-98598776D01*
X156260572Y-98547005D01*
X156315028Y-98465506D01*
X156346600Y-98406438D01*
X156384109Y-98315882D01*
X156387410Y-98305000D01*
X157099996Y-98305000D01*
X157192179Y-98442961D01*
G36*
X143335891Y-95775882D02*
G01*
X143373400Y-95866438D01*
X143404972Y-95925506D01*
X143459428Y-96007005D01*
X143501916Y-96058776D01*
X143571224Y-96128084D01*
X143622995Y-96170572D01*
X143704494Y-96225028D01*
X143763562Y-96256600D01*
X143854118Y-96294109D01*
X143918207Y-96313550D01*
X144014340Y-96332672D01*
X144080991Y-96339237D01*
X144105552Y-96339237D01*
X144130000Y-96341645D01*
X144630000Y-96341645D01*
X144696652Y-96335080D01*
X144760742Y-96315639D01*
X144780000Y-96305345D01*
X144799258Y-96315639D01*
X144863348Y-96335080D01*
X144915000Y-96340168D01*
X144915001Y-101909832D01*
X144863348Y-101914920D01*
X144799258Y-101934361D01*
X144780000Y-101944655D01*
X144760742Y-101934361D01*
X144696652Y-101914920D01*
X144630000Y-101908355D01*
X144130000Y-101908355D01*
X144105552Y-101910763D01*
X144080991Y-101910763D01*
X144014340Y-101917328D01*
X143918207Y-101936450D01*
X143854118Y-101955891D01*
X143763562Y-101993400D01*
X143704494Y-102024972D01*
X143622995Y-102079428D01*
X143571224Y-102121916D01*
X143501916Y-102191224D01*
X143459428Y-102242995D01*
X143404972Y-102324494D01*
X143373400Y-102383562D01*
X143335891Y-102474118D01*
X143332590Y-102485000D01*
X142906685Y-102485000D01*
X142807821Y-102337039D01*
X142662961Y-102192179D01*
X142492625Y-102078364D01*
X142303357Y-101999967D01*
X142102431Y-101960000D01*
X141897569Y-101960000D01*
X141696643Y-101999967D01*
X141507375Y-102078364D01*
X141365000Y-102173496D01*
X141365000Y-101770764D01*
X141879000Y-101768000D01*
X142026000Y-101621000D01*
X142026000Y-100504000D01*
X142374000Y-100504000D01*
X142374000Y-101621000D01*
X142521000Y-101768000D01*
X143050000Y-101770845D01*
X143165268Y-101759492D01*
X143276107Y-101725870D01*
X143378256Y-101671270D01*
X143467791Y-101597791D01*
X143541270Y-101508256D01*
X143595870Y-101406107D01*
X143629492Y-101295268D01*
X143640845Y-101180000D01*
X143638000Y-100651000D01*
X143491000Y-100504000D01*
X142374000Y-100504000D01*
X142026000Y-100504000D01*
X142006000Y-100504000D01*
X142006000Y-100156000D01*
X142026000Y-100156000D01*
X142026000Y-99039000D01*
X142374000Y-99039000D01*
X142374000Y-100156000D01*
X143491000Y-100156000D01*
X143638000Y-100009000D01*
X143640845Y-99480000D01*
X143629492Y-99364732D01*
X143595870Y-99253893D01*
X143541270Y-99151744D01*
X143467791Y-99062209D01*
X143378256Y-98988730D01*
X143276107Y-98934130D01*
X143165268Y-98900508D01*
X143050000Y-98889155D01*
X142521000Y-98892000D01*
X142374000Y-99039000D01*
X142026000Y-99039000D01*
X141879000Y-98892000D01*
X141365000Y-98889236D01*
X141365000Y-98606504D01*
X141507375Y-98701636D01*
X141696643Y-98780033D01*
X141897569Y-98820000D01*
X142102431Y-98820000D01*
X142303357Y-98780033D01*
X142492625Y-98701636D01*
X142662961Y-98587821D01*
X142807821Y-98442961D01*
X142921636Y-98272625D01*
X143000033Y-98083357D01*
X143040000Y-97882431D01*
X143040000Y-97677569D01*
X143000033Y-97476643D01*
X142921636Y-97287375D01*
X142807821Y-97117039D01*
X142662961Y-96972179D01*
X142492625Y-96858364D01*
X142303357Y-96779967D01*
X142102431Y-96740000D01*
X141897569Y-96740000D01*
X141696643Y-96779967D01*
X141507375Y-96858364D01*
X141365000Y-96953496D01*
X141365000Y-96066504D01*
X141507375Y-96161636D01*
X141696643Y-96240033D01*
X141897569Y-96280000D01*
X142102431Y-96280000D01*
X142303357Y-96240033D01*
X142492625Y-96161636D01*
X142662961Y-96047821D01*
X142807821Y-95902961D01*
X142900004Y-95765000D01*
X143332590Y-95765000D01*
X143335891Y-95775882D01*
G37*
X143335891Y-95775882D02*
X143373400Y-95866438D01*
X143404972Y-95925506D01*
X143459428Y-96007005D01*
X143501916Y-96058776D01*
X143571224Y-96128084D01*
X143622995Y-96170572D01*
X143704494Y-96225028D01*
X143763562Y-96256600D01*
X143854118Y-96294109D01*
X143918207Y-96313550D01*
X144014340Y-96332672D01*
X144080991Y-96339237D01*
X144105552Y-96339237D01*
X144130000Y-96341645D01*
X144630000Y-96341645D01*
X144696652Y-96335080D01*
X144760742Y-96315639D01*
X144780000Y-96305345D01*
X144799258Y-96315639D01*
X144863348Y-96335080D01*
X144915000Y-96340168D01*
X144915001Y-101909832D01*
X144863348Y-101914920D01*
X144799258Y-101934361D01*
X144780000Y-101944655D01*
X144760742Y-101934361D01*
X144696652Y-101914920D01*
X144630000Y-101908355D01*
X144130000Y-101908355D01*
X144105552Y-101910763D01*
X144080991Y-101910763D01*
X144014340Y-101917328D01*
X143918207Y-101936450D01*
X143854118Y-101955891D01*
X143763562Y-101993400D01*
X143704494Y-102024972D01*
X143622995Y-102079428D01*
X143571224Y-102121916D01*
X143501916Y-102191224D01*
X143459428Y-102242995D01*
X143404972Y-102324494D01*
X143373400Y-102383562D01*
X143335891Y-102474118D01*
X143332590Y-102485000D01*
X142906685Y-102485000D01*
X142807821Y-102337039D01*
X142662961Y-102192179D01*
X142492625Y-102078364D01*
X142303357Y-101999967D01*
X142102431Y-101960000D01*
X141897569Y-101960000D01*
X141696643Y-101999967D01*
X141507375Y-102078364D01*
X141365000Y-102173496D01*
X141365000Y-101770764D01*
X141879000Y-101768000D01*
X142026000Y-101621000D01*
X142026000Y-100504000D01*
X142374000Y-100504000D01*
X142374000Y-101621000D01*
X142521000Y-101768000D01*
X143050000Y-101770845D01*
X143165268Y-101759492D01*
X143276107Y-101725870D01*
X143378256Y-101671270D01*
X143467791Y-101597791D01*
X143541270Y-101508256D01*
X143595870Y-101406107D01*
X143629492Y-101295268D01*
X143640845Y-101180000D01*
X143638000Y-100651000D01*
X143491000Y-100504000D01*
X142374000Y-100504000D01*
X142026000Y-100504000D01*
X142006000Y-100504000D01*
X142006000Y-100156000D01*
X142026000Y-100156000D01*
X142026000Y-99039000D01*
X142374000Y-99039000D01*
X142374000Y-100156000D01*
X143491000Y-100156000D01*
X143638000Y-100009000D01*
X143640845Y-99480000D01*
X143629492Y-99364732D01*
X143595870Y-99253893D01*
X143541270Y-99151744D01*
X143467791Y-99062209D01*
X143378256Y-98988730D01*
X143276107Y-98934130D01*
X143165268Y-98900508D01*
X143050000Y-98889155D01*
X142521000Y-98892000D01*
X142374000Y-99039000D01*
X142026000Y-99039000D01*
X141879000Y-98892000D01*
X141365000Y-98889236D01*
X141365000Y-98606504D01*
X141507375Y-98701636D01*
X141696643Y-98780033D01*
X141897569Y-98820000D01*
X142102431Y-98820000D01*
X142303357Y-98780033D01*
X142492625Y-98701636D01*
X142662961Y-98587821D01*
X142807821Y-98442961D01*
X142921636Y-98272625D01*
X143000033Y-98083357D01*
X143040000Y-97882431D01*
X143040000Y-97677569D01*
X143000033Y-97476643D01*
X142921636Y-97287375D01*
X142807821Y-97117039D01*
X142662961Y-96972179D01*
X142492625Y-96858364D01*
X142303357Y-96779967D01*
X142102431Y-96740000D01*
X141897569Y-96740000D01*
X141696643Y-96779967D01*
X141507375Y-96858364D01*
X141365000Y-96953496D01*
X141365000Y-96066504D01*
X141507375Y-96161636D01*
X141696643Y-96240033D01*
X141897569Y-96280000D01*
X142102431Y-96280000D01*
X142303357Y-96240033D01*
X142492625Y-96161636D01*
X142662961Y-96047821D01*
X142807821Y-95902961D01*
X142900004Y-95765000D01*
X143332590Y-95765000D01*
X143335891Y-95775882D01*
M02*
