M48
; DRILL file {KiCad 5.1.5-52549c5~84~ubuntu18.04.1} date Tue 14 Jan 2020 07:02:21 PM PST
; FORMAT={-:-/ absolute / inch / decimal}
; #@! TF.CreationDate,2020-01-14T19:02:21-08:00
; #@! TF.GenerationSoftware,Kicad,Pcbnew,5.1.5-52549c5~84~ubuntu18.04.1
; #@! TF.FileFunction,Plated,1,2,PTH
FMAT,2
INCH
T1C0.0157
T2C0.0394
T3C0.1299
%
G90
G05
T1
X5.83Y-4.42
X5.9055Y-2.9528
X5.9055Y-3.7008
X5.9055Y-4.1654
X5.9055Y-4.9213
X5.99Y-3.4449
T2
X6.2126Y-3.95
X6.2205Y-3.1496
X6.2205Y-3.2496
X6.2205Y-3.3496
X6.2205Y-3.4496
X6.2205Y-3.5496
X6.2205Y-3.6496
X6.2205Y-3.7496
X6.2205Y-3.8496
X6.2205Y-4.05
X6.2205Y-4.15
X6.2205Y-4.25
X6.2205Y-4.35
X6.2205Y-4.45
X6.2205Y-4.55
X6.2205Y-4.65
X6.2205Y-4.75
X5.5984Y-3.95
X5.5906Y-4.0551
X5.5906Y-4.1551
X5.5906Y-4.2551
X5.5906Y-4.3551
X5.5906Y-4.4551
X5.5906Y-4.5551
X5.5906Y-4.6551
X5.5906Y-4.7551
X5.5906Y-3.1496
X5.5906Y-3.2496
X5.5906Y-3.3496
X5.5906Y-3.4496
X5.5906Y-3.5496
X5.5906Y-3.6496
X5.5906Y-3.7496
X5.5906Y-3.8496
T3
X5.9055Y-3.248
X5.9055Y-3.937
X5.9055Y-4.626
T0
M30
