G04 #@! TF.GenerationSoftware,KiCad,Pcbnew,5.1.5-52549c5~84~ubuntu18.04.1*
G04 #@! TF.CreationDate,2020-01-14T19:02:19-08:00*
G04 #@! TF.ProjectId,somos_dielectrode_v1.0,736f6d6f-735f-4646-9965-6c656374726f,rev?*
G04 #@! TF.SameCoordinates,Original*
G04 #@! TF.FileFunction,Legend,Bot*
G04 #@! TF.FilePolarity,Positive*
%FSLAX46Y46*%
G04 Gerber Fmt 4.6, Leading zero omitted, Abs format (unit mm)*
G04 Created by KiCad (PCBNEW 5.1.5-52549c5~84~ubuntu18.04.1) date 2020-01-14 19:02:19*
%MOMM*%
%LPD*%
G04 APERTURE LIST*
%ADD10C,0.100000*%
%ADD11C,0.150000*%
G04 APERTURE END LIST*
D10*
X153857142Y-126226190D02*
X154023809Y-125988095D01*
X154142857Y-126226190D02*
X154142857Y-125726190D01*
X153952380Y-125726190D01*
X153904761Y-125750000D01*
X153880952Y-125773809D01*
X153857142Y-125821428D01*
X153857142Y-125892857D01*
X153880952Y-125940476D01*
X153904761Y-125964285D01*
X153952380Y-125988095D01*
X154142857Y-125988095D01*
X153357142Y-126226190D02*
X153523809Y-125988095D01*
X153642857Y-126226190D02*
X153642857Y-125726190D01*
X153452380Y-125726190D01*
X153404761Y-125750000D01*
X153380952Y-125773809D01*
X153357142Y-125821428D01*
X153357142Y-125892857D01*
X153380952Y-125940476D01*
X153404761Y-125964285D01*
X153452380Y-125988095D01*
X153642857Y-125988095D01*
X152785714Y-126202380D02*
X152738095Y-126226190D01*
X152642857Y-126226190D01*
X152595238Y-126202380D01*
X152571428Y-126154761D01*
X152571428Y-126130952D01*
X152595238Y-126083333D01*
X152642857Y-126059523D01*
X152714285Y-126059523D01*
X152761904Y-126035714D01*
X152785714Y-125988095D01*
X152785714Y-125964285D01*
X152761904Y-125916666D01*
X152714285Y-125892857D01*
X152642857Y-125892857D01*
X152595238Y-125916666D01*
X152285714Y-126226190D02*
X152333333Y-126202380D01*
X152357142Y-126178571D01*
X152380952Y-126130952D01*
X152380952Y-125988095D01*
X152357142Y-125940476D01*
X152333333Y-125916666D01*
X152285714Y-125892857D01*
X152214285Y-125892857D01*
X152166666Y-125916666D01*
X152142857Y-125940476D01*
X152119047Y-125988095D01*
X152119047Y-126130952D01*
X152142857Y-126178571D01*
X152166666Y-126202380D01*
X152214285Y-126226190D01*
X152285714Y-126226190D01*
X151904761Y-126226190D02*
X151904761Y-125892857D01*
X151904761Y-125940476D02*
X151880952Y-125916666D01*
X151833333Y-125892857D01*
X151761904Y-125892857D01*
X151714285Y-125916666D01*
X151690476Y-125964285D01*
X151690476Y-126226190D01*
X151690476Y-125964285D02*
X151666666Y-125916666D01*
X151619047Y-125892857D01*
X151547619Y-125892857D01*
X151500000Y-125916666D01*
X151476190Y-125964285D01*
X151476190Y-126226190D01*
X151166666Y-126226190D02*
X151214285Y-126202380D01*
X151238095Y-126178571D01*
X151261904Y-126130952D01*
X151261904Y-125988095D01*
X151238095Y-125940476D01*
X151214285Y-125916666D01*
X151166666Y-125892857D01*
X151095238Y-125892857D01*
X151047619Y-125916666D01*
X151023809Y-125940476D01*
X151000000Y-125988095D01*
X151000000Y-126130952D01*
X151023809Y-126178571D01*
X151047619Y-126202380D01*
X151095238Y-126226190D01*
X151166666Y-126226190D01*
X150809523Y-126202380D02*
X150761904Y-126226190D01*
X150666666Y-126226190D01*
X150619047Y-126202380D01*
X150595238Y-126154761D01*
X150595238Y-126130952D01*
X150619047Y-126083333D01*
X150666666Y-126059523D01*
X150738095Y-126059523D01*
X150785714Y-126035714D01*
X150809523Y-125988095D01*
X150809523Y-125964285D01*
X150785714Y-125916666D01*
X150738095Y-125892857D01*
X150666666Y-125892857D01*
X150619047Y-125916666D01*
X149738095Y-126226190D02*
X150023809Y-126226190D01*
X149880952Y-126226190D02*
X149880952Y-125726190D01*
X149928571Y-125797619D01*
X149976190Y-125845238D01*
X150023809Y-125869047D01*
X149166666Y-125702380D02*
X149595238Y-126345238D01*
X148738095Y-126226190D02*
X149023809Y-126226190D01*
X148880952Y-126226190D02*
X148880952Y-125726190D01*
X148928571Y-125797619D01*
X148976190Y-125845238D01*
X149023809Y-125869047D01*
X148309523Y-125892857D02*
X148309523Y-126226190D01*
X148428571Y-125702380D02*
X148547619Y-126059523D01*
X148238095Y-126059523D01*
X147690476Y-125702380D02*
X148119047Y-126345238D01*
X147547619Y-125773809D02*
X147523809Y-125750000D01*
X147476190Y-125726190D01*
X147357142Y-125726190D01*
X147309523Y-125750000D01*
X147285714Y-125773809D01*
X147261904Y-125821428D01*
X147261904Y-125869047D01*
X147285714Y-125940476D01*
X147571428Y-126226190D01*
X147261904Y-126226190D01*
X146952380Y-125726190D02*
X146904761Y-125726190D01*
X146857142Y-125750000D01*
X146833333Y-125773809D01*
X146809523Y-125821428D01*
X146785714Y-125916666D01*
X146785714Y-126035714D01*
X146809523Y-126130952D01*
X146833333Y-126178571D01*
X146857142Y-126202380D01*
X146904761Y-126226190D01*
X146952380Y-126226190D01*
X147000000Y-126202380D01*
X147023809Y-126178571D01*
X147047619Y-126130952D01*
X147071428Y-126035714D01*
X147071428Y-125916666D01*
X147047619Y-125821428D01*
X147023809Y-125773809D01*
X147000000Y-125750000D01*
X146952380Y-125726190D01*
X146595238Y-125773809D02*
X146571428Y-125750000D01*
X146523809Y-125726190D01*
X146404761Y-125726190D01*
X146357142Y-125750000D01*
X146333333Y-125773809D01*
X146309523Y-125821428D01*
X146309523Y-125869047D01*
X146333333Y-125940476D01*
X146619047Y-126226190D01*
X146309523Y-126226190D01*
X146000000Y-125726190D02*
X145952380Y-125726190D01*
X145904761Y-125750000D01*
X145880952Y-125773809D01*
X145857142Y-125821428D01*
X145833333Y-125916666D01*
X145833333Y-126035714D01*
X145857142Y-126130952D01*
X145880952Y-126178571D01*
X145904761Y-126202380D01*
X145952380Y-126226190D01*
X146000000Y-126226190D01*
X146047619Y-126202380D01*
X146071428Y-126178571D01*
X146095238Y-126130952D01*
X146119047Y-126035714D01*
X146119047Y-125916666D01*
X146095238Y-125821428D01*
X146071428Y-125773809D01*
X146047619Y-125750000D01*
X146000000Y-125726190D01*
D11*
X150761904Y-123302380D02*
X150761904Y-124111904D01*
X150714285Y-124207142D01*
X150666666Y-124254761D01*
X150571428Y-124302380D01*
X150380952Y-124302380D01*
X150285714Y-124254761D01*
X150238095Y-124207142D01*
X150190476Y-124111904D01*
X150190476Y-123302380D01*
X149190476Y-124302380D02*
X149761904Y-124302380D01*
X149476190Y-124302380D02*
X149476190Y-123302380D01*
X149571428Y-123445238D01*
X149666666Y-123540476D01*
X149761904Y-123588095D01*
X150761904Y-88302380D02*
X150761904Y-89111904D01*
X150714285Y-89207142D01*
X150666666Y-89254761D01*
X150571428Y-89302380D01*
X150380952Y-89302380D01*
X150285714Y-89254761D01*
X150238095Y-89207142D01*
X150190476Y-89111904D01*
X150190476Y-88302380D01*
X149761904Y-88397619D02*
X149714285Y-88350000D01*
X149619047Y-88302380D01*
X149380952Y-88302380D01*
X149285714Y-88350000D01*
X149238095Y-88397619D01*
X149190476Y-88492857D01*
X149190476Y-88588095D01*
X149238095Y-88730952D01*
X149809523Y-89302380D01*
X149190476Y-89302380D01*
X150761904Y-105802380D02*
X150761904Y-106611904D01*
X150714285Y-106707142D01*
X150666666Y-106754761D01*
X150571428Y-106802380D01*
X150380952Y-106802380D01*
X150285714Y-106754761D01*
X150238095Y-106707142D01*
X150190476Y-106611904D01*
X150190476Y-105802380D01*
X149809523Y-105802380D02*
X149190476Y-105802380D01*
X149523809Y-106183333D01*
X149380952Y-106183333D01*
X149285714Y-106230952D01*
X149238095Y-106278571D01*
X149190476Y-106373809D01*
X149190476Y-106611904D01*
X149238095Y-106707142D01*
X149285714Y-106754761D01*
X149380952Y-106802380D01*
X149666666Y-106802380D01*
X149761904Y-106754761D01*
X149809523Y-106707142D01*
M02*
