G04 #@! TF.GenerationSoftware,KiCad,Pcbnew,5.1.5-52549c5~84~ubuntu18.04.1*
G04 #@! TF.CreationDate,2020-03-28T18:13:44-07:00*
G04 #@! TF.ProjectId,somos_wristband_2.0,736f6d6f-735f-4777-9269-737462616e64,rev?*
G04 #@! TF.SameCoordinates,Original*
G04 #@! TF.FileFunction,Copper,L1,Top*
G04 #@! TF.FilePolarity,Positive*
%FSLAX46Y46*%
G04 Gerber Fmt 4.6, Leading zero omitted, Abs format (unit mm)*
G04 Created by KiCad (PCBNEW 5.1.5-52549c5~84~ubuntu18.04.1) date 2020-03-28 18:13:44*
%MOMM*%
%LPD*%
G04 APERTURE LIST*
%ADD10C,2.200000*%
%ADD11R,6.000000X6.000000*%
%ADD12R,0.900000X0.250000*%
%ADD13R,0.250000X0.900000*%
%ADD14C,0.100000*%
%ADD15C,0.600000*%
%ADD16C,0.250000*%
%ADD17C,0.300000*%
%ADD18C,0.200000*%
%ADD19C,0.254000*%
G04 APERTURE END LIST*
D10*
X157000000Y-102000000D03*
X143000000Y-102000000D03*
X160000000Y-121000000D03*
X140000000Y-121000000D03*
D11*
X150000000Y-109000000D03*
D12*
X154050000Y-105750000D03*
X154050000Y-106250000D03*
X154050000Y-106750000D03*
X154050000Y-107250000D03*
X154050000Y-107750000D03*
X154050000Y-108250000D03*
X154050000Y-108750000D03*
X154050000Y-109250000D03*
X154050000Y-109750000D03*
X154050000Y-110250000D03*
X154050000Y-110750000D03*
X154050000Y-111250000D03*
X154050000Y-111750000D03*
X154050000Y-112250000D03*
X145950000Y-112250000D03*
X145950000Y-111750000D03*
X145950000Y-111250000D03*
X145950000Y-110750000D03*
X145950000Y-110250000D03*
X145950000Y-109750000D03*
X145950000Y-109250000D03*
X145950000Y-108750000D03*
X145950000Y-108250000D03*
X145950000Y-107750000D03*
X145950000Y-107250000D03*
X145950000Y-106750000D03*
X145950000Y-106250000D03*
X145950000Y-105750000D03*
D13*
X153250000Y-113050000D03*
X152750000Y-113050000D03*
X152250000Y-113050000D03*
X151750000Y-113050000D03*
X151250000Y-113050000D03*
X150750000Y-113050000D03*
X150250000Y-113050000D03*
X149750000Y-113050000D03*
X149250000Y-113050000D03*
X148750000Y-113050000D03*
X148250000Y-113050000D03*
X147750000Y-113050000D03*
X147250000Y-113050000D03*
X146750000Y-113050000D03*
X146750000Y-104950000D03*
X147250000Y-104950000D03*
X147750000Y-104950000D03*
X148250000Y-104950000D03*
X148750000Y-104950000D03*
X149250000Y-104950000D03*
X149750000Y-104950000D03*
X150250000Y-104950000D03*
X150750000Y-104950000D03*
X151250000Y-104950000D03*
X151750000Y-104950000D03*
X152250000Y-104950000D03*
X152750000Y-104950000D03*
X153250000Y-104950000D03*
G04 #@! TA.AperFunction,SMDPad,CuDef*
D14*
G36*
X138799505Y-114201204D02*
G01*
X138823773Y-114204804D01*
X138847572Y-114210765D01*
X138870671Y-114219030D01*
X138892850Y-114229520D01*
X138913893Y-114242132D01*
X138933599Y-114256747D01*
X138951777Y-114273223D01*
X138968253Y-114291401D01*
X138982868Y-114311107D01*
X138995480Y-114332150D01*
X139005970Y-114354329D01*
X139014235Y-114377428D01*
X139020196Y-114401227D01*
X139023796Y-114425495D01*
X139025000Y-114449999D01*
X139025000Y-115150001D01*
X139023796Y-115174505D01*
X139020196Y-115198773D01*
X139014235Y-115222572D01*
X139005970Y-115245671D01*
X138995480Y-115267850D01*
X138982868Y-115288893D01*
X138968253Y-115308599D01*
X138951777Y-115326777D01*
X138933599Y-115343253D01*
X138913893Y-115357868D01*
X138892850Y-115370480D01*
X138870671Y-115380970D01*
X138847572Y-115389235D01*
X138823773Y-115395196D01*
X138799505Y-115398796D01*
X138775001Y-115400000D01*
X137474999Y-115400000D01*
X137450495Y-115398796D01*
X137426227Y-115395196D01*
X137402428Y-115389235D01*
X137379329Y-115380970D01*
X137357150Y-115370480D01*
X137336107Y-115357868D01*
X137316401Y-115343253D01*
X137298223Y-115326777D01*
X137281747Y-115308599D01*
X137267132Y-115288893D01*
X137254520Y-115267850D01*
X137244030Y-115245671D01*
X137235765Y-115222572D01*
X137229804Y-115198773D01*
X137226204Y-115174505D01*
X137225000Y-115150001D01*
X137225000Y-114449999D01*
X137226204Y-114425495D01*
X137229804Y-114401227D01*
X137235765Y-114377428D01*
X137244030Y-114354329D01*
X137254520Y-114332150D01*
X137267132Y-114311107D01*
X137281747Y-114291401D01*
X137298223Y-114273223D01*
X137316401Y-114256747D01*
X137336107Y-114242132D01*
X137357150Y-114229520D01*
X137379329Y-114219030D01*
X137402428Y-114210765D01*
X137426227Y-114204804D01*
X137450495Y-114201204D01*
X137474999Y-114200000D01*
X138775001Y-114200000D01*
X138799505Y-114201204D01*
G37*
G04 #@! TD.AperFunction*
G04 #@! TA.AperFunction,SMDPad,CuDef*
G36*
X138799505Y-102601204D02*
G01*
X138823773Y-102604804D01*
X138847572Y-102610765D01*
X138870671Y-102619030D01*
X138892850Y-102629520D01*
X138913893Y-102642132D01*
X138933599Y-102656747D01*
X138951777Y-102673223D01*
X138968253Y-102691401D01*
X138982868Y-102711107D01*
X138995480Y-102732150D01*
X139005970Y-102754329D01*
X139014235Y-102777428D01*
X139020196Y-102801227D01*
X139023796Y-102825495D01*
X139025000Y-102849999D01*
X139025000Y-103550001D01*
X139023796Y-103574505D01*
X139020196Y-103598773D01*
X139014235Y-103622572D01*
X139005970Y-103645671D01*
X138995480Y-103667850D01*
X138982868Y-103688893D01*
X138968253Y-103708599D01*
X138951777Y-103726777D01*
X138933599Y-103743253D01*
X138913893Y-103757868D01*
X138892850Y-103770480D01*
X138870671Y-103780970D01*
X138847572Y-103789235D01*
X138823773Y-103795196D01*
X138799505Y-103798796D01*
X138775001Y-103800000D01*
X137474999Y-103800000D01*
X137450495Y-103798796D01*
X137426227Y-103795196D01*
X137402428Y-103789235D01*
X137379329Y-103780970D01*
X137357150Y-103770480D01*
X137336107Y-103757868D01*
X137316401Y-103743253D01*
X137298223Y-103726777D01*
X137281747Y-103708599D01*
X137267132Y-103688893D01*
X137254520Y-103667850D01*
X137244030Y-103645671D01*
X137235765Y-103622572D01*
X137229804Y-103598773D01*
X137226204Y-103574505D01*
X137225000Y-103550001D01*
X137225000Y-102849999D01*
X137226204Y-102825495D01*
X137229804Y-102801227D01*
X137235765Y-102777428D01*
X137244030Y-102754329D01*
X137254520Y-102732150D01*
X137267132Y-102711107D01*
X137281747Y-102691401D01*
X137298223Y-102673223D01*
X137316401Y-102656747D01*
X137336107Y-102642132D01*
X137357150Y-102629520D01*
X137379329Y-102619030D01*
X137402428Y-102610765D01*
X137426227Y-102604804D01*
X137450495Y-102601204D01*
X137474999Y-102600000D01*
X138775001Y-102600000D01*
X138799505Y-102601204D01*
G37*
G04 #@! TD.AperFunction*
G04 #@! TA.AperFunction,SMDPad,CuDef*
G36*
X142639703Y-113200722D02*
G01*
X142654264Y-113202882D01*
X142668543Y-113206459D01*
X142682403Y-113211418D01*
X142695710Y-113217712D01*
X142708336Y-113225280D01*
X142720159Y-113234048D01*
X142731066Y-113243934D01*
X142740952Y-113254841D01*
X142749720Y-113266664D01*
X142757288Y-113279290D01*
X142763582Y-113292597D01*
X142768541Y-113306457D01*
X142772118Y-113320736D01*
X142774278Y-113335297D01*
X142775000Y-113350000D01*
X142775000Y-113650000D01*
X142774278Y-113664703D01*
X142772118Y-113679264D01*
X142768541Y-113693543D01*
X142763582Y-113707403D01*
X142757288Y-113720710D01*
X142749720Y-113733336D01*
X142740952Y-113745159D01*
X142731066Y-113756066D01*
X142720159Y-113765952D01*
X142708336Y-113774720D01*
X142695710Y-113782288D01*
X142682403Y-113788582D01*
X142668543Y-113793541D01*
X142654264Y-113797118D01*
X142639703Y-113799278D01*
X142625000Y-113800000D01*
X141375000Y-113800000D01*
X141360297Y-113799278D01*
X141345736Y-113797118D01*
X141331457Y-113793541D01*
X141317597Y-113788582D01*
X141304290Y-113782288D01*
X141291664Y-113774720D01*
X141279841Y-113765952D01*
X141268934Y-113756066D01*
X141259048Y-113745159D01*
X141250280Y-113733336D01*
X141242712Y-113720710D01*
X141236418Y-113707403D01*
X141231459Y-113693543D01*
X141227882Y-113679264D01*
X141225722Y-113664703D01*
X141225000Y-113650000D01*
X141225000Y-113350000D01*
X141225722Y-113335297D01*
X141227882Y-113320736D01*
X141231459Y-113306457D01*
X141236418Y-113292597D01*
X141242712Y-113279290D01*
X141250280Y-113266664D01*
X141259048Y-113254841D01*
X141268934Y-113243934D01*
X141279841Y-113234048D01*
X141291664Y-113225280D01*
X141304290Y-113217712D01*
X141317597Y-113211418D01*
X141331457Y-113206459D01*
X141345736Y-113202882D01*
X141360297Y-113200722D01*
X141375000Y-113200000D01*
X142625000Y-113200000D01*
X142639703Y-113200722D01*
G37*
G04 #@! TD.AperFunction*
G04 #@! TA.AperFunction,SMDPad,CuDef*
G36*
X142639703Y-112200722D02*
G01*
X142654264Y-112202882D01*
X142668543Y-112206459D01*
X142682403Y-112211418D01*
X142695710Y-112217712D01*
X142708336Y-112225280D01*
X142720159Y-112234048D01*
X142731066Y-112243934D01*
X142740952Y-112254841D01*
X142749720Y-112266664D01*
X142757288Y-112279290D01*
X142763582Y-112292597D01*
X142768541Y-112306457D01*
X142772118Y-112320736D01*
X142774278Y-112335297D01*
X142775000Y-112350000D01*
X142775000Y-112650000D01*
X142774278Y-112664703D01*
X142772118Y-112679264D01*
X142768541Y-112693543D01*
X142763582Y-112707403D01*
X142757288Y-112720710D01*
X142749720Y-112733336D01*
X142740952Y-112745159D01*
X142731066Y-112756066D01*
X142720159Y-112765952D01*
X142708336Y-112774720D01*
X142695710Y-112782288D01*
X142682403Y-112788582D01*
X142668543Y-112793541D01*
X142654264Y-112797118D01*
X142639703Y-112799278D01*
X142625000Y-112800000D01*
X141375000Y-112800000D01*
X141360297Y-112799278D01*
X141345736Y-112797118D01*
X141331457Y-112793541D01*
X141317597Y-112788582D01*
X141304290Y-112782288D01*
X141291664Y-112774720D01*
X141279841Y-112765952D01*
X141268934Y-112756066D01*
X141259048Y-112745159D01*
X141250280Y-112733336D01*
X141242712Y-112720710D01*
X141236418Y-112707403D01*
X141231459Y-112693543D01*
X141227882Y-112679264D01*
X141225722Y-112664703D01*
X141225000Y-112650000D01*
X141225000Y-112350000D01*
X141225722Y-112335297D01*
X141227882Y-112320736D01*
X141231459Y-112306457D01*
X141236418Y-112292597D01*
X141242712Y-112279290D01*
X141250280Y-112266664D01*
X141259048Y-112254841D01*
X141268934Y-112243934D01*
X141279841Y-112234048D01*
X141291664Y-112225280D01*
X141304290Y-112217712D01*
X141317597Y-112211418D01*
X141331457Y-112206459D01*
X141345736Y-112202882D01*
X141360297Y-112200722D01*
X141375000Y-112200000D01*
X142625000Y-112200000D01*
X142639703Y-112200722D01*
G37*
G04 #@! TD.AperFunction*
G04 #@! TA.AperFunction,SMDPad,CuDef*
G36*
X142639703Y-111200722D02*
G01*
X142654264Y-111202882D01*
X142668543Y-111206459D01*
X142682403Y-111211418D01*
X142695710Y-111217712D01*
X142708336Y-111225280D01*
X142720159Y-111234048D01*
X142731066Y-111243934D01*
X142740952Y-111254841D01*
X142749720Y-111266664D01*
X142757288Y-111279290D01*
X142763582Y-111292597D01*
X142768541Y-111306457D01*
X142772118Y-111320736D01*
X142774278Y-111335297D01*
X142775000Y-111350000D01*
X142775000Y-111650000D01*
X142774278Y-111664703D01*
X142772118Y-111679264D01*
X142768541Y-111693543D01*
X142763582Y-111707403D01*
X142757288Y-111720710D01*
X142749720Y-111733336D01*
X142740952Y-111745159D01*
X142731066Y-111756066D01*
X142720159Y-111765952D01*
X142708336Y-111774720D01*
X142695710Y-111782288D01*
X142682403Y-111788582D01*
X142668543Y-111793541D01*
X142654264Y-111797118D01*
X142639703Y-111799278D01*
X142625000Y-111800000D01*
X141375000Y-111800000D01*
X141360297Y-111799278D01*
X141345736Y-111797118D01*
X141331457Y-111793541D01*
X141317597Y-111788582D01*
X141304290Y-111782288D01*
X141291664Y-111774720D01*
X141279841Y-111765952D01*
X141268934Y-111756066D01*
X141259048Y-111745159D01*
X141250280Y-111733336D01*
X141242712Y-111720710D01*
X141236418Y-111707403D01*
X141231459Y-111693543D01*
X141227882Y-111679264D01*
X141225722Y-111664703D01*
X141225000Y-111650000D01*
X141225000Y-111350000D01*
X141225722Y-111335297D01*
X141227882Y-111320736D01*
X141231459Y-111306457D01*
X141236418Y-111292597D01*
X141242712Y-111279290D01*
X141250280Y-111266664D01*
X141259048Y-111254841D01*
X141268934Y-111243934D01*
X141279841Y-111234048D01*
X141291664Y-111225280D01*
X141304290Y-111217712D01*
X141317597Y-111211418D01*
X141331457Y-111206459D01*
X141345736Y-111202882D01*
X141360297Y-111200722D01*
X141375000Y-111200000D01*
X142625000Y-111200000D01*
X142639703Y-111200722D01*
G37*
G04 #@! TD.AperFunction*
G04 #@! TA.AperFunction,SMDPad,CuDef*
G36*
X142639703Y-110200722D02*
G01*
X142654264Y-110202882D01*
X142668543Y-110206459D01*
X142682403Y-110211418D01*
X142695710Y-110217712D01*
X142708336Y-110225280D01*
X142720159Y-110234048D01*
X142731066Y-110243934D01*
X142740952Y-110254841D01*
X142749720Y-110266664D01*
X142757288Y-110279290D01*
X142763582Y-110292597D01*
X142768541Y-110306457D01*
X142772118Y-110320736D01*
X142774278Y-110335297D01*
X142775000Y-110350000D01*
X142775000Y-110650000D01*
X142774278Y-110664703D01*
X142772118Y-110679264D01*
X142768541Y-110693543D01*
X142763582Y-110707403D01*
X142757288Y-110720710D01*
X142749720Y-110733336D01*
X142740952Y-110745159D01*
X142731066Y-110756066D01*
X142720159Y-110765952D01*
X142708336Y-110774720D01*
X142695710Y-110782288D01*
X142682403Y-110788582D01*
X142668543Y-110793541D01*
X142654264Y-110797118D01*
X142639703Y-110799278D01*
X142625000Y-110800000D01*
X141375000Y-110800000D01*
X141360297Y-110799278D01*
X141345736Y-110797118D01*
X141331457Y-110793541D01*
X141317597Y-110788582D01*
X141304290Y-110782288D01*
X141291664Y-110774720D01*
X141279841Y-110765952D01*
X141268934Y-110756066D01*
X141259048Y-110745159D01*
X141250280Y-110733336D01*
X141242712Y-110720710D01*
X141236418Y-110707403D01*
X141231459Y-110693543D01*
X141227882Y-110679264D01*
X141225722Y-110664703D01*
X141225000Y-110650000D01*
X141225000Y-110350000D01*
X141225722Y-110335297D01*
X141227882Y-110320736D01*
X141231459Y-110306457D01*
X141236418Y-110292597D01*
X141242712Y-110279290D01*
X141250280Y-110266664D01*
X141259048Y-110254841D01*
X141268934Y-110243934D01*
X141279841Y-110234048D01*
X141291664Y-110225280D01*
X141304290Y-110217712D01*
X141317597Y-110211418D01*
X141331457Y-110206459D01*
X141345736Y-110202882D01*
X141360297Y-110200722D01*
X141375000Y-110200000D01*
X142625000Y-110200000D01*
X142639703Y-110200722D01*
G37*
G04 #@! TD.AperFunction*
G04 #@! TA.AperFunction,SMDPad,CuDef*
G36*
X142639703Y-109200722D02*
G01*
X142654264Y-109202882D01*
X142668543Y-109206459D01*
X142682403Y-109211418D01*
X142695710Y-109217712D01*
X142708336Y-109225280D01*
X142720159Y-109234048D01*
X142731066Y-109243934D01*
X142740952Y-109254841D01*
X142749720Y-109266664D01*
X142757288Y-109279290D01*
X142763582Y-109292597D01*
X142768541Y-109306457D01*
X142772118Y-109320736D01*
X142774278Y-109335297D01*
X142775000Y-109350000D01*
X142775000Y-109650000D01*
X142774278Y-109664703D01*
X142772118Y-109679264D01*
X142768541Y-109693543D01*
X142763582Y-109707403D01*
X142757288Y-109720710D01*
X142749720Y-109733336D01*
X142740952Y-109745159D01*
X142731066Y-109756066D01*
X142720159Y-109765952D01*
X142708336Y-109774720D01*
X142695710Y-109782288D01*
X142682403Y-109788582D01*
X142668543Y-109793541D01*
X142654264Y-109797118D01*
X142639703Y-109799278D01*
X142625000Y-109800000D01*
X141375000Y-109800000D01*
X141360297Y-109799278D01*
X141345736Y-109797118D01*
X141331457Y-109793541D01*
X141317597Y-109788582D01*
X141304290Y-109782288D01*
X141291664Y-109774720D01*
X141279841Y-109765952D01*
X141268934Y-109756066D01*
X141259048Y-109745159D01*
X141250280Y-109733336D01*
X141242712Y-109720710D01*
X141236418Y-109707403D01*
X141231459Y-109693543D01*
X141227882Y-109679264D01*
X141225722Y-109664703D01*
X141225000Y-109650000D01*
X141225000Y-109350000D01*
X141225722Y-109335297D01*
X141227882Y-109320736D01*
X141231459Y-109306457D01*
X141236418Y-109292597D01*
X141242712Y-109279290D01*
X141250280Y-109266664D01*
X141259048Y-109254841D01*
X141268934Y-109243934D01*
X141279841Y-109234048D01*
X141291664Y-109225280D01*
X141304290Y-109217712D01*
X141317597Y-109211418D01*
X141331457Y-109206459D01*
X141345736Y-109202882D01*
X141360297Y-109200722D01*
X141375000Y-109200000D01*
X142625000Y-109200000D01*
X142639703Y-109200722D01*
G37*
G04 #@! TD.AperFunction*
G04 #@! TA.AperFunction,SMDPad,CuDef*
G36*
X142639703Y-108200722D02*
G01*
X142654264Y-108202882D01*
X142668543Y-108206459D01*
X142682403Y-108211418D01*
X142695710Y-108217712D01*
X142708336Y-108225280D01*
X142720159Y-108234048D01*
X142731066Y-108243934D01*
X142740952Y-108254841D01*
X142749720Y-108266664D01*
X142757288Y-108279290D01*
X142763582Y-108292597D01*
X142768541Y-108306457D01*
X142772118Y-108320736D01*
X142774278Y-108335297D01*
X142775000Y-108350000D01*
X142775000Y-108650000D01*
X142774278Y-108664703D01*
X142772118Y-108679264D01*
X142768541Y-108693543D01*
X142763582Y-108707403D01*
X142757288Y-108720710D01*
X142749720Y-108733336D01*
X142740952Y-108745159D01*
X142731066Y-108756066D01*
X142720159Y-108765952D01*
X142708336Y-108774720D01*
X142695710Y-108782288D01*
X142682403Y-108788582D01*
X142668543Y-108793541D01*
X142654264Y-108797118D01*
X142639703Y-108799278D01*
X142625000Y-108800000D01*
X141375000Y-108800000D01*
X141360297Y-108799278D01*
X141345736Y-108797118D01*
X141331457Y-108793541D01*
X141317597Y-108788582D01*
X141304290Y-108782288D01*
X141291664Y-108774720D01*
X141279841Y-108765952D01*
X141268934Y-108756066D01*
X141259048Y-108745159D01*
X141250280Y-108733336D01*
X141242712Y-108720710D01*
X141236418Y-108707403D01*
X141231459Y-108693543D01*
X141227882Y-108679264D01*
X141225722Y-108664703D01*
X141225000Y-108650000D01*
X141225000Y-108350000D01*
X141225722Y-108335297D01*
X141227882Y-108320736D01*
X141231459Y-108306457D01*
X141236418Y-108292597D01*
X141242712Y-108279290D01*
X141250280Y-108266664D01*
X141259048Y-108254841D01*
X141268934Y-108243934D01*
X141279841Y-108234048D01*
X141291664Y-108225280D01*
X141304290Y-108217712D01*
X141317597Y-108211418D01*
X141331457Y-108206459D01*
X141345736Y-108202882D01*
X141360297Y-108200722D01*
X141375000Y-108200000D01*
X142625000Y-108200000D01*
X142639703Y-108200722D01*
G37*
G04 #@! TD.AperFunction*
G04 #@! TA.AperFunction,SMDPad,CuDef*
G36*
X142639703Y-107200722D02*
G01*
X142654264Y-107202882D01*
X142668543Y-107206459D01*
X142682403Y-107211418D01*
X142695710Y-107217712D01*
X142708336Y-107225280D01*
X142720159Y-107234048D01*
X142731066Y-107243934D01*
X142740952Y-107254841D01*
X142749720Y-107266664D01*
X142757288Y-107279290D01*
X142763582Y-107292597D01*
X142768541Y-107306457D01*
X142772118Y-107320736D01*
X142774278Y-107335297D01*
X142775000Y-107350000D01*
X142775000Y-107650000D01*
X142774278Y-107664703D01*
X142772118Y-107679264D01*
X142768541Y-107693543D01*
X142763582Y-107707403D01*
X142757288Y-107720710D01*
X142749720Y-107733336D01*
X142740952Y-107745159D01*
X142731066Y-107756066D01*
X142720159Y-107765952D01*
X142708336Y-107774720D01*
X142695710Y-107782288D01*
X142682403Y-107788582D01*
X142668543Y-107793541D01*
X142654264Y-107797118D01*
X142639703Y-107799278D01*
X142625000Y-107800000D01*
X141375000Y-107800000D01*
X141360297Y-107799278D01*
X141345736Y-107797118D01*
X141331457Y-107793541D01*
X141317597Y-107788582D01*
X141304290Y-107782288D01*
X141291664Y-107774720D01*
X141279841Y-107765952D01*
X141268934Y-107756066D01*
X141259048Y-107745159D01*
X141250280Y-107733336D01*
X141242712Y-107720710D01*
X141236418Y-107707403D01*
X141231459Y-107693543D01*
X141227882Y-107679264D01*
X141225722Y-107664703D01*
X141225000Y-107650000D01*
X141225000Y-107350000D01*
X141225722Y-107335297D01*
X141227882Y-107320736D01*
X141231459Y-107306457D01*
X141236418Y-107292597D01*
X141242712Y-107279290D01*
X141250280Y-107266664D01*
X141259048Y-107254841D01*
X141268934Y-107243934D01*
X141279841Y-107234048D01*
X141291664Y-107225280D01*
X141304290Y-107217712D01*
X141317597Y-107211418D01*
X141331457Y-107206459D01*
X141345736Y-107202882D01*
X141360297Y-107200722D01*
X141375000Y-107200000D01*
X142625000Y-107200000D01*
X142639703Y-107200722D01*
G37*
G04 #@! TD.AperFunction*
G04 #@! TA.AperFunction,SMDPad,CuDef*
G36*
X142639703Y-106200722D02*
G01*
X142654264Y-106202882D01*
X142668543Y-106206459D01*
X142682403Y-106211418D01*
X142695710Y-106217712D01*
X142708336Y-106225280D01*
X142720159Y-106234048D01*
X142731066Y-106243934D01*
X142740952Y-106254841D01*
X142749720Y-106266664D01*
X142757288Y-106279290D01*
X142763582Y-106292597D01*
X142768541Y-106306457D01*
X142772118Y-106320736D01*
X142774278Y-106335297D01*
X142775000Y-106350000D01*
X142775000Y-106650000D01*
X142774278Y-106664703D01*
X142772118Y-106679264D01*
X142768541Y-106693543D01*
X142763582Y-106707403D01*
X142757288Y-106720710D01*
X142749720Y-106733336D01*
X142740952Y-106745159D01*
X142731066Y-106756066D01*
X142720159Y-106765952D01*
X142708336Y-106774720D01*
X142695710Y-106782288D01*
X142682403Y-106788582D01*
X142668543Y-106793541D01*
X142654264Y-106797118D01*
X142639703Y-106799278D01*
X142625000Y-106800000D01*
X141375000Y-106800000D01*
X141360297Y-106799278D01*
X141345736Y-106797118D01*
X141331457Y-106793541D01*
X141317597Y-106788582D01*
X141304290Y-106782288D01*
X141291664Y-106774720D01*
X141279841Y-106765952D01*
X141268934Y-106756066D01*
X141259048Y-106745159D01*
X141250280Y-106733336D01*
X141242712Y-106720710D01*
X141236418Y-106707403D01*
X141231459Y-106693543D01*
X141227882Y-106679264D01*
X141225722Y-106664703D01*
X141225000Y-106650000D01*
X141225000Y-106350000D01*
X141225722Y-106335297D01*
X141227882Y-106320736D01*
X141231459Y-106306457D01*
X141236418Y-106292597D01*
X141242712Y-106279290D01*
X141250280Y-106266664D01*
X141259048Y-106254841D01*
X141268934Y-106243934D01*
X141279841Y-106234048D01*
X141291664Y-106225280D01*
X141304290Y-106217712D01*
X141317597Y-106211418D01*
X141331457Y-106206459D01*
X141345736Y-106202882D01*
X141360297Y-106200722D01*
X141375000Y-106200000D01*
X142625000Y-106200000D01*
X142639703Y-106200722D01*
G37*
G04 #@! TD.AperFunction*
G04 #@! TA.AperFunction,SMDPad,CuDef*
G36*
X142639703Y-105200722D02*
G01*
X142654264Y-105202882D01*
X142668543Y-105206459D01*
X142682403Y-105211418D01*
X142695710Y-105217712D01*
X142708336Y-105225280D01*
X142720159Y-105234048D01*
X142731066Y-105243934D01*
X142740952Y-105254841D01*
X142749720Y-105266664D01*
X142757288Y-105279290D01*
X142763582Y-105292597D01*
X142768541Y-105306457D01*
X142772118Y-105320736D01*
X142774278Y-105335297D01*
X142775000Y-105350000D01*
X142775000Y-105650000D01*
X142774278Y-105664703D01*
X142772118Y-105679264D01*
X142768541Y-105693543D01*
X142763582Y-105707403D01*
X142757288Y-105720710D01*
X142749720Y-105733336D01*
X142740952Y-105745159D01*
X142731066Y-105756066D01*
X142720159Y-105765952D01*
X142708336Y-105774720D01*
X142695710Y-105782288D01*
X142682403Y-105788582D01*
X142668543Y-105793541D01*
X142654264Y-105797118D01*
X142639703Y-105799278D01*
X142625000Y-105800000D01*
X141375000Y-105800000D01*
X141360297Y-105799278D01*
X141345736Y-105797118D01*
X141331457Y-105793541D01*
X141317597Y-105788582D01*
X141304290Y-105782288D01*
X141291664Y-105774720D01*
X141279841Y-105765952D01*
X141268934Y-105756066D01*
X141259048Y-105745159D01*
X141250280Y-105733336D01*
X141242712Y-105720710D01*
X141236418Y-105707403D01*
X141231459Y-105693543D01*
X141227882Y-105679264D01*
X141225722Y-105664703D01*
X141225000Y-105650000D01*
X141225000Y-105350000D01*
X141225722Y-105335297D01*
X141227882Y-105320736D01*
X141231459Y-105306457D01*
X141236418Y-105292597D01*
X141242712Y-105279290D01*
X141250280Y-105266664D01*
X141259048Y-105254841D01*
X141268934Y-105243934D01*
X141279841Y-105234048D01*
X141291664Y-105225280D01*
X141304290Y-105217712D01*
X141317597Y-105211418D01*
X141331457Y-105206459D01*
X141345736Y-105202882D01*
X141360297Y-105200722D01*
X141375000Y-105200000D01*
X142625000Y-105200000D01*
X142639703Y-105200722D01*
G37*
G04 #@! TD.AperFunction*
G04 #@! TA.AperFunction,SMDPad,CuDef*
G36*
X142639703Y-104200722D02*
G01*
X142654264Y-104202882D01*
X142668543Y-104206459D01*
X142682403Y-104211418D01*
X142695710Y-104217712D01*
X142708336Y-104225280D01*
X142720159Y-104234048D01*
X142731066Y-104243934D01*
X142740952Y-104254841D01*
X142749720Y-104266664D01*
X142757288Y-104279290D01*
X142763582Y-104292597D01*
X142768541Y-104306457D01*
X142772118Y-104320736D01*
X142774278Y-104335297D01*
X142775000Y-104350000D01*
X142775000Y-104650000D01*
X142774278Y-104664703D01*
X142772118Y-104679264D01*
X142768541Y-104693543D01*
X142763582Y-104707403D01*
X142757288Y-104720710D01*
X142749720Y-104733336D01*
X142740952Y-104745159D01*
X142731066Y-104756066D01*
X142720159Y-104765952D01*
X142708336Y-104774720D01*
X142695710Y-104782288D01*
X142682403Y-104788582D01*
X142668543Y-104793541D01*
X142654264Y-104797118D01*
X142639703Y-104799278D01*
X142625000Y-104800000D01*
X141375000Y-104800000D01*
X141360297Y-104799278D01*
X141345736Y-104797118D01*
X141331457Y-104793541D01*
X141317597Y-104788582D01*
X141304290Y-104782288D01*
X141291664Y-104774720D01*
X141279841Y-104765952D01*
X141268934Y-104756066D01*
X141259048Y-104745159D01*
X141250280Y-104733336D01*
X141242712Y-104720710D01*
X141236418Y-104707403D01*
X141231459Y-104693543D01*
X141227882Y-104679264D01*
X141225722Y-104664703D01*
X141225000Y-104650000D01*
X141225000Y-104350000D01*
X141225722Y-104335297D01*
X141227882Y-104320736D01*
X141231459Y-104306457D01*
X141236418Y-104292597D01*
X141242712Y-104279290D01*
X141250280Y-104266664D01*
X141259048Y-104254841D01*
X141268934Y-104243934D01*
X141279841Y-104234048D01*
X141291664Y-104225280D01*
X141304290Y-104217712D01*
X141317597Y-104211418D01*
X141331457Y-104206459D01*
X141345736Y-104202882D01*
X141360297Y-104200722D01*
X141375000Y-104200000D01*
X142625000Y-104200000D01*
X142639703Y-104200722D01*
G37*
G04 #@! TD.AperFunction*
G04 #@! TA.AperFunction,SMDPad,CuDef*
G36*
X162549505Y-102601204D02*
G01*
X162573773Y-102604804D01*
X162597572Y-102610765D01*
X162620671Y-102619030D01*
X162642850Y-102629520D01*
X162663893Y-102642132D01*
X162683599Y-102656747D01*
X162701777Y-102673223D01*
X162718253Y-102691401D01*
X162732868Y-102711107D01*
X162745480Y-102732150D01*
X162755970Y-102754329D01*
X162764235Y-102777428D01*
X162770196Y-102801227D01*
X162773796Y-102825495D01*
X162775000Y-102849999D01*
X162775000Y-103550001D01*
X162773796Y-103574505D01*
X162770196Y-103598773D01*
X162764235Y-103622572D01*
X162755970Y-103645671D01*
X162745480Y-103667850D01*
X162732868Y-103688893D01*
X162718253Y-103708599D01*
X162701777Y-103726777D01*
X162683599Y-103743253D01*
X162663893Y-103757868D01*
X162642850Y-103770480D01*
X162620671Y-103780970D01*
X162597572Y-103789235D01*
X162573773Y-103795196D01*
X162549505Y-103798796D01*
X162525001Y-103800000D01*
X161224999Y-103800000D01*
X161200495Y-103798796D01*
X161176227Y-103795196D01*
X161152428Y-103789235D01*
X161129329Y-103780970D01*
X161107150Y-103770480D01*
X161086107Y-103757868D01*
X161066401Y-103743253D01*
X161048223Y-103726777D01*
X161031747Y-103708599D01*
X161017132Y-103688893D01*
X161004520Y-103667850D01*
X160994030Y-103645671D01*
X160985765Y-103622572D01*
X160979804Y-103598773D01*
X160976204Y-103574505D01*
X160975000Y-103550001D01*
X160975000Y-102849999D01*
X160976204Y-102825495D01*
X160979804Y-102801227D01*
X160985765Y-102777428D01*
X160994030Y-102754329D01*
X161004520Y-102732150D01*
X161017132Y-102711107D01*
X161031747Y-102691401D01*
X161048223Y-102673223D01*
X161066401Y-102656747D01*
X161086107Y-102642132D01*
X161107150Y-102629520D01*
X161129329Y-102619030D01*
X161152428Y-102610765D01*
X161176227Y-102604804D01*
X161200495Y-102601204D01*
X161224999Y-102600000D01*
X162525001Y-102600000D01*
X162549505Y-102601204D01*
G37*
G04 #@! TD.AperFunction*
G04 #@! TA.AperFunction,SMDPad,CuDef*
G36*
X162549505Y-114201204D02*
G01*
X162573773Y-114204804D01*
X162597572Y-114210765D01*
X162620671Y-114219030D01*
X162642850Y-114229520D01*
X162663893Y-114242132D01*
X162683599Y-114256747D01*
X162701777Y-114273223D01*
X162718253Y-114291401D01*
X162732868Y-114311107D01*
X162745480Y-114332150D01*
X162755970Y-114354329D01*
X162764235Y-114377428D01*
X162770196Y-114401227D01*
X162773796Y-114425495D01*
X162775000Y-114449999D01*
X162775000Y-115150001D01*
X162773796Y-115174505D01*
X162770196Y-115198773D01*
X162764235Y-115222572D01*
X162755970Y-115245671D01*
X162745480Y-115267850D01*
X162732868Y-115288893D01*
X162718253Y-115308599D01*
X162701777Y-115326777D01*
X162683599Y-115343253D01*
X162663893Y-115357868D01*
X162642850Y-115370480D01*
X162620671Y-115380970D01*
X162597572Y-115389235D01*
X162573773Y-115395196D01*
X162549505Y-115398796D01*
X162525001Y-115400000D01*
X161224999Y-115400000D01*
X161200495Y-115398796D01*
X161176227Y-115395196D01*
X161152428Y-115389235D01*
X161129329Y-115380970D01*
X161107150Y-115370480D01*
X161086107Y-115357868D01*
X161066401Y-115343253D01*
X161048223Y-115326777D01*
X161031747Y-115308599D01*
X161017132Y-115288893D01*
X161004520Y-115267850D01*
X160994030Y-115245671D01*
X160985765Y-115222572D01*
X160979804Y-115198773D01*
X160976204Y-115174505D01*
X160975000Y-115150001D01*
X160975000Y-114449999D01*
X160976204Y-114425495D01*
X160979804Y-114401227D01*
X160985765Y-114377428D01*
X160994030Y-114354329D01*
X161004520Y-114332150D01*
X161017132Y-114311107D01*
X161031747Y-114291401D01*
X161048223Y-114273223D01*
X161066401Y-114256747D01*
X161086107Y-114242132D01*
X161107150Y-114229520D01*
X161129329Y-114219030D01*
X161152428Y-114210765D01*
X161176227Y-114204804D01*
X161200495Y-114201204D01*
X161224999Y-114200000D01*
X162525001Y-114200000D01*
X162549505Y-114201204D01*
G37*
G04 #@! TD.AperFunction*
G04 #@! TA.AperFunction,SMDPad,CuDef*
G36*
X158639703Y-104200722D02*
G01*
X158654264Y-104202882D01*
X158668543Y-104206459D01*
X158682403Y-104211418D01*
X158695710Y-104217712D01*
X158708336Y-104225280D01*
X158720159Y-104234048D01*
X158731066Y-104243934D01*
X158740952Y-104254841D01*
X158749720Y-104266664D01*
X158757288Y-104279290D01*
X158763582Y-104292597D01*
X158768541Y-104306457D01*
X158772118Y-104320736D01*
X158774278Y-104335297D01*
X158775000Y-104350000D01*
X158775000Y-104650000D01*
X158774278Y-104664703D01*
X158772118Y-104679264D01*
X158768541Y-104693543D01*
X158763582Y-104707403D01*
X158757288Y-104720710D01*
X158749720Y-104733336D01*
X158740952Y-104745159D01*
X158731066Y-104756066D01*
X158720159Y-104765952D01*
X158708336Y-104774720D01*
X158695710Y-104782288D01*
X158682403Y-104788582D01*
X158668543Y-104793541D01*
X158654264Y-104797118D01*
X158639703Y-104799278D01*
X158625000Y-104800000D01*
X157375000Y-104800000D01*
X157360297Y-104799278D01*
X157345736Y-104797118D01*
X157331457Y-104793541D01*
X157317597Y-104788582D01*
X157304290Y-104782288D01*
X157291664Y-104774720D01*
X157279841Y-104765952D01*
X157268934Y-104756066D01*
X157259048Y-104745159D01*
X157250280Y-104733336D01*
X157242712Y-104720710D01*
X157236418Y-104707403D01*
X157231459Y-104693543D01*
X157227882Y-104679264D01*
X157225722Y-104664703D01*
X157225000Y-104650000D01*
X157225000Y-104350000D01*
X157225722Y-104335297D01*
X157227882Y-104320736D01*
X157231459Y-104306457D01*
X157236418Y-104292597D01*
X157242712Y-104279290D01*
X157250280Y-104266664D01*
X157259048Y-104254841D01*
X157268934Y-104243934D01*
X157279841Y-104234048D01*
X157291664Y-104225280D01*
X157304290Y-104217712D01*
X157317597Y-104211418D01*
X157331457Y-104206459D01*
X157345736Y-104202882D01*
X157360297Y-104200722D01*
X157375000Y-104200000D01*
X158625000Y-104200000D01*
X158639703Y-104200722D01*
G37*
G04 #@! TD.AperFunction*
G04 #@! TA.AperFunction,SMDPad,CuDef*
G36*
X158639703Y-105200722D02*
G01*
X158654264Y-105202882D01*
X158668543Y-105206459D01*
X158682403Y-105211418D01*
X158695710Y-105217712D01*
X158708336Y-105225280D01*
X158720159Y-105234048D01*
X158731066Y-105243934D01*
X158740952Y-105254841D01*
X158749720Y-105266664D01*
X158757288Y-105279290D01*
X158763582Y-105292597D01*
X158768541Y-105306457D01*
X158772118Y-105320736D01*
X158774278Y-105335297D01*
X158775000Y-105350000D01*
X158775000Y-105650000D01*
X158774278Y-105664703D01*
X158772118Y-105679264D01*
X158768541Y-105693543D01*
X158763582Y-105707403D01*
X158757288Y-105720710D01*
X158749720Y-105733336D01*
X158740952Y-105745159D01*
X158731066Y-105756066D01*
X158720159Y-105765952D01*
X158708336Y-105774720D01*
X158695710Y-105782288D01*
X158682403Y-105788582D01*
X158668543Y-105793541D01*
X158654264Y-105797118D01*
X158639703Y-105799278D01*
X158625000Y-105800000D01*
X157375000Y-105800000D01*
X157360297Y-105799278D01*
X157345736Y-105797118D01*
X157331457Y-105793541D01*
X157317597Y-105788582D01*
X157304290Y-105782288D01*
X157291664Y-105774720D01*
X157279841Y-105765952D01*
X157268934Y-105756066D01*
X157259048Y-105745159D01*
X157250280Y-105733336D01*
X157242712Y-105720710D01*
X157236418Y-105707403D01*
X157231459Y-105693543D01*
X157227882Y-105679264D01*
X157225722Y-105664703D01*
X157225000Y-105650000D01*
X157225000Y-105350000D01*
X157225722Y-105335297D01*
X157227882Y-105320736D01*
X157231459Y-105306457D01*
X157236418Y-105292597D01*
X157242712Y-105279290D01*
X157250280Y-105266664D01*
X157259048Y-105254841D01*
X157268934Y-105243934D01*
X157279841Y-105234048D01*
X157291664Y-105225280D01*
X157304290Y-105217712D01*
X157317597Y-105211418D01*
X157331457Y-105206459D01*
X157345736Y-105202882D01*
X157360297Y-105200722D01*
X157375000Y-105200000D01*
X158625000Y-105200000D01*
X158639703Y-105200722D01*
G37*
G04 #@! TD.AperFunction*
G04 #@! TA.AperFunction,SMDPad,CuDef*
G36*
X158639703Y-106200722D02*
G01*
X158654264Y-106202882D01*
X158668543Y-106206459D01*
X158682403Y-106211418D01*
X158695710Y-106217712D01*
X158708336Y-106225280D01*
X158720159Y-106234048D01*
X158731066Y-106243934D01*
X158740952Y-106254841D01*
X158749720Y-106266664D01*
X158757288Y-106279290D01*
X158763582Y-106292597D01*
X158768541Y-106306457D01*
X158772118Y-106320736D01*
X158774278Y-106335297D01*
X158775000Y-106350000D01*
X158775000Y-106650000D01*
X158774278Y-106664703D01*
X158772118Y-106679264D01*
X158768541Y-106693543D01*
X158763582Y-106707403D01*
X158757288Y-106720710D01*
X158749720Y-106733336D01*
X158740952Y-106745159D01*
X158731066Y-106756066D01*
X158720159Y-106765952D01*
X158708336Y-106774720D01*
X158695710Y-106782288D01*
X158682403Y-106788582D01*
X158668543Y-106793541D01*
X158654264Y-106797118D01*
X158639703Y-106799278D01*
X158625000Y-106800000D01*
X157375000Y-106800000D01*
X157360297Y-106799278D01*
X157345736Y-106797118D01*
X157331457Y-106793541D01*
X157317597Y-106788582D01*
X157304290Y-106782288D01*
X157291664Y-106774720D01*
X157279841Y-106765952D01*
X157268934Y-106756066D01*
X157259048Y-106745159D01*
X157250280Y-106733336D01*
X157242712Y-106720710D01*
X157236418Y-106707403D01*
X157231459Y-106693543D01*
X157227882Y-106679264D01*
X157225722Y-106664703D01*
X157225000Y-106650000D01*
X157225000Y-106350000D01*
X157225722Y-106335297D01*
X157227882Y-106320736D01*
X157231459Y-106306457D01*
X157236418Y-106292597D01*
X157242712Y-106279290D01*
X157250280Y-106266664D01*
X157259048Y-106254841D01*
X157268934Y-106243934D01*
X157279841Y-106234048D01*
X157291664Y-106225280D01*
X157304290Y-106217712D01*
X157317597Y-106211418D01*
X157331457Y-106206459D01*
X157345736Y-106202882D01*
X157360297Y-106200722D01*
X157375000Y-106200000D01*
X158625000Y-106200000D01*
X158639703Y-106200722D01*
G37*
G04 #@! TD.AperFunction*
G04 #@! TA.AperFunction,SMDPad,CuDef*
G36*
X158639703Y-107200722D02*
G01*
X158654264Y-107202882D01*
X158668543Y-107206459D01*
X158682403Y-107211418D01*
X158695710Y-107217712D01*
X158708336Y-107225280D01*
X158720159Y-107234048D01*
X158731066Y-107243934D01*
X158740952Y-107254841D01*
X158749720Y-107266664D01*
X158757288Y-107279290D01*
X158763582Y-107292597D01*
X158768541Y-107306457D01*
X158772118Y-107320736D01*
X158774278Y-107335297D01*
X158775000Y-107350000D01*
X158775000Y-107650000D01*
X158774278Y-107664703D01*
X158772118Y-107679264D01*
X158768541Y-107693543D01*
X158763582Y-107707403D01*
X158757288Y-107720710D01*
X158749720Y-107733336D01*
X158740952Y-107745159D01*
X158731066Y-107756066D01*
X158720159Y-107765952D01*
X158708336Y-107774720D01*
X158695710Y-107782288D01*
X158682403Y-107788582D01*
X158668543Y-107793541D01*
X158654264Y-107797118D01*
X158639703Y-107799278D01*
X158625000Y-107800000D01*
X157375000Y-107800000D01*
X157360297Y-107799278D01*
X157345736Y-107797118D01*
X157331457Y-107793541D01*
X157317597Y-107788582D01*
X157304290Y-107782288D01*
X157291664Y-107774720D01*
X157279841Y-107765952D01*
X157268934Y-107756066D01*
X157259048Y-107745159D01*
X157250280Y-107733336D01*
X157242712Y-107720710D01*
X157236418Y-107707403D01*
X157231459Y-107693543D01*
X157227882Y-107679264D01*
X157225722Y-107664703D01*
X157225000Y-107650000D01*
X157225000Y-107350000D01*
X157225722Y-107335297D01*
X157227882Y-107320736D01*
X157231459Y-107306457D01*
X157236418Y-107292597D01*
X157242712Y-107279290D01*
X157250280Y-107266664D01*
X157259048Y-107254841D01*
X157268934Y-107243934D01*
X157279841Y-107234048D01*
X157291664Y-107225280D01*
X157304290Y-107217712D01*
X157317597Y-107211418D01*
X157331457Y-107206459D01*
X157345736Y-107202882D01*
X157360297Y-107200722D01*
X157375000Y-107200000D01*
X158625000Y-107200000D01*
X158639703Y-107200722D01*
G37*
G04 #@! TD.AperFunction*
G04 #@! TA.AperFunction,SMDPad,CuDef*
G36*
X158639703Y-108200722D02*
G01*
X158654264Y-108202882D01*
X158668543Y-108206459D01*
X158682403Y-108211418D01*
X158695710Y-108217712D01*
X158708336Y-108225280D01*
X158720159Y-108234048D01*
X158731066Y-108243934D01*
X158740952Y-108254841D01*
X158749720Y-108266664D01*
X158757288Y-108279290D01*
X158763582Y-108292597D01*
X158768541Y-108306457D01*
X158772118Y-108320736D01*
X158774278Y-108335297D01*
X158775000Y-108350000D01*
X158775000Y-108650000D01*
X158774278Y-108664703D01*
X158772118Y-108679264D01*
X158768541Y-108693543D01*
X158763582Y-108707403D01*
X158757288Y-108720710D01*
X158749720Y-108733336D01*
X158740952Y-108745159D01*
X158731066Y-108756066D01*
X158720159Y-108765952D01*
X158708336Y-108774720D01*
X158695710Y-108782288D01*
X158682403Y-108788582D01*
X158668543Y-108793541D01*
X158654264Y-108797118D01*
X158639703Y-108799278D01*
X158625000Y-108800000D01*
X157375000Y-108800000D01*
X157360297Y-108799278D01*
X157345736Y-108797118D01*
X157331457Y-108793541D01*
X157317597Y-108788582D01*
X157304290Y-108782288D01*
X157291664Y-108774720D01*
X157279841Y-108765952D01*
X157268934Y-108756066D01*
X157259048Y-108745159D01*
X157250280Y-108733336D01*
X157242712Y-108720710D01*
X157236418Y-108707403D01*
X157231459Y-108693543D01*
X157227882Y-108679264D01*
X157225722Y-108664703D01*
X157225000Y-108650000D01*
X157225000Y-108350000D01*
X157225722Y-108335297D01*
X157227882Y-108320736D01*
X157231459Y-108306457D01*
X157236418Y-108292597D01*
X157242712Y-108279290D01*
X157250280Y-108266664D01*
X157259048Y-108254841D01*
X157268934Y-108243934D01*
X157279841Y-108234048D01*
X157291664Y-108225280D01*
X157304290Y-108217712D01*
X157317597Y-108211418D01*
X157331457Y-108206459D01*
X157345736Y-108202882D01*
X157360297Y-108200722D01*
X157375000Y-108200000D01*
X158625000Y-108200000D01*
X158639703Y-108200722D01*
G37*
G04 #@! TD.AperFunction*
G04 #@! TA.AperFunction,SMDPad,CuDef*
G36*
X158639703Y-109200722D02*
G01*
X158654264Y-109202882D01*
X158668543Y-109206459D01*
X158682403Y-109211418D01*
X158695710Y-109217712D01*
X158708336Y-109225280D01*
X158720159Y-109234048D01*
X158731066Y-109243934D01*
X158740952Y-109254841D01*
X158749720Y-109266664D01*
X158757288Y-109279290D01*
X158763582Y-109292597D01*
X158768541Y-109306457D01*
X158772118Y-109320736D01*
X158774278Y-109335297D01*
X158775000Y-109350000D01*
X158775000Y-109650000D01*
X158774278Y-109664703D01*
X158772118Y-109679264D01*
X158768541Y-109693543D01*
X158763582Y-109707403D01*
X158757288Y-109720710D01*
X158749720Y-109733336D01*
X158740952Y-109745159D01*
X158731066Y-109756066D01*
X158720159Y-109765952D01*
X158708336Y-109774720D01*
X158695710Y-109782288D01*
X158682403Y-109788582D01*
X158668543Y-109793541D01*
X158654264Y-109797118D01*
X158639703Y-109799278D01*
X158625000Y-109800000D01*
X157375000Y-109800000D01*
X157360297Y-109799278D01*
X157345736Y-109797118D01*
X157331457Y-109793541D01*
X157317597Y-109788582D01*
X157304290Y-109782288D01*
X157291664Y-109774720D01*
X157279841Y-109765952D01*
X157268934Y-109756066D01*
X157259048Y-109745159D01*
X157250280Y-109733336D01*
X157242712Y-109720710D01*
X157236418Y-109707403D01*
X157231459Y-109693543D01*
X157227882Y-109679264D01*
X157225722Y-109664703D01*
X157225000Y-109650000D01*
X157225000Y-109350000D01*
X157225722Y-109335297D01*
X157227882Y-109320736D01*
X157231459Y-109306457D01*
X157236418Y-109292597D01*
X157242712Y-109279290D01*
X157250280Y-109266664D01*
X157259048Y-109254841D01*
X157268934Y-109243934D01*
X157279841Y-109234048D01*
X157291664Y-109225280D01*
X157304290Y-109217712D01*
X157317597Y-109211418D01*
X157331457Y-109206459D01*
X157345736Y-109202882D01*
X157360297Y-109200722D01*
X157375000Y-109200000D01*
X158625000Y-109200000D01*
X158639703Y-109200722D01*
G37*
G04 #@! TD.AperFunction*
G04 #@! TA.AperFunction,SMDPad,CuDef*
G36*
X158639703Y-110200722D02*
G01*
X158654264Y-110202882D01*
X158668543Y-110206459D01*
X158682403Y-110211418D01*
X158695710Y-110217712D01*
X158708336Y-110225280D01*
X158720159Y-110234048D01*
X158731066Y-110243934D01*
X158740952Y-110254841D01*
X158749720Y-110266664D01*
X158757288Y-110279290D01*
X158763582Y-110292597D01*
X158768541Y-110306457D01*
X158772118Y-110320736D01*
X158774278Y-110335297D01*
X158775000Y-110350000D01*
X158775000Y-110650000D01*
X158774278Y-110664703D01*
X158772118Y-110679264D01*
X158768541Y-110693543D01*
X158763582Y-110707403D01*
X158757288Y-110720710D01*
X158749720Y-110733336D01*
X158740952Y-110745159D01*
X158731066Y-110756066D01*
X158720159Y-110765952D01*
X158708336Y-110774720D01*
X158695710Y-110782288D01*
X158682403Y-110788582D01*
X158668543Y-110793541D01*
X158654264Y-110797118D01*
X158639703Y-110799278D01*
X158625000Y-110800000D01*
X157375000Y-110800000D01*
X157360297Y-110799278D01*
X157345736Y-110797118D01*
X157331457Y-110793541D01*
X157317597Y-110788582D01*
X157304290Y-110782288D01*
X157291664Y-110774720D01*
X157279841Y-110765952D01*
X157268934Y-110756066D01*
X157259048Y-110745159D01*
X157250280Y-110733336D01*
X157242712Y-110720710D01*
X157236418Y-110707403D01*
X157231459Y-110693543D01*
X157227882Y-110679264D01*
X157225722Y-110664703D01*
X157225000Y-110650000D01*
X157225000Y-110350000D01*
X157225722Y-110335297D01*
X157227882Y-110320736D01*
X157231459Y-110306457D01*
X157236418Y-110292597D01*
X157242712Y-110279290D01*
X157250280Y-110266664D01*
X157259048Y-110254841D01*
X157268934Y-110243934D01*
X157279841Y-110234048D01*
X157291664Y-110225280D01*
X157304290Y-110217712D01*
X157317597Y-110211418D01*
X157331457Y-110206459D01*
X157345736Y-110202882D01*
X157360297Y-110200722D01*
X157375000Y-110200000D01*
X158625000Y-110200000D01*
X158639703Y-110200722D01*
G37*
G04 #@! TD.AperFunction*
G04 #@! TA.AperFunction,SMDPad,CuDef*
G36*
X158639703Y-111200722D02*
G01*
X158654264Y-111202882D01*
X158668543Y-111206459D01*
X158682403Y-111211418D01*
X158695710Y-111217712D01*
X158708336Y-111225280D01*
X158720159Y-111234048D01*
X158731066Y-111243934D01*
X158740952Y-111254841D01*
X158749720Y-111266664D01*
X158757288Y-111279290D01*
X158763582Y-111292597D01*
X158768541Y-111306457D01*
X158772118Y-111320736D01*
X158774278Y-111335297D01*
X158775000Y-111350000D01*
X158775000Y-111650000D01*
X158774278Y-111664703D01*
X158772118Y-111679264D01*
X158768541Y-111693543D01*
X158763582Y-111707403D01*
X158757288Y-111720710D01*
X158749720Y-111733336D01*
X158740952Y-111745159D01*
X158731066Y-111756066D01*
X158720159Y-111765952D01*
X158708336Y-111774720D01*
X158695710Y-111782288D01*
X158682403Y-111788582D01*
X158668543Y-111793541D01*
X158654264Y-111797118D01*
X158639703Y-111799278D01*
X158625000Y-111800000D01*
X157375000Y-111800000D01*
X157360297Y-111799278D01*
X157345736Y-111797118D01*
X157331457Y-111793541D01*
X157317597Y-111788582D01*
X157304290Y-111782288D01*
X157291664Y-111774720D01*
X157279841Y-111765952D01*
X157268934Y-111756066D01*
X157259048Y-111745159D01*
X157250280Y-111733336D01*
X157242712Y-111720710D01*
X157236418Y-111707403D01*
X157231459Y-111693543D01*
X157227882Y-111679264D01*
X157225722Y-111664703D01*
X157225000Y-111650000D01*
X157225000Y-111350000D01*
X157225722Y-111335297D01*
X157227882Y-111320736D01*
X157231459Y-111306457D01*
X157236418Y-111292597D01*
X157242712Y-111279290D01*
X157250280Y-111266664D01*
X157259048Y-111254841D01*
X157268934Y-111243934D01*
X157279841Y-111234048D01*
X157291664Y-111225280D01*
X157304290Y-111217712D01*
X157317597Y-111211418D01*
X157331457Y-111206459D01*
X157345736Y-111202882D01*
X157360297Y-111200722D01*
X157375000Y-111200000D01*
X158625000Y-111200000D01*
X158639703Y-111200722D01*
G37*
G04 #@! TD.AperFunction*
G04 #@! TA.AperFunction,SMDPad,CuDef*
G36*
X158639703Y-112200722D02*
G01*
X158654264Y-112202882D01*
X158668543Y-112206459D01*
X158682403Y-112211418D01*
X158695710Y-112217712D01*
X158708336Y-112225280D01*
X158720159Y-112234048D01*
X158731066Y-112243934D01*
X158740952Y-112254841D01*
X158749720Y-112266664D01*
X158757288Y-112279290D01*
X158763582Y-112292597D01*
X158768541Y-112306457D01*
X158772118Y-112320736D01*
X158774278Y-112335297D01*
X158775000Y-112350000D01*
X158775000Y-112650000D01*
X158774278Y-112664703D01*
X158772118Y-112679264D01*
X158768541Y-112693543D01*
X158763582Y-112707403D01*
X158757288Y-112720710D01*
X158749720Y-112733336D01*
X158740952Y-112745159D01*
X158731066Y-112756066D01*
X158720159Y-112765952D01*
X158708336Y-112774720D01*
X158695710Y-112782288D01*
X158682403Y-112788582D01*
X158668543Y-112793541D01*
X158654264Y-112797118D01*
X158639703Y-112799278D01*
X158625000Y-112800000D01*
X157375000Y-112800000D01*
X157360297Y-112799278D01*
X157345736Y-112797118D01*
X157331457Y-112793541D01*
X157317597Y-112788582D01*
X157304290Y-112782288D01*
X157291664Y-112774720D01*
X157279841Y-112765952D01*
X157268934Y-112756066D01*
X157259048Y-112745159D01*
X157250280Y-112733336D01*
X157242712Y-112720710D01*
X157236418Y-112707403D01*
X157231459Y-112693543D01*
X157227882Y-112679264D01*
X157225722Y-112664703D01*
X157225000Y-112650000D01*
X157225000Y-112350000D01*
X157225722Y-112335297D01*
X157227882Y-112320736D01*
X157231459Y-112306457D01*
X157236418Y-112292597D01*
X157242712Y-112279290D01*
X157250280Y-112266664D01*
X157259048Y-112254841D01*
X157268934Y-112243934D01*
X157279841Y-112234048D01*
X157291664Y-112225280D01*
X157304290Y-112217712D01*
X157317597Y-112211418D01*
X157331457Y-112206459D01*
X157345736Y-112202882D01*
X157360297Y-112200722D01*
X157375000Y-112200000D01*
X158625000Y-112200000D01*
X158639703Y-112200722D01*
G37*
G04 #@! TD.AperFunction*
G04 #@! TA.AperFunction,SMDPad,CuDef*
G36*
X158639703Y-113200722D02*
G01*
X158654264Y-113202882D01*
X158668543Y-113206459D01*
X158682403Y-113211418D01*
X158695710Y-113217712D01*
X158708336Y-113225280D01*
X158720159Y-113234048D01*
X158731066Y-113243934D01*
X158740952Y-113254841D01*
X158749720Y-113266664D01*
X158757288Y-113279290D01*
X158763582Y-113292597D01*
X158768541Y-113306457D01*
X158772118Y-113320736D01*
X158774278Y-113335297D01*
X158775000Y-113350000D01*
X158775000Y-113650000D01*
X158774278Y-113664703D01*
X158772118Y-113679264D01*
X158768541Y-113693543D01*
X158763582Y-113707403D01*
X158757288Y-113720710D01*
X158749720Y-113733336D01*
X158740952Y-113745159D01*
X158731066Y-113756066D01*
X158720159Y-113765952D01*
X158708336Y-113774720D01*
X158695710Y-113782288D01*
X158682403Y-113788582D01*
X158668543Y-113793541D01*
X158654264Y-113797118D01*
X158639703Y-113799278D01*
X158625000Y-113800000D01*
X157375000Y-113800000D01*
X157360297Y-113799278D01*
X157345736Y-113797118D01*
X157331457Y-113793541D01*
X157317597Y-113788582D01*
X157304290Y-113782288D01*
X157291664Y-113774720D01*
X157279841Y-113765952D01*
X157268934Y-113756066D01*
X157259048Y-113745159D01*
X157250280Y-113733336D01*
X157242712Y-113720710D01*
X157236418Y-113707403D01*
X157231459Y-113693543D01*
X157227882Y-113679264D01*
X157225722Y-113664703D01*
X157225000Y-113650000D01*
X157225000Y-113350000D01*
X157225722Y-113335297D01*
X157227882Y-113320736D01*
X157231459Y-113306457D01*
X157236418Y-113292597D01*
X157242712Y-113279290D01*
X157250280Y-113266664D01*
X157259048Y-113254841D01*
X157268934Y-113243934D01*
X157279841Y-113234048D01*
X157291664Y-113225280D01*
X157304290Y-113217712D01*
X157317597Y-113211418D01*
X157331457Y-113206459D01*
X157345736Y-113202882D01*
X157360297Y-113200722D01*
X157375000Y-113200000D01*
X158625000Y-113200000D01*
X158639703Y-113200722D01*
G37*
G04 #@! TD.AperFunction*
G04 #@! TA.AperFunction,SMDPad,CuDef*
G36*
X160078864Y-125101447D02*
G01*
X160108044Y-125105776D01*
X160136660Y-125112944D01*
X160164435Y-125122882D01*
X160191102Y-125135494D01*
X160216404Y-125150660D01*
X160240099Y-125168233D01*
X160261956Y-125188044D01*
X160281767Y-125209901D01*
X160299340Y-125233596D01*
X160314506Y-125258898D01*
X160327118Y-125285565D01*
X160337056Y-125313340D01*
X160344224Y-125341956D01*
X160348553Y-125371136D01*
X160350000Y-125400600D01*
X160350000Y-128699400D01*
X160348553Y-128728864D01*
X160344224Y-128758044D01*
X160337056Y-128786660D01*
X160327118Y-128814435D01*
X160314506Y-128841102D01*
X160299340Y-128866404D01*
X160281767Y-128890099D01*
X160261956Y-128911956D01*
X160240099Y-128931767D01*
X160216404Y-128949340D01*
X160191102Y-128964506D01*
X160164435Y-128977118D01*
X160136660Y-128987056D01*
X160108044Y-128994224D01*
X160078864Y-128998553D01*
X160049400Y-129000000D01*
X158850600Y-129000000D01*
X158821136Y-128998553D01*
X158791956Y-128994224D01*
X158763340Y-128987056D01*
X158735565Y-128977118D01*
X158708898Y-128964506D01*
X158683596Y-128949340D01*
X158659901Y-128931767D01*
X158638044Y-128911956D01*
X158618233Y-128890099D01*
X158600660Y-128866404D01*
X158585494Y-128841102D01*
X158572882Y-128814435D01*
X158562944Y-128786660D01*
X158555776Y-128758044D01*
X158551447Y-128728864D01*
X158550000Y-128699400D01*
X158550000Y-125400600D01*
X158551447Y-125371136D01*
X158555776Y-125341956D01*
X158562944Y-125313340D01*
X158572882Y-125285565D01*
X158585494Y-125258898D01*
X158600660Y-125233596D01*
X158618233Y-125209901D01*
X158638044Y-125188044D01*
X158659901Y-125168233D01*
X158683596Y-125150660D01*
X158708898Y-125135494D01*
X158735565Y-125122882D01*
X158763340Y-125112944D01*
X158791956Y-125105776D01*
X158821136Y-125101447D01*
X158850600Y-125100000D01*
X160049400Y-125100000D01*
X160078864Y-125101447D01*
G37*
G04 #@! TD.AperFunction*
G04 #@! TA.AperFunction,SMDPad,CuDef*
G36*
X141178864Y-125101447D02*
G01*
X141208044Y-125105776D01*
X141236660Y-125112944D01*
X141264435Y-125122882D01*
X141291102Y-125135494D01*
X141316404Y-125150660D01*
X141340099Y-125168233D01*
X141361956Y-125188044D01*
X141381767Y-125209901D01*
X141399340Y-125233596D01*
X141414506Y-125258898D01*
X141427118Y-125285565D01*
X141437056Y-125313340D01*
X141444224Y-125341956D01*
X141448553Y-125371136D01*
X141450000Y-125400600D01*
X141450000Y-128699400D01*
X141448553Y-128728864D01*
X141444224Y-128758044D01*
X141437056Y-128786660D01*
X141427118Y-128814435D01*
X141414506Y-128841102D01*
X141399340Y-128866404D01*
X141381767Y-128890099D01*
X141361956Y-128911956D01*
X141340099Y-128931767D01*
X141316404Y-128949340D01*
X141291102Y-128964506D01*
X141264435Y-128977118D01*
X141236660Y-128987056D01*
X141208044Y-128994224D01*
X141178864Y-128998553D01*
X141149400Y-129000000D01*
X139950600Y-129000000D01*
X139921136Y-128998553D01*
X139891956Y-128994224D01*
X139863340Y-128987056D01*
X139835565Y-128977118D01*
X139808898Y-128964506D01*
X139783596Y-128949340D01*
X139759901Y-128931767D01*
X139738044Y-128911956D01*
X139718233Y-128890099D01*
X139700660Y-128866404D01*
X139685494Y-128841102D01*
X139672882Y-128814435D01*
X139662944Y-128786660D01*
X139655776Y-128758044D01*
X139651447Y-128728864D01*
X139650000Y-128699400D01*
X139650000Y-125400600D01*
X139651447Y-125371136D01*
X139655776Y-125341956D01*
X139662944Y-125313340D01*
X139672882Y-125285565D01*
X139685494Y-125258898D01*
X139700660Y-125233596D01*
X139718233Y-125209901D01*
X139738044Y-125188044D01*
X139759901Y-125168233D01*
X139783596Y-125150660D01*
X139808898Y-125135494D01*
X139835565Y-125122882D01*
X139863340Y-125112944D01*
X139891956Y-125105776D01*
X139921136Y-125101447D01*
X139950600Y-125100000D01*
X141149400Y-125100000D01*
X141178864Y-125101447D01*
G37*
G04 #@! TD.AperFunction*
G04 #@! TA.AperFunction,SMDPad,CuDef*
G36*
X156606856Y-118001565D02*
G01*
X156638404Y-118006245D01*
X156669343Y-118013994D01*
X156699372Y-118024739D01*
X156728204Y-118038376D01*
X156755560Y-118054772D01*
X156781178Y-118073772D01*
X156804810Y-118095190D01*
X156826228Y-118118822D01*
X156845228Y-118144440D01*
X156861624Y-118171796D01*
X156875261Y-118200628D01*
X156886006Y-118230657D01*
X156893755Y-118261596D01*
X156898435Y-118293144D01*
X156900000Y-118325000D01*
X156900000Y-122175000D01*
X156898435Y-122206856D01*
X156893755Y-122238404D01*
X156886006Y-122269343D01*
X156875261Y-122299372D01*
X156861624Y-122328204D01*
X156845228Y-122355560D01*
X156826228Y-122381178D01*
X156804810Y-122404810D01*
X156781178Y-122426228D01*
X156755560Y-122445228D01*
X156728204Y-122461624D01*
X156699372Y-122475261D01*
X156669343Y-122486006D01*
X156638404Y-122493755D01*
X156606856Y-122498435D01*
X156575000Y-122500000D01*
X155925000Y-122500000D01*
X155893144Y-122498435D01*
X155861596Y-122493755D01*
X155830657Y-122486006D01*
X155800628Y-122475261D01*
X155771796Y-122461624D01*
X155744440Y-122445228D01*
X155718822Y-122426228D01*
X155695190Y-122404810D01*
X155673772Y-122381178D01*
X155654772Y-122355560D01*
X155638376Y-122328204D01*
X155624739Y-122299372D01*
X155613994Y-122269343D01*
X155606245Y-122238404D01*
X155601565Y-122206856D01*
X155600000Y-122175000D01*
X155600000Y-118325000D01*
X155601565Y-118293144D01*
X155606245Y-118261596D01*
X155613994Y-118230657D01*
X155624739Y-118200628D01*
X155638376Y-118171796D01*
X155654772Y-118144440D01*
X155673772Y-118118822D01*
X155695190Y-118095190D01*
X155718822Y-118073772D01*
X155744440Y-118054772D01*
X155771796Y-118038376D01*
X155800628Y-118024739D01*
X155830657Y-118013994D01*
X155861596Y-118006245D01*
X155893144Y-118001565D01*
X155925000Y-118000000D01*
X156575000Y-118000000D01*
X156606856Y-118001565D01*
G37*
G04 #@! TD.AperFunction*
G04 #@! TA.AperFunction,SMDPad,CuDef*
G36*
X154106856Y-118001565D02*
G01*
X154138404Y-118006245D01*
X154169343Y-118013994D01*
X154199372Y-118024739D01*
X154228204Y-118038376D01*
X154255560Y-118054772D01*
X154281178Y-118073772D01*
X154304810Y-118095190D01*
X154326228Y-118118822D01*
X154345228Y-118144440D01*
X154361624Y-118171796D01*
X154375261Y-118200628D01*
X154386006Y-118230657D01*
X154393755Y-118261596D01*
X154398435Y-118293144D01*
X154400000Y-118325000D01*
X154400000Y-122175000D01*
X154398435Y-122206856D01*
X154393755Y-122238404D01*
X154386006Y-122269343D01*
X154375261Y-122299372D01*
X154361624Y-122328204D01*
X154345228Y-122355560D01*
X154326228Y-122381178D01*
X154304810Y-122404810D01*
X154281178Y-122426228D01*
X154255560Y-122445228D01*
X154228204Y-122461624D01*
X154199372Y-122475261D01*
X154169343Y-122486006D01*
X154138404Y-122493755D01*
X154106856Y-122498435D01*
X154075000Y-122500000D01*
X153425000Y-122500000D01*
X153393144Y-122498435D01*
X153361596Y-122493755D01*
X153330657Y-122486006D01*
X153300628Y-122475261D01*
X153271796Y-122461624D01*
X153244440Y-122445228D01*
X153218822Y-122426228D01*
X153195190Y-122404810D01*
X153173772Y-122381178D01*
X153154772Y-122355560D01*
X153138376Y-122328204D01*
X153124739Y-122299372D01*
X153113994Y-122269343D01*
X153106245Y-122238404D01*
X153101565Y-122206856D01*
X153100000Y-122175000D01*
X153100000Y-118325000D01*
X153101565Y-118293144D01*
X153106245Y-118261596D01*
X153113994Y-118230657D01*
X153124739Y-118200628D01*
X153138376Y-118171796D01*
X153154772Y-118144440D01*
X153173772Y-118118822D01*
X153195190Y-118095190D01*
X153218822Y-118073772D01*
X153244440Y-118054772D01*
X153271796Y-118038376D01*
X153300628Y-118024739D01*
X153330657Y-118013994D01*
X153361596Y-118006245D01*
X153393144Y-118001565D01*
X153425000Y-118000000D01*
X154075000Y-118000000D01*
X154106856Y-118001565D01*
G37*
G04 #@! TD.AperFunction*
G04 #@! TA.AperFunction,SMDPad,CuDef*
G36*
X151606856Y-118001565D02*
G01*
X151638404Y-118006245D01*
X151669343Y-118013994D01*
X151699372Y-118024739D01*
X151728204Y-118038376D01*
X151755560Y-118054772D01*
X151781178Y-118073772D01*
X151804810Y-118095190D01*
X151826228Y-118118822D01*
X151845228Y-118144440D01*
X151861624Y-118171796D01*
X151875261Y-118200628D01*
X151886006Y-118230657D01*
X151893755Y-118261596D01*
X151898435Y-118293144D01*
X151900000Y-118325000D01*
X151900000Y-122175000D01*
X151898435Y-122206856D01*
X151893755Y-122238404D01*
X151886006Y-122269343D01*
X151875261Y-122299372D01*
X151861624Y-122328204D01*
X151845228Y-122355560D01*
X151826228Y-122381178D01*
X151804810Y-122404810D01*
X151781178Y-122426228D01*
X151755560Y-122445228D01*
X151728204Y-122461624D01*
X151699372Y-122475261D01*
X151669343Y-122486006D01*
X151638404Y-122493755D01*
X151606856Y-122498435D01*
X151575000Y-122500000D01*
X150925000Y-122500000D01*
X150893144Y-122498435D01*
X150861596Y-122493755D01*
X150830657Y-122486006D01*
X150800628Y-122475261D01*
X150771796Y-122461624D01*
X150744440Y-122445228D01*
X150718822Y-122426228D01*
X150695190Y-122404810D01*
X150673772Y-122381178D01*
X150654772Y-122355560D01*
X150638376Y-122328204D01*
X150624739Y-122299372D01*
X150613994Y-122269343D01*
X150606245Y-122238404D01*
X150601565Y-122206856D01*
X150600000Y-122175000D01*
X150600000Y-118325000D01*
X150601565Y-118293144D01*
X150606245Y-118261596D01*
X150613994Y-118230657D01*
X150624739Y-118200628D01*
X150638376Y-118171796D01*
X150654772Y-118144440D01*
X150673772Y-118118822D01*
X150695190Y-118095190D01*
X150718822Y-118073772D01*
X150744440Y-118054772D01*
X150771796Y-118038376D01*
X150800628Y-118024739D01*
X150830657Y-118013994D01*
X150861596Y-118006245D01*
X150893144Y-118001565D01*
X150925000Y-118000000D01*
X151575000Y-118000000D01*
X151606856Y-118001565D01*
G37*
G04 #@! TD.AperFunction*
G04 #@! TA.AperFunction,SMDPad,CuDef*
G36*
X149106856Y-118001565D02*
G01*
X149138404Y-118006245D01*
X149169343Y-118013994D01*
X149199372Y-118024739D01*
X149228204Y-118038376D01*
X149255560Y-118054772D01*
X149281178Y-118073772D01*
X149304810Y-118095190D01*
X149326228Y-118118822D01*
X149345228Y-118144440D01*
X149361624Y-118171796D01*
X149375261Y-118200628D01*
X149386006Y-118230657D01*
X149393755Y-118261596D01*
X149398435Y-118293144D01*
X149400000Y-118325000D01*
X149400000Y-122175000D01*
X149398435Y-122206856D01*
X149393755Y-122238404D01*
X149386006Y-122269343D01*
X149375261Y-122299372D01*
X149361624Y-122328204D01*
X149345228Y-122355560D01*
X149326228Y-122381178D01*
X149304810Y-122404810D01*
X149281178Y-122426228D01*
X149255560Y-122445228D01*
X149228204Y-122461624D01*
X149199372Y-122475261D01*
X149169343Y-122486006D01*
X149138404Y-122493755D01*
X149106856Y-122498435D01*
X149075000Y-122500000D01*
X148425000Y-122500000D01*
X148393144Y-122498435D01*
X148361596Y-122493755D01*
X148330657Y-122486006D01*
X148300628Y-122475261D01*
X148271796Y-122461624D01*
X148244440Y-122445228D01*
X148218822Y-122426228D01*
X148195190Y-122404810D01*
X148173772Y-122381178D01*
X148154772Y-122355560D01*
X148138376Y-122328204D01*
X148124739Y-122299372D01*
X148113994Y-122269343D01*
X148106245Y-122238404D01*
X148101565Y-122206856D01*
X148100000Y-122175000D01*
X148100000Y-118325000D01*
X148101565Y-118293144D01*
X148106245Y-118261596D01*
X148113994Y-118230657D01*
X148124739Y-118200628D01*
X148138376Y-118171796D01*
X148154772Y-118144440D01*
X148173772Y-118118822D01*
X148195190Y-118095190D01*
X148218822Y-118073772D01*
X148244440Y-118054772D01*
X148271796Y-118038376D01*
X148300628Y-118024739D01*
X148330657Y-118013994D01*
X148361596Y-118006245D01*
X148393144Y-118001565D01*
X148425000Y-118000000D01*
X149075000Y-118000000D01*
X149106856Y-118001565D01*
G37*
G04 #@! TD.AperFunction*
G04 #@! TA.AperFunction,SMDPad,CuDef*
G36*
X146606856Y-118001565D02*
G01*
X146638404Y-118006245D01*
X146669343Y-118013994D01*
X146699372Y-118024739D01*
X146728204Y-118038376D01*
X146755560Y-118054772D01*
X146781178Y-118073772D01*
X146804810Y-118095190D01*
X146826228Y-118118822D01*
X146845228Y-118144440D01*
X146861624Y-118171796D01*
X146875261Y-118200628D01*
X146886006Y-118230657D01*
X146893755Y-118261596D01*
X146898435Y-118293144D01*
X146900000Y-118325000D01*
X146900000Y-122175000D01*
X146898435Y-122206856D01*
X146893755Y-122238404D01*
X146886006Y-122269343D01*
X146875261Y-122299372D01*
X146861624Y-122328204D01*
X146845228Y-122355560D01*
X146826228Y-122381178D01*
X146804810Y-122404810D01*
X146781178Y-122426228D01*
X146755560Y-122445228D01*
X146728204Y-122461624D01*
X146699372Y-122475261D01*
X146669343Y-122486006D01*
X146638404Y-122493755D01*
X146606856Y-122498435D01*
X146575000Y-122500000D01*
X145925000Y-122500000D01*
X145893144Y-122498435D01*
X145861596Y-122493755D01*
X145830657Y-122486006D01*
X145800628Y-122475261D01*
X145771796Y-122461624D01*
X145744440Y-122445228D01*
X145718822Y-122426228D01*
X145695190Y-122404810D01*
X145673772Y-122381178D01*
X145654772Y-122355560D01*
X145638376Y-122328204D01*
X145624739Y-122299372D01*
X145613994Y-122269343D01*
X145606245Y-122238404D01*
X145601565Y-122206856D01*
X145600000Y-122175000D01*
X145600000Y-118325000D01*
X145601565Y-118293144D01*
X145606245Y-118261596D01*
X145613994Y-118230657D01*
X145624739Y-118200628D01*
X145638376Y-118171796D01*
X145654772Y-118144440D01*
X145673772Y-118118822D01*
X145695190Y-118095190D01*
X145718822Y-118073772D01*
X145744440Y-118054772D01*
X145771796Y-118038376D01*
X145800628Y-118024739D01*
X145830657Y-118013994D01*
X145861596Y-118006245D01*
X145893144Y-118001565D01*
X145925000Y-118000000D01*
X146575000Y-118000000D01*
X146606856Y-118001565D01*
G37*
G04 #@! TD.AperFunction*
G04 #@! TA.AperFunction,SMDPad,CuDef*
G36*
X144106856Y-118001565D02*
G01*
X144138404Y-118006245D01*
X144169343Y-118013994D01*
X144199372Y-118024739D01*
X144228204Y-118038376D01*
X144255560Y-118054772D01*
X144281178Y-118073772D01*
X144304810Y-118095190D01*
X144326228Y-118118822D01*
X144345228Y-118144440D01*
X144361624Y-118171796D01*
X144375261Y-118200628D01*
X144386006Y-118230657D01*
X144393755Y-118261596D01*
X144398435Y-118293144D01*
X144400000Y-118325000D01*
X144400000Y-122175000D01*
X144398435Y-122206856D01*
X144393755Y-122238404D01*
X144386006Y-122269343D01*
X144375261Y-122299372D01*
X144361624Y-122328204D01*
X144345228Y-122355560D01*
X144326228Y-122381178D01*
X144304810Y-122404810D01*
X144281178Y-122426228D01*
X144255560Y-122445228D01*
X144228204Y-122461624D01*
X144199372Y-122475261D01*
X144169343Y-122486006D01*
X144138404Y-122493755D01*
X144106856Y-122498435D01*
X144075000Y-122500000D01*
X143425000Y-122500000D01*
X143393144Y-122498435D01*
X143361596Y-122493755D01*
X143330657Y-122486006D01*
X143300628Y-122475261D01*
X143271796Y-122461624D01*
X143244440Y-122445228D01*
X143218822Y-122426228D01*
X143195190Y-122404810D01*
X143173772Y-122381178D01*
X143154772Y-122355560D01*
X143138376Y-122328204D01*
X143124739Y-122299372D01*
X143113994Y-122269343D01*
X143106245Y-122238404D01*
X143101565Y-122206856D01*
X143100000Y-122175000D01*
X143100000Y-118325000D01*
X143101565Y-118293144D01*
X143106245Y-118261596D01*
X143113994Y-118230657D01*
X143124739Y-118200628D01*
X143138376Y-118171796D01*
X143154772Y-118144440D01*
X143173772Y-118118822D01*
X143195190Y-118095190D01*
X143218822Y-118073772D01*
X143244440Y-118054772D01*
X143271796Y-118038376D01*
X143300628Y-118024739D01*
X143330657Y-118013994D01*
X143361596Y-118006245D01*
X143393144Y-118001565D01*
X143425000Y-118000000D01*
X144075000Y-118000000D01*
X144106856Y-118001565D01*
G37*
G04 #@! TD.AperFunction*
G04 #@! TA.AperFunction,SMDPad,CuDef*
G36*
X154246958Y-114480710D02*
G01*
X154261276Y-114482834D01*
X154275317Y-114486351D01*
X154288946Y-114491228D01*
X154302031Y-114497417D01*
X154314447Y-114504858D01*
X154326073Y-114513481D01*
X154336798Y-114523202D01*
X154346519Y-114533927D01*
X154355142Y-114545553D01*
X154362583Y-114557969D01*
X154368772Y-114571054D01*
X154373649Y-114584683D01*
X154377166Y-114598724D01*
X154379290Y-114613042D01*
X154380000Y-114627500D01*
X154380000Y-114972500D01*
X154379290Y-114986958D01*
X154377166Y-115001276D01*
X154373649Y-115015317D01*
X154368772Y-115028946D01*
X154362583Y-115042031D01*
X154355142Y-115054447D01*
X154346519Y-115066073D01*
X154336798Y-115076798D01*
X154326073Y-115086519D01*
X154314447Y-115095142D01*
X154302031Y-115102583D01*
X154288946Y-115108772D01*
X154275317Y-115113649D01*
X154261276Y-115117166D01*
X154246958Y-115119290D01*
X154232500Y-115120000D01*
X153937500Y-115120000D01*
X153923042Y-115119290D01*
X153908724Y-115117166D01*
X153894683Y-115113649D01*
X153881054Y-115108772D01*
X153867969Y-115102583D01*
X153855553Y-115095142D01*
X153843927Y-115086519D01*
X153833202Y-115076798D01*
X153823481Y-115066073D01*
X153814858Y-115054447D01*
X153807417Y-115042031D01*
X153801228Y-115028946D01*
X153796351Y-115015317D01*
X153792834Y-115001276D01*
X153790710Y-114986958D01*
X153790000Y-114972500D01*
X153790000Y-114627500D01*
X153790710Y-114613042D01*
X153792834Y-114598724D01*
X153796351Y-114584683D01*
X153801228Y-114571054D01*
X153807417Y-114557969D01*
X153814858Y-114545553D01*
X153823481Y-114533927D01*
X153833202Y-114523202D01*
X153843927Y-114513481D01*
X153855553Y-114504858D01*
X153867969Y-114497417D01*
X153881054Y-114491228D01*
X153894683Y-114486351D01*
X153908724Y-114482834D01*
X153923042Y-114480710D01*
X153937500Y-114480000D01*
X154232500Y-114480000D01*
X154246958Y-114480710D01*
G37*
G04 #@! TD.AperFunction*
G04 #@! TA.AperFunction,SMDPad,CuDef*
G36*
X153276958Y-114480710D02*
G01*
X153291276Y-114482834D01*
X153305317Y-114486351D01*
X153318946Y-114491228D01*
X153332031Y-114497417D01*
X153344447Y-114504858D01*
X153356073Y-114513481D01*
X153366798Y-114523202D01*
X153376519Y-114533927D01*
X153385142Y-114545553D01*
X153392583Y-114557969D01*
X153398772Y-114571054D01*
X153403649Y-114584683D01*
X153407166Y-114598724D01*
X153409290Y-114613042D01*
X153410000Y-114627500D01*
X153410000Y-114972500D01*
X153409290Y-114986958D01*
X153407166Y-115001276D01*
X153403649Y-115015317D01*
X153398772Y-115028946D01*
X153392583Y-115042031D01*
X153385142Y-115054447D01*
X153376519Y-115066073D01*
X153366798Y-115076798D01*
X153356073Y-115086519D01*
X153344447Y-115095142D01*
X153332031Y-115102583D01*
X153318946Y-115108772D01*
X153305317Y-115113649D01*
X153291276Y-115117166D01*
X153276958Y-115119290D01*
X153262500Y-115120000D01*
X152967500Y-115120000D01*
X152953042Y-115119290D01*
X152938724Y-115117166D01*
X152924683Y-115113649D01*
X152911054Y-115108772D01*
X152897969Y-115102583D01*
X152885553Y-115095142D01*
X152873927Y-115086519D01*
X152863202Y-115076798D01*
X152853481Y-115066073D01*
X152844858Y-115054447D01*
X152837417Y-115042031D01*
X152831228Y-115028946D01*
X152826351Y-115015317D01*
X152822834Y-115001276D01*
X152820710Y-114986958D01*
X152820000Y-114972500D01*
X152820000Y-114627500D01*
X152820710Y-114613042D01*
X152822834Y-114598724D01*
X152826351Y-114584683D01*
X152831228Y-114571054D01*
X152837417Y-114557969D01*
X152844858Y-114545553D01*
X152853481Y-114533927D01*
X152863202Y-114523202D01*
X152873927Y-114513481D01*
X152885553Y-114504858D01*
X152897969Y-114497417D01*
X152911054Y-114491228D01*
X152924683Y-114486351D01*
X152938724Y-114482834D01*
X152953042Y-114480710D01*
X152967500Y-114480000D01*
X153262500Y-114480000D01*
X153276958Y-114480710D01*
G37*
G04 #@! TD.AperFunction*
G04 #@! TA.AperFunction,SMDPad,CuDef*
G36*
X150646958Y-114680710D02*
G01*
X150661276Y-114682834D01*
X150675317Y-114686351D01*
X150688946Y-114691228D01*
X150702031Y-114697417D01*
X150714447Y-114704858D01*
X150726073Y-114713481D01*
X150736798Y-114723202D01*
X150746519Y-114733927D01*
X150755142Y-114745553D01*
X150762583Y-114757969D01*
X150768772Y-114771054D01*
X150773649Y-114784683D01*
X150777166Y-114798724D01*
X150779290Y-114813042D01*
X150780000Y-114827500D01*
X150780000Y-115172500D01*
X150779290Y-115186958D01*
X150777166Y-115201276D01*
X150773649Y-115215317D01*
X150768772Y-115228946D01*
X150762583Y-115242031D01*
X150755142Y-115254447D01*
X150746519Y-115266073D01*
X150736798Y-115276798D01*
X150726073Y-115286519D01*
X150714447Y-115295142D01*
X150702031Y-115302583D01*
X150688946Y-115308772D01*
X150675317Y-115313649D01*
X150661276Y-115317166D01*
X150646958Y-115319290D01*
X150632500Y-115320000D01*
X150337500Y-115320000D01*
X150323042Y-115319290D01*
X150308724Y-115317166D01*
X150294683Y-115313649D01*
X150281054Y-115308772D01*
X150267969Y-115302583D01*
X150255553Y-115295142D01*
X150243927Y-115286519D01*
X150233202Y-115276798D01*
X150223481Y-115266073D01*
X150214858Y-115254447D01*
X150207417Y-115242031D01*
X150201228Y-115228946D01*
X150196351Y-115215317D01*
X150192834Y-115201276D01*
X150190710Y-115186958D01*
X150190000Y-115172500D01*
X150190000Y-114827500D01*
X150190710Y-114813042D01*
X150192834Y-114798724D01*
X150196351Y-114784683D01*
X150201228Y-114771054D01*
X150207417Y-114757969D01*
X150214858Y-114745553D01*
X150223481Y-114733927D01*
X150233202Y-114723202D01*
X150243927Y-114713481D01*
X150255553Y-114704858D01*
X150267969Y-114697417D01*
X150281054Y-114691228D01*
X150294683Y-114686351D01*
X150308724Y-114682834D01*
X150323042Y-114680710D01*
X150337500Y-114680000D01*
X150632500Y-114680000D01*
X150646958Y-114680710D01*
G37*
G04 #@! TD.AperFunction*
G04 #@! TA.AperFunction,SMDPad,CuDef*
G36*
X149676958Y-114680710D02*
G01*
X149691276Y-114682834D01*
X149705317Y-114686351D01*
X149718946Y-114691228D01*
X149732031Y-114697417D01*
X149744447Y-114704858D01*
X149756073Y-114713481D01*
X149766798Y-114723202D01*
X149776519Y-114733927D01*
X149785142Y-114745553D01*
X149792583Y-114757969D01*
X149798772Y-114771054D01*
X149803649Y-114784683D01*
X149807166Y-114798724D01*
X149809290Y-114813042D01*
X149810000Y-114827500D01*
X149810000Y-115172500D01*
X149809290Y-115186958D01*
X149807166Y-115201276D01*
X149803649Y-115215317D01*
X149798772Y-115228946D01*
X149792583Y-115242031D01*
X149785142Y-115254447D01*
X149776519Y-115266073D01*
X149766798Y-115276798D01*
X149756073Y-115286519D01*
X149744447Y-115295142D01*
X149732031Y-115302583D01*
X149718946Y-115308772D01*
X149705317Y-115313649D01*
X149691276Y-115317166D01*
X149676958Y-115319290D01*
X149662500Y-115320000D01*
X149367500Y-115320000D01*
X149353042Y-115319290D01*
X149338724Y-115317166D01*
X149324683Y-115313649D01*
X149311054Y-115308772D01*
X149297969Y-115302583D01*
X149285553Y-115295142D01*
X149273927Y-115286519D01*
X149263202Y-115276798D01*
X149253481Y-115266073D01*
X149244858Y-115254447D01*
X149237417Y-115242031D01*
X149231228Y-115228946D01*
X149226351Y-115215317D01*
X149222834Y-115201276D01*
X149220710Y-115186958D01*
X149220000Y-115172500D01*
X149220000Y-114827500D01*
X149220710Y-114813042D01*
X149222834Y-114798724D01*
X149226351Y-114784683D01*
X149231228Y-114771054D01*
X149237417Y-114757969D01*
X149244858Y-114745553D01*
X149253481Y-114733927D01*
X149263202Y-114723202D01*
X149273927Y-114713481D01*
X149285553Y-114704858D01*
X149297969Y-114697417D01*
X149311054Y-114691228D01*
X149324683Y-114686351D01*
X149338724Y-114682834D01*
X149353042Y-114680710D01*
X149367500Y-114680000D01*
X149662500Y-114680000D01*
X149676958Y-114680710D01*
G37*
G04 #@! TD.AperFunction*
G04 #@! TA.AperFunction,SMDPad,CuDef*
G36*
X155586958Y-113620710D02*
G01*
X155601276Y-113622834D01*
X155615317Y-113626351D01*
X155628946Y-113631228D01*
X155642031Y-113637417D01*
X155654447Y-113644858D01*
X155666073Y-113653481D01*
X155676798Y-113663202D01*
X155686519Y-113673927D01*
X155695142Y-113685553D01*
X155702583Y-113697969D01*
X155708772Y-113711054D01*
X155713649Y-113724683D01*
X155717166Y-113738724D01*
X155719290Y-113753042D01*
X155720000Y-113767500D01*
X155720000Y-114062500D01*
X155719290Y-114076958D01*
X155717166Y-114091276D01*
X155713649Y-114105317D01*
X155708772Y-114118946D01*
X155702583Y-114132031D01*
X155695142Y-114144447D01*
X155686519Y-114156073D01*
X155676798Y-114166798D01*
X155666073Y-114176519D01*
X155654447Y-114185142D01*
X155642031Y-114192583D01*
X155628946Y-114198772D01*
X155615317Y-114203649D01*
X155601276Y-114207166D01*
X155586958Y-114209290D01*
X155572500Y-114210000D01*
X155227500Y-114210000D01*
X155213042Y-114209290D01*
X155198724Y-114207166D01*
X155184683Y-114203649D01*
X155171054Y-114198772D01*
X155157969Y-114192583D01*
X155145553Y-114185142D01*
X155133927Y-114176519D01*
X155123202Y-114166798D01*
X155113481Y-114156073D01*
X155104858Y-114144447D01*
X155097417Y-114132031D01*
X155091228Y-114118946D01*
X155086351Y-114105317D01*
X155082834Y-114091276D01*
X155080710Y-114076958D01*
X155080000Y-114062500D01*
X155080000Y-113767500D01*
X155080710Y-113753042D01*
X155082834Y-113738724D01*
X155086351Y-113724683D01*
X155091228Y-113711054D01*
X155097417Y-113697969D01*
X155104858Y-113685553D01*
X155113481Y-113673927D01*
X155123202Y-113663202D01*
X155133927Y-113653481D01*
X155145553Y-113644858D01*
X155157969Y-113637417D01*
X155171054Y-113631228D01*
X155184683Y-113626351D01*
X155198724Y-113622834D01*
X155213042Y-113620710D01*
X155227500Y-113620000D01*
X155572500Y-113620000D01*
X155586958Y-113620710D01*
G37*
G04 #@! TD.AperFunction*
G04 #@! TA.AperFunction,SMDPad,CuDef*
G36*
X155586958Y-114590710D02*
G01*
X155601276Y-114592834D01*
X155615317Y-114596351D01*
X155628946Y-114601228D01*
X155642031Y-114607417D01*
X155654447Y-114614858D01*
X155666073Y-114623481D01*
X155676798Y-114633202D01*
X155686519Y-114643927D01*
X155695142Y-114655553D01*
X155702583Y-114667969D01*
X155708772Y-114681054D01*
X155713649Y-114694683D01*
X155717166Y-114708724D01*
X155719290Y-114723042D01*
X155720000Y-114737500D01*
X155720000Y-115032500D01*
X155719290Y-115046958D01*
X155717166Y-115061276D01*
X155713649Y-115075317D01*
X155708772Y-115088946D01*
X155702583Y-115102031D01*
X155695142Y-115114447D01*
X155686519Y-115126073D01*
X155676798Y-115136798D01*
X155666073Y-115146519D01*
X155654447Y-115155142D01*
X155642031Y-115162583D01*
X155628946Y-115168772D01*
X155615317Y-115173649D01*
X155601276Y-115177166D01*
X155586958Y-115179290D01*
X155572500Y-115180000D01*
X155227500Y-115180000D01*
X155213042Y-115179290D01*
X155198724Y-115177166D01*
X155184683Y-115173649D01*
X155171054Y-115168772D01*
X155157969Y-115162583D01*
X155145553Y-115155142D01*
X155133927Y-115146519D01*
X155123202Y-115136798D01*
X155113481Y-115126073D01*
X155104858Y-115114447D01*
X155097417Y-115102031D01*
X155091228Y-115088946D01*
X155086351Y-115075317D01*
X155082834Y-115061276D01*
X155080710Y-115046958D01*
X155080000Y-115032500D01*
X155080000Y-114737500D01*
X155080710Y-114723042D01*
X155082834Y-114708724D01*
X155086351Y-114694683D01*
X155091228Y-114681054D01*
X155097417Y-114667969D01*
X155104858Y-114655553D01*
X155113481Y-114643927D01*
X155123202Y-114633202D01*
X155133927Y-114623481D01*
X155145553Y-114614858D01*
X155157969Y-114607417D01*
X155171054Y-114601228D01*
X155184683Y-114596351D01*
X155198724Y-114592834D01*
X155213042Y-114590710D01*
X155227500Y-114590000D01*
X155572500Y-114590000D01*
X155586958Y-114590710D01*
G37*
G04 #@! TD.AperFunction*
D15*
X144970500Y-112014000D03*
X152400000Y-114000000D03*
X155400000Y-112800000D03*
X149400010Y-115075192D03*
X150000000Y-109000000D03*
X148000000Y-107000000D03*
X152000000Y-107000000D03*
X152000000Y-111000000D03*
X148000000Y-111000000D03*
X153897867Y-104393070D03*
X153525256Y-103700987D03*
X153199130Y-103020043D03*
X152200000Y-102800000D03*
X151422414Y-102615776D03*
X150805010Y-102181201D03*
X150500000Y-101400000D03*
X149600000Y-101400000D03*
X149000000Y-102000000D03*
X148701623Y-102800000D03*
X147891208Y-102755010D03*
X147000000Y-103110021D03*
X147000000Y-103865034D03*
X146547603Y-104547601D03*
X146170769Y-105426494D03*
X153911829Y-105147953D03*
D16*
X152250000Y-112950000D02*
X152299999Y-112900001D01*
D17*
X152250000Y-113050000D02*
X152250000Y-112950000D01*
X145950000Y-111750000D02*
X145234500Y-111750000D01*
X145234500Y-111750000D02*
X144970500Y-112014000D01*
X152250000Y-113050000D02*
X152250000Y-113849990D01*
X152250000Y-113849990D02*
X152400010Y-114000000D01*
X155400000Y-111900000D02*
X155400000Y-112800000D01*
X154050000Y-111250000D02*
X154750000Y-111250000D01*
X154750000Y-111250000D02*
X155400000Y-111900000D01*
X152400000Y-114000000D02*
X152400000Y-116000000D01*
X152400000Y-116000000D02*
X153800000Y-117400000D01*
X156250000Y-118000000D02*
X156250000Y-120250000D01*
X155650000Y-117400000D02*
X156250000Y-118000000D01*
X153800000Y-117400000D02*
X155650000Y-117400000D01*
X156200000Y-114400000D02*
X156200000Y-120200000D01*
X155715000Y-113915000D02*
X156200000Y-114400000D01*
X155400000Y-112800000D02*
X155400000Y-113915000D01*
X156200000Y-120200000D02*
X156250000Y-120250000D01*
X155400000Y-113915000D02*
X155715000Y-113915000D01*
X149515000Y-115000000D02*
X149475202Y-115000000D01*
X149475202Y-115000000D02*
X149400010Y-115075192D01*
X154050000Y-111750000D02*
X154050000Y-112250000D01*
X150000000Y-109000000D02*
X152000000Y-107000000D01*
X150000000Y-109000000D02*
X152000000Y-111000000D01*
X150000000Y-109000000D02*
X148000000Y-111000000D01*
X148250000Y-110750000D02*
X150000000Y-109000000D01*
X145950000Y-110750000D02*
X148250000Y-110750000D01*
X148750000Y-110250000D02*
X150000000Y-109000000D01*
X145950000Y-110250000D02*
X148750000Y-110250000D01*
X147750000Y-111250000D02*
X148000000Y-111000000D01*
X145950000Y-111250000D02*
X147750000Y-111250000D01*
X147750000Y-111250000D02*
X150000000Y-109000000D01*
X147750000Y-113050000D02*
X147750000Y-111250000D01*
X151750000Y-110750000D02*
X150000000Y-109000000D01*
X154050000Y-110750000D02*
X151750000Y-110750000D01*
X152750000Y-111750000D02*
X150000000Y-109000000D01*
X154050000Y-111750000D02*
X152750000Y-111750000D01*
X150100000Y-109000000D02*
X150000000Y-109000000D01*
X153350000Y-112250000D02*
X150100000Y-109000000D01*
X154050000Y-112250000D02*
X153350000Y-112250000D01*
X143750000Y-117710002D02*
X147750000Y-113710002D01*
X147750000Y-113710002D02*
X147750000Y-113050000D01*
X143750000Y-120250000D02*
X143750000Y-117710002D01*
X150485000Y-115320000D02*
X150485000Y-115000000D01*
X143750000Y-122500000D02*
X144250000Y-123000000D01*
X143750000Y-120250000D02*
X143750000Y-122500000D01*
X150000000Y-122169256D02*
X150000000Y-115805000D01*
X150000000Y-115805000D02*
X150485000Y-115320000D01*
X144250000Y-123000000D02*
X149169256Y-123000000D01*
D16*
X149169256Y-123000000D02*
X150000000Y-122169256D01*
D17*
X155315000Y-114800000D02*
X155400000Y-114885000D01*
X154085000Y-114800000D02*
X155315000Y-114800000D01*
X154085000Y-112285000D02*
X154050000Y-112250000D01*
X154085000Y-114800000D02*
X154085000Y-112285000D01*
X145950000Y-110250000D02*
X145950000Y-111250000D01*
X144809498Y-111250000D02*
X144000000Y-112059498D01*
X145950000Y-111250000D02*
X144809498Y-111250000D01*
X142775000Y-113500000D02*
X142000000Y-113500000D01*
X144000000Y-112275000D02*
X142775000Y-113500000D01*
X144000000Y-112059498D02*
X144000000Y-112275000D01*
D18*
X153250000Y-114665000D02*
X153115000Y-114800000D01*
X153250000Y-113050000D02*
X153250000Y-114665000D01*
X157500000Y-112500000D02*
X158000000Y-112500000D01*
X154050000Y-109750000D02*
X154750000Y-109750000D01*
X154750000Y-109750000D02*
X157500000Y-112500000D01*
X157500000Y-111500000D02*
X158000000Y-111500000D01*
X154050000Y-109250000D02*
X155250000Y-109250000D01*
X155250000Y-109250000D02*
X157500000Y-111500000D01*
X155750000Y-108750000D02*
X154050000Y-108750000D01*
X158000000Y-110500000D02*
X157500000Y-110500000D01*
X157500000Y-110500000D02*
X155750000Y-108750000D01*
X156250000Y-108250000D02*
X154050000Y-108250000D01*
X158000000Y-109500000D02*
X157500000Y-109500000D01*
X157500000Y-109500000D02*
X156250000Y-108250000D01*
X156750000Y-107750000D02*
X154050000Y-107750000D01*
X158000000Y-108500000D02*
X157500000Y-108500000D01*
X157500000Y-108500000D02*
X156750000Y-107750000D01*
X154100000Y-107200000D02*
X154050000Y-107250000D01*
X158000000Y-107500000D02*
X157700000Y-107200000D01*
X157700000Y-107200000D02*
X154100000Y-107200000D01*
X154100000Y-106800000D02*
X154050000Y-106750000D01*
X157200000Y-106800000D02*
X154100000Y-106800000D01*
X157400000Y-106600000D02*
X157200000Y-106800000D01*
X158000000Y-106500000D02*
X157900000Y-106600000D01*
X157900000Y-106600000D02*
X157400000Y-106600000D01*
X153250000Y-104625000D02*
X153575000Y-104300000D01*
X153804797Y-104300000D02*
X153897867Y-104393070D01*
X153575000Y-104300000D02*
X153804797Y-104300000D01*
X153250000Y-104950000D02*
X153250000Y-104625000D01*
X152750000Y-104950000D02*
X152750000Y-104300000D01*
X152750000Y-104300000D02*
X153349013Y-103700987D01*
X153349013Y-103700987D02*
X153525256Y-103700987D01*
X152250000Y-103969173D02*
X153199130Y-103020043D01*
X152250000Y-104950000D02*
X152250000Y-103969173D01*
X151750000Y-104950000D02*
X151750000Y-103250000D01*
X151750000Y-103250000D02*
X152200000Y-102800000D01*
X151250000Y-104950000D02*
X151250000Y-102788190D01*
X151250000Y-102788190D02*
X151422414Y-102615776D01*
X150750000Y-102236211D02*
X150805010Y-102181201D01*
X150750000Y-104950000D02*
X150750000Y-102236211D01*
X150250000Y-101750000D02*
X150250000Y-104950000D01*
X150500000Y-101400000D02*
X150250000Y-101750000D01*
X142851030Y-105500000D02*
X142000000Y-105500000D01*
X143601030Y-106250000D02*
X142851030Y-105500000D01*
X145950000Y-106250000D02*
X143601030Y-106250000D01*
X142850000Y-106500000D02*
X142000000Y-106500000D01*
X145950000Y-106750000D02*
X143100000Y-106750000D01*
X143100000Y-106750000D02*
X142850000Y-106500000D01*
X142250000Y-107250000D02*
X142000000Y-107500000D01*
X145950000Y-107250000D02*
X142250000Y-107250000D01*
X142500000Y-108500000D02*
X142000000Y-108500000D01*
X145950000Y-107750000D02*
X143250000Y-107750000D01*
X143250000Y-107750000D02*
X142500000Y-108500000D01*
X142500000Y-109500000D02*
X142000000Y-109500000D01*
X145950000Y-108250000D02*
X143750000Y-108250000D01*
X143750000Y-108250000D02*
X142500000Y-109500000D01*
X145950000Y-108750000D02*
X144250000Y-108750000D01*
X142500000Y-110500000D02*
X142000000Y-110500000D01*
X144250000Y-108750000D02*
X142500000Y-110500000D01*
X142437500Y-111500000D02*
X142000000Y-111500000D01*
X145950000Y-109250000D02*
X144687500Y-109250000D01*
X144687500Y-109250000D02*
X142437500Y-111500000D01*
X142300000Y-112200000D02*
X142000000Y-112500000D01*
X142850000Y-112200000D02*
X142300000Y-112200000D01*
X145300000Y-109750000D02*
X142850000Y-112200000D01*
X145950000Y-109750000D02*
X145300000Y-109750000D01*
X149600000Y-101400000D02*
X149750000Y-101950000D01*
X149750000Y-101950000D02*
X149750000Y-104950000D01*
X149256624Y-104543376D02*
X149256624Y-102256624D01*
X149250000Y-104950000D02*
X149250000Y-104550000D01*
X149250000Y-104550000D02*
X149256624Y-104543376D01*
X149256624Y-102256624D02*
X149000000Y-102000000D01*
X148701623Y-102800000D02*
X148750000Y-102975790D01*
X148750000Y-102975790D02*
X148750000Y-104950000D01*
X148250000Y-104950000D02*
X148250000Y-103250000D01*
X147891208Y-102891208D02*
X147891208Y-102755010D01*
X148250000Y-103250000D02*
X147891208Y-102891208D01*
X147750000Y-103435757D02*
X147424264Y-103110021D01*
X147750000Y-104950000D02*
X147750000Y-103435757D01*
X147424264Y-103110021D02*
X147000000Y-103110021D01*
X147250000Y-104950000D02*
X147250000Y-104115034D01*
X147250000Y-104115034D02*
X147000000Y-103865034D01*
X146750000Y-104950000D02*
X146847602Y-104852398D01*
X146847602Y-104847600D02*
X146547603Y-104547601D01*
X146847602Y-104852398D02*
X146847602Y-104847600D01*
X145950000Y-105647263D02*
X146170769Y-105426494D01*
X145950000Y-105750000D02*
X145950000Y-105647263D01*
X157900000Y-105600000D02*
X158000000Y-105500000D01*
X154050000Y-106250000D02*
X156725000Y-106250000D01*
X157375000Y-105600000D02*
X157900000Y-105600000D01*
X156725000Y-106250000D02*
X157375000Y-105600000D01*
X154050000Y-105750000D02*
X154050000Y-105286124D01*
X154050000Y-105286124D02*
X153911829Y-105147953D01*
X150750000Y-113584002D02*
X150750000Y-113050000D01*
X151250000Y-114084002D02*
X150750000Y-113584002D01*
X151250000Y-120250000D02*
X151250000Y-114084002D01*
X149750000Y-113675000D02*
X149750000Y-113050000D01*
X148800000Y-114625000D02*
X149750000Y-113675000D01*
X148750000Y-120250000D02*
X148800000Y-120200000D01*
X148800000Y-120200000D02*
X148800000Y-114625000D01*
X148750000Y-113584002D02*
X148750000Y-113050000D01*
X146200000Y-116134002D02*
X148750000Y-113584002D01*
X146250000Y-120250000D02*
X146200000Y-120200000D01*
X146200000Y-120200000D02*
X146200000Y-116134002D01*
X151800000Y-113100000D02*
X151750000Y-113050000D01*
X151800000Y-116400000D02*
X151800000Y-113100000D01*
X153750000Y-120250000D02*
X153750000Y-118350000D01*
X153750000Y-118350000D02*
X151800000Y-116400000D01*
D19*
G36*
X142279034Y-100412664D02*
G01*
X142080726Y-100518662D01*
X141972893Y-100793288D01*
X143000000Y-101820395D01*
X144027107Y-100793288D01*
X143919274Y-100518662D01*
X143690290Y-100406000D01*
X156298607Y-100406000D01*
X156279034Y-100412664D01*
X156080726Y-100518662D01*
X155972893Y-100793288D01*
X157000000Y-101820395D01*
X158027107Y-100793288D01*
X157919274Y-100518662D01*
X157690290Y-100406000D01*
X160831831Y-100406000D01*
X162594001Y-102168172D01*
X162594001Y-102223953D01*
X162525001Y-102217157D01*
X161224999Y-102217157D01*
X161101538Y-102229317D01*
X160982821Y-102265329D01*
X160873411Y-102323810D01*
X160777512Y-102402512D01*
X160698810Y-102498411D01*
X160640329Y-102607821D01*
X160604317Y-102726538D01*
X160592157Y-102849999D01*
X160592157Y-103550001D01*
X160604317Y-103673462D01*
X160640329Y-103792179D01*
X160698810Y-103901589D01*
X160777512Y-103997488D01*
X160873411Y-104076190D01*
X160982821Y-104134671D01*
X161101538Y-104170683D01*
X161224999Y-104182843D01*
X162525001Y-104182843D01*
X162594001Y-104176047D01*
X162594001Y-113823953D01*
X162525001Y-113817157D01*
X161224999Y-113817157D01*
X161101538Y-113829317D01*
X160982821Y-113865329D01*
X160873411Y-113923810D01*
X160777512Y-114002512D01*
X160698810Y-114098411D01*
X160640329Y-114207821D01*
X160604317Y-114326538D01*
X160592157Y-114449999D01*
X160592157Y-115150001D01*
X160604317Y-115273462D01*
X160640329Y-115392179D01*
X160698810Y-115501589D01*
X160777512Y-115597488D01*
X160873411Y-115676190D01*
X160982821Y-115734671D01*
X161101538Y-115770683D01*
X161224999Y-115782843D01*
X162525001Y-115782843D01*
X162594000Y-115776047D01*
X162594000Y-126831830D01*
X160732843Y-128692988D01*
X160732843Y-125400600D01*
X160719711Y-125267267D01*
X160680819Y-125139058D01*
X160617662Y-125020899D01*
X160532667Y-124917333D01*
X160429101Y-124832338D01*
X160310942Y-124769181D01*
X160182733Y-124730289D01*
X160049400Y-124717157D01*
X158850600Y-124717157D01*
X158717267Y-124730289D01*
X158589058Y-124769181D01*
X158470899Y-124832338D01*
X158367333Y-124917333D01*
X158282338Y-125020899D01*
X158219181Y-125139058D01*
X158180289Y-125267267D01*
X158167157Y-125400600D01*
X158167157Y-128699400D01*
X158180289Y-128832733D01*
X158219181Y-128960942D01*
X158282338Y-129079101D01*
X158367333Y-129182667D01*
X158470899Y-129267662D01*
X158589058Y-129330819D01*
X158717267Y-129369711D01*
X158850600Y-129382843D01*
X160042988Y-129382843D01*
X159831831Y-129594000D01*
X140168170Y-129594000D01*
X139957013Y-129382843D01*
X141149400Y-129382843D01*
X141282733Y-129369711D01*
X141410942Y-129330819D01*
X141529101Y-129267662D01*
X141632667Y-129182667D01*
X141717662Y-129079101D01*
X141780819Y-128960942D01*
X141819711Y-128832733D01*
X141832843Y-128699400D01*
X141832843Y-125400600D01*
X141819711Y-125267267D01*
X141780819Y-125139058D01*
X141717662Y-125020899D01*
X141632667Y-124917333D01*
X141529101Y-124832338D01*
X141410942Y-124769181D01*
X141282733Y-124730289D01*
X141149400Y-124717157D01*
X139950600Y-124717157D01*
X139817267Y-124730289D01*
X139689058Y-124769181D01*
X139570899Y-124832338D01*
X139467333Y-124917333D01*
X139382338Y-125020899D01*
X139319181Y-125139058D01*
X139280289Y-125267267D01*
X139267157Y-125400600D01*
X139267157Y-128692987D01*
X137406000Y-126831831D01*
X137406000Y-122206712D01*
X138972893Y-122206712D01*
X139080726Y-122481338D01*
X139387384Y-122632216D01*
X139717585Y-122720369D01*
X140058639Y-122742409D01*
X140397439Y-122697489D01*
X140720966Y-122587336D01*
X140884359Y-122500000D01*
X142461928Y-122500000D01*
X142474188Y-122624482D01*
X142510498Y-122744180D01*
X142569463Y-122854494D01*
X142648815Y-122951185D01*
X142745506Y-123030537D01*
X142855820Y-123089502D01*
X142975518Y-123125812D01*
X143100000Y-123138072D01*
X143464250Y-123135000D01*
X143623000Y-122976250D01*
X143623000Y-120377000D01*
X143877000Y-120377000D01*
X143877000Y-122976250D01*
X144035750Y-123135000D01*
X144400000Y-123138072D01*
X144524482Y-123125812D01*
X144644180Y-123089502D01*
X144754494Y-123030537D01*
X144851185Y-122951185D01*
X144930537Y-122854494D01*
X144989502Y-122744180D01*
X145025812Y-122624482D01*
X145038072Y-122500000D01*
X145035000Y-120535750D01*
X144876250Y-120377000D01*
X143877000Y-120377000D01*
X143623000Y-120377000D01*
X142623750Y-120377000D01*
X142465000Y-120535750D01*
X142461928Y-122500000D01*
X140884359Y-122500000D01*
X140919274Y-122481338D01*
X141027107Y-122206712D01*
X140000000Y-121179605D01*
X138972893Y-122206712D01*
X137406000Y-122206712D01*
X137406000Y-121058639D01*
X138257591Y-121058639D01*
X138302511Y-121397439D01*
X138412664Y-121720966D01*
X138518662Y-121919274D01*
X138793288Y-122027107D01*
X139820395Y-121000000D01*
X140179605Y-121000000D01*
X141206712Y-122027107D01*
X141481338Y-121919274D01*
X141632216Y-121612616D01*
X141720369Y-121282415D01*
X141742409Y-120941361D01*
X141697489Y-120602561D01*
X141587336Y-120279034D01*
X141481338Y-120080726D01*
X141206712Y-119972893D01*
X140179605Y-121000000D01*
X139820395Y-121000000D01*
X138793288Y-119972893D01*
X138518662Y-120080726D01*
X138367784Y-120387384D01*
X138279631Y-120717585D01*
X138257591Y-121058639D01*
X137406000Y-121058639D01*
X137406000Y-119793288D01*
X138972893Y-119793288D01*
X140000000Y-120820395D01*
X141027107Y-119793288D01*
X140919274Y-119518662D01*
X140612616Y-119367784D01*
X140282415Y-119279631D01*
X139941361Y-119257591D01*
X139602561Y-119302511D01*
X139279034Y-119412664D01*
X139080726Y-119518662D01*
X138972893Y-119793288D01*
X137406000Y-119793288D01*
X137406000Y-118000000D01*
X142461928Y-118000000D01*
X142465000Y-119964250D01*
X142623750Y-120123000D01*
X143623000Y-120123000D01*
X143623000Y-117523750D01*
X143877000Y-117523750D01*
X143877000Y-120123000D01*
X144876250Y-120123000D01*
X145035000Y-119964250D01*
X145038072Y-118000000D01*
X145025812Y-117875518D01*
X144989502Y-117755820D01*
X144930537Y-117645506D01*
X144851185Y-117548815D01*
X144754494Y-117469463D01*
X144644180Y-117410498D01*
X144524482Y-117374188D01*
X144400000Y-117361928D01*
X144035750Y-117365000D01*
X143877000Y-117523750D01*
X143623000Y-117523750D01*
X143464250Y-117365000D01*
X143100000Y-117361928D01*
X142975518Y-117374188D01*
X142855820Y-117410498D01*
X142745506Y-117469463D01*
X142648815Y-117548815D01*
X142569463Y-117645506D01*
X142510498Y-117755820D01*
X142474188Y-117875518D01*
X142461928Y-118000000D01*
X137406000Y-118000000D01*
X137406000Y-115776047D01*
X137474999Y-115782843D01*
X138775001Y-115782843D01*
X138898462Y-115770683D01*
X139017179Y-115734671D01*
X139126589Y-115676190D01*
X139222488Y-115597488D01*
X139301190Y-115501589D01*
X139359671Y-115392179D01*
X139395683Y-115273462D01*
X139407843Y-115150001D01*
X139407843Y-114449999D01*
X139395683Y-114326538D01*
X139359671Y-114207821D01*
X139301190Y-114098411D01*
X139222488Y-114002512D01*
X139126589Y-113923810D01*
X139017179Y-113865329D01*
X138898462Y-113829317D01*
X138775001Y-113817157D01*
X137474999Y-113817157D01*
X137406000Y-113823953D01*
X137406000Y-113800000D01*
X140586928Y-113800000D01*
X140599188Y-113924482D01*
X140635498Y-114044180D01*
X140694463Y-114154494D01*
X140773815Y-114251185D01*
X140870506Y-114330537D01*
X140980820Y-114389502D01*
X141100518Y-114425812D01*
X141225000Y-114438072D01*
X141714250Y-114435000D01*
X141873000Y-114276250D01*
X141873000Y-113627000D01*
X142127000Y-113627000D01*
X142127000Y-114276250D01*
X142285750Y-114435000D01*
X142775000Y-114438072D01*
X142899482Y-114425812D01*
X143019180Y-114389502D01*
X143129494Y-114330537D01*
X143226185Y-114251185D01*
X143305537Y-114154494D01*
X143364502Y-114044180D01*
X143400812Y-113924482D01*
X143413072Y-113800000D01*
X143410000Y-113785750D01*
X143251250Y-113627000D01*
X142127000Y-113627000D01*
X141873000Y-113627000D01*
X140748750Y-113627000D01*
X140590000Y-113785750D01*
X140586928Y-113800000D01*
X137406000Y-113800000D01*
X137406000Y-104800000D01*
X140586928Y-104800000D01*
X140599188Y-104924482D01*
X140635498Y-105044180D01*
X140694463Y-105154494D01*
X140773815Y-105251185D01*
X140846050Y-105310467D01*
X140842157Y-105350000D01*
X140842157Y-105650000D01*
X140852395Y-105753953D01*
X140882717Y-105853910D01*
X140931957Y-105946032D01*
X140976248Y-106000000D01*
X140931957Y-106053968D01*
X140882717Y-106146090D01*
X140852395Y-106246047D01*
X140842157Y-106350000D01*
X140842157Y-106650000D01*
X140852395Y-106753953D01*
X140882717Y-106853910D01*
X140931957Y-106946032D01*
X140976248Y-107000000D01*
X140931957Y-107053968D01*
X140882717Y-107146090D01*
X140852395Y-107246047D01*
X140842157Y-107350000D01*
X140842157Y-107650000D01*
X140852395Y-107753953D01*
X140882717Y-107853910D01*
X140931957Y-107946032D01*
X140976248Y-108000000D01*
X140931957Y-108053968D01*
X140882717Y-108146090D01*
X140852395Y-108246047D01*
X140842157Y-108350000D01*
X140842157Y-108650000D01*
X140852395Y-108753953D01*
X140882717Y-108853910D01*
X140931957Y-108946032D01*
X140976248Y-109000000D01*
X140931957Y-109053968D01*
X140882717Y-109146090D01*
X140852395Y-109246047D01*
X140842157Y-109350000D01*
X140842157Y-109650000D01*
X140852395Y-109753953D01*
X140882717Y-109853910D01*
X140931957Y-109946032D01*
X140976248Y-110000000D01*
X140931957Y-110053968D01*
X140882717Y-110146090D01*
X140852395Y-110246047D01*
X140842157Y-110350000D01*
X140842157Y-110650000D01*
X140852395Y-110753953D01*
X140882717Y-110853910D01*
X140931957Y-110946032D01*
X140976248Y-111000000D01*
X140931957Y-111053968D01*
X140882717Y-111146090D01*
X140852395Y-111246047D01*
X140842157Y-111350000D01*
X140842157Y-111650000D01*
X140852395Y-111753953D01*
X140882717Y-111853910D01*
X140931957Y-111946032D01*
X140976248Y-112000000D01*
X140931957Y-112053968D01*
X140882717Y-112146090D01*
X140852395Y-112246047D01*
X140842157Y-112350000D01*
X140842157Y-112650000D01*
X140846050Y-112689533D01*
X140773815Y-112748815D01*
X140694463Y-112845506D01*
X140635498Y-112955820D01*
X140599188Y-113075518D01*
X140586928Y-113200000D01*
X140590000Y-113214250D01*
X140748750Y-113373000D01*
X141873000Y-113373000D01*
X141873000Y-113353000D01*
X142127000Y-113353000D01*
X142127000Y-113373000D01*
X143251250Y-113373000D01*
X143410000Y-113214250D01*
X143413072Y-113200000D01*
X143400812Y-113075518D01*
X143364502Y-112955820D01*
X143305537Y-112845506D01*
X143226185Y-112748815D01*
X143153950Y-112689533D01*
X143157843Y-112650000D01*
X143157843Y-112569602D01*
X143191764Y-112541764D01*
X143206830Y-112523406D01*
X144865000Y-110865237D01*
X144865000Y-110877002D01*
X144896748Y-110877002D01*
X144865000Y-110908750D01*
X144875549Y-111000000D01*
X144865000Y-111091250D01*
X144929128Y-111155378D01*
X144977383Y-111241070D01*
X145002921Y-111270829D01*
X145001076Y-111272674D01*
X144938065Y-111306354D01*
X144905597Y-111333000D01*
X144903427Y-111333000D01*
X144771860Y-111359171D01*
X144647926Y-111410506D01*
X144536388Y-111485033D01*
X144441533Y-111579888D01*
X144367006Y-111691426D01*
X144315671Y-111815360D01*
X144289500Y-111946927D01*
X144289500Y-112081073D01*
X144315671Y-112212640D01*
X144367006Y-112336574D01*
X144441533Y-112448112D01*
X144536388Y-112542967D01*
X144647926Y-112617494D01*
X144771860Y-112668829D01*
X144903427Y-112695000D01*
X145037573Y-112695000D01*
X145169140Y-112668829D01*
X145228189Y-112644370D01*
X145229289Y-112645711D01*
X145287304Y-112693322D01*
X145353492Y-112728701D01*
X145425311Y-112750487D01*
X145500000Y-112757843D01*
X146242157Y-112757843D01*
X146242157Y-113500000D01*
X146249513Y-113574689D01*
X146271299Y-113646508D01*
X146306678Y-113712696D01*
X146354289Y-113770711D01*
X146412304Y-113818322D01*
X146478492Y-113853701D01*
X146550311Y-113875487D01*
X146625000Y-113882843D01*
X146875000Y-113882843D01*
X146949689Y-113875487D01*
X147000000Y-113860225D01*
X147050311Y-113875487D01*
X147117691Y-113882123D01*
X147164006Y-113941158D01*
X147258930Y-114022617D01*
X147367921Y-114083992D01*
X147486792Y-114122924D01*
X147526277Y-114127489D01*
X145876589Y-115777177D01*
X145858237Y-115792238D01*
X145843176Y-115810590D01*
X145798129Y-115865480D01*
X145753465Y-115949041D01*
X145725960Y-116039710D01*
X145716673Y-116134002D01*
X145719001Y-116157638D01*
X145719001Y-117651357D01*
X145654120Y-117671038D01*
X145531743Y-117736450D01*
X145424479Y-117824479D01*
X145336450Y-117931743D01*
X145271038Y-118054120D01*
X145230758Y-118186907D01*
X145217157Y-118325000D01*
X145217157Y-122175000D01*
X145230758Y-122313093D01*
X145271038Y-122445880D01*
X145336450Y-122568257D01*
X145424479Y-122675521D01*
X145531743Y-122763550D01*
X145654120Y-122828962D01*
X145786907Y-122869242D01*
X145925000Y-122882843D01*
X146575000Y-122882843D01*
X146713093Y-122869242D01*
X146845880Y-122828962D01*
X146968257Y-122763550D01*
X147075521Y-122675521D01*
X147163550Y-122568257D01*
X147228962Y-122445880D01*
X147269242Y-122313093D01*
X147282843Y-122175000D01*
X147282843Y-118325000D01*
X147269242Y-118186907D01*
X147228962Y-118054120D01*
X147163550Y-117931743D01*
X147075521Y-117824479D01*
X146968257Y-117736450D01*
X146845880Y-117671038D01*
X146713093Y-117630758D01*
X146681000Y-117627597D01*
X146681000Y-116333238D01*
X148319001Y-114695237D01*
X148319000Y-117627597D01*
X148286907Y-117630758D01*
X148154120Y-117671038D01*
X148031743Y-117736450D01*
X147924479Y-117824479D01*
X147836450Y-117931743D01*
X147771038Y-118054120D01*
X147730758Y-118186907D01*
X147717157Y-118325000D01*
X147717157Y-122175000D01*
X147730758Y-122313093D01*
X147771038Y-122445880D01*
X147836450Y-122568257D01*
X147924479Y-122675521D01*
X148031743Y-122763550D01*
X148154120Y-122828962D01*
X148286907Y-122869242D01*
X148425000Y-122882843D01*
X149075000Y-122882843D01*
X149213093Y-122869242D01*
X149345880Y-122828962D01*
X149468257Y-122763550D01*
X149575521Y-122675521D01*
X149663550Y-122568257D01*
X149728962Y-122445880D01*
X149769242Y-122313093D01*
X149782843Y-122175000D01*
X149782843Y-118325000D01*
X149769242Y-118186907D01*
X149728962Y-118054120D01*
X149663550Y-117931743D01*
X149575521Y-117824479D01*
X149468257Y-117736450D01*
X149345880Y-117671038D01*
X149281000Y-117651357D01*
X149281000Y-115745861D01*
X149332937Y-115756192D01*
X149467083Y-115756192D01*
X149598650Y-115730021D01*
X149664814Y-115702615D01*
X149681216Y-115701000D01*
X149738815Y-115771185D01*
X149835506Y-115850537D01*
X149945820Y-115909502D01*
X150065518Y-115945812D01*
X150190000Y-115958072D01*
X150199250Y-115955000D01*
X150358000Y-115796250D01*
X150358000Y-115127000D01*
X150338000Y-115127000D01*
X150338000Y-114873000D01*
X150358000Y-114873000D01*
X150358000Y-114203750D01*
X150199250Y-114045000D01*
X150190000Y-114041928D01*
X150065518Y-114054188D01*
X150044749Y-114060488D01*
X150073411Y-114031825D01*
X150091764Y-114016764D01*
X150151872Y-113943522D01*
X150184305Y-113882843D01*
X150373010Y-113882843D01*
X150408236Y-113925766D01*
X150426594Y-113940832D01*
X150650756Y-114164994D01*
X150612000Y-114203750D01*
X150612000Y-114873000D01*
X150632000Y-114873000D01*
X150632000Y-115127000D01*
X150612000Y-115127000D01*
X150612000Y-115796250D01*
X150769001Y-115953251D01*
X150769000Y-117636190D01*
X150654120Y-117671038D01*
X150531743Y-117736450D01*
X150424479Y-117824479D01*
X150336450Y-117931743D01*
X150271038Y-118054120D01*
X150230758Y-118186907D01*
X150217157Y-118325000D01*
X150217157Y-122175000D01*
X150230758Y-122313093D01*
X150271038Y-122445880D01*
X150336450Y-122568257D01*
X150424479Y-122675521D01*
X150531743Y-122763550D01*
X150654120Y-122828962D01*
X150786907Y-122869242D01*
X150925000Y-122882843D01*
X151575000Y-122882843D01*
X151713093Y-122869242D01*
X151845880Y-122828962D01*
X151968257Y-122763550D01*
X152075521Y-122675521D01*
X152163550Y-122568257D01*
X152228962Y-122445880D01*
X152269242Y-122313093D01*
X152282843Y-122175000D01*
X152282843Y-118325000D01*
X152269242Y-118186907D01*
X152228962Y-118054120D01*
X152163550Y-117931743D01*
X152075521Y-117824479D01*
X151968257Y-117736450D01*
X151845880Y-117671038D01*
X151731000Y-117636190D01*
X151731000Y-117011236D01*
X152772029Y-118052266D01*
X152771038Y-118054120D01*
X152730758Y-118186907D01*
X152717157Y-118325000D01*
X152717157Y-122175000D01*
X152730758Y-122313093D01*
X152771038Y-122445880D01*
X152836450Y-122568257D01*
X152924479Y-122675521D01*
X153031743Y-122763550D01*
X153154120Y-122828962D01*
X153286907Y-122869242D01*
X153425000Y-122882843D01*
X154075000Y-122882843D01*
X154213093Y-122869242D01*
X154345880Y-122828962D01*
X154468257Y-122763550D01*
X154575521Y-122675521D01*
X154663550Y-122568257D01*
X154728962Y-122445880D01*
X154769242Y-122313093D01*
X154782843Y-122175000D01*
X154782843Y-118325000D01*
X154769242Y-118186907D01*
X154728962Y-118054120D01*
X154663550Y-117931743D01*
X154662940Y-117931000D01*
X155337060Y-117931000D01*
X155336450Y-117931743D01*
X155271038Y-118054120D01*
X155230758Y-118186907D01*
X155217157Y-118325000D01*
X155217157Y-122175000D01*
X155230758Y-122313093D01*
X155271038Y-122445880D01*
X155336450Y-122568257D01*
X155424479Y-122675521D01*
X155531743Y-122763550D01*
X155654120Y-122828962D01*
X155786907Y-122869242D01*
X155925000Y-122882843D01*
X156575000Y-122882843D01*
X156713093Y-122869242D01*
X156845880Y-122828962D01*
X156968257Y-122763550D01*
X157075521Y-122675521D01*
X157163550Y-122568257D01*
X157228962Y-122445880D01*
X157269242Y-122313093D01*
X157279719Y-122206712D01*
X158972893Y-122206712D01*
X159080726Y-122481338D01*
X159387384Y-122632216D01*
X159717585Y-122720369D01*
X160058639Y-122742409D01*
X160397439Y-122697489D01*
X160720966Y-122587336D01*
X160919274Y-122481338D01*
X161027107Y-122206712D01*
X160000000Y-121179605D01*
X158972893Y-122206712D01*
X157279719Y-122206712D01*
X157282843Y-122175000D01*
X157282843Y-121058639D01*
X158257591Y-121058639D01*
X158302511Y-121397439D01*
X158412664Y-121720966D01*
X158518662Y-121919274D01*
X158793288Y-122027107D01*
X159820395Y-121000000D01*
X160179605Y-121000000D01*
X161206712Y-122027107D01*
X161481338Y-121919274D01*
X161632216Y-121612616D01*
X161720369Y-121282415D01*
X161742409Y-120941361D01*
X161697489Y-120602561D01*
X161587336Y-120279034D01*
X161481338Y-120080726D01*
X161206712Y-119972893D01*
X160179605Y-121000000D01*
X159820395Y-121000000D01*
X158793288Y-119972893D01*
X158518662Y-120080726D01*
X158367784Y-120387384D01*
X158279631Y-120717585D01*
X158257591Y-121058639D01*
X157282843Y-121058639D01*
X157282843Y-119793288D01*
X158972893Y-119793288D01*
X160000000Y-120820395D01*
X161027107Y-119793288D01*
X160919274Y-119518662D01*
X160612616Y-119367784D01*
X160282415Y-119279631D01*
X159941361Y-119257591D01*
X159602561Y-119302511D01*
X159279034Y-119412664D01*
X159080726Y-119518662D01*
X158972893Y-119793288D01*
X157282843Y-119793288D01*
X157282843Y-118325000D01*
X157269242Y-118186907D01*
X157228962Y-118054120D01*
X157163550Y-117931743D01*
X157075521Y-117824479D01*
X156968257Y-117736450D01*
X156845880Y-117671038D01*
X156731000Y-117636190D01*
X156731000Y-114426074D01*
X156733568Y-114400000D01*
X156731000Y-114373926D01*
X156731000Y-114373916D01*
X156723317Y-114295906D01*
X156692953Y-114195812D01*
X156683680Y-114178464D01*
X156643646Y-114103564D01*
X156593918Y-114042970D01*
X156593912Y-114042964D01*
X156577290Y-114022710D01*
X156557035Y-114006087D01*
X156350948Y-113800000D01*
X156586928Y-113800000D01*
X156599188Y-113924482D01*
X156635498Y-114044180D01*
X156694463Y-114154494D01*
X156773815Y-114251185D01*
X156870506Y-114330537D01*
X156980820Y-114389502D01*
X157100518Y-114425812D01*
X157225000Y-114438072D01*
X157714250Y-114435000D01*
X157873000Y-114276250D01*
X157873000Y-113627000D01*
X158127000Y-113627000D01*
X158127000Y-114276250D01*
X158285750Y-114435000D01*
X158775000Y-114438072D01*
X158899482Y-114425812D01*
X159019180Y-114389502D01*
X159129494Y-114330537D01*
X159226185Y-114251185D01*
X159305537Y-114154494D01*
X159364502Y-114044180D01*
X159400812Y-113924482D01*
X159413072Y-113800000D01*
X159410000Y-113785750D01*
X159251250Y-113627000D01*
X158127000Y-113627000D01*
X157873000Y-113627000D01*
X156748750Y-113627000D01*
X156590000Y-113785750D01*
X156586928Y-113800000D01*
X156350948Y-113800000D01*
X156108921Y-113557975D01*
X156092290Y-113537710D01*
X156013618Y-113473146D01*
X156013464Y-113472857D01*
X155947509Y-113392491D01*
X155931000Y-113378942D01*
X155931000Y-113231069D01*
X156003494Y-113122574D01*
X156054829Y-112998640D01*
X156081000Y-112867073D01*
X156081000Y-112732927D01*
X156054829Y-112601360D01*
X156003494Y-112477426D01*
X155931000Y-112368931D01*
X155931000Y-111926074D01*
X155933568Y-111900000D01*
X155931000Y-111873926D01*
X155931000Y-111873916D01*
X155923317Y-111795906D01*
X155892953Y-111695812D01*
X155887153Y-111684961D01*
X155843646Y-111603564D01*
X155793918Y-111542970D01*
X155793912Y-111542964D01*
X155777290Y-111522710D01*
X155757035Y-111506087D01*
X155143921Y-110892975D01*
X155130812Y-110877002D01*
X155135000Y-110877002D01*
X155135000Y-110815236D01*
X156842157Y-112522394D01*
X156842157Y-112650000D01*
X156846050Y-112689533D01*
X156773815Y-112748815D01*
X156694463Y-112845506D01*
X156635498Y-112955820D01*
X156599188Y-113075518D01*
X156586928Y-113200000D01*
X156590000Y-113214250D01*
X156748750Y-113373000D01*
X157873000Y-113373000D01*
X157873000Y-113353000D01*
X158127000Y-113353000D01*
X158127000Y-113373000D01*
X159251250Y-113373000D01*
X159410000Y-113214250D01*
X159413072Y-113200000D01*
X159400812Y-113075518D01*
X159364502Y-112955820D01*
X159305537Y-112845506D01*
X159226185Y-112748815D01*
X159153950Y-112689533D01*
X159157843Y-112650000D01*
X159157843Y-112350000D01*
X159147605Y-112246047D01*
X159117283Y-112146090D01*
X159068043Y-112053968D01*
X159023752Y-112000000D01*
X159068043Y-111946032D01*
X159117283Y-111853910D01*
X159147605Y-111753953D01*
X159157843Y-111650000D01*
X159157843Y-111350000D01*
X159147605Y-111246047D01*
X159117283Y-111146090D01*
X159068043Y-111053968D01*
X159023752Y-111000000D01*
X159068043Y-110946032D01*
X159117283Y-110853910D01*
X159147605Y-110753953D01*
X159157843Y-110650000D01*
X159157843Y-110350000D01*
X159147605Y-110246047D01*
X159117283Y-110146090D01*
X159068043Y-110053968D01*
X159023752Y-110000000D01*
X159068043Y-109946032D01*
X159117283Y-109853910D01*
X159147605Y-109753953D01*
X159157843Y-109650000D01*
X159157843Y-109350000D01*
X159147605Y-109246047D01*
X159117283Y-109146090D01*
X159068043Y-109053968D01*
X159023752Y-109000000D01*
X159068043Y-108946032D01*
X159117283Y-108853910D01*
X159147605Y-108753953D01*
X159157843Y-108650000D01*
X159157843Y-108350000D01*
X159147605Y-108246047D01*
X159117283Y-108146090D01*
X159068043Y-108053968D01*
X159023752Y-108000000D01*
X159068043Y-107946032D01*
X159117283Y-107853910D01*
X159147605Y-107753953D01*
X159157843Y-107650000D01*
X159157843Y-107350000D01*
X159147605Y-107246047D01*
X159117283Y-107146090D01*
X159068043Y-107053968D01*
X159023752Y-107000000D01*
X159068043Y-106946032D01*
X159117283Y-106853910D01*
X159147605Y-106753953D01*
X159157843Y-106650000D01*
X159157843Y-106350000D01*
X159147605Y-106246047D01*
X159117283Y-106146090D01*
X159068043Y-106053968D01*
X159023752Y-106000000D01*
X159068043Y-105946032D01*
X159117283Y-105853910D01*
X159147605Y-105753953D01*
X159157843Y-105650000D01*
X159157843Y-105350000D01*
X159153950Y-105310467D01*
X159226185Y-105251185D01*
X159305537Y-105154494D01*
X159364502Y-105044180D01*
X159400812Y-104924482D01*
X159413072Y-104800000D01*
X159410000Y-104785750D01*
X159251250Y-104627000D01*
X158127000Y-104627000D01*
X158127000Y-104647000D01*
X157873000Y-104647000D01*
X157873000Y-104627000D01*
X156748750Y-104627000D01*
X156590000Y-104785750D01*
X156586928Y-104800000D01*
X156599188Y-104924482D01*
X156635498Y-105044180D01*
X156694463Y-105154494D01*
X156773815Y-105251185D01*
X156846050Y-105310467D01*
X156842157Y-105350000D01*
X156842157Y-105452606D01*
X156525764Y-105769000D01*
X154882843Y-105769000D01*
X154882843Y-105625000D01*
X154875487Y-105550311D01*
X154853701Y-105478492D01*
X154818322Y-105412304D01*
X154770711Y-105354289D01*
X154712696Y-105306678D01*
X154646508Y-105271299D01*
X154585327Y-105252740D01*
X154592829Y-105215026D01*
X154592829Y-105080880D01*
X154566658Y-104949313D01*
X154515323Y-104825379D01*
X154471681Y-104760064D01*
X154501361Y-104715644D01*
X154552696Y-104591710D01*
X154578867Y-104460143D01*
X154578867Y-104325997D01*
X154552696Y-104194430D01*
X154501361Y-104070496D01*
X154426834Y-103958958D01*
X154331979Y-103864103D01*
X154220441Y-103789576D01*
X154203382Y-103782510D01*
X154206256Y-103768060D01*
X154206256Y-103633914D01*
X154180085Y-103502347D01*
X154128750Y-103378413D01*
X154054223Y-103266875D01*
X153994060Y-103206712D01*
X155972893Y-103206712D01*
X156080726Y-103481338D01*
X156387384Y-103632216D01*
X156717585Y-103720369D01*
X156801842Y-103725814D01*
X156773815Y-103748815D01*
X156694463Y-103845506D01*
X156635498Y-103955820D01*
X156599188Y-104075518D01*
X156586928Y-104200000D01*
X156590000Y-104214250D01*
X156748750Y-104373000D01*
X157873000Y-104373000D01*
X157873000Y-103723750D01*
X158127000Y-103723750D01*
X158127000Y-104373000D01*
X159251250Y-104373000D01*
X159410000Y-104214250D01*
X159413072Y-104200000D01*
X159400812Y-104075518D01*
X159364502Y-103955820D01*
X159305537Y-103845506D01*
X159226185Y-103748815D01*
X159129494Y-103669463D01*
X159019180Y-103610498D01*
X158899482Y-103574188D01*
X158775000Y-103561928D01*
X158285750Y-103565000D01*
X158127000Y-103723750D01*
X157873000Y-103723750D01*
X157731145Y-103581895D01*
X157919274Y-103481338D01*
X158027107Y-103206712D01*
X157000000Y-102179605D01*
X155972893Y-103206712D01*
X153994060Y-103206712D01*
X153959368Y-103172020D01*
X153874519Y-103115326D01*
X153880130Y-103087116D01*
X153880130Y-102952970D01*
X153853959Y-102821403D01*
X153802624Y-102697469D01*
X153728097Y-102585931D01*
X153633242Y-102491076D01*
X153521704Y-102416549D01*
X153397770Y-102365214D01*
X153266203Y-102339043D01*
X153132057Y-102339043D01*
X153000490Y-102365214D01*
X152876556Y-102416549D01*
X152797924Y-102469089D01*
X152728967Y-102365888D01*
X152634112Y-102271033D01*
X152522574Y-102196506D01*
X152398640Y-102145171D01*
X152267073Y-102119000D01*
X152132927Y-102119000D01*
X152001360Y-102145171D01*
X151940215Y-102170498D01*
X151856526Y-102086809D01*
X151814367Y-102058639D01*
X155257591Y-102058639D01*
X155302511Y-102397439D01*
X155412664Y-102720966D01*
X155518662Y-102919274D01*
X155793288Y-103027107D01*
X156820395Y-102000000D01*
X157179605Y-102000000D01*
X158206712Y-103027107D01*
X158481338Y-102919274D01*
X158632216Y-102612616D01*
X158720369Y-102282415D01*
X158742409Y-101941361D01*
X158697489Y-101602561D01*
X158587336Y-101279034D01*
X158481338Y-101080726D01*
X158206712Y-100972893D01*
X157179605Y-102000000D01*
X156820395Y-102000000D01*
X155793288Y-100972893D01*
X155518662Y-101080726D01*
X155367784Y-101387384D01*
X155279631Y-101717585D01*
X155257591Y-102058639D01*
X151814367Y-102058639D01*
X151744988Y-102012282D01*
X151621054Y-101960947D01*
X151489487Y-101934776D01*
X151440046Y-101934776D01*
X151408504Y-101858627D01*
X151333977Y-101747089D01*
X151239122Y-101652234D01*
X151155308Y-101596232D01*
X151181000Y-101467073D01*
X151181000Y-101332927D01*
X151154829Y-101201360D01*
X151103494Y-101077426D01*
X151028967Y-100965888D01*
X150934112Y-100871033D01*
X150822574Y-100796506D01*
X150698640Y-100745171D01*
X150567073Y-100719000D01*
X150432927Y-100719000D01*
X150301360Y-100745171D01*
X150177426Y-100796506D01*
X150065888Y-100871033D01*
X150050000Y-100886921D01*
X150034112Y-100871033D01*
X149922574Y-100796506D01*
X149798640Y-100745171D01*
X149667073Y-100719000D01*
X149532927Y-100719000D01*
X149401360Y-100745171D01*
X149277426Y-100796506D01*
X149165888Y-100871033D01*
X149071033Y-100965888D01*
X148996506Y-101077426D01*
X148945171Y-101201360D01*
X148921311Y-101321311D01*
X148801360Y-101345171D01*
X148677426Y-101396506D01*
X148565888Y-101471033D01*
X148471033Y-101565888D01*
X148396506Y-101677426D01*
X148345171Y-101801360D01*
X148319000Y-101932927D01*
X148319000Y-102067073D01*
X148345171Y-102198640D01*
X148351822Y-102214698D01*
X148329135Y-102229858D01*
X148325320Y-102226043D01*
X148213782Y-102151516D01*
X148089848Y-102100181D01*
X147958281Y-102074010D01*
X147824135Y-102074010D01*
X147692568Y-102100181D01*
X147568634Y-102151516D01*
X147457096Y-102226043D01*
X147362241Y-102320898D01*
X147287714Y-102432436D01*
X147266624Y-102483352D01*
X147198640Y-102455192D01*
X147067073Y-102429021D01*
X146932927Y-102429021D01*
X146801360Y-102455192D01*
X146677426Y-102506527D01*
X146565888Y-102581054D01*
X146471033Y-102675909D01*
X146396506Y-102787447D01*
X146345171Y-102911381D01*
X146319000Y-103042948D01*
X146319000Y-103177094D01*
X146345171Y-103308661D01*
X146396506Y-103432595D01*
X146433211Y-103487528D01*
X146396506Y-103542460D01*
X146345171Y-103666394D01*
X146319000Y-103797961D01*
X146319000Y-103905183D01*
X146225029Y-103944107D01*
X146113491Y-104018634D01*
X146018636Y-104113489D01*
X145944109Y-104225027D01*
X145892774Y-104348961D01*
X145866603Y-104480528D01*
X145866603Y-104614674D01*
X145892774Y-104746241D01*
X145913384Y-104795998D01*
X145848195Y-104823000D01*
X145736657Y-104897527D01*
X145641802Y-104992382D01*
X145567275Y-105103920D01*
X145515940Y-105227854D01*
X145513095Y-105242157D01*
X145500000Y-105242157D01*
X145425311Y-105249513D01*
X145353492Y-105271299D01*
X145287304Y-105306678D01*
X145229289Y-105354289D01*
X145181678Y-105412304D01*
X145146299Y-105478492D01*
X145124513Y-105550311D01*
X145117157Y-105625000D01*
X145117157Y-105769000D01*
X143800267Y-105769000D01*
X143251547Y-105220281D01*
X143305537Y-105154494D01*
X143364502Y-105044180D01*
X143400812Y-104924482D01*
X143413072Y-104800000D01*
X143410000Y-104785750D01*
X143251250Y-104627000D01*
X142127000Y-104627000D01*
X142127000Y-104647000D01*
X141873000Y-104647000D01*
X141873000Y-104627000D01*
X140748750Y-104627000D01*
X140590000Y-104785750D01*
X140586928Y-104800000D01*
X137406000Y-104800000D01*
X137406000Y-104200000D01*
X140586928Y-104200000D01*
X140590000Y-104214250D01*
X140748750Y-104373000D01*
X141873000Y-104373000D01*
X141873000Y-103723750D01*
X141714250Y-103565000D01*
X141225000Y-103561928D01*
X141100518Y-103574188D01*
X140980820Y-103610498D01*
X140870506Y-103669463D01*
X140773815Y-103748815D01*
X140694463Y-103845506D01*
X140635498Y-103955820D01*
X140599188Y-104075518D01*
X140586928Y-104200000D01*
X137406000Y-104200000D01*
X137406000Y-104176047D01*
X137474999Y-104182843D01*
X138775001Y-104182843D01*
X138898462Y-104170683D01*
X139017179Y-104134671D01*
X139126589Y-104076190D01*
X139222488Y-103997488D01*
X139301190Y-103901589D01*
X139359671Y-103792179D01*
X139395683Y-103673462D01*
X139407843Y-103550001D01*
X139407843Y-103206712D01*
X141972893Y-103206712D01*
X142080726Y-103481338D01*
X142274214Y-103576536D01*
X142127000Y-103723750D01*
X142127000Y-104373000D01*
X143251250Y-104373000D01*
X143410000Y-104214250D01*
X143413072Y-104200000D01*
X143400812Y-104075518D01*
X143364502Y-103955820D01*
X143305537Y-103845506D01*
X143226185Y-103748815D01*
X143196162Y-103724175D01*
X143397439Y-103697489D01*
X143720966Y-103587336D01*
X143919274Y-103481338D01*
X144027107Y-103206712D01*
X143000000Y-102179605D01*
X141972893Y-103206712D01*
X139407843Y-103206712D01*
X139407843Y-102849999D01*
X139395683Y-102726538D01*
X139359671Y-102607821D01*
X139301190Y-102498411D01*
X139222488Y-102402512D01*
X139126589Y-102323810D01*
X139017179Y-102265329D01*
X138898462Y-102229317D01*
X138775001Y-102217157D01*
X137474999Y-102217157D01*
X137406000Y-102223953D01*
X137406000Y-102168169D01*
X137515530Y-102058639D01*
X141257591Y-102058639D01*
X141302511Y-102397439D01*
X141412664Y-102720966D01*
X141518662Y-102919274D01*
X141793288Y-103027107D01*
X142820395Y-102000000D01*
X143179605Y-102000000D01*
X144206712Y-103027107D01*
X144481338Y-102919274D01*
X144632216Y-102612616D01*
X144720369Y-102282415D01*
X144742409Y-101941361D01*
X144697489Y-101602561D01*
X144587336Y-101279034D01*
X144481338Y-101080726D01*
X144206712Y-100972893D01*
X143179605Y-102000000D01*
X142820395Y-102000000D01*
X141793288Y-100972893D01*
X141518662Y-101080726D01*
X141367784Y-101387384D01*
X141279631Y-101717585D01*
X141257591Y-102058639D01*
X137515530Y-102058639D01*
X139168171Y-100406000D01*
X142298607Y-100406000D01*
X142279034Y-100412664D01*
G37*
X142279034Y-100412664D02*
X142080726Y-100518662D01*
X141972893Y-100793288D01*
X143000000Y-101820395D01*
X144027107Y-100793288D01*
X143919274Y-100518662D01*
X143690290Y-100406000D01*
X156298607Y-100406000D01*
X156279034Y-100412664D01*
X156080726Y-100518662D01*
X155972893Y-100793288D01*
X157000000Y-101820395D01*
X158027107Y-100793288D01*
X157919274Y-100518662D01*
X157690290Y-100406000D01*
X160831831Y-100406000D01*
X162594001Y-102168172D01*
X162594001Y-102223953D01*
X162525001Y-102217157D01*
X161224999Y-102217157D01*
X161101538Y-102229317D01*
X160982821Y-102265329D01*
X160873411Y-102323810D01*
X160777512Y-102402512D01*
X160698810Y-102498411D01*
X160640329Y-102607821D01*
X160604317Y-102726538D01*
X160592157Y-102849999D01*
X160592157Y-103550001D01*
X160604317Y-103673462D01*
X160640329Y-103792179D01*
X160698810Y-103901589D01*
X160777512Y-103997488D01*
X160873411Y-104076190D01*
X160982821Y-104134671D01*
X161101538Y-104170683D01*
X161224999Y-104182843D01*
X162525001Y-104182843D01*
X162594001Y-104176047D01*
X162594001Y-113823953D01*
X162525001Y-113817157D01*
X161224999Y-113817157D01*
X161101538Y-113829317D01*
X160982821Y-113865329D01*
X160873411Y-113923810D01*
X160777512Y-114002512D01*
X160698810Y-114098411D01*
X160640329Y-114207821D01*
X160604317Y-114326538D01*
X160592157Y-114449999D01*
X160592157Y-115150001D01*
X160604317Y-115273462D01*
X160640329Y-115392179D01*
X160698810Y-115501589D01*
X160777512Y-115597488D01*
X160873411Y-115676190D01*
X160982821Y-115734671D01*
X161101538Y-115770683D01*
X161224999Y-115782843D01*
X162525001Y-115782843D01*
X162594000Y-115776047D01*
X162594000Y-126831830D01*
X160732843Y-128692988D01*
X160732843Y-125400600D01*
X160719711Y-125267267D01*
X160680819Y-125139058D01*
X160617662Y-125020899D01*
X160532667Y-124917333D01*
X160429101Y-124832338D01*
X160310942Y-124769181D01*
X160182733Y-124730289D01*
X160049400Y-124717157D01*
X158850600Y-124717157D01*
X158717267Y-124730289D01*
X158589058Y-124769181D01*
X158470899Y-124832338D01*
X158367333Y-124917333D01*
X158282338Y-125020899D01*
X158219181Y-125139058D01*
X158180289Y-125267267D01*
X158167157Y-125400600D01*
X158167157Y-128699400D01*
X158180289Y-128832733D01*
X158219181Y-128960942D01*
X158282338Y-129079101D01*
X158367333Y-129182667D01*
X158470899Y-129267662D01*
X158589058Y-129330819D01*
X158717267Y-129369711D01*
X158850600Y-129382843D01*
X160042988Y-129382843D01*
X159831831Y-129594000D01*
X140168170Y-129594000D01*
X139957013Y-129382843D01*
X141149400Y-129382843D01*
X141282733Y-129369711D01*
X141410942Y-129330819D01*
X141529101Y-129267662D01*
X141632667Y-129182667D01*
X141717662Y-129079101D01*
X141780819Y-128960942D01*
X141819711Y-128832733D01*
X141832843Y-128699400D01*
X141832843Y-125400600D01*
X141819711Y-125267267D01*
X141780819Y-125139058D01*
X141717662Y-125020899D01*
X141632667Y-124917333D01*
X141529101Y-124832338D01*
X141410942Y-124769181D01*
X141282733Y-124730289D01*
X141149400Y-124717157D01*
X139950600Y-124717157D01*
X139817267Y-124730289D01*
X139689058Y-124769181D01*
X139570899Y-124832338D01*
X139467333Y-124917333D01*
X139382338Y-125020899D01*
X139319181Y-125139058D01*
X139280289Y-125267267D01*
X139267157Y-125400600D01*
X139267157Y-128692987D01*
X137406000Y-126831831D01*
X137406000Y-122206712D01*
X138972893Y-122206712D01*
X139080726Y-122481338D01*
X139387384Y-122632216D01*
X139717585Y-122720369D01*
X140058639Y-122742409D01*
X140397439Y-122697489D01*
X140720966Y-122587336D01*
X140884359Y-122500000D01*
X142461928Y-122500000D01*
X142474188Y-122624482D01*
X142510498Y-122744180D01*
X142569463Y-122854494D01*
X142648815Y-122951185D01*
X142745506Y-123030537D01*
X142855820Y-123089502D01*
X142975518Y-123125812D01*
X143100000Y-123138072D01*
X143464250Y-123135000D01*
X143623000Y-122976250D01*
X143623000Y-120377000D01*
X143877000Y-120377000D01*
X143877000Y-122976250D01*
X144035750Y-123135000D01*
X144400000Y-123138072D01*
X144524482Y-123125812D01*
X144644180Y-123089502D01*
X144754494Y-123030537D01*
X144851185Y-122951185D01*
X144930537Y-122854494D01*
X144989502Y-122744180D01*
X145025812Y-122624482D01*
X145038072Y-122500000D01*
X145035000Y-120535750D01*
X144876250Y-120377000D01*
X143877000Y-120377000D01*
X143623000Y-120377000D01*
X142623750Y-120377000D01*
X142465000Y-120535750D01*
X142461928Y-122500000D01*
X140884359Y-122500000D01*
X140919274Y-122481338D01*
X141027107Y-122206712D01*
X140000000Y-121179605D01*
X138972893Y-122206712D01*
X137406000Y-122206712D01*
X137406000Y-121058639D01*
X138257591Y-121058639D01*
X138302511Y-121397439D01*
X138412664Y-121720966D01*
X138518662Y-121919274D01*
X138793288Y-122027107D01*
X139820395Y-121000000D01*
X140179605Y-121000000D01*
X141206712Y-122027107D01*
X141481338Y-121919274D01*
X141632216Y-121612616D01*
X141720369Y-121282415D01*
X141742409Y-120941361D01*
X141697489Y-120602561D01*
X141587336Y-120279034D01*
X141481338Y-120080726D01*
X141206712Y-119972893D01*
X140179605Y-121000000D01*
X139820395Y-121000000D01*
X138793288Y-119972893D01*
X138518662Y-120080726D01*
X138367784Y-120387384D01*
X138279631Y-120717585D01*
X138257591Y-121058639D01*
X137406000Y-121058639D01*
X137406000Y-119793288D01*
X138972893Y-119793288D01*
X140000000Y-120820395D01*
X141027107Y-119793288D01*
X140919274Y-119518662D01*
X140612616Y-119367784D01*
X140282415Y-119279631D01*
X139941361Y-119257591D01*
X139602561Y-119302511D01*
X139279034Y-119412664D01*
X139080726Y-119518662D01*
X138972893Y-119793288D01*
X137406000Y-119793288D01*
X137406000Y-118000000D01*
X142461928Y-118000000D01*
X142465000Y-119964250D01*
X142623750Y-120123000D01*
X143623000Y-120123000D01*
X143623000Y-117523750D01*
X143877000Y-117523750D01*
X143877000Y-120123000D01*
X144876250Y-120123000D01*
X145035000Y-119964250D01*
X145038072Y-118000000D01*
X145025812Y-117875518D01*
X144989502Y-117755820D01*
X144930537Y-117645506D01*
X144851185Y-117548815D01*
X144754494Y-117469463D01*
X144644180Y-117410498D01*
X144524482Y-117374188D01*
X144400000Y-117361928D01*
X144035750Y-117365000D01*
X143877000Y-117523750D01*
X143623000Y-117523750D01*
X143464250Y-117365000D01*
X143100000Y-117361928D01*
X142975518Y-117374188D01*
X142855820Y-117410498D01*
X142745506Y-117469463D01*
X142648815Y-117548815D01*
X142569463Y-117645506D01*
X142510498Y-117755820D01*
X142474188Y-117875518D01*
X142461928Y-118000000D01*
X137406000Y-118000000D01*
X137406000Y-115776047D01*
X137474999Y-115782843D01*
X138775001Y-115782843D01*
X138898462Y-115770683D01*
X139017179Y-115734671D01*
X139126589Y-115676190D01*
X139222488Y-115597488D01*
X139301190Y-115501589D01*
X139359671Y-115392179D01*
X139395683Y-115273462D01*
X139407843Y-115150001D01*
X139407843Y-114449999D01*
X139395683Y-114326538D01*
X139359671Y-114207821D01*
X139301190Y-114098411D01*
X139222488Y-114002512D01*
X139126589Y-113923810D01*
X139017179Y-113865329D01*
X138898462Y-113829317D01*
X138775001Y-113817157D01*
X137474999Y-113817157D01*
X137406000Y-113823953D01*
X137406000Y-113800000D01*
X140586928Y-113800000D01*
X140599188Y-113924482D01*
X140635498Y-114044180D01*
X140694463Y-114154494D01*
X140773815Y-114251185D01*
X140870506Y-114330537D01*
X140980820Y-114389502D01*
X141100518Y-114425812D01*
X141225000Y-114438072D01*
X141714250Y-114435000D01*
X141873000Y-114276250D01*
X141873000Y-113627000D01*
X142127000Y-113627000D01*
X142127000Y-114276250D01*
X142285750Y-114435000D01*
X142775000Y-114438072D01*
X142899482Y-114425812D01*
X143019180Y-114389502D01*
X143129494Y-114330537D01*
X143226185Y-114251185D01*
X143305537Y-114154494D01*
X143364502Y-114044180D01*
X143400812Y-113924482D01*
X143413072Y-113800000D01*
X143410000Y-113785750D01*
X143251250Y-113627000D01*
X142127000Y-113627000D01*
X141873000Y-113627000D01*
X140748750Y-113627000D01*
X140590000Y-113785750D01*
X140586928Y-113800000D01*
X137406000Y-113800000D01*
X137406000Y-104800000D01*
X140586928Y-104800000D01*
X140599188Y-104924482D01*
X140635498Y-105044180D01*
X140694463Y-105154494D01*
X140773815Y-105251185D01*
X140846050Y-105310467D01*
X140842157Y-105350000D01*
X140842157Y-105650000D01*
X140852395Y-105753953D01*
X140882717Y-105853910D01*
X140931957Y-105946032D01*
X140976248Y-106000000D01*
X140931957Y-106053968D01*
X140882717Y-106146090D01*
X140852395Y-106246047D01*
X140842157Y-106350000D01*
X140842157Y-106650000D01*
X140852395Y-106753953D01*
X140882717Y-106853910D01*
X140931957Y-106946032D01*
X140976248Y-107000000D01*
X140931957Y-107053968D01*
X140882717Y-107146090D01*
X140852395Y-107246047D01*
X140842157Y-107350000D01*
X140842157Y-107650000D01*
X140852395Y-107753953D01*
X140882717Y-107853910D01*
X140931957Y-107946032D01*
X140976248Y-108000000D01*
X140931957Y-108053968D01*
X140882717Y-108146090D01*
X140852395Y-108246047D01*
X140842157Y-108350000D01*
X140842157Y-108650000D01*
X140852395Y-108753953D01*
X140882717Y-108853910D01*
X140931957Y-108946032D01*
X140976248Y-109000000D01*
X140931957Y-109053968D01*
X140882717Y-109146090D01*
X140852395Y-109246047D01*
X140842157Y-109350000D01*
X140842157Y-109650000D01*
X140852395Y-109753953D01*
X140882717Y-109853910D01*
X140931957Y-109946032D01*
X140976248Y-110000000D01*
X140931957Y-110053968D01*
X140882717Y-110146090D01*
X140852395Y-110246047D01*
X140842157Y-110350000D01*
X140842157Y-110650000D01*
X140852395Y-110753953D01*
X140882717Y-110853910D01*
X140931957Y-110946032D01*
X140976248Y-111000000D01*
X140931957Y-111053968D01*
X140882717Y-111146090D01*
X140852395Y-111246047D01*
X140842157Y-111350000D01*
X140842157Y-111650000D01*
X140852395Y-111753953D01*
X140882717Y-111853910D01*
X140931957Y-111946032D01*
X140976248Y-112000000D01*
X140931957Y-112053968D01*
X140882717Y-112146090D01*
X140852395Y-112246047D01*
X140842157Y-112350000D01*
X140842157Y-112650000D01*
X140846050Y-112689533D01*
X140773815Y-112748815D01*
X140694463Y-112845506D01*
X140635498Y-112955820D01*
X140599188Y-113075518D01*
X140586928Y-113200000D01*
X140590000Y-113214250D01*
X140748750Y-113373000D01*
X141873000Y-113373000D01*
X141873000Y-113353000D01*
X142127000Y-113353000D01*
X142127000Y-113373000D01*
X143251250Y-113373000D01*
X143410000Y-113214250D01*
X143413072Y-113200000D01*
X143400812Y-113075518D01*
X143364502Y-112955820D01*
X143305537Y-112845506D01*
X143226185Y-112748815D01*
X143153950Y-112689533D01*
X143157843Y-112650000D01*
X143157843Y-112569602D01*
X143191764Y-112541764D01*
X143206830Y-112523406D01*
X144865000Y-110865237D01*
X144865000Y-110877002D01*
X144896748Y-110877002D01*
X144865000Y-110908750D01*
X144875549Y-111000000D01*
X144865000Y-111091250D01*
X144929128Y-111155378D01*
X144977383Y-111241070D01*
X145002921Y-111270829D01*
X145001076Y-111272674D01*
X144938065Y-111306354D01*
X144905597Y-111333000D01*
X144903427Y-111333000D01*
X144771860Y-111359171D01*
X144647926Y-111410506D01*
X144536388Y-111485033D01*
X144441533Y-111579888D01*
X144367006Y-111691426D01*
X144315671Y-111815360D01*
X144289500Y-111946927D01*
X144289500Y-112081073D01*
X144315671Y-112212640D01*
X144367006Y-112336574D01*
X144441533Y-112448112D01*
X144536388Y-112542967D01*
X144647926Y-112617494D01*
X144771860Y-112668829D01*
X144903427Y-112695000D01*
X145037573Y-112695000D01*
X145169140Y-112668829D01*
X145228189Y-112644370D01*
X145229289Y-112645711D01*
X145287304Y-112693322D01*
X145353492Y-112728701D01*
X145425311Y-112750487D01*
X145500000Y-112757843D01*
X146242157Y-112757843D01*
X146242157Y-113500000D01*
X146249513Y-113574689D01*
X146271299Y-113646508D01*
X146306678Y-113712696D01*
X146354289Y-113770711D01*
X146412304Y-113818322D01*
X146478492Y-113853701D01*
X146550311Y-113875487D01*
X146625000Y-113882843D01*
X146875000Y-113882843D01*
X146949689Y-113875487D01*
X147000000Y-113860225D01*
X147050311Y-113875487D01*
X147117691Y-113882123D01*
X147164006Y-113941158D01*
X147258930Y-114022617D01*
X147367921Y-114083992D01*
X147486792Y-114122924D01*
X147526277Y-114127489D01*
X145876589Y-115777177D01*
X145858237Y-115792238D01*
X145843176Y-115810590D01*
X145798129Y-115865480D01*
X145753465Y-115949041D01*
X145725960Y-116039710D01*
X145716673Y-116134002D01*
X145719001Y-116157638D01*
X145719001Y-117651357D01*
X145654120Y-117671038D01*
X145531743Y-117736450D01*
X145424479Y-117824479D01*
X145336450Y-117931743D01*
X145271038Y-118054120D01*
X145230758Y-118186907D01*
X145217157Y-118325000D01*
X145217157Y-122175000D01*
X145230758Y-122313093D01*
X145271038Y-122445880D01*
X145336450Y-122568257D01*
X145424479Y-122675521D01*
X145531743Y-122763550D01*
X145654120Y-122828962D01*
X145786907Y-122869242D01*
X145925000Y-122882843D01*
X146575000Y-122882843D01*
X146713093Y-122869242D01*
X146845880Y-122828962D01*
X146968257Y-122763550D01*
X147075521Y-122675521D01*
X147163550Y-122568257D01*
X147228962Y-122445880D01*
X147269242Y-122313093D01*
X147282843Y-122175000D01*
X147282843Y-118325000D01*
X147269242Y-118186907D01*
X147228962Y-118054120D01*
X147163550Y-117931743D01*
X147075521Y-117824479D01*
X146968257Y-117736450D01*
X146845880Y-117671038D01*
X146713093Y-117630758D01*
X146681000Y-117627597D01*
X146681000Y-116333238D01*
X148319001Y-114695237D01*
X148319000Y-117627597D01*
X148286907Y-117630758D01*
X148154120Y-117671038D01*
X148031743Y-117736450D01*
X147924479Y-117824479D01*
X147836450Y-117931743D01*
X147771038Y-118054120D01*
X147730758Y-118186907D01*
X147717157Y-118325000D01*
X147717157Y-122175000D01*
X147730758Y-122313093D01*
X147771038Y-122445880D01*
X147836450Y-122568257D01*
X147924479Y-122675521D01*
X148031743Y-122763550D01*
X148154120Y-122828962D01*
X148286907Y-122869242D01*
X148425000Y-122882843D01*
X149075000Y-122882843D01*
X149213093Y-122869242D01*
X149345880Y-122828962D01*
X149468257Y-122763550D01*
X149575521Y-122675521D01*
X149663550Y-122568257D01*
X149728962Y-122445880D01*
X149769242Y-122313093D01*
X149782843Y-122175000D01*
X149782843Y-118325000D01*
X149769242Y-118186907D01*
X149728962Y-118054120D01*
X149663550Y-117931743D01*
X149575521Y-117824479D01*
X149468257Y-117736450D01*
X149345880Y-117671038D01*
X149281000Y-117651357D01*
X149281000Y-115745861D01*
X149332937Y-115756192D01*
X149467083Y-115756192D01*
X149598650Y-115730021D01*
X149664814Y-115702615D01*
X149681216Y-115701000D01*
X149738815Y-115771185D01*
X149835506Y-115850537D01*
X149945820Y-115909502D01*
X150065518Y-115945812D01*
X150190000Y-115958072D01*
X150199250Y-115955000D01*
X150358000Y-115796250D01*
X150358000Y-115127000D01*
X150338000Y-115127000D01*
X150338000Y-114873000D01*
X150358000Y-114873000D01*
X150358000Y-114203750D01*
X150199250Y-114045000D01*
X150190000Y-114041928D01*
X150065518Y-114054188D01*
X150044749Y-114060488D01*
X150073411Y-114031825D01*
X150091764Y-114016764D01*
X150151872Y-113943522D01*
X150184305Y-113882843D01*
X150373010Y-113882843D01*
X150408236Y-113925766D01*
X150426594Y-113940832D01*
X150650756Y-114164994D01*
X150612000Y-114203750D01*
X150612000Y-114873000D01*
X150632000Y-114873000D01*
X150632000Y-115127000D01*
X150612000Y-115127000D01*
X150612000Y-115796250D01*
X150769001Y-115953251D01*
X150769000Y-117636190D01*
X150654120Y-117671038D01*
X150531743Y-117736450D01*
X150424479Y-117824479D01*
X150336450Y-117931743D01*
X150271038Y-118054120D01*
X150230758Y-118186907D01*
X150217157Y-118325000D01*
X150217157Y-122175000D01*
X150230758Y-122313093D01*
X150271038Y-122445880D01*
X150336450Y-122568257D01*
X150424479Y-122675521D01*
X150531743Y-122763550D01*
X150654120Y-122828962D01*
X150786907Y-122869242D01*
X150925000Y-122882843D01*
X151575000Y-122882843D01*
X151713093Y-122869242D01*
X151845880Y-122828962D01*
X151968257Y-122763550D01*
X152075521Y-122675521D01*
X152163550Y-122568257D01*
X152228962Y-122445880D01*
X152269242Y-122313093D01*
X152282843Y-122175000D01*
X152282843Y-118325000D01*
X152269242Y-118186907D01*
X152228962Y-118054120D01*
X152163550Y-117931743D01*
X152075521Y-117824479D01*
X151968257Y-117736450D01*
X151845880Y-117671038D01*
X151731000Y-117636190D01*
X151731000Y-117011236D01*
X152772029Y-118052266D01*
X152771038Y-118054120D01*
X152730758Y-118186907D01*
X152717157Y-118325000D01*
X152717157Y-122175000D01*
X152730758Y-122313093D01*
X152771038Y-122445880D01*
X152836450Y-122568257D01*
X152924479Y-122675521D01*
X153031743Y-122763550D01*
X153154120Y-122828962D01*
X153286907Y-122869242D01*
X153425000Y-122882843D01*
X154075000Y-122882843D01*
X154213093Y-122869242D01*
X154345880Y-122828962D01*
X154468257Y-122763550D01*
X154575521Y-122675521D01*
X154663550Y-122568257D01*
X154728962Y-122445880D01*
X154769242Y-122313093D01*
X154782843Y-122175000D01*
X154782843Y-118325000D01*
X154769242Y-118186907D01*
X154728962Y-118054120D01*
X154663550Y-117931743D01*
X154662940Y-117931000D01*
X155337060Y-117931000D01*
X155336450Y-117931743D01*
X155271038Y-118054120D01*
X155230758Y-118186907D01*
X155217157Y-118325000D01*
X155217157Y-122175000D01*
X155230758Y-122313093D01*
X155271038Y-122445880D01*
X155336450Y-122568257D01*
X155424479Y-122675521D01*
X155531743Y-122763550D01*
X155654120Y-122828962D01*
X155786907Y-122869242D01*
X155925000Y-122882843D01*
X156575000Y-122882843D01*
X156713093Y-122869242D01*
X156845880Y-122828962D01*
X156968257Y-122763550D01*
X157075521Y-122675521D01*
X157163550Y-122568257D01*
X157228962Y-122445880D01*
X157269242Y-122313093D01*
X157279719Y-122206712D01*
X158972893Y-122206712D01*
X159080726Y-122481338D01*
X159387384Y-122632216D01*
X159717585Y-122720369D01*
X160058639Y-122742409D01*
X160397439Y-122697489D01*
X160720966Y-122587336D01*
X160919274Y-122481338D01*
X161027107Y-122206712D01*
X160000000Y-121179605D01*
X158972893Y-122206712D01*
X157279719Y-122206712D01*
X157282843Y-122175000D01*
X157282843Y-121058639D01*
X158257591Y-121058639D01*
X158302511Y-121397439D01*
X158412664Y-121720966D01*
X158518662Y-121919274D01*
X158793288Y-122027107D01*
X159820395Y-121000000D01*
X160179605Y-121000000D01*
X161206712Y-122027107D01*
X161481338Y-121919274D01*
X161632216Y-121612616D01*
X161720369Y-121282415D01*
X161742409Y-120941361D01*
X161697489Y-120602561D01*
X161587336Y-120279034D01*
X161481338Y-120080726D01*
X161206712Y-119972893D01*
X160179605Y-121000000D01*
X159820395Y-121000000D01*
X158793288Y-119972893D01*
X158518662Y-120080726D01*
X158367784Y-120387384D01*
X158279631Y-120717585D01*
X158257591Y-121058639D01*
X157282843Y-121058639D01*
X157282843Y-119793288D01*
X158972893Y-119793288D01*
X160000000Y-120820395D01*
X161027107Y-119793288D01*
X160919274Y-119518662D01*
X160612616Y-119367784D01*
X160282415Y-119279631D01*
X159941361Y-119257591D01*
X159602561Y-119302511D01*
X159279034Y-119412664D01*
X159080726Y-119518662D01*
X158972893Y-119793288D01*
X157282843Y-119793288D01*
X157282843Y-118325000D01*
X157269242Y-118186907D01*
X157228962Y-118054120D01*
X157163550Y-117931743D01*
X157075521Y-117824479D01*
X156968257Y-117736450D01*
X156845880Y-117671038D01*
X156731000Y-117636190D01*
X156731000Y-114426074D01*
X156733568Y-114400000D01*
X156731000Y-114373926D01*
X156731000Y-114373916D01*
X156723317Y-114295906D01*
X156692953Y-114195812D01*
X156683680Y-114178464D01*
X156643646Y-114103564D01*
X156593918Y-114042970D01*
X156593912Y-114042964D01*
X156577290Y-114022710D01*
X156557035Y-114006087D01*
X156350948Y-113800000D01*
X156586928Y-113800000D01*
X156599188Y-113924482D01*
X156635498Y-114044180D01*
X156694463Y-114154494D01*
X156773815Y-114251185D01*
X156870506Y-114330537D01*
X156980820Y-114389502D01*
X157100518Y-114425812D01*
X157225000Y-114438072D01*
X157714250Y-114435000D01*
X157873000Y-114276250D01*
X157873000Y-113627000D01*
X158127000Y-113627000D01*
X158127000Y-114276250D01*
X158285750Y-114435000D01*
X158775000Y-114438072D01*
X158899482Y-114425812D01*
X159019180Y-114389502D01*
X159129494Y-114330537D01*
X159226185Y-114251185D01*
X159305537Y-114154494D01*
X159364502Y-114044180D01*
X159400812Y-113924482D01*
X159413072Y-113800000D01*
X159410000Y-113785750D01*
X159251250Y-113627000D01*
X158127000Y-113627000D01*
X157873000Y-113627000D01*
X156748750Y-113627000D01*
X156590000Y-113785750D01*
X156586928Y-113800000D01*
X156350948Y-113800000D01*
X156108921Y-113557975D01*
X156092290Y-113537710D01*
X156013618Y-113473146D01*
X156013464Y-113472857D01*
X155947509Y-113392491D01*
X155931000Y-113378942D01*
X155931000Y-113231069D01*
X156003494Y-113122574D01*
X156054829Y-112998640D01*
X156081000Y-112867073D01*
X156081000Y-112732927D01*
X156054829Y-112601360D01*
X156003494Y-112477426D01*
X155931000Y-112368931D01*
X155931000Y-111926074D01*
X155933568Y-111900000D01*
X155931000Y-111873926D01*
X155931000Y-111873916D01*
X155923317Y-111795906D01*
X155892953Y-111695812D01*
X155887153Y-111684961D01*
X155843646Y-111603564D01*
X155793918Y-111542970D01*
X155793912Y-111542964D01*
X155777290Y-111522710D01*
X155757035Y-111506087D01*
X155143921Y-110892975D01*
X155130812Y-110877002D01*
X155135000Y-110877002D01*
X155135000Y-110815236D01*
X156842157Y-112522394D01*
X156842157Y-112650000D01*
X156846050Y-112689533D01*
X156773815Y-112748815D01*
X156694463Y-112845506D01*
X156635498Y-112955820D01*
X156599188Y-113075518D01*
X156586928Y-113200000D01*
X156590000Y-113214250D01*
X156748750Y-113373000D01*
X157873000Y-113373000D01*
X157873000Y-113353000D01*
X158127000Y-113353000D01*
X158127000Y-113373000D01*
X159251250Y-113373000D01*
X159410000Y-113214250D01*
X159413072Y-113200000D01*
X159400812Y-113075518D01*
X159364502Y-112955820D01*
X159305537Y-112845506D01*
X159226185Y-112748815D01*
X159153950Y-112689533D01*
X159157843Y-112650000D01*
X159157843Y-112350000D01*
X159147605Y-112246047D01*
X159117283Y-112146090D01*
X159068043Y-112053968D01*
X159023752Y-112000000D01*
X159068043Y-111946032D01*
X159117283Y-111853910D01*
X159147605Y-111753953D01*
X159157843Y-111650000D01*
X159157843Y-111350000D01*
X159147605Y-111246047D01*
X159117283Y-111146090D01*
X159068043Y-111053968D01*
X159023752Y-111000000D01*
X159068043Y-110946032D01*
X159117283Y-110853910D01*
X159147605Y-110753953D01*
X159157843Y-110650000D01*
X159157843Y-110350000D01*
X159147605Y-110246047D01*
X159117283Y-110146090D01*
X159068043Y-110053968D01*
X159023752Y-110000000D01*
X159068043Y-109946032D01*
X159117283Y-109853910D01*
X159147605Y-109753953D01*
X159157843Y-109650000D01*
X159157843Y-109350000D01*
X159147605Y-109246047D01*
X159117283Y-109146090D01*
X159068043Y-109053968D01*
X159023752Y-109000000D01*
X159068043Y-108946032D01*
X159117283Y-108853910D01*
X159147605Y-108753953D01*
X159157843Y-108650000D01*
X159157843Y-108350000D01*
X159147605Y-108246047D01*
X159117283Y-108146090D01*
X159068043Y-108053968D01*
X159023752Y-108000000D01*
X159068043Y-107946032D01*
X159117283Y-107853910D01*
X159147605Y-107753953D01*
X159157843Y-107650000D01*
X159157843Y-107350000D01*
X159147605Y-107246047D01*
X159117283Y-107146090D01*
X159068043Y-107053968D01*
X159023752Y-107000000D01*
X159068043Y-106946032D01*
X159117283Y-106853910D01*
X159147605Y-106753953D01*
X159157843Y-106650000D01*
X159157843Y-106350000D01*
X159147605Y-106246047D01*
X159117283Y-106146090D01*
X159068043Y-106053968D01*
X159023752Y-106000000D01*
X159068043Y-105946032D01*
X159117283Y-105853910D01*
X159147605Y-105753953D01*
X159157843Y-105650000D01*
X159157843Y-105350000D01*
X159153950Y-105310467D01*
X159226185Y-105251185D01*
X159305537Y-105154494D01*
X159364502Y-105044180D01*
X159400812Y-104924482D01*
X159413072Y-104800000D01*
X159410000Y-104785750D01*
X159251250Y-104627000D01*
X158127000Y-104627000D01*
X158127000Y-104647000D01*
X157873000Y-104647000D01*
X157873000Y-104627000D01*
X156748750Y-104627000D01*
X156590000Y-104785750D01*
X156586928Y-104800000D01*
X156599188Y-104924482D01*
X156635498Y-105044180D01*
X156694463Y-105154494D01*
X156773815Y-105251185D01*
X156846050Y-105310467D01*
X156842157Y-105350000D01*
X156842157Y-105452606D01*
X156525764Y-105769000D01*
X154882843Y-105769000D01*
X154882843Y-105625000D01*
X154875487Y-105550311D01*
X154853701Y-105478492D01*
X154818322Y-105412304D01*
X154770711Y-105354289D01*
X154712696Y-105306678D01*
X154646508Y-105271299D01*
X154585327Y-105252740D01*
X154592829Y-105215026D01*
X154592829Y-105080880D01*
X154566658Y-104949313D01*
X154515323Y-104825379D01*
X154471681Y-104760064D01*
X154501361Y-104715644D01*
X154552696Y-104591710D01*
X154578867Y-104460143D01*
X154578867Y-104325997D01*
X154552696Y-104194430D01*
X154501361Y-104070496D01*
X154426834Y-103958958D01*
X154331979Y-103864103D01*
X154220441Y-103789576D01*
X154203382Y-103782510D01*
X154206256Y-103768060D01*
X154206256Y-103633914D01*
X154180085Y-103502347D01*
X154128750Y-103378413D01*
X154054223Y-103266875D01*
X153994060Y-103206712D01*
X155972893Y-103206712D01*
X156080726Y-103481338D01*
X156387384Y-103632216D01*
X156717585Y-103720369D01*
X156801842Y-103725814D01*
X156773815Y-103748815D01*
X156694463Y-103845506D01*
X156635498Y-103955820D01*
X156599188Y-104075518D01*
X156586928Y-104200000D01*
X156590000Y-104214250D01*
X156748750Y-104373000D01*
X157873000Y-104373000D01*
X157873000Y-103723750D01*
X158127000Y-103723750D01*
X158127000Y-104373000D01*
X159251250Y-104373000D01*
X159410000Y-104214250D01*
X159413072Y-104200000D01*
X159400812Y-104075518D01*
X159364502Y-103955820D01*
X159305537Y-103845506D01*
X159226185Y-103748815D01*
X159129494Y-103669463D01*
X159019180Y-103610498D01*
X158899482Y-103574188D01*
X158775000Y-103561928D01*
X158285750Y-103565000D01*
X158127000Y-103723750D01*
X157873000Y-103723750D01*
X157731145Y-103581895D01*
X157919274Y-103481338D01*
X158027107Y-103206712D01*
X157000000Y-102179605D01*
X155972893Y-103206712D01*
X153994060Y-103206712D01*
X153959368Y-103172020D01*
X153874519Y-103115326D01*
X153880130Y-103087116D01*
X153880130Y-102952970D01*
X153853959Y-102821403D01*
X153802624Y-102697469D01*
X153728097Y-102585931D01*
X153633242Y-102491076D01*
X153521704Y-102416549D01*
X153397770Y-102365214D01*
X153266203Y-102339043D01*
X153132057Y-102339043D01*
X153000490Y-102365214D01*
X152876556Y-102416549D01*
X152797924Y-102469089D01*
X152728967Y-102365888D01*
X152634112Y-102271033D01*
X152522574Y-102196506D01*
X152398640Y-102145171D01*
X152267073Y-102119000D01*
X152132927Y-102119000D01*
X152001360Y-102145171D01*
X151940215Y-102170498D01*
X151856526Y-102086809D01*
X151814367Y-102058639D01*
X155257591Y-102058639D01*
X155302511Y-102397439D01*
X155412664Y-102720966D01*
X155518662Y-102919274D01*
X155793288Y-103027107D01*
X156820395Y-102000000D01*
X157179605Y-102000000D01*
X158206712Y-103027107D01*
X158481338Y-102919274D01*
X158632216Y-102612616D01*
X158720369Y-102282415D01*
X158742409Y-101941361D01*
X158697489Y-101602561D01*
X158587336Y-101279034D01*
X158481338Y-101080726D01*
X158206712Y-100972893D01*
X157179605Y-102000000D01*
X156820395Y-102000000D01*
X155793288Y-100972893D01*
X155518662Y-101080726D01*
X155367784Y-101387384D01*
X155279631Y-101717585D01*
X155257591Y-102058639D01*
X151814367Y-102058639D01*
X151744988Y-102012282D01*
X151621054Y-101960947D01*
X151489487Y-101934776D01*
X151440046Y-101934776D01*
X151408504Y-101858627D01*
X151333977Y-101747089D01*
X151239122Y-101652234D01*
X151155308Y-101596232D01*
X151181000Y-101467073D01*
X151181000Y-101332927D01*
X151154829Y-101201360D01*
X151103494Y-101077426D01*
X151028967Y-100965888D01*
X150934112Y-100871033D01*
X150822574Y-100796506D01*
X150698640Y-100745171D01*
X150567073Y-100719000D01*
X150432927Y-100719000D01*
X150301360Y-100745171D01*
X150177426Y-100796506D01*
X150065888Y-100871033D01*
X150050000Y-100886921D01*
X150034112Y-100871033D01*
X149922574Y-100796506D01*
X149798640Y-100745171D01*
X149667073Y-100719000D01*
X149532927Y-100719000D01*
X149401360Y-100745171D01*
X149277426Y-100796506D01*
X149165888Y-100871033D01*
X149071033Y-100965888D01*
X148996506Y-101077426D01*
X148945171Y-101201360D01*
X148921311Y-101321311D01*
X148801360Y-101345171D01*
X148677426Y-101396506D01*
X148565888Y-101471033D01*
X148471033Y-101565888D01*
X148396506Y-101677426D01*
X148345171Y-101801360D01*
X148319000Y-101932927D01*
X148319000Y-102067073D01*
X148345171Y-102198640D01*
X148351822Y-102214698D01*
X148329135Y-102229858D01*
X148325320Y-102226043D01*
X148213782Y-102151516D01*
X148089848Y-102100181D01*
X147958281Y-102074010D01*
X147824135Y-102074010D01*
X147692568Y-102100181D01*
X147568634Y-102151516D01*
X147457096Y-102226043D01*
X147362241Y-102320898D01*
X147287714Y-102432436D01*
X147266624Y-102483352D01*
X147198640Y-102455192D01*
X147067073Y-102429021D01*
X146932927Y-102429021D01*
X146801360Y-102455192D01*
X146677426Y-102506527D01*
X146565888Y-102581054D01*
X146471033Y-102675909D01*
X146396506Y-102787447D01*
X146345171Y-102911381D01*
X146319000Y-103042948D01*
X146319000Y-103177094D01*
X146345171Y-103308661D01*
X146396506Y-103432595D01*
X146433211Y-103487528D01*
X146396506Y-103542460D01*
X146345171Y-103666394D01*
X146319000Y-103797961D01*
X146319000Y-103905183D01*
X146225029Y-103944107D01*
X146113491Y-104018634D01*
X146018636Y-104113489D01*
X145944109Y-104225027D01*
X145892774Y-104348961D01*
X145866603Y-104480528D01*
X145866603Y-104614674D01*
X145892774Y-104746241D01*
X145913384Y-104795998D01*
X145848195Y-104823000D01*
X145736657Y-104897527D01*
X145641802Y-104992382D01*
X145567275Y-105103920D01*
X145515940Y-105227854D01*
X145513095Y-105242157D01*
X145500000Y-105242157D01*
X145425311Y-105249513D01*
X145353492Y-105271299D01*
X145287304Y-105306678D01*
X145229289Y-105354289D01*
X145181678Y-105412304D01*
X145146299Y-105478492D01*
X145124513Y-105550311D01*
X145117157Y-105625000D01*
X145117157Y-105769000D01*
X143800267Y-105769000D01*
X143251547Y-105220281D01*
X143305537Y-105154494D01*
X143364502Y-105044180D01*
X143400812Y-104924482D01*
X143413072Y-104800000D01*
X143410000Y-104785750D01*
X143251250Y-104627000D01*
X142127000Y-104627000D01*
X142127000Y-104647000D01*
X141873000Y-104647000D01*
X141873000Y-104627000D01*
X140748750Y-104627000D01*
X140590000Y-104785750D01*
X140586928Y-104800000D01*
X137406000Y-104800000D01*
X137406000Y-104200000D01*
X140586928Y-104200000D01*
X140590000Y-104214250D01*
X140748750Y-104373000D01*
X141873000Y-104373000D01*
X141873000Y-103723750D01*
X141714250Y-103565000D01*
X141225000Y-103561928D01*
X141100518Y-103574188D01*
X140980820Y-103610498D01*
X140870506Y-103669463D01*
X140773815Y-103748815D01*
X140694463Y-103845506D01*
X140635498Y-103955820D01*
X140599188Y-104075518D01*
X140586928Y-104200000D01*
X137406000Y-104200000D01*
X137406000Y-104176047D01*
X137474999Y-104182843D01*
X138775001Y-104182843D01*
X138898462Y-104170683D01*
X139017179Y-104134671D01*
X139126589Y-104076190D01*
X139222488Y-103997488D01*
X139301190Y-103901589D01*
X139359671Y-103792179D01*
X139395683Y-103673462D01*
X139407843Y-103550001D01*
X139407843Y-103206712D01*
X141972893Y-103206712D01*
X142080726Y-103481338D01*
X142274214Y-103576536D01*
X142127000Y-103723750D01*
X142127000Y-104373000D01*
X143251250Y-104373000D01*
X143410000Y-104214250D01*
X143413072Y-104200000D01*
X143400812Y-104075518D01*
X143364502Y-103955820D01*
X143305537Y-103845506D01*
X143226185Y-103748815D01*
X143196162Y-103724175D01*
X143397439Y-103697489D01*
X143720966Y-103587336D01*
X143919274Y-103481338D01*
X144027107Y-103206712D01*
X143000000Y-102179605D01*
X141972893Y-103206712D01*
X139407843Y-103206712D01*
X139407843Y-102849999D01*
X139395683Y-102726538D01*
X139359671Y-102607821D01*
X139301190Y-102498411D01*
X139222488Y-102402512D01*
X139126589Y-102323810D01*
X139017179Y-102265329D01*
X138898462Y-102229317D01*
X138775001Y-102217157D01*
X137474999Y-102217157D01*
X137406000Y-102223953D01*
X137406000Y-102168169D01*
X137515530Y-102058639D01*
X141257591Y-102058639D01*
X141302511Y-102397439D01*
X141412664Y-102720966D01*
X141518662Y-102919274D01*
X141793288Y-103027107D01*
X142820395Y-102000000D01*
X143179605Y-102000000D01*
X144206712Y-103027107D01*
X144481338Y-102919274D01*
X144632216Y-102612616D01*
X144720369Y-102282415D01*
X144742409Y-101941361D01*
X144697489Y-101602561D01*
X144587336Y-101279034D01*
X144481338Y-101080726D01*
X144206712Y-100972893D01*
X143179605Y-102000000D01*
X142820395Y-102000000D01*
X141793288Y-100972893D01*
X141518662Y-101080726D01*
X141367784Y-101387384D01*
X141279631Y-101717585D01*
X141257591Y-102058639D01*
X137515530Y-102058639D01*
X139168171Y-100406000D01*
X142298607Y-100406000D01*
X142279034Y-100412664D01*
G36*
X154177000Y-112851250D02*
G01*
X154335750Y-113010000D01*
X154485974Y-113012918D01*
X154610695Y-113003397D01*
X154731162Y-112969727D01*
X154738664Y-112965927D01*
X154745171Y-112998640D01*
X154796506Y-113122574D01*
X154869000Y-113231070D01*
X154869001Y-113378942D01*
X154852491Y-113392491D01*
X154786536Y-113472857D01*
X154737527Y-113564547D01*
X154707347Y-113664035D01*
X154697157Y-113767500D01*
X154697157Y-113929506D01*
X154624180Y-113890498D01*
X154504482Y-113854188D01*
X154380000Y-113841928D01*
X154370750Y-113845000D01*
X154212000Y-114003750D01*
X154212000Y-114673000D01*
X154518750Y-114673000D01*
X154603750Y-114758000D01*
X155273000Y-114758000D01*
X155273000Y-114738000D01*
X155527000Y-114738000D01*
X155527000Y-114758000D01*
X155547000Y-114758000D01*
X155547000Y-115012000D01*
X155527000Y-115012000D01*
X155527000Y-115656250D01*
X155669000Y-115798250D01*
X155669000Y-116868303D01*
X155650000Y-116866432D01*
X155623926Y-116869000D01*
X154019947Y-116869000D01*
X152931000Y-115780054D01*
X152931000Y-115499248D01*
X152967500Y-115502843D01*
X153262500Y-115502843D01*
X153281216Y-115501000D01*
X153338815Y-115571185D01*
X153435506Y-115650537D01*
X153545820Y-115709502D01*
X153665518Y-115745812D01*
X153790000Y-115758072D01*
X153799250Y-115755000D01*
X153958000Y-115596250D01*
X153958000Y-114927000D01*
X154212000Y-114927000D01*
X154212000Y-115596250D01*
X154370750Y-115755000D01*
X154380000Y-115758072D01*
X154504482Y-115745812D01*
X154624180Y-115709502D01*
X154684777Y-115677112D01*
X154725506Y-115710537D01*
X154835820Y-115769502D01*
X154955518Y-115805812D01*
X155080000Y-115818072D01*
X155114250Y-115815000D01*
X155273000Y-115656250D01*
X155273000Y-115012000D01*
X154941250Y-115012000D01*
X154856250Y-114927000D01*
X154212000Y-114927000D01*
X153958000Y-114927000D01*
X153938000Y-114927000D01*
X153938000Y-114673000D01*
X153958000Y-114673000D01*
X153958000Y-114003750D01*
X153799250Y-113845000D01*
X153790000Y-113841928D01*
X153731000Y-113847739D01*
X153731000Y-113638929D01*
X153750487Y-113574689D01*
X153757843Y-113500000D01*
X153757843Y-113010124D01*
X153764250Y-113010000D01*
X153923000Y-112851250D01*
X153923000Y-112125000D01*
X154177000Y-112125000D01*
X154177000Y-112851250D01*
G37*
X154177000Y-112851250D02*
X154335750Y-113010000D01*
X154485974Y-113012918D01*
X154610695Y-113003397D01*
X154731162Y-112969727D01*
X154738664Y-112965927D01*
X154745171Y-112998640D01*
X154796506Y-113122574D01*
X154869000Y-113231070D01*
X154869001Y-113378942D01*
X154852491Y-113392491D01*
X154786536Y-113472857D01*
X154737527Y-113564547D01*
X154707347Y-113664035D01*
X154697157Y-113767500D01*
X154697157Y-113929506D01*
X154624180Y-113890498D01*
X154504482Y-113854188D01*
X154380000Y-113841928D01*
X154370750Y-113845000D01*
X154212000Y-114003750D01*
X154212000Y-114673000D01*
X154518750Y-114673000D01*
X154603750Y-114758000D01*
X155273000Y-114758000D01*
X155273000Y-114738000D01*
X155527000Y-114738000D01*
X155527000Y-114758000D01*
X155547000Y-114758000D01*
X155547000Y-115012000D01*
X155527000Y-115012000D01*
X155527000Y-115656250D01*
X155669000Y-115798250D01*
X155669000Y-116868303D01*
X155650000Y-116866432D01*
X155623926Y-116869000D01*
X154019947Y-116869000D01*
X152931000Y-115780054D01*
X152931000Y-115499248D01*
X152967500Y-115502843D01*
X153262500Y-115502843D01*
X153281216Y-115501000D01*
X153338815Y-115571185D01*
X153435506Y-115650537D01*
X153545820Y-115709502D01*
X153665518Y-115745812D01*
X153790000Y-115758072D01*
X153799250Y-115755000D01*
X153958000Y-115596250D01*
X153958000Y-114927000D01*
X154212000Y-114927000D01*
X154212000Y-115596250D01*
X154370750Y-115755000D01*
X154380000Y-115758072D01*
X154504482Y-115745812D01*
X154624180Y-115709502D01*
X154684777Y-115677112D01*
X154725506Y-115710537D01*
X154835820Y-115769502D01*
X154955518Y-115805812D01*
X155080000Y-115818072D01*
X155114250Y-115815000D01*
X155273000Y-115656250D01*
X155273000Y-115012000D01*
X154941250Y-115012000D01*
X154856250Y-114927000D01*
X154212000Y-114927000D01*
X153958000Y-114927000D01*
X153938000Y-114927000D01*
X153938000Y-114673000D01*
X153958000Y-114673000D01*
X153958000Y-114003750D01*
X153799250Y-113845000D01*
X153790000Y-113841928D01*
X153731000Y-113847739D01*
X153731000Y-113638929D01*
X153750487Y-113574689D01*
X153757843Y-113500000D01*
X153757843Y-113010124D01*
X153764250Y-113010000D01*
X153923000Y-112851250D01*
X153923000Y-112125000D01*
X154177000Y-112125000D01*
X154177000Y-112851250D01*
G36*
X146077000Y-110875000D02*
G01*
X145823000Y-110875000D01*
X145823000Y-110625000D01*
X146077000Y-110625000D01*
X146077000Y-110875000D01*
G37*
X146077000Y-110875000D02*
X145823000Y-110875000D01*
X145823000Y-110625000D01*
X146077000Y-110625000D01*
X146077000Y-110875000D01*
G36*
X150127000Y-108873000D02*
G01*
X150147000Y-108873000D01*
X150147000Y-109127000D01*
X150127000Y-109127000D01*
X150127000Y-109147000D01*
X149873000Y-109147000D01*
X149873000Y-109127000D01*
X149853000Y-109127000D01*
X149853000Y-108873000D01*
X149873000Y-108873000D01*
X149873000Y-108853000D01*
X150127000Y-108853000D01*
X150127000Y-108873000D01*
G37*
X150127000Y-108873000D02*
X150147000Y-108873000D01*
X150147000Y-109127000D01*
X150127000Y-109127000D01*
X150127000Y-109147000D01*
X149873000Y-109147000D01*
X149873000Y-109127000D01*
X149853000Y-109127000D01*
X149853000Y-108873000D01*
X149873000Y-108873000D01*
X149873000Y-108853000D01*
X150127000Y-108853000D01*
X150127000Y-108873000D01*
M02*
