G04 #@! TF.GenerationSoftware,KiCad,Pcbnew,5.1.5-52549c5~84~ubuntu18.04.1*
G04 #@! TF.CreationDate,2020-03-28T18:13:44-07:00*
G04 #@! TF.ProjectId,somos_wristband_2.0,736f6d6f-735f-4777-9269-737462616e64,rev?*
G04 #@! TF.SameCoordinates,Original*
G04 #@! TF.FileFunction,Paste,Top*
G04 #@! TF.FilePolarity,Positive*
%FSLAX46Y46*%
G04 Gerber Fmt 4.6, Leading zero omitted, Abs format (unit mm)*
G04 Created by KiCad (PCBNEW 5.1.5-52549c5~84~ubuntu18.04.1) date 2020-03-28 18:13:44*
%MOMM*%
%LPD*%
G04 APERTURE LIST*
%ADD10R,5.900000X5.900000*%
%ADD11R,0.800000X0.150000*%
%ADD12R,0.150000X0.800000*%
%ADD13C,0.100000*%
G04 APERTURE END LIST*
D10*
X150000000Y-109000000D03*
D11*
X154050000Y-105750000D03*
X154050000Y-106250000D03*
X154050000Y-106750000D03*
X154050000Y-107250000D03*
X154050000Y-107750000D03*
X154050000Y-108250000D03*
X154050000Y-108750000D03*
X154050000Y-109250000D03*
X154050000Y-109750000D03*
X154050000Y-110250000D03*
X154050000Y-110750000D03*
X154050000Y-111250000D03*
X154050000Y-111750000D03*
X154050000Y-112250000D03*
X145950000Y-112250000D03*
X145950000Y-111750000D03*
X145950000Y-111250000D03*
X145950000Y-110750000D03*
X145950000Y-110250000D03*
X145950000Y-109750000D03*
X145950000Y-109250000D03*
X145950000Y-108750000D03*
X145950000Y-108250000D03*
X145950000Y-107750000D03*
X145950000Y-107250000D03*
X145950000Y-106750000D03*
X145950000Y-106250000D03*
X145950000Y-105750000D03*
D12*
X153250000Y-113050000D03*
X152750000Y-113050000D03*
X152250000Y-113050000D03*
X151750000Y-113050000D03*
X151250000Y-113050000D03*
X150750000Y-113050000D03*
X150250000Y-113050000D03*
X149750000Y-113050000D03*
X149250000Y-113050000D03*
X148750000Y-113050000D03*
X148250000Y-113050000D03*
X147750000Y-113050000D03*
X147250000Y-113050000D03*
X146750000Y-113050000D03*
X146750000Y-104950000D03*
X147250000Y-104950000D03*
X147750000Y-104950000D03*
X148250000Y-104950000D03*
X148750000Y-104950000D03*
X149250000Y-104950000D03*
X149750000Y-104950000D03*
X150250000Y-104950000D03*
X150750000Y-104950000D03*
X151250000Y-104950000D03*
X151750000Y-104950000D03*
X152250000Y-104950000D03*
X152750000Y-104950000D03*
X153250000Y-104950000D03*
D13*
G36*
X138799505Y-114201204D02*
G01*
X138823773Y-114204804D01*
X138847572Y-114210765D01*
X138870671Y-114219030D01*
X138892850Y-114229520D01*
X138913893Y-114242132D01*
X138933599Y-114256747D01*
X138951777Y-114273223D01*
X138968253Y-114291401D01*
X138982868Y-114311107D01*
X138995480Y-114332150D01*
X139005970Y-114354329D01*
X139014235Y-114377428D01*
X139020196Y-114401227D01*
X139023796Y-114425495D01*
X139025000Y-114449999D01*
X139025000Y-115150001D01*
X139023796Y-115174505D01*
X139020196Y-115198773D01*
X139014235Y-115222572D01*
X139005970Y-115245671D01*
X138995480Y-115267850D01*
X138982868Y-115288893D01*
X138968253Y-115308599D01*
X138951777Y-115326777D01*
X138933599Y-115343253D01*
X138913893Y-115357868D01*
X138892850Y-115370480D01*
X138870671Y-115380970D01*
X138847572Y-115389235D01*
X138823773Y-115395196D01*
X138799505Y-115398796D01*
X138775001Y-115400000D01*
X137474999Y-115400000D01*
X137450495Y-115398796D01*
X137426227Y-115395196D01*
X137402428Y-115389235D01*
X137379329Y-115380970D01*
X137357150Y-115370480D01*
X137336107Y-115357868D01*
X137316401Y-115343253D01*
X137298223Y-115326777D01*
X137281747Y-115308599D01*
X137267132Y-115288893D01*
X137254520Y-115267850D01*
X137244030Y-115245671D01*
X137235765Y-115222572D01*
X137229804Y-115198773D01*
X137226204Y-115174505D01*
X137225000Y-115150001D01*
X137225000Y-114449999D01*
X137226204Y-114425495D01*
X137229804Y-114401227D01*
X137235765Y-114377428D01*
X137244030Y-114354329D01*
X137254520Y-114332150D01*
X137267132Y-114311107D01*
X137281747Y-114291401D01*
X137298223Y-114273223D01*
X137316401Y-114256747D01*
X137336107Y-114242132D01*
X137357150Y-114229520D01*
X137379329Y-114219030D01*
X137402428Y-114210765D01*
X137426227Y-114204804D01*
X137450495Y-114201204D01*
X137474999Y-114200000D01*
X138775001Y-114200000D01*
X138799505Y-114201204D01*
G37*
G36*
X138799505Y-102601204D02*
G01*
X138823773Y-102604804D01*
X138847572Y-102610765D01*
X138870671Y-102619030D01*
X138892850Y-102629520D01*
X138913893Y-102642132D01*
X138933599Y-102656747D01*
X138951777Y-102673223D01*
X138968253Y-102691401D01*
X138982868Y-102711107D01*
X138995480Y-102732150D01*
X139005970Y-102754329D01*
X139014235Y-102777428D01*
X139020196Y-102801227D01*
X139023796Y-102825495D01*
X139025000Y-102849999D01*
X139025000Y-103550001D01*
X139023796Y-103574505D01*
X139020196Y-103598773D01*
X139014235Y-103622572D01*
X139005970Y-103645671D01*
X138995480Y-103667850D01*
X138982868Y-103688893D01*
X138968253Y-103708599D01*
X138951777Y-103726777D01*
X138933599Y-103743253D01*
X138913893Y-103757868D01*
X138892850Y-103770480D01*
X138870671Y-103780970D01*
X138847572Y-103789235D01*
X138823773Y-103795196D01*
X138799505Y-103798796D01*
X138775001Y-103800000D01*
X137474999Y-103800000D01*
X137450495Y-103798796D01*
X137426227Y-103795196D01*
X137402428Y-103789235D01*
X137379329Y-103780970D01*
X137357150Y-103770480D01*
X137336107Y-103757868D01*
X137316401Y-103743253D01*
X137298223Y-103726777D01*
X137281747Y-103708599D01*
X137267132Y-103688893D01*
X137254520Y-103667850D01*
X137244030Y-103645671D01*
X137235765Y-103622572D01*
X137229804Y-103598773D01*
X137226204Y-103574505D01*
X137225000Y-103550001D01*
X137225000Y-102849999D01*
X137226204Y-102825495D01*
X137229804Y-102801227D01*
X137235765Y-102777428D01*
X137244030Y-102754329D01*
X137254520Y-102732150D01*
X137267132Y-102711107D01*
X137281747Y-102691401D01*
X137298223Y-102673223D01*
X137316401Y-102656747D01*
X137336107Y-102642132D01*
X137357150Y-102629520D01*
X137379329Y-102619030D01*
X137402428Y-102610765D01*
X137426227Y-102604804D01*
X137450495Y-102601204D01*
X137474999Y-102600000D01*
X138775001Y-102600000D01*
X138799505Y-102601204D01*
G37*
G36*
X142639703Y-113200722D02*
G01*
X142654264Y-113202882D01*
X142668543Y-113206459D01*
X142682403Y-113211418D01*
X142695710Y-113217712D01*
X142708336Y-113225280D01*
X142720159Y-113234048D01*
X142731066Y-113243934D01*
X142740952Y-113254841D01*
X142749720Y-113266664D01*
X142757288Y-113279290D01*
X142763582Y-113292597D01*
X142768541Y-113306457D01*
X142772118Y-113320736D01*
X142774278Y-113335297D01*
X142775000Y-113350000D01*
X142775000Y-113650000D01*
X142774278Y-113664703D01*
X142772118Y-113679264D01*
X142768541Y-113693543D01*
X142763582Y-113707403D01*
X142757288Y-113720710D01*
X142749720Y-113733336D01*
X142740952Y-113745159D01*
X142731066Y-113756066D01*
X142720159Y-113765952D01*
X142708336Y-113774720D01*
X142695710Y-113782288D01*
X142682403Y-113788582D01*
X142668543Y-113793541D01*
X142654264Y-113797118D01*
X142639703Y-113799278D01*
X142625000Y-113800000D01*
X141375000Y-113800000D01*
X141360297Y-113799278D01*
X141345736Y-113797118D01*
X141331457Y-113793541D01*
X141317597Y-113788582D01*
X141304290Y-113782288D01*
X141291664Y-113774720D01*
X141279841Y-113765952D01*
X141268934Y-113756066D01*
X141259048Y-113745159D01*
X141250280Y-113733336D01*
X141242712Y-113720710D01*
X141236418Y-113707403D01*
X141231459Y-113693543D01*
X141227882Y-113679264D01*
X141225722Y-113664703D01*
X141225000Y-113650000D01*
X141225000Y-113350000D01*
X141225722Y-113335297D01*
X141227882Y-113320736D01*
X141231459Y-113306457D01*
X141236418Y-113292597D01*
X141242712Y-113279290D01*
X141250280Y-113266664D01*
X141259048Y-113254841D01*
X141268934Y-113243934D01*
X141279841Y-113234048D01*
X141291664Y-113225280D01*
X141304290Y-113217712D01*
X141317597Y-113211418D01*
X141331457Y-113206459D01*
X141345736Y-113202882D01*
X141360297Y-113200722D01*
X141375000Y-113200000D01*
X142625000Y-113200000D01*
X142639703Y-113200722D01*
G37*
G36*
X142639703Y-112200722D02*
G01*
X142654264Y-112202882D01*
X142668543Y-112206459D01*
X142682403Y-112211418D01*
X142695710Y-112217712D01*
X142708336Y-112225280D01*
X142720159Y-112234048D01*
X142731066Y-112243934D01*
X142740952Y-112254841D01*
X142749720Y-112266664D01*
X142757288Y-112279290D01*
X142763582Y-112292597D01*
X142768541Y-112306457D01*
X142772118Y-112320736D01*
X142774278Y-112335297D01*
X142775000Y-112350000D01*
X142775000Y-112650000D01*
X142774278Y-112664703D01*
X142772118Y-112679264D01*
X142768541Y-112693543D01*
X142763582Y-112707403D01*
X142757288Y-112720710D01*
X142749720Y-112733336D01*
X142740952Y-112745159D01*
X142731066Y-112756066D01*
X142720159Y-112765952D01*
X142708336Y-112774720D01*
X142695710Y-112782288D01*
X142682403Y-112788582D01*
X142668543Y-112793541D01*
X142654264Y-112797118D01*
X142639703Y-112799278D01*
X142625000Y-112800000D01*
X141375000Y-112800000D01*
X141360297Y-112799278D01*
X141345736Y-112797118D01*
X141331457Y-112793541D01*
X141317597Y-112788582D01*
X141304290Y-112782288D01*
X141291664Y-112774720D01*
X141279841Y-112765952D01*
X141268934Y-112756066D01*
X141259048Y-112745159D01*
X141250280Y-112733336D01*
X141242712Y-112720710D01*
X141236418Y-112707403D01*
X141231459Y-112693543D01*
X141227882Y-112679264D01*
X141225722Y-112664703D01*
X141225000Y-112650000D01*
X141225000Y-112350000D01*
X141225722Y-112335297D01*
X141227882Y-112320736D01*
X141231459Y-112306457D01*
X141236418Y-112292597D01*
X141242712Y-112279290D01*
X141250280Y-112266664D01*
X141259048Y-112254841D01*
X141268934Y-112243934D01*
X141279841Y-112234048D01*
X141291664Y-112225280D01*
X141304290Y-112217712D01*
X141317597Y-112211418D01*
X141331457Y-112206459D01*
X141345736Y-112202882D01*
X141360297Y-112200722D01*
X141375000Y-112200000D01*
X142625000Y-112200000D01*
X142639703Y-112200722D01*
G37*
G36*
X142639703Y-111200722D02*
G01*
X142654264Y-111202882D01*
X142668543Y-111206459D01*
X142682403Y-111211418D01*
X142695710Y-111217712D01*
X142708336Y-111225280D01*
X142720159Y-111234048D01*
X142731066Y-111243934D01*
X142740952Y-111254841D01*
X142749720Y-111266664D01*
X142757288Y-111279290D01*
X142763582Y-111292597D01*
X142768541Y-111306457D01*
X142772118Y-111320736D01*
X142774278Y-111335297D01*
X142775000Y-111350000D01*
X142775000Y-111650000D01*
X142774278Y-111664703D01*
X142772118Y-111679264D01*
X142768541Y-111693543D01*
X142763582Y-111707403D01*
X142757288Y-111720710D01*
X142749720Y-111733336D01*
X142740952Y-111745159D01*
X142731066Y-111756066D01*
X142720159Y-111765952D01*
X142708336Y-111774720D01*
X142695710Y-111782288D01*
X142682403Y-111788582D01*
X142668543Y-111793541D01*
X142654264Y-111797118D01*
X142639703Y-111799278D01*
X142625000Y-111800000D01*
X141375000Y-111800000D01*
X141360297Y-111799278D01*
X141345736Y-111797118D01*
X141331457Y-111793541D01*
X141317597Y-111788582D01*
X141304290Y-111782288D01*
X141291664Y-111774720D01*
X141279841Y-111765952D01*
X141268934Y-111756066D01*
X141259048Y-111745159D01*
X141250280Y-111733336D01*
X141242712Y-111720710D01*
X141236418Y-111707403D01*
X141231459Y-111693543D01*
X141227882Y-111679264D01*
X141225722Y-111664703D01*
X141225000Y-111650000D01*
X141225000Y-111350000D01*
X141225722Y-111335297D01*
X141227882Y-111320736D01*
X141231459Y-111306457D01*
X141236418Y-111292597D01*
X141242712Y-111279290D01*
X141250280Y-111266664D01*
X141259048Y-111254841D01*
X141268934Y-111243934D01*
X141279841Y-111234048D01*
X141291664Y-111225280D01*
X141304290Y-111217712D01*
X141317597Y-111211418D01*
X141331457Y-111206459D01*
X141345736Y-111202882D01*
X141360297Y-111200722D01*
X141375000Y-111200000D01*
X142625000Y-111200000D01*
X142639703Y-111200722D01*
G37*
G36*
X142639703Y-110200722D02*
G01*
X142654264Y-110202882D01*
X142668543Y-110206459D01*
X142682403Y-110211418D01*
X142695710Y-110217712D01*
X142708336Y-110225280D01*
X142720159Y-110234048D01*
X142731066Y-110243934D01*
X142740952Y-110254841D01*
X142749720Y-110266664D01*
X142757288Y-110279290D01*
X142763582Y-110292597D01*
X142768541Y-110306457D01*
X142772118Y-110320736D01*
X142774278Y-110335297D01*
X142775000Y-110350000D01*
X142775000Y-110650000D01*
X142774278Y-110664703D01*
X142772118Y-110679264D01*
X142768541Y-110693543D01*
X142763582Y-110707403D01*
X142757288Y-110720710D01*
X142749720Y-110733336D01*
X142740952Y-110745159D01*
X142731066Y-110756066D01*
X142720159Y-110765952D01*
X142708336Y-110774720D01*
X142695710Y-110782288D01*
X142682403Y-110788582D01*
X142668543Y-110793541D01*
X142654264Y-110797118D01*
X142639703Y-110799278D01*
X142625000Y-110800000D01*
X141375000Y-110800000D01*
X141360297Y-110799278D01*
X141345736Y-110797118D01*
X141331457Y-110793541D01*
X141317597Y-110788582D01*
X141304290Y-110782288D01*
X141291664Y-110774720D01*
X141279841Y-110765952D01*
X141268934Y-110756066D01*
X141259048Y-110745159D01*
X141250280Y-110733336D01*
X141242712Y-110720710D01*
X141236418Y-110707403D01*
X141231459Y-110693543D01*
X141227882Y-110679264D01*
X141225722Y-110664703D01*
X141225000Y-110650000D01*
X141225000Y-110350000D01*
X141225722Y-110335297D01*
X141227882Y-110320736D01*
X141231459Y-110306457D01*
X141236418Y-110292597D01*
X141242712Y-110279290D01*
X141250280Y-110266664D01*
X141259048Y-110254841D01*
X141268934Y-110243934D01*
X141279841Y-110234048D01*
X141291664Y-110225280D01*
X141304290Y-110217712D01*
X141317597Y-110211418D01*
X141331457Y-110206459D01*
X141345736Y-110202882D01*
X141360297Y-110200722D01*
X141375000Y-110200000D01*
X142625000Y-110200000D01*
X142639703Y-110200722D01*
G37*
G36*
X142639703Y-109200722D02*
G01*
X142654264Y-109202882D01*
X142668543Y-109206459D01*
X142682403Y-109211418D01*
X142695710Y-109217712D01*
X142708336Y-109225280D01*
X142720159Y-109234048D01*
X142731066Y-109243934D01*
X142740952Y-109254841D01*
X142749720Y-109266664D01*
X142757288Y-109279290D01*
X142763582Y-109292597D01*
X142768541Y-109306457D01*
X142772118Y-109320736D01*
X142774278Y-109335297D01*
X142775000Y-109350000D01*
X142775000Y-109650000D01*
X142774278Y-109664703D01*
X142772118Y-109679264D01*
X142768541Y-109693543D01*
X142763582Y-109707403D01*
X142757288Y-109720710D01*
X142749720Y-109733336D01*
X142740952Y-109745159D01*
X142731066Y-109756066D01*
X142720159Y-109765952D01*
X142708336Y-109774720D01*
X142695710Y-109782288D01*
X142682403Y-109788582D01*
X142668543Y-109793541D01*
X142654264Y-109797118D01*
X142639703Y-109799278D01*
X142625000Y-109800000D01*
X141375000Y-109800000D01*
X141360297Y-109799278D01*
X141345736Y-109797118D01*
X141331457Y-109793541D01*
X141317597Y-109788582D01*
X141304290Y-109782288D01*
X141291664Y-109774720D01*
X141279841Y-109765952D01*
X141268934Y-109756066D01*
X141259048Y-109745159D01*
X141250280Y-109733336D01*
X141242712Y-109720710D01*
X141236418Y-109707403D01*
X141231459Y-109693543D01*
X141227882Y-109679264D01*
X141225722Y-109664703D01*
X141225000Y-109650000D01*
X141225000Y-109350000D01*
X141225722Y-109335297D01*
X141227882Y-109320736D01*
X141231459Y-109306457D01*
X141236418Y-109292597D01*
X141242712Y-109279290D01*
X141250280Y-109266664D01*
X141259048Y-109254841D01*
X141268934Y-109243934D01*
X141279841Y-109234048D01*
X141291664Y-109225280D01*
X141304290Y-109217712D01*
X141317597Y-109211418D01*
X141331457Y-109206459D01*
X141345736Y-109202882D01*
X141360297Y-109200722D01*
X141375000Y-109200000D01*
X142625000Y-109200000D01*
X142639703Y-109200722D01*
G37*
G36*
X142639703Y-108200722D02*
G01*
X142654264Y-108202882D01*
X142668543Y-108206459D01*
X142682403Y-108211418D01*
X142695710Y-108217712D01*
X142708336Y-108225280D01*
X142720159Y-108234048D01*
X142731066Y-108243934D01*
X142740952Y-108254841D01*
X142749720Y-108266664D01*
X142757288Y-108279290D01*
X142763582Y-108292597D01*
X142768541Y-108306457D01*
X142772118Y-108320736D01*
X142774278Y-108335297D01*
X142775000Y-108350000D01*
X142775000Y-108650000D01*
X142774278Y-108664703D01*
X142772118Y-108679264D01*
X142768541Y-108693543D01*
X142763582Y-108707403D01*
X142757288Y-108720710D01*
X142749720Y-108733336D01*
X142740952Y-108745159D01*
X142731066Y-108756066D01*
X142720159Y-108765952D01*
X142708336Y-108774720D01*
X142695710Y-108782288D01*
X142682403Y-108788582D01*
X142668543Y-108793541D01*
X142654264Y-108797118D01*
X142639703Y-108799278D01*
X142625000Y-108800000D01*
X141375000Y-108800000D01*
X141360297Y-108799278D01*
X141345736Y-108797118D01*
X141331457Y-108793541D01*
X141317597Y-108788582D01*
X141304290Y-108782288D01*
X141291664Y-108774720D01*
X141279841Y-108765952D01*
X141268934Y-108756066D01*
X141259048Y-108745159D01*
X141250280Y-108733336D01*
X141242712Y-108720710D01*
X141236418Y-108707403D01*
X141231459Y-108693543D01*
X141227882Y-108679264D01*
X141225722Y-108664703D01*
X141225000Y-108650000D01*
X141225000Y-108350000D01*
X141225722Y-108335297D01*
X141227882Y-108320736D01*
X141231459Y-108306457D01*
X141236418Y-108292597D01*
X141242712Y-108279290D01*
X141250280Y-108266664D01*
X141259048Y-108254841D01*
X141268934Y-108243934D01*
X141279841Y-108234048D01*
X141291664Y-108225280D01*
X141304290Y-108217712D01*
X141317597Y-108211418D01*
X141331457Y-108206459D01*
X141345736Y-108202882D01*
X141360297Y-108200722D01*
X141375000Y-108200000D01*
X142625000Y-108200000D01*
X142639703Y-108200722D01*
G37*
G36*
X142639703Y-107200722D02*
G01*
X142654264Y-107202882D01*
X142668543Y-107206459D01*
X142682403Y-107211418D01*
X142695710Y-107217712D01*
X142708336Y-107225280D01*
X142720159Y-107234048D01*
X142731066Y-107243934D01*
X142740952Y-107254841D01*
X142749720Y-107266664D01*
X142757288Y-107279290D01*
X142763582Y-107292597D01*
X142768541Y-107306457D01*
X142772118Y-107320736D01*
X142774278Y-107335297D01*
X142775000Y-107350000D01*
X142775000Y-107650000D01*
X142774278Y-107664703D01*
X142772118Y-107679264D01*
X142768541Y-107693543D01*
X142763582Y-107707403D01*
X142757288Y-107720710D01*
X142749720Y-107733336D01*
X142740952Y-107745159D01*
X142731066Y-107756066D01*
X142720159Y-107765952D01*
X142708336Y-107774720D01*
X142695710Y-107782288D01*
X142682403Y-107788582D01*
X142668543Y-107793541D01*
X142654264Y-107797118D01*
X142639703Y-107799278D01*
X142625000Y-107800000D01*
X141375000Y-107800000D01*
X141360297Y-107799278D01*
X141345736Y-107797118D01*
X141331457Y-107793541D01*
X141317597Y-107788582D01*
X141304290Y-107782288D01*
X141291664Y-107774720D01*
X141279841Y-107765952D01*
X141268934Y-107756066D01*
X141259048Y-107745159D01*
X141250280Y-107733336D01*
X141242712Y-107720710D01*
X141236418Y-107707403D01*
X141231459Y-107693543D01*
X141227882Y-107679264D01*
X141225722Y-107664703D01*
X141225000Y-107650000D01*
X141225000Y-107350000D01*
X141225722Y-107335297D01*
X141227882Y-107320736D01*
X141231459Y-107306457D01*
X141236418Y-107292597D01*
X141242712Y-107279290D01*
X141250280Y-107266664D01*
X141259048Y-107254841D01*
X141268934Y-107243934D01*
X141279841Y-107234048D01*
X141291664Y-107225280D01*
X141304290Y-107217712D01*
X141317597Y-107211418D01*
X141331457Y-107206459D01*
X141345736Y-107202882D01*
X141360297Y-107200722D01*
X141375000Y-107200000D01*
X142625000Y-107200000D01*
X142639703Y-107200722D01*
G37*
G36*
X142639703Y-106200722D02*
G01*
X142654264Y-106202882D01*
X142668543Y-106206459D01*
X142682403Y-106211418D01*
X142695710Y-106217712D01*
X142708336Y-106225280D01*
X142720159Y-106234048D01*
X142731066Y-106243934D01*
X142740952Y-106254841D01*
X142749720Y-106266664D01*
X142757288Y-106279290D01*
X142763582Y-106292597D01*
X142768541Y-106306457D01*
X142772118Y-106320736D01*
X142774278Y-106335297D01*
X142775000Y-106350000D01*
X142775000Y-106650000D01*
X142774278Y-106664703D01*
X142772118Y-106679264D01*
X142768541Y-106693543D01*
X142763582Y-106707403D01*
X142757288Y-106720710D01*
X142749720Y-106733336D01*
X142740952Y-106745159D01*
X142731066Y-106756066D01*
X142720159Y-106765952D01*
X142708336Y-106774720D01*
X142695710Y-106782288D01*
X142682403Y-106788582D01*
X142668543Y-106793541D01*
X142654264Y-106797118D01*
X142639703Y-106799278D01*
X142625000Y-106800000D01*
X141375000Y-106800000D01*
X141360297Y-106799278D01*
X141345736Y-106797118D01*
X141331457Y-106793541D01*
X141317597Y-106788582D01*
X141304290Y-106782288D01*
X141291664Y-106774720D01*
X141279841Y-106765952D01*
X141268934Y-106756066D01*
X141259048Y-106745159D01*
X141250280Y-106733336D01*
X141242712Y-106720710D01*
X141236418Y-106707403D01*
X141231459Y-106693543D01*
X141227882Y-106679264D01*
X141225722Y-106664703D01*
X141225000Y-106650000D01*
X141225000Y-106350000D01*
X141225722Y-106335297D01*
X141227882Y-106320736D01*
X141231459Y-106306457D01*
X141236418Y-106292597D01*
X141242712Y-106279290D01*
X141250280Y-106266664D01*
X141259048Y-106254841D01*
X141268934Y-106243934D01*
X141279841Y-106234048D01*
X141291664Y-106225280D01*
X141304290Y-106217712D01*
X141317597Y-106211418D01*
X141331457Y-106206459D01*
X141345736Y-106202882D01*
X141360297Y-106200722D01*
X141375000Y-106200000D01*
X142625000Y-106200000D01*
X142639703Y-106200722D01*
G37*
G36*
X142639703Y-105200722D02*
G01*
X142654264Y-105202882D01*
X142668543Y-105206459D01*
X142682403Y-105211418D01*
X142695710Y-105217712D01*
X142708336Y-105225280D01*
X142720159Y-105234048D01*
X142731066Y-105243934D01*
X142740952Y-105254841D01*
X142749720Y-105266664D01*
X142757288Y-105279290D01*
X142763582Y-105292597D01*
X142768541Y-105306457D01*
X142772118Y-105320736D01*
X142774278Y-105335297D01*
X142775000Y-105350000D01*
X142775000Y-105650000D01*
X142774278Y-105664703D01*
X142772118Y-105679264D01*
X142768541Y-105693543D01*
X142763582Y-105707403D01*
X142757288Y-105720710D01*
X142749720Y-105733336D01*
X142740952Y-105745159D01*
X142731066Y-105756066D01*
X142720159Y-105765952D01*
X142708336Y-105774720D01*
X142695710Y-105782288D01*
X142682403Y-105788582D01*
X142668543Y-105793541D01*
X142654264Y-105797118D01*
X142639703Y-105799278D01*
X142625000Y-105800000D01*
X141375000Y-105800000D01*
X141360297Y-105799278D01*
X141345736Y-105797118D01*
X141331457Y-105793541D01*
X141317597Y-105788582D01*
X141304290Y-105782288D01*
X141291664Y-105774720D01*
X141279841Y-105765952D01*
X141268934Y-105756066D01*
X141259048Y-105745159D01*
X141250280Y-105733336D01*
X141242712Y-105720710D01*
X141236418Y-105707403D01*
X141231459Y-105693543D01*
X141227882Y-105679264D01*
X141225722Y-105664703D01*
X141225000Y-105650000D01*
X141225000Y-105350000D01*
X141225722Y-105335297D01*
X141227882Y-105320736D01*
X141231459Y-105306457D01*
X141236418Y-105292597D01*
X141242712Y-105279290D01*
X141250280Y-105266664D01*
X141259048Y-105254841D01*
X141268934Y-105243934D01*
X141279841Y-105234048D01*
X141291664Y-105225280D01*
X141304290Y-105217712D01*
X141317597Y-105211418D01*
X141331457Y-105206459D01*
X141345736Y-105202882D01*
X141360297Y-105200722D01*
X141375000Y-105200000D01*
X142625000Y-105200000D01*
X142639703Y-105200722D01*
G37*
G36*
X142639703Y-104200722D02*
G01*
X142654264Y-104202882D01*
X142668543Y-104206459D01*
X142682403Y-104211418D01*
X142695710Y-104217712D01*
X142708336Y-104225280D01*
X142720159Y-104234048D01*
X142731066Y-104243934D01*
X142740952Y-104254841D01*
X142749720Y-104266664D01*
X142757288Y-104279290D01*
X142763582Y-104292597D01*
X142768541Y-104306457D01*
X142772118Y-104320736D01*
X142774278Y-104335297D01*
X142775000Y-104350000D01*
X142775000Y-104650000D01*
X142774278Y-104664703D01*
X142772118Y-104679264D01*
X142768541Y-104693543D01*
X142763582Y-104707403D01*
X142757288Y-104720710D01*
X142749720Y-104733336D01*
X142740952Y-104745159D01*
X142731066Y-104756066D01*
X142720159Y-104765952D01*
X142708336Y-104774720D01*
X142695710Y-104782288D01*
X142682403Y-104788582D01*
X142668543Y-104793541D01*
X142654264Y-104797118D01*
X142639703Y-104799278D01*
X142625000Y-104800000D01*
X141375000Y-104800000D01*
X141360297Y-104799278D01*
X141345736Y-104797118D01*
X141331457Y-104793541D01*
X141317597Y-104788582D01*
X141304290Y-104782288D01*
X141291664Y-104774720D01*
X141279841Y-104765952D01*
X141268934Y-104756066D01*
X141259048Y-104745159D01*
X141250280Y-104733336D01*
X141242712Y-104720710D01*
X141236418Y-104707403D01*
X141231459Y-104693543D01*
X141227882Y-104679264D01*
X141225722Y-104664703D01*
X141225000Y-104650000D01*
X141225000Y-104350000D01*
X141225722Y-104335297D01*
X141227882Y-104320736D01*
X141231459Y-104306457D01*
X141236418Y-104292597D01*
X141242712Y-104279290D01*
X141250280Y-104266664D01*
X141259048Y-104254841D01*
X141268934Y-104243934D01*
X141279841Y-104234048D01*
X141291664Y-104225280D01*
X141304290Y-104217712D01*
X141317597Y-104211418D01*
X141331457Y-104206459D01*
X141345736Y-104202882D01*
X141360297Y-104200722D01*
X141375000Y-104200000D01*
X142625000Y-104200000D01*
X142639703Y-104200722D01*
G37*
G36*
X162549505Y-102601204D02*
G01*
X162573773Y-102604804D01*
X162597572Y-102610765D01*
X162620671Y-102619030D01*
X162642850Y-102629520D01*
X162663893Y-102642132D01*
X162683599Y-102656747D01*
X162701777Y-102673223D01*
X162718253Y-102691401D01*
X162732868Y-102711107D01*
X162745480Y-102732150D01*
X162755970Y-102754329D01*
X162764235Y-102777428D01*
X162770196Y-102801227D01*
X162773796Y-102825495D01*
X162775000Y-102849999D01*
X162775000Y-103550001D01*
X162773796Y-103574505D01*
X162770196Y-103598773D01*
X162764235Y-103622572D01*
X162755970Y-103645671D01*
X162745480Y-103667850D01*
X162732868Y-103688893D01*
X162718253Y-103708599D01*
X162701777Y-103726777D01*
X162683599Y-103743253D01*
X162663893Y-103757868D01*
X162642850Y-103770480D01*
X162620671Y-103780970D01*
X162597572Y-103789235D01*
X162573773Y-103795196D01*
X162549505Y-103798796D01*
X162525001Y-103800000D01*
X161224999Y-103800000D01*
X161200495Y-103798796D01*
X161176227Y-103795196D01*
X161152428Y-103789235D01*
X161129329Y-103780970D01*
X161107150Y-103770480D01*
X161086107Y-103757868D01*
X161066401Y-103743253D01*
X161048223Y-103726777D01*
X161031747Y-103708599D01*
X161017132Y-103688893D01*
X161004520Y-103667850D01*
X160994030Y-103645671D01*
X160985765Y-103622572D01*
X160979804Y-103598773D01*
X160976204Y-103574505D01*
X160975000Y-103550001D01*
X160975000Y-102849999D01*
X160976204Y-102825495D01*
X160979804Y-102801227D01*
X160985765Y-102777428D01*
X160994030Y-102754329D01*
X161004520Y-102732150D01*
X161017132Y-102711107D01*
X161031747Y-102691401D01*
X161048223Y-102673223D01*
X161066401Y-102656747D01*
X161086107Y-102642132D01*
X161107150Y-102629520D01*
X161129329Y-102619030D01*
X161152428Y-102610765D01*
X161176227Y-102604804D01*
X161200495Y-102601204D01*
X161224999Y-102600000D01*
X162525001Y-102600000D01*
X162549505Y-102601204D01*
G37*
G36*
X162549505Y-114201204D02*
G01*
X162573773Y-114204804D01*
X162597572Y-114210765D01*
X162620671Y-114219030D01*
X162642850Y-114229520D01*
X162663893Y-114242132D01*
X162683599Y-114256747D01*
X162701777Y-114273223D01*
X162718253Y-114291401D01*
X162732868Y-114311107D01*
X162745480Y-114332150D01*
X162755970Y-114354329D01*
X162764235Y-114377428D01*
X162770196Y-114401227D01*
X162773796Y-114425495D01*
X162775000Y-114449999D01*
X162775000Y-115150001D01*
X162773796Y-115174505D01*
X162770196Y-115198773D01*
X162764235Y-115222572D01*
X162755970Y-115245671D01*
X162745480Y-115267850D01*
X162732868Y-115288893D01*
X162718253Y-115308599D01*
X162701777Y-115326777D01*
X162683599Y-115343253D01*
X162663893Y-115357868D01*
X162642850Y-115370480D01*
X162620671Y-115380970D01*
X162597572Y-115389235D01*
X162573773Y-115395196D01*
X162549505Y-115398796D01*
X162525001Y-115400000D01*
X161224999Y-115400000D01*
X161200495Y-115398796D01*
X161176227Y-115395196D01*
X161152428Y-115389235D01*
X161129329Y-115380970D01*
X161107150Y-115370480D01*
X161086107Y-115357868D01*
X161066401Y-115343253D01*
X161048223Y-115326777D01*
X161031747Y-115308599D01*
X161017132Y-115288893D01*
X161004520Y-115267850D01*
X160994030Y-115245671D01*
X160985765Y-115222572D01*
X160979804Y-115198773D01*
X160976204Y-115174505D01*
X160975000Y-115150001D01*
X160975000Y-114449999D01*
X160976204Y-114425495D01*
X160979804Y-114401227D01*
X160985765Y-114377428D01*
X160994030Y-114354329D01*
X161004520Y-114332150D01*
X161017132Y-114311107D01*
X161031747Y-114291401D01*
X161048223Y-114273223D01*
X161066401Y-114256747D01*
X161086107Y-114242132D01*
X161107150Y-114229520D01*
X161129329Y-114219030D01*
X161152428Y-114210765D01*
X161176227Y-114204804D01*
X161200495Y-114201204D01*
X161224999Y-114200000D01*
X162525001Y-114200000D01*
X162549505Y-114201204D01*
G37*
G36*
X158639703Y-104200722D02*
G01*
X158654264Y-104202882D01*
X158668543Y-104206459D01*
X158682403Y-104211418D01*
X158695710Y-104217712D01*
X158708336Y-104225280D01*
X158720159Y-104234048D01*
X158731066Y-104243934D01*
X158740952Y-104254841D01*
X158749720Y-104266664D01*
X158757288Y-104279290D01*
X158763582Y-104292597D01*
X158768541Y-104306457D01*
X158772118Y-104320736D01*
X158774278Y-104335297D01*
X158775000Y-104350000D01*
X158775000Y-104650000D01*
X158774278Y-104664703D01*
X158772118Y-104679264D01*
X158768541Y-104693543D01*
X158763582Y-104707403D01*
X158757288Y-104720710D01*
X158749720Y-104733336D01*
X158740952Y-104745159D01*
X158731066Y-104756066D01*
X158720159Y-104765952D01*
X158708336Y-104774720D01*
X158695710Y-104782288D01*
X158682403Y-104788582D01*
X158668543Y-104793541D01*
X158654264Y-104797118D01*
X158639703Y-104799278D01*
X158625000Y-104800000D01*
X157375000Y-104800000D01*
X157360297Y-104799278D01*
X157345736Y-104797118D01*
X157331457Y-104793541D01*
X157317597Y-104788582D01*
X157304290Y-104782288D01*
X157291664Y-104774720D01*
X157279841Y-104765952D01*
X157268934Y-104756066D01*
X157259048Y-104745159D01*
X157250280Y-104733336D01*
X157242712Y-104720710D01*
X157236418Y-104707403D01*
X157231459Y-104693543D01*
X157227882Y-104679264D01*
X157225722Y-104664703D01*
X157225000Y-104650000D01*
X157225000Y-104350000D01*
X157225722Y-104335297D01*
X157227882Y-104320736D01*
X157231459Y-104306457D01*
X157236418Y-104292597D01*
X157242712Y-104279290D01*
X157250280Y-104266664D01*
X157259048Y-104254841D01*
X157268934Y-104243934D01*
X157279841Y-104234048D01*
X157291664Y-104225280D01*
X157304290Y-104217712D01*
X157317597Y-104211418D01*
X157331457Y-104206459D01*
X157345736Y-104202882D01*
X157360297Y-104200722D01*
X157375000Y-104200000D01*
X158625000Y-104200000D01*
X158639703Y-104200722D01*
G37*
G36*
X158639703Y-105200722D02*
G01*
X158654264Y-105202882D01*
X158668543Y-105206459D01*
X158682403Y-105211418D01*
X158695710Y-105217712D01*
X158708336Y-105225280D01*
X158720159Y-105234048D01*
X158731066Y-105243934D01*
X158740952Y-105254841D01*
X158749720Y-105266664D01*
X158757288Y-105279290D01*
X158763582Y-105292597D01*
X158768541Y-105306457D01*
X158772118Y-105320736D01*
X158774278Y-105335297D01*
X158775000Y-105350000D01*
X158775000Y-105650000D01*
X158774278Y-105664703D01*
X158772118Y-105679264D01*
X158768541Y-105693543D01*
X158763582Y-105707403D01*
X158757288Y-105720710D01*
X158749720Y-105733336D01*
X158740952Y-105745159D01*
X158731066Y-105756066D01*
X158720159Y-105765952D01*
X158708336Y-105774720D01*
X158695710Y-105782288D01*
X158682403Y-105788582D01*
X158668543Y-105793541D01*
X158654264Y-105797118D01*
X158639703Y-105799278D01*
X158625000Y-105800000D01*
X157375000Y-105800000D01*
X157360297Y-105799278D01*
X157345736Y-105797118D01*
X157331457Y-105793541D01*
X157317597Y-105788582D01*
X157304290Y-105782288D01*
X157291664Y-105774720D01*
X157279841Y-105765952D01*
X157268934Y-105756066D01*
X157259048Y-105745159D01*
X157250280Y-105733336D01*
X157242712Y-105720710D01*
X157236418Y-105707403D01*
X157231459Y-105693543D01*
X157227882Y-105679264D01*
X157225722Y-105664703D01*
X157225000Y-105650000D01*
X157225000Y-105350000D01*
X157225722Y-105335297D01*
X157227882Y-105320736D01*
X157231459Y-105306457D01*
X157236418Y-105292597D01*
X157242712Y-105279290D01*
X157250280Y-105266664D01*
X157259048Y-105254841D01*
X157268934Y-105243934D01*
X157279841Y-105234048D01*
X157291664Y-105225280D01*
X157304290Y-105217712D01*
X157317597Y-105211418D01*
X157331457Y-105206459D01*
X157345736Y-105202882D01*
X157360297Y-105200722D01*
X157375000Y-105200000D01*
X158625000Y-105200000D01*
X158639703Y-105200722D01*
G37*
G36*
X158639703Y-106200722D02*
G01*
X158654264Y-106202882D01*
X158668543Y-106206459D01*
X158682403Y-106211418D01*
X158695710Y-106217712D01*
X158708336Y-106225280D01*
X158720159Y-106234048D01*
X158731066Y-106243934D01*
X158740952Y-106254841D01*
X158749720Y-106266664D01*
X158757288Y-106279290D01*
X158763582Y-106292597D01*
X158768541Y-106306457D01*
X158772118Y-106320736D01*
X158774278Y-106335297D01*
X158775000Y-106350000D01*
X158775000Y-106650000D01*
X158774278Y-106664703D01*
X158772118Y-106679264D01*
X158768541Y-106693543D01*
X158763582Y-106707403D01*
X158757288Y-106720710D01*
X158749720Y-106733336D01*
X158740952Y-106745159D01*
X158731066Y-106756066D01*
X158720159Y-106765952D01*
X158708336Y-106774720D01*
X158695710Y-106782288D01*
X158682403Y-106788582D01*
X158668543Y-106793541D01*
X158654264Y-106797118D01*
X158639703Y-106799278D01*
X158625000Y-106800000D01*
X157375000Y-106800000D01*
X157360297Y-106799278D01*
X157345736Y-106797118D01*
X157331457Y-106793541D01*
X157317597Y-106788582D01*
X157304290Y-106782288D01*
X157291664Y-106774720D01*
X157279841Y-106765952D01*
X157268934Y-106756066D01*
X157259048Y-106745159D01*
X157250280Y-106733336D01*
X157242712Y-106720710D01*
X157236418Y-106707403D01*
X157231459Y-106693543D01*
X157227882Y-106679264D01*
X157225722Y-106664703D01*
X157225000Y-106650000D01*
X157225000Y-106350000D01*
X157225722Y-106335297D01*
X157227882Y-106320736D01*
X157231459Y-106306457D01*
X157236418Y-106292597D01*
X157242712Y-106279290D01*
X157250280Y-106266664D01*
X157259048Y-106254841D01*
X157268934Y-106243934D01*
X157279841Y-106234048D01*
X157291664Y-106225280D01*
X157304290Y-106217712D01*
X157317597Y-106211418D01*
X157331457Y-106206459D01*
X157345736Y-106202882D01*
X157360297Y-106200722D01*
X157375000Y-106200000D01*
X158625000Y-106200000D01*
X158639703Y-106200722D01*
G37*
G36*
X158639703Y-107200722D02*
G01*
X158654264Y-107202882D01*
X158668543Y-107206459D01*
X158682403Y-107211418D01*
X158695710Y-107217712D01*
X158708336Y-107225280D01*
X158720159Y-107234048D01*
X158731066Y-107243934D01*
X158740952Y-107254841D01*
X158749720Y-107266664D01*
X158757288Y-107279290D01*
X158763582Y-107292597D01*
X158768541Y-107306457D01*
X158772118Y-107320736D01*
X158774278Y-107335297D01*
X158775000Y-107350000D01*
X158775000Y-107650000D01*
X158774278Y-107664703D01*
X158772118Y-107679264D01*
X158768541Y-107693543D01*
X158763582Y-107707403D01*
X158757288Y-107720710D01*
X158749720Y-107733336D01*
X158740952Y-107745159D01*
X158731066Y-107756066D01*
X158720159Y-107765952D01*
X158708336Y-107774720D01*
X158695710Y-107782288D01*
X158682403Y-107788582D01*
X158668543Y-107793541D01*
X158654264Y-107797118D01*
X158639703Y-107799278D01*
X158625000Y-107800000D01*
X157375000Y-107800000D01*
X157360297Y-107799278D01*
X157345736Y-107797118D01*
X157331457Y-107793541D01*
X157317597Y-107788582D01*
X157304290Y-107782288D01*
X157291664Y-107774720D01*
X157279841Y-107765952D01*
X157268934Y-107756066D01*
X157259048Y-107745159D01*
X157250280Y-107733336D01*
X157242712Y-107720710D01*
X157236418Y-107707403D01*
X157231459Y-107693543D01*
X157227882Y-107679264D01*
X157225722Y-107664703D01*
X157225000Y-107650000D01*
X157225000Y-107350000D01*
X157225722Y-107335297D01*
X157227882Y-107320736D01*
X157231459Y-107306457D01*
X157236418Y-107292597D01*
X157242712Y-107279290D01*
X157250280Y-107266664D01*
X157259048Y-107254841D01*
X157268934Y-107243934D01*
X157279841Y-107234048D01*
X157291664Y-107225280D01*
X157304290Y-107217712D01*
X157317597Y-107211418D01*
X157331457Y-107206459D01*
X157345736Y-107202882D01*
X157360297Y-107200722D01*
X157375000Y-107200000D01*
X158625000Y-107200000D01*
X158639703Y-107200722D01*
G37*
G36*
X158639703Y-108200722D02*
G01*
X158654264Y-108202882D01*
X158668543Y-108206459D01*
X158682403Y-108211418D01*
X158695710Y-108217712D01*
X158708336Y-108225280D01*
X158720159Y-108234048D01*
X158731066Y-108243934D01*
X158740952Y-108254841D01*
X158749720Y-108266664D01*
X158757288Y-108279290D01*
X158763582Y-108292597D01*
X158768541Y-108306457D01*
X158772118Y-108320736D01*
X158774278Y-108335297D01*
X158775000Y-108350000D01*
X158775000Y-108650000D01*
X158774278Y-108664703D01*
X158772118Y-108679264D01*
X158768541Y-108693543D01*
X158763582Y-108707403D01*
X158757288Y-108720710D01*
X158749720Y-108733336D01*
X158740952Y-108745159D01*
X158731066Y-108756066D01*
X158720159Y-108765952D01*
X158708336Y-108774720D01*
X158695710Y-108782288D01*
X158682403Y-108788582D01*
X158668543Y-108793541D01*
X158654264Y-108797118D01*
X158639703Y-108799278D01*
X158625000Y-108800000D01*
X157375000Y-108800000D01*
X157360297Y-108799278D01*
X157345736Y-108797118D01*
X157331457Y-108793541D01*
X157317597Y-108788582D01*
X157304290Y-108782288D01*
X157291664Y-108774720D01*
X157279841Y-108765952D01*
X157268934Y-108756066D01*
X157259048Y-108745159D01*
X157250280Y-108733336D01*
X157242712Y-108720710D01*
X157236418Y-108707403D01*
X157231459Y-108693543D01*
X157227882Y-108679264D01*
X157225722Y-108664703D01*
X157225000Y-108650000D01*
X157225000Y-108350000D01*
X157225722Y-108335297D01*
X157227882Y-108320736D01*
X157231459Y-108306457D01*
X157236418Y-108292597D01*
X157242712Y-108279290D01*
X157250280Y-108266664D01*
X157259048Y-108254841D01*
X157268934Y-108243934D01*
X157279841Y-108234048D01*
X157291664Y-108225280D01*
X157304290Y-108217712D01*
X157317597Y-108211418D01*
X157331457Y-108206459D01*
X157345736Y-108202882D01*
X157360297Y-108200722D01*
X157375000Y-108200000D01*
X158625000Y-108200000D01*
X158639703Y-108200722D01*
G37*
G36*
X158639703Y-109200722D02*
G01*
X158654264Y-109202882D01*
X158668543Y-109206459D01*
X158682403Y-109211418D01*
X158695710Y-109217712D01*
X158708336Y-109225280D01*
X158720159Y-109234048D01*
X158731066Y-109243934D01*
X158740952Y-109254841D01*
X158749720Y-109266664D01*
X158757288Y-109279290D01*
X158763582Y-109292597D01*
X158768541Y-109306457D01*
X158772118Y-109320736D01*
X158774278Y-109335297D01*
X158775000Y-109350000D01*
X158775000Y-109650000D01*
X158774278Y-109664703D01*
X158772118Y-109679264D01*
X158768541Y-109693543D01*
X158763582Y-109707403D01*
X158757288Y-109720710D01*
X158749720Y-109733336D01*
X158740952Y-109745159D01*
X158731066Y-109756066D01*
X158720159Y-109765952D01*
X158708336Y-109774720D01*
X158695710Y-109782288D01*
X158682403Y-109788582D01*
X158668543Y-109793541D01*
X158654264Y-109797118D01*
X158639703Y-109799278D01*
X158625000Y-109800000D01*
X157375000Y-109800000D01*
X157360297Y-109799278D01*
X157345736Y-109797118D01*
X157331457Y-109793541D01*
X157317597Y-109788582D01*
X157304290Y-109782288D01*
X157291664Y-109774720D01*
X157279841Y-109765952D01*
X157268934Y-109756066D01*
X157259048Y-109745159D01*
X157250280Y-109733336D01*
X157242712Y-109720710D01*
X157236418Y-109707403D01*
X157231459Y-109693543D01*
X157227882Y-109679264D01*
X157225722Y-109664703D01*
X157225000Y-109650000D01*
X157225000Y-109350000D01*
X157225722Y-109335297D01*
X157227882Y-109320736D01*
X157231459Y-109306457D01*
X157236418Y-109292597D01*
X157242712Y-109279290D01*
X157250280Y-109266664D01*
X157259048Y-109254841D01*
X157268934Y-109243934D01*
X157279841Y-109234048D01*
X157291664Y-109225280D01*
X157304290Y-109217712D01*
X157317597Y-109211418D01*
X157331457Y-109206459D01*
X157345736Y-109202882D01*
X157360297Y-109200722D01*
X157375000Y-109200000D01*
X158625000Y-109200000D01*
X158639703Y-109200722D01*
G37*
G36*
X158639703Y-110200722D02*
G01*
X158654264Y-110202882D01*
X158668543Y-110206459D01*
X158682403Y-110211418D01*
X158695710Y-110217712D01*
X158708336Y-110225280D01*
X158720159Y-110234048D01*
X158731066Y-110243934D01*
X158740952Y-110254841D01*
X158749720Y-110266664D01*
X158757288Y-110279290D01*
X158763582Y-110292597D01*
X158768541Y-110306457D01*
X158772118Y-110320736D01*
X158774278Y-110335297D01*
X158775000Y-110350000D01*
X158775000Y-110650000D01*
X158774278Y-110664703D01*
X158772118Y-110679264D01*
X158768541Y-110693543D01*
X158763582Y-110707403D01*
X158757288Y-110720710D01*
X158749720Y-110733336D01*
X158740952Y-110745159D01*
X158731066Y-110756066D01*
X158720159Y-110765952D01*
X158708336Y-110774720D01*
X158695710Y-110782288D01*
X158682403Y-110788582D01*
X158668543Y-110793541D01*
X158654264Y-110797118D01*
X158639703Y-110799278D01*
X158625000Y-110800000D01*
X157375000Y-110800000D01*
X157360297Y-110799278D01*
X157345736Y-110797118D01*
X157331457Y-110793541D01*
X157317597Y-110788582D01*
X157304290Y-110782288D01*
X157291664Y-110774720D01*
X157279841Y-110765952D01*
X157268934Y-110756066D01*
X157259048Y-110745159D01*
X157250280Y-110733336D01*
X157242712Y-110720710D01*
X157236418Y-110707403D01*
X157231459Y-110693543D01*
X157227882Y-110679264D01*
X157225722Y-110664703D01*
X157225000Y-110650000D01*
X157225000Y-110350000D01*
X157225722Y-110335297D01*
X157227882Y-110320736D01*
X157231459Y-110306457D01*
X157236418Y-110292597D01*
X157242712Y-110279290D01*
X157250280Y-110266664D01*
X157259048Y-110254841D01*
X157268934Y-110243934D01*
X157279841Y-110234048D01*
X157291664Y-110225280D01*
X157304290Y-110217712D01*
X157317597Y-110211418D01*
X157331457Y-110206459D01*
X157345736Y-110202882D01*
X157360297Y-110200722D01*
X157375000Y-110200000D01*
X158625000Y-110200000D01*
X158639703Y-110200722D01*
G37*
G36*
X158639703Y-111200722D02*
G01*
X158654264Y-111202882D01*
X158668543Y-111206459D01*
X158682403Y-111211418D01*
X158695710Y-111217712D01*
X158708336Y-111225280D01*
X158720159Y-111234048D01*
X158731066Y-111243934D01*
X158740952Y-111254841D01*
X158749720Y-111266664D01*
X158757288Y-111279290D01*
X158763582Y-111292597D01*
X158768541Y-111306457D01*
X158772118Y-111320736D01*
X158774278Y-111335297D01*
X158775000Y-111350000D01*
X158775000Y-111650000D01*
X158774278Y-111664703D01*
X158772118Y-111679264D01*
X158768541Y-111693543D01*
X158763582Y-111707403D01*
X158757288Y-111720710D01*
X158749720Y-111733336D01*
X158740952Y-111745159D01*
X158731066Y-111756066D01*
X158720159Y-111765952D01*
X158708336Y-111774720D01*
X158695710Y-111782288D01*
X158682403Y-111788582D01*
X158668543Y-111793541D01*
X158654264Y-111797118D01*
X158639703Y-111799278D01*
X158625000Y-111800000D01*
X157375000Y-111800000D01*
X157360297Y-111799278D01*
X157345736Y-111797118D01*
X157331457Y-111793541D01*
X157317597Y-111788582D01*
X157304290Y-111782288D01*
X157291664Y-111774720D01*
X157279841Y-111765952D01*
X157268934Y-111756066D01*
X157259048Y-111745159D01*
X157250280Y-111733336D01*
X157242712Y-111720710D01*
X157236418Y-111707403D01*
X157231459Y-111693543D01*
X157227882Y-111679264D01*
X157225722Y-111664703D01*
X157225000Y-111650000D01*
X157225000Y-111350000D01*
X157225722Y-111335297D01*
X157227882Y-111320736D01*
X157231459Y-111306457D01*
X157236418Y-111292597D01*
X157242712Y-111279290D01*
X157250280Y-111266664D01*
X157259048Y-111254841D01*
X157268934Y-111243934D01*
X157279841Y-111234048D01*
X157291664Y-111225280D01*
X157304290Y-111217712D01*
X157317597Y-111211418D01*
X157331457Y-111206459D01*
X157345736Y-111202882D01*
X157360297Y-111200722D01*
X157375000Y-111200000D01*
X158625000Y-111200000D01*
X158639703Y-111200722D01*
G37*
G36*
X158639703Y-112200722D02*
G01*
X158654264Y-112202882D01*
X158668543Y-112206459D01*
X158682403Y-112211418D01*
X158695710Y-112217712D01*
X158708336Y-112225280D01*
X158720159Y-112234048D01*
X158731066Y-112243934D01*
X158740952Y-112254841D01*
X158749720Y-112266664D01*
X158757288Y-112279290D01*
X158763582Y-112292597D01*
X158768541Y-112306457D01*
X158772118Y-112320736D01*
X158774278Y-112335297D01*
X158775000Y-112350000D01*
X158775000Y-112650000D01*
X158774278Y-112664703D01*
X158772118Y-112679264D01*
X158768541Y-112693543D01*
X158763582Y-112707403D01*
X158757288Y-112720710D01*
X158749720Y-112733336D01*
X158740952Y-112745159D01*
X158731066Y-112756066D01*
X158720159Y-112765952D01*
X158708336Y-112774720D01*
X158695710Y-112782288D01*
X158682403Y-112788582D01*
X158668543Y-112793541D01*
X158654264Y-112797118D01*
X158639703Y-112799278D01*
X158625000Y-112800000D01*
X157375000Y-112800000D01*
X157360297Y-112799278D01*
X157345736Y-112797118D01*
X157331457Y-112793541D01*
X157317597Y-112788582D01*
X157304290Y-112782288D01*
X157291664Y-112774720D01*
X157279841Y-112765952D01*
X157268934Y-112756066D01*
X157259048Y-112745159D01*
X157250280Y-112733336D01*
X157242712Y-112720710D01*
X157236418Y-112707403D01*
X157231459Y-112693543D01*
X157227882Y-112679264D01*
X157225722Y-112664703D01*
X157225000Y-112650000D01*
X157225000Y-112350000D01*
X157225722Y-112335297D01*
X157227882Y-112320736D01*
X157231459Y-112306457D01*
X157236418Y-112292597D01*
X157242712Y-112279290D01*
X157250280Y-112266664D01*
X157259048Y-112254841D01*
X157268934Y-112243934D01*
X157279841Y-112234048D01*
X157291664Y-112225280D01*
X157304290Y-112217712D01*
X157317597Y-112211418D01*
X157331457Y-112206459D01*
X157345736Y-112202882D01*
X157360297Y-112200722D01*
X157375000Y-112200000D01*
X158625000Y-112200000D01*
X158639703Y-112200722D01*
G37*
G36*
X158639703Y-113200722D02*
G01*
X158654264Y-113202882D01*
X158668543Y-113206459D01*
X158682403Y-113211418D01*
X158695710Y-113217712D01*
X158708336Y-113225280D01*
X158720159Y-113234048D01*
X158731066Y-113243934D01*
X158740952Y-113254841D01*
X158749720Y-113266664D01*
X158757288Y-113279290D01*
X158763582Y-113292597D01*
X158768541Y-113306457D01*
X158772118Y-113320736D01*
X158774278Y-113335297D01*
X158775000Y-113350000D01*
X158775000Y-113650000D01*
X158774278Y-113664703D01*
X158772118Y-113679264D01*
X158768541Y-113693543D01*
X158763582Y-113707403D01*
X158757288Y-113720710D01*
X158749720Y-113733336D01*
X158740952Y-113745159D01*
X158731066Y-113756066D01*
X158720159Y-113765952D01*
X158708336Y-113774720D01*
X158695710Y-113782288D01*
X158682403Y-113788582D01*
X158668543Y-113793541D01*
X158654264Y-113797118D01*
X158639703Y-113799278D01*
X158625000Y-113800000D01*
X157375000Y-113800000D01*
X157360297Y-113799278D01*
X157345736Y-113797118D01*
X157331457Y-113793541D01*
X157317597Y-113788582D01*
X157304290Y-113782288D01*
X157291664Y-113774720D01*
X157279841Y-113765952D01*
X157268934Y-113756066D01*
X157259048Y-113745159D01*
X157250280Y-113733336D01*
X157242712Y-113720710D01*
X157236418Y-113707403D01*
X157231459Y-113693543D01*
X157227882Y-113679264D01*
X157225722Y-113664703D01*
X157225000Y-113650000D01*
X157225000Y-113350000D01*
X157225722Y-113335297D01*
X157227882Y-113320736D01*
X157231459Y-113306457D01*
X157236418Y-113292597D01*
X157242712Y-113279290D01*
X157250280Y-113266664D01*
X157259048Y-113254841D01*
X157268934Y-113243934D01*
X157279841Y-113234048D01*
X157291664Y-113225280D01*
X157304290Y-113217712D01*
X157317597Y-113211418D01*
X157331457Y-113206459D01*
X157345736Y-113202882D01*
X157360297Y-113200722D01*
X157375000Y-113200000D01*
X158625000Y-113200000D01*
X158639703Y-113200722D01*
G37*
G36*
X160078864Y-125101447D02*
G01*
X160108044Y-125105776D01*
X160136660Y-125112944D01*
X160164435Y-125122882D01*
X160191102Y-125135494D01*
X160216404Y-125150660D01*
X160240099Y-125168233D01*
X160261956Y-125188044D01*
X160281767Y-125209901D01*
X160299340Y-125233596D01*
X160314506Y-125258898D01*
X160327118Y-125285565D01*
X160337056Y-125313340D01*
X160344224Y-125341956D01*
X160348553Y-125371136D01*
X160350000Y-125400600D01*
X160350000Y-128699400D01*
X160348553Y-128728864D01*
X160344224Y-128758044D01*
X160337056Y-128786660D01*
X160327118Y-128814435D01*
X160314506Y-128841102D01*
X160299340Y-128866404D01*
X160281767Y-128890099D01*
X160261956Y-128911956D01*
X160240099Y-128931767D01*
X160216404Y-128949340D01*
X160191102Y-128964506D01*
X160164435Y-128977118D01*
X160136660Y-128987056D01*
X160108044Y-128994224D01*
X160078864Y-128998553D01*
X160049400Y-129000000D01*
X158850600Y-129000000D01*
X158821136Y-128998553D01*
X158791956Y-128994224D01*
X158763340Y-128987056D01*
X158735565Y-128977118D01*
X158708898Y-128964506D01*
X158683596Y-128949340D01*
X158659901Y-128931767D01*
X158638044Y-128911956D01*
X158618233Y-128890099D01*
X158600660Y-128866404D01*
X158585494Y-128841102D01*
X158572882Y-128814435D01*
X158562944Y-128786660D01*
X158555776Y-128758044D01*
X158551447Y-128728864D01*
X158550000Y-128699400D01*
X158550000Y-125400600D01*
X158551447Y-125371136D01*
X158555776Y-125341956D01*
X158562944Y-125313340D01*
X158572882Y-125285565D01*
X158585494Y-125258898D01*
X158600660Y-125233596D01*
X158618233Y-125209901D01*
X158638044Y-125188044D01*
X158659901Y-125168233D01*
X158683596Y-125150660D01*
X158708898Y-125135494D01*
X158735565Y-125122882D01*
X158763340Y-125112944D01*
X158791956Y-125105776D01*
X158821136Y-125101447D01*
X158850600Y-125100000D01*
X160049400Y-125100000D01*
X160078864Y-125101447D01*
G37*
G36*
X141178864Y-125101447D02*
G01*
X141208044Y-125105776D01*
X141236660Y-125112944D01*
X141264435Y-125122882D01*
X141291102Y-125135494D01*
X141316404Y-125150660D01*
X141340099Y-125168233D01*
X141361956Y-125188044D01*
X141381767Y-125209901D01*
X141399340Y-125233596D01*
X141414506Y-125258898D01*
X141427118Y-125285565D01*
X141437056Y-125313340D01*
X141444224Y-125341956D01*
X141448553Y-125371136D01*
X141450000Y-125400600D01*
X141450000Y-128699400D01*
X141448553Y-128728864D01*
X141444224Y-128758044D01*
X141437056Y-128786660D01*
X141427118Y-128814435D01*
X141414506Y-128841102D01*
X141399340Y-128866404D01*
X141381767Y-128890099D01*
X141361956Y-128911956D01*
X141340099Y-128931767D01*
X141316404Y-128949340D01*
X141291102Y-128964506D01*
X141264435Y-128977118D01*
X141236660Y-128987056D01*
X141208044Y-128994224D01*
X141178864Y-128998553D01*
X141149400Y-129000000D01*
X139950600Y-129000000D01*
X139921136Y-128998553D01*
X139891956Y-128994224D01*
X139863340Y-128987056D01*
X139835565Y-128977118D01*
X139808898Y-128964506D01*
X139783596Y-128949340D01*
X139759901Y-128931767D01*
X139738044Y-128911956D01*
X139718233Y-128890099D01*
X139700660Y-128866404D01*
X139685494Y-128841102D01*
X139672882Y-128814435D01*
X139662944Y-128786660D01*
X139655776Y-128758044D01*
X139651447Y-128728864D01*
X139650000Y-128699400D01*
X139650000Y-125400600D01*
X139651447Y-125371136D01*
X139655776Y-125341956D01*
X139662944Y-125313340D01*
X139672882Y-125285565D01*
X139685494Y-125258898D01*
X139700660Y-125233596D01*
X139718233Y-125209901D01*
X139738044Y-125188044D01*
X139759901Y-125168233D01*
X139783596Y-125150660D01*
X139808898Y-125135494D01*
X139835565Y-125122882D01*
X139863340Y-125112944D01*
X139891956Y-125105776D01*
X139921136Y-125101447D01*
X139950600Y-125100000D01*
X141149400Y-125100000D01*
X141178864Y-125101447D01*
G37*
G36*
X156606856Y-118001565D02*
G01*
X156638404Y-118006245D01*
X156669343Y-118013994D01*
X156699372Y-118024739D01*
X156728204Y-118038376D01*
X156755560Y-118054772D01*
X156781178Y-118073772D01*
X156804810Y-118095190D01*
X156826228Y-118118822D01*
X156845228Y-118144440D01*
X156861624Y-118171796D01*
X156875261Y-118200628D01*
X156886006Y-118230657D01*
X156893755Y-118261596D01*
X156898435Y-118293144D01*
X156900000Y-118325000D01*
X156900000Y-122175000D01*
X156898435Y-122206856D01*
X156893755Y-122238404D01*
X156886006Y-122269343D01*
X156875261Y-122299372D01*
X156861624Y-122328204D01*
X156845228Y-122355560D01*
X156826228Y-122381178D01*
X156804810Y-122404810D01*
X156781178Y-122426228D01*
X156755560Y-122445228D01*
X156728204Y-122461624D01*
X156699372Y-122475261D01*
X156669343Y-122486006D01*
X156638404Y-122493755D01*
X156606856Y-122498435D01*
X156575000Y-122500000D01*
X155925000Y-122500000D01*
X155893144Y-122498435D01*
X155861596Y-122493755D01*
X155830657Y-122486006D01*
X155800628Y-122475261D01*
X155771796Y-122461624D01*
X155744440Y-122445228D01*
X155718822Y-122426228D01*
X155695190Y-122404810D01*
X155673772Y-122381178D01*
X155654772Y-122355560D01*
X155638376Y-122328204D01*
X155624739Y-122299372D01*
X155613994Y-122269343D01*
X155606245Y-122238404D01*
X155601565Y-122206856D01*
X155600000Y-122175000D01*
X155600000Y-118325000D01*
X155601565Y-118293144D01*
X155606245Y-118261596D01*
X155613994Y-118230657D01*
X155624739Y-118200628D01*
X155638376Y-118171796D01*
X155654772Y-118144440D01*
X155673772Y-118118822D01*
X155695190Y-118095190D01*
X155718822Y-118073772D01*
X155744440Y-118054772D01*
X155771796Y-118038376D01*
X155800628Y-118024739D01*
X155830657Y-118013994D01*
X155861596Y-118006245D01*
X155893144Y-118001565D01*
X155925000Y-118000000D01*
X156575000Y-118000000D01*
X156606856Y-118001565D01*
G37*
G36*
X154106856Y-118001565D02*
G01*
X154138404Y-118006245D01*
X154169343Y-118013994D01*
X154199372Y-118024739D01*
X154228204Y-118038376D01*
X154255560Y-118054772D01*
X154281178Y-118073772D01*
X154304810Y-118095190D01*
X154326228Y-118118822D01*
X154345228Y-118144440D01*
X154361624Y-118171796D01*
X154375261Y-118200628D01*
X154386006Y-118230657D01*
X154393755Y-118261596D01*
X154398435Y-118293144D01*
X154400000Y-118325000D01*
X154400000Y-122175000D01*
X154398435Y-122206856D01*
X154393755Y-122238404D01*
X154386006Y-122269343D01*
X154375261Y-122299372D01*
X154361624Y-122328204D01*
X154345228Y-122355560D01*
X154326228Y-122381178D01*
X154304810Y-122404810D01*
X154281178Y-122426228D01*
X154255560Y-122445228D01*
X154228204Y-122461624D01*
X154199372Y-122475261D01*
X154169343Y-122486006D01*
X154138404Y-122493755D01*
X154106856Y-122498435D01*
X154075000Y-122500000D01*
X153425000Y-122500000D01*
X153393144Y-122498435D01*
X153361596Y-122493755D01*
X153330657Y-122486006D01*
X153300628Y-122475261D01*
X153271796Y-122461624D01*
X153244440Y-122445228D01*
X153218822Y-122426228D01*
X153195190Y-122404810D01*
X153173772Y-122381178D01*
X153154772Y-122355560D01*
X153138376Y-122328204D01*
X153124739Y-122299372D01*
X153113994Y-122269343D01*
X153106245Y-122238404D01*
X153101565Y-122206856D01*
X153100000Y-122175000D01*
X153100000Y-118325000D01*
X153101565Y-118293144D01*
X153106245Y-118261596D01*
X153113994Y-118230657D01*
X153124739Y-118200628D01*
X153138376Y-118171796D01*
X153154772Y-118144440D01*
X153173772Y-118118822D01*
X153195190Y-118095190D01*
X153218822Y-118073772D01*
X153244440Y-118054772D01*
X153271796Y-118038376D01*
X153300628Y-118024739D01*
X153330657Y-118013994D01*
X153361596Y-118006245D01*
X153393144Y-118001565D01*
X153425000Y-118000000D01*
X154075000Y-118000000D01*
X154106856Y-118001565D01*
G37*
G36*
X151606856Y-118001565D02*
G01*
X151638404Y-118006245D01*
X151669343Y-118013994D01*
X151699372Y-118024739D01*
X151728204Y-118038376D01*
X151755560Y-118054772D01*
X151781178Y-118073772D01*
X151804810Y-118095190D01*
X151826228Y-118118822D01*
X151845228Y-118144440D01*
X151861624Y-118171796D01*
X151875261Y-118200628D01*
X151886006Y-118230657D01*
X151893755Y-118261596D01*
X151898435Y-118293144D01*
X151900000Y-118325000D01*
X151900000Y-122175000D01*
X151898435Y-122206856D01*
X151893755Y-122238404D01*
X151886006Y-122269343D01*
X151875261Y-122299372D01*
X151861624Y-122328204D01*
X151845228Y-122355560D01*
X151826228Y-122381178D01*
X151804810Y-122404810D01*
X151781178Y-122426228D01*
X151755560Y-122445228D01*
X151728204Y-122461624D01*
X151699372Y-122475261D01*
X151669343Y-122486006D01*
X151638404Y-122493755D01*
X151606856Y-122498435D01*
X151575000Y-122500000D01*
X150925000Y-122500000D01*
X150893144Y-122498435D01*
X150861596Y-122493755D01*
X150830657Y-122486006D01*
X150800628Y-122475261D01*
X150771796Y-122461624D01*
X150744440Y-122445228D01*
X150718822Y-122426228D01*
X150695190Y-122404810D01*
X150673772Y-122381178D01*
X150654772Y-122355560D01*
X150638376Y-122328204D01*
X150624739Y-122299372D01*
X150613994Y-122269343D01*
X150606245Y-122238404D01*
X150601565Y-122206856D01*
X150600000Y-122175000D01*
X150600000Y-118325000D01*
X150601565Y-118293144D01*
X150606245Y-118261596D01*
X150613994Y-118230657D01*
X150624739Y-118200628D01*
X150638376Y-118171796D01*
X150654772Y-118144440D01*
X150673772Y-118118822D01*
X150695190Y-118095190D01*
X150718822Y-118073772D01*
X150744440Y-118054772D01*
X150771796Y-118038376D01*
X150800628Y-118024739D01*
X150830657Y-118013994D01*
X150861596Y-118006245D01*
X150893144Y-118001565D01*
X150925000Y-118000000D01*
X151575000Y-118000000D01*
X151606856Y-118001565D01*
G37*
G36*
X149106856Y-118001565D02*
G01*
X149138404Y-118006245D01*
X149169343Y-118013994D01*
X149199372Y-118024739D01*
X149228204Y-118038376D01*
X149255560Y-118054772D01*
X149281178Y-118073772D01*
X149304810Y-118095190D01*
X149326228Y-118118822D01*
X149345228Y-118144440D01*
X149361624Y-118171796D01*
X149375261Y-118200628D01*
X149386006Y-118230657D01*
X149393755Y-118261596D01*
X149398435Y-118293144D01*
X149400000Y-118325000D01*
X149400000Y-122175000D01*
X149398435Y-122206856D01*
X149393755Y-122238404D01*
X149386006Y-122269343D01*
X149375261Y-122299372D01*
X149361624Y-122328204D01*
X149345228Y-122355560D01*
X149326228Y-122381178D01*
X149304810Y-122404810D01*
X149281178Y-122426228D01*
X149255560Y-122445228D01*
X149228204Y-122461624D01*
X149199372Y-122475261D01*
X149169343Y-122486006D01*
X149138404Y-122493755D01*
X149106856Y-122498435D01*
X149075000Y-122500000D01*
X148425000Y-122500000D01*
X148393144Y-122498435D01*
X148361596Y-122493755D01*
X148330657Y-122486006D01*
X148300628Y-122475261D01*
X148271796Y-122461624D01*
X148244440Y-122445228D01*
X148218822Y-122426228D01*
X148195190Y-122404810D01*
X148173772Y-122381178D01*
X148154772Y-122355560D01*
X148138376Y-122328204D01*
X148124739Y-122299372D01*
X148113994Y-122269343D01*
X148106245Y-122238404D01*
X148101565Y-122206856D01*
X148100000Y-122175000D01*
X148100000Y-118325000D01*
X148101565Y-118293144D01*
X148106245Y-118261596D01*
X148113994Y-118230657D01*
X148124739Y-118200628D01*
X148138376Y-118171796D01*
X148154772Y-118144440D01*
X148173772Y-118118822D01*
X148195190Y-118095190D01*
X148218822Y-118073772D01*
X148244440Y-118054772D01*
X148271796Y-118038376D01*
X148300628Y-118024739D01*
X148330657Y-118013994D01*
X148361596Y-118006245D01*
X148393144Y-118001565D01*
X148425000Y-118000000D01*
X149075000Y-118000000D01*
X149106856Y-118001565D01*
G37*
G36*
X146606856Y-118001565D02*
G01*
X146638404Y-118006245D01*
X146669343Y-118013994D01*
X146699372Y-118024739D01*
X146728204Y-118038376D01*
X146755560Y-118054772D01*
X146781178Y-118073772D01*
X146804810Y-118095190D01*
X146826228Y-118118822D01*
X146845228Y-118144440D01*
X146861624Y-118171796D01*
X146875261Y-118200628D01*
X146886006Y-118230657D01*
X146893755Y-118261596D01*
X146898435Y-118293144D01*
X146900000Y-118325000D01*
X146900000Y-122175000D01*
X146898435Y-122206856D01*
X146893755Y-122238404D01*
X146886006Y-122269343D01*
X146875261Y-122299372D01*
X146861624Y-122328204D01*
X146845228Y-122355560D01*
X146826228Y-122381178D01*
X146804810Y-122404810D01*
X146781178Y-122426228D01*
X146755560Y-122445228D01*
X146728204Y-122461624D01*
X146699372Y-122475261D01*
X146669343Y-122486006D01*
X146638404Y-122493755D01*
X146606856Y-122498435D01*
X146575000Y-122500000D01*
X145925000Y-122500000D01*
X145893144Y-122498435D01*
X145861596Y-122493755D01*
X145830657Y-122486006D01*
X145800628Y-122475261D01*
X145771796Y-122461624D01*
X145744440Y-122445228D01*
X145718822Y-122426228D01*
X145695190Y-122404810D01*
X145673772Y-122381178D01*
X145654772Y-122355560D01*
X145638376Y-122328204D01*
X145624739Y-122299372D01*
X145613994Y-122269343D01*
X145606245Y-122238404D01*
X145601565Y-122206856D01*
X145600000Y-122175000D01*
X145600000Y-118325000D01*
X145601565Y-118293144D01*
X145606245Y-118261596D01*
X145613994Y-118230657D01*
X145624739Y-118200628D01*
X145638376Y-118171796D01*
X145654772Y-118144440D01*
X145673772Y-118118822D01*
X145695190Y-118095190D01*
X145718822Y-118073772D01*
X145744440Y-118054772D01*
X145771796Y-118038376D01*
X145800628Y-118024739D01*
X145830657Y-118013994D01*
X145861596Y-118006245D01*
X145893144Y-118001565D01*
X145925000Y-118000000D01*
X146575000Y-118000000D01*
X146606856Y-118001565D01*
G37*
G36*
X144106856Y-118001565D02*
G01*
X144138404Y-118006245D01*
X144169343Y-118013994D01*
X144199372Y-118024739D01*
X144228204Y-118038376D01*
X144255560Y-118054772D01*
X144281178Y-118073772D01*
X144304810Y-118095190D01*
X144326228Y-118118822D01*
X144345228Y-118144440D01*
X144361624Y-118171796D01*
X144375261Y-118200628D01*
X144386006Y-118230657D01*
X144393755Y-118261596D01*
X144398435Y-118293144D01*
X144400000Y-118325000D01*
X144400000Y-122175000D01*
X144398435Y-122206856D01*
X144393755Y-122238404D01*
X144386006Y-122269343D01*
X144375261Y-122299372D01*
X144361624Y-122328204D01*
X144345228Y-122355560D01*
X144326228Y-122381178D01*
X144304810Y-122404810D01*
X144281178Y-122426228D01*
X144255560Y-122445228D01*
X144228204Y-122461624D01*
X144199372Y-122475261D01*
X144169343Y-122486006D01*
X144138404Y-122493755D01*
X144106856Y-122498435D01*
X144075000Y-122500000D01*
X143425000Y-122500000D01*
X143393144Y-122498435D01*
X143361596Y-122493755D01*
X143330657Y-122486006D01*
X143300628Y-122475261D01*
X143271796Y-122461624D01*
X143244440Y-122445228D01*
X143218822Y-122426228D01*
X143195190Y-122404810D01*
X143173772Y-122381178D01*
X143154772Y-122355560D01*
X143138376Y-122328204D01*
X143124739Y-122299372D01*
X143113994Y-122269343D01*
X143106245Y-122238404D01*
X143101565Y-122206856D01*
X143100000Y-122175000D01*
X143100000Y-118325000D01*
X143101565Y-118293144D01*
X143106245Y-118261596D01*
X143113994Y-118230657D01*
X143124739Y-118200628D01*
X143138376Y-118171796D01*
X143154772Y-118144440D01*
X143173772Y-118118822D01*
X143195190Y-118095190D01*
X143218822Y-118073772D01*
X143244440Y-118054772D01*
X143271796Y-118038376D01*
X143300628Y-118024739D01*
X143330657Y-118013994D01*
X143361596Y-118006245D01*
X143393144Y-118001565D01*
X143425000Y-118000000D01*
X144075000Y-118000000D01*
X144106856Y-118001565D01*
G37*
G36*
X154246958Y-114480710D02*
G01*
X154261276Y-114482834D01*
X154275317Y-114486351D01*
X154288946Y-114491228D01*
X154302031Y-114497417D01*
X154314447Y-114504858D01*
X154326073Y-114513481D01*
X154336798Y-114523202D01*
X154346519Y-114533927D01*
X154355142Y-114545553D01*
X154362583Y-114557969D01*
X154368772Y-114571054D01*
X154373649Y-114584683D01*
X154377166Y-114598724D01*
X154379290Y-114613042D01*
X154380000Y-114627500D01*
X154380000Y-114972500D01*
X154379290Y-114986958D01*
X154377166Y-115001276D01*
X154373649Y-115015317D01*
X154368772Y-115028946D01*
X154362583Y-115042031D01*
X154355142Y-115054447D01*
X154346519Y-115066073D01*
X154336798Y-115076798D01*
X154326073Y-115086519D01*
X154314447Y-115095142D01*
X154302031Y-115102583D01*
X154288946Y-115108772D01*
X154275317Y-115113649D01*
X154261276Y-115117166D01*
X154246958Y-115119290D01*
X154232500Y-115120000D01*
X153937500Y-115120000D01*
X153923042Y-115119290D01*
X153908724Y-115117166D01*
X153894683Y-115113649D01*
X153881054Y-115108772D01*
X153867969Y-115102583D01*
X153855553Y-115095142D01*
X153843927Y-115086519D01*
X153833202Y-115076798D01*
X153823481Y-115066073D01*
X153814858Y-115054447D01*
X153807417Y-115042031D01*
X153801228Y-115028946D01*
X153796351Y-115015317D01*
X153792834Y-115001276D01*
X153790710Y-114986958D01*
X153790000Y-114972500D01*
X153790000Y-114627500D01*
X153790710Y-114613042D01*
X153792834Y-114598724D01*
X153796351Y-114584683D01*
X153801228Y-114571054D01*
X153807417Y-114557969D01*
X153814858Y-114545553D01*
X153823481Y-114533927D01*
X153833202Y-114523202D01*
X153843927Y-114513481D01*
X153855553Y-114504858D01*
X153867969Y-114497417D01*
X153881054Y-114491228D01*
X153894683Y-114486351D01*
X153908724Y-114482834D01*
X153923042Y-114480710D01*
X153937500Y-114480000D01*
X154232500Y-114480000D01*
X154246958Y-114480710D01*
G37*
G36*
X153276958Y-114480710D02*
G01*
X153291276Y-114482834D01*
X153305317Y-114486351D01*
X153318946Y-114491228D01*
X153332031Y-114497417D01*
X153344447Y-114504858D01*
X153356073Y-114513481D01*
X153366798Y-114523202D01*
X153376519Y-114533927D01*
X153385142Y-114545553D01*
X153392583Y-114557969D01*
X153398772Y-114571054D01*
X153403649Y-114584683D01*
X153407166Y-114598724D01*
X153409290Y-114613042D01*
X153410000Y-114627500D01*
X153410000Y-114972500D01*
X153409290Y-114986958D01*
X153407166Y-115001276D01*
X153403649Y-115015317D01*
X153398772Y-115028946D01*
X153392583Y-115042031D01*
X153385142Y-115054447D01*
X153376519Y-115066073D01*
X153366798Y-115076798D01*
X153356073Y-115086519D01*
X153344447Y-115095142D01*
X153332031Y-115102583D01*
X153318946Y-115108772D01*
X153305317Y-115113649D01*
X153291276Y-115117166D01*
X153276958Y-115119290D01*
X153262500Y-115120000D01*
X152967500Y-115120000D01*
X152953042Y-115119290D01*
X152938724Y-115117166D01*
X152924683Y-115113649D01*
X152911054Y-115108772D01*
X152897969Y-115102583D01*
X152885553Y-115095142D01*
X152873927Y-115086519D01*
X152863202Y-115076798D01*
X152853481Y-115066073D01*
X152844858Y-115054447D01*
X152837417Y-115042031D01*
X152831228Y-115028946D01*
X152826351Y-115015317D01*
X152822834Y-115001276D01*
X152820710Y-114986958D01*
X152820000Y-114972500D01*
X152820000Y-114627500D01*
X152820710Y-114613042D01*
X152822834Y-114598724D01*
X152826351Y-114584683D01*
X152831228Y-114571054D01*
X152837417Y-114557969D01*
X152844858Y-114545553D01*
X152853481Y-114533927D01*
X152863202Y-114523202D01*
X152873927Y-114513481D01*
X152885553Y-114504858D01*
X152897969Y-114497417D01*
X152911054Y-114491228D01*
X152924683Y-114486351D01*
X152938724Y-114482834D01*
X152953042Y-114480710D01*
X152967500Y-114480000D01*
X153262500Y-114480000D01*
X153276958Y-114480710D01*
G37*
G36*
X150646958Y-114680710D02*
G01*
X150661276Y-114682834D01*
X150675317Y-114686351D01*
X150688946Y-114691228D01*
X150702031Y-114697417D01*
X150714447Y-114704858D01*
X150726073Y-114713481D01*
X150736798Y-114723202D01*
X150746519Y-114733927D01*
X150755142Y-114745553D01*
X150762583Y-114757969D01*
X150768772Y-114771054D01*
X150773649Y-114784683D01*
X150777166Y-114798724D01*
X150779290Y-114813042D01*
X150780000Y-114827500D01*
X150780000Y-115172500D01*
X150779290Y-115186958D01*
X150777166Y-115201276D01*
X150773649Y-115215317D01*
X150768772Y-115228946D01*
X150762583Y-115242031D01*
X150755142Y-115254447D01*
X150746519Y-115266073D01*
X150736798Y-115276798D01*
X150726073Y-115286519D01*
X150714447Y-115295142D01*
X150702031Y-115302583D01*
X150688946Y-115308772D01*
X150675317Y-115313649D01*
X150661276Y-115317166D01*
X150646958Y-115319290D01*
X150632500Y-115320000D01*
X150337500Y-115320000D01*
X150323042Y-115319290D01*
X150308724Y-115317166D01*
X150294683Y-115313649D01*
X150281054Y-115308772D01*
X150267969Y-115302583D01*
X150255553Y-115295142D01*
X150243927Y-115286519D01*
X150233202Y-115276798D01*
X150223481Y-115266073D01*
X150214858Y-115254447D01*
X150207417Y-115242031D01*
X150201228Y-115228946D01*
X150196351Y-115215317D01*
X150192834Y-115201276D01*
X150190710Y-115186958D01*
X150190000Y-115172500D01*
X150190000Y-114827500D01*
X150190710Y-114813042D01*
X150192834Y-114798724D01*
X150196351Y-114784683D01*
X150201228Y-114771054D01*
X150207417Y-114757969D01*
X150214858Y-114745553D01*
X150223481Y-114733927D01*
X150233202Y-114723202D01*
X150243927Y-114713481D01*
X150255553Y-114704858D01*
X150267969Y-114697417D01*
X150281054Y-114691228D01*
X150294683Y-114686351D01*
X150308724Y-114682834D01*
X150323042Y-114680710D01*
X150337500Y-114680000D01*
X150632500Y-114680000D01*
X150646958Y-114680710D01*
G37*
G36*
X149676958Y-114680710D02*
G01*
X149691276Y-114682834D01*
X149705317Y-114686351D01*
X149718946Y-114691228D01*
X149732031Y-114697417D01*
X149744447Y-114704858D01*
X149756073Y-114713481D01*
X149766798Y-114723202D01*
X149776519Y-114733927D01*
X149785142Y-114745553D01*
X149792583Y-114757969D01*
X149798772Y-114771054D01*
X149803649Y-114784683D01*
X149807166Y-114798724D01*
X149809290Y-114813042D01*
X149810000Y-114827500D01*
X149810000Y-115172500D01*
X149809290Y-115186958D01*
X149807166Y-115201276D01*
X149803649Y-115215317D01*
X149798772Y-115228946D01*
X149792583Y-115242031D01*
X149785142Y-115254447D01*
X149776519Y-115266073D01*
X149766798Y-115276798D01*
X149756073Y-115286519D01*
X149744447Y-115295142D01*
X149732031Y-115302583D01*
X149718946Y-115308772D01*
X149705317Y-115313649D01*
X149691276Y-115317166D01*
X149676958Y-115319290D01*
X149662500Y-115320000D01*
X149367500Y-115320000D01*
X149353042Y-115319290D01*
X149338724Y-115317166D01*
X149324683Y-115313649D01*
X149311054Y-115308772D01*
X149297969Y-115302583D01*
X149285553Y-115295142D01*
X149273927Y-115286519D01*
X149263202Y-115276798D01*
X149253481Y-115266073D01*
X149244858Y-115254447D01*
X149237417Y-115242031D01*
X149231228Y-115228946D01*
X149226351Y-115215317D01*
X149222834Y-115201276D01*
X149220710Y-115186958D01*
X149220000Y-115172500D01*
X149220000Y-114827500D01*
X149220710Y-114813042D01*
X149222834Y-114798724D01*
X149226351Y-114784683D01*
X149231228Y-114771054D01*
X149237417Y-114757969D01*
X149244858Y-114745553D01*
X149253481Y-114733927D01*
X149263202Y-114723202D01*
X149273927Y-114713481D01*
X149285553Y-114704858D01*
X149297969Y-114697417D01*
X149311054Y-114691228D01*
X149324683Y-114686351D01*
X149338724Y-114682834D01*
X149353042Y-114680710D01*
X149367500Y-114680000D01*
X149662500Y-114680000D01*
X149676958Y-114680710D01*
G37*
G36*
X155586958Y-113620710D02*
G01*
X155601276Y-113622834D01*
X155615317Y-113626351D01*
X155628946Y-113631228D01*
X155642031Y-113637417D01*
X155654447Y-113644858D01*
X155666073Y-113653481D01*
X155676798Y-113663202D01*
X155686519Y-113673927D01*
X155695142Y-113685553D01*
X155702583Y-113697969D01*
X155708772Y-113711054D01*
X155713649Y-113724683D01*
X155717166Y-113738724D01*
X155719290Y-113753042D01*
X155720000Y-113767500D01*
X155720000Y-114062500D01*
X155719290Y-114076958D01*
X155717166Y-114091276D01*
X155713649Y-114105317D01*
X155708772Y-114118946D01*
X155702583Y-114132031D01*
X155695142Y-114144447D01*
X155686519Y-114156073D01*
X155676798Y-114166798D01*
X155666073Y-114176519D01*
X155654447Y-114185142D01*
X155642031Y-114192583D01*
X155628946Y-114198772D01*
X155615317Y-114203649D01*
X155601276Y-114207166D01*
X155586958Y-114209290D01*
X155572500Y-114210000D01*
X155227500Y-114210000D01*
X155213042Y-114209290D01*
X155198724Y-114207166D01*
X155184683Y-114203649D01*
X155171054Y-114198772D01*
X155157969Y-114192583D01*
X155145553Y-114185142D01*
X155133927Y-114176519D01*
X155123202Y-114166798D01*
X155113481Y-114156073D01*
X155104858Y-114144447D01*
X155097417Y-114132031D01*
X155091228Y-114118946D01*
X155086351Y-114105317D01*
X155082834Y-114091276D01*
X155080710Y-114076958D01*
X155080000Y-114062500D01*
X155080000Y-113767500D01*
X155080710Y-113753042D01*
X155082834Y-113738724D01*
X155086351Y-113724683D01*
X155091228Y-113711054D01*
X155097417Y-113697969D01*
X155104858Y-113685553D01*
X155113481Y-113673927D01*
X155123202Y-113663202D01*
X155133927Y-113653481D01*
X155145553Y-113644858D01*
X155157969Y-113637417D01*
X155171054Y-113631228D01*
X155184683Y-113626351D01*
X155198724Y-113622834D01*
X155213042Y-113620710D01*
X155227500Y-113620000D01*
X155572500Y-113620000D01*
X155586958Y-113620710D01*
G37*
G36*
X155586958Y-114590710D02*
G01*
X155601276Y-114592834D01*
X155615317Y-114596351D01*
X155628946Y-114601228D01*
X155642031Y-114607417D01*
X155654447Y-114614858D01*
X155666073Y-114623481D01*
X155676798Y-114633202D01*
X155686519Y-114643927D01*
X155695142Y-114655553D01*
X155702583Y-114667969D01*
X155708772Y-114681054D01*
X155713649Y-114694683D01*
X155717166Y-114708724D01*
X155719290Y-114723042D01*
X155720000Y-114737500D01*
X155720000Y-115032500D01*
X155719290Y-115046958D01*
X155717166Y-115061276D01*
X155713649Y-115075317D01*
X155708772Y-115088946D01*
X155702583Y-115102031D01*
X155695142Y-115114447D01*
X155686519Y-115126073D01*
X155676798Y-115136798D01*
X155666073Y-115146519D01*
X155654447Y-115155142D01*
X155642031Y-115162583D01*
X155628946Y-115168772D01*
X155615317Y-115173649D01*
X155601276Y-115177166D01*
X155586958Y-115179290D01*
X155572500Y-115180000D01*
X155227500Y-115180000D01*
X155213042Y-115179290D01*
X155198724Y-115177166D01*
X155184683Y-115173649D01*
X155171054Y-115168772D01*
X155157969Y-115162583D01*
X155145553Y-115155142D01*
X155133927Y-115146519D01*
X155123202Y-115136798D01*
X155113481Y-115126073D01*
X155104858Y-115114447D01*
X155097417Y-115102031D01*
X155091228Y-115088946D01*
X155086351Y-115075317D01*
X155082834Y-115061276D01*
X155080710Y-115046958D01*
X155080000Y-115032500D01*
X155080000Y-114737500D01*
X155080710Y-114723042D01*
X155082834Y-114708724D01*
X155086351Y-114694683D01*
X155091228Y-114681054D01*
X155097417Y-114667969D01*
X155104858Y-114655553D01*
X155113481Y-114643927D01*
X155123202Y-114633202D01*
X155133927Y-114623481D01*
X155145553Y-114614858D01*
X155157969Y-114607417D01*
X155171054Y-114601228D01*
X155184683Y-114596351D01*
X155198724Y-114592834D01*
X155213042Y-114590710D01*
X155227500Y-114590000D01*
X155572500Y-114590000D01*
X155586958Y-114590710D01*
G37*
M02*
