G04 #@! TF.GenerationSoftware,KiCad,Pcbnew,5.1.5-52549c5~84~ubuntu18.04.1*
G04 #@! TF.CreationDate,2020-03-28T18:13:44-07:00*
G04 #@! TF.ProjectId,somos_wristband_2.0,736f6d6f-735f-4777-9269-737462616e64,rev?*
G04 #@! TF.SameCoordinates,Original*
G04 #@! TF.FileFunction,Legend,Top*
G04 #@! TF.FilePolarity,Positive*
%FSLAX46Y46*%
G04 Gerber Fmt 4.6, Leading zero omitted, Abs format (unit mm)*
G04 Created by KiCad (PCBNEW 5.1.5-52549c5~84~ubuntu18.04.1) date 2020-03-28 18:13:44*
%MOMM*%
%LPD*%
G04 APERTURE LIST*
%ADD10C,0.050000*%
%ADD11C,0.100000*%
%ADD12C,0.150000*%
%ADD13C,0.120000*%
G04 APERTURE END LIST*
D10*
X155619047Y-112202380D02*
X155571428Y-112226190D01*
X155476190Y-112226190D01*
X155428571Y-112202380D01*
X155404761Y-112154761D01*
X155404761Y-111964285D01*
X155428571Y-111916666D01*
X155476190Y-111892857D01*
X155571428Y-111892857D01*
X155619047Y-111916666D01*
X155642857Y-111964285D01*
X155642857Y-112011904D01*
X155404761Y-112059523D01*
X156119047Y-112226190D02*
X155833333Y-112226190D01*
X155976190Y-112226190D02*
X155976190Y-111726190D01*
X155928571Y-111797619D01*
X155880952Y-111845238D01*
X155833333Y-111869047D01*
X156571428Y-111726190D02*
X156333333Y-111726190D01*
X156309523Y-111964285D01*
X156333333Y-111940476D01*
X156380952Y-111916666D01*
X156500000Y-111916666D01*
X156547619Y-111940476D01*
X156571428Y-111964285D01*
X156595238Y-112011904D01*
X156595238Y-112130952D01*
X156571428Y-112178571D01*
X156547619Y-112202380D01*
X156500000Y-112226190D01*
X156380952Y-112226190D01*
X156333333Y-112202380D01*
X156309523Y-112178571D01*
D11*
X147523809Y-128226190D02*
X147357142Y-127988095D01*
X147238095Y-128226190D02*
X147238095Y-127726190D01*
X147428571Y-127726190D01*
X147476190Y-127750000D01*
X147500000Y-127773809D01*
X147523809Y-127821428D01*
X147523809Y-127892857D01*
X147500000Y-127940476D01*
X147476190Y-127964285D01*
X147428571Y-127988095D01*
X147238095Y-127988095D01*
X148023809Y-128226190D02*
X147857142Y-127988095D01*
X147738095Y-128226190D02*
X147738095Y-127726190D01*
X147928571Y-127726190D01*
X147976190Y-127750000D01*
X148000000Y-127773809D01*
X148023809Y-127821428D01*
X148023809Y-127892857D01*
X148000000Y-127940476D01*
X147976190Y-127964285D01*
X147928571Y-127988095D01*
X147738095Y-127988095D01*
X148571428Y-127726190D02*
X148880952Y-127726190D01*
X148714285Y-127916666D01*
X148785714Y-127916666D01*
X148833333Y-127940476D01*
X148857142Y-127964285D01*
X148880952Y-128011904D01*
X148880952Y-128130952D01*
X148857142Y-128178571D01*
X148833333Y-128202380D01*
X148785714Y-128226190D01*
X148642857Y-128226190D01*
X148595238Y-128202380D01*
X148571428Y-128178571D01*
X149452380Y-127702380D02*
X149023809Y-128345238D01*
X149595238Y-127773809D02*
X149619047Y-127750000D01*
X149666666Y-127726190D01*
X149785714Y-127726190D01*
X149833333Y-127750000D01*
X149857142Y-127773809D01*
X149880952Y-127821428D01*
X149880952Y-127869047D01*
X149857142Y-127940476D01*
X149571428Y-128226190D01*
X149880952Y-128226190D01*
X150166666Y-127940476D02*
X150119047Y-127916666D01*
X150095238Y-127892857D01*
X150071428Y-127845238D01*
X150071428Y-127821428D01*
X150095238Y-127773809D01*
X150119047Y-127750000D01*
X150166666Y-127726190D01*
X150261904Y-127726190D01*
X150309523Y-127750000D01*
X150333333Y-127773809D01*
X150357142Y-127821428D01*
X150357142Y-127845238D01*
X150333333Y-127892857D01*
X150309523Y-127916666D01*
X150261904Y-127940476D01*
X150166666Y-127940476D01*
X150119047Y-127964285D01*
X150095238Y-127988095D01*
X150071428Y-128035714D01*
X150071428Y-128130952D01*
X150095238Y-128178571D01*
X150119047Y-128202380D01*
X150166666Y-128226190D01*
X150261904Y-128226190D01*
X150309523Y-128202380D01*
X150333333Y-128178571D01*
X150357142Y-128130952D01*
X150357142Y-128035714D01*
X150333333Y-127988095D01*
X150309523Y-127964285D01*
X150261904Y-127940476D01*
X150928571Y-127702380D02*
X150500000Y-128345238D01*
X151071428Y-127773809D02*
X151095238Y-127750000D01*
X151142857Y-127726190D01*
X151261904Y-127726190D01*
X151309523Y-127750000D01*
X151333333Y-127773809D01*
X151357142Y-127821428D01*
X151357142Y-127869047D01*
X151333333Y-127940476D01*
X151047619Y-128226190D01*
X151357142Y-128226190D01*
X151666666Y-127726190D02*
X151714285Y-127726190D01*
X151761904Y-127750000D01*
X151785714Y-127773809D01*
X151809523Y-127821428D01*
X151833333Y-127916666D01*
X151833333Y-128035714D01*
X151809523Y-128130952D01*
X151785714Y-128178571D01*
X151761904Y-128202380D01*
X151714285Y-128226190D01*
X151666666Y-128226190D01*
X151619047Y-128202380D01*
X151595238Y-128178571D01*
X151571428Y-128130952D01*
X151547619Y-128035714D01*
X151547619Y-127916666D01*
X151571428Y-127821428D01*
X151595238Y-127773809D01*
X151619047Y-127750000D01*
X151666666Y-127726190D01*
X152023809Y-127773809D02*
X152047619Y-127750000D01*
X152095238Y-127726190D01*
X152214285Y-127726190D01*
X152261904Y-127750000D01*
X152285714Y-127773809D01*
X152309523Y-127821428D01*
X152309523Y-127869047D01*
X152285714Y-127940476D01*
X152000000Y-128226190D01*
X152309523Y-128226190D01*
X152619047Y-127726190D02*
X152666666Y-127726190D01*
X152714285Y-127750000D01*
X152738095Y-127773809D01*
X152761904Y-127821428D01*
X152785714Y-127916666D01*
X152785714Y-128035714D01*
X152761904Y-128130952D01*
X152738095Y-128178571D01*
X152714285Y-128202380D01*
X152666666Y-128226190D01*
X152619047Y-128226190D01*
X152571428Y-128202380D01*
X152547619Y-128178571D01*
X152523809Y-128130952D01*
X152500000Y-128035714D01*
X152500000Y-127916666D01*
X152523809Y-127821428D01*
X152547619Y-127773809D01*
X152571428Y-127750000D01*
X152619047Y-127726190D01*
D10*
X157099047Y-121550380D02*
X157051428Y-121574190D01*
X156956190Y-121574190D01*
X156908571Y-121550380D01*
X156884761Y-121502761D01*
X156884761Y-121312285D01*
X156908571Y-121264666D01*
X156956190Y-121240857D01*
X157051428Y-121240857D01*
X157099047Y-121264666D01*
X157122857Y-121312285D01*
X157122857Y-121359904D01*
X156884761Y-121407523D01*
X157599047Y-121574190D02*
X157313333Y-121574190D01*
X157456190Y-121574190D02*
X157456190Y-121074190D01*
X157408571Y-121145619D01*
X157360952Y-121193238D01*
X157313333Y-121217047D01*
X158051428Y-121074190D02*
X157813333Y-121074190D01*
X157789523Y-121312285D01*
X157813333Y-121288476D01*
X157860952Y-121264666D01*
X157980000Y-121264666D01*
X158027619Y-121288476D01*
X158051428Y-121312285D01*
X158075238Y-121359904D01*
X158075238Y-121478952D01*
X158051428Y-121526571D01*
X158027619Y-121550380D01*
X157980000Y-121574190D01*
X157860952Y-121574190D01*
X157813333Y-121550380D01*
X157789523Y-121526571D01*
X155619047Y-110202380D02*
X155571428Y-110226190D01*
X155476190Y-110226190D01*
X155428571Y-110202380D01*
X155404761Y-110154761D01*
X155404761Y-109964285D01*
X155428571Y-109916666D01*
X155476190Y-109892857D01*
X155571428Y-109892857D01*
X155619047Y-109916666D01*
X155642857Y-109964285D01*
X155642857Y-110011904D01*
X155404761Y-110059523D01*
X156119047Y-110226190D02*
X155833333Y-110226190D01*
X155976190Y-110226190D02*
X155976190Y-109726190D01*
X155928571Y-109797619D01*
X155880952Y-109845238D01*
X155833333Y-109869047D01*
X156547619Y-109892857D02*
X156547619Y-110226190D01*
X156428571Y-109702380D02*
X156309523Y-110059523D01*
X156619047Y-110059523D01*
X155619047Y-108202380D02*
X155571428Y-108226190D01*
X155476190Y-108226190D01*
X155428571Y-108202380D01*
X155404761Y-108154761D01*
X155404761Y-107964285D01*
X155428571Y-107916666D01*
X155476190Y-107892857D01*
X155571428Y-107892857D01*
X155619047Y-107916666D01*
X155642857Y-107964285D01*
X155642857Y-108011904D01*
X155404761Y-108059523D01*
X156119047Y-108226190D02*
X155833333Y-108226190D01*
X155976190Y-108226190D02*
X155976190Y-107726190D01*
X155928571Y-107797619D01*
X155880952Y-107845238D01*
X155833333Y-107869047D01*
X156285714Y-107726190D02*
X156595238Y-107726190D01*
X156428571Y-107916666D01*
X156500000Y-107916666D01*
X156547619Y-107940476D01*
X156571428Y-107964285D01*
X156595238Y-108011904D01*
X156595238Y-108130952D01*
X156571428Y-108178571D01*
X156547619Y-108202380D01*
X156500000Y-108226190D01*
X156357142Y-108226190D01*
X156309523Y-108202380D01*
X156285714Y-108178571D01*
X155619047Y-106202380D02*
X155571428Y-106226190D01*
X155476190Y-106226190D01*
X155428571Y-106202380D01*
X155404761Y-106154761D01*
X155404761Y-105964285D01*
X155428571Y-105916666D01*
X155476190Y-105892857D01*
X155571428Y-105892857D01*
X155619047Y-105916666D01*
X155642857Y-105964285D01*
X155642857Y-106011904D01*
X155404761Y-106059523D01*
X156119047Y-106226190D02*
X155833333Y-106226190D01*
X155976190Y-106226190D02*
X155976190Y-105726190D01*
X155928571Y-105797619D01*
X155880952Y-105845238D01*
X155833333Y-105869047D01*
X156309523Y-105773809D02*
X156333333Y-105750000D01*
X156380952Y-105726190D01*
X156500000Y-105726190D01*
X156547619Y-105750000D01*
X156571428Y-105773809D01*
X156595238Y-105821428D01*
X156595238Y-105869047D01*
X156571428Y-105940476D01*
X156285714Y-106226190D01*
X156595238Y-106226190D01*
X143857142Y-106202380D02*
X143809523Y-106226190D01*
X143714285Y-106226190D01*
X143666666Y-106202380D01*
X143642857Y-106154761D01*
X143642857Y-105964285D01*
X143666666Y-105916666D01*
X143714285Y-105892857D01*
X143809523Y-105892857D01*
X143857142Y-105916666D01*
X143880952Y-105964285D01*
X143880952Y-106011904D01*
X143642857Y-106059523D01*
X144047619Y-105726190D02*
X144357142Y-105726190D01*
X144190476Y-105916666D01*
X144261904Y-105916666D01*
X144309523Y-105940476D01*
X144333333Y-105964285D01*
X144357142Y-106011904D01*
X144357142Y-106130952D01*
X144333333Y-106178571D01*
X144309523Y-106202380D01*
X144261904Y-106226190D01*
X144119047Y-106226190D01*
X144071428Y-106202380D01*
X144047619Y-106178571D01*
X143857142Y-108202380D02*
X143809523Y-108226190D01*
X143714285Y-108226190D01*
X143666666Y-108202380D01*
X143642857Y-108154761D01*
X143642857Y-107964285D01*
X143666666Y-107916666D01*
X143714285Y-107892857D01*
X143809523Y-107892857D01*
X143857142Y-107916666D01*
X143880952Y-107964285D01*
X143880952Y-108011904D01*
X143642857Y-108059523D01*
X144071428Y-107773809D02*
X144095238Y-107750000D01*
X144142857Y-107726190D01*
X144261904Y-107726190D01*
X144309523Y-107750000D01*
X144333333Y-107773809D01*
X144357142Y-107821428D01*
X144357142Y-107869047D01*
X144333333Y-107940476D01*
X144047619Y-108226190D01*
X144357142Y-108226190D01*
X143857142Y-110202380D02*
X143809523Y-110226190D01*
X143714285Y-110226190D01*
X143666666Y-110202380D01*
X143642857Y-110154761D01*
X143642857Y-109964285D01*
X143666666Y-109916666D01*
X143714285Y-109892857D01*
X143809523Y-109892857D01*
X143857142Y-109916666D01*
X143880952Y-109964285D01*
X143880952Y-110011904D01*
X143642857Y-110059523D01*
X144357142Y-110226190D02*
X144071428Y-110226190D01*
X144214285Y-110226190D02*
X144214285Y-109726190D01*
X144166666Y-109797619D01*
X144119047Y-109845238D01*
X144071428Y-109869047D01*
X143857142Y-112202380D02*
X143809523Y-112226190D01*
X143714285Y-112226190D01*
X143666666Y-112202380D01*
X143642857Y-112154761D01*
X143642857Y-111964285D01*
X143666666Y-111916666D01*
X143714285Y-111892857D01*
X143809523Y-111892857D01*
X143857142Y-111916666D01*
X143880952Y-111964285D01*
X143880952Y-112011904D01*
X143642857Y-112059523D01*
X144190476Y-111726190D02*
X144238095Y-111726190D01*
X144285714Y-111750000D01*
X144309523Y-111773809D01*
X144333333Y-111821428D01*
X144357142Y-111916666D01*
X144357142Y-112035714D01*
X144333333Y-112130952D01*
X144309523Y-112178571D01*
X144285714Y-112202380D01*
X144238095Y-112226190D01*
X144190476Y-112226190D01*
X144142857Y-112202380D01*
X144119047Y-112178571D01*
X144095238Y-112130952D01*
X144071428Y-112035714D01*
X144071428Y-111916666D01*
X144095238Y-111821428D01*
X144119047Y-111773809D01*
X144142857Y-111750000D01*
X144190476Y-111726190D01*
X146116666Y-117378571D02*
X146092857Y-117402380D01*
X146021428Y-117426190D01*
X145973809Y-117426190D01*
X145902380Y-117402380D01*
X145854761Y-117354761D01*
X145830952Y-117307142D01*
X145807142Y-117211904D01*
X145807142Y-117140476D01*
X145830952Y-117045238D01*
X145854761Y-116997619D01*
X145902380Y-116950000D01*
X145973809Y-116926190D01*
X146021428Y-116926190D01*
X146092857Y-116950000D01*
X146116666Y-116973809D01*
X146307142Y-117402380D02*
X146378571Y-117426190D01*
X146497619Y-117426190D01*
X146545238Y-117402380D01*
X146569047Y-117378571D01*
X146592857Y-117330952D01*
X146592857Y-117283333D01*
X146569047Y-117235714D01*
X146545238Y-117211904D01*
X146497619Y-117188095D01*
X146402380Y-117164285D01*
X146354761Y-117140476D01*
X146330952Y-117116666D01*
X146307142Y-117069047D01*
X146307142Y-117021428D01*
X146330952Y-116973809D01*
X146354761Y-116950000D01*
X146402380Y-116926190D01*
X146521428Y-116926190D01*
X146592857Y-116950000D01*
X148502380Y-117378571D02*
X148478571Y-117402380D01*
X148407142Y-117426190D01*
X148359523Y-117426190D01*
X148288095Y-117402380D01*
X148240476Y-117354761D01*
X148216666Y-117307142D01*
X148192857Y-117211904D01*
X148192857Y-117140476D01*
X148216666Y-117045238D01*
X148240476Y-116997619D01*
X148288095Y-116950000D01*
X148359523Y-116926190D01*
X148407142Y-116926190D01*
X148478571Y-116950000D01*
X148502380Y-116973809D01*
X148954761Y-117426190D02*
X148716666Y-117426190D01*
X148716666Y-116926190D01*
X149121428Y-117426190D02*
X149121428Y-116926190D01*
X149407142Y-117426190D02*
X149192857Y-117140476D01*
X149407142Y-116926190D02*
X149121428Y-117211904D01*
X150414285Y-117426190D02*
X150414285Y-116926190D01*
X150580952Y-117283333D01*
X150747619Y-116926190D01*
X150747619Y-117426190D01*
X151080952Y-116926190D02*
X151176190Y-116926190D01*
X151223809Y-116950000D01*
X151271428Y-116997619D01*
X151295238Y-117092857D01*
X151295238Y-117259523D01*
X151271428Y-117354761D01*
X151223809Y-117402380D01*
X151176190Y-117426190D01*
X151080952Y-117426190D01*
X151033333Y-117402380D01*
X150985714Y-117354761D01*
X150961904Y-117259523D01*
X150961904Y-117092857D01*
X150985714Y-116997619D01*
X151033333Y-116950000D01*
X151080952Y-116926190D01*
X151485714Y-117402380D02*
X151557142Y-117426190D01*
X151676190Y-117426190D01*
X151723809Y-117402380D01*
X151747619Y-117378571D01*
X151771428Y-117330952D01*
X151771428Y-117283333D01*
X151747619Y-117235714D01*
X151723809Y-117211904D01*
X151676190Y-117188095D01*
X151580952Y-117164285D01*
X151533333Y-117140476D01*
X151509523Y-117116666D01*
X151485714Y-117069047D01*
X151485714Y-117021428D01*
X151509523Y-116973809D01*
X151533333Y-116950000D01*
X151580952Y-116926190D01*
X151700000Y-116926190D01*
X151771428Y-116950000D01*
X151985714Y-117426190D02*
X151985714Y-116926190D01*
X153014285Y-117426190D02*
X153014285Y-116926190D01*
X153180952Y-117283333D01*
X153347619Y-116926190D01*
X153347619Y-117426190D01*
X153585714Y-117426190D02*
X153585714Y-116926190D01*
X153800000Y-117402380D02*
X153871428Y-117426190D01*
X153990476Y-117426190D01*
X154038095Y-117402380D01*
X154061904Y-117378571D01*
X154085714Y-117330952D01*
X154085714Y-117283333D01*
X154061904Y-117235714D01*
X154038095Y-117211904D01*
X153990476Y-117188095D01*
X153895238Y-117164285D01*
X153847619Y-117140476D01*
X153823809Y-117116666D01*
X153800000Y-117069047D01*
X153800000Y-117021428D01*
X153823809Y-116973809D01*
X153847619Y-116950000D01*
X153895238Y-116926190D01*
X154014285Y-116926190D01*
X154085714Y-116950000D01*
X154395238Y-116926190D02*
X154490476Y-116926190D01*
X154538095Y-116950000D01*
X154585714Y-116997619D01*
X154609523Y-117092857D01*
X154609523Y-117259523D01*
X154585714Y-117354761D01*
X154538095Y-117402380D01*
X154490476Y-117426190D01*
X154395238Y-117426190D01*
X154347619Y-117402380D01*
X154300000Y-117354761D01*
X154276190Y-117259523D01*
X154276190Y-117092857D01*
X154300000Y-116997619D01*
X154347619Y-116950000D01*
X154395238Y-116926190D01*
X143419047Y-116950000D02*
X143371428Y-116926190D01*
X143300000Y-116926190D01*
X143228571Y-116950000D01*
X143180952Y-116997619D01*
X143157142Y-117045238D01*
X143133333Y-117140476D01*
X143133333Y-117211904D01*
X143157142Y-117307142D01*
X143180952Y-117354761D01*
X143228571Y-117402380D01*
X143300000Y-117426190D01*
X143347619Y-117426190D01*
X143419047Y-117402380D01*
X143442857Y-117378571D01*
X143442857Y-117211904D01*
X143347619Y-117211904D01*
X143657142Y-117426190D02*
X143657142Y-116926190D01*
X143942857Y-117426190D01*
X143942857Y-116926190D01*
X144180952Y-117426190D02*
X144180952Y-116926190D01*
X144300000Y-116926190D01*
X144371428Y-116950000D01*
X144419047Y-116997619D01*
X144442857Y-117045238D01*
X144466666Y-117140476D01*
X144466666Y-117211904D01*
X144442857Y-117307142D01*
X144419047Y-117354761D01*
X144371428Y-117402380D01*
X144300000Y-117426190D01*
X144180952Y-117426190D01*
X155733333Y-116926190D02*
X155900000Y-117426190D01*
X156066666Y-116926190D01*
X156233333Y-117426190D02*
X156233333Y-116926190D01*
X156352380Y-116926190D01*
X156423809Y-116950000D01*
X156471428Y-116997619D01*
X156495238Y-117045238D01*
X156519047Y-117140476D01*
X156519047Y-117211904D01*
X156495238Y-117307142D01*
X156471428Y-117354761D01*
X156423809Y-117402380D01*
X156352380Y-117426190D01*
X156233333Y-117426190D01*
X156733333Y-117426190D02*
X156733333Y-116926190D01*
X156852380Y-116926190D01*
X156923809Y-116950000D01*
X156971428Y-116997619D01*
X156995238Y-117045238D01*
X157019047Y-117140476D01*
X157019047Y-117211904D01*
X156995238Y-117307142D01*
X156971428Y-117354761D01*
X156923809Y-117402380D01*
X156852380Y-117426190D01*
X156733333Y-117426190D01*
D12*
X146360555Y-105000000D02*
G75*
G03X146360555Y-105000000I-360555J0D01*
G01*
D13*
X137315000Y-104060000D02*
X137315000Y-113940000D01*
X141785000Y-115110000D02*
X141785000Y-114060000D01*
X139285000Y-115110000D02*
X141785000Y-115110000D01*
X141785000Y-103940000D02*
X142775000Y-103940000D01*
X141785000Y-102890000D02*
X141785000Y-103940000D01*
X139285000Y-102890000D02*
X141785000Y-102890000D01*
X162685000Y-113940000D02*
X162685000Y-104060000D01*
X158215000Y-102890000D02*
X158215000Y-103940000D01*
X160715000Y-102890000D02*
X158215000Y-102890000D01*
X158215000Y-114060000D02*
X157225000Y-114060000D01*
X158215000Y-115110000D02*
X158215000Y-114060000D01*
X160715000Y-115110000D02*
X158215000Y-115110000D01*
X143660000Y-129010000D02*
X156340000Y-129010000D01*
X157040000Y-122790000D02*
X155760000Y-122790000D01*
X157040000Y-121190000D02*
X157040000Y-122790000D01*
X158060000Y-121190000D02*
X157040000Y-121190000D01*
X158060000Y-125440000D02*
X158060000Y-121190000D01*
X142500000Y-121190000D02*
X142500000Y-119900000D01*
X141940000Y-121190000D02*
X142500000Y-121190000D01*
X141940000Y-125440000D02*
X141940000Y-121190000D01*
D10*
X149595238Y-115226190D02*
X149595238Y-114726190D01*
X149761904Y-115083333D01*
X149928571Y-114726190D01*
X149928571Y-115226190D01*
X150428571Y-115226190D02*
X150142857Y-115226190D01*
X150285714Y-115226190D02*
X150285714Y-114726190D01*
X150238095Y-114797619D01*
X150190476Y-114845238D01*
X150142857Y-114869047D01*
X148690476Y-104026190D02*
X148523809Y-103788095D01*
X148404761Y-104026190D02*
X148404761Y-103526190D01*
X148595238Y-103526190D01*
X148642857Y-103550000D01*
X148666666Y-103573809D01*
X148690476Y-103621428D01*
X148690476Y-103692857D01*
X148666666Y-103740476D01*
X148642857Y-103764285D01*
X148595238Y-103788095D01*
X148404761Y-103788095D01*
X148904761Y-104026190D02*
X148904761Y-103526190D01*
X148904761Y-103764285D02*
X149190476Y-103764285D01*
X149190476Y-104026190D02*
X149190476Y-103526190D01*
X149428571Y-104026190D02*
X149428571Y-103526190D01*
X149547619Y-103526190D01*
X149619047Y-103550000D01*
X149666666Y-103597619D01*
X149690476Y-103645238D01*
X149714285Y-103740476D01*
X149714285Y-103811904D01*
X149690476Y-103907142D01*
X149666666Y-103954761D01*
X149619047Y-104002380D01*
X149547619Y-104026190D01*
X149428571Y-104026190D01*
X149904761Y-103573809D02*
X149928571Y-103550000D01*
X149976190Y-103526190D01*
X150095238Y-103526190D01*
X150142857Y-103550000D01*
X150166666Y-103573809D01*
X150190476Y-103621428D01*
X150190476Y-103669047D01*
X150166666Y-103740476D01*
X149880952Y-104026190D01*
X150190476Y-104026190D01*
X150380952Y-103573809D02*
X150404761Y-103550000D01*
X150452380Y-103526190D01*
X150571428Y-103526190D01*
X150619047Y-103550000D01*
X150642857Y-103573809D01*
X150666666Y-103621428D01*
X150666666Y-103669047D01*
X150642857Y-103740476D01*
X150357142Y-104026190D01*
X150666666Y-104026190D01*
X151142857Y-104026190D02*
X150857142Y-104026190D01*
X151000000Y-104026190D02*
X151000000Y-103526190D01*
X150952380Y-103597619D01*
X150904761Y-103645238D01*
X150857142Y-103669047D01*
X151571428Y-103526190D02*
X151476190Y-103526190D01*
X151428571Y-103550000D01*
X151404761Y-103573809D01*
X151357142Y-103645238D01*
X151333333Y-103740476D01*
X151333333Y-103930952D01*
X151357142Y-103978571D01*
X151380952Y-104002380D01*
X151428571Y-104026190D01*
X151523809Y-104026190D01*
X151571428Y-104002380D01*
X151595238Y-103978571D01*
X151619047Y-103930952D01*
X151619047Y-103811904D01*
X151595238Y-103764285D01*
X151571428Y-103740476D01*
X151523809Y-103716666D01*
X151428571Y-103716666D01*
X151380952Y-103740476D01*
X151357142Y-103764285D01*
X151333333Y-103811904D01*
D12*
X139452380Y-109333333D02*
X140166666Y-109333333D01*
X140309523Y-109380952D01*
X140404761Y-109476190D01*
X140452380Y-109619047D01*
X140452380Y-109714285D01*
X139547619Y-108904761D02*
X139500000Y-108857142D01*
X139452380Y-108761904D01*
X139452380Y-108523809D01*
X139500000Y-108428571D01*
X139547619Y-108380952D01*
X139642857Y-108333333D01*
X139738095Y-108333333D01*
X139880952Y-108380952D01*
X140452380Y-108952380D01*
X140452380Y-108333333D01*
X159452380Y-109333333D02*
X160166666Y-109333333D01*
X160309523Y-109380952D01*
X160404761Y-109476190D01*
X160452380Y-109619047D01*
X160452380Y-109714285D01*
X159785714Y-108428571D02*
X160452380Y-108428571D01*
X159404761Y-108666666D02*
X160119047Y-108904761D01*
X160119047Y-108285714D01*
X149666666Y-125452380D02*
X149666666Y-126166666D01*
X149619047Y-126309523D01*
X149523809Y-126404761D01*
X149380952Y-126452380D01*
X149285714Y-126452380D01*
X150666666Y-126452380D02*
X150095238Y-126452380D01*
X150380952Y-126452380D02*
X150380952Y-125452380D01*
X150285714Y-125595238D01*
X150190476Y-125690476D01*
X150095238Y-125738095D01*
D10*
X153388809Y-115826190D02*
X153103095Y-115826190D01*
X153245952Y-115826190D02*
X153245952Y-115326190D01*
X153198333Y-115397619D01*
X153150714Y-115445238D01*
X153103095Y-115469047D01*
X153698333Y-115326190D02*
X153745952Y-115326190D01*
X153793571Y-115350000D01*
X153817380Y-115373809D01*
X153841190Y-115421428D01*
X153865000Y-115516666D01*
X153865000Y-115635714D01*
X153841190Y-115730952D01*
X153817380Y-115778571D01*
X153793571Y-115802380D01*
X153745952Y-115826190D01*
X153698333Y-115826190D01*
X153650714Y-115802380D01*
X153626904Y-115778571D01*
X153603095Y-115730952D01*
X153579285Y-115635714D01*
X153579285Y-115516666D01*
X153603095Y-115421428D01*
X153626904Y-115373809D01*
X153650714Y-115350000D01*
X153698333Y-115326190D01*
X154460238Y-115492857D02*
X154460238Y-115826190D01*
X154460238Y-115540476D02*
X154484047Y-115516666D01*
X154531666Y-115492857D01*
X154603095Y-115492857D01*
X154650714Y-115516666D01*
X154674523Y-115564285D01*
X154674523Y-115826190D01*
X155079285Y-115564285D02*
X154912619Y-115564285D01*
X154912619Y-115826190D02*
X154912619Y-115326190D01*
X155150714Y-115326190D01*
X149435714Y-114426190D02*
X149150000Y-114426190D01*
X149292857Y-114426190D02*
X149292857Y-113926190D01*
X149245238Y-113997619D01*
X149197619Y-114045238D01*
X149150000Y-114069047D01*
X149745238Y-113926190D02*
X149792857Y-113926190D01*
X149840476Y-113950000D01*
X149864285Y-113973809D01*
X149888095Y-114021428D01*
X149911904Y-114116666D01*
X149911904Y-114235714D01*
X149888095Y-114330952D01*
X149864285Y-114378571D01*
X149840476Y-114402380D01*
X149792857Y-114426190D01*
X149745238Y-114426190D01*
X149697619Y-114402380D01*
X149673809Y-114378571D01*
X149650000Y-114330952D01*
X149626190Y-114235714D01*
X149626190Y-114116666D01*
X149650000Y-114021428D01*
X149673809Y-113973809D01*
X149697619Y-113950000D01*
X149745238Y-113926190D01*
X150221428Y-113926190D02*
X150269047Y-113926190D01*
X150316666Y-113950000D01*
X150340476Y-113973809D01*
X150364285Y-114021428D01*
X150388095Y-114116666D01*
X150388095Y-114235714D01*
X150364285Y-114330952D01*
X150340476Y-114378571D01*
X150316666Y-114402380D01*
X150269047Y-114426190D01*
X150221428Y-114426190D01*
X150173809Y-114402380D01*
X150150000Y-114378571D01*
X150126190Y-114330952D01*
X150102380Y-114235714D01*
X150102380Y-114116666D01*
X150126190Y-114021428D01*
X150150000Y-113973809D01*
X150173809Y-113950000D01*
X150221428Y-113926190D01*
X150983333Y-114092857D02*
X150983333Y-114426190D01*
X150983333Y-114140476D02*
X151007142Y-114116666D01*
X151054761Y-114092857D01*
X151126190Y-114092857D01*
X151173809Y-114116666D01*
X151197619Y-114164285D01*
X151197619Y-114426190D01*
X151602380Y-114164285D02*
X151435714Y-114164285D01*
X151435714Y-114426190D02*
X151435714Y-113926190D01*
X151673809Y-113926190D01*
X156626190Y-115364285D02*
X156626190Y-115650000D01*
X156626190Y-115507142D02*
X156126190Y-115507142D01*
X156197619Y-115554761D01*
X156245238Y-115602380D01*
X156269047Y-115650000D01*
X156126190Y-115054761D02*
X156126190Y-115007142D01*
X156150000Y-114959523D01*
X156173809Y-114935714D01*
X156221428Y-114911904D01*
X156316666Y-114888095D01*
X156435714Y-114888095D01*
X156530952Y-114911904D01*
X156578571Y-114935714D01*
X156602380Y-114959523D01*
X156626190Y-115007142D01*
X156626190Y-115054761D01*
X156602380Y-115102380D01*
X156578571Y-115126190D01*
X156530952Y-115150000D01*
X156435714Y-115173809D01*
X156316666Y-115173809D01*
X156221428Y-115150000D01*
X156173809Y-115126190D01*
X156150000Y-115102380D01*
X156126190Y-115054761D01*
X156126190Y-114578571D02*
X156126190Y-114530952D01*
X156150000Y-114483333D01*
X156173809Y-114459523D01*
X156221428Y-114435714D01*
X156316666Y-114411904D01*
X156435714Y-114411904D01*
X156530952Y-114435714D01*
X156578571Y-114459523D01*
X156602380Y-114483333D01*
X156626190Y-114530952D01*
X156626190Y-114578571D01*
X156602380Y-114626190D01*
X156578571Y-114650000D01*
X156530952Y-114673809D01*
X156435714Y-114697619D01*
X156316666Y-114697619D01*
X156221428Y-114673809D01*
X156173809Y-114650000D01*
X156150000Y-114626190D01*
X156126190Y-114578571D01*
X156292857Y-113816666D02*
X156626190Y-113816666D01*
X156340476Y-113816666D02*
X156316666Y-113792857D01*
X156292857Y-113745238D01*
X156292857Y-113673809D01*
X156316666Y-113626190D01*
X156364285Y-113602380D01*
X156626190Y-113602380D01*
X156364285Y-113197619D02*
X156364285Y-113364285D01*
X156626190Y-113364285D02*
X156126190Y-113364285D01*
X156126190Y-113126190D01*
M02*
