G04 #@! TF.GenerationSoftware,KiCad,Pcbnew,5.1.5-52549c5~84~ubuntu18.04.1*
G04 #@! TF.CreationDate,2020-03-28T18:13:44-07:00*
G04 #@! TF.ProjectId,somos_wristband_2.0,736f6d6f-735f-4777-9269-737462616e64,rev?*
G04 #@! TF.SameCoordinates,Original*
G04 #@! TF.FileFunction,Paste,Bot*
G04 #@! TF.FilePolarity,Positive*
%FSLAX46Y46*%
G04 Gerber Fmt 4.6, Leading zero omitted, Abs format (unit mm)*
G04 Created by KiCad (PCBNEW 5.1.5-52549c5~84~ubuntu18.04.1) date 2020-03-28 18:13:44*
%MOMM*%
%LPD*%
G04 APERTURE LIST*
%ADD10C,0.100000*%
G04 APERTURE END LIST*
D10*
G36*
X138799505Y-102601204D02*
G01*
X138823773Y-102604804D01*
X138847572Y-102610765D01*
X138870671Y-102619030D01*
X138892850Y-102629520D01*
X138913893Y-102642132D01*
X138933599Y-102656747D01*
X138951777Y-102673223D01*
X138968253Y-102691401D01*
X138982868Y-102711107D01*
X138995480Y-102732150D01*
X139005970Y-102754329D01*
X139014235Y-102777428D01*
X139020196Y-102801227D01*
X139023796Y-102825495D01*
X139025000Y-102849999D01*
X139025000Y-103550001D01*
X139023796Y-103574505D01*
X139020196Y-103598773D01*
X139014235Y-103622572D01*
X139005970Y-103645671D01*
X138995480Y-103667850D01*
X138982868Y-103688893D01*
X138968253Y-103708599D01*
X138951777Y-103726777D01*
X138933599Y-103743253D01*
X138913893Y-103757868D01*
X138892850Y-103770480D01*
X138870671Y-103780970D01*
X138847572Y-103789235D01*
X138823773Y-103795196D01*
X138799505Y-103798796D01*
X138775001Y-103800000D01*
X137474999Y-103800000D01*
X137450495Y-103798796D01*
X137426227Y-103795196D01*
X137402428Y-103789235D01*
X137379329Y-103780970D01*
X137357150Y-103770480D01*
X137336107Y-103757868D01*
X137316401Y-103743253D01*
X137298223Y-103726777D01*
X137281747Y-103708599D01*
X137267132Y-103688893D01*
X137254520Y-103667850D01*
X137244030Y-103645671D01*
X137235765Y-103622572D01*
X137229804Y-103598773D01*
X137226204Y-103574505D01*
X137225000Y-103550001D01*
X137225000Y-102849999D01*
X137226204Y-102825495D01*
X137229804Y-102801227D01*
X137235765Y-102777428D01*
X137244030Y-102754329D01*
X137254520Y-102732150D01*
X137267132Y-102711107D01*
X137281747Y-102691401D01*
X137298223Y-102673223D01*
X137316401Y-102656747D01*
X137336107Y-102642132D01*
X137357150Y-102629520D01*
X137379329Y-102619030D01*
X137402428Y-102610765D01*
X137426227Y-102604804D01*
X137450495Y-102601204D01*
X137474999Y-102600000D01*
X138775001Y-102600000D01*
X138799505Y-102601204D01*
G37*
G36*
X138799505Y-114201204D02*
G01*
X138823773Y-114204804D01*
X138847572Y-114210765D01*
X138870671Y-114219030D01*
X138892850Y-114229520D01*
X138913893Y-114242132D01*
X138933599Y-114256747D01*
X138951777Y-114273223D01*
X138968253Y-114291401D01*
X138982868Y-114311107D01*
X138995480Y-114332150D01*
X139005970Y-114354329D01*
X139014235Y-114377428D01*
X139020196Y-114401227D01*
X139023796Y-114425495D01*
X139025000Y-114449999D01*
X139025000Y-115150001D01*
X139023796Y-115174505D01*
X139020196Y-115198773D01*
X139014235Y-115222572D01*
X139005970Y-115245671D01*
X138995480Y-115267850D01*
X138982868Y-115288893D01*
X138968253Y-115308599D01*
X138951777Y-115326777D01*
X138933599Y-115343253D01*
X138913893Y-115357868D01*
X138892850Y-115370480D01*
X138870671Y-115380970D01*
X138847572Y-115389235D01*
X138823773Y-115395196D01*
X138799505Y-115398796D01*
X138775001Y-115400000D01*
X137474999Y-115400000D01*
X137450495Y-115398796D01*
X137426227Y-115395196D01*
X137402428Y-115389235D01*
X137379329Y-115380970D01*
X137357150Y-115370480D01*
X137336107Y-115357868D01*
X137316401Y-115343253D01*
X137298223Y-115326777D01*
X137281747Y-115308599D01*
X137267132Y-115288893D01*
X137254520Y-115267850D01*
X137244030Y-115245671D01*
X137235765Y-115222572D01*
X137229804Y-115198773D01*
X137226204Y-115174505D01*
X137225000Y-115150001D01*
X137225000Y-114449999D01*
X137226204Y-114425495D01*
X137229804Y-114401227D01*
X137235765Y-114377428D01*
X137244030Y-114354329D01*
X137254520Y-114332150D01*
X137267132Y-114311107D01*
X137281747Y-114291401D01*
X137298223Y-114273223D01*
X137316401Y-114256747D01*
X137336107Y-114242132D01*
X137357150Y-114229520D01*
X137379329Y-114219030D01*
X137402428Y-114210765D01*
X137426227Y-114204804D01*
X137450495Y-114201204D01*
X137474999Y-114200000D01*
X138775001Y-114200000D01*
X138799505Y-114201204D01*
G37*
G36*
X142639703Y-104200722D02*
G01*
X142654264Y-104202882D01*
X142668543Y-104206459D01*
X142682403Y-104211418D01*
X142695710Y-104217712D01*
X142708336Y-104225280D01*
X142720159Y-104234048D01*
X142731066Y-104243934D01*
X142740952Y-104254841D01*
X142749720Y-104266664D01*
X142757288Y-104279290D01*
X142763582Y-104292597D01*
X142768541Y-104306457D01*
X142772118Y-104320736D01*
X142774278Y-104335297D01*
X142775000Y-104350000D01*
X142775000Y-104650000D01*
X142774278Y-104664703D01*
X142772118Y-104679264D01*
X142768541Y-104693543D01*
X142763582Y-104707403D01*
X142757288Y-104720710D01*
X142749720Y-104733336D01*
X142740952Y-104745159D01*
X142731066Y-104756066D01*
X142720159Y-104765952D01*
X142708336Y-104774720D01*
X142695710Y-104782288D01*
X142682403Y-104788582D01*
X142668543Y-104793541D01*
X142654264Y-104797118D01*
X142639703Y-104799278D01*
X142625000Y-104800000D01*
X141375000Y-104800000D01*
X141360297Y-104799278D01*
X141345736Y-104797118D01*
X141331457Y-104793541D01*
X141317597Y-104788582D01*
X141304290Y-104782288D01*
X141291664Y-104774720D01*
X141279841Y-104765952D01*
X141268934Y-104756066D01*
X141259048Y-104745159D01*
X141250280Y-104733336D01*
X141242712Y-104720710D01*
X141236418Y-104707403D01*
X141231459Y-104693543D01*
X141227882Y-104679264D01*
X141225722Y-104664703D01*
X141225000Y-104650000D01*
X141225000Y-104350000D01*
X141225722Y-104335297D01*
X141227882Y-104320736D01*
X141231459Y-104306457D01*
X141236418Y-104292597D01*
X141242712Y-104279290D01*
X141250280Y-104266664D01*
X141259048Y-104254841D01*
X141268934Y-104243934D01*
X141279841Y-104234048D01*
X141291664Y-104225280D01*
X141304290Y-104217712D01*
X141317597Y-104211418D01*
X141331457Y-104206459D01*
X141345736Y-104202882D01*
X141360297Y-104200722D01*
X141375000Y-104200000D01*
X142625000Y-104200000D01*
X142639703Y-104200722D01*
G37*
G36*
X142639703Y-105200722D02*
G01*
X142654264Y-105202882D01*
X142668543Y-105206459D01*
X142682403Y-105211418D01*
X142695710Y-105217712D01*
X142708336Y-105225280D01*
X142720159Y-105234048D01*
X142731066Y-105243934D01*
X142740952Y-105254841D01*
X142749720Y-105266664D01*
X142757288Y-105279290D01*
X142763582Y-105292597D01*
X142768541Y-105306457D01*
X142772118Y-105320736D01*
X142774278Y-105335297D01*
X142775000Y-105350000D01*
X142775000Y-105650000D01*
X142774278Y-105664703D01*
X142772118Y-105679264D01*
X142768541Y-105693543D01*
X142763582Y-105707403D01*
X142757288Y-105720710D01*
X142749720Y-105733336D01*
X142740952Y-105745159D01*
X142731066Y-105756066D01*
X142720159Y-105765952D01*
X142708336Y-105774720D01*
X142695710Y-105782288D01*
X142682403Y-105788582D01*
X142668543Y-105793541D01*
X142654264Y-105797118D01*
X142639703Y-105799278D01*
X142625000Y-105800000D01*
X141375000Y-105800000D01*
X141360297Y-105799278D01*
X141345736Y-105797118D01*
X141331457Y-105793541D01*
X141317597Y-105788582D01*
X141304290Y-105782288D01*
X141291664Y-105774720D01*
X141279841Y-105765952D01*
X141268934Y-105756066D01*
X141259048Y-105745159D01*
X141250280Y-105733336D01*
X141242712Y-105720710D01*
X141236418Y-105707403D01*
X141231459Y-105693543D01*
X141227882Y-105679264D01*
X141225722Y-105664703D01*
X141225000Y-105650000D01*
X141225000Y-105350000D01*
X141225722Y-105335297D01*
X141227882Y-105320736D01*
X141231459Y-105306457D01*
X141236418Y-105292597D01*
X141242712Y-105279290D01*
X141250280Y-105266664D01*
X141259048Y-105254841D01*
X141268934Y-105243934D01*
X141279841Y-105234048D01*
X141291664Y-105225280D01*
X141304290Y-105217712D01*
X141317597Y-105211418D01*
X141331457Y-105206459D01*
X141345736Y-105202882D01*
X141360297Y-105200722D01*
X141375000Y-105200000D01*
X142625000Y-105200000D01*
X142639703Y-105200722D01*
G37*
G36*
X142639703Y-106200722D02*
G01*
X142654264Y-106202882D01*
X142668543Y-106206459D01*
X142682403Y-106211418D01*
X142695710Y-106217712D01*
X142708336Y-106225280D01*
X142720159Y-106234048D01*
X142731066Y-106243934D01*
X142740952Y-106254841D01*
X142749720Y-106266664D01*
X142757288Y-106279290D01*
X142763582Y-106292597D01*
X142768541Y-106306457D01*
X142772118Y-106320736D01*
X142774278Y-106335297D01*
X142775000Y-106350000D01*
X142775000Y-106650000D01*
X142774278Y-106664703D01*
X142772118Y-106679264D01*
X142768541Y-106693543D01*
X142763582Y-106707403D01*
X142757288Y-106720710D01*
X142749720Y-106733336D01*
X142740952Y-106745159D01*
X142731066Y-106756066D01*
X142720159Y-106765952D01*
X142708336Y-106774720D01*
X142695710Y-106782288D01*
X142682403Y-106788582D01*
X142668543Y-106793541D01*
X142654264Y-106797118D01*
X142639703Y-106799278D01*
X142625000Y-106800000D01*
X141375000Y-106800000D01*
X141360297Y-106799278D01*
X141345736Y-106797118D01*
X141331457Y-106793541D01*
X141317597Y-106788582D01*
X141304290Y-106782288D01*
X141291664Y-106774720D01*
X141279841Y-106765952D01*
X141268934Y-106756066D01*
X141259048Y-106745159D01*
X141250280Y-106733336D01*
X141242712Y-106720710D01*
X141236418Y-106707403D01*
X141231459Y-106693543D01*
X141227882Y-106679264D01*
X141225722Y-106664703D01*
X141225000Y-106650000D01*
X141225000Y-106350000D01*
X141225722Y-106335297D01*
X141227882Y-106320736D01*
X141231459Y-106306457D01*
X141236418Y-106292597D01*
X141242712Y-106279290D01*
X141250280Y-106266664D01*
X141259048Y-106254841D01*
X141268934Y-106243934D01*
X141279841Y-106234048D01*
X141291664Y-106225280D01*
X141304290Y-106217712D01*
X141317597Y-106211418D01*
X141331457Y-106206459D01*
X141345736Y-106202882D01*
X141360297Y-106200722D01*
X141375000Y-106200000D01*
X142625000Y-106200000D01*
X142639703Y-106200722D01*
G37*
G36*
X142639703Y-107200722D02*
G01*
X142654264Y-107202882D01*
X142668543Y-107206459D01*
X142682403Y-107211418D01*
X142695710Y-107217712D01*
X142708336Y-107225280D01*
X142720159Y-107234048D01*
X142731066Y-107243934D01*
X142740952Y-107254841D01*
X142749720Y-107266664D01*
X142757288Y-107279290D01*
X142763582Y-107292597D01*
X142768541Y-107306457D01*
X142772118Y-107320736D01*
X142774278Y-107335297D01*
X142775000Y-107350000D01*
X142775000Y-107650000D01*
X142774278Y-107664703D01*
X142772118Y-107679264D01*
X142768541Y-107693543D01*
X142763582Y-107707403D01*
X142757288Y-107720710D01*
X142749720Y-107733336D01*
X142740952Y-107745159D01*
X142731066Y-107756066D01*
X142720159Y-107765952D01*
X142708336Y-107774720D01*
X142695710Y-107782288D01*
X142682403Y-107788582D01*
X142668543Y-107793541D01*
X142654264Y-107797118D01*
X142639703Y-107799278D01*
X142625000Y-107800000D01*
X141375000Y-107800000D01*
X141360297Y-107799278D01*
X141345736Y-107797118D01*
X141331457Y-107793541D01*
X141317597Y-107788582D01*
X141304290Y-107782288D01*
X141291664Y-107774720D01*
X141279841Y-107765952D01*
X141268934Y-107756066D01*
X141259048Y-107745159D01*
X141250280Y-107733336D01*
X141242712Y-107720710D01*
X141236418Y-107707403D01*
X141231459Y-107693543D01*
X141227882Y-107679264D01*
X141225722Y-107664703D01*
X141225000Y-107650000D01*
X141225000Y-107350000D01*
X141225722Y-107335297D01*
X141227882Y-107320736D01*
X141231459Y-107306457D01*
X141236418Y-107292597D01*
X141242712Y-107279290D01*
X141250280Y-107266664D01*
X141259048Y-107254841D01*
X141268934Y-107243934D01*
X141279841Y-107234048D01*
X141291664Y-107225280D01*
X141304290Y-107217712D01*
X141317597Y-107211418D01*
X141331457Y-107206459D01*
X141345736Y-107202882D01*
X141360297Y-107200722D01*
X141375000Y-107200000D01*
X142625000Y-107200000D01*
X142639703Y-107200722D01*
G37*
G36*
X142639703Y-108200722D02*
G01*
X142654264Y-108202882D01*
X142668543Y-108206459D01*
X142682403Y-108211418D01*
X142695710Y-108217712D01*
X142708336Y-108225280D01*
X142720159Y-108234048D01*
X142731066Y-108243934D01*
X142740952Y-108254841D01*
X142749720Y-108266664D01*
X142757288Y-108279290D01*
X142763582Y-108292597D01*
X142768541Y-108306457D01*
X142772118Y-108320736D01*
X142774278Y-108335297D01*
X142775000Y-108350000D01*
X142775000Y-108650000D01*
X142774278Y-108664703D01*
X142772118Y-108679264D01*
X142768541Y-108693543D01*
X142763582Y-108707403D01*
X142757288Y-108720710D01*
X142749720Y-108733336D01*
X142740952Y-108745159D01*
X142731066Y-108756066D01*
X142720159Y-108765952D01*
X142708336Y-108774720D01*
X142695710Y-108782288D01*
X142682403Y-108788582D01*
X142668543Y-108793541D01*
X142654264Y-108797118D01*
X142639703Y-108799278D01*
X142625000Y-108800000D01*
X141375000Y-108800000D01*
X141360297Y-108799278D01*
X141345736Y-108797118D01*
X141331457Y-108793541D01*
X141317597Y-108788582D01*
X141304290Y-108782288D01*
X141291664Y-108774720D01*
X141279841Y-108765952D01*
X141268934Y-108756066D01*
X141259048Y-108745159D01*
X141250280Y-108733336D01*
X141242712Y-108720710D01*
X141236418Y-108707403D01*
X141231459Y-108693543D01*
X141227882Y-108679264D01*
X141225722Y-108664703D01*
X141225000Y-108650000D01*
X141225000Y-108350000D01*
X141225722Y-108335297D01*
X141227882Y-108320736D01*
X141231459Y-108306457D01*
X141236418Y-108292597D01*
X141242712Y-108279290D01*
X141250280Y-108266664D01*
X141259048Y-108254841D01*
X141268934Y-108243934D01*
X141279841Y-108234048D01*
X141291664Y-108225280D01*
X141304290Y-108217712D01*
X141317597Y-108211418D01*
X141331457Y-108206459D01*
X141345736Y-108202882D01*
X141360297Y-108200722D01*
X141375000Y-108200000D01*
X142625000Y-108200000D01*
X142639703Y-108200722D01*
G37*
G36*
X142639703Y-109200722D02*
G01*
X142654264Y-109202882D01*
X142668543Y-109206459D01*
X142682403Y-109211418D01*
X142695710Y-109217712D01*
X142708336Y-109225280D01*
X142720159Y-109234048D01*
X142731066Y-109243934D01*
X142740952Y-109254841D01*
X142749720Y-109266664D01*
X142757288Y-109279290D01*
X142763582Y-109292597D01*
X142768541Y-109306457D01*
X142772118Y-109320736D01*
X142774278Y-109335297D01*
X142775000Y-109350000D01*
X142775000Y-109650000D01*
X142774278Y-109664703D01*
X142772118Y-109679264D01*
X142768541Y-109693543D01*
X142763582Y-109707403D01*
X142757288Y-109720710D01*
X142749720Y-109733336D01*
X142740952Y-109745159D01*
X142731066Y-109756066D01*
X142720159Y-109765952D01*
X142708336Y-109774720D01*
X142695710Y-109782288D01*
X142682403Y-109788582D01*
X142668543Y-109793541D01*
X142654264Y-109797118D01*
X142639703Y-109799278D01*
X142625000Y-109800000D01*
X141375000Y-109800000D01*
X141360297Y-109799278D01*
X141345736Y-109797118D01*
X141331457Y-109793541D01*
X141317597Y-109788582D01*
X141304290Y-109782288D01*
X141291664Y-109774720D01*
X141279841Y-109765952D01*
X141268934Y-109756066D01*
X141259048Y-109745159D01*
X141250280Y-109733336D01*
X141242712Y-109720710D01*
X141236418Y-109707403D01*
X141231459Y-109693543D01*
X141227882Y-109679264D01*
X141225722Y-109664703D01*
X141225000Y-109650000D01*
X141225000Y-109350000D01*
X141225722Y-109335297D01*
X141227882Y-109320736D01*
X141231459Y-109306457D01*
X141236418Y-109292597D01*
X141242712Y-109279290D01*
X141250280Y-109266664D01*
X141259048Y-109254841D01*
X141268934Y-109243934D01*
X141279841Y-109234048D01*
X141291664Y-109225280D01*
X141304290Y-109217712D01*
X141317597Y-109211418D01*
X141331457Y-109206459D01*
X141345736Y-109202882D01*
X141360297Y-109200722D01*
X141375000Y-109200000D01*
X142625000Y-109200000D01*
X142639703Y-109200722D01*
G37*
G36*
X142639703Y-110200722D02*
G01*
X142654264Y-110202882D01*
X142668543Y-110206459D01*
X142682403Y-110211418D01*
X142695710Y-110217712D01*
X142708336Y-110225280D01*
X142720159Y-110234048D01*
X142731066Y-110243934D01*
X142740952Y-110254841D01*
X142749720Y-110266664D01*
X142757288Y-110279290D01*
X142763582Y-110292597D01*
X142768541Y-110306457D01*
X142772118Y-110320736D01*
X142774278Y-110335297D01*
X142775000Y-110350000D01*
X142775000Y-110650000D01*
X142774278Y-110664703D01*
X142772118Y-110679264D01*
X142768541Y-110693543D01*
X142763582Y-110707403D01*
X142757288Y-110720710D01*
X142749720Y-110733336D01*
X142740952Y-110745159D01*
X142731066Y-110756066D01*
X142720159Y-110765952D01*
X142708336Y-110774720D01*
X142695710Y-110782288D01*
X142682403Y-110788582D01*
X142668543Y-110793541D01*
X142654264Y-110797118D01*
X142639703Y-110799278D01*
X142625000Y-110800000D01*
X141375000Y-110800000D01*
X141360297Y-110799278D01*
X141345736Y-110797118D01*
X141331457Y-110793541D01*
X141317597Y-110788582D01*
X141304290Y-110782288D01*
X141291664Y-110774720D01*
X141279841Y-110765952D01*
X141268934Y-110756066D01*
X141259048Y-110745159D01*
X141250280Y-110733336D01*
X141242712Y-110720710D01*
X141236418Y-110707403D01*
X141231459Y-110693543D01*
X141227882Y-110679264D01*
X141225722Y-110664703D01*
X141225000Y-110650000D01*
X141225000Y-110350000D01*
X141225722Y-110335297D01*
X141227882Y-110320736D01*
X141231459Y-110306457D01*
X141236418Y-110292597D01*
X141242712Y-110279290D01*
X141250280Y-110266664D01*
X141259048Y-110254841D01*
X141268934Y-110243934D01*
X141279841Y-110234048D01*
X141291664Y-110225280D01*
X141304290Y-110217712D01*
X141317597Y-110211418D01*
X141331457Y-110206459D01*
X141345736Y-110202882D01*
X141360297Y-110200722D01*
X141375000Y-110200000D01*
X142625000Y-110200000D01*
X142639703Y-110200722D01*
G37*
G36*
X142639703Y-111200722D02*
G01*
X142654264Y-111202882D01*
X142668543Y-111206459D01*
X142682403Y-111211418D01*
X142695710Y-111217712D01*
X142708336Y-111225280D01*
X142720159Y-111234048D01*
X142731066Y-111243934D01*
X142740952Y-111254841D01*
X142749720Y-111266664D01*
X142757288Y-111279290D01*
X142763582Y-111292597D01*
X142768541Y-111306457D01*
X142772118Y-111320736D01*
X142774278Y-111335297D01*
X142775000Y-111350000D01*
X142775000Y-111650000D01*
X142774278Y-111664703D01*
X142772118Y-111679264D01*
X142768541Y-111693543D01*
X142763582Y-111707403D01*
X142757288Y-111720710D01*
X142749720Y-111733336D01*
X142740952Y-111745159D01*
X142731066Y-111756066D01*
X142720159Y-111765952D01*
X142708336Y-111774720D01*
X142695710Y-111782288D01*
X142682403Y-111788582D01*
X142668543Y-111793541D01*
X142654264Y-111797118D01*
X142639703Y-111799278D01*
X142625000Y-111800000D01*
X141375000Y-111800000D01*
X141360297Y-111799278D01*
X141345736Y-111797118D01*
X141331457Y-111793541D01*
X141317597Y-111788582D01*
X141304290Y-111782288D01*
X141291664Y-111774720D01*
X141279841Y-111765952D01*
X141268934Y-111756066D01*
X141259048Y-111745159D01*
X141250280Y-111733336D01*
X141242712Y-111720710D01*
X141236418Y-111707403D01*
X141231459Y-111693543D01*
X141227882Y-111679264D01*
X141225722Y-111664703D01*
X141225000Y-111650000D01*
X141225000Y-111350000D01*
X141225722Y-111335297D01*
X141227882Y-111320736D01*
X141231459Y-111306457D01*
X141236418Y-111292597D01*
X141242712Y-111279290D01*
X141250280Y-111266664D01*
X141259048Y-111254841D01*
X141268934Y-111243934D01*
X141279841Y-111234048D01*
X141291664Y-111225280D01*
X141304290Y-111217712D01*
X141317597Y-111211418D01*
X141331457Y-111206459D01*
X141345736Y-111202882D01*
X141360297Y-111200722D01*
X141375000Y-111200000D01*
X142625000Y-111200000D01*
X142639703Y-111200722D01*
G37*
G36*
X142639703Y-112200722D02*
G01*
X142654264Y-112202882D01*
X142668543Y-112206459D01*
X142682403Y-112211418D01*
X142695710Y-112217712D01*
X142708336Y-112225280D01*
X142720159Y-112234048D01*
X142731066Y-112243934D01*
X142740952Y-112254841D01*
X142749720Y-112266664D01*
X142757288Y-112279290D01*
X142763582Y-112292597D01*
X142768541Y-112306457D01*
X142772118Y-112320736D01*
X142774278Y-112335297D01*
X142775000Y-112350000D01*
X142775000Y-112650000D01*
X142774278Y-112664703D01*
X142772118Y-112679264D01*
X142768541Y-112693543D01*
X142763582Y-112707403D01*
X142757288Y-112720710D01*
X142749720Y-112733336D01*
X142740952Y-112745159D01*
X142731066Y-112756066D01*
X142720159Y-112765952D01*
X142708336Y-112774720D01*
X142695710Y-112782288D01*
X142682403Y-112788582D01*
X142668543Y-112793541D01*
X142654264Y-112797118D01*
X142639703Y-112799278D01*
X142625000Y-112800000D01*
X141375000Y-112800000D01*
X141360297Y-112799278D01*
X141345736Y-112797118D01*
X141331457Y-112793541D01*
X141317597Y-112788582D01*
X141304290Y-112782288D01*
X141291664Y-112774720D01*
X141279841Y-112765952D01*
X141268934Y-112756066D01*
X141259048Y-112745159D01*
X141250280Y-112733336D01*
X141242712Y-112720710D01*
X141236418Y-112707403D01*
X141231459Y-112693543D01*
X141227882Y-112679264D01*
X141225722Y-112664703D01*
X141225000Y-112650000D01*
X141225000Y-112350000D01*
X141225722Y-112335297D01*
X141227882Y-112320736D01*
X141231459Y-112306457D01*
X141236418Y-112292597D01*
X141242712Y-112279290D01*
X141250280Y-112266664D01*
X141259048Y-112254841D01*
X141268934Y-112243934D01*
X141279841Y-112234048D01*
X141291664Y-112225280D01*
X141304290Y-112217712D01*
X141317597Y-112211418D01*
X141331457Y-112206459D01*
X141345736Y-112202882D01*
X141360297Y-112200722D01*
X141375000Y-112200000D01*
X142625000Y-112200000D01*
X142639703Y-112200722D01*
G37*
G36*
X142639703Y-113200722D02*
G01*
X142654264Y-113202882D01*
X142668543Y-113206459D01*
X142682403Y-113211418D01*
X142695710Y-113217712D01*
X142708336Y-113225280D01*
X142720159Y-113234048D01*
X142731066Y-113243934D01*
X142740952Y-113254841D01*
X142749720Y-113266664D01*
X142757288Y-113279290D01*
X142763582Y-113292597D01*
X142768541Y-113306457D01*
X142772118Y-113320736D01*
X142774278Y-113335297D01*
X142775000Y-113350000D01*
X142775000Y-113650000D01*
X142774278Y-113664703D01*
X142772118Y-113679264D01*
X142768541Y-113693543D01*
X142763582Y-113707403D01*
X142757288Y-113720710D01*
X142749720Y-113733336D01*
X142740952Y-113745159D01*
X142731066Y-113756066D01*
X142720159Y-113765952D01*
X142708336Y-113774720D01*
X142695710Y-113782288D01*
X142682403Y-113788582D01*
X142668543Y-113793541D01*
X142654264Y-113797118D01*
X142639703Y-113799278D01*
X142625000Y-113800000D01*
X141375000Y-113800000D01*
X141360297Y-113799278D01*
X141345736Y-113797118D01*
X141331457Y-113793541D01*
X141317597Y-113788582D01*
X141304290Y-113782288D01*
X141291664Y-113774720D01*
X141279841Y-113765952D01*
X141268934Y-113756066D01*
X141259048Y-113745159D01*
X141250280Y-113733336D01*
X141242712Y-113720710D01*
X141236418Y-113707403D01*
X141231459Y-113693543D01*
X141227882Y-113679264D01*
X141225722Y-113664703D01*
X141225000Y-113650000D01*
X141225000Y-113350000D01*
X141225722Y-113335297D01*
X141227882Y-113320736D01*
X141231459Y-113306457D01*
X141236418Y-113292597D01*
X141242712Y-113279290D01*
X141250280Y-113266664D01*
X141259048Y-113254841D01*
X141268934Y-113243934D01*
X141279841Y-113234048D01*
X141291664Y-113225280D01*
X141304290Y-113217712D01*
X141317597Y-113211418D01*
X141331457Y-113206459D01*
X141345736Y-113202882D01*
X141360297Y-113200722D01*
X141375000Y-113200000D01*
X142625000Y-113200000D01*
X142639703Y-113200722D01*
G37*
G36*
X162549505Y-114201204D02*
G01*
X162573773Y-114204804D01*
X162597572Y-114210765D01*
X162620671Y-114219030D01*
X162642850Y-114229520D01*
X162663893Y-114242132D01*
X162683599Y-114256747D01*
X162701777Y-114273223D01*
X162718253Y-114291401D01*
X162732868Y-114311107D01*
X162745480Y-114332150D01*
X162755970Y-114354329D01*
X162764235Y-114377428D01*
X162770196Y-114401227D01*
X162773796Y-114425495D01*
X162775000Y-114449999D01*
X162775000Y-115150001D01*
X162773796Y-115174505D01*
X162770196Y-115198773D01*
X162764235Y-115222572D01*
X162755970Y-115245671D01*
X162745480Y-115267850D01*
X162732868Y-115288893D01*
X162718253Y-115308599D01*
X162701777Y-115326777D01*
X162683599Y-115343253D01*
X162663893Y-115357868D01*
X162642850Y-115370480D01*
X162620671Y-115380970D01*
X162597572Y-115389235D01*
X162573773Y-115395196D01*
X162549505Y-115398796D01*
X162525001Y-115400000D01*
X161224999Y-115400000D01*
X161200495Y-115398796D01*
X161176227Y-115395196D01*
X161152428Y-115389235D01*
X161129329Y-115380970D01*
X161107150Y-115370480D01*
X161086107Y-115357868D01*
X161066401Y-115343253D01*
X161048223Y-115326777D01*
X161031747Y-115308599D01*
X161017132Y-115288893D01*
X161004520Y-115267850D01*
X160994030Y-115245671D01*
X160985765Y-115222572D01*
X160979804Y-115198773D01*
X160976204Y-115174505D01*
X160975000Y-115150001D01*
X160975000Y-114449999D01*
X160976204Y-114425495D01*
X160979804Y-114401227D01*
X160985765Y-114377428D01*
X160994030Y-114354329D01*
X161004520Y-114332150D01*
X161017132Y-114311107D01*
X161031747Y-114291401D01*
X161048223Y-114273223D01*
X161066401Y-114256747D01*
X161086107Y-114242132D01*
X161107150Y-114229520D01*
X161129329Y-114219030D01*
X161152428Y-114210765D01*
X161176227Y-114204804D01*
X161200495Y-114201204D01*
X161224999Y-114200000D01*
X162525001Y-114200000D01*
X162549505Y-114201204D01*
G37*
G36*
X162549505Y-102601204D02*
G01*
X162573773Y-102604804D01*
X162597572Y-102610765D01*
X162620671Y-102619030D01*
X162642850Y-102629520D01*
X162663893Y-102642132D01*
X162683599Y-102656747D01*
X162701777Y-102673223D01*
X162718253Y-102691401D01*
X162732868Y-102711107D01*
X162745480Y-102732150D01*
X162755970Y-102754329D01*
X162764235Y-102777428D01*
X162770196Y-102801227D01*
X162773796Y-102825495D01*
X162775000Y-102849999D01*
X162775000Y-103550001D01*
X162773796Y-103574505D01*
X162770196Y-103598773D01*
X162764235Y-103622572D01*
X162755970Y-103645671D01*
X162745480Y-103667850D01*
X162732868Y-103688893D01*
X162718253Y-103708599D01*
X162701777Y-103726777D01*
X162683599Y-103743253D01*
X162663893Y-103757868D01*
X162642850Y-103770480D01*
X162620671Y-103780970D01*
X162597572Y-103789235D01*
X162573773Y-103795196D01*
X162549505Y-103798796D01*
X162525001Y-103800000D01*
X161224999Y-103800000D01*
X161200495Y-103798796D01*
X161176227Y-103795196D01*
X161152428Y-103789235D01*
X161129329Y-103780970D01*
X161107150Y-103770480D01*
X161086107Y-103757868D01*
X161066401Y-103743253D01*
X161048223Y-103726777D01*
X161031747Y-103708599D01*
X161017132Y-103688893D01*
X161004520Y-103667850D01*
X160994030Y-103645671D01*
X160985765Y-103622572D01*
X160979804Y-103598773D01*
X160976204Y-103574505D01*
X160975000Y-103550001D01*
X160975000Y-102849999D01*
X160976204Y-102825495D01*
X160979804Y-102801227D01*
X160985765Y-102777428D01*
X160994030Y-102754329D01*
X161004520Y-102732150D01*
X161017132Y-102711107D01*
X161031747Y-102691401D01*
X161048223Y-102673223D01*
X161066401Y-102656747D01*
X161086107Y-102642132D01*
X161107150Y-102629520D01*
X161129329Y-102619030D01*
X161152428Y-102610765D01*
X161176227Y-102604804D01*
X161200495Y-102601204D01*
X161224999Y-102600000D01*
X162525001Y-102600000D01*
X162549505Y-102601204D01*
G37*
G36*
X158639703Y-113200722D02*
G01*
X158654264Y-113202882D01*
X158668543Y-113206459D01*
X158682403Y-113211418D01*
X158695710Y-113217712D01*
X158708336Y-113225280D01*
X158720159Y-113234048D01*
X158731066Y-113243934D01*
X158740952Y-113254841D01*
X158749720Y-113266664D01*
X158757288Y-113279290D01*
X158763582Y-113292597D01*
X158768541Y-113306457D01*
X158772118Y-113320736D01*
X158774278Y-113335297D01*
X158775000Y-113350000D01*
X158775000Y-113650000D01*
X158774278Y-113664703D01*
X158772118Y-113679264D01*
X158768541Y-113693543D01*
X158763582Y-113707403D01*
X158757288Y-113720710D01*
X158749720Y-113733336D01*
X158740952Y-113745159D01*
X158731066Y-113756066D01*
X158720159Y-113765952D01*
X158708336Y-113774720D01*
X158695710Y-113782288D01*
X158682403Y-113788582D01*
X158668543Y-113793541D01*
X158654264Y-113797118D01*
X158639703Y-113799278D01*
X158625000Y-113800000D01*
X157375000Y-113800000D01*
X157360297Y-113799278D01*
X157345736Y-113797118D01*
X157331457Y-113793541D01*
X157317597Y-113788582D01*
X157304290Y-113782288D01*
X157291664Y-113774720D01*
X157279841Y-113765952D01*
X157268934Y-113756066D01*
X157259048Y-113745159D01*
X157250280Y-113733336D01*
X157242712Y-113720710D01*
X157236418Y-113707403D01*
X157231459Y-113693543D01*
X157227882Y-113679264D01*
X157225722Y-113664703D01*
X157225000Y-113650000D01*
X157225000Y-113350000D01*
X157225722Y-113335297D01*
X157227882Y-113320736D01*
X157231459Y-113306457D01*
X157236418Y-113292597D01*
X157242712Y-113279290D01*
X157250280Y-113266664D01*
X157259048Y-113254841D01*
X157268934Y-113243934D01*
X157279841Y-113234048D01*
X157291664Y-113225280D01*
X157304290Y-113217712D01*
X157317597Y-113211418D01*
X157331457Y-113206459D01*
X157345736Y-113202882D01*
X157360297Y-113200722D01*
X157375000Y-113200000D01*
X158625000Y-113200000D01*
X158639703Y-113200722D01*
G37*
G36*
X158639703Y-112200722D02*
G01*
X158654264Y-112202882D01*
X158668543Y-112206459D01*
X158682403Y-112211418D01*
X158695710Y-112217712D01*
X158708336Y-112225280D01*
X158720159Y-112234048D01*
X158731066Y-112243934D01*
X158740952Y-112254841D01*
X158749720Y-112266664D01*
X158757288Y-112279290D01*
X158763582Y-112292597D01*
X158768541Y-112306457D01*
X158772118Y-112320736D01*
X158774278Y-112335297D01*
X158775000Y-112350000D01*
X158775000Y-112650000D01*
X158774278Y-112664703D01*
X158772118Y-112679264D01*
X158768541Y-112693543D01*
X158763582Y-112707403D01*
X158757288Y-112720710D01*
X158749720Y-112733336D01*
X158740952Y-112745159D01*
X158731066Y-112756066D01*
X158720159Y-112765952D01*
X158708336Y-112774720D01*
X158695710Y-112782288D01*
X158682403Y-112788582D01*
X158668543Y-112793541D01*
X158654264Y-112797118D01*
X158639703Y-112799278D01*
X158625000Y-112800000D01*
X157375000Y-112800000D01*
X157360297Y-112799278D01*
X157345736Y-112797118D01*
X157331457Y-112793541D01*
X157317597Y-112788582D01*
X157304290Y-112782288D01*
X157291664Y-112774720D01*
X157279841Y-112765952D01*
X157268934Y-112756066D01*
X157259048Y-112745159D01*
X157250280Y-112733336D01*
X157242712Y-112720710D01*
X157236418Y-112707403D01*
X157231459Y-112693543D01*
X157227882Y-112679264D01*
X157225722Y-112664703D01*
X157225000Y-112650000D01*
X157225000Y-112350000D01*
X157225722Y-112335297D01*
X157227882Y-112320736D01*
X157231459Y-112306457D01*
X157236418Y-112292597D01*
X157242712Y-112279290D01*
X157250280Y-112266664D01*
X157259048Y-112254841D01*
X157268934Y-112243934D01*
X157279841Y-112234048D01*
X157291664Y-112225280D01*
X157304290Y-112217712D01*
X157317597Y-112211418D01*
X157331457Y-112206459D01*
X157345736Y-112202882D01*
X157360297Y-112200722D01*
X157375000Y-112200000D01*
X158625000Y-112200000D01*
X158639703Y-112200722D01*
G37*
G36*
X158639703Y-111200722D02*
G01*
X158654264Y-111202882D01*
X158668543Y-111206459D01*
X158682403Y-111211418D01*
X158695710Y-111217712D01*
X158708336Y-111225280D01*
X158720159Y-111234048D01*
X158731066Y-111243934D01*
X158740952Y-111254841D01*
X158749720Y-111266664D01*
X158757288Y-111279290D01*
X158763582Y-111292597D01*
X158768541Y-111306457D01*
X158772118Y-111320736D01*
X158774278Y-111335297D01*
X158775000Y-111350000D01*
X158775000Y-111650000D01*
X158774278Y-111664703D01*
X158772118Y-111679264D01*
X158768541Y-111693543D01*
X158763582Y-111707403D01*
X158757288Y-111720710D01*
X158749720Y-111733336D01*
X158740952Y-111745159D01*
X158731066Y-111756066D01*
X158720159Y-111765952D01*
X158708336Y-111774720D01*
X158695710Y-111782288D01*
X158682403Y-111788582D01*
X158668543Y-111793541D01*
X158654264Y-111797118D01*
X158639703Y-111799278D01*
X158625000Y-111800000D01*
X157375000Y-111800000D01*
X157360297Y-111799278D01*
X157345736Y-111797118D01*
X157331457Y-111793541D01*
X157317597Y-111788582D01*
X157304290Y-111782288D01*
X157291664Y-111774720D01*
X157279841Y-111765952D01*
X157268934Y-111756066D01*
X157259048Y-111745159D01*
X157250280Y-111733336D01*
X157242712Y-111720710D01*
X157236418Y-111707403D01*
X157231459Y-111693543D01*
X157227882Y-111679264D01*
X157225722Y-111664703D01*
X157225000Y-111650000D01*
X157225000Y-111350000D01*
X157225722Y-111335297D01*
X157227882Y-111320736D01*
X157231459Y-111306457D01*
X157236418Y-111292597D01*
X157242712Y-111279290D01*
X157250280Y-111266664D01*
X157259048Y-111254841D01*
X157268934Y-111243934D01*
X157279841Y-111234048D01*
X157291664Y-111225280D01*
X157304290Y-111217712D01*
X157317597Y-111211418D01*
X157331457Y-111206459D01*
X157345736Y-111202882D01*
X157360297Y-111200722D01*
X157375000Y-111200000D01*
X158625000Y-111200000D01*
X158639703Y-111200722D01*
G37*
G36*
X158639703Y-110200722D02*
G01*
X158654264Y-110202882D01*
X158668543Y-110206459D01*
X158682403Y-110211418D01*
X158695710Y-110217712D01*
X158708336Y-110225280D01*
X158720159Y-110234048D01*
X158731066Y-110243934D01*
X158740952Y-110254841D01*
X158749720Y-110266664D01*
X158757288Y-110279290D01*
X158763582Y-110292597D01*
X158768541Y-110306457D01*
X158772118Y-110320736D01*
X158774278Y-110335297D01*
X158775000Y-110350000D01*
X158775000Y-110650000D01*
X158774278Y-110664703D01*
X158772118Y-110679264D01*
X158768541Y-110693543D01*
X158763582Y-110707403D01*
X158757288Y-110720710D01*
X158749720Y-110733336D01*
X158740952Y-110745159D01*
X158731066Y-110756066D01*
X158720159Y-110765952D01*
X158708336Y-110774720D01*
X158695710Y-110782288D01*
X158682403Y-110788582D01*
X158668543Y-110793541D01*
X158654264Y-110797118D01*
X158639703Y-110799278D01*
X158625000Y-110800000D01*
X157375000Y-110800000D01*
X157360297Y-110799278D01*
X157345736Y-110797118D01*
X157331457Y-110793541D01*
X157317597Y-110788582D01*
X157304290Y-110782288D01*
X157291664Y-110774720D01*
X157279841Y-110765952D01*
X157268934Y-110756066D01*
X157259048Y-110745159D01*
X157250280Y-110733336D01*
X157242712Y-110720710D01*
X157236418Y-110707403D01*
X157231459Y-110693543D01*
X157227882Y-110679264D01*
X157225722Y-110664703D01*
X157225000Y-110650000D01*
X157225000Y-110350000D01*
X157225722Y-110335297D01*
X157227882Y-110320736D01*
X157231459Y-110306457D01*
X157236418Y-110292597D01*
X157242712Y-110279290D01*
X157250280Y-110266664D01*
X157259048Y-110254841D01*
X157268934Y-110243934D01*
X157279841Y-110234048D01*
X157291664Y-110225280D01*
X157304290Y-110217712D01*
X157317597Y-110211418D01*
X157331457Y-110206459D01*
X157345736Y-110202882D01*
X157360297Y-110200722D01*
X157375000Y-110200000D01*
X158625000Y-110200000D01*
X158639703Y-110200722D01*
G37*
G36*
X158639703Y-109200722D02*
G01*
X158654264Y-109202882D01*
X158668543Y-109206459D01*
X158682403Y-109211418D01*
X158695710Y-109217712D01*
X158708336Y-109225280D01*
X158720159Y-109234048D01*
X158731066Y-109243934D01*
X158740952Y-109254841D01*
X158749720Y-109266664D01*
X158757288Y-109279290D01*
X158763582Y-109292597D01*
X158768541Y-109306457D01*
X158772118Y-109320736D01*
X158774278Y-109335297D01*
X158775000Y-109350000D01*
X158775000Y-109650000D01*
X158774278Y-109664703D01*
X158772118Y-109679264D01*
X158768541Y-109693543D01*
X158763582Y-109707403D01*
X158757288Y-109720710D01*
X158749720Y-109733336D01*
X158740952Y-109745159D01*
X158731066Y-109756066D01*
X158720159Y-109765952D01*
X158708336Y-109774720D01*
X158695710Y-109782288D01*
X158682403Y-109788582D01*
X158668543Y-109793541D01*
X158654264Y-109797118D01*
X158639703Y-109799278D01*
X158625000Y-109800000D01*
X157375000Y-109800000D01*
X157360297Y-109799278D01*
X157345736Y-109797118D01*
X157331457Y-109793541D01*
X157317597Y-109788582D01*
X157304290Y-109782288D01*
X157291664Y-109774720D01*
X157279841Y-109765952D01*
X157268934Y-109756066D01*
X157259048Y-109745159D01*
X157250280Y-109733336D01*
X157242712Y-109720710D01*
X157236418Y-109707403D01*
X157231459Y-109693543D01*
X157227882Y-109679264D01*
X157225722Y-109664703D01*
X157225000Y-109650000D01*
X157225000Y-109350000D01*
X157225722Y-109335297D01*
X157227882Y-109320736D01*
X157231459Y-109306457D01*
X157236418Y-109292597D01*
X157242712Y-109279290D01*
X157250280Y-109266664D01*
X157259048Y-109254841D01*
X157268934Y-109243934D01*
X157279841Y-109234048D01*
X157291664Y-109225280D01*
X157304290Y-109217712D01*
X157317597Y-109211418D01*
X157331457Y-109206459D01*
X157345736Y-109202882D01*
X157360297Y-109200722D01*
X157375000Y-109200000D01*
X158625000Y-109200000D01*
X158639703Y-109200722D01*
G37*
G36*
X158639703Y-108200722D02*
G01*
X158654264Y-108202882D01*
X158668543Y-108206459D01*
X158682403Y-108211418D01*
X158695710Y-108217712D01*
X158708336Y-108225280D01*
X158720159Y-108234048D01*
X158731066Y-108243934D01*
X158740952Y-108254841D01*
X158749720Y-108266664D01*
X158757288Y-108279290D01*
X158763582Y-108292597D01*
X158768541Y-108306457D01*
X158772118Y-108320736D01*
X158774278Y-108335297D01*
X158775000Y-108350000D01*
X158775000Y-108650000D01*
X158774278Y-108664703D01*
X158772118Y-108679264D01*
X158768541Y-108693543D01*
X158763582Y-108707403D01*
X158757288Y-108720710D01*
X158749720Y-108733336D01*
X158740952Y-108745159D01*
X158731066Y-108756066D01*
X158720159Y-108765952D01*
X158708336Y-108774720D01*
X158695710Y-108782288D01*
X158682403Y-108788582D01*
X158668543Y-108793541D01*
X158654264Y-108797118D01*
X158639703Y-108799278D01*
X158625000Y-108800000D01*
X157375000Y-108800000D01*
X157360297Y-108799278D01*
X157345736Y-108797118D01*
X157331457Y-108793541D01*
X157317597Y-108788582D01*
X157304290Y-108782288D01*
X157291664Y-108774720D01*
X157279841Y-108765952D01*
X157268934Y-108756066D01*
X157259048Y-108745159D01*
X157250280Y-108733336D01*
X157242712Y-108720710D01*
X157236418Y-108707403D01*
X157231459Y-108693543D01*
X157227882Y-108679264D01*
X157225722Y-108664703D01*
X157225000Y-108650000D01*
X157225000Y-108350000D01*
X157225722Y-108335297D01*
X157227882Y-108320736D01*
X157231459Y-108306457D01*
X157236418Y-108292597D01*
X157242712Y-108279290D01*
X157250280Y-108266664D01*
X157259048Y-108254841D01*
X157268934Y-108243934D01*
X157279841Y-108234048D01*
X157291664Y-108225280D01*
X157304290Y-108217712D01*
X157317597Y-108211418D01*
X157331457Y-108206459D01*
X157345736Y-108202882D01*
X157360297Y-108200722D01*
X157375000Y-108200000D01*
X158625000Y-108200000D01*
X158639703Y-108200722D01*
G37*
G36*
X158639703Y-107200722D02*
G01*
X158654264Y-107202882D01*
X158668543Y-107206459D01*
X158682403Y-107211418D01*
X158695710Y-107217712D01*
X158708336Y-107225280D01*
X158720159Y-107234048D01*
X158731066Y-107243934D01*
X158740952Y-107254841D01*
X158749720Y-107266664D01*
X158757288Y-107279290D01*
X158763582Y-107292597D01*
X158768541Y-107306457D01*
X158772118Y-107320736D01*
X158774278Y-107335297D01*
X158775000Y-107350000D01*
X158775000Y-107650000D01*
X158774278Y-107664703D01*
X158772118Y-107679264D01*
X158768541Y-107693543D01*
X158763582Y-107707403D01*
X158757288Y-107720710D01*
X158749720Y-107733336D01*
X158740952Y-107745159D01*
X158731066Y-107756066D01*
X158720159Y-107765952D01*
X158708336Y-107774720D01*
X158695710Y-107782288D01*
X158682403Y-107788582D01*
X158668543Y-107793541D01*
X158654264Y-107797118D01*
X158639703Y-107799278D01*
X158625000Y-107800000D01*
X157375000Y-107800000D01*
X157360297Y-107799278D01*
X157345736Y-107797118D01*
X157331457Y-107793541D01*
X157317597Y-107788582D01*
X157304290Y-107782288D01*
X157291664Y-107774720D01*
X157279841Y-107765952D01*
X157268934Y-107756066D01*
X157259048Y-107745159D01*
X157250280Y-107733336D01*
X157242712Y-107720710D01*
X157236418Y-107707403D01*
X157231459Y-107693543D01*
X157227882Y-107679264D01*
X157225722Y-107664703D01*
X157225000Y-107650000D01*
X157225000Y-107350000D01*
X157225722Y-107335297D01*
X157227882Y-107320736D01*
X157231459Y-107306457D01*
X157236418Y-107292597D01*
X157242712Y-107279290D01*
X157250280Y-107266664D01*
X157259048Y-107254841D01*
X157268934Y-107243934D01*
X157279841Y-107234048D01*
X157291664Y-107225280D01*
X157304290Y-107217712D01*
X157317597Y-107211418D01*
X157331457Y-107206459D01*
X157345736Y-107202882D01*
X157360297Y-107200722D01*
X157375000Y-107200000D01*
X158625000Y-107200000D01*
X158639703Y-107200722D01*
G37*
G36*
X158639703Y-106200722D02*
G01*
X158654264Y-106202882D01*
X158668543Y-106206459D01*
X158682403Y-106211418D01*
X158695710Y-106217712D01*
X158708336Y-106225280D01*
X158720159Y-106234048D01*
X158731066Y-106243934D01*
X158740952Y-106254841D01*
X158749720Y-106266664D01*
X158757288Y-106279290D01*
X158763582Y-106292597D01*
X158768541Y-106306457D01*
X158772118Y-106320736D01*
X158774278Y-106335297D01*
X158775000Y-106350000D01*
X158775000Y-106650000D01*
X158774278Y-106664703D01*
X158772118Y-106679264D01*
X158768541Y-106693543D01*
X158763582Y-106707403D01*
X158757288Y-106720710D01*
X158749720Y-106733336D01*
X158740952Y-106745159D01*
X158731066Y-106756066D01*
X158720159Y-106765952D01*
X158708336Y-106774720D01*
X158695710Y-106782288D01*
X158682403Y-106788582D01*
X158668543Y-106793541D01*
X158654264Y-106797118D01*
X158639703Y-106799278D01*
X158625000Y-106800000D01*
X157375000Y-106800000D01*
X157360297Y-106799278D01*
X157345736Y-106797118D01*
X157331457Y-106793541D01*
X157317597Y-106788582D01*
X157304290Y-106782288D01*
X157291664Y-106774720D01*
X157279841Y-106765952D01*
X157268934Y-106756066D01*
X157259048Y-106745159D01*
X157250280Y-106733336D01*
X157242712Y-106720710D01*
X157236418Y-106707403D01*
X157231459Y-106693543D01*
X157227882Y-106679264D01*
X157225722Y-106664703D01*
X157225000Y-106650000D01*
X157225000Y-106350000D01*
X157225722Y-106335297D01*
X157227882Y-106320736D01*
X157231459Y-106306457D01*
X157236418Y-106292597D01*
X157242712Y-106279290D01*
X157250280Y-106266664D01*
X157259048Y-106254841D01*
X157268934Y-106243934D01*
X157279841Y-106234048D01*
X157291664Y-106225280D01*
X157304290Y-106217712D01*
X157317597Y-106211418D01*
X157331457Y-106206459D01*
X157345736Y-106202882D01*
X157360297Y-106200722D01*
X157375000Y-106200000D01*
X158625000Y-106200000D01*
X158639703Y-106200722D01*
G37*
G36*
X158639703Y-105200722D02*
G01*
X158654264Y-105202882D01*
X158668543Y-105206459D01*
X158682403Y-105211418D01*
X158695710Y-105217712D01*
X158708336Y-105225280D01*
X158720159Y-105234048D01*
X158731066Y-105243934D01*
X158740952Y-105254841D01*
X158749720Y-105266664D01*
X158757288Y-105279290D01*
X158763582Y-105292597D01*
X158768541Y-105306457D01*
X158772118Y-105320736D01*
X158774278Y-105335297D01*
X158775000Y-105350000D01*
X158775000Y-105650000D01*
X158774278Y-105664703D01*
X158772118Y-105679264D01*
X158768541Y-105693543D01*
X158763582Y-105707403D01*
X158757288Y-105720710D01*
X158749720Y-105733336D01*
X158740952Y-105745159D01*
X158731066Y-105756066D01*
X158720159Y-105765952D01*
X158708336Y-105774720D01*
X158695710Y-105782288D01*
X158682403Y-105788582D01*
X158668543Y-105793541D01*
X158654264Y-105797118D01*
X158639703Y-105799278D01*
X158625000Y-105800000D01*
X157375000Y-105800000D01*
X157360297Y-105799278D01*
X157345736Y-105797118D01*
X157331457Y-105793541D01*
X157317597Y-105788582D01*
X157304290Y-105782288D01*
X157291664Y-105774720D01*
X157279841Y-105765952D01*
X157268934Y-105756066D01*
X157259048Y-105745159D01*
X157250280Y-105733336D01*
X157242712Y-105720710D01*
X157236418Y-105707403D01*
X157231459Y-105693543D01*
X157227882Y-105679264D01*
X157225722Y-105664703D01*
X157225000Y-105650000D01*
X157225000Y-105350000D01*
X157225722Y-105335297D01*
X157227882Y-105320736D01*
X157231459Y-105306457D01*
X157236418Y-105292597D01*
X157242712Y-105279290D01*
X157250280Y-105266664D01*
X157259048Y-105254841D01*
X157268934Y-105243934D01*
X157279841Y-105234048D01*
X157291664Y-105225280D01*
X157304290Y-105217712D01*
X157317597Y-105211418D01*
X157331457Y-105206459D01*
X157345736Y-105202882D01*
X157360297Y-105200722D01*
X157375000Y-105200000D01*
X158625000Y-105200000D01*
X158639703Y-105200722D01*
G37*
G36*
X158639703Y-104200722D02*
G01*
X158654264Y-104202882D01*
X158668543Y-104206459D01*
X158682403Y-104211418D01*
X158695710Y-104217712D01*
X158708336Y-104225280D01*
X158720159Y-104234048D01*
X158731066Y-104243934D01*
X158740952Y-104254841D01*
X158749720Y-104266664D01*
X158757288Y-104279290D01*
X158763582Y-104292597D01*
X158768541Y-104306457D01*
X158772118Y-104320736D01*
X158774278Y-104335297D01*
X158775000Y-104350000D01*
X158775000Y-104650000D01*
X158774278Y-104664703D01*
X158772118Y-104679264D01*
X158768541Y-104693543D01*
X158763582Y-104707403D01*
X158757288Y-104720710D01*
X158749720Y-104733336D01*
X158740952Y-104745159D01*
X158731066Y-104756066D01*
X158720159Y-104765952D01*
X158708336Y-104774720D01*
X158695710Y-104782288D01*
X158682403Y-104788582D01*
X158668543Y-104793541D01*
X158654264Y-104797118D01*
X158639703Y-104799278D01*
X158625000Y-104800000D01*
X157375000Y-104800000D01*
X157360297Y-104799278D01*
X157345736Y-104797118D01*
X157331457Y-104793541D01*
X157317597Y-104788582D01*
X157304290Y-104782288D01*
X157291664Y-104774720D01*
X157279841Y-104765952D01*
X157268934Y-104756066D01*
X157259048Y-104745159D01*
X157250280Y-104733336D01*
X157242712Y-104720710D01*
X157236418Y-104707403D01*
X157231459Y-104693543D01*
X157227882Y-104679264D01*
X157225722Y-104664703D01*
X157225000Y-104650000D01*
X157225000Y-104350000D01*
X157225722Y-104335297D01*
X157227882Y-104320736D01*
X157231459Y-104306457D01*
X157236418Y-104292597D01*
X157242712Y-104279290D01*
X157250280Y-104266664D01*
X157259048Y-104254841D01*
X157268934Y-104243934D01*
X157279841Y-104234048D01*
X157291664Y-104225280D01*
X157304290Y-104217712D01*
X157317597Y-104211418D01*
X157331457Y-104206459D01*
X157345736Y-104202882D01*
X157360297Y-104200722D01*
X157375000Y-104200000D01*
X158625000Y-104200000D01*
X158639703Y-104200722D01*
G37*
M02*
