G04 #@! TF.GenerationSoftware,KiCad,Pcbnew,5.1.5-52549c5~84~ubuntu18.04.1*
G04 #@! TF.CreationDate,2020-03-28T18:13:44-07:00*
G04 #@! TF.ProjectId,somos_wristband_2.0,736f6d6f-735f-4777-9269-737462616e64,rev?*
G04 #@! TF.SameCoordinates,Original*
G04 #@! TF.FileFunction,Copper,L2,Bot*
G04 #@! TF.FilePolarity,Positive*
%FSLAX46Y46*%
G04 Gerber Fmt 4.6, Leading zero omitted, Abs format (unit mm)*
G04 Created by KiCad (PCBNEW 5.1.5-52549c5~84~ubuntu18.04.1) date 2020-03-28 18:13:44*
%MOMM*%
%LPD*%
G04 APERTURE LIST*
%ADD10C,2.200000*%
%ADD11C,0.100000*%
%ADD12C,0.600000*%
%ADD13C,0.300000*%
%ADD14C,0.200000*%
%ADD15C,0.254000*%
G04 APERTURE END LIST*
D10*
X157000000Y-102000000D03*
X143000000Y-102000000D03*
X160000000Y-121000000D03*
X140000000Y-121000000D03*
G04 #@! TA.AperFunction,SMDPad,CuDef*
D11*
G36*
X138799505Y-102601204D02*
G01*
X138823773Y-102604804D01*
X138847572Y-102610765D01*
X138870671Y-102619030D01*
X138892850Y-102629520D01*
X138913893Y-102642132D01*
X138933599Y-102656747D01*
X138951777Y-102673223D01*
X138968253Y-102691401D01*
X138982868Y-102711107D01*
X138995480Y-102732150D01*
X139005970Y-102754329D01*
X139014235Y-102777428D01*
X139020196Y-102801227D01*
X139023796Y-102825495D01*
X139025000Y-102849999D01*
X139025000Y-103550001D01*
X139023796Y-103574505D01*
X139020196Y-103598773D01*
X139014235Y-103622572D01*
X139005970Y-103645671D01*
X138995480Y-103667850D01*
X138982868Y-103688893D01*
X138968253Y-103708599D01*
X138951777Y-103726777D01*
X138933599Y-103743253D01*
X138913893Y-103757868D01*
X138892850Y-103770480D01*
X138870671Y-103780970D01*
X138847572Y-103789235D01*
X138823773Y-103795196D01*
X138799505Y-103798796D01*
X138775001Y-103800000D01*
X137474999Y-103800000D01*
X137450495Y-103798796D01*
X137426227Y-103795196D01*
X137402428Y-103789235D01*
X137379329Y-103780970D01*
X137357150Y-103770480D01*
X137336107Y-103757868D01*
X137316401Y-103743253D01*
X137298223Y-103726777D01*
X137281747Y-103708599D01*
X137267132Y-103688893D01*
X137254520Y-103667850D01*
X137244030Y-103645671D01*
X137235765Y-103622572D01*
X137229804Y-103598773D01*
X137226204Y-103574505D01*
X137225000Y-103550001D01*
X137225000Y-102849999D01*
X137226204Y-102825495D01*
X137229804Y-102801227D01*
X137235765Y-102777428D01*
X137244030Y-102754329D01*
X137254520Y-102732150D01*
X137267132Y-102711107D01*
X137281747Y-102691401D01*
X137298223Y-102673223D01*
X137316401Y-102656747D01*
X137336107Y-102642132D01*
X137357150Y-102629520D01*
X137379329Y-102619030D01*
X137402428Y-102610765D01*
X137426227Y-102604804D01*
X137450495Y-102601204D01*
X137474999Y-102600000D01*
X138775001Y-102600000D01*
X138799505Y-102601204D01*
G37*
G04 #@! TD.AperFunction*
G04 #@! TA.AperFunction,SMDPad,CuDef*
G36*
X138799505Y-114201204D02*
G01*
X138823773Y-114204804D01*
X138847572Y-114210765D01*
X138870671Y-114219030D01*
X138892850Y-114229520D01*
X138913893Y-114242132D01*
X138933599Y-114256747D01*
X138951777Y-114273223D01*
X138968253Y-114291401D01*
X138982868Y-114311107D01*
X138995480Y-114332150D01*
X139005970Y-114354329D01*
X139014235Y-114377428D01*
X139020196Y-114401227D01*
X139023796Y-114425495D01*
X139025000Y-114449999D01*
X139025000Y-115150001D01*
X139023796Y-115174505D01*
X139020196Y-115198773D01*
X139014235Y-115222572D01*
X139005970Y-115245671D01*
X138995480Y-115267850D01*
X138982868Y-115288893D01*
X138968253Y-115308599D01*
X138951777Y-115326777D01*
X138933599Y-115343253D01*
X138913893Y-115357868D01*
X138892850Y-115370480D01*
X138870671Y-115380970D01*
X138847572Y-115389235D01*
X138823773Y-115395196D01*
X138799505Y-115398796D01*
X138775001Y-115400000D01*
X137474999Y-115400000D01*
X137450495Y-115398796D01*
X137426227Y-115395196D01*
X137402428Y-115389235D01*
X137379329Y-115380970D01*
X137357150Y-115370480D01*
X137336107Y-115357868D01*
X137316401Y-115343253D01*
X137298223Y-115326777D01*
X137281747Y-115308599D01*
X137267132Y-115288893D01*
X137254520Y-115267850D01*
X137244030Y-115245671D01*
X137235765Y-115222572D01*
X137229804Y-115198773D01*
X137226204Y-115174505D01*
X137225000Y-115150001D01*
X137225000Y-114449999D01*
X137226204Y-114425495D01*
X137229804Y-114401227D01*
X137235765Y-114377428D01*
X137244030Y-114354329D01*
X137254520Y-114332150D01*
X137267132Y-114311107D01*
X137281747Y-114291401D01*
X137298223Y-114273223D01*
X137316401Y-114256747D01*
X137336107Y-114242132D01*
X137357150Y-114229520D01*
X137379329Y-114219030D01*
X137402428Y-114210765D01*
X137426227Y-114204804D01*
X137450495Y-114201204D01*
X137474999Y-114200000D01*
X138775001Y-114200000D01*
X138799505Y-114201204D01*
G37*
G04 #@! TD.AperFunction*
G04 #@! TA.AperFunction,SMDPad,CuDef*
G36*
X142639703Y-104200722D02*
G01*
X142654264Y-104202882D01*
X142668543Y-104206459D01*
X142682403Y-104211418D01*
X142695710Y-104217712D01*
X142708336Y-104225280D01*
X142720159Y-104234048D01*
X142731066Y-104243934D01*
X142740952Y-104254841D01*
X142749720Y-104266664D01*
X142757288Y-104279290D01*
X142763582Y-104292597D01*
X142768541Y-104306457D01*
X142772118Y-104320736D01*
X142774278Y-104335297D01*
X142775000Y-104350000D01*
X142775000Y-104650000D01*
X142774278Y-104664703D01*
X142772118Y-104679264D01*
X142768541Y-104693543D01*
X142763582Y-104707403D01*
X142757288Y-104720710D01*
X142749720Y-104733336D01*
X142740952Y-104745159D01*
X142731066Y-104756066D01*
X142720159Y-104765952D01*
X142708336Y-104774720D01*
X142695710Y-104782288D01*
X142682403Y-104788582D01*
X142668543Y-104793541D01*
X142654264Y-104797118D01*
X142639703Y-104799278D01*
X142625000Y-104800000D01*
X141375000Y-104800000D01*
X141360297Y-104799278D01*
X141345736Y-104797118D01*
X141331457Y-104793541D01*
X141317597Y-104788582D01*
X141304290Y-104782288D01*
X141291664Y-104774720D01*
X141279841Y-104765952D01*
X141268934Y-104756066D01*
X141259048Y-104745159D01*
X141250280Y-104733336D01*
X141242712Y-104720710D01*
X141236418Y-104707403D01*
X141231459Y-104693543D01*
X141227882Y-104679264D01*
X141225722Y-104664703D01*
X141225000Y-104650000D01*
X141225000Y-104350000D01*
X141225722Y-104335297D01*
X141227882Y-104320736D01*
X141231459Y-104306457D01*
X141236418Y-104292597D01*
X141242712Y-104279290D01*
X141250280Y-104266664D01*
X141259048Y-104254841D01*
X141268934Y-104243934D01*
X141279841Y-104234048D01*
X141291664Y-104225280D01*
X141304290Y-104217712D01*
X141317597Y-104211418D01*
X141331457Y-104206459D01*
X141345736Y-104202882D01*
X141360297Y-104200722D01*
X141375000Y-104200000D01*
X142625000Y-104200000D01*
X142639703Y-104200722D01*
G37*
G04 #@! TD.AperFunction*
G04 #@! TA.AperFunction,SMDPad,CuDef*
G36*
X142639703Y-105200722D02*
G01*
X142654264Y-105202882D01*
X142668543Y-105206459D01*
X142682403Y-105211418D01*
X142695710Y-105217712D01*
X142708336Y-105225280D01*
X142720159Y-105234048D01*
X142731066Y-105243934D01*
X142740952Y-105254841D01*
X142749720Y-105266664D01*
X142757288Y-105279290D01*
X142763582Y-105292597D01*
X142768541Y-105306457D01*
X142772118Y-105320736D01*
X142774278Y-105335297D01*
X142775000Y-105350000D01*
X142775000Y-105650000D01*
X142774278Y-105664703D01*
X142772118Y-105679264D01*
X142768541Y-105693543D01*
X142763582Y-105707403D01*
X142757288Y-105720710D01*
X142749720Y-105733336D01*
X142740952Y-105745159D01*
X142731066Y-105756066D01*
X142720159Y-105765952D01*
X142708336Y-105774720D01*
X142695710Y-105782288D01*
X142682403Y-105788582D01*
X142668543Y-105793541D01*
X142654264Y-105797118D01*
X142639703Y-105799278D01*
X142625000Y-105800000D01*
X141375000Y-105800000D01*
X141360297Y-105799278D01*
X141345736Y-105797118D01*
X141331457Y-105793541D01*
X141317597Y-105788582D01*
X141304290Y-105782288D01*
X141291664Y-105774720D01*
X141279841Y-105765952D01*
X141268934Y-105756066D01*
X141259048Y-105745159D01*
X141250280Y-105733336D01*
X141242712Y-105720710D01*
X141236418Y-105707403D01*
X141231459Y-105693543D01*
X141227882Y-105679264D01*
X141225722Y-105664703D01*
X141225000Y-105650000D01*
X141225000Y-105350000D01*
X141225722Y-105335297D01*
X141227882Y-105320736D01*
X141231459Y-105306457D01*
X141236418Y-105292597D01*
X141242712Y-105279290D01*
X141250280Y-105266664D01*
X141259048Y-105254841D01*
X141268934Y-105243934D01*
X141279841Y-105234048D01*
X141291664Y-105225280D01*
X141304290Y-105217712D01*
X141317597Y-105211418D01*
X141331457Y-105206459D01*
X141345736Y-105202882D01*
X141360297Y-105200722D01*
X141375000Y-105200000D01*
X142625000Y-105200000D01*
X142639703Y-105200722D01*
G37*
G04 #@! TD.AperFunction*
G04 #@! TA.AperFunction,SMDPad,CuDef*
G36*
X142639703Y-106200722D02*
G01*
X142654264Y-106202882D01*
X142668543Y-106206459D01*
X142682403Y-106211418D01*
X142695710Y-106217712D01*
X142708336Y-106225280D01*
X142720159Y-106234048D01*
X142731066Y-106243934D01*
X142740952Y-106254841D01*
X142749720Y-106266664D01*
X142757288Y-106279290D01*
X142763582Y-106292597D01*
X142768541Y-106306457D01*
X142772118Y-106320736D01*
X142774278Y-106335297D01*
X142775000Y-106350000D01*
X142775000Y-106650000D01*
X142774278Y-106664703D01*
X142772118Y-106679264D01*
X142768541Y-106693543D01*
X142763582Y-106707403D01*
X142757288Y-106720710D01*
X142749720Y-106733336D01*
X142740952Y-106745159D01*
X142731066Y-106756066D01*
X142720159Y-106765952D01*
X142708336Y-106774720D01*
X142695710Y-106782288D01*
X142682403Y-106788582D01*
X142668543Y-106793541D01*
X142654264Y-106797118D01*
X142639703Y-106799278D01*
X142625000Y-106800000D01*
X141375000Y-106800000D01*
X141360297Y-106799278D01*
X141345736Y-106797118D01*
X141331457Y-106793541D01*
X141317597Y-106788582D01*
X141304290Y-106782288D01*
X141291664Y-106774720D01*
X141279841Y-106765952D01*
X141268934Y-106756066D01*
X141259048Y-106745159D01*
X141250280Y-106733336D01*
X141242712Y-106720710D01*
X141236418Y-106707403D01*
X141231459Y-106693543D01*
X141227882Y-106679264D01*
X141225722Y-106664703D01*
X141225000Y-106650000D01*
X141225000Y-106350000D01*
X141225722Y-106335297D01*
X141227882Y-106320736D01*
X141231459Y-106306457D01*
X141236418Y-106292597D01*
X141242712Y-106279290D01*
X141250280Y-106266664D01*
X141259048Y-106254841D01*
X141268934Y-106243934D01*
X141279841Y-106234048D01*
X141291664Y-106225280D01*
X141304290Y-106217712D01*
X141317597Y-106211418D01*
X141331457Y-106206459D01*
X141345736Y-106202882D01*
X141360297Y-106200722D01*
X141375000Y-106200000D01*
X142625000Y-106200000D01*
X142639703Y-106200722D01*
G37*
G04 #@! TD.AperFunction*
G04 #@! TA.AperFunction,SMDPad,CuDef*
G36*
X142639703Y-107200722D02*
G01*
X142654264Y-107202882D01*
X142668543Y-107206459D01*
X142682403Y-107211418D01*
X142695710Y-107217712D01*
X142708336Y-107225280D01*
X142720159Y-107234048D01*
X142731066Y-107243934D01*
X142740952Y-107254841D01*
X142749720Y-107266664D01*
X142757288Y-107279290D01*
X142763582Y-107292597D01*
X142768541Y-107306457D01*
X142772118Y-107320736D01*
X142774278Y-107335297D01*
X142775000Y-107350000D01*
X142775000Y-107650000D01*
X142774278Y-107664703D01*
X142772118Y-107679264D01*
X142768541Y-107693543D01*
X142763582Y-107707403D01*
X142757288Y-107720710D01*
X142749720Y-107733336D01*
X142740952Y-107745159D01*
X142731066Y-107756066D01*
X142720159Y-107765952D01*
X142708336Y-107774720D01*
X142695710Y-107782288D01*
X142682403Y-107788582D01*
X142668543Y-107793541D01*
X142654264Y-107797118D01*
X142639703Y-107799278D01*
X142625000Y-107800000D01*
X141375000Y-107800000D01*
X141360297Y-107799278D01*
X141345736Y-107797118D01*
X141331457Y-107793541D01*
X141317597Y-107788582D01*
X141304290Y-107782288D01*
X141291664Y-107774720D01*
X141279841Y-107765952D01*
X141268934Y-107756066D01*
X141259048Y-107745159D01*
X141250280Y-107733336D01*
X141242712Y-107720710D01*
X141236418Y-107707403D01*
X141231459Y-107693543D01*
X141227882Y-107679264D01*
X141225722Y-107664703D01*
X141225000Y-107650000D01*
X141225000Y-107350000D01*
X141225722Y-107335297D01*
X141227882Y-107320736D01*
X141231459Y-107306457D01*
X141236418Y-107292597D01*
X141242712Y-107279290D01*
X141250280Y-107266664D01*
X141259048Y-107254841D01*
X141268934Y-107243934D01*
X141279841Y-107234048D01*
X141291664Y-107225280D01*
X141304290Y-107217712D01*
X141317597Y-107211418D01*
X141331457Y-107206459D01*
X141345736Y-107202882D01*
X141360297Y-107200722D01*
X141375000Y-107200000D01*
X142625000Y-107200000D01*
X142639703Y-107200722D01*
G37*
G04 #@! TD.AperFunction*
G04 #@! TA.AperFunction,SMDPad,CuDef*
G36*
X142639703Y-108200722D02*
G01*
X142654264Y-108202882D01*
X142668543Y-108206459D01*
X142682403Y-108211418D01*
X142695710Y-108217712D01*
X142708336Y-108225280D01*
X142720159Y-108234048D01*
X142731066Y-108243934D01*
X142740952Y-108254841D01*
X142749720Y-108266664D01*
X142757288Y-108279290D01*
X142763582Y-108292597D01*
X142768541Y-108306457D01*
X142772118Y-108320736D01*
X142774278Y-108335297D01*
X142775000Y-108350000D01*
X142775000Y-108650000D01*
X142774278Y-108664703D01*
X142772118Y-108679264D01*
X142768541Y-108693543D01*
X142763582Y-108707403D01*
X142757288Y-108720710D01*
X142749720Y-108733336D01*
X142740952Y-108745159D01*
X142731066Y-108756066D01*
X142720159Y-108765952D01*
X142708336Y-108774720D01*
X142695710Y-108782288D01*
X142682403Y-108788582D01*
X142668543Y-108793541D01*
X142654264Y-108797118D01*
X142639703Y-108799278D01*
X142625000Y-108800000D01*
X141375000Y-108800000D01*
X141360297Y-108799278D01*
X141345736Y-108797118D01*
X141331457Y-108793541D01*
X141317597Y-108788582D01*
X141304290Y-108782288D01*
X141291664Y-108774720D01*
X141279841Y-108765952D01*
X141268934Y-108756066D01*
X141259048Y-108745159D01*
X141250280Y-108733336D01*
X141242712Y-108720710D01*
X141236418Y-108707403D01*
X141231459Y-108693543D01*
X141227882Y-108679264D01*
X141225722Y-108664703D01*
X141225000Y-108650000D01*
X141225000Y-108350000D01*
X141225722Y-108335297D01*
X141227882Y-108320736D01*
X141231459Y-108306457D01*
X141236418Y-108292597D01*
X141242712Y-108279290D01*
X141250280Y-108266664D01*
X141259048Y-108254841D01*
X141268934Y-108243934D01*
X141279841Y-108234048D01*
X141291664Y-108225280D01*
X141304290Y-108217712D01*
X141317597Y-108211418D01*
X141331457Y-108206459D01*
X141345736Y-108202882D01*
X141360297Y-108200722D01*
X141375000Y-108200000D01*
X142625000Y-108200000D01*
X142639703Y-108200722D01*
G37*
G04 #@! TD.AperFunction*
G04 #@! TA.AperFunction,SMDPad,CuDef*
G36*
X142639703Y-109200722D02*
G01*
X142654264Y-109202882D01*
X142668543Y-109206459D01*
X142682403Y-109211418D01*
X142695710Y-109217712D01*
X142708336Y-109225280D01*
X142720159Y-109234048D01*
X142731066Y-109243934D01*
X142740952Y-109254841D01*
X142749720Y-109266664D01*
X142757288Y-109279290D01*
X142763582Y-109292597D01*
X142768541Y-109306457D01*
X142772118Y-109320736D01*
X142774278Y-109335297D01*
X142775000Y-109350000D01*
X142775000Y-109650000D01*
X142774278Y-109664703D01*
X142772118Y-109679264D01*
X142768541Y-109693543D01*
X142763582Y-109707403D01*
X142757288Y-109720710D01*
X142749720Y-109733336D01*
X142740952Y-109745159D01*
X142731066Y-109756066D01*
X142720159Y-109765952D01*
X142708336Y-109774720D01*
X142695710Y-109782288D01*
X142682403Y-109788582D01*
X142668543Y-109793541D01*
X142654264Y-109797118D01*
X142639703Y-109799278D01*
X142625000Y-109800000D01*
X141375000Y-109800000D01*
X141360297Y-109799278D01*
X141345736Y-109797118D01*
X141331457Y-109793541D01*
X141317597Y-109788582D01*
X141304290Y-109782288D01*
X141291664Y-109774720D01*
X141279841Y-109765952D01*
X141268934Y-109756066D01*
X141259048Y-109745159D01*
X141250280Y-109733336D01*
X141242712Y-109720710D01*
X141236418Y-109707403D01*
X141231459Y-109693543D01*
X141227882Y-109679264D01*
X141225722Y-109664703D01*
X141225000Y-109650000D01*
X141225000Y-109350000D01*
X141225722Y-109335297D01*
X141227882Y-109320736D01*
X141231459Y-109306457D01*
X141236418Y-109292597D01*
X141242712Y-109279290D01*
X141250280Y-109266664D01*
X141259048Y-109254841D01*
X141268934Y-109243934D01*
X141279841Y-109234048D01*
X141291664Y-109225280D01*
X141304290Y-109217712D01*
X141317597Y-109211418D01*
X141331457Y-109206459D01*
X141345736Y-109202882D01*
X141360297Y-109200722D01*
X141375000Y-109200000D01*
X142625000Y-109200000D01*
X142639703Y-109200722D01*
G37*
G04 #@! TD.AperFunction*
G04 #@! TA.AperFunction,SMDPad,CuDef*
G36*
X142639703Y-110200722D02*
G01*
X142654264Y-110202882D01*
X142668543Y-110206459D01*
X142682403Y-110211418D01*
X142695710Y-110217712D01*
X142708336Y-110225280D01*
X142720159Y-110234048D01*
X142731066Y-110243934D01*
X142740952Y-110254841D01*
X142749720Y-110266664D01*
X142757288Y-110279290D01*
X142763582Y-110292597D01*
X142768541Y-110306457D01*
X142772118Y-110320736D01*
X142774278Y-110335297D01*
X142775000Y-110350000D01*
X142775000Y-110650000D01*
X142774278Y-110664703D01*
X142772118Y-110679264D01*
X142768541Y-110693543D01*
X142763582Y-110707403D01*
X142757288Y-110720710D01*
X142749720Y-110733336D01*
X142740952Y-110745159D01*
X142731066Y-110756066D01*
X142720159Y-110765952D01*
X142708336Y-110774720D01*
X142695710Y-110782288D01*
X142682403Y-110788582D01*
X142668543Y-110793541D01*
X142654264Y-110797118D01*
X142639703Y-110799278D01*
X142625000Y-110800000D01*
X141375000Y-110800000D01*
X141360297Y-110799278D01*
X141345736Y-110797118D01*
X141331457Y-110793541D01*
X141317597Y-110788582D01*
X141304290Y-110782288D01*
X141291664Y-110774720D01*
X141279841Y-110765952D01*
X141268934Y-110756066D01*
X141259048Y-110745159D01*
X141250280Y-110733336D01*
X141242712Y-110720710D01*
X141236418Y-110707403D01*
X141231459Y-110693543D01*
X141227882Y-110679264D01*
X141225722Y-110664703D01*
X141225000Y-110650000D01*
X141225000Y-110350000D01*
X141225722Y-110335297D01*
X141227882Y-110320736D01*
X141231459Y-110306457D01*
X141236418Y-110292597D01*
X141242712Y-110279290D01*
X141250280Y-110266664D01*
X141259048Y-110254841D01*
X141268934Y-110243934D01*
X141279841Y-110234048D01*
X141291664Y-110225280D01*
X141304290Y-110217712D01*
X141317597Y-110211418D01*
X141331457Y-110206459D01*
X141345736Y-110202882D01*
X141360297Y-110200722D01*
X141375000Y-110200000D01*
X142625000Y-110200000D01*
X142639703Y-110200722D01*
G37*
G04 #@! TD.AperFunction*
G04 #@! TA.AperFunction,SMDPad,CuDef*
G36*
X142639703Y-111200722D02*
G01*
X142654264Y-111202882D01*
X142668543Y-111206459D01*
X142682403Y-111211418D01*
X142695710Y-111217712D01*
X142708336Y-111225280D01*
X142720159Y-111234048D01*
X142731066Y-111243934D01*
X142740952Y-111254841D01*
X142749720Y-111266664D01*
X142757288Y-111279290D01*
X142763582Y-111292597D01*
X142768541Y-111306457D01*
X142772118Y-111320736D01*
X142774278Y-111335297D01*
X142775000Y-111350000D01*
X142775000Y-111650000D01*
X142774278Y-111664703D01*
X142772118Y-111679264D01*
X142768541Y-111693543D01*
X142763582Y-111707403D01*
X142757288Y-111720710D01*
X142749720Y-111733336D01*
X142740952Y-111745159D01*
X142731066Y-111756066D01*
X142720159Y-111765952D01*
X142708336Y-111774720D01*
X142695710Y-111782288D01*
X142682403Y-111788582D01*
X142668543Y-111793541D01*
X142654264Y-111797118D01*
X142639703Y-111799278D01*
X142625000Y-111800000D01*
X141375000Y-111800000D01*
X141360297Y-111799278D01*
X141345736Y-111797118D01*
X141331457Y-111793541D01*
X141317597Y-111788582D01*
X141304290Y-111782288D01*
X141291664Y-111774720D01*
X141279841Y-111765952D01*
X141268934Y-111756066D01*
X141259048Y-111745159D01*
X141250280Y-111733336D01*
X141242712Y-111720710D01*
X141236418Y-111707403D01*
X141231459Y-111693543D01*
X141227882Y-111679264D01*
X141225722Y-111664703D01*
X141225000Y-111650000D01*
X141225000Y-111350000D01*
X141225722Y-111335297D01*
X141227882Y-111320736D01*
X141231459Y-111306457D01*
X141236418Y-111292597D01*
X141242712Y-111279290D01*
X141250280Y-111266664D01*
X141259048Y-111254841D01*
X141268934Y-111243934D01*
X141279841Y-111234048D01*
X141291664Y-111225280D01*
X141304290Y-111217712D01*
X141317597Y-111211418D01*
X141331457Y-111206459D01*
X141345736Y-111202882D01*
X141360297Y-111200722D01*
X141375000Y-111200000D01*
X142625000Y-111200000D01*
X142639703Y-111200722D01*
G37*
G04 #@! TD.AperFunction*
G04 #@! TA.AperFunction,SMDPad,CuDef*
G36*
X142639703Y-112200722D02*
G01*
X142654264Y-112202882D01*
X142668543Y-112206459D01*
X142682403Y-112211418D01*
X142695710Y-112217712D01*
X142708336Y-112225280D01*
X142720159Y-112234048D01*
X142731066Y-112243934D01*
X142740952Y-112254841D01*
X142749720Y-112266664D01*
X142757288Y-112279290D01*
X142763582Y-112292597D01*
X142768541Y-112306457D01*
X142772118Y-112320736D01*
X142774278Y-112335297D01*
X142775000Y-112350000D01*
X142775000Y-112650000D01*
X142774278Y-112664703D01*
X142772118Y-112679264D01*
X142768541Y-112693543D01*
X142763582Y-112707403D01*
X142757288Y-112720710D01*
X142749720Y-112733336D01*
X142740952Y-112745159D01*
X142731066Y-112756066D01*
X142720159Y-112765952D01*
X142708336Y-112774720D01*
X142695710Y-112782288D01*
X142682403Y-112788582D01*
X142668543Y-112793541D01*
X142654264Y-112797118D01*
X142639703Y-112799278D01*
X142625000Y-112800000D01*
X141375000Y-112800000D01*
X141360297Y-112799278D01*
X141345736Y-112797118D01*
X141331457Y-112793541D01*
X141317597Y-112788582D01*
X141304290Y-112782288D01*
X141291664Y-112774720D01*
X141279841Y-112765952D01*
X141268934Y-112756066D01*
X141259048Y-112745159D01*
X141250280Y-112733336D01*
X141242712Y-112720710D01*
X141236418Y-112707403D01*
X141231459Y-112693543D01*
X141227882Y-112679264D01*
X141225722Y-112664703D01*
X141225000Y-112650000D01*
X141225000Y-112350000D01*
X141225722Y-112335297D01*
X141227882Y-112320736D01*
X141231459Y-112306457D01*
X141236418Y-112292597D01*
X141242712Y-112279290D01*
X141250280Y-112266664D01*
X141259048Y-112254841D01*
X141268934Y-112243934D01*
X141279841Y-112234048D01*
X141291664Y-112225280D01*
X141304290Y-112217712D01*
X141317597Y-112211418D01*
X141331457Y-112206459D01*
X141345736Y-112202882D01*
X141360297Y-112200722D01*
X141375000Y-112200000D01*
X142625000Y-112200000D01*
X142639703Y-112200722D01*
G37*
G04 #@! TD.AperFunction*
G04 #@! TA.AperFunction,SMDPad,CuDef*
G36*
X142639703Y-113200722D02*
G01*
X142654264Y-113202882D01*
X142668543Y-113206459D01*
X142682403Y-113211418D01*
X142695710Y-113217712D01*
X142708336Y-113225280D01*
X142720159Y-113234048D01*
X142731066Y-113243934D01*
X142740952Y-113254841D01*
X142749720Y-113266664D01*
X142757288Y-113279290D01*
X142763582Y-113292597D01*
X142768541Y-113306457D01*
X142772118Y-113320736D01*
X142774278Y-113335297D01*
X142775000Y-113350000D01*
X142775000Y-113650000D01*
X142774278Y-113664703D01*
X142772118Y-113679264D01*
X142768541Y-113693543D01*
X142763582Y-113707403D01*
X142757288Y-113720710D01*
X142749720Y-113733336D01*
X142740952Y-113745159D01*
X142731066Y-113756066D01*
X142720159Y-113765952D01*
X142708336Y-113774720D01*
X142695710Y-113782288D01*
X142682403Y-113788582D01*
X142668543Y-113793541D01*
X142654264Y-113797118D01*
X142639703Y-113799278D01*
X142625000Y-113800000D01*
X141375000Y-113800000D01*
X141360297Y-113799278D01*
X141345736Y-113797118D01*
X141331457Y-113793541D01*
X141317597Y-113788582D01*
X141304290Y-113782288D01*
X141291664Y-113774720D01*
X141279841Y-113765952D01*
X141268934Y-113756066D01*
X141259048Y-113745159D01*
X141250280Y-113733336D01*
X141242712Y-113720710D01*
X141236418Y-113707403D01*
X141231459Y-113693543D01*
X141227882Y-113679264D01*
X141225722Y-113664703D01*
X141225000Y-113650000D01*
X141225000Y-113350000D01*
X141225722Y-113335297D01*
X141227882Y-113320736D01*
X141231459Y-113306457D01*
X141236418Y-113292597D01*
X141242712Y-113279290D01*
X141250280Y-113266664D01*
X141259048Y-113254841D01*
X141268934Y-113243934D01*
X141279841Y-113234048D01*
X141291664Y-113225280D01*
X141304290Y-113217712D01*
X141317597Y-113211418D01*
X141331457Y-113206459D01*
X141345736Y-113202882D01*
X141360297Y-113200722D01*
X141375000Y-113200000D01*
X142625000Y-113200000D01*
X142639703Y-113200722D01*
G37*
G04 #@! TD.AperFunction*
G04 #@! TA.AperFunction,SMDPad,CuDef*
G36*
X162549505Y-114201204D02*
G01*
X162573773Y-114204804D01*
X162597572Y-114210765D01*
X162620671Y-114219030D01*
X162642850Y-114229520D01*
X162663893Y-114242132D01*
X162683599Y-114256747D01*
X162701777Y-114273223D01*
X162718253Y-114291401D01*
X162732868Y-114311107D01*
X162745480Y-114332150D01*
X162755970Y-114354329D01*
X162764235Y-114377428D01*
X162770196Y-114401227D01*
X162773796Y-114425495D01*
X162775000Y-114449999D01*
X162775000Y-115150001D01*
X162773796Y-115174505D01*
X162770196Y-115198773D01*
X162764235Y-115222572D01*
X162755970Y-115245671D01*
X162745480Y-115267850D01*
X162732868Y-115288893D01*
X162718253Y-115308599D01*
X162701777Y-115326777D01*
X162683599Y-115343253D01*
X162663893Y-115357868D01*
X162642850Y-115370480D01*
X162620671Y-115380970D01*
X162597572Y-115389235D01*
X162573773Y-115395196D01*
X162549505Y-115398796D01*
X162525001Y-115400000D01*
X161224999Y-115400000D01*
X161200495Y-115398796D01*
X161176227Y-115395196D01*
X161152428Y-115389235D01*
X161129329Y-115380970D01*
X161107150Y-115370480D01*
X161086107Y-115357868D01*
X161066401Y-115343253D01*
X161048223Y-115326777D01*
X161031747Y-115308599D01*
X161017132Y-115288893D01*
X161004520Y-115267850D01*
X160994030Y-115245671D01*
X160985765Y-115222572D01*
X160979804Y-115198773D01*
X160976204Y-115174505D01*
X160975000Y-115150001D01*
X160975000Y-114449999D01*
X160976204Y-114425495D01*
X160979804Y-114401227D01*
X160985765Y-114377428D01*
X160994030Y-114354329D01*
X161004520Y-114332150D01*
X161017132Y-114311107D01*
X161031747Y-114291401D01*
X161048223Y-114273223D01*
X161066401Y-114256747D01*
X161086107Y-114242132D01*
X161107150Y-114229520D01*
X161129329Y-114219030D01*
X161152428Y-114210765D01*
X161176227Y-114204804D01*
X161200495Y-114201204D01*
X161224999Y-114200000D01*
X162525001Y-114200000D01*
X162549505Y-114201204D01*
G37*
G04 #@! TD.AperFunction*
G04 #@! TA.AperFunction,SMDPad,CuDef*
G36*
X162549505Y-102601204D02*
G01*
X162573773Y-102604804D01*
X162597572Y-102610765D01*
X162620671Y-102619030D01*
X162642850Y-102629520D01*
X162663893Y-102642132D01*
X162683599Y-102656747D01*
X162701777Y-102673223D01*
X162718253Y-102691401D01*
X162732868Y-102711107D01*
X162745480Y-102732150D01*
X162755970Y-102754329D01*
X162764235Y-102777428D01*
X162770196Y-102801227D01*
X162773796Y-102825495D01*
X162775000Y-102849999D01*
X162775000Y-103550001D01*
X162773796Y-103574505D01*
X162770196Y-103598773D01*
X162764235Y-103622572D01*
X162755970Y-103645671D01*
X162745480Y-103667850D01*
X162732868Y-103688893D01*
X162718253Y-103708599D01*
X162701777Y-103726777D01*
X162683599Y-103743253D01*
X162663893Y-103757868D01*
X162642850Y-103770480D01*
X162620671Y-103780970D01*
X162597572Y-103789235D01*
X162573773Y-103795196D01*
X162549505Y-103798796D01*
X162525001Y-103800000D01*
X161224999Y-103800000D01*
X161200495Y-103798796D01*
X161176227Y-103795196D01*
X161152428Y-103789235D01*
X161129329Y-103780970D01*
X161107150Y-103770480D01*
X161086107Y-103757868D01*
X161066401Y-103743253D01*
X161048223Y-103726777D01*
X161031747Y-103708599D01*
X161017132Y-103688893D01*
X161004520Y-103667850D01*
X160994030Y-103645671D01*
X160985765Y-103622572D01*
X160979804Y-103598773D01*
X160976204Y-103574505D01*
X160975000Y-103550001D01*
X160975000Y-102849999D01*
X160976204Y-102825495D01*
X160979804Y-102801227D01*
X160985765Y-102777428D01*
X160994030Y-102754329D01*
X161004520Y-102732150D01*
X161017132Y-102711107D01*
X161031747Y-102691401D01*
X161048223Y-102673223D01*
X161066401Y-102656747D01*
X161086107Y-102642132D01*
X161107150Y-102629520D01*
X161129329Y-102619030D01*
X161152428Y-102610765D01*
X161176227Y-102604804D01*
X161200495Y-102601204D01*
X161224999Y-102600000D01*
X162525001Y-102600000D01*
X162549505Y-102601204D01*
G37*
G04 #@! TD.AperFunction*
G04 #@! TA.AperFunction,SMDPad,CuDef*
G36*
X158639703Y-113200722D02*
G01*
X158654264Y-113202882D01*
X158668543Y-113206459D01*
X158682403Y-113211418D01*
X158695710Y-113217712D01*
X158708336Y-113225280D01*
X158720159Y-113234048D01*
X158731066Y-113243934D01*
X158740952Y-113254841D01*
X158749720Y-113266664D01*
X158757288Y-113279290D01*
X158763582Y-113292597D01*
X158768541Y-113306457D01*
X158772118Y-113320736D01*
X158774278Y-113335297D01*
X158775000Y-113350000D01*
X158775000Y-113650000D01*
X158774278Y-113664703D01*
X158772118Y-113679264D01*
X158768541Y-113693543D01*
X158763582Y-113707403D01*
X158757288Y-113720710D01*
X158749720Y-113733336D01*
X158740952Y-113745159D01*
X158731066Y-113756066D01*
X158720159Y-113765952D01*
X158708336Y-113774720D01*
X158695710Y-113782288D01*
X158682403Y-113788582D01*
X158668543Y-113793541D01*
X158654264Y-113797118D01*
X158639703Y-113799278D01*
X158625000Y-113800000D01*
X157375000Y-113800000D01*
X157360297Y-113799278D01*
X157345736Y-113797118D01*
X157331457Y-113793541D01*
X157317597Y-113788582D01*
X157304290Y-113782288D01*
X157291664Y-113774720D01*
X157279841Y-113765952D01*
X157268934Y-113756066D01*
X157259048Y-113745159D01*
X157250280Y-113733336D01*
X157242712Y-113720710D01*
X157236418Y-113707403D01*
X157231459Y-113693543D01*
X157227882Y-113679264D01*
X157225722Y-113664703D01*
X157225000Y-113650000D01*
X157225000Y-113350000D01*
X157225722Y-113335297D01*
X157227882Y-113320736D01*
X157231459Y-113306457D01*
X157236418Y-113292597D01*
X157242712Y-113279290D01*
X157250280Y-113266664D01*
X157259048Y-113254841D01*
X157268934Y-113243934D01*
X157279841Y-113234048D01*
X157291664Y-113225280D01*
X157304290Y-113217712D01*
X157317597Y-113211418D01*
X157331457Y-113206459D01*
X157345736Y-113202882D01*
X157360297Y-113200722D01*
X157375000Y-113200000D01*
X158625000Y-113200000D01*
X158639703Y-113200722D01*
G37*
G04 #@! TD.AperFunction*
G04 #@! TA.AperFunction,SMDPad,CuDef*
G36*
X158639703Y-112200722D02*
G01*
X158654264Y-112202882D01*
X158668543Y-112206459D01*
X158682403Y-112211418D01*
X158695710Y-112217712D01*
X158708336Y-112225280D01*
X158720159Y-112234048D01*
X158731066Y-112243934D01*
X158740952Y-112254841D01*
X158749720Y-112266664D01*
X158757288Y-112279290D01*
X158763582Y-112292597D01*
X158768541Y-112306457D01*
X158772118Y-112320736D01*
X158774278Y-112335297D01*
X158775000Y-112350000D01*
X158775000Y-112650000D01*
X158774278Y-112664703D01*
X158772118Y-112679264D01*
X158768541Y-112693543D01*
X158763582Y-112707403D01*
X158757288Y-112720710D01*
X158749720Y-112733336D01*
X158740952Y-112745159D01*
X158731066Y-112756066D01*
X158720159Y-112765952D01*
X158708336Y-112774720D01*
X158695710Y-112782288D01*
X158682403Y-112788582D01*
X158668543Y-112793541D01*
X158654264Y-112797118D01*
X158639703Y-112799278D01*
X158625000Y-112800000D01*
X157375000Y-112800000D01*
X157360297Y-112799278D01*
X157345736Y-112797118D01*
X157331457Y-112793541D01*
X157317597Y-112788582D01*
X157304290Y-112782288D01*
X157291664Y-112774720D01*
X157279841Y-112765952D01*
X157268934Y-112756066D01*
X157259048Y-112745159D01*
X157250280Y-112733336D01*
X157242712Y-112720710D01*
X157236418Y-112707403D01*
X157231459Y-112693543D01*
X157227882Y-112679264D01*
X157225722Y-112664703D01*
X157225000Y-112650000D01*
X157225000Y-112350000D01*
X157225722Y-112335297D01*
X157227882Y-112320736D01*
X157231459Y-112306457D01*
X157236418Y-112292597D01*
X157242712Y-112279290D01*
X157250280Y-112266664D01*
X157259048Y-112254841D01*
X157268934Y-112243934D01*
X157279841Y-112234048D01*
X157291664Y-112225280D01*
X157304290Y-112217712D01*
X157317597Y-112211418D01*
X157331457Y-112206459D01*
X157345736Y-112202882D01*
X157360297Y-112200722D01*
X157375000Y-112200000D01*
X158625000Y-112200000D01*
X158639703Y-112200722D01*
G37*
G04 #@! TD.AperFunction*
G04 #@! TA.AperFunction,SMDPad,CuDef*
G36*
X158639703Y-111200722D02*
G01*
X158654264Y-111202882D01*
X158668543Y-111206459D01*
X158682403Y-111211418D01*
X158695710Y-111217712D01*
X158708336Y-111225280D01*
X158720159Y-111234048D01*
X158731066Y-111243934D01*
X158740952Y-111254841D01*
X158749720Y-111266664D01*
X158757288Y-111279290D01*
X158763582Y-111292597D01*
X158768541Y-111306457D01*
X158772118Y-111320736D01*
X158774278Y-111335297D01*
X158775000Y-111350000D01*
X158775000Y-111650000D01*
X158774278Y-111664703D01*
X158772118Y-111679264D01*
X158768541Y-111693543D01*
X158763582Y-111707403D01*
X158757288Y-111720710D01*
X158749720Y-111733336D01*
X158740952Y-111745159D01*
X158731066Y-111756066D01*
X158720159Y-111765952D01*
X158708336Y-111774720D01*
X158695710Y-111782288D01*
X158682403Y-111788582D01*
X158668543Y-111793541D01*
X158654264Y-111797118D01*
X158639703Y-111799278D01*
X158625000Y-111800000D01*
X157375000Y-111800000D01*
X157360297Y-111799278D01*
X157345736Y-111797118D01*
X157331457Y-111793541D01*
X157317597Y-111788582D01*
X157304290Y-111782288D01*
X157291664Y-111774720D01*
X157279841Y-111765952D01*
X157268934Y-111756066D01*
X157259048Y-111745159D01*
X157250280Y-111733336D01*
X157242712Y-111720710D01*
X157236418Y-111707403D01*
X157231459Y-111693543D01*
X157227882Y-111679264D01*
X157225722Y-111664703D01*
X157225000Y-111650000D01*
X157225000Y-111350000D01*
X157225722Y-111335297D01*
X157227882Y-111320736D01*
X157231459Y-111306457D01*
X157236418Y-111292597D01*
X157242712Y-111279290D01*
X157250280Y-111266664D01*
X157259048Y-111254841D01*
X157268934Y-111243934D01*
X157279841Y-111234048D01*
X157291664Y-111225280D01*
X157304290Y-111217712D01*
X157317597Y-111211418D01*
X157331457Y-111206459D01*
X157345736Y-111202882D01*
X157360297Y-111200722D01*
X157375000Y-111200000D01*
X158625000Y-111200000D01*
X158639703Y-111200722D01*
G37*
G04 #@! TD.AperFunction*
G04 #@! TA.AperFunction,SMDPad,CuDef*
G36*
X158639703Y-110200722D02*
G01*
X158654264Y-110202882D01*
X158668543Y-110206459D01*
X158682403Y-110211418D01*
X158695710Y-110217712D01*
X158708336Y-110225280D01*
X158720159Y-110234048D01*
X158731066Y-110243934D01*
X158740952Y-110254841D01*
X158749720Y-110266664D01*
X158757288Y-110279290D01*
X158763582Y-110292597D01*
X158768541Y-110306457D01*
X158772118Y-110320736D01*
X158774278Y-110335297D01*
X158775000Y-110350000D01*
X158775000Y-110650000D01*
X158774278Y-110664703D01*
X158772118Y-110679264D01*
X158768541Y-110693543D01*
X158763582Y-110707403D01*
X158757288Y-110720710D01*
X158749720Y-110733336D01*
X158740952Y-110745159D01*
X158731066Y-110756066D01*
X158720159Y-110765952D01*
X158708336Y-110774720D01*
X158695710Y-110782288D01*
X158682403Y-110788582D01*
X158668543Y-110793541D01*
X158654264Y-110797118D01*
X158639703Y-110799278D01*
X158625000Y-110800000D01*
X157375000Y-110800000D01*
X157360297Y-110799278D01*
X157345736Y-110797118D01*
X157331457Y-110793541D01*
X157317597Y-110788582D01*
X157304290Y-110782288D01*
X157291664Y-110774720D01*
X157279841Y-110765952D01*
X157268934Y-110756066D01*
X157259048Y-110745159D01*
X157250280Y-110733336D01*
X157242712Y-110720710D01*
X157236418Y-110707403D01*
X157231459Y-110693543D01*
X157227882Y-110679264D01*
X157225722Y-110664703D01*
X157225000Y-110650000D01*
X157225000Y-110350000D01*
X157225722Y-110335297D01*
X157227882Y-110320736D01*
X157231459Y-110306457D01*
X157236418Y-110292597D01*
X157242712Y-110279290D01*
X157250280Y-110266664D01*
X157259048Y-110254841D01*
X157268934Y-110243934D01*
X157279841Y-110234048D01*
X157291664Y-110225280D01*
X157304290Y-110217712D01*
X157317597Y-110211418D01*
X157331457Y-110206459D01*
X157345736Y-110202882D01*
X157360297Y-110200722D01*
X157375000Y-110200000D01*
X158625000Y-110200000D01*
X158639703Y-110200722D01*
G37*
G04 #@! TD.AperFunction*
G04 #@! TA.AperFunction,SMDPad,CuDef*
G36*
X158639703Y-109200722D02*
G01*
X158654264Y-109202882D01*
X158668543Y-109206459D01*
X158682403Y-109211418D01*
X158695710Y-109217712D01*
X158708336Y-109225280D01*
X158720159Y-109234048D01*
X158731066Y-109243934D01*
X158740952Y-109254841D01*
X158749720Y-109266664D01*
X158757288Y-109279290D01*
X158763582Y-109292597D01*
X158768541Y-109306457D01*
X158772118Y-109320736D01*
X158774278Y-109335297D01*
X158775000Y-109350000D01*
X158775000Y-109650000D01*
X158774278Y-109664703D01*
X158772118Y-109679264D01*
X158768541Y-109693543D01*
X158763582Y-109707403D01*
X158757288Y-109720710D01*
X158749720Y-109733336D01*
X158740952Y-109745159D01*
X158731066Y-109756066D01*
X158720159Y-109765952D01*
X158708336Y-109774720D01*
X158695710Y-109782288D01*
X158682403Y-109788582D01*
X158668543Y-109793541D01*
X158654264Y-109797118D01*
X158639703Y-109799278D01*
X158625000Y-109800000D01*
X157375000Y-109800000D01*
X157360297Y-109799278D01*
X157345736Y-109797118D01*
X157331457Y-109793541D01*
X157317597Y-109788582D01*
X157304290Y-109782288D01*
X157291664Y-109774720D01*
X157279841Y-109765952D01*
X157268934Y-109756066D01*
X157259048Y-109745159D01*
X157250280Y-109733336D01*
X157242712Y-109720710D01*
X157236418Y-109707403D01*
X157231459Y-109693543D01*
X157227882Y-109679264D01*
X157225722Y-109664703D01*
X157225000Y-109650000D01*
X157225000Y-109350000D01*
X157225722Y-109335297D01*
X157227882Y-109320736D01*
X157231459Y-109306457D01*
X157236418Y-109292597D01*
X157242712Y-109279290D01*
X157250280Y-109266664D01*
X157259048Y-109254841D01*
X157268934Y-109243934D01*
X157279841Y-109234048D01*
X157291664Y-109225280D01*
X157304290Y-109217712D01*
X157317597Y-109211418D01*
X157331457Y-109206459D01*
X157345736Y-109202882D01*
X157360297Y-109200722D01*
X157375000Y-109200000D01*
X158625000Y-109200000D01*
X158639703Y-109200722D01*
G37*
G04 #@! TD.AperFunction*
G04 #@! TA.AperFunction,SMDPad,CuDef*
G36*
X158639703Y-108200722D02*
G01*
X158654264Y-108202882D01*
X158668543Y-108206459D01*
X158682403Y-108211418D01*
X158695710Y-108217712D01*
X158708336Y-108225280D01*
X158720159Y-108234048D01*
X158731066Y-108243934D01*
X158740952Y-108254841D01*
X158749720Y-108266664D01*
X158757288Y-108279290D01*
X158763582Y-108292597D01*
X158768541Y-108306457D01*
X158772118Y-108320736D01*
X158774278Y-108335297D01*
X158775000Y-108350000D01*
X158775000Y-108650000D01*
X158774278Y-108664703D01*
X158772118Y-108679264D01*
X158768541Y-108693543D01*
X158763582Y-108707403D01*
X158757288Y-108720710D01*
X158749720Y-108733336D01*
X158740952Y-108745159D01*
X158731066Y-108756066D01*
X158720159Y-108765952D01*
X158708336Y-108774720D01*
X158695710Y-108782288D01*
X158682403Y-108788582D01*
X158668543Y-108793541D01*
X158654264Y-108797118D01*
X158639703Y-108799278D01*
X158625000Y-108800000D01*
X157375000Y-108800000D01*
X157360297Y-108799278D01*
X157345736Y-108797118D01*
X157331457Y-108793541D01*
X157317597Y-108788582D01*
X157304290Y-108782288D01*
X157291664Y-108774720D01*
X157279841Y-108765952D01*
X157268934Y-108756066D01*
X157259048Y-108745159D01*
X157250280Y-108733336D01*
X157242712Y-108720710D01*
X157236418Y-108707403D01*
X157231459Y-108693543D01*
X157227882Y-108679264D01*
X157225722Y-108664703D01*
X157225000Y-108650000D01*
X157225000Y-108350000D01*
X157225722Y-108335297D01*
X157227882Y-108320736D01*
X157231459Y-108306457D01*
X157236418Y-108292597D01*
X157242712Y-108279290D01*
X157250280Y-108266664D01*
X157259048Y-108254841D01*
X157268934Y-108243934D01*
X157279841Y-108234048D01*
X157291664Y-108225280D01*
X157304290Y-108217712D01*
X157317597Y-108211418D01*
X157331457Y-108206459D01*
X157345736Y-108202882D01*
X157360297Y-108200722D01*
X157375000Y-108200000D01*
X158625000Y-108200000D01*
X158639703Y-108200722D01*
G37*
G04 #@! TD.AperFunction*
G04 #@! TA.AperFunction,SMDPad,CuDef*
G36*
X158639703Y-107200722D02*
G01*
X158654264Y-107202882D01*
X158668543Y-107206459D01*
X158682403Y-107211418D01*
X158695710Y-107217712D01*
X158708336Y-107225280D01*
X158720159Y-107234048D01*
X158731066Y-107243934D01*
X158740952Y-107254841D01*
X158749720Y-107266664D01*
X158757288Y-107279290D01*
X158763582Y-107292597D01*
X158768541Y-107306457D01*
X158772118Y-107320736D01*
X158774278Y-107335297D01*
X158775000Y-107350000D01*
X158775000Y-107650000D01*
X158774278Y-107664703D01*
X158772118Y-107679264D01*
X158768541Y-107693543D01*
X158763582Y-107707403D01*
X158757288Y-107720710D01*
X158749720Y-107733336D01*
X158740952Y-107745159D01*
X158731066Y-107756066D01*
X158720159Y-107765952D01*
X158708336Y-107774720D01*
X158695710Y-107782288D01*
X158682403Y-107788582D01*
X158668543Y-107793541D01*
X158654264Y-107797118D01*
X158639703Y-107799278D01*
X158625000Y-107800000D01*
X157375000Y-107800000D01*
X157360297Y-107799278D01*
X157345736Y-107797118D01*
X157331457Y-107793541D01*
X157317597Y-107788582D01*
X157304290Y-107782288D01*
X157291664Y-107774720D01*
X157279841Y-107765952D01*
X157268934Y-107756066D01*
X157259048Y-107745159D01*
X157250280Y-107733336D01*
X157242712Y-107720710D01*
X157236418Y-107707403D01*
X157231459Y-107693543D01*
X157227882Y-107679264D01*
X157225722Y-107664703D01*
X157225000Y-107650000D01*
X157225000Y-107350000D01*
X157225722Y-107335297D01*
X157227882Y-107320736D01*
X157231459Y-107306457D01*
X157236418Y-107292597D01*
X157242712Y-107279290D01*
X157250280Y-107266664D01*
X157259048Y-107254841D01*
X157268934Y-107243934D01*
X157279841Y-107234048D01*
X157291664Y-107225280D01*
X157304290Y-107217712D01*
X157317597Y-107211418D01*
X157331457Y-107206459D01*
X157345736Y-107202882D01*
X157360297Y-107200722D01*
X157375000Y-107200000D01*
X158625000Y-107200000D01*
X158639703Y-107200722D01*
G37*
G04 #@! TD.AperFunction*
G04 #@! TA.AperFunction,SMDPad,CuDef*
G36*
X158639703Y-106200722D02*
G01*
X158654264Y-106202882D01*
X158668543Y-106206459D01*
X158682403Y-106211418D01*
X158695710Y-106217712D01*
X158708336Y-106225280D01*
X158720159Y-106234048D01*
X158731066Y-106243934D01*
X158740952Y-106254841D01*
X158749720Y-106266664D01*
X158757288Y-106279290D01*
X158763582Y-106292597D01*
X158768541Y-106306457D01*
X158772118Y-106320736D01*
X158774278Y-106335297D01*
X158775000Y-106350000D01*
X158775000Y-106650000D01*
X158774278Y-106664703D01*
X158772118Y-106679264D01*
X158768541Y-106693543D01*
X158763582Y-106707403D01*
X158757288Y-106720710D01*
X158749720Y-106733336D01*
X158740952Y-106745159D01*
X158731066Y-106756066D01*
X158720159Y-106765952D01*
X158708336Y-106774720D01*
X158695710Y-106782288D01*
X158682403Y-106788582D01*
X158668543Y-106793541D01*
X158654264Y-106797118D01*
X158639703Y-106799278D01*
X158625000Y-106800000D01*
X157375000Y-106800000D01*
X157360297Y-106799278D01*
X157345736Y-106797118D01*
X157331457Y-106793541D01*
X157317597Y-106788582D01*
X157304290Y-106782288D01*
X157291664Y-106774720D01*
X157279841Y-106765952D01*
X157268934Y-106756066D01*
X157259048Y-106745159D01*
X157250280Y-106733336D01*
X157242712Y-106720710D01*
X157236418Y-106707403D01*
X157231459Y-106693543D01*
X157227882Y-106679264D01*
X157225722Y-106664703D01*
X157225000Y-106650000D01*
X157225000Y-106350000D01*
X157225722Y-106335297D01*
X157227882Y-106320736D01*
X157231459Y-106306457D01*
X157236418Y-106292597D01*
X157242712Y-106279290D01*
X157250280Y-106266664D01*
X157259048Y-106254841D01*
X157268934Y-106243934D01*
X157279841Y-106234048D01*
X157291664Y-106225280D01*
X157304290Y-106217712D01*
X157317597Y-106211418D01*
X157331457Y-106206459D01*
X157345736Y-106202882D01*
X157360297Y-106200722D01*
X157375000Y-106200000D01*
X158625000Y-106200000D01*
X158639703Y-106200722D01*
G37*
G04 #@! TD.AperFunction*
G04 #@! TA.AperFunction,SMDPad,CuDef*
G36*
X158639703Y-105200722D02*
G01*
X158654264Y-105202882D01*
X158668543Y-105206459D01*
X158682403Y-105211418D01*
X158695710Y-105217712D01*
X158708336Y-105225280D01*
X158720159Y-105234048D01*
X158731066Y-105243934D01*
X158740952Y-105254841D01*
X158749720Y-105266664D01*
X158757288Y-105279290D01*
X158763582Y-105292597D01*
X158768541Y-105306457D01*
X158772118Y-105320736D01*
X158774278Y-105335297D01*
X158775000Y-105350000D01*
X158775000Y-105650000D01*
X158774278Y-105664703D01*
X158772118Y-105679264D01*
X158768541Y-105693543D01*
X158763582Y-105707403D01*
X158757288Y-105720710D01*
X158749720Y-105733336D01*
X158740952Y-105745159D01*
X158731066Y-105756066D01*
X158720159Y-105765952D01*
X158708336Y-105774720D01*
X158695710Y-105782288D01*
X158682403Y-105788582D01*
X158668543Y-105793541D01*
X158654264Y-105797118D01*
X158639703Y-105799278D01*
X158625000Y-105800000D01*
X157375000Y-105800000D01*
X157360297Y-105799278D01*
X157345736Y-105797118D01*
X157331457Y-105793541D01*
X157317597Y-105788582D01*
X157304290Y-105782288D01*
X157291664Y-105774720D01*
X157279841Y-105765952D01*
X157268934Y-105756066D01*
X157259048Y-105745159D01*
X157250280Y-105733336D01*
X157242712Y-105720710D01*
X157236418Y-105707403D01*
X157231459Y-105693543D01*
X157227882Y-105679264D01*
X157225722Y-105664703D01*
X157225000Y-105650000D01*
X157225000Y-105350000D01*
X157225722Y-105335297D01*
X157227882Y-105320736D01*
X157231459Y-105306457D01*
X157236418Y-105292597D01*
X157242712Y-105279290D01*
X157250280Y-105266664D01*
X157259048Y-105254841D01*
X157268934Y-105243934D01*
X157279841Y-105234048D01*
X157291664Y-105225280D01*
X157304290Y-105217712D01*
X157317597Y-105211418D01*
X157331457Y-105206459D01*
X157345736Y-105202882D01*
X157360297Y-105200722D01*
X157375000Y-105200000D01*
X158625000Y-105200000D01*
X158639703Y-105200722D01*
G37*
G04 #@! TD.AperFunction*
G04 #@! TA.AperFunction,SMDPad,CuDef*
G36*
X158639703Y-104200722D02*
G01*
X158654264Y-104202882D01*
X158668543Y-104206459D01*
X158682403Y-104211418D01*
X158695710Y-104217712D01*
X158708336Y-104225280D01*
X158720159Y-104234048D01*
X158731066Y-104243934D01*
X158740952Y-104254841D01*
X158749720Y-104266664D01*
X158757288Y-104279290D01*
X158763582Y-104292597D01*
X158768541Y-104306457D01*
X158772118Y-104320736D01*
X158774278Y-104335297D01*
X158775000Y-104350000D01*
X158775000Y-104650000D01*
X158774278Y-104664703D01*
X158772118Y-104679264D01*
X158768541Y-104693543D01*
X158763582Y-104707403D01*
X158757288Y-104720710D01*
X158749720Y-104733336D01*
X158740952Y-104745159D01*
X158731066Y-104756066D01*
X158720159Y-104765952D01*
X158708336Y-104774720D01*
X158695710Y-104782288D01*
X158682403Y-104788582D01*
X158668543Y-104793541D01*
X158654264Y-104797118D01*
X158639703Y-104799278D01*
X158625000Y-104800000D01*
X157375000Y-104800000D01*
X157360297Y-104799278D01*
X157345736Y-104797118D01*
X157331457Y-104793541D01*
X157317597Y-104788582D01*
X157304290Y-104782288D01*
X157291664Y-104774720D01*
X157279841Y-104765952D01*
X157268934Y-104756066D01*
X157259048Y-104745159D01*
X157250280Y-104733336D01*
X157242712Y-104720710D01*
X157236418Y-104707403D01*
X157231459Y-104693543D01*
X157227882Y-104679264D01*
X157225722Y-104664703D01*
X157225000Y-104650000D01*
X157225000Y-104350000D01*
X157225722Y-104335297D01*
X157227882Y-104320736D01*
X157231459Y-104306457D01*
X157236418Y-104292597D01*
X157242712Y-104279290D01*
X157250280Y-104266664D01*
X157259048Y-104254841D01*
X157268934Y-104243934D01*
X157279841Y-104234048D01*
X157291664Y-104225280D01*
X157304290Y-104217712D01*
X157317597Y-104211418D01*
X157331457Y-104206459D01*
X157345736Y-104202882D01*
X157360297Y-104200722D01*
X157375000Y-104200000D01*
X158625000Y-104200000D01*
X158639703Y-104200722D01*
G37*
G04 #@! TD.AperFunction*
D12*
X144970500Y-112014000D03*
X152400000Y-114000000D03*
X155400000Y-112800000D03*
X149400010Y-115075192D03*
X150000000Y-109000000D03*
X148000000Y-107000000D03*
X152000000Y-107000000D03*
X152000000Y-111000000D03*
X148000000Y-111000000D03*
X153897867Y-104393070D03*
X153525256Y-103700987D03*
X153199130Y-103020043D03*
X152200000Y-102800000D03*
X151422414Y-102615776D03*
X150805010Y-102181201D03*
X150500000Y-101400000D03*
X149600000Y-101400000D03*
X149000000Y-102000000D03*
X148701623Y-102800000D03*
X147891208Y-102755010D03*
X147000000Y-103110021D03*
X147000000Y-103865034D03*
X146547603Y-104547601D03*
X146170769Y-105426494D03*
X153911829Y-105147953D03*
D13*
X155100001Y-113099999D02*
X154500001Y-113099999D01*
X155400000Y-112800000D02*
X155100001Y-113099999D01*
X153600000Y-114000000D02*
X152400000Y-114000000D01*
X154500001Y-113099999D02*
X153600000Y-114000000D01*
X151324808Y-115075192D02*
X149400010Y-115075192D01*
X146338818Y-112014000D02*
X149400010Y-115075192D01*
X144970500Y-112014000D02*
X146338818Y-112014000D01*
X152400000Y-114000000D02*
X151324808Y-115075192D01*
D14*
X154469934Y-108744934D02*
X154469934Y-104765137D01*
X157225000Y-111500000D02*
X154469934Y-108744934D01*
X158000000Y-111500000D02*
X157225000Y-111500000D01*
X154097867Y-104393070D02*
X153897867Y-104393070D01*
X154469934Y-104765137D02*
X154097867Y-104393070D01*
X154824945Y-104535245D02*
X153990687Y-103700987D01*
X154824945Y-108099945D02*
X154824945Y-104535245D01*
X153990687Y-103700987D02*
X153525256Y-103700987D01*
X157225000Y-110500000D02*
X154824945Y-108099945D01*
X158000000Y-110500000D02*
X157225000Y-110500000D01*
X158000000Y-109500000D02*
X157225000Y-109500000D01*
X153811803Y-103020043D02*
X153199130Y-103020043D01*
X155179956Y-104388196D02*
X153811803Y-103020043D01*
X155179956Y-107454956D02*
X155179956Y-104388196D01*
X157225000Y-109500000D02*
X155179956Y-107454956D01*
X155534967Y-104241147D02*
X155534967Y-106809967D01*
X152534967Y-102465033D02*
X153758853Y-102465033D01*
X155534967Y-106809967D02*
X157225000Y-108500000D01*
X152200000Y-102800000D02*
X152534967Y-102465033D01*
X157225000Y-108500000D02*
X158000000Y-108500000D01*
X153758853Y-102465033D02*
X155534967Y-104241147D01*
X151928168Y-102110022D02*
X151422414Y-102615776D01*
X153905902Y-102110022D02*
X151928168Y-102110022D01*
X155889978Y-104094098D02*
X153905902Y-102110022D01*
X155889978Y-106164978D02*
X155889978Y-104094098D01*
X157225000Y-107500000D02*
X155889978Y-106164978D01*
X158000000Y-107500000D02*
X157225000Y-107500000D01*
X151231200Y-101755011D02*
X150805010Y-102181201D01*
X157225000Y-106500000D02*
X156244989Y-105519989D01*
X158000000Y-106500000D02*
X157225000Y-106500000D01*
X154052951Y-101755011D02*
X151231200Y-101755011D01*
X156244989Y-103947049D02*
X154052951Y-101755011D01*
X156244989Y-105519989D02*
X156244989Y-103947049D01*
X150500000Y-101400000D02*
X154200000Y-101400000D01*
X154200000Y-101400000D02*
X156600000Y-103800000D01*
X156600000Y-103800000D02*
X156600000Y-104637500D01*
X156600000Y-104637500D02*
X157462500Y-105500000D01*
X157462500Y-105500000D02*
X158000000Y-105500000D01*
X149600000Y-101400000D02*
X146400000Y-101400000D01*
X146400000Y-101400000D02*
X143400000Y-104400000D01*
X143400000Y-104400000D02*
X143400000Y-104875000D01*
X143400000Y-104875000D02*
X142775000Y-105500000D01*
X142775000Y-105500000D02*
X142000000Y-105500000D01*
X143755011Y-105519989D02*
X142775000Y-106500000D01*
X142775000Y-106500000D02*
X142000000Y-106500000D01*
X146547049Y-101755011D02*
X143755011Y-104547049D01*
X148755011Y-101755011D02*
X146547049Y-101755011D01*
X149000000Y-102000000D02*
X148755011Y-101755011D01*
X143755011Y-104547049D02*
X143755011Y-105519989D01*
X142775000Y-107500000D02*
X142000000Y-107500000D01*
X144110022Y-106164978D02*
X142775000Y-107500000D01*
X144110022Y-104694098D02*
X144110022Y-106164978D01*
X146604120Y-102200000D02*
X144110022Y-104694098D01*
X148701623Y-102800000D02*
X148701623Y-102503149D01*
X148701623Y-102503149D02*
X148398474Y-102200000D01*
X148398474Y-102200000D02*
X146604120Y-102200000D01*
X144465033Y-104841147D02*
X146751169Y-102555011D01*
X146751169Y-102555011D02*
X147266945Y-102555011D01*
X142000000Y-108500000D02*
X142775000Y-108500000D01*
X147266945Y-102555011D02*
X147466944Y-102755010D01*
X142775000Y-108500000D02*
X144465033Y-106809967D01*
X147466944Y-102755010D02*
X147891208Y-102755010D01*
X144465033Y-106809967D02*
X144465033Y-104841147D01*
X142000000Y-109500000D02*
X142775000Y-109500000D01*
X142775000Y-109500000D02*
X144820044Y-107454956D01*
X144820044Y-107454956D02*
X144820044Y-104988196D01*
X146698219Y-103110021D02*
X147000000Y-103110021D01*
X144820044Y-104988196D02*
X146698219Y-103110021D01*
X146445266Y-103865034D02*
X147000000Y-103865034D01*
X145175055Y-108099945D02*
X145175055Y-105135245D01*
X142775000Y-110500000D02*
X145175055Y-108099945D01*
X142000000Y-110500000D02*
X142775000Y-110500000D01*
X145175055Y-105135245D02*
X146445266Y-103865034D01*
X146247604Y-104847600D02*
X146547603Y-104547601D01*
X145964760Y-104847600D02*
X146247604Y-104847600D01*
X142775000Y-111500000D02*
X145530066Y-108744934D01*
X145530066Y-108744934D02*
X145530066Y-105282294D01*
X142000000Y-111500000D02*
X142775000Y-111500000D01*
X145530066Y-105282294D02*
X145964760Y-104847600D01*
X146170769Y-109104231D02*
X146170769Y-105426494D01*
X142775000Y-112500000D02*
X146170769Y-109104231D01*
X142000000Y-112500000D02*
X142775000Y-112500000D01*
X153900000Y-105159782D02*
X153911829Y-105147953D01*
X158000000Y-112500000D02*
X157225000Y-112500000D01*
X153900000Y-109175000D02*
X153900000Y-105159782D01*
X157225000Y-112500000D02*
X153900000Y-109175000D01*
D15*
G36*
X142279034Y-100412664D02*
G01*
X142080726Y-100518662D01*
X141972893Y-100793288D01*
X143000000Y-101820395D01*
X144027107Y-100793288D01*
X143919274Y-100518662D01*
X143690290Y-100406000D01*
X156298607Y-100406000D01*
X156279034Y-100412664D01*
X156080726Y-100518662D01*
X155972893Y-100793288D01*
X157000000Y-101820395D01*
X158027107Y-100793288D01*
X157919274Y-100518662D01*
X157690290Y-100406000D01*
X160831831Y-100406000D01*
X162594001Y-102168172D01*
X162594001Y-102223953D01*
X162525001Y-102217157D01*
X161224999Y-102217157D01*
X161101538Y-102229317D01*
X160982821Y-102265329D01*
X160873411Y-102323810D01*
X160777512Y-102402512D01*
X160698810Y-102498411D01*
X160640329Y-102607821D01*
X160604317Y-102726538D01*
X160592157Y-102849999D01*
X160592157Y-103550001D01*
X160604317Y-103673462D01*
X160640329Y-103792179D01*
X160698810Y-103901589D01*
X160777512Y-103997488D01*
X160873411Y-104076190D01*
X160982821Y-104134671D01*
X161101538Y-104170683D01*
X161224999Y-104182843D01*
X162525001Y-104182843D01*
X162594001Y-104176047D01*
X162594001Y-113823953D01*
X162525001Y-113817157D01*
X161224999Y-113817157D01*
X161101538Y-113829317D01*
X160982821Y-113865329D01*
X160873411Y-113923810D01*
X160777512Y-114002512D01*
X160698810Y-114098411D01*
X160640329Y-114207821D01*
X160604317Y-114326538D01*
X160592157Y-114449999D01*
X160592157Y-115150001D01*
X160604317Y-115273462D01*
X160640329Y-115392179D01*
X160698810Y-115501589D01*
X160777512Y-115597488D01*
X160873411Y-115676190D01*
X160982821Y-115734671D01*
X161101538Y-115770683D01*
X161224999Y-115782843D01*
X162525001Y-115782843D01*
X162594000Y-115776047D01*
X162594000Y-126831830D01*
X159831831Y-129594000D01*
X140168170Y-129594000D01*
X137406000Y-126831831D01*
X137406000Y-122206712D01*
X138972893Y-122206712D01*
X139080726Y-122481338D01*
X139387384Y-122632216D01*
X139717585Y-122720369D01*
X140058639Y-122742409D01*
X140397439Y-122697489D01*
X140720966Y-122587336D01*
X140919274Y-122481338D01*
X141027107Y-122206712D01*
X158972893Y-122206712D01*
X159080726Y-122481338D01*
X159387384Y-122632216D01*
X159717585Y-122720369D01*
X160058639Y-122742409D01*
X160397439Y-122697489D01*
X160720966Y-122587336D01*
X160919274Y-122481338D01*
X161027107Y-122206712D01*
X160000000Y-121179605D01*
X158972893Y-122206712D01*
X141027107Y-122206712D01*
X140000000Y-121179605D01*
X138972893Y-122206712D01*
X137406000Y-122206712D01*
X137406000Y-121058639D01*
X138257591Y-121058639D01*
X138302511Y-121397439D01*
X138412664Y-121720966D01*
X138518662Y-121919274D01*
X138793288Y-122027107D01*
X139820395Y-121000000D01*
X140179605Y-121000000D01*
X141206712Y-122027107D01*
X141481338Y-121919274D01*
X141632216Y-121612616D01*
X141720369Y-121282415D01*
X141734830Y-121058639D01*
X158257591Y-121058639D01*
X158302511Y-121397439D01*
X158412664Y-121720966D01*
X158518662Y-121919274D01*
X158793288Y-122027107D01*
X159820395Y-121000000D01*
X160179605Y-121000000D01*
X161206712Y-122027107D01*
X161481338Y-121919274D01*
X161632216Y-121612616D01*
X161720369Y-121282415D01*
X161742409Y-120941361D01*
X161697489Y-120602561D01*
X161587336Y-120279034D01*
X161481338Y-120080726D01*
X161206712Y-119972893D01*
X160179605Y-121000000D01*
X159820395Y-121000000D01*
X158793288Y-119972893D01*
X158518662Y-120080726D01*
X158367784Y-120387384D01*
X158279631Y-120717585D01*
X158257591Y-121058639D01*
X141734830Y-121058639D01*
X141742409Y-120941361D01*
X141697489Y-120602561D01*
X141587336Y-120279034D01*
X141481338Y-120080726D01*
X141206712Y-119972893D01*
X140179605Y-121000000D01*
X139820395Y-121000000D01*
X138793288Y-119972893D01*
X138518662Y-120080726D01*
X138367784Y-120387384D01*
X138279631Y-120717585D01*
X138257591Y-121058639D01*
X137406000Y-121058639D01*
X137406000Y-119793288D01*
X138972893Y-119793288D01*
X140000000Y-120820395D01*
X141027107Y-119793288D01*
X158972893Y-119793288D01*
X160000000Y-120820395D01*
X161027107Y-119793288D01*
X160919274Y-119518662D01*
X160612616Y-119367784D01*
X160282415Y-119279631D01*
X159941361Y-119257591D01*
X159602561Y-119302511D01*
X159279034Y-119412664D01*
X159080726Y-119518662D01*
X158972893Y-119793288D01*
X141027107Y-119793288D01*
X140919274Y-119518662D01*
X140612616Y-119367784D01*
X140282415Y-119279631D01*
X139941361Y-119257591D01*
X139602561Y-119302511D01*
X139279034Y-119412664D01*
X139080726Y-119518662D01*
X138972893Y-119793288D01*
X137406000Y-119793288D01*
X137406000Y-115776047D01*
X137474999Y-115782843D01*
X138775001Y-115782843D01*
X138898462Y-115770683D01*
X139017179Y-115734671D01*
X139126589Y-115676190D01*
X139222488Y-115597488D01*
X139301190Y-115501589D01*
X139359671Y-115392179D01*
X139395683Y-115273462D01*
X139407843Y-115150001D01*
X139407843Y-114449999D01*
X139395683Y-114326538D01*
X139359671Y-114207821D01*
X139301190Y-114098411D01*
X139222488Y-114002512D01*
X139126589Y-113923810D01*
X139017179Y-113865329D01*
X138898462Y-113829317D01*
X138775001Y-113817157D01*
X137474999Y-113817157D01*
X137406000Y-113823953D01*
X137406000Y-113800000D01*
X140586928Y-113800000D01*
X140599188Y-113924482D01*
X140635498Y-114044180D01*
X140694463Y-114154494D01*
X140773815Y-114251185D01*
X140870506Y-114330537D01*
X140980820Y-114389502D01*
X141100518Y-114425812D01*
X141225000Y-114438072D01*
X141714250Y-114435000D01*
X141873000Y-114276250D01*
X141873000Y-113627000D01*
X142127000Y-113627000D01*
X142127000Y-114276250D01*
X142285750Y-114435000D01*
X142775000Y-114438072D01*
X142899482Y-114425812D01*
X143019180Y-114389502D01*
X143129494Y-114330537D01*
X143226185Y-114251185D01*
X143305537Y-114154494D01*
X143364502Y-114044180D01*
X143400812Y-113924482D01*
X143413072Y-113800000D01*
X143410000Y-113785750D01*
X143251250Y-113627000D01*
X142127000Y-113627000D01*
X141873000Y-113627000D01*
X140748750Y-113627000D01*
X140590000Y-113785750D01*
X140586928Y-113800000D01*
X137406000Y-113800000D01*
X137406000Y-104800000D01*
X140586928Y-104800000D01*
X140599188Y-104924482D01*
X140635498Y-105044180D01*
X140694463Y-105154494D01*
X140773815Y-105251185D01*
X140846050Y-105310467D01*
X140842157Y-105350000D01*
X140842157Y-105650000D01*
X140852395Y-105753953D01*
X140882717Y-105853910D01*
X140931957Y-105946032D01*
X140976248Y-106000000D01*
X140931957Y-106053968D01*
X140882717Y-106146090D01*
X140852395Y-106246047D01*
X140842157Y-106350000D01*
X140842157Y-106650000D01*
X140852395Y-106753953D01*
X140882717Y-106853910D01*
X140931957Y-106946032D01*
X140976248Y-107000000D01*
X140931957Y-107053968D01*
X140882717Y-107146090D01*
X140852395Y-107246047D01*
X140842157Y-107350000D01*
X140842157Y-107650000D01*
X140852395Y-107753953D01*
X140882717Y-107853910D01*
X140931957Y-107946032D01*
X140976248Y-108000000D01*
X140931957Y-108053968D01*
X140882717Y-108146090D01*
X140852395Y-108246047D01*
X140842157Y-108350000D01*
X140842157Y-108650000D01*
X140852395Y-108753953D01*
X140882717Y-108853910D01*
X140931957Y-108946032D01*
X140976248Y-109000000D01*
X140931957Y-109053968D01*
X140882717Y-109146090D01*
X140852395Y-109246047D01*
X140842157Y-109350000D01*
X140842157Y-109650000D01*
X140852395Y-109753953D01*
X140882717Y-109853910D01*
X140931957Y-109946032D01*
X140976248Y-110000000D01*
X140931957Y-110053968D01*
X140882717Y-110146090D01*
X140852395Y-110246047D01*
X140842157Y-110350000D01*
X140842157Y-110650000D01*
X140852395Y-110753953D01*
X140882717Y-110853910D01*
X140931957Y-110946032D01*
X140976248Y-111000000D01*
X140931957Y-111053968D01*
X140882717Y-111146090D01*
X140852395Y-111246047D01*
X140842157Y-111350000D01*
X140842157Y-111650000D01*
X140852395Y-111753953D01*
X140882717Y-111853910D01*
X140931957Y-111946032D01*
X140976248Y-112000000D01*
X140931957Y-112053968D01*
X140882717Y-112146090D01*
X140852395Y-112246047D01*
X140842157Y-112350000D01*
X140842157Y-112650000D01*
X140846050Y-112689533D01*
X140773815Y-112748815D01*
X140694463Y-112845506D01*
X140635498Y-112955820D01*
X140599188Y-113075518D01*
X140586928Y-113200000D01*
X140590000Y-113214250D01*
X140748750Y-113373000D01*
X141873000Y-113373000D01*
X141873000Y-113353000D01*
X142127000Y-113353000D01*
X142127000Y-113373000D01*
X143251250Y-113373000D01*
X143410000Y-113214250D01*
X143413072Y-113200000D01*
X143400812Y-113075518D01*
X143364502Y-112955820D01*
X143305537Y-112845506D01*
X143226185Y-112748815D01*
X143215330Y-112739906D01*
X144008309Y-111946927D01*
X144289500Y-111946927D01*
X144289500Y-112081073D01*
X144315671Y-112212640D01*
X144367006Y-112336574D01*
X144441533Y-112448112D01*
X144536388Y-112542967D01*
X144647926Y-112617494D01*
X144771860Y-112668829D01*
X144903427Y-112695000D01*
X145037573Y-112695000D01*
X145169140Y-112668829D01*
X145293074Y-112617494D01*
X145401569Y-112545000D01*
X146118872Y-112545000D01*
X148719724Y-115145853D01*
X148745181Y-115273832D01*
X148796516Y-115397766D01*
X148871043Y-115509304D01*
X148965898Y-115604159D01*
X149077436Y-115678686D01*
X149201370Y-115730021D01*
X149332937Y-115756192D01*
X149467083Y-115756192D01*
X149598650Y-115730021D01*
X149722584Y-115678686D01*
X149831079Y-115606192D01*
X151298734Y-115606192D01*
X151324808Y-115608760D01*
X151350882Y-115606192D01*
X151350892Y-115606192D01*
X151428902Y-115598509D01*
X151528996Y-115568145D01*
X151621243Y-115518838D01*
X151702098Y-115452482D01*
X151718729Y-115432217D01*
X152470660Y-114680286D01*
X152598640Y-114654829D01*
X152722574Y-114603494D01*
X152831069Y-114531000D01*
X153573926Y-114531000D01*
X153600000Y-114533568D01*
X153626074Y-114531000D01*
X153626084Y-114531000D01*
X153704094Y-114523317D01*
X153804188Y-114492953D01*
X153896435Y-114443646D01*
X153977290Y-114377290D01*
X153993921Y-114357025D01*
X154550947Y-113800000D01*
X156586928Y-113800000D01*
X156599188Y-113924482D01*
X156635498Y-114044180D01*
X156694463Y-114154494D01*
X156773815Y-114251185D01*
X156870506Y-114330537D01*
X156980820Y-114389502D01*
X157100518Y-114425812D01*
X157225000Y-114438072D01*
X157714250Y-114435000D01*
X157873000Y-114276250D01*
X157873000Y-113627000D01*
X158127000Y-113627000D01*
X158127000Y-114276250D01*
X158285750Y-114435000D01*
X158775000Y-114438072D01*
X158899482Y-114425812D01*
X159019180Y-114389502D01*
X159129494Y-114330537D01*
X159226185Y-114251185D01*
X159305537Y-114154494D01*
X159364502Y-114044180D01*
X159400812Y-113924482D01*
X159413072Y-113800000D01*
X159410000Y-113785750D01*
X159251250Y-113627000D01*
X158127000Y-113627000D01*
X157873000Y-113627000D01*
X156748750Y-113627000D01*
X156590000Y-113785750D01*
X156586928Y-113800000D01*
X154550947Y-113800000D01*
X154719949Y-113630999D01*
X155073927Y-113630999D01*
X155100001Y-113633567D01*
X155126075Y-113630999D01*
X155126085Y-113630999D01*
X155204095Y-113623316D01*
X155304189Y-113592952D01*
X155396436Y-113543645D01*
X155474591Y-113479504D01*
X155598640Y-113454829D01*
X155722574Y-113403494D01*
X155834112Y-113328967D01*
X155928967Y-113234112D01*
X156003494Y-113122574D01*
X156054829Y-112998640D01*
X156081000Y-112867073D01*
X156081000Y-112732927D01*
X156054829Y-112601360D01*
X156003494Y-112477426D01*
X155928967Y-112365888D01*
X155834112Y-112271033D01*
X155722574Y-112196506D01*
X155598640Y-112145171D01*
X155467073Y-112119000D01*
X155332927Y-112119000D01*
X155201360Y-112145171D01*
X155077426Y-112196506D01*
X154965888Y-112271033D01*
X154871033Y-112365888D01*
X154796506Y-112477426D01*
X154758575Y-112568999D01*
X154526075Y-112568999D01*
X154500001Y-112566431D01*
X154473927Y-112568999D01*
X154473917Y-112568999D01*
X154395907Y-112576682D01*
X154314557Y-112601360D01*
X154295813Y-112607046D01*
X154203565Y-112656353D01*
X154142971Y-112706081D01*
X154142965Y-112706087D01*
X154122711Y-112722709D01*
X154106088Y-112742964D01*
X153380054Y-113469000D01*
X152831069Y-113469000D01*
X152722574Y-113396506D01*
X152598640Y-113345171D01*
X152467073Y-113319000D01*
X152332927Y-113319000D01*
X152201360Y-113345171D01*
X152077426Y-113396506D01*
X151965888Y-113471033D01*
X151871033Y-113565888D01*
X151796506Y-113677426D01*
X151745171Y-113801360D01*
X151719714Y-113929340D01*
X151104862Y-114544192D01*
X149831079Y-114544192D01*
X149722584Y-114471698D01*
X149598650Y-114420363D01*
X149470671Y-114394906D01*
X146732739Y-111656975D01*
X146716108Y-111636710D01*
X146635253Y-111570354D01*
X146543006Y-111521047D01*
X146442912Y-111490683D01*
X146364902Y-111483000D01*
X146364892Y-111483000D01*
X146338818Y-111480432D01*
X146312744Y-111483000D01*
X145401569Y-111483000D01*
X145293074Y-111410506D01*
X145169140Y-111359171D01*
X145037573Y-111333000D01*
X144903427Y-111333000D01*
X144771860Y-111359171D01*
X144647926Y-111410506D01*
X144536388Y-111485033D01*
X144441533Y-111579888D01*
X144367006Y-111691426D01*
X144315671Y-111815360D01*
X144289500Y-111946927D01*
X144008309Y-111946927D01*
X146494175Y-109461061D01*
X146512533Y-109445995D01*
X146572641Y-109372753D01*
X146603490Y-109315038D01*
X146617305Y-109289193D01*
X146644809Y-109198524D01*
X146654096Y-109104231D01*
X146651769Y-109080605D01*
X146651769Y-105908573D01*
X146699736Y-105860606D01*
X146774263Y-105749068D01*
X146825598Y-105625134D01*
X146851769Y-105493567D01*
X146851769Y-105359421D01*
X146825598Y-105227854D01*
X146804988Y-105178097D01*
X146870177Y-105151095D01*
X146981715Y-105076568D01*
X147076570Y-104981713D01*
X147151097Y-104870175D01*
X147202432Y-104746241D01*
X147228603Y-104614674D01*
X147228603Y-104507452D01*
X147322574Y-104468528D01*
X147434112Y-104394001D01*
X147528967Y-104299146D01*
X147603494Y-104187608D01*
X147654829Y-104063674D01*
X147681000Y-103932107D01*
X147681000Y-103797961D01*
X147654829Y-103666394D01*
X147603494Y-103542460D01*
X147566789Y-103487528D01*
X147603494Y-103432595D01*
X147624584Y-103381679D01*
X147692568Y-103409839D01*
X147824135Y-103436010D01*
X147958281Y-103436010D01*
X148089848Y-103409839D01*
X148213782Y-103358504D01*
X148263696Y-103325152D01*
X148267511Y-103328967D01*
X148379049Y-103403494D01*
X148502983Y-103454829D01*
X148634550Y-103481000D01*
X148768696Y-103481000D01*
X148900263Y-103454829D01*
X149024197Y-103403494D01*
X149135735Y-103328967D01*
X149230590Y-103234112D01*
X149305117Y-103122574D01*
X149356452Y-102998640D01*
X149382623Y-102867073D01*
X149382623Y-102732927D01*
X149356452Y-102601360D01*
X149349801Y-102585302D01*
X149434112Y-102528967D01*
X149528967Y-102434112D01*
X149603494Y-102322574D01*
X149654829Y-102198640D01*
X149678689Y-102078689D01*
X149798640Y-102054829D01*
X149922574Y-102003494D01*
X150034112Y-101928967D01*
X150050000Y-101913079D01*
X150065888Y-101928967D01*
X150149702Y-101984969D01*
X150124010Y-102114128D01*
X150124010Y-102248274D01*
X150150181Y-102379841D01*
X150201516Y-102503775D01*
X150276043Y-102615313D01*
X150370898Y-102710168D01*
X150482436Y-102784695D01*
X150606370Y-102836030D01*
X150737937Y-102862201D01*
X150787378Y-102862201D01*
X150818920Y-102938350D01*
X150893447Y-103049888D01*
X150988302Y-103144743D01*
X151099840Y-103219270D01*
X151223774Y-103270605D01*
X151355341Y-103296776D01*
X151489487Y-103296776D01*
X151621054Y-103270605D01*
X151682199Y-103245278D01*
X151765888Y-103328967D01*
X151877426Y-103403494D01*
X152001360Y-103454829D01*
X152132927Y-103481000D01*
X152267073Y-103481000D01*
X152398640Y-103454829D01*
X152522574Y-103403494D01*
X152601206Y-103350954D01*
X152670163Y-103454155D01*
X152765018Y-103549010D01*
X152849867Y-103605704D01*
X152844256Y-103633914D01*
X152844256Y-103768060D01*
X152870427Y-103899627D01*
X152921762Y-104023561D01*
X152996289Y-104135099D01*
X153091144Y-104229954D01*
X153202682Y-104304481D01*
X153219741Y-104311547D01*
X153216867Y-104325997D01*
X153216867Y-104460143D01*
X153243038Y-104591710D01*
X153294373Y-104715644D01*
X153338015Y-104780959D01*
X153308335Y-104825379D01*
X153257000Y-104949313D01*
X153230829Y-105080880D01*
X153230829Y-105215026D01*
X153257000Y-105346593D01*
X153308335Y-105470527D01*
X153382862Y-105582065D01*
X153419001Y-105618204D01*
X153419000Y-109151374D01*
X153416673Y-109175000D01*
X153425960Y-109269292D01*
X153431997Y-109289192D01*
X153453464Y-109359960D01*
X153498128Y-109443522D01*
X153558236Y-109516764D01*
X153576594Y-109531830D01*
X156784670Y-112739907D01*
X156773815Y-112748815D01*
X156694463Y-112845506D01*
X156635498Y-112955820D01*
X156599188Y-113075518D01*
X156586928Y-113200000D01*
X156590000Y-113214250D01*
X156748750Y-113373000D01*
X157873000Y-113373000D01*
X157873000Y-113353000D01*
X158127000Y-113353000D01*
X158127000Y-113373000D01*
X159251250Y-113373000D01*
X159410000Y-113214250D01*
X159413072Y-113200000D01*
X159400812Y-113075518D01*
X159364502Y-112955820D01*
X159305537Y-112845506D01*
X159226185Y-112748815D01*
X159153950Y-112689533D01*
X159157843Y-112650000D01*
X159157843Y-112350000D01*
X159147605Y-112246047D01*
X159117283Y-112146090D01*
X159068043Y-112053968D01*
X159023752Y-112000000D01*
X159068043Y-111946032D01*
X159117283Y-111853910D01*
X159147605Y-111753953D01*
X159157843Y-111650000D01*
X159157843Y-111350000D01*
X159147605Y-111246047D01*
X159117283Y-111146090D01*
X159068043Y-111053968D01*
X159023752Y-111000000D01*
X159068043Y-110946032D01*
X159117283Y-110853910D01*
X159147605Y-110753953D01*
X159157843Y-110650000D01*
X159157843Y-110350000D01*
X159147605Y-110246047D01*
X159117283Y-110146090D01*
X159068043Y-110053968D01*
X159023752Y-110000000D01*
X159068043Y-109946032D01*
X159117283Y-109853910D01*
X159147605Y-109753953D01*
X159157843Y-109650000D01*
X159157843Y-109350000D01*
X159147605Y-109246047D01*
X159117283Y-109146090D01*
X159068043Y-109053968D01*
X159023752Y-109000000D01*
X159068043Y-108946032D01*
X159117283Y-108853910D01*
X159147605Y-108753953D01*
X159157843Y-108650000D01*
X159157843Y-108350000D01*
X159147605Y-108246047D01*
X159117283Y-108146090D01*
X159068043Y-108053968D01*
X159023752Y-108000000D01*
X159068043Y-107946032D01*
X159117283Y-107853910D01*
X159147605Y-107753953D01*
X159157843Y-107650000D01*
X159157843Y-107350000D01*
X159147605Y-107246047D01*
X159117283Y-107146090D01*
X159068043Y-107053968D01*
X159023752Y-107000000D01*
X159068043Y-106946032D01*
X159117283Y-106853910D01*
X159147605Y-106753953D01*
X159157843Y-106650000D01*
X159157843Y-106350000D01*
X159147605Y-106246047D01*
X159117283Y-106146090D01*
X159068043Y-106053968D01*
X159023752Y-106000000D01*
X159068043Y-105946032D01*
X159117283Y-105853910D01*
X159147605Y-105753953D01*
X159157843Y-105650000D01*
X159157843Y-105350000D01*
X159153950Y-105310467D01*
X159226185Y-105251185D01*
X159305537Y-105154494D01*
X159364502Y-105044180D01*
X159400812Y-104924482D01*
X159413072Y-104800000D01*
X159410000Y-104785750D01*
X159251250Y-104627000D01*
X158127000Y-104627000D01*
X158127000Y-104647000D01*
X157873000Y-104647000D01*
X157873000Y-104627000D01*
X157853000Y-104627000D01*
X157853000Y-104373000D01*
X157873000Y-104373000D01*
X157873000Y-103723750D01*
X158127000Y-103723750D01*
X158127000Y-104373000D01*
X159251250Y-104373000D01*
X159410000Y-104214250D01*
X159413072Y-104200000D01*
X159400812Y-104075518D01*
X159364502Y-103955820D01*
X159305537Y-103845506D01*
X159226185Y-103748815D01*
X159129494Y-103669463D01*
X159019180Y-103610498D01*
X158899482Y-103574188D01*
X158775000Y-103561928D01*
X158285750Y-103565000D01*
X158127000Y-103723750D01*
X157873000Y-103723750D01*
X157731145Y-103581895D01*
X157919274Y-103481338D01*
X158027107Y-103206712D01*
X157000000Y-102179605D01*
X156985858Y-102193748D01*
X156806253Y-102014143D01*
X156820395Y-102000000D01*
X157179605Y-102000000D01*
X158206712Y-103027107D01*
X158481338Y-102919274D01*
X158632216Y-102612616D01*
X158720369Y-102282415D01*
X158742409Y-101941361D01*
X158697489Y-101602561D01*
X158587336Y-101279034D01*
X158481338Y-101080726D01*
X158206712Y-100972893D01*
X157179605Y-102000000D01*
X156820395Y-102000000D01*
X155793288Y-100972893D01*
X155518662Y-101080726D01*
X155367784Y-101387384D01*
X155279631Y-101717585D01*
X155274665Y-101794429D01*
X154556830Y-101076594D01*
X154541764Y-101058236D01*
X154468522Y-100998128D01*
X154384961Y-100953464D01*
X154294292Y-100925960D01*
X154223626Y-100919000D01*
X154200000Y-100916673D01*
X154176374Y-100919000D01*
X150982079Y-100919000D01*
X150934112Y-100871033D01*
X150822574Y-100796506D01*
X150698640Y-100745171D01*
X150567073Y-100719000D01*
X150432927Y-100719000D01*
X150301360Y-100745171D01*
X150177426Y-100796506D01*
X150065888Y-100871033D01*
X150050000Y-100886921D01*
X150034112Y-100871033D01*
X149922574Y-100796506D01*
X149798640Y-100745171D01*
X149667073Y-100719000D01*
X149532927Y-100719000D01*
X149401360Y-100745171D01*
X149277426Y-100796506D01*
X149165888Y-100871033D01*
X149117921Y-100919000D01*
X146423626Y-100919000D01*
X146400000Y-100916673D01*
X146305707Y-100925960D01*
X146215038Y-100953464D01*
X146170374Y-100977338D01*
X146131478Y-100998128D01*
X146058236Y-101058236D01*
X146043175Y-101076588D01*
X144677766Y-102441998D01*
X144720369Y-102282415D01*
X144742409Y-101941361D01*
X144697489Y-101602561D01*
X144587336Y-101279034D01*
X144481338Y-101080726D01*
X144206712Y-100972893D01*
X143179605Y-102000000D01*
X143193748Y-102014143D01*
X143014143Y-102193748D01*
X143000000Y-102179605D01*
X141972893Y-103206712D01*
X142080726Y-103481338D01*
X142274214Y-103576536D01*
X142127000Y-103723750D01*
X142127000Y-104373000D01*
X142147000Y-104373000D01*
X142147000Y-104627000D01*
X142127000Y-104627000D01*
X142127000Y-104647000D01*
X141873000Y-104647000D01*
X141873000Y-104627000D01*
X140748750Y-104627000D01*
X140590000Y-104785750D01*
X140586928Y-104800000D01*
X137406000Y-104800000D01*
X137406000Y-104200000D01*
X140586928Y-104200000D01*
X140590000Y-104214250D01*
X140748750Y-104373000D01*
X141873000Y-104373000D01*
X141873000Y-103723750D01*
X141714250Y-103565000D01*
X141225000Y-103561928D01*
X141100518Y-103574188D01*
X140980820Y-103610498D01*
X140870506Y-103669463D01*
X140773815Y-103748815D01*
X140694463Y-103845506D01*
X140635498Y-103955820D01*
X140599188Y-104075518D01*
X140586928Y-104200000D01*
X137406000Y-104200000D01*
X137406000Y-104176047D01*
X137474999Y-104182843D01*
X138775001Y-104182843D01*
X138898462Y-104170683D01*
X139017179Y-104134671D01*
X139126589Y-104076190D01*
X139222488Y-103997488D01*
X139301190Y-103901589D01*
X139359671Y-103792179D01*
X139395683Y-103673462D01*
X139407843Y-103550001D01*
X139407843Y-102849999D01*
X139395683Y-102726538D01*
X139359671Y-102607821D01*
X139301190Y-102498411D01*
X139222488Y-102402512D01*
X139126589Y-102323810D01*
X139017179Y-102265329D01*
X138898462Y-102229317D01*
X138775001Y-102217157D01*
X137474999Y-102217157D01*
X137406000Y-102223953D01*
X137406000Y-102168169D01*
X137515530Y-102058639D01*
X141257591Y-102058639D01*
X141302511Y-102397439D01*
X141412664Y-102720966D01*
X141518662Y-102919274D01*
X141793288Y-103027107D01*
X142820395Y-102000000D01*
X141793288Y-100972893D01*
X141518662Y-101080726D01*
X141367784Y-101387384D01*
X141279631Y-101717585D01*
X141257591Y-102058639D01*
X137515530Y-102058639D01*
X139168171Y-100406000D01*
X142298607Y-100406000D01*
X142279034Y-100412664D01*
G37*
X142279034Y-100412664D02*
X142080726Y-100518662D01*
X141972893Y-100793288D01*
X143000000Y-101820395D01*
X144027107Y-100793288D01*
X143919274Y-100518662D01*
X143690290Y-100406000D01*
X156298607Y-100406000D01*
X156279034Y-100412664D01*
X156080726Y-100518662D01*
X155972893Y-100793288D01*
X157000000Y-101820395D01*
X158027107Y-100793288D01*
X157919274Y-100518662D01*
X157690290Y-100406000D01*
X160831831Y-100406000D01*
X162594001Y-102168172D01*
X162594001Y-102223953D01*
X162525001Y-102217157D01*
X161224999Y-102217157D01*
X161101538Y-102229317D01*
X160982821Y-102265329D01*
X160873411Y-102323810D01*
X160777512Y-102402512D01*
X160698810Y-102498411D01*
X160640329Y-102607821D01*
X160604317Y-102726538D01*
X160592157Y-102849999D01*
X160592157Y-103550001D01*
X160604317Y-103673462D01*
X160640329Y-103792179D01*
X160698810Y-103901589D01*
X160777512Y-103997488D01*
X160873411Y-104076190D01*
X160982821Y-104134671D01*
X161101538Y-104170683D01*
X161224999Y-104182843D01*
X162525001Y-104182843D01*
X162594001Y-104176047D01*
X162594001Y-113823953D01*
X162525001Y-113817157D01*
X161224999Y-113817157D01*
X161101538Y-113829317D01*
X160982821Y-113865329D01*
X160873411Y-113923810D01*
X160777512Y-114002512D01*
X160698810Y-114098411D01*
X160640329Y-114207821D01*
X160604317Y-114326538D01*
X160592157Y-114449999D01*
X160592157Y-115150001D01*
X160604317Y-115273462D01*
X160640329Y-115392179D01*
X160698810Y-115501589D01*
X160777512Y-115597488D01*
X160873411Y-115676190D01*
X160982821Y-115734671D01*
X161101538Y-115770683D01*
X161224999Y-115782843D01*
X162525001Y-115782843D01*
X162594000Y-115776047D01*
X162594000Y-126831830D01*
X159831831Y-129594000D01*
X140168170Y-129594000D01*
X137406000Y-126831831D01*
X137406000Y-122206712D01*
X138972893Y-122206712D01*
X139080726Y-122481338D01*
X139387384Y-122632216D01*
X139717585Y-122720369D01*
X140058639Y-122742409D01*
X140397439Y-122697489D01*
X140720966Y-122587336D01*
X140919274Y-122481338D01*
X141027107Y-122206712D01*
X158972893Y-122206712D01*
X159080726Y-122481338D01*
X159387384Y-122632216D01*
X159717585Y-122720369D01*
X160058639Y-122742409D01*
X160397439Y-122697489D01*
X160720966Y-122587336D01*
X160919274Y-122481338D01*
X161027107Y-122206712D01*
X160000000Y-121179605D01*
X158972893Y-122206712D01*
X141027107Y-122206712D01*
X140000000Y-121179605D01*
X138972893Y-122206712D01*
X137406000Y-122206712D01*
X137406000Y-121058639D01*
X138257591Y-121058639D01*
X138302511Y-121397439D01*
X138412664Y-121720966D01*
X138518662Y-121919274D01*
X138793288Y-122027107D01*
X139820395Y-121000000D01*
X140179605Y-121000000D01*
X141206712Y-122027107D01*
X141481338Y-121919274D01*
X141632216Y-121612616D01*
X141720369Y-121282415D01*
X141734830Y-121058639D01*
X158257591Y-121058639D01*
X158302511Y-121397439D01*
X158412664Y-121720966D01*
X158518662Y-121919274D01*
X158793288Y-122027107D01*
X159820395Y-121000000D01*
X160179605Y-121000000D01*
X161206712Y-122027107D01*
X161481338Y-121919274D01*
X161632216Y-121612616D01*
X161720369Y-121282415D01*
X161742409Y-120941361D01*
X161697489Y-120602561D01*
X161587336Y-120279034D01*
X161481338Y-120080726D01*
X161206712Y-119972893D01*
X160179605Y-121000000D01*
X159820395Y-121000000D01*
X158793288Y-119972893D01*
X158518662Y-120080726D01*
X158367784Y-120387384D01*
X158279631Y-120717585D01*
X158257591Y-121058639D01*
X141734830Y-121058639D01*
X141742409Y-120941361D01*
X141697489Y-120602561D01*
X141587336Y-120279034D01*
X141481338Y-120080726D01*
X141206712Y-119972893D01*
X140179605Y-121000000D01*
X139820395Y-121000000D01*
X138793288Y-119972893D01*
X138518662Y-120080726D01*
X138367784Y-120387384D01*
X138279631Y-120717585D01*
X138257591Y-121058639D01*
X137406000Y-121058639D01*
X137406000Y-119793288D01*
X138972893Y-119793288D01*
X140000000Y-120820395D01*
X141027107Y-119793288D01*
X158972893Y-119793288D01*
X160000000Y-120820395D01*
X161027107Y-119793288D01*
X160919274Y-119518662D01*
X160612616Y-119367784D01*
X160282415Y-119279631D01*
X159941361Y-119257591D01*
X159602561Y-119302511D01*
X159279034Y-119412664D01*
X159080726Y-119518662D01*
X158972893Y-119793288D01*
X141027107Y-119793288D01*
X140919274Y-119518662D01*
X140612616Y-119367784D01*
X140282415Y-119279631D01*
X139941361Y-119257591D01*
X139602561Y-119302511D01*
X139279034Y-119412664D01*
X139080726Y-119518662D01*
X138972893Y-119793288D01*
X137406000Y-119793288D01*
X137406000Y-115776047D01*
X137474999Y-115782843D01*
X138775001Y-115782843D01*
X138898462Y-115770683D01*
X139017179Y-115734671D01*
X139126589Y-115676190D01*
X139222488Y-115597488D01*
X139301190Y-115501589D01*
X139359671Y-115392179D01*
X139395683Y-115273462D01*
X139407843Y-115150001D01*
X139407843Y-114449999D01*
X139395683Y-114326538D01*
X139359671Y-114207821D01*
X139301190Y-114098411D01*
X139222488Y-114002512D01*
X139126589Y-113923810D01*
X139017179Y-113865329D01*
X138898462Y-113829317D01*
X138775001Y-113817157D01*
X137474999Y-113817157D01*
X137406000Y-113823953D01*
X137406000Y-113800000D01*
X140586928Y-113800000D01*
X140599188Y-113924482D01*
X140635498Y-114044180D01*
X140694463Y-114154494D01*
X140773815Y-114251185D01*
X140870506Y-114330537D01*
X140980820Y-114389502D01*
X141100518Y-114425812D01*
X141225000Y-114438072D01*
X141714250Y-114435000D01*
X141873000Y-114276250D01*
X141873000Y-113627000D01*
X142127000Y-113627000D01*
X142127000Y-114276250D01*
X142285750Y-114435000D01*
X142775000Y-114438072D01*
X142899482Y-114425812D01*
X143019180Y-114389502D01*
X143129494Y-114330537D01*
X143226185Y-114251185D01*
X143305537Y-114154494D01*
X143364502Y-114044180D01*
X143400812Y-113924482D01*
X143413072Y-113800000D01*
X143410000Y-113785750D01*
X143251250Y-113627000D01*
X142127000Y-113627000D01*
X141873000Y-113627000D01*
X140748750Y-113627000D01*
X140590000Y-113785750D01*
X140586928Y-113800000D01*
X137406000Y-113800000D01*
X137406000Y-104800000D01*
X140586928Y-104800000D01*
X140599188Y-104924482D01*
X140635498Y-105044180D01*
X140694463Y-105154494D01*
X140773815Y-105251185D01*
X140846050Y-105310467D01*
X140842157Y-105350000D01*
X140842157Y-105650000D01*
X140852395Y-105753953D01*
X140882717Y-105853910D01*
X140931957Y-105946032D01*
X140976248Y-106000000D01*
X140931957Y-106053968D01*
X140882717Y-106146090D01*
X140852395Y-106246047D01*
X140842157Y-106350000D01*
X140842157Y-106650000D01*
X140852395Y-106753953D01*
X140882717Y-106853910D01*
X140931957Y-106946032D01*
X140976248Y-107000000D01*
X140931957Y-107053968D01*
X140882717Y-107146090D01*
X140852395Y-107246047D01*
X140842157Y-107350000D01*
X140842157Y-107650000D01*
X140852395Y-107753953D01*
X140882717Y-107853910D01*
X140931957Y-107946032D01*
X140976248Y-108000000D01*
X140931957Y-108053968D01*
X140882717Y-108146090D01*
X140852395Y-108246047D01*
X140842157Y-108350000D01*
X140842157Y-108650000D01*
X140852395Y-108753953D01*
X140882717Y-108853910D01*
X140931957Y-108946032D01*
X140976248Y-109000000D01*
X140931957Y-109053968D01*
X140882717Y-109146090D01*
X140852395Y-109246047D01*
X140842157Y-109350000D01*
X140842157Y-109650000D01*
X140852395Y-109753953D01*
X140882717Y-109853910D01*
X140931957Y-109946032D01*
X140976248Y-110000000D01*
X140931957Y-110053968D01*
X140882717Y-110146090D01*
X140852395Y-110246047D01*
X140842157Y-110350000D01*
X140842157Y-110650000D01*
X140852395Y-110753953D01*
X140882717Y-110853910D01*
X140931957Y-110946032D01*
X140976248Y-111000000D01*
X140931957Y-111053968D01*
X140882717Y-111146090D01*
X140852395Y-111246047D01*
X140842157Y-111350000D01*
X140842157Y-111650000D01*
X140852395Y-111753953D01*
X140882717Y-111853910D01*
X140931957Y-111946032D01*
X140976248Y-112000000D01*
X140931957Y-112053968D01*
X140882717Y-112146090D01*
X140852395Y-112246047D01*
X140842157Y-112350000D01*
X140842157Y-112650000D01*
X140846050Y-112689533D01*
X140773815Y-112748815D01*
X140694463Y-112845506D01*
X140635498Y-112955820D01*
X140599188Y-113075518D01*
X140586928Y-113200000D01*
X140590000Y-113214250D01*
X140748750Y-113373000D01*
X141873000Y-113373000D01*
X141873000Y-113353000D01*
X142127000Y-113353000D01*
X142127000Y-113373000D01*
X143251250Y-113373000D01*
X143410000Y-113214250D01*
X143413072Y-113200000D01*
X143400812Y-113075518D01*
X143364502Y-112955820D01*
X143305537Y-112845506D01*
X143226185Y-112748815D01*
X143215330Y-112739906D01*
X144008309Y-111946927D01*
X144289500Y-111946927D01*
X144289500Y-112081073D01*
X144315671Y-112212640D01*
X144367006Y-112336574D01*
X144441533Y-112448112D01*
X144536388Y-112542967D01*
X144647926Y-112617494D01*
X144771860Y-112668829D01*
X144903427Y-112695000D01*
X145037573Y-112695000D01*
X145169140Y-112668829D01*
X145293074Y-112617494D01*
X145401569Y-112545000D01*
X146118872Y-112545000D01*
X148719724Y-115145853D01*
X148745181Y-115273832D01*
X148796516Y-115397766D01*
X148871043Y-115509304D01*
X148965898Y-115604159D01*
X149077436Y-115678686D01*
X149201370Y-115730021D01*
X149332937Y-115756192D01*
X149467083Y-115756192D01*
X149598650Y-115730021D01*
X149722584Y-115678686D01*
X149831079Y-115606192D01*
X151298734Y-115606192D01*
X151324808Y-115608760D01*
X151350882Y-115606192D01*
X151350892Y-115606192D01*
X151428902Y-115598509D01*
X151528996Y-115568145D01*
X151621243Y-115518838D01*
X151702098Y-115452482D01*
X151718729Y-115432217D01*
X152470660Y-114680286D01*
X152598640Y-114654829D01*
X152722574Y-114603494D01*
X152831069Y-114531000D01*
X153573926Y-114531000D01*
X153600000Y-114533568D01*
X153626074Y-114531000D01*
X153626084Y-114531000D01*
X153704094Y-114523317D01*
X153804188Y-114492953D01*
X153896435Y-114443646D01*
X153977290Y-114377290D01*
X153993921Y-114357025D01*
X154550947Y-113800000D01*
X156586928Y-113800000D01*
X156599188Y-113924482D01*
X156635498Y-114044180D01*
X156694463Y-114154494D01*
X156773815Y-114251185D01*
X156870506Y-114330537D01*
X156980820Y-114389502D01*
X157100518Y-114425812D01*
X157225000Y-114438072D01*
X157714250Y-114435000D01*
X157873000Y-114276250D01*
X157873000Y-113627000D01*
X158127000Y-113627000D01*
X158127000Y-114276250D01*
X158285750Y-114435000D01*
X158775000Y-114438072D01*
X158899482Y-114425812D01*
X159019180Y-114389502D01*
X159129494Y-114330537D01*
X159226185Y-114251185D01*
X159305537Y-114154494D01*
X159364502Y-114044180D01*
X159400812Y-113924482D01*
X159413072Y-113800000D01*
X159410000Y-113785750D01*
X159251250Y-113627000D01*
X158127000Y-113627000D01*
X157873000Y-113627000D01*
X156748750Y-113627000D01*
X156590000Y-113785750D01*
X156586928Y-113800000D01*
X154550947Y-113800000D01*
X154719949Y-113630999D01*
X155073927Y-113630999D01*
X155100001Y-113633567D01*
X155126075Y-113630999D01*
X155126085Y-113630999D01*
X155204095Y-113623316D01*
X155304189Y-113592952D01*
X155396436Y-113543645D01*
X155474591Y-113479504D01*
X155598640Y-113454829D01*
X155722574Y-113403494D01*
X155834112Y-113328967D01*
X155928967Y-113234112D01*
X156003494Y-113122574D01*
X156054829Y-112998640D01*
X156081000Y-112867073D01*
X156081000Y-112732927D01*
X156054829Y-112601360D01*
X156003494Y-112477426D01*
X155928967Y-112365888D01*
X155834112Y-112271033D01*
X155722574Y-112196506D01*
X155598640Y-112145171D01*
X155467073Y-112119000D01*
X155332927Y-112119000D01*
X155201360Y-112145171D01*
X155077426Y-112196506D01*
X154965888Y-112271033D01*
X154871033Y-112365888D01*
X154796506Y-112477426D01*
X154758575Y-112568999D01*
X154526075Y-112568999D01*
X154500001Y-112566431D01*
X154473927Y-112568999D01*
X154473917Y-112568999D01*
X154395907Y-112576682D01*
X154314557Y-112601360D01*
X154295813Y-112607046D01*
X154203565Y-112656353D01*
X154142971Y-112706081D01*
X154142965Y-112706087D01*
X154122711Y-112722709D01*
X154106088Y-112742964D01*
X153380054Y-113469000D01*
X152831069Y-113469000D01*
X152722574Y-113396506D01*
X152598640Y-113345171D01*
X152467073Y-113319000D01*
X152332927Y-113319000D01*
X152201360Y-113345171D01*
X152077426Y-113396506D01*
X151965888Y-113471033D01*
X151871033Y-113565888D01*
X151796506Y-113677426D01*
X151745171Y-113801360D01*
X151719714Y-113929340D01*
X151104862Y-114544192D01*
X149831079Y-114544192D01*
X149722584Y-114471698D01*
X149598650Y-114420363D01*
X149470671Y-114394906D01*
X146732739Y-111656975D01*
X146716108Y-111636710D01*
X146635253Y-111570354D01*
X146543006Y-111521047D01*
X146442912Y-111490683D01*
X146364902Y-111483000D01*
X146364892Y-111483000D01*
X146338818Y-111480432D01*
X146312744Y-111483000D01*
X145401569Y-111483000D01*
X145293074Y-111410506D01*
X145169140Y-111359171D01*
X145037573Y-111333000D01*
X144903427Y-111333000D01*
X144771860Y-111359171D01*
X144647926Y-111410506D01*
X144536388Y-111485033D01*
X144441533Y-111579888D01*
X144367006Y-111691426D01*
X144315671Y-111815360D01*
X144289500Y-111946927D01*
X144008309Y-111946927D01*
X146494175Y-109461061D01*
X146512533Y-109445995D01*
X146572641Y-109372753D01*
X146603490Y-109315038D01*
X146617305Y-109289193D01*
X146644809Y-109198524D01*
X146654096Y-109104231D01*
X146651769Y-109080605D01*
X146651769Y-105908573D01*
X146699736Y-105860606D01*
X146774263Y-105749068D01*
X146825598Y-105625134D01*
X146851769Y-105493567D01*
X146851769Y-105359421D01*
X146825598Y-105227854D01*
X146804988Y-105178097D01*
X146870177Y-105151095D01*
X146981715Y-105076568D01*
X147076570Y-104981713D01*
X147151097Y-104870175D01*
X147202432Y-104746241D01*
X147228603Y-104614674D01*
X147228603Y-104507452D01*
X147322574Y-104468528D01*
X147434112Y-104394001D01*
X147528967Y-104299146D01*
X147603494Y-104187608D01*
X147654829Y-104063674D01*
X147681000Y-103932107D01*
X147681000Y-103797961D01*
X147654829Y-103666394D01*
X147603494Y-103542460D01*
X147566789Y-103487528D01*
X147603494Y-103432595D01*
X147624584Y-103381679D01*
X147692568Y-103409839D01*
X147824135Y-103436010D01*
X147958281Y-103436010D01*
X148089848Y-103409839D01*
X148213782Y-103358504D01*
X148263696Y-103325152D01*
X148267511Y-103328967D01*
X148379049Y-103403494D01*
X148502983Y-103454829D01*
X148634550Y-103481000D01*
X148768696Y-103481000D01*
X148900263Y-103454829D01*
X149024197Y-103403494D01*
X149135735Y-103328967D01*
X149230590Y-103234112D01*
X149305117Y-103122574D01*
X149356452Y-102998640D01*
X149382623Y-102867073D01*
X149382623Y-102732927D01*
X149356452Y-102601360D01*
X149349801Y-102585302D01*
X149434112Y-102528967D01*
X149528967Y-102434112D01*
X149603494Y-102322574D01*
X149654829Y-102198640D01*
X149678689Y-102078689D01*
X149798640Y-102054829D01*
X149922574Y-102003494D01*
X150034112Y-101928967D01*
X150050000Y-101913079D01*
X150065888Y-101928967D01*
X150149702Y-101984969D01*
X150124010Y-102114128D01*
X150124010Y-102248274D01*
X150150181Y-102379841D01*
X150201516Y-102503775D01*
X150276043Y-102615313D01*
X150370898Y-102710168D01*
X150482436Y-102784695D01*
X150606370Y-102836030D01*
X150737937Y-102862201D01*
X150787378Y-102862201D01*
X150818920Y-102938350D01*
X150893447Y-103049888D01*
X150988302Y-103144743D01*
X151099840Y-103219270D01*
X151223774Y-103270605D01*
X151355341Y-103296776D01*
X151489487Y-103296776D01*
X151621054Y-103270605D01*
X151682199Y-103245278D01*
X151765888Y-103328967D01*
X151877426Y-103403494D01*
X152001360Y-103454829D01*
X152132927Y-103481000D01*
X152267073Y-103481000D01*
X152398640Y-103454829D01*
X152522574Y-103403494D01*
X152601206Y-103350954D01*
X152670163Y-103454155D01*
X152765018Y-103549010D01*
X152849867Y-103605704D01*
X152844256Y-103633914D01*
X152844256Y-103768060D01*
X152870427Y-103899627D01*
X152921762Y-104023561D01*
X152996289Y-104135099D01*
X153091144Y-104229954D01*
X153202682Y-104304481D01*
X153219741Y-104311547D01*
X153216867Y-104325997D01*
X153216867Y-104460143D01*
X153243038Y-104591710D01*
X153294373Y-104715644D01*
X153338015Y-104780959D01*
X153308335Y-104825379D01*
X153257000Y-104949313D01*
X153230829Y-105080880D01*
X153230829Y-105215026D01*
X153257000Y-105346593D01*
X153308335Y-105470527D01*
X153382862Y-105582065D01*
X153419001Y-105618204D01*
X153419000Y-109151374D01*
X153416673Y-109175000D01*
X153425960Y-109269292D01*
X153431997Y-109289192D01*
X153453464Y-109359960D01*
X153498128Y-109443522D01*
X153558236Y-109516764D01*
X153576594Y-109531830D01*
X156784670Y-112739907D01*
X156773815Y-112748815D01*
X156694463Y-112845506D01*
X156635498Y-112955820D01*
X156599188Y-113075518D01*
X156586928Y-113200000D01*
X156590000Y-113214250D01*
X156748750Y-113373000D01*
X157873000Y-113373000D01*
X157873000Y-113353000D01*
X158127000Y-113353000D01*
X158127000Y-113373000D01*
X159251250Y-113373000D01*
X159410000Y-113214250D01*
X159413072Y-113200000D01*
X159400812Y-113075518D01*
X159364502Y-112955820D01*
X159305537Y-112845506D01*
X159226185Y-112748815D01*
X159153950Y-112689533D01*
X159157843Y-112650000D01*
X159157843Y-112350000D01*
X159147605Y-112246047D01*
X159117283Y-112146090D01*
X159068043Y-112053968D01*
X159023752Y-112000000D01*
X159068043Y-111946032D01*
X159117283Y-111853910D01*
X159147605Y-111753953D01*
X159157843Y-111650000D01*
X159157843Y-111350000D01*
X159147605Y-111246047D01*
X159117283Y-111146090D01*
X159068043Y-111053968D01*
X159023752Y-111000000D01*
X159068043Y-110946032D01*
X159117283Y-110853910D01*
X159147605Y-110753953D01*
X159157843Y-110650000D01*
X159157843Y-110350000D01*
X159147605Y-110246047D01*
X159117283Y-110146090D01*
X159068043Y-110053968D01*
X159023752Y-110000000D01*
X159068043Y-109946032D01*
X159117283Y-109853910D01*
X159147605Y-109753953D01*
X159157843Y-109650000D01*
X159157843Y-109350000D01*
X159147605Y-109246047D01*
X159117283Y-109146090D01*
X159068043Y-109053968D01*
X159023752Y-109000000D01*
X159068043Y-108946032D01*
X159117283Y-108853910D01*
X159147605Y-108753953D01*
X159157843Y-108650000D01*
X159157843Y-108350000D01*
X159147605Y-108246047D01*
X159117283Y-108146090D01*
X159068043Y-108053968D01*
X159023752Y-108000000D01*
X159068043Y-107946032D01*
X159117283Y-107853910D01*
X159147605Y-107753953D01*
X159157843Y-107650000D01*
X159157843Y-107350000D01*
X159147605Y-107246047D01*
X159117283Y-107146090D01*
X159068043Y-107053968D01*
X159023752Y-107000000D01*
X159068043Y-106946032D01*
X159117283Y-106853910D01*
X159147605Y-106753953D01*
X159157843Y-106650000D01*
X159157843Y-106350000D01*
X159147605Y-106246047D01*
X159117283Y-106146090D01*
X159068043Y-106053968D01*
X159023752Y-106000000D01*
X159068043Y-105946032D01*
X159117283Y-105853910D01*
X159147605Y-105753953D01*
X159157843Y-105650000D01*
X159157843Y-105350000D01*
X159153950Y-105310467D01*
X159226185Y-105251185D01*
X159305537Y-105154494D01*
X159364502Y-105044180D01*
X159400812Y-104924482D01*
X159413072Y-104800000D01*
X159410000Y-104785750D01*
X159251250Y-104627000D01*
X158127000Y-104627000D01*
X158127000Y-104647000D01*
X157873000Y-104647000D01*
X157873000Y-104627000D01*
X157853000Y-104627000D01*
X157853000Y-104373000D01*
X157873000Y-104373000D01*
X157873000Y-103723750D01*
X158127000Y-103723750D01*
X158127000Y-104373000D01*
X159251250Y-104373000D01*
X159410000Y-104214250D01*
X159413072Y-104200000D01*
X159400812Y-104075518D01*
X159364502Y-103955820D01*
X159305537Y-103845506D01*
X159226185Y-103748815D01*
X159129494Y-103669463D01*
X159019180Y-103610498D01*
X158899482Y-103574188D01*
X158775000Y-103561928D01*
X158285750Y-103565000D01*
X158127000Y-103723750D01*
X157873000Y-103723750D01*
X157731145Y-103581895D01*
X157919274Y-103481338D01*
X158027107Y-103206712D01*
X157000000Y-102179605D01*
X156985858Y-102193748D01*
X156806253Y-102014143D01*
X156820395Y-102000000D01*
X157179605Y-102000000D01*
X158206712Y-103027107D01*
X158481338Y-102919274D01*
X158632216Y-102612616D01*
X158720369Y-102282415D01*
X158742409Y-101941361D01*
X158697489Y-101602561D01*
X158587336Y-101279034D01*
X158481338Y-101080726D01*
X158206712Y-100972893D01*
X157179605Y-102000000D01*
X156820395Y-102000000D01*
X155793288Y-100972893D01*
X155518662Y-101080726D01*
X155367784Y-101387384D01*
X155279631Y-101717585D01*
X155274665Y-101794429D01*
X154556830Y-101076594D01*
X154541764Y-101058236D01*
X154468522Y-100998128D01*
X154384961Y-100953464D01*
X154294292Y-100925960D01*
X154223626Y-100919000D01*
X154200000Y-100916673D01*
X154176374Y-100919000D01*
X150982079Y-100919000D01*
X150934112Y-100871033D01*
X150822574Y-100796506D01*
X150698640Y-100745171D01*
X150567073Y-100719000D01*
X150432927Y-100719000D01*
X150301360Y-100745171D01*
X150177426Y-100796506D01*
X150065888Y-100871033D01*
X150050000Y-100886921D01*
X150034112Y-100871033D01*
X149922574Y-100796506D01*
X149798640Y-100745171D01*
X149667073Y-100719000D01*
X149532927Y-100719000D01*
X149401360Y-100745171D01*
X149277426Y-100796506D01*
X149165888Y-100871033D01*
X149117921Y-100919000D01*
X146423626Y-100919000D01*
X146400000Y-100916673D01*
X146305707Y-100925960D01*
X146215038Y-100953464D01*
X146170374Y-100977338D01*
X146131478Y-100998128D01*
X146058236Y-101058236D01*
X146043175Y-101076588D01*
X144677766Y-102441998D01*
X144720369Y-102282415D01*
X144742409Y-101941361D01*
X144697489Y-101602561D01*
X144587336Y-101279034D01*
X144481338Y-101080726D01*
X144206712Y-100972893D01*
X143179605Y-102000000D01*
X143193748Y-102014143D01*
X143014143Y-102193748D01*
X143000000Y-102179605D01*
X141972893Y-103206712D01*
X142080726Y-103481338D01*
X142274214Y-103576536D01*
X142127000Y-103723750D01*
X142127000Y-104373000D01*
X142147000Y-104373000D01*
X142147000Y-104627000D01*
X142127000Y-104627000D01*
X142127000Y-104647000D01*
X141873000Y-104647000D01*
X141873000Y-104627000D01*
X140748750Y-104627000D01*
X140590000Y-104785750D01*
X140586928Y-104800000D01*
X137406000Y-104800000D01*
X137406000Y-104200000D01*
X140586928Y-104200000D01*
X140590000Y-104214250D01*
X140748750Y-104373000D01*
X141873000Y-104373000D01*
X141873000Y-103723750D01*
X141714250Y-103565000D01*
X141225000Y-103561928D01*
X141100518Y-103574188D01*
X140980820Y-103610498D01*
X140870506Y-103669463D01*
X140773815Y-103748815D01*
X140694463Y-103845506D01*
X140635498Y-103955820D01*
X140599188Y-104075518D01*
X140586928Y-104200000D01*
X137406000Y-104200000D01*
X137406000Y-104176047D01*
X137474999Y-104182843D01*
X138775001Y-104182843D01*
X138898462Y-104170683D01*
X139017179Y-104134671D01*
X139126589Y-104076190D01*
X139222488Y-103997488D01*
X139301190Y-103901589D01*
X139359671Y-103792179D01*
X139395683Y-103673462D01*
X139407843Y-103550001D01*
X139407843Y-102849999D01*
X139395683Y-102726538D01*
X139359671Y-102607821D01*
X139301190Y-102498411D01*
X139222488Y-102402512D01*
X139126589Y-102323810D01*
X139017179Y-102265329D01*
X138898462Y-102229317D01*
X138775001Y-102217157D01*
X137474999Y-102217157D01*
X137406000Y-102223953D01*
X137406000Y-102168169D01*
X137515530Y-102058639D01*
X141257591Y-102058639D01*
X141302511Y-102397439D01*
X141412664Y-102720966D01*
X141518662Y-102919274D01*
X141793288Y-103027107D01*
X142820395Y-102000000D01*
X141793288Y-100972893D01*
X141518662Y-101080726D01*
X141367784Y-101387384D01*
X141279631Y-101717585D01*
X141257591Y-102058639D01*
X137515530Y-102058639D01*
X139168171Y-100406000D01*
X142298607Y-100406000D01*
X142279034Y-100412664D01*
M02*
