M48
; DRILL file {KiCad 5.1.5-52549c5~84~ubuntu18.04.1} date Sat 28 Mar 2020 06:13:46 PM PDT
; FORMAT={-:-/ absolute / inch / decimal}
; #@! TF.CreationDate,2020-03-28T18:13:46-07:00
; #@! TF.GenerationSoftware,Kicad,Pcbnew,5.1.5-52549c5~84~ubuntu18.04.1
; #@! TF.FileFunction,Plated,1,2,PTH
FMAT,2
INCH
T1C0.0110
T2C0.0709
%
G90
G05
T1
X5.7075Y-4.41
X5.7548Y-4.1506
X5.7696Y-4.116
X5.7874Y-4.0594
X5.7874Y-4.0892
X5.8225Y-4.0455
X5.8268Y-4.2126
X5.8268Y-4.3701
X5.8544Y-4.0472
X5.8661Y-4.0157
X5.8819Y-4.5305
X5.8898Y-3.9921
X5.9055Y-4.2913
X5.9252Y-3.9921
X5.9372Y-4.0229
X5.9615Y-4.04
X5.9843Y-4.2126
X5.9843Y-4.3701
X5.9921Y-4.0472
X6.0Y-4.4882
X6.0315Y-4.0559
X6.0443Y-4.0827
X6.059Y-4.11
X6.0595Y-4.1397
X6.1181Y-4.4409
T2
X6.2992Y-4.7638
X5.6299Y-4.0157
X5.5118Y-4.7638
X6.1811Y-4.0157
T0
M30
