G04 #@! TF.GenerationSoftware,KiCad,Pcbnew,5.1.5-52549c5~84~ubuntu18.04.1*
G04 #@! TF.CreationDate,2020-03-28T18:13:44-07:00*
G04 #@! TF.ProjectId,somos_wristband_2.0,736f6d6f-735f-4777-9269-737462616e64,rev?*
G04 #@! TF.SameCoordinates,Original*
G04 #@! TF.FileFunction,Soldermask,Top*
G04 #@! TF.FilePolarity,Negative*
%FSLAX46Y46*%
G04 Gerber Fmt 4.6, Leading zero omitted, Abs format (unit mm)*
G04 Created by KiCad (PCBNEW 5.1.5-52549c5~84~ubuntu18.04.1) date 2020-03-28 18:13:44*
%MOMM*%
%LPD*%
G04 APERTURE LIST*
%ADD10C,0.100000*%
G04 APERTURE END LIST*
D10*
G36*
X160212222Y-125054096D02*
G01*
X160256080Y-125067400D01*
X160296496Y-125089004D01*
X160331923Y-125118077D01*
X160360996Y-125153504D01*
X160382600Y-125193920D01*
X160395904Y-125237778D01*
X160401000Y-125289522D01*
X160401000Y-128810478D01*
X160395904Y-128862222D01*
X160382600Y-128906080D01*
X160360996Y-128946496D01*
X160331923Y-128981923D01*
X160296496Y-129010996D01*
X160256080Y-129032600D01*
X160212222Y-129045904D01*
X160160478Y-129051000D01*
X158739522Y-129051000D01*
X158687778Y-129045904D01*
X158643920Y-129032600D01*
X158603504Y-129010996D01*
X158568077Y-128981923D01*
X158539004Y-128946496D01*
X158517400Y-128906080D01*
X158504096Y-128862222D01*
X158499000Y-128810478D01*
X158499000Y-125289522D01*
X158504096Y-125237778D01*
X158517400Y-125193920D01*
X158539004Y-125153504D01*
X158568077Y-125118077D01*
X158603504Y-125089004D01*
X158643920Y-125067400D01*
X158687778Y-125054096D01*
X158739522Y-125049000D01*
X160160478Y-125049000D01*
X160212222Y-125054096D01*
G37*
G36*
X141312222Y-125054096D02*
G01*
X141356080Y-125067400D01*
X141396496Y-125089004D01*
X141431923Y-125118077D01*
X141460996Y-125153504D01*
X141482600Y-125193920D01*
X141495904Y-125237778D01*
X141501000Y-125289522D01*
X141501000Y-128810478D01*
X141495904Y-128862222D01*
X141482600Y-128906080D01*
X141460996Y-128946496D01*
X141431923Y-128981923D01*
X141396496Y-129010996D01*
X141356080Y-129032600D01*
X141312222Y-129045904D01*
X141260478Y-129051000D01*
X139839522Y-129051000D01*
X139787778Y-129045904D01*
X139743920Y-129032600D01*
X139703504Y-129010996D01*
X139668077Y-128981923D01*
X139639004Y-128946496D01*
X139617400Y-128906080D01*
X139604096Y-128862222D01*
X139599000Y-128810478D01*
X139599000Y-125289522D01*
X139604096Y-125237778D01*
X139617400Y-125193920D01*
X139639004Y-125153504D01*
X139668077Y-125118077D01*
X139703504Y-125089004D01*
X139743920Y-125067400D01*
X139787778Y-125054096D01*
X139839522Y-125049000D01*
X141260478Y-125049000D01*
X141312222Y-125054096D01*
G37*
G36*
X149219066Y-117955127D02*
G01*
X149272985Y-117971483D01*
X149322667Y-117998039D01*
X149366219Y-118033781D01*
X149401961Y-118077333D01*
X149428517Y-118127015D01*
X149444873Y-118180934D01*
X149451000Y-118243141D01*
X149451000Y-122256859D01*
X149444873Y-122319066D01*
X149428517Y-122372985D01*
X149401961Y-122422667D01*
X149366219Y-122466219D01*
X149322667Y-122501961D01*
X149272985Y-122528517D01*
X149219066Y-122544873D01*
X149156859Y-122551000D01*
X148343141Y-122551000D01*
X148280934Y-122544873D01*
X148227015Y-122528517D01*
X148177333Y-122501961D01*
X148133781Y-122466219D01*
X148098039Y-122422667D01*
X148071483Y-122372985D01*
X148055127Y-122319066D01*
X148049000Y-122256859D01*
X148049000Y-118243141D01*
X148055127Y-118180934D01*
X148071483Y-118127015D01*
X148098039Y-118077333D01*
X148133781Y-118033781D01*
X148177333Y-117998039D01*
X148227015Y-117971483D01*
X148280934Y-117955127D01*
X148343141Y-117949000D01*
X149156859Y-117949000D01*
X149219066Y-117955127D01*
G37*
G36*
X146719066Y-117955127D02*
G01*
X146772985Y-117971483D01*
X146822667Y-117998039D01*
X146866219Y-118033781D01*
X146901961Y-118077333D01*
X146928517Y-118127015D01*
X146944873Y-118180934D01*
X146951000Y-118243141D01*
X146951000Y-122256859D01*
X146944873Y-122319066D01*
X146928517Y-122372985D01*
X146901961Y-122422667D01*
X146866219Y-122466219D01*
X146822667Y-122501961D01*
X146772985Y-122528517D01*
X146719066Y-122544873D01*
X146656859Y-122551000D01*
X145843141Y-122551000D01*
X145780934Y-122544873D01*
X145727015Y-122528517D01*
X145677333Y-122501961D01*
X145633781Y-122466219D01*
X145598039Y-122422667D01*
X145571483Y-122372985D01*
X145555127Y-122319066D01*
X145549000Y-122256859D01*
X145549000Y-118243141D01*
X145555127Y-118180934D01*
X145571483Y-118127015D01*
X145598039Y-118077333D01*
X145633781Y-118033781D01*
X145677333Y-117998039D01*
X145727015Y-117971483D01*
X145780934Y-117955127D01*
X145843141Y-117949000D01*
X146656859Y-117949000D01*
X146719066Y-117955127D01*
G37*
G36*
X144219066Y-117955127D02*
G01*
X144272985Y-117971483D01*
X144322667Y-117998039D01*
X144366219Y-118033781D01*
X144401961Y-118077333D01*
X144428517Y-118127015D01*
X144444873Y-118180934D01*
X144451000Y-118243141D01*
X144451000Y-122256859D01*
X144444873Y-122319066D01*
X144428517Y-122372985D01*
X144401961Y-122422667D01*
X144366219Y-122466219D01*
X144322667Y-122501961D01*
X144272985Y-122528517D01*
X144219066Y-122544873D01*
X144156859Y-122551000D01*
X143343141Y-122551000D01*
X143280934Y-122544873D01*
X143227015Y-122528517D01*
X143177333Y-122501961D01*
X143133781Y-122466219D01*
X143098039Y-122422667D01*
X143071483Y-122372985D01*
X143055127Y-122319066D01*
X143049000Y-122256859D01*
X143049000Y-118243141D01*
X143055127Y-118180934D01*
X143071483Y-118127015D01*
X143098039Y-118077333D01*
X143133781Y-118033781D01*
X143177333Y-117998039D01*
X143227015Y-117971483D01*
X143280934Y-117955127D01*
X143343141Y-117949000D01*
X144156859Y-117949000D01*
X144219066Y-117955127D01*
G37*
G36*
X151719066Y-117955127D02*
G01*
X151772985Y-117971483D01*
X151822667Y-117998039D01*
X151866219Y-118033781D01*
X151901961Y-118077333D01*
X151928517Y-118127015D01*
X151944873Y-118180934D01*
X151951000Y-118243141D01*
X151951000Y-122256859D01*
X151944873Y-122319066D01*
X151928517Y-122372985D01*
X151901961Y-122422667D01*
X151866219Y-122466219D01*
X151822667Y-122501961D01*
X151772985Y-122528517D01*
X151719066Y-122544873D01*
X151656859Y-122551000D01*
X150843141Y-122551000D01*
X150780934Y-122544873D01*
X150727015Y-122528517D01*
X150677333Y-122501961D01*
X150633781Y-122466219D01*
X150598039Y-122422667D01*
X150571483Y-122372985D01*
X150555127Y-122319066D01*
X150549000Y-122256859D01*
X150549000Y-118243141D01*
X150555127Y-118180934D01*
X150571483Y-118127015D01*
X150598039Y-118077333D01*
X150633781Y-118033781D01*
X150677333Y-117998039D01*
X150727015Y-117971483D01*
X150780934Y-117955127D01*
X150843141Y-117949000D01*
X151656859Y-117949000D01*
X151719066Y-117955127D01*
G37*
G36*
X156719066Y-117955127D02*
G01*
X156772985Y-117971483D01*
X156822667Y-117998039D01*
X156866219Y-118033781D01*
X156901961Y-118077333D01*
X156928517Y-118127015D01*
X156944873Y-118180934D01*
X156951000Y-118243141D01*
X156951000Y-122256859D01*
X156944873Y-122319066D01*
X156928517Y-122372985D01*
X156901961Y-122422667D01*
X156866219Y-122466219D01*
X156822667Y-122501961D01*
X156772985Y-122528517D01*
X156719066Y-122544873D01*
X156656859Y-122551000D01*
X155843141Y-122551000D01*
X155780934Y-122544873D01*
X155727015Y-122528517D01*
X155677333Y-122501961D01*
X155633781Y-122466219D01*
X155598039Y-122422667D01*
X155571483Y-122372985D01*
X155555127Y-122319066D01*
X155549000Y-122256859D01*
X155549000Y-118243141D01*
X155555127Y-118180934D01*
X155571483Y-118127015D01*
X155598039Y-118077333D01*
X155633781Y-118033781D01*
X155677333Y-117998039D01*
X155727015Y-117971483D01*
X155780934Y-117955127D01*
X155843141Y-117949000D01*
X156656859Y-117949000D01*
X156719066Y-117955127D01*
G37*
G36*
X154219066Y-117955127D02*
G01*
X154272985Y-117971483D01*
X154322667Y-117998039D01*
X154366219Y-118033781D01*
X154401961Y-118077333D01*
X154428517Y-118127015D01*
X154444873Y-118180934D01*
X154451000Y-118243141D01*
X154451000Y-122256859D01*
X154444873Y-122319066D01*
X154428517Y-122372985D01*
X154401961Y-122422667D01*
X154366219Y-122466219D01*
X154322667Y-122501961D01*
X154272985Y-122528517D01*
X154219066Y-122544873D01*
X154156859Y-122551000D01*
X153343141Y-122551000D01*
X153280934Y-122544873D01*
X153227015Y-122528517D01*
X153177333Y-122501961D01*
X153133781Y-122466219D01*
X153098039Y-122422667D01*
X153071483Y-122372985D01*
X153055127Y-122319066D01*
X153049000Y-122256859D01*
X153049000Y-118243141D01*
X153055127Y-118180934D01*
X153071483Y-118127015D01*
X153098039Y-118077333D01*
X153133781Y-118033781D01*
X153177333Y-117998039D01*
X153227015Y-117971483D01*
X153280934Y-117955127D01*
X153343141Y-117949000D01*
X154156859Y-117949000D01*
X154219066Y-117955127D01*
G37*
G36*
X160224549Y-119871116D02*
G01*
X160335734Y-119893232D01*
X160545203Y-119979997D01*
X160733720Y-120105960D01*
X160894040Y-120266280D01*
X161020003Y-120454797D01*
X161106768Y-120664266D01*
X161151000Y-120886636D01*
X161151000Y-121113364D01*
X161106768Y-121335734D01*
X161020003Y-121545203D01*
X160894040Y-121733720D01*
X160733720Y-121894040D01*
X160545203Y-122020003D01*
X160335734Y-122106768D01*
X160224549Y-122128884D01*
X160113365Y-122151000D01*
X159886635Y-122151000D01*
X159775451Y-122128884D01*
X159664266Y-122106768D01*
X159454797Y-122020003D01*
X159266280Y-121894040D01*
X159105960Y-121733720D01*
X158979997Y-121545203D01*
X158893232Y-121335734D01*
X158849000Y-121113364D01*
X158849000Y-120886636D01*
X158893232Y-120664266D01*
X158979997Y-120454797D01*
X159105960Y-120266280D01*
X159266280Y-120105960D01*
X159454797Y-119979997D01*
X159664266Y-119893232D01*
X159775451Y-119871116D01*
X159886635Y-119849000D01*
X160113365Y-119849000D01*
X160224549Y-119871116D01*
G37*
G36*
X140224549Y-119871116D02*
G01*
X140335734Y-119893232D01*
X140545203Y-119979997D01*
X140733720Y-120105960D01*
X140894040Y-120266280D01*
X141020003Y-120454797D01*
X141106768Y-120664266D01*
X141151000Y-120886636D01*
X141151000Y-121113364D01*
X141106768Y-121335734D01*
X141020003Y-121545203D01*
X140894040Y-121733720D01*
X140733720Y-121894040D01*
X140545203Y-122020003D01*
X140335734Y-122106768D01*
X140224549Y-122128884D01*
X140113365Y-122151000D01*
X139886635Y-122151000D01*
X139775451Y-122128884D01*
X139664266Y-122106768D01*
X139454797Y-122020003D01*
X139266280Y-121894040D01*
X139105960Y-121733720D01*
X138979997Y-121545203D01*
X138893232Y-121335734D01*
X138849000Y-121113364D01*
X138849000Y-120886636D01*
X138893232Y-120664266D01*
X138979997Y-120454797D01*
X139105960Y-120266280D01*
X139266280Y-120105960D01*
X139454797Y-119979997D01*
X139664266Y-119893232D01*
X139775451Y-119871116D01*
X139886635Y-119849000D01*
X140113365Y-119849000D01*
X140224549Y-119871116D01*
G37*
G36*
X138916242Y-114153404D02*
G01*
X138953337Y-114164657D01*
X138987515Y-114182925D01*
X139017481Y-114207519D01*
X139042075Y-114237485D01*
X139060343Y-114271663D01*
X139071596Y-114308758D01*
X139076000Y-114353474D01*
X139076000Y-115246526D01*
X139071596Y-115291242D01*
X139060343Y-115328337D01*
X139042075Y-115362515D01*
X139017481Y-115392481D01*
X138987515Y-115417075D01*
X138953337Y-115435343D01*
X138916242Y-115446596D01*
X138871526Y-115451000D01*
X137378474Y-115451000D01*
X137333758Y-115446596D01*
X137296663Y-115435343D01*
X137262485Y-115417075D01*
X137232519Y-115392481D01*
X137207925Y-115362515D01*
X137189657Y-115328337D01*
X137178404Y-115291242D01*
X137174000Y-115246526D01*
X137174000Y-114353474D01*
X137178404Y-114308758D01*
X137189657Y-114271663D01*
X137207925Y-114237485D01*
X137232519Y-114207519D01*
X137262485Y-114182925D01*
X137296663Y-114164657D01*
X137333758Y-114153404D01*
X137378474Y-114149000D01*
X138871526Y-114149000D01*
X138916242Y-114153404D01*
G37*
G36*
X162666242Y-114153404D02*
G01*
X162703337Y-114164657D01*
X162737515Y-114182925D01*
X162767481Y-114207519D01*
X162792075Y-114237485D01*
X162810343Y-114271663D01*
X162821596Y-114308758D01*
X162826000Y-114353474D01*
X162826000Y-115246526D01*
X162821596Y-115291242D01*
X162810343Y-115328337D01*
X162792075Y-115362515D01*
X162767481Y-115392481D01*
X162737515Y-115417075D01*
X162703337Y-115435343D01*
X162666242Y-115446596D01*
X162621526Y-115451000D01*
X161128474Y-115451000D01*
X161083758Y-115446596D01*
X161046663Y-115435343D01*
X161012485Y-115417075D01*
X160982519Y-115392481D01*
X160957925Y-115362515D01*
X160939657Y-115328337D01*
X160928404Y-115291242D01*
X160924000Y-115246526D01*
X160924000Y-114353474D01*
X160928404Y-114308758D01*
X160939657Y-114271663D01*
X160957925Y-114237485D01*
X160982519Y-114207519D01*
X161012485Y-114182925D01*
X161046663Y-114164657D01*
X161083758Y-114153404D01*
X161128474Y-114149000D01*
X162621526Y-114149000D01*
X162666242Y-114153404D01*
G37*
G36*
X150741938Y-114631716D02*
G01*
X150762557Y-114637971D01*
X150781553Y-114648124D01*
X150798208Y-114661792D01*
X150811876Y-114678447D01*
X150822029Y-114697443D01*
X150828284Y-114718062D01*
X150831000Y-114745640D01*
X150831000Y-115254360D01*
X150828284Y-115281938D01*
X150822029Y-115302557D01*
X150811876Y-115321553D01*
X150798208Y-115338208D01*
X150781553Y-115351876D01*
X150762557Y-115362029D01*
X150741938Y-115368284D01*
X150714360Y-115371000D01*
X150255640Y-115371000D01*
X150228062Y-115368284D01*
X150207443Y-115362029D01*
X150188447Y-115351876D01*
X150171792Y-115338208D01*
X150158124Y-115321553D01*
X150147971Y-115302557D01*
X150141716Y-115281938D01*
X150139000Y-115254360D01*
X150139000Y-114745640D01*
X150141716Y-114718062D01*
X150147971Y-114697443D01*
X150158124Y-114678447D01*
X150171792Y-114661792D01*
X150188447Y-114648124D01*
X150207443Y-114637971D01*
X150228062Y-114631716D01*
X150255640Y-114629000D01*
X150714360Y-114629000D01*
X150741938Y-114631716D01*
G37*
G36*
X149771938Y-114631716D02*
G01*
X149792557Y-114637971D01*
X149811553Y-114648124D01*
X149828208Y-114661792D01*
X149841876Y-114678447D01*
X149852029Y-114697443D01*
X149858284Y-114718062D01*
X149861000Y-114745640D01*
X149861000Y-115254360D01*
X149858284Y-115281938D01*
X149852029Y-115302557D01*
X149841876Y-115321553D01*
X149828208Y-115338208D01*
X149811553Y-115351876D01*
X149792557Y-115362029D01*
X149771938Y-115368284D01*
X149744360Y-115371000D01*
X149285640Y-115371000D01*
X149258062Y-115368284D01*
X149237443Y-115362029D01*
X149218447Y-115351876D01*
X149201792Y-115338208D01*
X149188124Y-115321553D01*
X149177971Y-115302557D01*
X149171716Y-115281938D01*
X149169000Y-115254360D01*
X149169000Y-114745640D01*
X149171716Y-114718062D01*
X149177971Y-114697443D01*
X149188124Y-114678447D01*
X149201792Y-114661792D01*
X149218447Y-114648124D01*
X149237443Y-114637971D01*
X149258062Y-114631716D01*
X149285640Y-114629000D01*
X149744360Y-114629000D01*
X149771938Y-114631716D01*
G37*
G36*
X155681938Y-114541716D02*
G01*
X155702557Y-114547971D01*
X155721553Y-114558124D01*
X155738208Y-114571792D01*
X155751876Y-114588447D01*
X155762029Y-114607443D01*
X155768284Y-114628062D01*
X155771000Y-114655640D01*
X155771000Y-115114360D01*
X155768284Y-115141938D01*
X155762029Y-115162557D01*
X155751876Y-115181553D01*
X155738208Y-115198208D01*
X155721553Y-115211876D01*
X155702557Y-115222029D01*
X155681938Y-115228284D01*
X155654360Y-115231000D01*
X155145640Y-115231000D01*
X155118062Y-115228284D01*
X155097443Y-115222029D01*
X155078447Y-115211876D01*
X155061792Y-115198208D01*
X155048124Y-115181553D01*
X155037971Y-115162557D01*
X155031716Y-115141938D01*
X155029000Y-115114360D01*
X155029000Y-114655640D01*
X155031716Y-114628062D01*
X155037971Y-114607443D01*
X155048124Y-114588447D01*
X155061792Y-114571792D01*
X155078447Y-114558124D01*
X155097443Y-114547971D01*
X155118062Y-114541716D01*
X155145640Y-114539000D01*
X155654360Y-114539000D01*
X155681938Y-114541716D01*
G37*
G36*
X154341938Y-114431716D02*
G01*
X154362557Y-114437971D01*
X154381553Y-114448124D01*
X154398208Y-114461792D01*
X154411876Y-114478447D01*
X154422029Y-114497443D01*
X154428284Y-114518062D01*
X154431000Y-114545640D01*
X154431000Y-115054360D01*
X154428284Y-115081938D01*
X154422029Y-115102557D01*
X154411876Y-115121553D01*
X154398208Y-115138208D01*
X154381553Y-115151876D01*
X154362557Y-115162029D01*
X154341938Y-115168284D01*
X154314360Y-115171000D01*
X153855640Y-115171000D01*
X153828062Y-115168284D01*
X153807443Y-115162029D01*
X153788447Y-115151876D01*
X153771792Y-115138208D01*
X153758124Y-115121553D01*
X153747971Y-115102557D01*
X153741716Y-115081938D01*
X153739000Y-115054360D01*
X153739000Y-114545640D01*
X153741716Y-114518062D01*
X153747971Y-114497443D01*
X153758124Y-114478447D01*
X153771792Y-114461792D01*
X153788447Y-114448124D01*
X153807443Y-114437971D01*
X153828062Y-114431716D01*
X153855640Y-114429000D01*
X154314360Y-114429000D01*
X154341938Y-114431716D01*
G37*
G36*
X153371938Y-114431716D02*
G01*
X153392557Y-114437971D01*
X153411553Y-114448124D01*
X153428208Y-114461792D01*
X153441876Y-114478447D01*
X153452029Y-114497443D01*
X153458284Y-114518062D01*
X153461000Y-114545640D01*
X153461000Y-115054360D01*
X153458284Y-115081938D01*
X153452029Y-115102557D01*
X153441876Y-115121553D01*
X153428208Y-115138208D01*
X153411553Y-115151876D01*
X153392557Y-115162029D01*
X153371938Y-115168284D01*
X153344360Y-115171000D01*
X152885640Y-115171000D01*
X152858062Y-115168284D01*
X152837443Y-115162029D01*
X152818447Y-115151876D01*
X152801792Y-115138208D01*
X152788124Y-115121553D01*
X152777971Y-115102557D01*
X152771716Y-115081938D01*
X152769000Y-115054360D01*
X152769000Y-114545640D01*
X152771716Y-114518062D01*
X152777971Y-114497443D01*
X152788124Y-114478447D01*
X152801792Y-114461792D01*
X152818447Y-114448124D01*
X152837443Y-114437971D01*
X152858062Y-114431716D01*
X152885640Y-114429000D01*
X153344360Y-114429000D01*
X153371938Y-114431716D01*
G37*
G36*
X155681938Y-113571716D02*
G01*
X155702557Y-113577971D01*
X155721553Y-113588124D01*
X155738208Y-113601792D01*
X155751876Y-113618447D01*
X155762029Y-113637443D01*
X155768284Y-113658062D01*
X155771000Y-113685640D01*
X155771000Y-114144360D01*
X155768284Y-114171938D01*
X155762029Y-114192557D01*
X155751876Y-114211553D01*
X155738208Y-114228208D01*
X155721553Y-114241876D01*
X155702557Y-114252029D01*
X155681938Y-114258284D01*
X155654360Y-114261000D01*
X155145640Y-114261000D01*
X155118062Y-114258284D01*
X155097443Y-114252029D01*
X155078447Y-114241876D01*
X155061792Y-114228208D01*
X155048124Y-114211553D01*
X155037971Y-114192557D01*
X155031716Y-114171938D01*
X155029000Y-114144360D01*
X155029000Y-113685640D01*
X155031716Y-113658062D01*
X155037971Y-113637443D01*
X155048124Y-113618447D01*
X155061792Y-113601792D01*
X155078447Y-113588124D01*
X155097443Y-113577971D01*
X155118062Y-113571716D01*
X155145640Y-113569000D01*
X155654360Y-113569000D01*
X155681938Y-113571716D01*
G37*
G36*
X142734928Y-113151764D02*
G01*
X142756009Y-113158160D01*
X142775445Y-113168548D01*
X142792476Y-113182524D01*
X142806452Y-113199555D01*
X142816840Y-113218991D01*
X142823236Y-113240072D01*
X142826000Y-113268140D01*
X142826000Y-113731860D01*
X142823236Y-113759928D01*
X142816840Y-113781009D01*
X142806452Y-113800445D01*
X142792476Y-113817476D01*
X142775445Y-113831452D01*
X142756009Y-113841840D01*
X142734928Y-113848236D01*
X142706860Y-113851000D01*
X141293140Y-113851000D01*
X141265072Y-113848236D01*
X141243991Y-113841840D01*
X141224555Y-113831452D01*
X141207524Y-113817476D01*
X141193548Y-113800445D01*
X141183160Y-113781009D01*
X141176764Y-113759928D01*
X141174000Y-113731860D01*
X141174000Y-113268140D01*
X141176764Y-113240072D01*
X141183160Y-113218991D01*
X141193548Y-113199555D01*
X141207524Y-113182524D01*
X141224555Y-113168548D01*
X141243991Y-113158160D01*
X141265072Y-113151764D01*
X141293140Y-113149000D01*
X142706860Y-113149000D01*
X142734928Y-113151764D01*
G37*
G36*
X158734928Y-113151764D02*
G01*
X158756009Y-113158160D01*
X158775445Y-113168548D01*
X158792476Y-113182524D01*
X158806452Y-113199555D01*
X158816840Y-113218991D01*
X158823236Y-113240072D01*
X158826000Y-113268140D01*
X158826000Y-113731860D01*
X158823236Y-113759928D01*
X158816840Y-113781009D01*
X158806452Y-113800445D01*
X158792476Y-113817476D01*
X158775445Y-113831452D01*
X158756009Y-113841840D01*
X158734928Y-113848236D01*
X158706860Y-113851000D01*
X157293140Y-113851000D01*
X157265072Y-113848236D01*
X157243991Y-113841840D01*
X157224555Y-113831452D01*
X157207524Y-113817476D01*
X157193548Y-113800445D01*
X157183160Y-113781009D01*
X157176764Y-113759928D01*
X157174000Y-113731860D01*
X157174000Y-113268140D01*
X157176764Y-113240072D01*
X157183160Y-113218991D01*
X157193548Y-113199555D01*
X157207524Y-113182524D01*
X157224555Y-113168548D01*
X157243991Y-113158160D01*
X157265072Y-113151764D01*
X157293140Y-113149000D01*
X158706860Y-113149000D01*
X158734928Y-113151764D01*
G37*
G36*
X153475000Y-105400001D02*
G01*
X153477402Y-105424387D01*
X153484515Y-105447836D01*
X153496066Y-105469447D01*
X153511611Y-105488389D01*
X153530553Y-105503934D01*
X153552164Y-105515485D01*
X153575613Y-105522598D01*
X153599999Y-105525000D01*
X154600000Y-105525000D01*
X154600000Y-112475000D01*
X153599999Y-112475000D01*
X153575613Y-112477402D01*
X153552164Y-112484515D01*
X153530553Y-112496066D01*
X153511611Y-112511611D01*
X153496066Y-112530553D01*
X153484515Y-112552164D01*
X153477402Y-112575613D01*
X153475000Y-112599999D01*
X153475000Y-113600000D01*
X146525000Y-113600000D01*
X146525000Y-112599999D01*
X146522598Y-112575613D01*
X146515485Y-112552164D01*
X146503934Y-112530553D01*
X146488389Y-112511611D01*
X146469447Y-112496066D01*
X146447836Y-112484515D01*
X146424387Y-112477402D01*
X146400001Y-112475000D01*
X145400000Y-112475000D01*
X145400000Y-105624999D01*
X146500000Y-105624999D01*
X146500000Y-112375001D01*
X146502402Y-112399387D01*
X146509515Y-112422836D01*
X146521066Y-112444447D01*
X146536611Y-112463389D01*
X146555553Y-112478934D01*
X146577164Y-112490485D01*
X146600613Y-112497598D01*
X146624999Y-112500000D01*
X153375001Y-112500000D01*
X153399387Y-112497598D01*
X153422836Y-112490485D01*
X153444447Y-112478934D01*
X153463389Y-112463389D01*
X153478934Y-112444447D01*
X153490485Y-112422836D01*
X153497598Y-112399387D01*
X153500000Y-112375001D01*
X153500000Y-105624999D01*
X153497598Y-105600613D01*
X153490485Y-105577164D01*
X153478934Y-105555553D01*
X153463389Y-105536611D01*
X153444447Y-105521066D01*
X153422836Y-105509515D01*
X153399387Y-105502402D01*
X153375001Y-105500000D01*
X146624999Y-105500000D01*
X146600613Y-105502402D01*
X146577164Y-105509515D01*
X146555553Y-105521066D01*
X146536611Y-105536611D01*
X146521066Y-105555553D01*
X146509515Y-105577164D01*
X146502402Y-105600613D01*
X146500000Y-105624999D01*
X145400000Y-105624999D01*
X145400000Y-105525000D01*
X146400001Y-105525000D01*
X146424387Y-105522598D01*
X146447836Y-105515485D01*
X146469447Y-105503934D01*
X146488389Y-105488389D01*
X146503934Y-105469447D01*
X146515485Y-105447836D01*
X146522598Y-105424387D01*
X146525000Y-105400001D01*
X146525000Y-104400000D01*
X153475000Y-104400000D01*
X153475000Y-105400001D01*
G37*
G36*
X153100000Y-112100000D02*
G01*
X146900000Y-112100000D01*
X146900000Y-105900000D01*
X153100000Y-105900000D01*
X153100000Y-112100000D01*
G37*
G36*
X142734928Y-112151764D02*
G01*
X142756009Y-112158160D01*
X142775445Y-112168548D01*
X142792476Y-112182524D01*
X142806452Y-112199555D01*
X142816840Y-112218991D01*
X142823236Y-112240072D01*
X142826000Y-112268140D01*
X142826000Y-112731860D01*
X142823236Y-112759928D01*
X142816840Y-112781009D01*
X142806452Y-112800445D01*
X142792476Y-112817476D01*
X142775445Y-112831452D01*
X142756009Y-112841840D01*
X142734928Y-112848236D01*
X142706860Y-112851000D01*
X141293140Y-112851000D01*
X141265072Y-112848236D01*
X141243991Y-112841840D01*
X141224555Y-112831452D01*
X141207524Y-112817476D01*
X141193548Y-112800445D01*
X141183160Y-112781009D01*
X141176764Y-112759928D01*
X141174000Y-112731860D01*
X141174000Y-112268140D01*
X141176764Y-112240072D01*
X141183160Y-112218991D01*
X141193548Y-112199555D01*
X141207524Y-112182524D01*
X141224555Y-112168548D01*
X141243991Y-112158160D01*
X141265072Y-112151764D01*
X141293140Y-112149000D01*
X142706860Y-112149000D01*
X142734928Y-112151764D01*
G37*
G36*
X158734928Y-112151764D02*
G01*
X158756009Y-112158160D01*
X158775445Y-112168548D01*
X158792476Y-112182524D01*
X158806452Y-112199555D01*
X158816840Y-112218991D01*
X158823236Y-112240072D01*
X158826000Y-112268140D01*
X158826000Y-112731860D01*
X158823236Y-112759928D01*
X158816840Y-112781009D01*
X158806452Y-112800445D01*
X158792476Y-112817476D01*
X158775445Y-112831452D01*
X158756009Y-112841840D01*
X158734928Y-112848236D01*
X158706860Y-112851000D01*
X157293140Y-112851000D01*
X157265072Y-112848236D01*
X157243991Y-112841840D01*
X157224555Y-112831452D01*
X157207524Y-112817476D01*
X157193548Y-112800445D01*
X157183160Y-112781009D01*
X157176764Y-112759928D01*
X157174000Y-112731860D01*
X157174000Y-112268140D01*
X157176764Y-112240072D01*
X157183160Y-112218991D01*
X157193548Y-112199555D01*
X157207524Y-112182524D01*
X157224555Y-112168548D01*
X157243991Y-112158160D01*
X157265072Y-112151764D01*
X157293140Y-112149000D01*
X158706860Y-112149000D01*
X158734928Y-112151764D01*
G37*
G36*
X158734928Y-111151764D02*
G01*
X158756009Y-111158160D01*
X158775445Y-111168548D01*
X158792476Y-111182524D01*
X158806452Y-111199555D01*
X158816840Y-111218991D01*
X158823236Y-111240072D01*
X158826000Y-111268140D01*
X158826000Y-111731860D01*
X158823236Y-111759928D01*
X158816840Y-111781009D01*
X158806452Y-111800445D01*
X158792476Y-111817476D01*
X158775445Y-111831452D01*
X158756009Y-111841840D01*
X158734928Y-111848236D01*
X158706860Y-111851000D01*
X157293140Y-111851000D01*
X157265072Y-111848236D01*
X157243991Y-111841840D01*
X157224555Y-111831452D01*
X157207524Y-111817476D01*
X157193548Y-111800445D01*
X157183160Y-111781009D01*
X157176764Y-111759928D01*
X157174000Y-111731860D01*
X157174000Y-111268140D01*
X157176764Y-111240072D01*
X157183160Y-111218991D01*
X157193548Y-111199555D01*
X157207524Y-111182524D01*
X157224555Y-111168548D01*
X157243991Y-111158160D01*
X157265072Y-111151764D01*
X157293140Y-111149000D01*
X158706860Y-111149000D01*
X158734928Y-111151764D01*
G37*
G36*
X142734928Y-111151764D02*
G01*
X142756009Y-111158160D01*
X142775445Y-111168548D01*
X142792476Y-111182524D01*
X142806452Y-111199555D01*
X142816840Y-111218991D01*
X142823236Y-111240072D01*
X142826000Y-111268140D01*
X142826000Y-111731860D01*
X142823236Y-111759928D01*
X142816840Y-111781009D01*
X142806452Y-111800445D01*
X142792476Y-111817476D01*
X142775445Y-111831452D01*
X142756009Y-111841840D01*
X142734928Y-111848236D01*
X142706860Y-111851000D01*
X141293140Y-111851000D01*
X141265072Y-111848236D01*
X141243991Y-111841840D01*
X141224555Y-111831452D01*
X141207524Y-111817476D01*
X141193548Y-111800445D01*
X141183160Y-111781009D01*
X141176764Y-111759928D01*
X141174000Y-111731860D01*
X141174000Y-111268140D01*
X141176764Y-111240072D01*
X141183160Y-111218991D01*
X141193548Y-111199555D01*
X141207524Y-111182524D01*
X141224555Y-111168548D01*
X141243991Y-111158160D01*
X141265072Y-111151764D01*
X141293140Y-111149000D01*
X142706860Y-111149000D01*
X142734928Y-111151764D01*
G37*
G36*
X142734928Y-110151764D02*
G01*
X142756009Y-110158160D01*
X142775445Y-110168548D01*
X142792476Y-110182524D01*
X142806452Y-110199555D01*
X142816840Y-110218991D01*
X142823236Y-110240072D01*
X142826000Y-110268140D01*
X142826000Y-110731860D01*
X142823236Y-110759928D01*
X142816840Y-110781009D01*
X142806452Y-110800445D01*
X142792476Y-110817476D01*
X142775445Y-110831452D01*
X142756009Y-110841840D01*
X142734928Y-110848236D01*
X142706860Y-110851000D01*
X141293140Y-110851000D01*
X141265072Y-110848236D01*
X141243991Y-110841840D01*
X141224555Y-110831452D01*
X141207524Y-110817476D01*
X141193548Y-110800445D01*
X141183160Y-110781009D01*
X141176764Y-110759928D01*
X141174000Y-110731860D01*
X141174000Y-110268140D01*
X141176764Y-110240072D01*
X141183160Y-110218991D01*
X141193548Y-110199555D01*
X141207524Y-110182524D01*
X141224555Y-110168548D01*
X141243991Y-110158160D01*
X141265072Y-110151764D01*
X141293140Y-110149000D01*
X142706860Y-110149000D01*
X142734928Y-110151764D01*
G37*
G36*
X158734928Y-110151764D02*
G01*
X158756009Y-110158160D01*
X158775445Y-110168548D01*
X158792476Y-110182524D01*
X158806452Y-110199555D01*
X158816840Y-110218991D01*
X158823236Y-110240072D01*
X158826000Y-110268140D01*
X158826000Y-110731860D01*
X158823236Y-110759928D01*
X158816840Y-110781009D01*
X158806452Y-110800445D01*
X158792476Y-110817476D01*
X158775445Y-110831452D01*
X158756009Y-110841840D01*
X158734928Y-110848236D01*
X158706860Y-110851000D01*
X157293140Y-110851000D01*
X157265072Y-110848236D01*
X157243991Y-110841840D01*
X157224555Y-110831452D01*
X157207524Y-110817476D01*
X157193548Y-110800445D01*
X157183160Y-110781009D01*
X157176764Y-110759928D01*
X157174000Y-110731860D01*
X157174000Y-110268140D01*
X157176764Y-110240072D01*
X157183160Y-110218991D01*
X157193548Y-110199555D01*
X157207524Y-110182524D01*
X157224555Y-110168548D01*
X157243991Y-110158160D01*
X157265072Y-110151764D01*
X157293140Y-110149000D01*
X158706860Y-110149000D01*
X158734928Y-110151764D01*
G37*
G36*
X142734928Y-109151764D02*
G01*
X142756009Y-109158160D01*
X142775445Y-109168548D01*
X142792476Y-109182524D01*
X142806452Y-109199555D01*
X142816840Y-109218991D01*
X142823236Y-109240072D01*
X142826000Y-109268140D01*
X142826000Y-109731860D01*
X142823236Y-109759928D01*
X142816840Y-109781009D01*
X142806452Y-109800445D01*
X142792476Y-109817476D01*
X142775445Y-109831452D01*
X142756009Y-109841840D01*
X142734928Y-109848236D01*
X142706860Y-109851000D01*
X141293140Y-109851000D01*
X141265072Y-109848236D01*
X141243991Y-109841840D01*
X141224555Y-109831452D01*
X141207524Y-109817476D01*
X141193548Y-109800445D01*
X141183160Y-109781009D01*
X141176764Y-109759928D01*
X141174000Y-109731860D01*
X141174000Y-109268140D01*
X141176764Y-109240072D01*
X141183160Y-109218991D01*
X141193548Y-109199555D01*
X141207524Y-109182524D01*
X141224555Y-109168548D01*
X141243991Y-109158160D01*
X141265072Y-109151764D01*
X141293140Y-109149000D01*
X142706860Y-109149000D01*
X142734928Y-109151764D01*
G37*
G36*
X158734928Y-109151764D02*
G01*
X158756009Y-109158160D01*
X158775445Y-109168548D01*
X158792476Y-109182524D01*
X158806452Y-109199555D01*
X158816840Y-109218991D01*
X158823236Y-109240072D01*
X158826000Y-109268140D01*
X158826000Y-109731860D01*
X158823236Y-109759928D01*
X158816840Y-109781009D01*
X158806452Y-109800445D01*
X158792476Y-109817476D01*
X158775445Y-109831452D01*
X158756009Y-109841840D01*
X158734928Y-109848236D01*
X158706860Y-109851000D01*
X157293140Y-109851000D01*
X157265072Y-109848236D01*
X157243991Y-109841840D01*
X157224555Y-109831452D01*
X157207524Y-109817476D01*
X157193548Y-109800445D01*
X157183160Y-109781009D01*
X157176764Y-109759928D01*
X157174000Y-109731860D01*
X157174000Y-109268140D01*
X157176764Y-109240072D01*
X157183160Y-109218991D01*
X157193548Y-109199555D01*
X157207524Y-109182524D01*
X157224555Y-109168548D01*
X157243991Y-109158160D01*
X157265072Y-109151764D01*
X157293140Y-109149000D01*
X158706860Y-109149000D01*
X158734928Y-109151764D01*
G37*
G36*
X158734928Y-108151764D02*
G01*
X158756009Y-108158160D01*
X158775445Y-108168548D01*
X158792476Y-108182524D01*
X158806452Y-108199555D01*
X158816840Y-108218991D01*
X158823236Y-108240072D01*
X158826000Y-108268140D01*
X158826000Y-108731860D01*
X158823236Y-108759928D01*
X158816840Y-108781009D01*
X158806452Y-108800445D01*
X158792476Y-108817476D01*
X158775445Y-108831452D01*
X158756009Y-108841840D01*
X158734928Y-108848236D01*
X158706860Y-108851000D01*
X157293140Y-108851000D01*
X157265072Y-108848236D01*
X157243991Y-108841840D01*
X157224555Y-108831452D01*
X157207524Y-108817476D01*
X157193548Y-108800445D01*
X157183160Y-108781009D01*
X157176764Y-108759928D01*
X157174000Y-108731860D01*
X157174000Y-108268140D01*
X157176764Y-108240072D01*
X157183160Y-108218991D01*
X157193548Y-108199555D01*
X157207524Y-108182524D01*
X157224555Y-108168548D01*
X157243991Y-108158160D01*
X157265072Y-108151764D01*
X157293140Y-108149000D01*
X158706860Y-108149000D01*
X158734928Y-108151764D01*
G37*
G36*
X142734928Y-108151764D02*
G01*
X142756009Y-108158160D01*
X142775445Y-108168548D01*
X142792476Y-108182524D01*
X142806452Y-108199555D01*
X142816840Y-108218991D01*
X142823236Y-108240072D01*
X142826000Y-108268140D01*
X142826000Y-108731860D01*
X142823236Y-108759928D01*
X142816840Y-108781009D01*
X142806452Y-108800445D01*
X142792476Y-108817476D01*
X142775445Y-108831452D01*
X142756009Y-108841840D01*
X142734928Y-108848236D01*
X142706860Y-108851000D01*
X141293140Y-108851000D01*
X141265072Y-108848236D01*
X141243991Y-108841840D01*
X141224555Y-108831452D01*
X141207524Y-108817476D01*
X141193548Y-108800445D01*
X141183160Y-108781009D01*
X141176764Y-108759928D01*
X141174000Y-108731860D01*
X141174000Y-108268140D01*
X141176764Y-108240072D01*
X141183160Y-108218991D01*
X141193548Y-108199555D01*
X141207524Y-108182524D01*
X141224555Y-108168548D01*
X141243991Y-108158160D01*
X141265072Y-108151764D01*
X141293140Y-108149000D01*
X142706860Y-108149000D01*
X142734928Y-108151764D01*
G37*
G36*
X158734928Y-107151764D02*
G01*
X158756009Y-107158160D01*
X158775445Y-107168548D01*
X158792476Y-107182524D01*
X158806452Y-107199555D01*
X158816840Y-107218991D01*
X158823236Y-107240072D01*
X158826000Y-107268140D01*
X158826000Y-107731860D01*
X158823236Y-107759928D01*
X158816840Y-107781009D01*
X158806452Y-107800445D01*
X158792476Y-107817476D01*
X158775445Y-107831452D01*
X158756009Y-107841840D01*
X158734928Y-107848236D01*
X158706860Y-107851000D01*
X157293140Y-107851000D01*
X157265072Y-107848236D01*
X157243991Y-107841840D01*
X157224555Y-107831452D01*
X157207524Y-107817476D01*
X157193548Y-107800445D01*
X157183160Y-107781009D01*
X157176764Y-107759928D01*
X157174000Y-107731860D01*
X157174000Y-107268140D01*
X157176764Y-107240072D01*
X157183160Y-107218991D01*
X157193548Y-107199555D01*
X157207524Y-107182524D01*
X157224555Y-107168548D01*
X157243991Y-107158160D01*
X157265072Y-107151764D01*
X157293140Y-107149000D01*
X158706860Y-107149000D01*
X158734928Y-107151764D01*
G37*
G36*
X142734928Y-107151764D02*
G01*
X142756009Y-107158160D01*
X142775445Y-107168548D01*
X142792476Y-107182524D01*
X142806452Y-107199555D01*
X142816840Y-107218991D01*
X142823236Y-107240072D01*
X142826000Y-107268140D01*
X142826000Y-107731860D01*
X142823236Y-107759928D01*
X142816840Y-107781009D01*
X142806452Y-107800445D01*
X142792476Y-107817476D01*
X142775445Y-107831452D01*
X142756009Y-107841840D01*
X142734928Y-107848236D01*
X142706860Y-107851000D01*
X141293140Y-107851000D01*
X141265072Y-107848236D01*
X141243991Y-107841840D01*
X141224555Y-107831452D01*
X141207524Y-107817476D01*
X141193548Y-107800445D01*
X141183160Y-107781009D01*
X141176764Y-107759928D01*
X141174000Y-107731860D01*
X141174000Y-107268140D01*
X141176764Y-107240072D01*
X141183160Y-107218991D01*
X141193548Y-107199555D01*
X141207524Y-107182524D01*
X141224555Y-107168548D01*
X141243991Y-107158160D01*
X141265072Y-107151764D01*
X141293140Y-107149000D01*
X142706860Y-107149000D01*
X142734928Y-107151764D01*
G37*
G36*
X158734928Y-106151764D02*
G01*
X158756009Y-106158160D01*
X158775445Y-106168548D01*
X158792476Y-106182524D01*
X158806452Y-106199555D01*
X158816840Y-106218991D01*
X158823236Y-106240072D01*
X158826000Y-106268140D01*
X158826000Y-106731860D01*
X158823236Y-106759928D01*
X158816840Y-106781009D01*
X158806452Y-106800445D01*
X158792476Y-106817476D01*
X158775445Y-106831452D01*
X158756009Y-106841840D01*
X158734928Y-106848236D01*
X158706860Y-106851000D01*
X157293140Y-106851000D01*
X157265072Y-106848236D01*
X157243991Y-106841840D01*
X157224555Y-106831452D01*
X157207524Y-106817476D01*
X157193548Y-106800445D01*
X157183160Y-106781009D01*
X157176764Y-106759928D01*
X157174000Y-106731860D01*
X157174000Y-106268140D01*
X157176764Y-106240072D01*
X157183160Y-106218991D01*
X157193548Y-106199555D01*
X157207524Y-106182524D01*
X157224555Y-106168548D01*
X157243991Y-106158160D01*
X157265072Y-106151764D01*
X157293140Y-106149000D01*
X158706860Y-106149000D01*
X158734928Y-106151764D01*
G37*
G36*
X142734928Y-106151764D02*
G01*
X142756009Y-106158160D01*
X142775445Y-106168548D01*
X142792476Y-106182524D01*
X142806452Y-106199555D01*
X142816840Y-106218991D01*
X142823236Y-106240072D01*
X142826000Y-106268140D01*
X142826000Y-106731860D01*
X142823236Y-106759928D01*
X142816840Y-106781009D01*
X142806452Y-106800445D01*
X142792476Y-106817476D01*
X142775445Y-106831452D01*
X142756009Y-106841840D01*
X142734928Y-106848236D01*
X142706860Y-106851000D01*
X141293140Y-106851000D01*
X141265072Y-106848236D01*
X141243991Y-106841840D01*
X141224555Y-106831452D01*
X141207524Y-106817476D01*
X141193548Y-106800445D01*
X141183160Y-106781009D01*
X141176764Y-106759928D01*
X141174000Y-106731860D01*
X141174000Y-106268140D01*
X141176764Y-106240072D01*
X141183160Y-106218991D01*
X141193548Y-106199555D01*
X141207524Y-106182524D01*
X141224555Y-106168548D01*
X141243991Y-106158160D01*
X141265072Y-106151764D01*
X141293140Y-106149000D01*
X142706860Y-106149000D01*
X142734928Y-106151764D01*
G37*
G36*
X142734928Y-105151764D02*
G01*
X142756009Y-105158160D01*
X142775445Y-105168548D01*
X142792476Y-105182524D01*
X142806452Y-105199555D01*
X142816840Y-105218991D01*
X142823236Y-105240072D01*
X142826000Y-105268140D01*
X142826000Y-105731860D01*
X142823236Y-105759928D01*
X142816840Y-105781009D01*
X142806452Y-105800445D01*
X142792476Y-105817476D01*
X142775445Y-105831452D01*
X142756009Y-105841840D01*
X142734928Y-105848236D01*
X142706860Y-105851000D01*
X141293140Y-105851000D01*
X141265072Y-105848236D01*
X141243991Y-105841840D01*
X141224555Y-105831452D01*
X141207524Y-105817476D01*
X141193548Y-105800445D01*
X141183160Y-105781009D01*
X141176764Y-105759928D01*
X141174000Y-105731860D01*
X141174000Y-105268140D01*
X141176764Y-105240072D01*
X141183160Y-105218991D01*
X141193548Y-105199555D01*
X141207524Y-105182524D01*
X141224555Y-105168548D01*
X141243991Y-105158160D01*
X141265072Y-105151764D01*
X141293140Y-105149000D01*
X142706860Y-105149000D01*
X142734928Y-105151764D01*
G37*
G36*
X158734928Y-105151764D02*
G01*
X158756009Y-105158160D01*
X158775445Y-105168548D01*
X158792476Y-105182524D01*
X158806452Y-105199555D01*
X158816840Y-105218991D01*
X158823236Y-105240072D01*
X158826000Y-105268140D01*
X158826000Y-105731860D01*
X158823236Y-105759928D01*
X158816840Y-105781009D01*
X158806452Y-105800445D01*
X158792476Y-105817476D01*
X158775445Y-105831452D01*
X158756009Y-105841840D01*
X158734928Y-105848236D01*
X158706860Y-105851000D01*
X157293140Y-105851000D01*
X157265072Y-105848236D01*
X157243991Y-105841840D01*
X157224555Y-105831452D01*
X157207524Y-105817476D01*
X157193548Y-105800445D01*
X157183160Y-105781009D01*
X157176764Y-105759928D01*
X157174000Y-105731860D01*
X157174000Y-105268140D01*
X157176764Y-105240072D01*
X157183160Y-105218991D01*
X157193548Y-105199555D01*
X157207524Y-105182524D01*
X157224555Y-105168548D01*
X157243991Y-105158160D01*
X157265072Y-105151764D01*
X157293140Y-105149000D01*
X158706860Y-105149000D01*
X158734928Y-105151764D01*
G37*
G36*
X142734928Y-104151764D02*
G01*
X142756009Y-104158160D01*
X142775445Y-104168548D01*
X142792476Y-104182524D01*
X142806452Y-104199555D01*
X142816840Y-104218991D01*
X142823236Y-104240072D01*
X142826000Y-104268140D01*
X142826000Y-104731860D01*
X142823236Y-104759928D01*
X142816840Y-104781009D01*
X142806452Y-104800445D01*
X142792476Y-104817476D01*
X142775445Y-104831452D01*
X142756009Y-104841840D01*
X142734928Y-104848236D01*
X142706860Y-104851000D01*
X141293140Y-104851000D01*
X141265072Y-104848236D01*
X141243991Y-104841840D01*
X141224555Y-104831452D01*
X141207524Y-104817476D01*
X141193548Y-104800445D01*
X141183160Y-104781009D01*
X141176764Y-104759928D01*
X141174000Y-104731860D01*
X141174000Y-104268140D01*
X141176764Y-104240072D01*
X141183160Y-104218991D01*
X141193548Y-104199555D01*
X141207524Y-104182524D01*
X141224555Y-104168548D01*
X141243991Y-104158160D01*
X141265072Y-104151764D01*
X141293140Y-104149000D01*
X142706860Y-104149000D01*
X142734928Y-104151764D01*
G37*
G36*
X158734928Y-104151764D02*
G01*
X158756009Y-104158160D01*
X158775445Y-104168548D01*
X158792476Y-104182524D01*
X158806452Y-104199555D01*
X158816840Y-104218991D01*
X158823236Y-104240072D01*
X158826000Y-104268140D01*
X158826000Y-104731860D01*
X158823236Y-104759928D01*
X158816840Y-104781009D01*
X158806452Y-104800445D01*
X158792476Y-104817476D01*
X158775445Y-104831452D01*
X158756009Y-104841840D01*
X158734928Y-104848236D01*
X158706860Y-104851000D01*
X157293140Y-104851000D01*
X157265072Y-104848236D01*
X157243991Y-104841840D01*
X157224555Y-104831452D01*
X157207524Y-104817476D01*
X157193548Y-104800445D01*
X157183160Y-104781009D01*
X157176764Y-104759928D01*
X157174000Y-104731860D01*
X157174000Y-104268140D01*
X157176764Y-104240072D01*
X157183160Y-104218991D01*
X157193548Y-104199555D01*
X157207524Y-104182524D01*
X157224555Y-104168548D01*
X157243991Y-104158160D01*
X157265072Y-104151764D01*
X157293140Y-104149000D01*
X158706860Y-104149000D01*
X158734928Y-104151764D01*
G37*
G36*
X138916242Y-102553404D02*
G01*
X138953337Y-102564657D01*
X138987515Y-102582925D01*
X139017481Y-102607519D01*
X139042075Y-102637485D01*
X139060343Y-102671663D01*
X139071596Y-102708758D01*
X139076000Y-102753474D01*
X139076000Y-103646526D01*
X139071596Y-103691242D01*
X139060343Y-103728337D01*
X139042075Y-103762515D01*
X139017481Y-103792481D01*
X138987515Y-103817075D01*
X138953337Y-103835343D01*
X138916242Y-103846596D01*
X138871526Y-103851000D01*
X137378474Y-103851000D01*
X137333758Y-103846596D01*
X137296663Y-103835343D01*
X137262485Y-103817075D01*
X137232519Y-103792481D01*
X137207925Y-103762515D01*
X137189657Y-103728337D01*
X137178404Y-103691242D01*
X137174000Y-103646526D01*
X137174000Y-102753474D01*
X137178404Y-102708758D01*
X137189657Y-102671663D01*
X137207925Y-102637485D01*
X137232519Y-102607519D01*
X137262485Y-102582925D01*
X137296663Y-102564657D01*
X137333758Y-102553404D01*
X137378474Y-102549000D01*
X138871526Y-102549000D01*
X138916242Y-102553404D01*
G37*
G36*
X162666242Y-102553404D02*
G01*
X162703337Y-102564657D01*
X162737515Y-102582925D01*
X162767481Y-102607519D01*
X162792075Y-102637485D01*
X162810343Y-102671663D01*
X162821596Y-102708758D01*
X162826000Y-102753474D01*
X162826000Y-103646526D01*
X162821596Y-103691242D01*
X162810343Y-103728337D01*
X162792075Y-103762515D01*
X162767481Y-103792481D01*
X162737515Y-103817075D01*
X162703337Y-103835343D01*
X162666242Y-103846596D01*
X162621526Y-103851000D01*
X161128474Y-103851000D01*
X161083758Y-103846596D01*
X161046663Y-103835343D01*
X161012485Y-103817075D01*
X160982519Y-103792481D01*
X160957925Y-103762515D01*
X160939657Y-103728337D01*
X160928404Y-103691242D01*
X160924000Y-103646526D01*
X160924000Y-102753474D01*
X160928404Y-102708758D01*
X160939657Y-102671663D01*
X160957925Y-102637485D01*
X160982519Y-102607519D01*
X161012485Y-102582925D01*
X161046663Y-102564657D01*
X161083758Y-102553404D01*
X161128474Y-102549000D01*
X162621526Y-102549000D01*
X162666242Y-102553404D01*
G37*
G36*
X157224549Y-100871116D02*
G01*
X157335734Y-100893232D01*
X157545203Y-100979997D01*
X157733720Y-101105960D01*
X157894040Y-101266280D01*
X158020003Y-101454797D01*
X158106768Y-101664266D01*
X158151000Y-101886636D01*
X158151000Y-102113364D01*
X158106768Y-102335734D01*
X158020003Y-102545203D01*
X157894040Y-102733720D01*
X157733720Y-102894040D01*
X157545203Y-103020003D01*
X157335734Y-103106768D01*
X157224549Y-103128884D01*
X157113365Y-103151000D01*
X156886635Y-103151000D01*
X156775451Y-103128884D01*
X156664266Y-103106768D01*
X156454797Y-103020003D01*
X156266280Y-102894040D01*
X156105960Y-102733720D01*
X155979997Y-102545203D01*
X155893232Y-102335734D01*
X155849000Y-102113364D01*
X155849000Y-101886636D01*
X155893232Y-101664266D01*
X155979997Y-101454797D01*
X156105960Y-101266280D01*
X156266280Y-101105960D01*
X156454797Y-100979997D01*
X156664266Y-100893232D01*
X156775451Y-100871116D01*
X156886635Y-100849000D01*
X157113365Y-100849000D01*
X157224549Y-100871116D01*
G37*
G36*
X143224549Y-100871116D02*
G01*
X143335734Y-100893232D01*
X143545203Y-100979997D01*
X143733720Y-101105960D01*
X143894040Y-101266280D01*
X144020003Y-101454797D01*
X144106768Y-101664266D01*
X144151000Y-101886636D01*
X144151000Y-102113364D01*
X144106768Y-102335734D01*
X144020003Y-102545203D01*
X143894040Y-102733720D01*
X143733720Y-102894040D01*
X143545203Y-103020003D01*
X143335734Y-103106768D01*
X143224549Y-103128884D01*
X143113365Y-103151000D01*
X142886635Y-103151000D01*
X142775451Y-103128884D01*
X142664266Y-103106768D01*
X142454797Y-103020003D01*
X142266280Y-102894040D01*
X142105960Y-102733720D01*
X141979997Y-102545203D01*
X141893232Y-102335734D01*
X141849000Y-102113364D01*
X141849000Y-101886636D01*
X141893232Y-101664266D01*
X141979997Y-101454797D01*
X142105960Y-101266280D01*
X142266280Y-101105960D01*
X142454797Y-100979997D01*
X142664266Y-100893232D01*
X142775451Y-100871116D01*
X142886635Y-100849000D01*
X143113365Y-100849000D01*
X143224549Y-100871116D01*
G37*
M02*
